<?xml version="1.0" encoding="UTF-8"?>
<svg width="174px" height="24px" viewBox="0 0 174 24" version="1.1" xmlns="http://www.w3.org/2000/svg" xmlns:xlink="http://www.w3.org/1999/xlink">
    <!-- Generator: Sketch 43.2 (39069) - http://www.bohemiancoding.com/sketch -->
    <title>Arc-logo</title>
    <desc>Created with Sketch.</desc>
    <defs>
        <linearGradient x1="50%" y1="0%" x2="50%" y2="100%" id="linearGradient-1">
            <stop stop-color="#FFFFFF" offset="0%"></stop>
            <stop stop-color="#000000" offset="100%"></stop>
        </linearGradient>
        <linearGradient x1="100%" y1="99.9999642%" x2="0%" y2="99.9999642%" id="linearGradient-2">
            <stop stop-color="#24A300" offset="0%"></stop>
            <stop stop-color="#61C600" offset="15.784275%"></stop>
            <stop stop-color="#FFBE00" offset="49.7297588%"></stop>
            <stop stop-color="#EF5A00" offset="80.5537501%"></stop>
            <stop stop-color="#E00000" offset="100%"></stop>
        </linearGradient>
        <path d="M23.841074,3.30434783e-05 C10.6738415,3.30434783e-05 0,10.4764678 0,23.3991113 L9.42108584,23.3991113 C9.42108584,15.583007 15.8767668,9.24625913 23.841074,9.24625913 C31.8050444,9.24625913 38.3169496,15.583007 38.3169496,23.3991113 L47.6821479,23.3991113 C47.6821479,10.4764678 37.0076331,3.30434783e-05 23.841074,3.30434783e-05 Z" id="path-3"></path>
        <linearGradient x1="50%" y1="-26.3277395%" x2="50%" y2="154.299402%" id="linearGradient-4">
            <stop stop-color="#FFFFFF" stop-opacity="0.5" offset="0%"></stop>
            <stop stop-color="#000000" stop-opacity="0.5" offset="100%"></stop>
        </linearGradient>
        <path d="M4.91170429,23.3991113 L9.42108584,23.3991113 C9.42108584,17.0451809 15.845793,9.32919826 23.841074,9.32919826 L23.841074,9.32919826 C31.8356815,9.32919826 38.3169496,17.0451809 38.3169496,23.3991113 L38.3169496,23.3991113 L42.7701069,23.3991113 C42.7701069,12.8935983 34.2954054,4.78307652 23.841074,4.78307652 L23.841074,4.78307652 C13.3867425,4.78307652 4.91170429,12.8935983 4.91170429,23.3991113" id="path-5"></path>
    </defs>
    <g id="List-View" stroke="none" stroke-width="1" fill="none" fill-rule="evenodd">
        <g id="CMT-IDEAS_DividendChamps" transform="translate(-17.000000, -13.000000)">
            <g id="Header" transform="translate(0.000000, -8.000000)">
                <g id="Arc-logo" transform="translate(17.000000, 21.000000)">
                    <g id="Fill-1">
                        <use fill="url(#linearGradient-1)" xlink:href="#path-3"></use>
                        <use fill="url(#linearGradient-2)" xlink:href="#path-3"></use>
                    </g>
                    <g id="Fill-3">
                        <use fill="url(#linearGradient-2)" xlink:href="#path-5"></use>
                        <use fill="url(#linearGradient-4)" style="mix-blend-mode: multiply;" xlink:href="#path-5"></use>
                    </g>
                    <polygon id="Fill-5" fill="#9B0013" points="-3.36671759e-05 23.3991443 5.48131924 18.7760313 9.42105217 23.3991443"></polygon>
                    <polygon id="Fill-8" fill="#417900" points="47.6819122 23.3991443 42.2005593 18.7760313 38.3170506 23.3991443"></polygon>
                    <g id="Group-16" transform="translate(53.194138, 3.965217)" fill="#FFFFFF">
                        <path d="M18.4067541,3.37783652 L15.5403307,6.7102713 C14.2603047,5.1806887 12.3678727,4.22474087 10.6420933,4.22474087 C7.55279324,4.22474087 5.21494455,6.62832348 5.21494455,9.76976696 C5.21494455,12.9654017 7.55279324,15.3964104 10.6420933,15.3964104 C12.2840415,15.3964104 14.1768101,14.5227409 15.5403307,13.1567235 L18.4346978,16.161367 C16.3473329,18.2645843 13.2583695,19.6576974 10.3916095,19.6576974 C4.51938069,19.6576974 0.150054603,15.4238365 0.150054603,9.8242887 C0.150054603,4.3066887 4.63081905,0.154775652 10.5585987,0.154775652 C13.4529658,0.154775652 16.4587713,1.4110887 18.4067541,3.37783652" id="Fill-15"></path>
                        <polygon id="Fill-18" points="33.7121889 19.4390817 33.7121889 12.0095861 25.6414935 12.0095861 25.6414935 19.4390817 20.6873686 19.4390817 20.6873686 0.318473043 25.6414935 0.318473043 25.6414935 8.18513391 33.7121889 8.18513391 33.7121889 0.318473043 38.6659772 0.318473043 38.6659772 19.4390817"></polygon>
                        <path d="M51.2722135,5.15342783 L48.4333973,12.2280365 L54.0551423,12.2280365 L51.2722135,5.15342783 Z M46.9863821,15.9153583 L45.5669739,19.4391148 L40.4738035,19.4391148 L48.878814,0.318506087 L53.9716477,0.318506087 L62.1817252,19.4391148 L56.8939586,19.4391148 L55.5021575,15.9153583 L46.9863821,15.9153583 Z" id="Fill-20"></path>
                        <polygon id="Fill-22" points="63.9891812 19.4391809 68.9429695 19.4391809 68.9429695 0.318572174 63.9891812 0.318572174"></polygon>
                        <polygon id="Fill-24" points="80.3808202 11.9275061 77.7928244 14.7411583 77.7928244 19.4389496 72.8386994 19.4389496 72.8386994 0.318671304 77.7928244 0.318671304 77.7928244 8.5950713 85.2511138 0.318671304 90.9842972 0.318671304 83.7482111 8.23985391 91.4573211 19.4389496 85.5292047 19.4389496"></polygon>
                        <polygon id="Fill-25" points="93.6267329 19.4391809 98.5805211 19.4391809 98.5805211 0.318572174 93.6267329 0.318572174"></polygon>
                        <polygon id="Fill-26" points="116.085635 19.4390817 107.124106 7.6663513 107.124106 19.4390817 102.476352 19.4390817 102.476352 0.318473043 106.845678 0.318473043 115.835151 12.1186296 115.835151 0.318473043 120.454961 0.318473043 120.454961 19.4390817"></polygon>
                    </g>
                </g>
            </g>
        </g>
    </g>
</svg>