<?xml version="1.0" encoding="UTF-8"?>
<svg width="23px" height="23px" viewBox="0 0 23 23" version="1.1" xmlns="http://www.w3.org/2000/svg" xmlns:xlink="http://www.w3.org/1999/xlink">
    <!-- Generator: Sketch 46.2 (44496) - http://www.bohemiancoding.com/sketch -->
    <title>Group 4</title>
    <desc>Created with Sketch.</desc>
    <defs>
        <linearGradient x1="0%" y1="0%" x2="100%" y2="100%" id="linearGradient-1">
            <stop stop-color="#6F7689" offset="0%"></stop>
            <stop stop-color="#313540" offset="100%"></stop>
        </linearGradient>
        <path d="M6,0 L17,0 L0,17 L0,6 L0,6 C-4.05812251e-16,2.6862915 2.6862915,2.38507522e-15 6,1.77635684e-15 Z" id="path-2"></path>
        <filter x="-26.5%" y="-26.5%" width="152.9%" height="152.9%" filterUnits="objectBoundingBox" id="filter-3">
            <feOffset dx="0" dy="0" in="SourceAlpha" result="shadowOffsetOuter1"></feOffset>
            <feGaussianBlur stdDeviation="1.5" in="shadowOffsetOuter1" result="shadowBlurOuter1"></feGaussianBlur>
            <feColorMatrix values="0 0 0 0 0   0 0 0 0 0   0 0 0 0 0  0 0 0 0.5 0" type="matrix" in="shadowBlurOuter1"></feColorMatrix>
        </filter>
    </defs>
    <g id="Page-1" stroke="none" stroke-width="1" fill="none" fill-rule="evenodd">
        <g id="CMT-Discovery" transform="translate(-474.000000, -489.000000)">
            <g id="STOCKS-LIKE" transform="translate(310.000000, 325.000000)">
                <g id="Group-4" transform="translate(167.000000, 167.000000)">
                    <path d="M6,-2.84217094e-14 L17,-2.84217094e-14 L2.84217094e-14,17 L2.84217094e-14,6 L2.84217094e-14,6 C2.80158972e-14,2.6862915 2.6862915,-2.60366342e-14 6,-2.66453526e-14 Z" id="Rectangle-2" fill="#1199FF" transform="translate(8.500000, 8.500000) rotate(-180.000000) translate(-8.500000, -8.500000) "></path>
                    <g id="Rectangle-2">
                        <use fill="black" fill-opacity="1" filter="url(#filter-3)" xlink:href="#path-2"></use>
                        <use fill="url(#linearGradient-1)" fill-rule="evenodd" xlink:href="#path-2"></use>
                    </g>
                </g>
            </g>
        </g>
    </g>
</svg>