<?xml version="1.0" encoding="UTF-8"?>
<svg width="100px" height="100px" viewBox="0 0 100 100" version="1.1" xmlns="http://www.w3.org/2000/svg" xmlns:xlink="http://www.w3.org/1999/xlink">
    <!-- Generator: Sketch 48.2 (47327) - http://www.bohemiancoding.com/sketch -->
    <title>icon_circle-earnings--green</title>
    <desc>Created with Sketch.</desc>
    <defs></defs>
    <g id="HeadStat/Icon/MoneySign/Green" stroke="none" stroke-width="1" fill="none" fill-rule="evenodd">
        <path d="M50,0 C22.3790323,0 0,22.3790323 0,50 C0,77.6209677 22.3790323,100 50,100 C77.6209677,100 100,77.6209677 100,50 C100,22.3790323 77.6209677,0 50,0 Z M93.5483871,50 C93.5483871,73.9314516 74.1733871,93.5483871 50,93.5483871 C26.0685484,93.5483871 6.4516129,74.1733871 6.4516129,50 C6.4516129,26.0685484 25.8266129,6.4516129 50,6.4516129 C73.9314516,6.4516129 93.5483871,25.8266129 93.5483871,50 Z M61.4314516,51.3104839 C58.8104839,49.2540323 55.483871,47.9233871 52.2580645,46.6330645 C46.1491935,44.1935484 42.4395161,42.4395161 42.4395161,38.4475806 C42.4395161,36.8346774 43.1854839,35.3427419 44.5564516,34.233871 C46.1290323,32.983871 48.3266129,32.3185484 50.9274194,32.3185484 C56.2701613,32.3185484 60.2016129,35.8669355 60.2419355,35.9072581 C60.5645161,36.2096774 61.0282258,36.3508065 61.4717742,36.2903226 C61.9153226,36.2298387 62.3185484,35.9677419 62.5403226,35.5645161 L64.7580645,31.8548387 C65.1008065,31.2701613 65.0201613,30.5241935 64.5564516,30.0201613 C64.3951613,29.8387097 60.625,26.0080645 53.7701613,25.1612903 L53.7701613,19.2540323 C53.7701613,18.4274194 53.1048387,17.7419355 52.2782258,17.7419355 L48.5282258,17.7419355 C47.7016129,17.7419355 47.0362903,18.4274194 47.0362903,19.2540323 L47.0362903,25.4032258 C43.6491935,26.0483871 40.7258065,27.5 38.5282258,29.6370968 C36.0483871,32.0362903 34.6975806,35.2217742 34.6975806,38.5887097 C34.6975806,42.641129 36.2903226,45.8669355 39.5362903,48.4677419 C42.2379032,50.625 45.6653226,51.9959677 48.9717742,53.3467742 C54.8790323,55.7258065 58.4475806,57.4395161 58.4475806,61.0282258 C58.4475806,65.6451613 54.3145161,67.7620968 50.483871,67.7620968 C43.9314516,67.7620968 39.2741935,63.0846774 39.2137097,63.0040323 C38.9112903,62.7016129 38.4879032,62.5403226 38.0645161,62.5604839 C37.641129,62.5806452 37.2379032,62.7822581 36.9556452,63.125 L34.2137097,66.5725806 C33.75,67.1370968 33.7701613,67.9637097 34.2540323,68.5282258 C34.4556452,68.75 38.891129,73.7096774 47.0362903,74.8387097 L47.0362903,80.7862903 C47.0362903,81.6129032 47.7016129,82.2983871 48.5282258,82.2983871 L52.2782258,82.2983871 C53.1048387,82.2983871 53.7701613,81.6129032 53.7701613,80.7862903 L53.7701613,74.8185484 C57.2580645,74.233871 60.2217742,72.7016129 62.4193548,70.3629032 C64.7983871,67.8427419 66.108871,64.4556452 66.108871,60.8467742 C66.1290323,56.8951613 64.5967742,53.7903226 61.4314516,51.3104839 Z" id="icon_circle-earnings--green" fill="#00C04E" fill-rule="nonzero"></path>
    </g>
</svg>