<?xml version="1.0" encoding="UTF-8"?>
<svg width="38px" height="38px" viewBox="0 0 38 38" version="1.1" xmlns="http://www.w3.org/2000/svg" xmlns:xlink="http://www.w3.org/1999/xlink">
    <!-- Generator: Sketch 47.1 (45422) - http://www.bohemiancoding.com/sketch -->
    <title>icon_section-h2__dollarsign</title>
    <desc>Created with Sketch.</desc>
    <defs></defs>
    <g id="Symbols" stroke="none" stroke-width="1" fill="none" fill-rule="evenodd">
        <g id="icon_section-h2__dollarsign" fill="#E2E2E2">
            <g id="usd-circle" transform="translate(12.000000, 6.000000)">
                <path d="M11.3439516,13.4979839 C10.3479839,12.7165323 9.08387097,12.2108871 7.85806452,11.7205645 C5.53669355,10.7935484 4.12701613,10.1270161 4.12701613,8.61008065 C4.12701613,7.99717742 4.41048387,7.43024194 4.93145161,7.00887097 C5.52903226,6.53387097 6.3641129,6.28104839 7.35241935,6.28104839 C9.38266129,6.28104839 10.8766129,7.62943548 10.8919355,7.64475806 C11.0145161,7.75967742 11.1907258,7.81330645 11.3592742,7.79032258 C11.5278226,7.76733871 11.6810484,7.66774194 11.7653226,7.51451613 L12.6080645,6.10483871 C12.7383065,5.88266129 12.7076613,5.59919355 12.5314516,5.40766129 C12.4701613,5.33870968 11.0375,3.88306452 8.43266129,3.56129032 L8.43266129,1.31653226 C8.43266129,1.00241935 8.17983871,0.741935484 7.86572581,0.741935484 L6.44072581,0.741935484 C6.1266129,0.741935484 5.87379032,1.00241935 5.87379032,1.31653226 L5.87379032,3.65322581 C4.58669355,3.8983871 3.47580645,4.45 2.64072581,5.26209677 C1.6983871,6.17379032 1.18508065,7.38427419 1.18508065,8.66370968 C1.18508065,10.203629 1.79032258,11.4294355 3.02379032,12.4177419 C4.05040323,13.2375 5.35282258,13.7584677 6.60927419,14.2717742 C8.85403226,15.1758065 10.2100806,15.8270161 10.2100806,17.1907258 C10.2100806,18.9451613 8.63951613,19.7495968 7.18387097,19.7495968 C4.69395161,19.7495968 2.92419355,17.9721774 2.90120968,17.9415323 C2.78629032,17.8266129 2.62540323,17.7653226 2.46451613,17.7729839 C2.30362903,17.7806452 2.15040323,17.8572581 2.04314516,17.9875 L1.00120968,19.2975806 C0.825,19.5120968 0.83266129,19.8262097 1.01653226,20.0407258 C1.09314516,20.125 2.77862903,22.0096774 5.87379032,22.4387097 L5.87379032,24.6987903 C5.87379032,25.0129032 6.1266129,25.2733871 6.44072581,25.2733871 L7.86572581,25.2733871 C8.17983871,25.2733871 8.43266129,25.0129032 8.43266129,24.6987903 L8.43266129,22.4310484 C9.75806452,22.208871 10.8842742,21.6266129 11.7193548,20.7379032 C12.6233871,19.7802419 13.121371,18.4931452 13.121371,17.1217742 C13.1290323,15.6201613 12.5467742,14.4403226 11.3439516,13.4979839 L11.3439516,13.4979839 Z" id="Path"></path>
            </g>
        </g>
    </g>
</svg>