<?xml version="1.0" encoding="UTF-8"?>
<svg width="300px" height="300px" viewBox="0 0 300 300" version="1.1" xmlns="http://www.w3.org/2000/svg" xmlns:xlink="http://www.w3.org/1999/xlink">
    <defs></defs>
    <g id="icon_bulb" fill="#000000" stroke="none" stroke-width="1" fill-rule="evenodd">
        <path d="M194,87 C194,90.109375 191.070312,93 188,93 C184.429687,93 181.5,90.109375 182,87 C181.5,73.5364583 160.601562,68.3333333 150,68 C146.929687,68.3333333 144,65.4427083 144,62 C144,58.890625 146.929687,56 150,56 C168.414062,56 194,65.4427083 194,87 Z M225,88 C225,48.4722222 185.351562,25 150,25 C114.648438,25 75,48.4722222 75,88 C75,100.111111 80.078125,113.216435 88,123 C91.9921875,127.104167 96.2890625,131.211806 100,136 C114.0625,152.336806 125.78125,171.896991 128,194 L172,194 C174.21875,171.896991 185.9375,152.336806 200,136 C203.710937,131.211806 208.007812,127.104167 212,123 C219.921875,113.216435 225,100.111111 225,88 Z M250,88 C250,107.617188 243.359375,125 230,140 C216.40625,154.6875 198.632813,175.585938 197,196 C202.734375,199.804688 206.25,206.054688 206,213 C206.25,217.1875 204.492188,221.679688 201,225 C204.492188,228.320312 206.25,232.8125 206,238 C206.25,243.945312 202.929688,249.804688 197,253 C199.023438,256.054688 200,259.375 200,263 C200,275.195312 190.039063,281.25 179,281 C173.632813,292.578125 162.304688,300 150,300 C137.695313,300 126.367188,292.578125 121,281 C109.960938,281.25 100,275.195312 100,263 C100,259.375 100.976563,256.054688 103,253 C97.0703125,249.804688 93.75,243.945312 94,238 C93.75,232.8125 95.5078125,228.320312 99,225 C95.5078125,221.679688 93.75,217.1875 94,213 C93.75,206.054688 97.265625,199.804688 103,196 C101.367188,175.585938 83.59375,154.6875 70,140 C56.640625,125 50,107.617188 50,88 C50,34.375 100.585938,0 150,0 C199.414063,0 250,34.375 250,88 Z" id=""></path>
    </g>
</svg>