<?xml version="1.0" encoding="UTF-8"?>
<svg width="38px" height="38px" viewBox="0 0 38 38" version="1.1" xmlns="http://www.w3.org/2000/svg" xmlns:xlink="http://www.w3.org/1999/xlink">
    <!-- Generator: Sketch 48.1 (47250) - http://www.bohemiancoding.com/sketch -->
    <title>icon-9 copy</title>
    <desc>Created with Sketch.</desc>
    <defs></defs>
    <g id="Symbols" stroke="none" stroke-width="1" fill="none" fill-rule="evenodd">
        <g id="icon-9-copy" fill="#00C04E" fill-rule="nonzero">
            <path d="M19,0 C8.50403226,0 0,8.50403226 0,19 C0,29.4959677 8.50403226,38 19,38 C29.4959677,38 38,29.4959677 38,19 C38,8.50403226 29.4959677,0 19,0 Z M35.5483871,19 C35.5483871,28.0939516 28.1858871,35.5483871 19,35.5483871 C9.90604839,35.5483871 2.4516129,28.1858871 2.4516129,19 C2.4516129,9.90604839 9.8141129,2.4516129 19,2.4516129 C28.0939516,2.4516129 35.5483871,9.8141129 35.5483871,19 Z" id="Shape" transform="translate(19.000000, 19.000000) rotate(180.000000) translate(-19.000000, -19.000000) "></path>
            <g id="Page-1" transform="translate(19.000000, 19.500000) scale(-1, 1) translate(-19.000000, -19.500000) translate(9.000000, 9.000000)">
                <g id="Group-8" transform="translate(0.000000, 0.126955)">
                    <path d="M9.02636518,9.7443563 C8.66547625,10.0657423 8.11238318,10.0337188 7.79099723,9.67282982 C7.46961128,9.31194089 7.50163478,8.75884782 7.86252371,8.43746188 L8.8931034,7.51968967 C9.25399233,7.19830373 9.8070854,7.23032722 10.1284713,7.59121615 C10.4498573,7.95210509 10.4178338,8.50519815 10.0569449,8.8265841 L9.02636518,9.7443563 Z" id="Stroke-1"></path>
                    <path d="M14.1098015,6.03224079 C14.0417877,6.51067978 13.5988002,6.84339514 13.1203612,6.77538134 C12.6419222,6.70736754 12.3092069,6.26438002 12.3772207,5.78594103 C12.8472906,2.47926265 15.2253492,-0.146029437 17.5890816,-0.414850273 C17.9154298,-0.451964971 18.2350765,-0.303190891 18.4168111,-0.029597715 C19.8623549,2.14660283 19.4035103,5.55276547 16.8922591,7.50852348 C16.5109939,7.80545212 15.9612092,7.73708385 15.6642806,7.35581868 C15.3673519,6.97455351 15.4357202,6.4247688 15.8169854,6.12784016 C17.387452,4.90476355 17.8177268,2.89733434 17.233726,1.46065366 C15.8573023,1.97654292 14.43019,3.77848763 14.1098015,6.03224079 Z" id="Stroke-2"></path>
                    <path d="M7.63390673,4.46658936 C7.28483624,4.35041181 6.78833308,4.23399949 6.04418275,4.08825836 C5.75740346,4.03209291 4.50065164,3.79719748 4.17291927,3.73323894 C0.756180906,3.06644613 -0.722382069,2.4956315 -0.870753113,0.995195586 C-0.93282792,0.367449998 -0.330411402,-0.117734836 0.269686484,0.0766882418 C1.19150562,0.375344374 2.33258632,0.360214793 4.00789827,0.0919897047 C4.33764866,0.0391951622 4.64776306,-0.0154691914 5.17201775,-0.111425851 C7.82331134,-0.596703865 8.7640844,-0.691151299 9.9091549,-0.392045067 C12.1403855,0.190819453 13.2746424,0.743986023 14.0313614,1.74510826 C14.3227573,2.13061852 14.2464626,2.67935941 13.8609523,2.97075534 C13.4754421,3.26215127 12.9267012,3.18585654 12.6353053,2.80034628 C12.1808192,2.19907148 11.3463968,1.79213139 9.46685937,1.3011397 C8.67939184,1.09544368 7.83517001,1.18019801 5.48709371,1.60997682 C4.95084818,1.70812821 4.63054935,1.76458779 4.28455782,1.81998261 C4.14182378,1.84283498 4.0021129,1.86409494 3.8652521,1.88370835 C4.06964798,1.92784135 4.2839897,1.97190155 4.50811671,2.01564101 C4.82653762,2.07778237 6.08405696,2.31282125 6.38052869,2.37088495 C7.19374125,2.53015186 7.74720593,2.65991963 8.18649042,2.80612218 C10.1507109,3.45972922 10.2668746,5.05008538 8.89981985,6.13896711 L8.74116285,6.23955864 C7.70715463,6.74864593 7.21308006,7.15813531 7.04246066,7.51952653 C6.93967161,7.73724538 6.92940175,7.93275929 6.97836461,8.5928845 C6.99353307,8.79738818 7.00118845,8.91672328 7.00674822,9.05601054 C7.0131528,9.21646273 6.97527988,9.37558321 6.89727725,9.51594529 C6.53825451,10.16199 5.91355225,10.8124851 4.57491942,12.0521755 C4.50522424,12.1166884 4.50522424,12.1166884 4.43562458,12.1810223 C3.41457373,13.1246101 3.12835585,13.3962895 2.77273393,13.7781858 C2.73555065,13.8179881 2.73555065,13.8179881 2.69868625,13.8570284 C2.62968901,13.9299259 2.23298447,14.3383125 2.13576344,14.4435758 C1.97429637,14.6183997 1.87124956,14.7478205 1.81062942,14.8506261 C1.75810449,14.939703 1.75926162,14.9287075 1.76944266,14.9493825 C2.49877966,16.4305956 4.36966163,18.2159091 4.88888889,18.2159091 C6.94677226,18.2159091 15.6394196,17.4893643 16.347773,17.0679936 C16.6179406,16.9072819 16.9535554,16.9038454 17.2269571,17.0589914 C17.4250388,17.1713959 17.8116042,17.4626765 18.4216101,17.9436679 C18.4480416,17.964516 18.4480416,17.964516 18.4744436,17.9853676 C18.7187819,18.1783993 18.9769814,18.3848247 19.2330534,18.5911971 C19.3866821,18.7150088 19.5056456,18.8114377 19.5737582,18.8668886 C19.9485198,19.1719845 20.0049951,19.7231178 19.6998993,20.0978794 C19.3948034,20.4726411 18.8436701,20.5291163 18.4689084,20.2240205 C18.4029022,20.1702844 18.2861353,20.075636 18.1349294,19.9537768 C17.8829439,19.7506978 17.6289964,19.5476719 17.3896057,19.3585489 C17.3638317,19.3381932 17.3638317,19.3381932 17.3380547,19.3178614 C17.0629604,19.1009487 16.8227202,18.9155439 16.6476911,18.7841428 C14.3451387,19.3818705 7.12099022,19.9659091 4.88888889,19.9659091 C3.52603123,19.9659091 1.19238336,17.7389952 0.199458638,15.7224609 C-0.0930445042,15.1284633 -0.0296674613,14.5262278 0.303182758,13.9617478 C0.439185826,13.7311005 0.611636391,13.5145125 0.850191737,13.2562235 C0.965520338,13.1313548 1.37272413,12.7121598 1.42771602,12.6540593 C1.46013065,12.6197309 1.46013065,12.6197309 1.49209012,12.5855202 C1.89084687,12.1573021 2.18635154,11.8768076 3.24790105,10.8957936 C3.31698658,10.8319349 3.31698658,10.8319349 3.38584405,10.7681974 C4.38727575,9.8407846 4.95540934,9.26613623 5.24315847,8.86097342 C5.24030985,8.81983858 5.23701333,8.77429957 5.23315864,8.72233005 C5.1618805,7.76134652 5.18301444,7.35900635 5.45996203,6.77239999 C5.82383999,6.00166524 6.57634504,5.36712399 7.87489485,4.71587903 C7.92122215,4.6758575 7.95713865,4.6413706 7.9843574,4.61519277 C7.90226104,4.56833099 7.7858831,4.51716048 7.63390673,4.46658936 Z" id="Stroke-6"></path>
                </g>
            </g>
        </g>
    </g>
</svg>