<?xml version="1.0" encoding="UTF-8"?>
<svg width="300px" height="300px" viewBox="0 0 300 300" version="1.1" xmlns="http://www.w3.org/2000/svg" xmlns:xlink="http://www.w3.org/1999/xlink">
    <defs></defs>
    <g id="icon_logout" fill="#000000" stroke="none" stroke-width="1" fill-rule="evenodd">
       	<path d="M104,152 C72.3072917,152 47,126.692708 47,96 C47,64.3072917 72.3072917,39 104,39 C134.692708,39 160,64.3072917 160,96 C160,126.692708 134.692708,152 104,152 Z M262,199 L299,235 C299.559226,235.965831 300,237.14123 300,238 C300,239.638952 299.559226,240.814351 299,242 L279,262 C277.814351,262.559226 276.638952,263 275,263 C274.14123,263 272.965831,262.559226 272,262 L235,225 L199,262 C198.034169,262.559226 196.85877,263 196,263 C194.361048,263 193.185649,262.559226 192,262 L172,242 C171.440774,240.814351 171,239.638952 171,238 C171,237.14123 171.440774,235.965831 172,235 L209,199 L172,162 C171.440774,161.034169 171,159.85877 171,159 C171,157.361048 171.440774,156.185649 172,155 L192,135 C193.185649,134.440774 194.361048,134 196,134 C196.85877,134 198.034169,134.440774 199,135 L235,172 L272,135 C272.965831,134.440774 274.14123,134 275,134 C276.638952,134 277.814351,134.440774 279,135 L299,155 C299.559226,156.185649 300,157.361048 300,159 C300,159.85877 299.559226,161.034169 299,162 L262,199 Z M189,199 L162,226 C158.801247,229.367788 156.886204,234.206731 157,239 C156.886204,244.03125 158.801247,248.870192 162,252 L175,265 C172.501169,264.853365 170.291504,265 168,265 L39,265 C15.7622759,265 0,250.923077 0,227 C0,193.882212 7.80748246,143 51,143 C53.3265783,143 54.9469992,144.026442 57,145 C70.8565861,156.637019 85.2930631,163.382212 104,163 C122.120811,163.382212 136.557288,156.637019 151,145 C152.466875,144.026442 154.087295,143 156,143 C159.24318,143 162.042089,143.293269 165,144 C159.979735,148.572115 156.886204,152.384615 157,159 C156.886204,164.408654 158.801247,169.247596 162,173 L189,199 Z" id="icon"></path>
    </g>
</svg>