<?xml version="1.0" encoding="UTF-8"?>
<svg width="16px" height="16px" viewBox="0 0 16 16" version="1.1" xmlns="http://www.w3.org/2000/svg" xmlns:xlink="http://www.w3.org/1999/xlink">
    <!-- Generator: Sketch 44.1 (41455) - http://www.bohemiancoding.com/sketch -->
    <title></title>
    <desc>Created with Sketch.</desc>
    <defs></defs>
    <g id="Comps" stroke="none" stroke-width="1" fill="none" fill-rule="evenodd">
        <g id="Home-v4" transform="translate(-172.000000, -388.000000)" fill="none">
            <g id="LEFT-SIDEBAR" transform="translate(-31.000000, -4.000000)">
                <g id="Group-19" transform="translate(24.000000, 381.000000)">
                    <g id="Group-2" transform="translate(126.000000, 8.000000)">
                        <path d="M68.9431685,10.9444444 C69.0474096,10.7222222 69.0057132,10.4814815 68.8389275,10.2962963 L61.4378124,3.18518519 C61.3127232,3.07407407 61.1250893,3 60.9374554,3 C60.7498215,3 60.5830358,3.07407407 60.4579465,3.18518519 L53.1610725,10.2962963 C52.9942868,10.4814815 52.9525904,10.7222222 53.0568315,10.9444444 C53.1610725,11.1666667 53.3904028,11.2962963 53.6614296,11.2962963 L57.2056255,11.2962963 L57.2056255,18.4074074 C57.2056255,18.7407407 57.4975005,19 57.8727683,19 L64.1272317,19 C64.5024995,19 64.7943745,18.7407407 64.7943745,18.4074074 L64.7943745,11.2962963 L68.3385704,11.2962963 C68.6095972,11.2962963 68.8389275,11.1481481 68.9431685,10.9444444 Z" id="" transform="translate(61.000000, 11.000000) rotate(-180.000000) translate(-61.000000, -11.000000) "></path>
                    </g>
                </g>
            </g>
        </g>
    </g>
</svg>