<?xml version="1.0" encoding="UTF-8"?>
<svg width="38px" height="38px" viewBox="0 0 38 38" version="1.1" xmlns="http://www.w3.org/2000/svg" xmlns:xlink="http://www.w3.org/1999/xlink">
    <!-- Generator: Sketch 47.1 (45422) - http://www.bohemiancoding.com/sketch -->
    <title>Group</title>
    <desc>Created with Sketch.</desc>
    <defs></defs>
    <g id="Symbols" stroke="none" stroke-width="1" fill="none" fill-rule="evenodd">
        <g id="HeadStat/Icon/Plus/Green" fill-rule="nonzero" fill="#00C04E">
            <g id="Group">
                <path d="M38,19 C38,29.4959677 29.4959677,38 19,38 C8.50403226,38 0,29.4959677 0,19 C0,8.50403226 8.50403226,0 19,0 C29.4959677,0 38,8.50403226 38,19 Z M35.5483871,19 C35.5483871,9.8141129 28.0939516,2.4516129 19,2.4516129 C9.8141129,2.4516129 2.4516129,9.90604839 2.4516129,19 C2.4516129,28.1858871 9.90604839,35.5483871 19,35.5483871 C28.1858871,35.5483871 35.5483871,28.0939516 35.5483871,19 Z" id="Shape"></path>
                <path d="M27.7959576,14.519878 L27.7959576,16.4958496 C27.7959576,17.0481344 28.2436729,17.4958496 28.7959576,17.4958496 C29.3482424,17.4958496 29.7959576,17.0481344 29.7959576,16.4958496 L29.7959576,12 C29.7959576,11.4477153 29.3482424,11 28.7959576,11 L24,11 C23.4477153,11 23,11.4477153 23,12 C23,12.5522847 23.4477153,13 24,13 L26.4775937,13 L19.9945177,20.0004995 L15.9122907,16.6883007 C15.50424,16.3572203 14.9095527,16.3984321 14.5510709,16.7826331 L7.26884434,24.5873206 C6.89206979,24.9911267 6.91398321,25.6239124 7.31778932,26.0006869 C7.72159544,26.3774615 8.3543811,26.355548 8.73115566,25.9517419 L15.3767849,18.8293242 L19.4617327,22.1437306 C19.8709021,22.4757186 20.4674769,22.4332551 20.8254984,22.0466594 L27.7959576,14.519878 Z" id="Combined-Shape"></path>
            </g>
        </g>
    </g>
</svg>