<?xml version="1.0" encoding="UTF-8"?>
<svg width="300px" height="300px" viewBox="0 0 300 300" version="1.1" xmlns="http://www.w3.org/2000/svg" xmlns:xlink="http://www.w3.org/1999/xlink">
    <defs></defs>
     <g id="icon_home" fill="#ffffff" stroke="none" stroke-width="1" fill-rule="evenodd">
        <path d="M257,168 L257,258 C257,264.5625 251.612847,270 245,270 L174,270 L174,198 L126,198 L126,270 L55,270 C48.3871528,270 43,264.5625 43,258 L43,168 C43,167.625 43.1857639,167.25 43,167 L150,78 L257,167 C257,167.25 257,167.625 257,168 Z M299,155 L287,169 C286.204606,170.031009 284.716031,170.777593 283,171 L283,171 C281.180665,170.964238 279.878162,170.590947 279,170 L150,62 L21,170 C19.9357658,170.590947 18.4471909,171.150884 17,171 C15.2839692,170.777593 13.7953943,170.031009 13,169 L1,155 C-0.71821126,152.67295 -0.346067528,148.753388 2,147 L136,35 C143.673557,28.3668493 156.326443,28.3668493 164,35 L210,73 L210,37 C209.542997,33.21964 212.148003,30.6065988 215,31 L251,31 C254.572389,30.6065988 257.177395,33.21964 257,37 L257,113 L298,147 C300.346068,148.753388 300.718211,152.67295 299,155 Z" id=""></path>
    </g>
</svg>