<?xml version="1.0" encoding="UTF-8"?>
<svg width="300px" height="300px" viewBox="0 0 300 300" version="1.1" xmlns="http://www.w3.org/2000/svg" xmlns:xlink="http://www.w3.org/1999/xlink">
    <defs></defs>
    <g id="icon_help" fill="#000000" stroke="none" stroke-width="1" fill-rule="evenodd">
        <path d="M150,0 C232.868304,0 300,67.1316964 300,150 C300,232.868304 232.868304,300 150,300 C67.1316964,300 0,232.868304 0,150 C0,67.1316964 67.1316964,0 150,0 Z M151,21 C128.713296,21 108.099723,26.5774648 90,36 L123,69 C131.394737,65.9577465 140.779778,64.2676056 151,64 C160.387812,64.2676056 169.605263,65.9577465 178,69 L211,36 C192.900277,26.5774648 172.286704,21 151,21 Z M36,211 L69,178 C65.9577465,169.605263 64.2676056,160.220222 64,151 C64.2676056,140.612188 65.9577465,131.394737 69,123 L36,90 C26.5774648,108.099723 21,128.713296 21,151 C21,172.286704 26.5774648,192.900277 36,211 Z M151,279 C172.286704,279 192.900277,273.422535 211,264 L178,231 C169.605263,234.042254 160.387812,235.732394 151,236 C140.779778,235.732394 131.394737,234.042254 123,231 L90,264 C108.099723,273.422535 128.713296,279 151,279 Z M151,215 C186.109375,215 215,186.109375 215,151 C215,114.890625 186.109375,86 151,86 C114.890625,86 86,114.890625 86,151 C86,186.109375 114.890625,215 151,215 Z M231,178 L264,211 C273.422535,192.900277 279,172.286704 279,151 C279,128.713296 273.422535,108.099723 264,90 L231,123 C234.042254,131.394737 235.732394,140.779778 236,151 C235.732394,160.220222 234.042254,169.605263 231,178 Z" id="icon"></path>
    </g>
</svg>