<?xml version="1.0" encoding="UTF-8"?>
<svg width="300px" height="300px" viewBox="0 0 300 300" version="1.1" xmlns="http://www.w3.org/2000/svg" xmlns:xlink="http://www.w3.org/1999/xlink">
    <defs></defs>
    <g id="icon_favorite--remove" stroke="none" stroke-width="1" fill-rule="evenodd">
        <path d="M61.2437926,242.070808 L255.234932,105.144462 L289.903846,110.165378 C294.230769,110.883588 300,113.038218 300,118.424793 C300,121.656739 297.65625,124.709131 295.3125,127.043314 L229.867788,190.604902 L245.372596,280.381157 C245.552885,281.638025 245.552885,282.71534 245.552885,283.972207 C245.552885,288.640573 243.389423,292.949833 238.161058,292.949833 C235.637019,292.949833 233.112981,292.05207 230.949519,290.795203 L150,248.42081 L69.0504808,290.795203 C66.7067308,292.05207 64.3629808,292.949833 61.8389423,292.949833 C56.6105769,292.949833 54.2668269,288.640573 54.2668269,283.972207 C54.2668269,282.71534 54.4471154,281.638025 54.6274038,280.381157 L61.2437926,242.070808 Z M65.0119501,185.645634 L4.50721154,127.043314 C2.34375,124.709131 0,121.656739 0,118.424793 C0,113.038218 5.58894231,110.883588 10.0961538,110.165378 L100.600962,97.0580448 L141.165865,15.3616529 C142.788462,11.9501552 145.853365,8 150,8 C154.146635,8 157.211538,11.9501552 158.834135,15.3616529 L197.094483,92.4167448 L65.0119501,185.645634 Z"></path>
    </g>
</svg>