<?xml version="1.0" encoding="UTF-8"?>
<svg width="35px" height="37px" viewBox="0 0 35 37" version="1.1" xmlns="http://www.w3.org/2000/svg" xmlns:xlink="http://www.w3.org/1999/xlink">
    <!-- Generator: Sketch 45.2 (43514) - http://www.bohemiancoding.com/sketch -->
    <title></title>
    <desc>Created with Sketch.</desc>
    <defs>
        <linearGradient x1="72.1101627%" y1="110.418949%" x2="21.2281408%" y2="0%" id="linearGradient-1">
            <stop stop-color="#6D0B95" offset="0%"></stop>
            <stop stop-color="#0096D4" offset="100%"></stop>
        </linearGradient>
    </defs>
    <g id="Page-1" stroke="none" stroke-width="1" fill="none" fill-rule="evenodd">
        <g id="Getting-Started_Screen-4a" transform="translate(-256.000000, -233.000000)" fill="url(#linearGradient-1)">
            <path d="M273.295003,242.444633 C273.295003,240.113711 271.403877,238.222585 269.072955,238.222585 C266.742033,238.222585 264.850907,240.113711 264.850907,242.444633 C264.850907,243.082338 265.004836,243.698053 265.268714,244.269789 C264.696979,244.005911 264.081263,243.851982 263.443558,243.851982 C261.112636,243.851982 259.22151,245.743108 259.22151,248.07403 C259.22151,250.404952 261.112636,252.296078 263.443558,252.296078 C265.77448,252.296078 267.665606,250.404952 267.665606,248.07403 C267.665606,247.436325 267.511677,246.820609 267.247799,246.248874 C267.819535,246.512752 268.43525,246.666681 269.072955,246.666681 C271.403877,246.666681 273.295003,244.775555 273.295003,242.444633 Z M292.00835,257.925475 C292.00835,258.431241 289.985285,260.454305 289.479519,260.454305 C288.907784,260.454305 287.126607,258.387261 286.664821,257.925475 L284.553797,260.036498 L289.39156,264.874261 C289.787377,265.270078 290.007275,265.819824 290.007275,266.36957 C290.007275,267.601001 288.599926,269.00835 287.368495,269.00835 C286.81875,269.00835 286.269004,268.788452 285.873187,268.392635 L271.118009,253.637457 C268.809077,255.352664 265.994379,256.518125 263.091721,256.518125 C258.297937,256.518125 254.999463,253.197661 254.999463,248.425867 C254.999463,241.213202 262.212128,234.000537 269.424792,234.000537 C274.196586,234.000537 277.517051,237.299012 277.517051,242.092796 C277.517051,244.995453 276.351589,247.810152 274.636383,250.119084 L282.442773,257.925475 L284.553797,255.814451 C284.09201,255.352664 282.024966,253.571488 282.024966,252.999752 C282.024966,252.493986 284.048031,250.470922 284.553797,250.470922 C284.729715,250.470922 284.927624,250.558881 285.059563,250.69082 C285.873187,251.504444 292.00835,257.287769 292.00835,257.925475 Z" id="" transform="translate(273.503906, 251.504444) scale(-1, 1) rotate(-270.000000) translate(-273.503906, -251.504444) "></path>
        </g>
    </g>
</svg>