<?xml version="1.0" encoding="UTF-8"?>
<svg width="300px" height="300px" viewBox="0 0 300 300" version="1.1" xmlns="http://www.w3.org/2000/svg" xmlns:xlink="http://www.w3.org/1999/xlink">
    <defs></defs>
    <g id="icon_arrow--up" fill="#009900" stroke="none" stroke-width="1" fill-rule="evenodd">
        <path d="M298.93441,148.958333 C300.88893,144.791667 300.107122,140.277778 296.97989,136.805556 L158.208983,3.47222222 C155.863559,1.38888889 152.345424,0 148.827288,0 C145.309152,0 142.181921,1.38888889 139.836497,3.47222222 L3.0201096,136.805556 C-0.107122109,140.277778 -0.888930037,144.791667 1.06558978,148.958333 C3.0201096,153.125 7.3200532,155.555556 12.4018047,155.555556 L78.8554786,155.555556 L78.8554786,288.888889 C78.8554786,295.138889 84.3281341,300 91.3644054,300 L208.635595,300 C215.671866,300 221.144521,295.138889 221.144521,288.888889 L221.144521,155.555556 L287.598195,155.555556 C292.679947,155.555556 296.97989,152.777778 298.93441,148.958333 Z"></path>
    </g>
</svg>