<?xml version="1.0" encoding="UTF-8"?>
<svg width="300px" height="300px" viewBox="0 0 300 300" version="1.1" xmlns="http://www.w3.org/2000/svg" xmlns:xlink="http://www.w3.org/1999/xlink">
    <defs></defs>
    <g  id="icon_dots" fill="#ffffff" stroke="none" stroke-width="1" fill-rule="evenodd">
        <path d="M150.5,67 C131.998461,67 117,52.0015391 117,33.5 C117,14.9984609 131.998461,0 150.5,0 C169.001539,0 184,14.9984609 184,33.5 C184,52.0015391 169.001539,67 150.5,67 Z M150.5,184 C131.998461,184 117,169.001539 117,150.5 C117,131.998461 131.998461,117 150.5,117 C169.001539,117 184,131.998461 184,150.5 C184,169.001539 169.001539,184 150.5,184 Z M150.5,300 C131.998461,300 117,285.001539 117,266.5 C117,247.998461 131.998461,233 150.5,233 C169.001539,233 184,247.998461 184,266.5 C184,285.001539 169.001539,300 150.5,300 Z"></path>
    </g>
</svg>