<?xml version="1.0" encoding="UTF-8"?>
<svg width="40px" height="40px" viewBox="0 0 40 40" version="1.1" xmlns="http://www.w3.org/2000/svg" xmlns:xlink="http://www.w3.org/1999/xlink">
    <!-- Generator: Sketch 47.1 (45422) - http://www.bohemiancoding.com/sketch -->
    <title>Shape</title>
    <desc>Created with Sketch.</desc>
    <defs></defs>
    <g id="Symbols" stroke="none" stroke-width="1" fill="none" fill-rule="evenodd">
        <g id="Header/Icons/mag" fill-rule="nonzero" fill="#FFFFFF">
            <g id="Group">
                <path d="M39.7246228,36.6310239 L30.2407109,27.147112 C30.0610322,26.9674332 29.8266686,26.8736878 29.5766808,26.8736878 L28.5454812,26.8736878 C31.0062985,24.0222645 32.4984132,20.3115082 32.4984132,16.2492066 C32.4984132,7.27308237 25.2253308,0 16.2492066,0 C7.27308237,0 0,7.27308237 0,16.2492066 C0,25.2253308 7.27308237,32.4984132 16.2492066,32.4984132 C20.3115082,32.4984132 24.0222645,31.0062985 26.8736878,28.5454812 L26.8736878,29.5766808 C26.8736878,29.8266686 26.9752453,30.0610322 27.147112,30.2407109 L36.6310239,39.7246228 C36.9981934,40.0917924 37.5919145,40.0917924 37.959084,39.7246228 L39.7246228,37.959084 C40.0917924,37.5919145 40.0917924,36.9981934 39.7246228,36.6310239 Z M16.2492066,28.7485963 C9.34329378,28.7485963 3.7498169,23.1551194 3.7498169,16.2492066 C3.7498169,9.34329378 9.34329378,3.7498169 16.2492066,3.7498169 C23.1551194,3.7498169 28.7485963,9.34329378 28.7485963,16.2492066 C28.7485963,23.1551194 23.1551194,28.7485963 16.2492066,28.7485963 Z" id="Shape"></path>
            </g>
        </g>
    </g>
</svg>