<?xml version="1.0" encoding="UTF-8"?>
<svg width="38px" height="38px" viewBox="0 0 38 38" version="1.1" xmlns="http://www.w3.org/2000/svg" xmlns:xlink="http://www.w3.org/1999/xlink">
    <!-- Generator: Sketch 47.1 (45422) - http://www.bohemiancoding.com/sketch -->
    <title>icon-0</title>
    <desc>Created with Sketch.</desc>
    <defs></defs>
    <g id="Symbols" stroke="none" stroke-width="1" fill="none" fill-rule="evenodd">
        <g id="icon-0" fill-rule="nonzero" fill="#FD001F">
            <path d="M19,0 C8.50403226,0 0,8.50403226 0,19 C0,29.4959677 8.50403226,38 19,38 C29.4959677,38 38,29.4959677 38,19 C38,8.50403226 29.4959677,0 19,0 Z M35.5483871,19 C35.5483871,28.0939516 28.1858871,35.5483871 19,35.5483871 C9.90604839,35.5483871 2.4516129,28.1858871 2.4516129,19 C2.4516129,9.90604839 9.8141129,2.4516129 19,2.4516129 C28.0939516,2.4516129 35.5483871,9.8141129 35.5483871,19 Z M18.4069767,20.4964029 L10.3139535,12.0215827 C9.98604651,11.6834532 9.98604651,11.1366906 10.3139535,10.7985612 L10.8093023,10.2877698 C11.1372093,9.94964029 11.6674419,9.94964029 11.9953488,10.2877698 L19,17.647482 L26.0046512,10.294964 C26.3325581,9.95683453 26.8627907,9.95683453 27.1906977,10.294964 L27.6860465,10.8057554 C28.0139535,11.1438849 28.0139535,11.6906475 27.6860465,12.028777 L19.5930233,20.5035971 C19.2651163,20.8345324 18.7348837,20.8345324 18.4069767,20.4964029 Z M19.5930233,29.705036 L27.6860465,21.2302158 C28.0139535,20.8920863 28.0139535,20.3453237 27.6860465,20.0071942 L27.1906977,19.4964029 C26.8627907,19.1582734 26.3325581,19.1582734 26.0046512,19.4964029 L19,26.8561151 L11.9953488,19.5035971 C11.6674419,19.1654676 11.1372093,19.1654676 10.8093023,19.5035971 L10.3139535,20.0143885 C9.98604651,20.352518 9.98604651,20.8992806 10.3139535,21.2374101 L18.4069767,29.7122302 C18.7348837,30.0431655 19.2651163,30.0431655 19.5930233,29.705036 Z" id="Shape"></path>
        </g>
    </g>
</svg>