<?xml version="1.0" encoding="UTF-8"?>
<svg width="38px" height="38px" viewBox="0 0 38 38" version="1.1" xmlns="http://www.w3.org/2000/svg" xmlns:xlink="http://www.w3.org/1999/xlink">
    <!-- Generator: Sketch 47.1 (45422) - http://www.bohemiancoding.com/sketch -->
    <title>icon_section-h2__movers</title>
    <desc>Created with Sketch.</desc>
    <defs></defs>
    <g id="Symbols" stroke="none" stroke-width="1" fill="none" fill-rule="evenodd">
        <g id="icon_section-h2__movers" fill-rule="nonzero" fill="#E2E2E2">
            <g id="signal" transform="translate(18.500000, 19.500000) rotate(-270.000000) translate(-18.500000, -19.500000) translate(7.000000, 9.000000)">
                <path d="M0.375,0 L1.625,0 C1.83125,0 2,0.1091158 2,0.242479556 L2,20.2575204 C2,20.3908842 1.83125,20.5 1.625,20.5 L0.375,20.5 C0.16875,20.5 3.76802997e-16,20.3908842 3.76802997e-16,20.2575204 L-1.77635684e-15,0.242479556 C-1.77635684e-15,0.1091158 0.16875,0 0.375,0 Z M5.5,4.03349826 L5.5,20.262798 C5.5,20.3932591 5.66875,20.5 5.875,20.5 L7.125,20.5 C7.33125,20.5 7.5,20.3932591 7.5,20.262798 L7.5,4.03349826 C7.5,3.90303718 7.33125,3.7962963 7.125,3.7962963 L5.875,3.7962963 C5.66875,3.7962963 5.5,3.90303718 5.5,4.03349826 Z M10.5,10.8609664 L10.5,20.2686632 C10.5,20.3958984 10.66875,20.5 10.875,20.5 L12.125,20.5 C12.33125,20.5 12.5,20.3958984 12.5,20.2686632 L12.5,10.8609664 C12.5,10.7337312 12.33125,10.6296296 12.125,10.6296296 L10.875,10.6296296 C10.66875,10.6296296 10.5,10.7337312 10.5,10.8609664 Z M15.5,6.30927939 L15.5,20.2647947 C15.5,20.3941576 15.66875,20.5 15.875,20.5 L17.125,20.5 C17.33125,20.5 17.5,20.3941576 17.5,20.2647947 L17.5,6.30927939 C17.5,6.17991647 17.33125,6.07407407 17.125,6.07407407 L15.875,6.07407407 C15.66875,6.07407407 15.5,6.17991647 15.5,6.30927939 Z M20.5,0.240234375 L20.5,20.2597656 C20.5,20.3918945 20.66875,20.5 20.875,20.5 L22.125,20.5 C22.33125,20.5 22.5,20.3918945 22.5,20.2597656 L22.5,0.240234375 C22.5,0.108105469 22.33125,-7.10542736e-15 22.125,-7.10542736e-15 L20.875,-7.10542736e-15 C20.66875,-7.10542736e-15 20.5,0.108105469 20.5,0.240234375 Z" id="Shape"></path>
            </g>
        </g>
    </g>
</svg>