<?xml version="1.0" encoding="UTF-8"?>
<svg width="300px" height="300px" viewBox="0 0 300 300" version="1.1" xmlns="http://www.w3.org/2000/svg" xmlns:xlink="http://www.w3.org/1999/xlink">
    <defs></defs>
    <g id="icon_watching--PLUS" fill="#000000" stroke="none" stroke-width="1" fill-rule="evenodd">
        <path d="M213.966667,211.966667 L181,211.966667 L181,232.033333 L213.966667,232.033333 L213.966667,265 L234.033333,265 L234.033333,232.033333 L267,232.033333 L267,211.966667 L234.033333,211.966667 L234.033333,179 L213.966667,179 L213.966667,211.966667 Z M171.428571,154.68002 C165.189102,159.477775 159.630502,165.11725 154.922645,171.428571 L128.571429,171.428571 L128.571429,53.5714286 L171.428571,53.5714286 L171.428571,154.68002 Z M300,260.725666 L300,289.285714 C300,295.145089 295.145089,300 289.285714,300 L259.659152,300 C277.129395,291.834943 291.383287,277.936554 300.000007,260.725653 Z M182.142857,147.649982 L182.142857,53.5714286 L253.125,53.5714286 C255.46875,53.5714286 257.645089,55.078125 258.314732,57.421875 L290.107658,168.888637 C274.43528,149.441678 250.420595,137 223.5,137 C208.498306,137 194.399,140.863583 182.14284,147.649992 Z M117.857143,53.5714286 L117.857143,182.142857 C117.857143,188.002232 113.002232,192.857143 107.142857,192.857143 L107.142857,289.285714 C107.142857,295.145089 102.287946,300 96.4285714,300 L10.7142857,300 C4.85491071,300 0,295.145089 0,289.285714 L0,203.571429 L41.6852679,57.421875 C42.3549107,55.078125 44.53125,53.5714286 46.875,53.5714286 L117.857143,53.5714286 Z M123.214286,5.35714286 L123.214286,42.8571429 L64.2857143,42.8571429 L64.2857143,5.35714286 C64.2857143,2.34375 66.6294643,0 69.6428571,0 L117.857143,0 C120.870536,0 123.214286,2.34375 123.214286,5.35714286 Z M235.714286,5.35714286 L235.714286,42.8571429 L176.785714,42.8571429 L176.785714,5.35714286 C176.785714,2.34375 179.129464,0 182.142857,0 L230.357143,0 C233.370536,0 235.714286,2.34375 235.714286,5.35714286 Z M223.5,300 C181.250217,300 147,265.749783 147,223.5 C147,181.250217 181.250217,147 223.5,147 C265.749783,147 300,181.250217 300,223.5 C300,265.749783 265.749783,300 223.5,300 Z" id="Combined-Shape"></path>
    </g>
</svg>