<?xml version="1.0" encoding="UTF-8"?>
<svg width="300px" height="300px" viewBox="0 0 300 300" version="1.1" xmlns="http://www.w3.org/2000/svg" xmlns:xlink="http://www.w3.org/1999/xlink">
    <defs></defs>
    <g id="icon_arrow--down" stroke="none" stroke-width="1" fill="#CC0000" fill-rule="evenodd">
        <path d="M299.93441,148.958333 C301.88893,144.791667 301.107122,140.277778 297.97989,136.805556 L159.208983,3.47222222 C156.863559,1.38888889 153.345424,0 149.827288,0 C146.309152,0 143.181921,1.38888889 140.836497,3.47222222 L4.0201096,136.805556 C0.892877891,140.277778 0.111069963,144.791667 2.06558978,148.958333 C4.0201096,153.125 8.3200532,155.555556 13.4018047,155.555556 L79.8554786,155.555556 L79.8554786,288.888889 C79.8554786,295.138889 85.3281341,300 92.3644054,300 L209.635595,300 C216.671866,300 222.144521,295.138889 222.144521,288.888889 L222.144521,155.555556 L288.598195,155.555556 C293.679947,155.555556 297.97989,152.777778 299.93441,148.958333 Z" transform="translate(151.000000, 150.000000) rotate(-180.000000) translate(-151.000000, -150.000000) "></path>
    </g>
</svg>