<?xml version="1.0" encoding="UTF-8"?>
<svg width="300px" height="300px" viewBox="0 0 300 300" version="1.1" xmlns="http://www.w3.org/2000/svg" xmlns:xlink="http://www.w3.org/1999/xlink">
    <!-- Generator: Sketch 47.1 (45422) - http://www.bohemiancoding.com/sketch -->
    <title>icon_education</title>
    <desc>Created with Sketch.</desc>
    <defs></defs>
    <g id="UI" stroke="none" stroke-width="1" fill="none" fill-rule="evenodd">
        <g id="icon_education" fill="#ffffff">
            <path d="M230.989583,146.1875 L233.333333,187.333333 C234.375,205.692708 195.963542,220.666667 150,220.666667 C104.036458,220.666667 65.625,205.692708 66.6666667,187.333333 L69.0104167,146.1875 L143.75,169.755208 C145.833333,170.40625 147.916667,170.666667 150,170.666667 C152.083333,170.666667 154.166667,170.40625 156.25,169.755208 L230.989583,146.1875 Z M300,104 C300,105.822917 298.828125,107.385417 297.135417,108.036458 L151.302083,153.869792 C150.78125,154 150.390625,154 150,154 C149.609375,154 149.21875,154 148.697917,153.869792 L63.8020833,127.046875 C56.3802083,132.90625 51.171875,147.229167 50.1302083,164.807292 C55.078125,167.671875 58.3333333,172.880208 58.3333333,179 C58.3333333,184.859375 55.3385417,189.9375 50.78125,192.932292 L58.3333333,249.3125 C58.4635417,250.484375 58.0729167,251.65625 57.2916667,252.567708 C56.5104167,253.479167 55.3385417,254 54.1666667,254 L29.1666667,254 C27.9947917,254 26.8229167,253.479167 26.0416667,252.567708 C25.2604167,251.65625 24.8697917,250.484375 25,249.3125 L32.5520833,192.932292 C27.9947917,189.9375 25,184.859375 25,179 C25,172.75 28.515625,167.411458 33.4635417,164.546875 C34.2447917,149.3125 38.1510417,132.90625 46.2239583,121.578125 L2.86458333,108.036458 C1.171875,107.385417 0,105.822917 0,104 C0,102.177083 1.171875,100.614583 2.86458333,99.9635417 L148.697917,54.1302083 C149.21875,54 149.609375,54 150,54 C150.390625,54 150.78125,54 151.302083,54.1302083 L297.135417,99.9635417 C298.828125,100.614583 300,102.177083 300,104 Z" id="ï†"></path>
        </g>
    </g>
</svg>
