<?xml version="1.0" encoding="UTF-8"?>
<svg width="19px" height="19px" viewBox="0 0 19 19" version="1.1" xmlns="http://www.w3.org/2000/svg" xmlns:xlink="http://www.w3.org/1999/xlink">
    <!-- Generator: Sketch 43.2 (39069) - http://www.bohemiancoding.com/sketch -->
    <title>Group 10</title>
    <desc>Created with Sketch.</desc>
    <defs></defs>
    <g id="List-View" stroke="none" stroke-width="1" fill="none" fill-rule="evenodd">
        <g id="CMT-IDEAS_HoverStates" transform="translate(-190.000000, -470.000000)">
            <g id="Group-10" transform="translate(190.000000, 469.000000)">
                <path d="M2.53154884,19.9496258 L6.48633428,13.2948643 L7.56969035,13.902543 L3.6149049,20.5573046 L2.34967124,21.4709916 L2.53154884,19.9496258 Z M3.04981284,11.0419417 C3.90702322,9.59952581 5.44313843,8.7759433 7.03959601,8.73099433 L9.67722528,4.29265508 C9.38988673,3.38140555 9.47714715,2.36141916 10.0062804,1.47099158 L16.3496712,5.02902502 C15.8204954,5.9194526 14.9548652,6.50283904 13.9989553,6.7167598 L11.3613685,11.1550577 C12.1194966,12.5207546 12.1534313,14.2249734 11.2962209,15.6673893 L3.04981284,11.0419417 Z" id="Combined-Shape" fill="#FFFFFF" transform="translate(9.349671, 11.470992) rotate(-345.000000) translate(-9.349671, -11.470992) "></path>
                <path d="M1.5,1.5 L18.5,18.5" id="Line" stroke="#FFFFFF" stroke-linecap="square"></path>
            </g>
        </g>
    </g>
</svg>