<?xml version="1.0" encoding="UTF-8"?>
<svg width="300px" height="300px" viewBox="0 0 300 300" version="1.1" xmlns="http://www.w3.org/2000/svg" xmlns:xlink="http://www.w3.org/1999/xlink">
    <defs></defs>
    <g id="icon_watching" stroke="none" stroke-width="1" fill="#000000" fill-rule="evenodd">
        <path d="M117.857143,53.5714286 L46.875,53.5714286 C44.53125,53.5714286 42.3549107,55.078125 41.6852679,57.421875 L0,203.571429 L0,289.285714 C0,295.145089 4.85491071,300 10.7142857,300 L96.4285714,300 C102.287946,300 107.142857,295.145089 107.142857,289.285714 L107.142857,192.857143 C113.002232,192.857143 117.857143,188.002232 117.857143,182.142857 L117.857143,53.5714286 Z M171.428571,53.5714286 L128.571429,53.5714286 L128.571429,171.428571 L171.428571,171.428571 L171.428571,53.5714286 Z M300,203.571429 L258.314732,57.421875 C257.645089,55.078125 255.46875,53.5714286 253.125,53.5714286 L182.142857,53.5714286 L182.142857,182.142857 C182.142857,188.002232 186.997768,192.857143 192.857143,192.857143 L192.857143,289.285714 C192.857143,295.145089 197.712054,300 203.571429,300 L289.285714,300 C295.145089,300 300,295.145089 300,289.285714 L300,203.571429 Z M123.214286,5.35714286 C123.214286,2.34375 120.870536,0 117.857143,0 L69.6428571,0 C66.6294643,0 64.2857143,2.34375 64.2857143,5.35714286 L64.2857143,42.8571429 L123.214286,42.8571429 L123.214286,5.35714286 Z M235.714286,5.35714286 C235.714286,2.34375 233.370536,0 230.357143,0 L182.142857,0 C179.129464,0 176.785714,2.34375 176.785714,5.35714286 L176.785714,42.8571429 L235.714286,42.8571429 L235.714286,5.35714286 Z"></path>
    </g>
</svg>