<?xml version="1.0" encoding="UTF-8"?>
<svg width="100px" height="100px" viewBox="0 0 100 100" version="1.1" xmlns="http://www.w3.org/2000/svg" xmlns:xlink="http://www.w3.org/1999/xlink">
    <!-- Generator: Sketch 48.2 (47327) - http://www.bohemiancoding.com/sketch -->
    <title>icon_circle-exclaimation--green</title>
    <desc>Created with Sketch.</desc>
    <defs></defs>
    <g id="HeadStat/Icon/Exclaimation/Green-Copy" stroke="none" stroke-width="1" fill="none" fill-rule="evenodd">
        <path d="M50,100 C22.3790323,100 0,77.6209677 0,50 C0,22.3790323 22.3790323,0 50,0 C77.6209677,0 100,22.3790323 100,50 C100,77.6209677 77.6209677,100 50,100 Z M6.4516129,50 C6.4516129,74.1733871 26.0685484,93.5483871 50,93.5483871 C74.1733871,93.5483871 93.5483871,73.9314516 93.5483871,50 C93.5483871,25.8266129 73.9314516,6.4516129 50,6.4516129 C25.8266129,6.4516129 6.4516129,26.0685484 6.4516129,50 Z M48.1470081,21.0526316 L54.5102483,21.0526316 C56.4530075,21.0526316 58.0015836,22.748538 57.8889599,24.7660819 L56.0025126,59.8538012 C55.8898889,61.7251462 54.4257805,63.1578947 52.623801,63.1578947 L50.0052995,63.1578947 C48.20332,63.1578947 46.7392116,61.6959064 46.6265879,59.8538012 L44.7401406,24.7660819 C44.6556728,22.748538 46.204249,21.0526316 48.1470081,21.0526316 Z M57.8947368,75 C57.8947368,78.6419173 54.9577068,81.5789474 51.3157895,81.5789474 C47.6738722,81.5789474 44.7368421,78.6419173 44.7368421,75 C44.7368421,71.3580827 47.6738722,68.4210526 51.3157895,68.4210526 C54.9577068,68.4210526 57.8947368,71.3580827 57.8947368,75 Z" id="icon_circle-exclaimation--green" fill="#00C04E" fill-rule="nonzero"></path>
    </g>
</svg>