<?xml version="1.0" encoding="UTF-8"?>
<svg width="100px" height="100px" viewBox="0 0 100 100" version="1.1" xmlns="http://www.w3.org/2000/svg" xmlns:xlink="http://www.w3.org/1999/xlink">
    <!-- Generator: Sketch 48.2 (47327) - http://www.bohemiancoding.com/sketch -->
    <title>icon_circle-exclaimation--red</title>
    <desc>Created with Sketch.</desc>
    <defs></defs>
    <g id="HeadStat/Icon/Exclaimation/Red" stroke="none" stroke-width="1" fill="none" fill-rule="evenodd">
        <path d="M50,0 C77.6209677,0 100,22.3790323 100,50 C100,77.6209677 77.6209677,100 50,100 C22.3790323,100 0,77.6209677 0,50 C1.42108547e-14,22.3790323 22.3790323,-1.42108547e-14 50,0 Z M93.5483871,50 C93.5483871,25.8266129 73.9314516,6.4516129 50,6.4516129 C25.8266129,6.4516129 6.4516129,26.0685484 6.4516129,50 C6.4516129,74.1733871 26.0685484,93.5483871 50,93.5483871 C74.1733871,93.5483871 93.5483871,73.9314516 93.5483871,50 Z M47.569244,20.8 L53.8561253,20.8 C55.7755714,20.8 57.3055646,22.4755556 57.1942924,24.4688889 L55.3304824,59.1355556 C55.2192102,60.9844444 53.7726711,62.4 51.9923154,62.4 L49.4052359,62.4 C47.6248802,62.4 46.1783411,60.9555556 46.0670689,59.1355556 L44.2032589,24.4688889 C44.1198048,22.4755556 45.649798,20.8 47.569244,20.8 Z M57.2,74.1 C57.2,77.6982143 54.2982143,80.6 50.7,80.6 C47.1017857,80.6 44.2,77.6982143 44.2,74.1 C44.2,70.5017857 47.1017857,67.6 50.7,67.6 C54.2982143,67.6 57.2,70.5017857 57.2,74.1 Z" id="icon_circle-exclaimation--red" fill="#FD001F" fill-rule="nonzero"></path>
    </g>
</svg>