<?xml version="1.0" encoding="UTF-8"?>
<svg width="448px" height="448px" viewBox="0 0 448 448" version="1.1" xmlns="http://www.w3.org/2000/svg" xmlns:xlink="http://www.w3.org/1999/xlink">
    <!-- Generator: Sketch 47.1 (45422) - http://www.bohemiancoding.com/sketch -->
    <title>Shape</title>
    <desc>Created with Sketch.</desc>
    <defs></defs>
    <g id="Page-1" stroke="none" stroke-width="1" fill="none" fill-rule="evenodd">
        <g id="icon__thin-arrow--up" fill-rule="nonzero" fill="#FFFFFF">
            <path d="M3.5302239,231.5355 L10.63034,238.6065 C15.3363009,243.2925 22.9666661,243.2925 27.6736313,238.6065 L206.927962,60.1125 L206.927962,435.9995 C206.927962,442.6265 212.323849,447.9995 218.979078,447.9995 L229.021675,447.9995 C235.676904,447.9995 241.072791,442.6265 241.072791,435.9995 L241.072791,60.1125 L420.327122,238.6055 C425.033083,243.2915 432.663448,243.2915 437.370413,238.6055 L444.470529,231.5345 C449.17649,226.8485 449.17649,219.2505 444.470529,214.5645 L232.52152,3.5145 C227.815559,-1.1715 220.185194,-1.1715 215.478229,3.5145 L3.5302239,214.5655 C-1.1767413,219.2515 -1.1767413,226.8495 3.5302239,231.5355 Z" id="Shape" transform="translate(224.000000, 223.999750) rotate(180.000000) translate(-224.000000, -223.999750) "></path>
        </g>
    </g>
</svg>