<?xml version="1.0" encoding="UTF-8"?>
<svg width="38px" height="38px" viewBox="0 0 38 38" version="1.1" xmlns="http://www.w3.org/2000/svg" xmlns:xlink="http://www.w3.org/1999/xlink">
    <!-- Generator: Sketch 47.1 (45422) - http://www.bohemiancoding.com/sketch -->
    <title>Group 2</title>
    <desc>Created with Sketch.</desc>
    <defs></defs>
    <g id="Symbols" stroke="none" stroke-width="1" fill="none" fill-rule="evenodd">
        <g id="HeadStat/Icon/Plus/Red">
            <g id="Group-2">
                <path d="M38,19 C38,29.4959677 29.4959677,38 19,38 C8.50403226,38 0,29.4959677 0,19 C0,8.50403226 8.50403226,0 19,0 C29.4959677,0 38,8.50403226 38,19 Z M35.5483871,19 C35.5483871,9.8141129 28.0939516,2.4516129 19,2.4516129 C9.8141129,2.4516129 2.4516129,9.90604839 2.4516129,19 C2.4516129,28.1858871 9.90604839,35.5483871 19,35.5483871 C28.1858871,35.5483871 35.5483871,28.0939516 35.5483871,19 Z" id="Shape" fill="#FD001F" fill-rule="nonzero"></path>
                <g id="Group" transform="translate(18.500000, 18.500000) scale(-1, 1) rotate(-180.000000) translate(-18.500000, -18.500000) translate(8.000000, 11.000000)" stroke-linecap="round" stroke-width="2" stroke="#FD001F" stroke-linejoin="round">
                    <polyline id="Path-6" points="16 1 20.7959576 1 20.7959576 5.49584961"></polyline>
                    <polyline id="Path-5" points="0 14.2109375 7.28222656 6.40625 12.0917969 10.3085937 20.739502 0.970703125"></polyline>
                </g>
            </g>
        </g>
    </g>
</svg>