<?xml version="1.0" encoding="UTF-8"?>
<svg width="36px" height="36px" viewBox="0 0 36 36" version="1.1" xmlns="http://www.w3.org/2000/svg" xmlns:xlink="http://www.w3.org/1999/xlink">
    <!-- Generator: Sketch 45.2 (43514) - http://www.bohemiancoding.com/sketch -->
    <title></title>
    <desc>Created with Sketch.</desc>
    <defs>
        <linearGradient x1="0%" y1="100%" x2="100%" y2="0%" id="linearGradient-1">
            <stop stop-color="#00CC00" offset="0%"></stop>
            <stop stop-color="#00A3FF" offset="100%"></stop>
        </linearGradient>
    </defs>
    <g id="Page-1" stroke="none" stroke-width="1" fill="none" fill-rule="evenodd">
        <g id="Getting-Started_Screen-2" transform="translate(-255.000000, -232.000000)" fill="url(#linearGradient-1)">
            <path d="M283.500034,251.500023 L283.500034,248.50002 C283.500034,247.679706 282.820346,247.000018 282.000032,247.000018 L276.000025,247.000018 L276.000025,241.000011 C276.000025,240.179697 275.320337,239.500009 274.500023,239.500009 L271.50002,239.500009 C270.679706,239.500009 270.000018,240.179697 270.000018,241.000011 L270.000018,247.000018 L264.000011,247.000018 C263.179697,247.000018 262.500009,247.679706 262.500009,248.50002 L262.500009,251.500023 C262.500009,252.320337 263.179697,253.000025 264.000011,253.000025 L270.000018,253.000025 L270.000018,259.000032 C270.000018,259.820346 270.679706,260.500034 271.50002,260.500034 L274.500023,260.500034 C275.320337,260.500034 276.000025,259.820346 276.000025,259.000032 L276.000025,253.000025 L282.000032,253.000025 C282.820346,253.000025 283.500034,252.320337 283.500034,251.500023 Z M291.000043,250.000021 C291.000043,259.937533 282.937533,268.000043 273.000021,268.000043 C263.06251,268.000043 255,259.937533 255,250.000021 C255,240.06251 263.06251,232 273.000021,232 C282.937533,232 291.000043,240.06251 291.000043,250.000021 Z" id="" transform="translate(273.000021, 250.000021) scale(-1, 1) translate(-273.000021, -250.000021) "></path>
        </g>
    </g>
</svg>