<?xml version="1.0" encoding="UTF-8"?>
<svg width="300px" height="300px" viewBox="0 0 300 300" version="1.1" xmlns="http://www.w3.org/2000/svg" xmlns:xlink="http://www.w3.org/1999/xlink">
    <defs></defs>
    <g id="icon_portfolio--remove" fill="#000000" stroke="none" stroke-width="1" fill-rule="evenodd">
        <path d="M71.4149152,279 L154.675931,209.125 L176.785714,209.125 C182.645089,209.125 187.5,204.253906 187.5,198.375 L187.5,181.578112 L199.508785,171.5 L300,171.5 L300,252.125 C300,266.90625 287.946429,279 273.214286,279 L71.4149152,279 Z M13.4624114,275.415781 C5.43317935,270.761308 0,262.048853 0,252.125 L0,171.5 L112.5,171.5 L112.5,192.300634 L13.4624114,275.415781 Z M128.571429,178.813037 L128.571429,171.5 L137.28543,171.5 L128.571429,178.813037 Z M218.722865,155.375 L299.769967,87.3579789 C299.921686,88.509574 300,89.6835564 300,90.875 L300,155.375 L218.722865,155.375 Z M156.499511,155.375 L0,155.375 L0,90.875 C0,76.09375 12.0535714,64 26.7857143,64 L85.7142857,64 L85.7142857,37.125 C85.7142857,28.2226562 92.9129464,21 101.785714,21 L198.214286,21 C207.087054,21 214.285714,28.2226562 214.285714,37.125 L214.285714,64 L265.3793,64 L156.499511,155.375 Z"></path>
    </g>
</svg>