<?xml version="1.0" encoding="UTF-8"?>
<svg width="300px" height="300px" viewBox="0 0 300 300" version="1.1" xmlns="http://www.w3.org/2000/svg" xmlns:xlink="http://www.w3.org/1999/xlink">
    <defs></defs>
    <g id="icon_holding--PLUS" fill="#000000" stroke="none" stroke-width="1" fill-rule="evenodd">
        <path d="M213.966667,212.966667 L181,212.966667 L181,233.033333 L213.966667,233.033333 L213.966667,266 L234.033333,266 L234.033333,233.033333 L267,233.033333 L267,212.966667 L234.033333,212.966667 L234.033333,180 L213.966667,180 L213.966667,212.966667 Z M300.000007,185.274347 C297.559,180.398718 294.6656,175.788924 291.374844,171.5 L300,171.5 L300,185.274334 Z M158.459408,279 L26.7857143,279 C12.0535714,279 0,266.90625 0,252.125 L0,171.5 L112.5,171.5 L112.5,198.375 C112.5,204.253906 117.354911,209.125 123.214286,209.125 L139.203224,209.125 C138.411994,213.798601 138,218.601187 138,223.5 C138,244.681735 145.702518,264.06445 158.459408,279 Z M143.600382,193 L128.571429,193 L128.571429,171.5 L155.625156,171.5 C150.642052,177.994603 146.570096,185.224969 143.600388,192.999999 Z M275.17234,155.375 C260.819295,144.471456 242.915393,138 223.5,138 C204.084607,138 186.180705,144.471456 171.82766,155.375 L0,155.375 L0,90.875 C0,76.09375 12.0535714,64 26.7857143,64 L85.7142857,64 L85.7142857,37.125 C85.7142857,28.2226562 92.9129464,21 101.785714,21 L198.214286,21 C207.087054,21 214.285714,28.2226562 214.285714,37.125 L214.285714,64 L273.214286,64 C287.946429,64 300,76.09375 300,90.875 L300,155.375 L275.17234,155.375 Z M107.142857,64 L192.857143,64 L192.857143,42.5 L107.142857,42.5 L107.142857,64 Z M223.5,300 C181.250217,300 147,265.749783 147,223.5 C147,181.250217 181.250217,147 223.5,147 C265.749783,147 300,181.250217 300,223.5 C300,265.749783 265.749783,300 223.5,300 Z" id="Combined-Shape"></path>
    </g>
</svg>