<?xml version="1.0" encoding="UTF-8"?>
<svg width="300px" height="300px" viewBox="0 0 300 300" version="1.1" xmlns="http://www.w3.org/2000/svg" xmlns:xlink="http://www.w3.org/1999/xlink">
    <!-- Generator: Sketch 46.2 (44496) - http://www.bohemiancoding.com/sketch -->
    <title>icon_stockview</title>
    <desc>Created with Sketch.</desc>
    <defs></defs>
    <g id="UI" stroke="none" stroke-width="1" fill="none" fill-rule="evenodd">
        <g id="icon_stockview" fill="#ffffff">
            <path d="M254.553042,183.258345 C258.079449,183.258345 260.938156,186.117061 260.938156,189.64348 L260.938156,278.615777 C260.938156,282.142196 258.079449,285.000912 254.553042,285.000912 L21.3851136,285.000912 C17.8605309,285.000912 15,282.142196 15,278.615777 L15,45.4452365 C15,41.9188176 17.8605309,39.0601014 21.3851136,39.0601014 L110.358935,39.0601014 C113.885342,39.0601014 116.744048,41.9188176 116.744048,45.4452365 L116.744048,69.9915203 C116.744048,73.5179392 113.885342,76.3766554 110.358935,76.3766554 L52.316428,76.3766554 L52.316428,247.682534 L223.623552,247.682534 L223.623552,189.64348 C223.623552,186.117061 226.482259,183.258345 230.008666,183.258345 L254.553042,183.258345 Z M278.614886,15 C282.141293,15 285,17.8587162 285,21.3851351 L285,149.627838 C285,153.154257 282.141293,156.012973 278.614886,156.012973 L254.553954,156.012973 C251.027547,156.012973 248.168841,153.154257 248.168841,149.627838 L248.168841,77.8753378 L159.497856,166.544797 C158.301104,167.741554 156.677461,168.41473 154.982669,168.41473 L137.969078,168.41473 C134.444495,168.41473 131.583964,165.556014 131.583964,162.029595 L131.583964,145.01777 C131.583964,143.322973 132.257138,141.699324 133.455715,140.500743 L222.124875,51.8312838 L150.370793,51.8312838 C146.84621,51.8312838 143.985679,48.9725676 143.985679,45.4461486 L143.985679,21.3851351 C143.985679,17.8587162 146.84621,15 150.370793,15 L278.614886,15 Z" id="icon"></path>
        </g>
    </g>
</svg>