<?xml version="1.0" encoding="UTF-8"?>
<svg width="100px" height="100px" viewBox="0 0 100 100" version="1.1" xmlns="http://www.w3.org/2000/svg" xmlns:xlink="http://www.w3.org/1999/xlink">
    <!-- Generator: Sketch 48.2 (47327) - http://www.bohemiancoding.com/sketch -->
    <title>Group</title>
    <desc>Created with Sketch.</desc>
    <defs></defs>
    <g id="HeadStat/Icon/Exclaimation/Red-Copy" stroke="none" stroke-width="1" fill="none" fill-rule="evenodd">
        <g id="Group" fill="#CCCCCC">
            <path d="M50,100 C77.6209677,100 100,77.6209677 100,50 C100,22.3790323 77.6209677,0 50,0 C22.3790323,0 0,22.3790323 0,50 C0,77.6209677 22.3790323,100 50,100 Z M5.2020202,50.2020202 C5.2020202,25.4728535 25.2228535,5.2020202 50.2020202,5.2020202 C74.9311869,5.2020202 95.2020202,25.2228535 95.2020202,50.2020202 C95.2020202,74.9311869 75.1811869,95.2020202 50.2020202,95.2020202 C25.4728535,95.2020202 5.2020202,75.1811869 5.2020202,50.2020202 Z" id="Shape" fill-rule="nonzero" transform="translate(50.000000, 50.000000) rotate(-180.000000) translate(-50.000000, -50.000000) "></path>
            <path d="M39.4655722,50.1044682 C40.3305153,50.5829922 41.571096,51.3063672 43.003558,52.142017 C47.2331536,54.6097606 53.2188159,58.1014567 55.0283927,58.6529675 C58.8518204,59.8174689 61.2441813,60.9795046 62.5682279,62.0631288 C64.7737959,60.7364618 69.8855694,58.0419494 73.6753481,56.894544 C74.2132394,56.7313921 74.732829,56.597583 75.2246787,56.4989521 C76.797892,54.6472403 78.0300194,52.5457459 78.8778918,50.29836 C79.7675382,47.942809 80.2342742,45.4192567 80.2342742,42.8477864 C80.2342742,37.0327586 77.8804866,31.7666937 74.0766738,27.9571597 C70.272861,24.1474613 65.0145092,21.7897733 59.2078431,21.7897733 C53.401177,21.7897733 48.1434818,24.146886 44.3390124,27.9571597 C40.5351996,31.7666937 38.1806733,37.0321833 38.1806733,42.8477864 C38.1806733,44.1744534 38.3026304,45.4836956 38.5422768,46.7568553 C38.755989,47.8906168 39.0642465,49.0104878 39.4655722,50.1044682 Z M39.3099662,65.445509 C43.4322953,66.7524498 46.9727432,67.4298793 50.9671242,68.1944327 L51.9995736,68.3917766 C55.3139167,69.0287674 59.4105577,68.6359701 61.7086194,67.5720721 C62.6736887,67.1249456 63.4037076,66.5273249 63.7739285,65.7892375 C64.0311381,65.2769325 64.1212517,64.7425177 64.014724,64.194459 C65.9885243,63.0055464 70.8058281,60.4764873 74.4253101,59.3806165 C75.5102848,59.0523402 76.4419514,58.864695 77.070695,58.9081748 C77.1999563,58.9168872 77.2592934,58.7603929 77.2673364,58.8272153 C77.3070586,59.160341 77.0908023,59.7763727 76.5444577,60.7475577 L76.5487253,60.7501057 C74.8737444,63.7232502 69.6441174,67.9679927 64.0257214,71.4282914 C58.6288343,74.7518219 52.9730141,77.294525 49.9072632,77.2085517 C48.3070487,77.1644144 39.7410836,74.0057618 33.4224604,71.6754438 C29.8364633,70.3538728 26.9510216,69.2893994 26.243408,69.1482751 C23.3451634,68.5697231 21.8084716,69.078987 19.6129162,69.8067182 C19.1373986,69.96387 18.624785,70.1336794 18.0971525,70.2919819 C17.4122725,70.4963121 17.0219443,71.219605 17.225972,71.9055824 C17.4299998,72.5914777 18.152304,72.9824668 18.837184,72.7780544 C19.4405678,72.597149 19.9491599,72.4282437 20.4227078,72.271996 C22.237291,71.6707589 23.5080737,71.2497696 25.7374422,71.6945946 C26.263105,71.7994721 29.0573661,72.8302466 32.5303519,74.1100639 C39.0101619,76.4998892 47.7944351,79.738104 49.8361899,79.7952277 C53.4318714,79.8965709 59.6226284,77.1870995 65.3831708,73.6395126 C71.3130251,69.9876236 76.9014652,65.3849332 78.7981191,62.0152928 L78.7994322,62.0126626 L78.8037819,62.0152928 C79.6382768,60.5321315 79.9432515,59.3873563 79.8403349,58.5229392 C79.7214144,57.5233978 79.2234915,56.8995577 78.4367618,56.5772815 C79.6235862,54.9109134 80.5835671,53.1058869 81.2989774,51.2113528 C82.3020455,48.5550599 82.8282828,45.7231219 82.8282828,42.8477864 C82.8282828,36.3174385 80.1839649,30.4021361 75.9096408,26.121311 C71.6353167,21.8405682 65.7287705,19.1919192 59.2078431,19.1919192 C52.6868336,19.1919192 46.7803695,21.8399929 42.5060454,26.121311 C38.2317213,30.4021361 35.5867468,36.3161234 35.5867468,42.8477864 C35.5867468,44.3099064 35.7265953,45.7793415 35.9998087,47.2341464 C36.1106862,47.8226437 36.2435586,48.4066205 36.3978515,48.9841041 C30.3733698,47.5477925 27.2989193,49.3510108 23.9973792,51.2896821 C22.7244627,52.0371395 21.4114956,52.8082683 19.8523165,53.3666832 L19.7628594,53.4021903 C19.6226006,53.4483824 19.4229226,53.5052596 19.1790905,53.5715066 C18.8916789,53.6489318 18.5505931,53.73359 18.1730679,53.8219468 C17.4764518,53.9844411 17.0433647,54.6820077 17.2058647,55.3796565 C17.3682005,56.0773053 18.0647346,56.5110344 18.7613507,56.3484579 C19.1557824,56.2558271 19.522146,56.1649224 19.8480488,56.0773053 C20.1188,56.0036609 20.3749427,55.9270576 20.6139326,55.8448653 C20.6507002,55.8355775 20.6874679,55.823824 20.723579,55.8110842 C22.4743932,55.1840386 23.911205,54.3395943 25.3050117,53.5218624 C28.4135215,51.6966165 31.2867346,50.0104401 37.5001431,51.9842898 C37.5345307,51.9953036 37.6139752,52.0334409 37.732239,52.0965646 L37.7359322,52.0990304 L37.7365888,52.0990304 C37.7836974,52.1277155 37.8321191,52.154839 37.8824284,52.1776063 C38.5476935,52.5413897 39.9788424,53.3764641 41.7072513,54.3837316 C46.0360703,56.9092564 52.1619094,60.4826517 54.2784307,61.1280262 C58.5099139,62.4165559 60.6303745,63.5453037 61.3373315,64.4646253 L61.3850967,64.5277491 L61.3857533,64.5284066 L61.4641308,64.6321334 C61.3759868,64.8081072 61.0738846,65.0100539 60.6243013,65.2184937 C58.7496424,66.0868561 55.3176099,66.3898993 52.4859245,65.8455393 L51.4536393,65.6481132 C47.5516699,64.9013134 44.0945238,64.2398292 40.0903765,62.9704503 C39.4085331,62.7551063 38.6794991,63.1342597 38.4644738,63.8171961 C38.2494486,64.5001324 38.6280407,65.230165 39.3099662,65.445509 Z M59.1734555,50.1847702 L59.2071865,50.1841126 L59.2409176,50.1847702 L61.3630197,50.1847702 C62.1981711,50.1847702 62.9535498,49.8479458 63.498171,49.3037502 C64.0415611,48.7583216 64.3779689,48.0016587 64.3779689,47.1655158 C64.3779689,46.3297838 64.0415611,45.5733674 63.498171,45.0278567 C62.9535498,44.4837432 62.1975145,44.1467545 61.3630197,44.1467545 L57.05201,44.1467545 C55.508178,44.1467545 54.1064105,43.5173254 53.091278,42.5013455 L53.0862717,42.4963318 C52.0717958,41.4796944 51.4432984,40.0760132 51.4432984,38.5297282 C51.4432984,36.9836898 52.0717958,35.5804195 53.0862717,34.5637821 L53.091278,34.5587684 C54.1064105,33.5427886 55.508178,32.9133594 57.05201,32.9133594 L57.9102233,32.9133594 L57.9102233,30.6603845 C57.9102233,29.9430917 58.4909555,29.3614985 59.2071865,29.3614985 C59.9234175,29.3614985 60.5041498,29.9430917 60.5041498,30.6603845 L60.5041498,32.9133594 L65.6750142,32.9133594 C66.390999,32.9133594 66.9717313,33.4949526 66.9717313,34.2122454 C66.9717313,34.9296204 66.390999,35.5111314 65.6750142,35.5111314 L59.2071865,35.5111314 L57.05201,35.5111314 C56.2168585,35.5111314 55.4614798,35.8479557 54.9168587,36.3920691 C54.3735506,36.9375799 54.0372249,37.6939962 54.0372249,38.5297282 C54.0372249,39.3661177 54.3735506,40.1225341 54.9168587,40.6679626 C55.4614798,41.2121583 56.2168585,41.549147 57.05201,41.549147 L61.3630197,41.549147 C62.9070157,41.549147 64.3087012,42.1785761 65.3238337,43.194556 L65.3287579,43.1995697 C66.3433159,44.2162071 66.9717313,45.6194774 66.9717313,47.1655158 C66.9717313,48.7115542 66.3433159,50.115482 65.3287579,51.1321194 L65.3238337,51.1370509 C64.3087012,52.1531129 62.9074261,52.7825421 61.3630197,52.7825421 L60.5041498,52.7825421 L60.5041498,55.035517 C60.5041498,55.7528098 59.9234175,56.334403 59.2071865,56.334403 C58.4909555,56.334403 57.9102233,55.7528098 57.9102233,55.035517 L57.9102233,52.7825421 L52.7402616,52.7825421 C52.0240306,52.7825421 51.4432984,52.2009489 51.4432984,51.4835739 C51.4432984,50.7663633 52.0240306,50.1847702 52.7402616,50.1847702 L59.1734555,50.1847702 Z" id="Fill-1" stroke="#CCCCCC" stroke-width="2.01999998"></path>
        </g>
    </g>
</svg>