<?xml version="1.0" encoding="UTF-8"?>
<svg width="23px" height="24px" viewBox="0 0 23 24" version="1.1" xmlns="http://www.w3.org/2000/svg" xmlns:xlink="http://www.w3.org/1999/xlink">
    <!-- Generator: Sketch 43.2 (39069) - http://www.bohemiancoding.com/sketch -->
    <title></title>
    <desc>Created with Sketch.</desc>
    <defs></defs>
    <g id="List-View" stroke="none" stroke-width="1" fill="none" fill-rule="evenodd">
        <g id="CMT-IDEAS_DividendChamps" transform="translate(-382.000000, -165.000000)" fill="#FFFFFF">
            <g id="Group-7" transform="translate(215.000000, 158.000000)">
                <path d="M182.607161,27.4107148 C182.607161,27.1796877 182.427474,27 182.196447,27 L178.910728,27 C178.679701,27 178.500014,27.1796877 178.500014,27.4107148 L178.500014,29.8750034 C178.500014,30.1060305 178.679701,30.2857182 178.910728,30.2857182 L182.196447,30.2857182 C182.427474,30.2857182 182.607161,30.1060305 182.607161,29.8750034 L182.607161,27.4107148 Z M176.44644,25.7678557 C176.44644,25.5368286 176.266752,25.3571409 176.035725,25.3571409 L173.571436,25.3571409 L173.571436,7.69640556 C173.571436,7.4653785 173.391749,7.28569078 173.160722,7.28569078 L170.696433,7.28569078 C170.465406,7.28569078 170.285718,7.4653785 170.285718,7.69640556 L170.285718,25.3571409 L167.82143,25.3571409 C167.654577,25.3571409 167.500559,25.4598196 167.436384,25.6138376 C167.37221,25.7678557 167.410715,25.9347086 167.526228,26.0630569 L171.633376,30.1702047 C171.72322,30.2472137 171.825899,30.2857182 171.928577,30.2857182 C172.031256,30.2857182 172.133935,30.2472137 172.223779,30.1702047 L176.318091,26.0758918 C176.3951,25.9860479 176.44644,25.8833692 176.44644,25.7678557 Z M185.07145,20.8392784 C185.07145,20.6082513 184.891762,20.4285636 184.660735,20.4285636 L178.910728,20.4285636 C178.679701,20.4285636 178.500014,20.6082513 178.500014,20.8392784 L178.500014,23.303567 C178.500014,23.5345941 178.679701,23.7142818 178.910728,23.7142818 L184.660735,23.7142818 C184.891762,23.7142818 185.07145,23.5345941 185.07145,23.303567 L185.07145,20.8392784 Z M187.535739,14.267842 C187.535739,14.0368149 187.356051,13.8571272 187.125024,13.8571272 L178.910728,13.8571272 C178.679701,13.8571272 178.500014,14.0368149 178.500014,14.267842 L178.500014,16.7321306 C178.500014,16.9631577 178.679701,17.1428454 178.910728,17.1428454 L187.125024,17.1428454 C187.356051,17.1428454 187.535739,16.9631577 187.535739,16.7321306 L187.535739,14.267842 Z M190.000027,7.69640556 C190.000027,7.4653785 189.82034,7.28569078 189.589313,7.28569078 L178.910728,7.28569078 C178.679701,7.28569078 178.500014,7.4653785 178.500014,7.69640556 L178.500014,10.1606942 C178.500014,10.3917213 178.679701,10.571409 178.910728,10.571409 L189.589313,10.571409 C189.82034,10.571409 190.000027,10.3917213 190.000027,10.1606942 L190.000027,7.69640556 Z" id=""></path>
            </g>
        </g>
    </g>
</svg>