<?xml version="1.0" encoding="UTF-8"?>
<svg width="100px" height="100px" viewBox="0 0 100 100" version="1.1" xmlns="http://www.w3.org/2000/svg" xmlns:xlink="http://www.w3.org/1999/xlink">
    <!-- Generator: Sketch 48.2 (47327) - http://www.bohemiancoding.com/sketch -->
    <title>icon_circle-arrow--red</title>
    <desc>Created with Sketch.</desc>
    <defs></defs>
    <g id="HeadStat/Icon/Arrow/Red" stroke="none" stroke-width="1" fill="none" fill-rule="evenodd">
        <path d="M50,100 C77.6209677,100 100,77.6209677 100,50 C100,22.3790323 77.6209677,0 50,0 C22.3790323,0 0,22.3790323 0,50 C0,77.6209677 22.3790323,100 50,100 Z M6.4516129,50 C6.4516129,26.0685484 25.8266129,6.4516129 50,6.4516129 C73.9314516,6.4516129 93.5483871,25.8266129 93.5483871,50 C93.5483871,73.9314516 74.1733871,93.5483871 50,93.5483871 C26.0685484,93.5483871 6.4516129,74.1733871 6.4516129,50 Z M25.1008065,47.4798387 L48.2862903,24.2741935 C49.233871,23.3266129 50.766129,23.3266129 51.7137097,24.2741935 L74.8991935,47.4798387 C75.8467742,48.4274194 75.8467742,49.9596774 74.8991935,50.9072581 L73.5080645,52.2983871 C72.5604839,53.2459677 70.9879032,53.2459677 70.0604839,52.2580645 L53.4274194,35.0201613 L53.4274194,73.3870968 C53.4274194,74.7177419 52.3387097,75.8064516 51.0080645,75.8064516 L48.9919355,75.8064516 C47.6612903,75.8064516 46.5725806,74.7177419 46.5725806,73.3870968 L46.5725806,35.0201613 L29.9395161,52.2782258 C28.9919355,53.2459677 27.4395161,53.266129 26.4919355,52.3185484 L25.1008065,50.9274194 C24.1532258,49.9596774 24.1532258,48.4274194 25.1008065,47.4798387 Z" id="icon_circle-arrow--red" fill="#FD001F" fill-rule="nonzero" transform="translate(50.000000, 50.000000) rotate(-180.000000) translate(-50.000000, -50.000000) "></path>
    </g>
</svg>