<?xml version="1.0" encoding="UTF-8"?>
<svg width="30px" height="30px" viewBox="0 0 30 30" version="1.1" xmlns="http://www.w3.org/2000/svg" xmlns:xlink="http://www.w3.org/1999/xlink">
    <defs></defs>
    <g id="Phone" stroke="none" stroke-width="1" fill="none" fill-rule="evenodd">
        <g id="PSP--MyStocks__home-Copy-2" transform="translate(-18.000000, -451.000000)" fill-rule="nonzero" fill="#FFFFFF">
            <path d="M44.7857143,453.142857 C45.375,453.142857 45.8571429,453.625 45.8571429,454.214286 L45.8571429,477.785714 C45.8571429,478.375 45.375,478.857143 44.7857143,478.857143 L21.2142857,478.857143 C20.625,478.857143 20.1428571,478.375 20.1428571,477.785714 L20.1428571,454.214286 C20.1428571,453.625 20.625,453.142857 21.2142857,453.142857 L44.7857143,453.142857 L44.7857143,453.142857 Z M44.7857143,451 L21.2142857,451 C19.4397321,451 18,452.439732 18,454.214286 L18,477.785714 C18,479.560268 19.4397321,481 21.2142857,481 L44.7857143,481 C46.5602679,481 48,479.560268 48,477.785714 L48,454.214286 C48,452.439732 46.5602679,451 44.7857143,451 Z M40.7678571,464.794643 L34.2053571,464.794643 L31.7946429,464.794643 L25.2321429,464.794643 C24.7901786,464.794643 24.4285714,465.15625 24.4285714,465.598214 L24.4285714,466.401786 C24.4285714,466.84375 24.7901786,467.205357 25.2321429,467.205357 L31.7946429,467.205357 L34.2053571,467.205357 L40.7678571,467.205357 C41.2098214,467.205357 41.5714286,466.84375 41.5714286,466.401786 L41.5714286,465.598214 C41.5714286,465.15625 41.2098214,464.794643 40.7678571,464.794643 Z" id="Shape"></path>
        </g>
    </g>
</svg>