<?xml version="1.0" encoding="UTF-8"?>
<svg width="300px" height="300px" viewBox="0 0 300 300" version="1.1" xmlns="http://www.w3.org/2000/svg" xmlns:xlink="http://www.w3.org/1999/xlink">
    <defs></defs>
    <g id="icon_uncollapse" fill="#000000" stroke="none" stroke-width="1" fill-rule="evenodd">
        <path d="M122.44898,255.625 C122.44898,260.984375 124.936224,274 116.326531,274 L55.1020408,274 C24.6811224,274 0,249.308594 0,218.875 L0,84.125 C0,53.6914062 24.6811224,29 55.1020408,29 L116.326531,29 C119.579082,29 122.44898,31.8710938 122.44898,35.125 C122.44898,40.484375 124.936224,53.5 116.326531,53.5 L55.1020408,53.5 C38.2653061,53.5 24.4897959,67.28125 24.4897959,84.125 L24.4897959,218.875 C24.4897959,235.71875 38.2653061,249.5 55.1020408,249.5 L110.204082,249.5 C114.987245,249.5 122.44898,248.542969 122.44898,255.625 Z M300,151.5 C300,154.753906 298.660714,157.816406 296.364796,160.113281 L192.283163,264.238281 C189.987245,266.535156 186.92602,267.875 183.673469,267.875 C176.977041,267.875 171.428571,262.324219 171.428571,255.625 L171.428571,200.5 L85.7142857,200.5 C79.0178571,200.5 73.4693878,194.949219 73.4693878,188.25 L73.4693878,114.75 C73.4693878,108.050781 79.0178571,102.5 85.7142857,102.5 L171.428571,102.5 L171.428571,47.375 C171.428571,40.6757812 176.977041,35.125 183.673469,35.125 C186.92602,35.125 189.987245,36.4648438 192.283163,38.7617188 L296.364796,142.886719 C298.660714,145.183594 300,148.246094 300,151.5 Z" id=""></path>
    </g>
</svg>