<?xml version="1.0" encoding="UTF-8"?>
<svg width="38px" height="38px" viewBox="0 0 38 38" version="1.1" xmlns="http://www.w3.org/2000/svg" xmlns:xlink="http://www.w3.org/1999/xlink">
    <!-- Generator: Sketch 47.1 (45422) - http://www.bohemiancoding.com/sketch -->
    <title>icon_section-h2__calendar</title>
    <desc>Created with Sketch.</desc>
    <defs></defs>
    <g id="Symbols" stroke="none" stroke-width="1" fill="none" fill-rule="evenodd">
        <g id="icon_section-h2__calendar" fill-rule="nonzero" fill="#E2E2E2">
            <g id="calendar-exclamation" transform="translate(8.000000, 5.000000)">
                <path d="M19.6428571,3.25 L17.2857143,3.25 L17.2857143,0.609375 C17.2857143,0.27421875 17.0205357,0 16.6964286,0 L16.3035714,0 C15.9794643,0 15.7142857,0.27421875 15.7142857,0.609375 L15.7142857,3.25 L6.28571429,3.25 L6.28571429,0.609375 C6.28571429,0.27421875 6.02053571,0 5.69642857,0 L5.30357143,0 C4.97946429,0 4.71428571,0.27421875 4.71428571,0.609375 L4.71428571,3.25 L2.35714286,3.25 C1.05580357,3.25 0,4.34179688 0,5.6875 L0,23.5625 C0,24.9082031 1.05580357,26 2.35714286,26 L19.6428571,26 C20.9441964,26 22,24.9082031 22,23.5625 L22,5.6875 C22,4.34179688 20.9441964,3.25 19.6428571,3.25 Z M2.35714286,4.875 L19.6428571,4.875 C20.075,4.875 20.4285714,5.240625 20.4285714,5.6875 L20.4285714,8.125 L1.57142857,8.125 L1.57142857,5.6875 C1.57142857,5.240625 1.925,4.875 2.35714286,4.875 Z M19.6428571,24.375 L2.35714286,24.375 C1.925,24.375 1.57142857,24.009375 1.57142857,23.5625 L1.57142857,9.75 L20.4285714,9.75 L20.4285714,23.5625 C20.4285714,24.009375 20.075,24.375 19.6428571,24.375 Z M10.4450893,11.375 L11.5549107,11.375 C11.89375,11.375 12.1638393,11.6695313 12.1441964,12.0199219 L11.8151786,18.1136719 C11.7955357,18.4386719 11.5401786,18.6875 11.2258929,18.6875 L10.7691964,18.6875 C10.4549107,18.6875 10.1995536,18.4335938 10.1799107,18.1136719 L9.85089286,12.0199219 C9.83616071,11.6695313 10.10625,11.375 10.4450893,11.375 Z M12.375,21.125 C12.375,21.9121094 11.7611607,22.546875 11,22.546875 C10.2388393,22.546875 9.625,21.9121094 9.625,21.125 C9.625,20.3378906 10.2388393,19.703125 11,19.703125 C11.7611607,19.703125 12.375,20.3378906 12.375,21.125 Z" id="Shape"></path>
            </g>
        </g>
    </g>
</svg>