<?xml version="1.0" encoding="UTF-8"?>
<svg width="100px" height="100px" viewBox="0 0 100 100" version="1.1" xmlns="http://www.w3.org/2000/svg" xmlns:xlink="http://www.w3.org/1999/xlink">
    <!-- Generator: Sketch 48.2 (47327) - http://www.bohemiancoding.com/sketch -->
    <title>icon__H1-Financials</title>
    <desc>Created with Sketch.</desc>
    <defs></defs>
    <g id="HeadStat/Icon/Exclaimation/Red-Copy-3" stroke="none" stroke-width="1" fill="none" fill-rule="evenodd">
        <g id="icon__H1-Financials" fill="#E2E2E2">
            <path d="M50,100 C77.6209677,100 100,77.6209677 100,50 C100,22.3790323 77.6209677,0 50,0 C22.3790323,0 0,22.3790323 0,50 C0,77.6209677 22.3790323,100 50,100 Z M4,50 C4,24.7212963 24.4657407,4 50,4 C75.2787037,4 96,24.4657407 96,50 C96,75.2787037 75.5342593,96 50,96 C24.7212963,96 4,75.5342593 4,50 Z" id="Shape" fill-rule="nonzero" transform="translate(50.000000, 50.000000) rotate(-180.000000) translate(-50.000000, -50.000000) "></path>
            <path d="M24.7346609,37.10415 L76.1280522,37.10415 L76.1280522,32.1729682 L50.4313565,24.0177409 L24.7346609,32.1729682 L24.7346609,37.10415 Z M49.5638435,60.6524455 L48.9675652,60.6524455 C46.562,60.6524455 44.6056522,58.6802182 44.6056522,56.2551273 C44.6056522,55.7715818 44.994,55.3800818 45.4736522,55.3800818 C45.9508696,55.3800818 46.3404348,55.7715818 46.3404348,56.2551273 C46.3404348,57.7143545 47.5176522,58.9023545 48.9675652,58.9023545 L51.8953913,58.9023545 C53.344087,58.9023545 54.5225217,57.7143545 54.5225217,56.2551273 C54.5225217,54.7959 53.344087,53.6066727 51.8953913,53.6066727 L48.9675652,53.6066727 C46.562,53.6066727 44.6056522,51.6344455 44.6056522,49.2105818 C44.6056522,46.7854909 46.562,44.8132636 48.9675652,44.8132636 L49.5638435,44.8132636 L49.5638435,42.43125 C49.5638435,41.9477045 49.9521913,41.5562045 50.4318435,41.5562045 C50.9102783,41.5562045 51.2986261,41.9477045 51.2986261,42.43125 L51.2986261,44.8132636 L51.8953913,44.8132636 C54.3009565,44.8132636 56.2573043,46.7854909 56.2573043,49.2105818 C56.2573043,49.6929 55.8689565,50.0844 55.3893043,50.0844 C54.912087,50.0844 54.5225217,49.6929 54.5225217,49.2105818 C54.5225217,47.7501273 53.344087,46.5621273 51.8953913,46.5621273 L50.446506,46.5621273 C50.4416281,46.562209 50.4367405,46.56225 50.4318435,46.56225 C50.426934,46.56225 50.422034,46.562209 50.417144,46.5621273 L48.9675652,46.5621273 C47.5176522,46.5621273 46.3404348,47.7501273 46.3404348,49.2105818 C46.3404348,50.6698091 47.5176522,51.8578091 48.9675652,51.8578091 L51.8953913,51.8578091 C54.3009565,51.8578091 56.2573043,53.8300364 56.2573043,56.2551273 C56.2573043,58.6802182 54.3009565,60.6524455 51.8953913,60.6524455 L51.2986261,60.6524455 L51.2986261,63.0338455 C51.2986261,63.5173909 50.9102783,63.9076636 50.4318435,63.9076636 C49.9521913,63.9076636 49.5638435,63.5173909 49.5638435,63.0338455 L49.5638435,60.6524455 Z M34.8198957,66.6119591 L66.043913,66.6119591 L66.043913,38.8530136 L34.8198957,38.8530136 L34.8198957,66.6119591 Z M33.085113,66.6119591 L33.085113,38.8530136 L30.1464522,38.8530136 L30.1464522,66.6119591 L33.085113,66.6119591 Z M28.4116696,66.6119591 L28.4116696,38.8530136 L23.8678783,38.8530136 C23.3882261,38.8530136 22.9998783,38.4615136 22.9998783,37.9779682 L22.9998783,31.5311045 C22.9998783,31.1494227 23.2445739,30.81315 23.6073565,30.6977864 L50.1720522,22.26765 C50.3400522,22.21365 50.5226609,22.21365 50.6906609,22.26765 L77.2553565,30.6977864 C77.6157043,30.81315 77.8628348,31.1494227 77.8628348,31.5311045 L77.8628348,37.9779682 C77.8628348,38.4615136 77.474487,38.8530136 76.9948348,38.8530136 L72.4520174,38.8530136 L72.4520174,66.6119591 L74.0430261,66.6119591 C74.3607652,66.6119591 74.6529391,66.7862318 74.805113,67.0672773 L77.7560696,72.5225045 C77.9033739,72.7937318 77.897287,73.1214136 77.7414609,73.3865045 C77.5844174,73.6515955 77.3007652,73.8148227 76.9939826,73.8148227 L23.8682435,73.8148227 C23.5614609,73.8148227 23.2778087,73.6515955 23.1219826,73.3865045 C22.9661565,73.1214136 22.9600696,72.7937318 23.1061565,72.5225045 L26.0583304,67.0672773 C26.2105043,66.7862318 26.5014609,66.6119591 26.8204174,66.6119591 L28.4116696,66.6119591 Z M70.7160174,66.6119591 L70.7160174,38.8530136 L67.7786957,38.8530136 L67.7786957,66.6119591 L70.7160174,66.6119591 Z M25.329113,72.0659591 L75.533113,72.0659591 L73.5280696,68.3595955 L27.3341565,68.3595955 L25.329113,72.0659591 Z" id="Combined-Shape" stroke="#E2E2E2"></path>
        </g>
    </g>
</svg>