<?xml version="1.0" encoding="UTF-8"?>
<svg width="38px" height="38px" viewBox="0 0 38 38" version="1.1" xmlns="http://www.w3.org/2000/svg" xmlns:xlink="http://www.w3.org/1999/xlink">
    <!-- Generator: Sketch 47.1 (45422) - http://www.bohemiancoding.com/sketch -->
    <title>Shape</title>
    <desc>Created with Sketch.</desc>
    <defs></defs>
    <g id="Symbols" stroke="none" stroke-width="1" fill="none" fill-rule="evenodd">
        <g id="HeadStat/Icon/Arrow/Red" fill-rule="nonzero" fill="#FD001F">
            <path d="M19,38 C29.4959677,38 38,29.4959677 38,19 C38,8.50403226 29.4959677,0 19,0 C8.50403226,0 0,8.50403226 0,19 C0,29.4959677 8.50403226,38 19,38 Z M2.4516129,19 C2.4516129,9.90604839 9.8141129,2.4516129 19,2.4516129 C28.0939516,2.4516129 35.5483871,9.8141129 35.5483871,19 C35.5483871,28.0939516 28.1858871,35.5483871 19,35.5483871 C9.90604839,35.5483871 2.4516129,28.1858871 2.4516129,19 Z M9.53830645,18.0423387 L18.3487903,9.22419355 C18.708871,8.8641129 19.291129,8.8641129 19.6512097,9.22419355 L28.4616935,18.0423387 C28.8217742,18.4024194 28.8217742,18.9846774 28.4616935,19.3447581 L27.9330645,19.8733871 C27.5729839,20.2334677 26.9754032,20.2334677 26.6229839,19.8580645 L20.3024194,13.3076613 L20.3024194,27.8870968 C20.3024194,28.3927419 19.8887097,28.8064516 19.3830645,28.8064516 L18.6169355,28.8064516 C18.1112903,28.8064516 17.6975806,28.3927419 17.6975806,27.8870968 L17.6975806,13.3076613 L11.3770161,19.8657258 C11.0169355,20.2334677 10.4270161,20.241129 10.0669355,19.8810484 L9.53830645,19.3524194 C9.17822581,18.9846774 9.17822581,18.4024194 9.53830645,18.0423387 Z" id="Shape" transform="translate(19.000000, 19.000000) rotate(-180.000000) translate(-19.000000, -19.000000) "></path>
        </g>
    </g>
</svg>