<?xml version="1.0" encoding="UTF-8"?>
<svg width="38px" height="38px" viewBox="0 0 38 38" version="1.1" xmlns="http://www.w3.org/2000/svg" xmlns:xlink="http://www.w3.org/1999/xlink">
    <!-- Generator: Sketch 48.1 (47250) - http://www.bohemiancoding.com/sketch -->
    <title>icon-0 copy</title>
    <desc>Created with Sketch.</desc>
    <defs></defs>
    <g id="Symbols" stroke="none" stroke-width="1" fill="none" fill-rule="evenodd">
        <g id="icon-0-copy" fill="#FD001F" fill-rule="nonzero">
            <path d="M19,0 C8.50403226,0 0,8.50403226 0,19 C0,29.4959677 8.50403226,38 19,38 C29.4959677,38 38,29.4959677 38,19 C38,8.50403226 29.4959677,0 19,0 Z M35.5483871,19 C35.5483871,28.0939516 28.1858871,35.5483871 19,35.5483871 C9.90604839,35.5483871 2.4516129,28.1858871 2.4516129,19 C2.4516129,9.90604839 9.8141129,2.4516129 19,2.4516129 C28.0939516,2.4516129 35.5483871,9.8141129 35.5483871,19 Z" id="Shape"></path>
            <g id="Page-1" transform="translate(17.500000, 19.000000) scale(-1, 1) translate(-17.500000, -19.000000) translate(6.000000, 7.000000)">
                <path d="M0.821216881,2.6650845 C1.89849921,0.502748742 4.74596274,-1.20383426 6.13341112,-0.825598777 C7.28163986,-0.51281394 7.79124811,1.87795027 7.76217933,3.47525413 C7.75401937,3.92324848 7.60052184,4.32175143 7.35844823,4.66764295 C7.2150364,4.87255969 7.06871394,5.02210297 6.94988139,5.1193773 C6.57594074,5.42547883 6.02465765,5.37048435 5.71855612,4.99654371 C5.4124546,4.62260306 5.46744908,4.07131996 5.84138972,3.76521844 C5.84552498,3.76183339 5.88365424,3.72286483 5.92469413,3.6642242 C5.98183797,3.58257313 6.01132886,3.5060103 6.0124693,3.44339796 C6.01768964,3.15654494 5.92810074,2.38253025 5.79739716,1.76935054 C5.72020511,1.40721354 5.63189095,1.10595952 5.54258482,0.901922157 C5.53545709,0.885637456 5.52851049,0.870412036 5.52181623,0.856293502 C4.80896884,0.9346188 2.85974304,2.22969599 2.28929344,3.66461022 L2.15243711,4.0088599 L0.333909515,4.75937807 C-0.112792134,4.94373475 -0.624365984,4.73106213 -0.808722661,4.28436048 C-0.993079338,3.83765884 -0.780406718,3.32608499 -0.33370507,3.14172831 L0.821216881,2.6650845 Z M5.46950316,0.759159643 C5.46497649,0.752193009 5.46092905,0.746502927 5.45743411,0.742138376 C5.45869574,0.743713928 5.46001779,0.745309388 5.46140143,0.746922707 L5.46950316,0.759159643 Z" id="Stroke-1"></path>
                <path d="M13.9188291,9.72948459 C14.1951856,10.1259147 14.0978467,10.671316 13.7014166,10.9476725 C13.3049865,11.224029 12.7595852,11.1266902 12.4832287,10.7302601 C12.4412816,10.6700874 12.2730879,10.5130309 11.9425643,10.3312757 C11.5603858,10.1211155 11.0760581,9.95652894 10.4746168,9.8614612 C9.9972938,9.78601242 9.6715104,9.33790236 9.74695918,8.86057938 C9.82240796,8.3832564 10.270518,8.057473 10.747841,8.13292178 C11.5478751,8.25938038 12.2251801,8.48954534 12.7858054,8.79783368 C13.3626967,9.11506671 13.7288755,9.45699845 13.9188291,9.72948459 Z" id="Stroke-3"></path>
                <path d="M22.8620271,14.8362691 C23.3368151,14.9263028 23.6487201,15.3841813 23.5586865,15.8589693 C23.4686528,16.3337574 23.0107743,16.6456624 22.5359863,16.5556287 L20.15724,16.104549 L19.9893175,15.6308651 C19.970496,15.5777726 19.9393948,15.4866319 19.9000537,15.365595 C19.8350675,15.1656581 19.7701486,14.9526456 19.7092995,14.7343122 C19.6518657,14.5282331 19.6008936,14.3273705 19.5580607,14.1344753 C19.4971759,13.8602844 19.4540157,13.608363 19.431969,13.3800515 C19.3855205,12.8990398 19.7378035,12.4714487 20.2188152,12.4250002 C20.699827,12.3785516 21.127418,12.7308347 21.1738665,13.2118464 C21.1882514,13.360813 21.2198612,13.5453159 21.2664494,13.7551232 C21.3020694,13.9155354 21.3455169,14.0867464 21.3950552,14.2644955 C21.4255783,14.3740159 21.4561327,14.4784555 21.4855033,14.5752401 L22.8620271,14.8362691 Z" id="Stroke-5"></path>
                <path d="M14.3682949,7.60145151 C14.3507244,7.59025345 14.3323926,7.57858118 14.3133134,7.56644495 C14.071362,7.41254049 13.7983496,7.24088467 13.5002445,7.05594464 C12.6486688,6.52763956 11.7677786,5.99941376 10.9058588,5.50723861 C10.5856482,5.32439135 10.2734497,5.14966667 9.9707963,4.98418913 C8.50411251,4.18227108 7.32490769,3.63249884 6.5851752,3.4253414 C6.11982894,3.29502409 5.8482343,2.81214336 5.97855161,2.34679709 C6.10886891,1.88145083 6.59174964,1.60985619 7.05709591,1.7401735 C7.96117496,1.99335517 9.23311621,2.58636325 10.8103271,3.44871267 C11.12279,3.61955358 11.4443565,3.79952115 11.773636,3.98754699 C12.6558153,4.49129068 13.5543895,5.03012078 14.4228028,5.5688716 C14.7266938,5.75740114 15.0052434,5.93253849 15.2525647,6.08985867 C15.4015602,6.18463416 15.507474,6.25269502 15.5644028,6.28960832 C15.7233329,6.39266055 15.8445312,6.54450292 15.9097891,6.72232293 L16.8455697,9.27221415 C17.0715032,9.38192628 17.3218522,9.5037028 17.590691,9.63473317 C18.3880837,10.0233775 19.1855216,10.4141307 19.9300996,10.7819047 C19.9829379,10.8080071 19.9829379,10.8080071 20.0357648,10.8341184 C21.966649,11.7886527 23.1112944,12.373581 23.3970418,12.5713035 C23.5435031,12.6726472 23.6555504,12.8162725 23.7182133,12.9829903 C23.9960779,13.7222621 23.8571619,14.7539154 23.4460953,16.1265272 C23.3317857,16.5082239 23.1976341,16.9070062 23.0476268,17.3171638 C22.8760902,17.7861881 22.6927912,18.2461249 22.5094255,18.6787199 C22.398949,18.9393551 22.3123145,19.1344589 22.2612986,19.2452482 C22.1714309,19.4404103 22.0128981,19.595685 21.815912,19.681481 C21.759298,19.7061386 21.759298,19.7061386 21.5060716,19.8158993 C21.25973,19.9225293 20.9842604,20.0413162 20.6863193,20.1692283 C19.8349161,20.5347528 18.973708,20.9003079 18.1557497,21.2417169 C18.0280817,21.2949708 18.0280817,21.2949708 17.9002204,21.3481647 C15.8224259,22.2119893 14.4818636,22.7306785 13.9744425,22.8342038 C12.187433,23.1980981 10.5833383,23.2330232 9.20544539,22.6456645 L7.64339121,24.2558483 C7.30690563,24.6027016 6.75295003,24.6111062 6.40609674,24.2746207 C6.05924346,23.9381351 6.05083877,23.3841795 6.38732435,23.0373262 L8.39854657,20.9641347 C8.68238064,20.6715552 9.13064881,20.6137295 9.47944,20.8247017 C10.501964,21.4431922 11.9593252,21.4586338 13.6249302,21.1194615 C13.9631512,21.0504568 15.3266409,20.5228965 17.2284181,19.7322496 C17.3551104,19.679542 17.3551104,19.679542 17.4816752,19.6267483 C18.2935935,19.2878603 19.1495701,18.9245258 19.9959436,18.5611607 C20.2900037,18.4349148 20.5619993,18.3176301 20.8053968,18.2122811 C20.8335488,18.1473679 20.8646188,18.0749711 20.898194,17.9957609 C21.0707728,17.5886142 21.2434184,17.1554092 21.4040967,16.7160742 C21.5427914,16.3368482 21.6660211,15.9705323 21.7696585,15.6244718 C22.0024484,14.847152 22.1171845,14.2111315 22.1137416,13.8465002 C21.6268661,13.5847825 20.5971677,13.0638067 19.2602388,12.4028948 C19.207677,12.3769145 19.207677,12.3769145 19.1550964,12.3509395 C18.4135957,11.9846854 17.6188064,11.5952301 16.8239719,11.2078326 C16.5457447,11.0722264 16.2874019,10.9465717 16.0555848,10.8340188 C15.8172371,10.7183694 15.8172371,10.7183694 15.7645702,10.6928722 C15.5603847,10.5940214 15.4025717,10.4197331 15.3244154,10.2067664 L14.3682949,7.60145151 Z" id="Stroke-7"></path>
            </g>
        </g>
    </g>
</svg>