<?xml version="1.0" encoding="UTF-8"?>
<svg width="16px" height="16px" viewBox="0 0 16 16" version="1.1" xmlns="http://www.w3.org/2000/svg" xmlns:xlink="http://www.w3.org/1999/xlink">
    <!-- Generator: Sketch 44.1 (41455) - http://www.bohemiancoding.com/sketch -->
    <title></title>
    <desc>Created with Sketch.</desc>
    <defs></defs>
    <g id="Comps" stroke="none" stroke-width="1" fill="none" fill-rule="evenodd">
        <g id="Home-v4" transform="translate(-119.000000, -388.000000)" fill="#009900">
            <g id="LEFT-SIDEBAR" transform="translate(-31.000000, -4.000000)">
                <g id="Group-19" transform="translate(24.000000, 381.000000)">
                    <g id="Group-2" transform="translate(126.000000, 8.000000)">
                        <path d="M15.9431685,10.9444444 C16.0474096,10.7222222 16.0057132,10.4814815 15.8389275,10.2962963 L8.43781244,3.18518519 C8.31272317,3.07407407 8.12508927,3 7.93745537,3 C7.74982146,3 7.58303577,3.07407407 7.4579465,3.18518519 L0.161072512,10.2962963 C-0.00571317917,10.4814815 -0.047409602,10.7222222 0.056831455,10.9444444 C0.161072512,11.1666667 0.390402838,11.2962963 0.661429586,11.2962963 L4.20562552,11.2962963 L4.20562552,18.4074074 C4.20562552,18.7407407 4.49750048,19 4.87276829,19 L11.1272317,19 C11.5024995,19 11.7943745,18.7407407 11.7943745,18.4074074 L11.7943745,11.2962963 L15.3385704,11.2962963 C15.6095972,11.2962963 15.8389275,11.1481481 15.9431685,10.9444444 Z" id=""></path>
                    </g>
                </g>
            </g>
        </g>
    </g>
</svg>