<?xml version="1.0" encoding="UTF-8"?>
<svg width="100px" height="100px" viewBox="0 0 100 100" version="1.1" xmlns="http://www.w3.org/2000/svg" xmlns:xlink="http://www.w3.org/1999/xlink">
    <!-- Generator: Sketch 48.2 (47327) - http://www.bohemiancoding.com/sketch -->
    <title>icon__H1-Earnings</title>
    <desc>Created with Sketch.</desc>
    <defs></defs>
    <g id="HeadStat/Icon/Exclaimation/Red-Copy" stroke="none" stroke-width="1" fill="none" fill-rule="evenodd">
        <g id="icon__H1-Earnings" fill="#E2E2E2">
            <path d="M50,100 C77.6209677,100 100,77.6209677 100,50 C100,22.3790323 77.6209677,0 50,0 C22.3790323,0 0,22.3790323 0,50 C0,77.6209677 22.3790323,100 50,100 Z M4,50 C4,24.7212963 24.4657407,4 50,4 C75.2787037,4 96,24.4657407 96,50 C96,75.2787037 75.5342593,96 50,96 C24.7212963,96 4,75.5342593 4,50 Z" id="Shape" fill-rule="nonzero" transform="translate(50.000000, 50.000000) rotate(-180.000000) translate(-50.000000, -50.000000) "></path>
            <path d="M40.0336011,50.0531382 C40.8108523,50.4873987 41.9256572,51.1438616 43.2128896,51.9022137 C47.0136692,54.1416911 52.3924775,57.3104053 54.0185911,57.8109013 C57.454382,58.8676864 59.6041943,59.9222338 60.7940029,60.9056227 C62.7759603,59.7016724 67.3694786,57.2564024 70.775032,56.215132 C71.2583895,56.0670717 71.7253007,55.9456399 72.1672844,55.8561324 C73.580998,54.1757039 74.6882067,52.2685977 75.4501178,50.229095 C76.2495678,48.0914325 76.668984,45.8013088 76.668984,43.4676995 C76.668984,38.1905618 74.5538342,33.4116079 71.1356695,29.9544558 C67.7175048,26.4971545 62.992269,24.3575526 57.7743095,24.3575526 C52.55635,24.3575526 47.8317042,26.4966324 44.4129495,29.9544558 C40.9947848,33.4116079 38.8789712,38.1900397 38.8789712,43.4676995 C38.8789712,44.6716498 38.9885637,45.8597871 39.2039137,47.0151795 C39.3959587,48.0440681 39.6729637,49.060351 40.0336011,50.0531382 Z M39.8937711,63.9751328 C43.5981595,65.1611816 46.7796605,65.7759488 50.3690727,66.469781 L51.2968476,66.6488706 C54.2751673,67.2269398 57.956472,66.8704762 60.0215455,65.9049888 C60.8887717,65.4992215 61.5447779,64.9568807 61.8774641,64.2870664 C62.1085966,63.8221496 62.1895741,63.3371682 62.0938466,62.8398049 C63.8675339,61.7608667 68.1964373,59.4657456 71.4489595,58.4712428 C72.4239344,58.1733321 73.2611443,58.0030441 73.826143,58.0425019 C73.9422992,58.0504084 73.9956205,57.9083899 74.002848,57.9690312 C74.038543,58.2713427 73.8442117,58.8303916 73.353258,59.711742 L73.357093,59.7140543 C71.8519294,62.4121829 67.1525061,66.2642868 62.1037291,69.4045078 C57.2540033,72.4206117 52.1715962,74.7281147 49.4166653,74.650094 C47.9786879,74.6100394 40.2811799,71.7435622 34.6031679,69.6287986 C31.3807357,68.4294729 28.7878334,67.4634633 28.151961,67.335393 C25.5475537,66.810357 24.1666589,67.272514 22.193699,67.9329301 C21.7663916,68.0755453 21.3057491,68.2296474 20.8316104,68.3733069 C20.2161667,68.5587366 19.8654118,69.2151248 20.0487542,69.8376494 C20.2320967,70.4600994 20.8811704,70.814922 21.4966141,70.6294177 C22.0388241,70.4652461 22.4958528,70.3119645 22.9213902,70.1701697 C24.5520026,69.624547 25.6939475,69.2424992 27.6972923,69.646178 C28.169661,69.7413543 30.680627,70.6767821 33.8015055,71.8382163 C39.6243624,74.0069827 47.5180454,76.9456627 49.3527978,76.9975025 C52.5839325,77.0894714 58.1470419,74.6306262 63.323554,71.411191 C68.6522122,68.0971017 73.6740705,63.9201603 75.3784328,60.8622116 L75.3796128,60.8598247 L75.3835216,60.8622116 C76.1334115,59.5162427 76.4074665,58.4773591 76.314984,57.6929006 C76.2081203,56.7858168 75.7606791,56.219682 75.0537116,55.9272163 C76.1202103,54.4149873 76.9828639,52.7769257 77.6257426,51.057636 C78.527115,48.6470502 79,46.0770665 79,43.4676995 C79,37.5414087 76.6237752,32.1732718 72.7828018,28.2884231 C68.9418284,24.403649 63.6341152,22 57.7743095,22 C51.91443,22 46.6067905,24.4031268 42.7658171,28.2884231 C38.9248437,32.1732718 36.548029,37.5402153 36.548029,43.4676995 C36.548029,44.7945734 36.6736989,46.1280857 36.9192127,47.4483212 C37.0188489,47.9823825 37.1382501,48.5123414 37.2769001,49.0364078 C31.8632081,47.732955 29.1004596,49.3693756 26.1336449,51.1287199 C24.9897825,51.8070374 23.8099301,52.5068368 22.4088278,53.0135984 L22.3284403,53.0458211 C22.2024015,53.0877404 22.0229678,53.1393564 21.8038566,53.1994756 C21.5455841,53.269739 21.2390791,53.3465662 20.8998292,53.42675 C20.2738392,53.5742136 19.8846605,54.2072553 20.0306855,54.8403716 C20.176563,55.4734879 20.8024792,55.8670971 21.4284691,55.7195589 C21.7829116,55.6354964 22.1121315,55.5530004 22.4049928,55.4734879 C22.648294,55.4066556 22.8784677,55.3371381 23.0932277,55.2625486 C23.1262677,55.2541199 23.1593077,55.2434536 23.1917577,55.2318923 C24.7650663,54.6628484 26.0562074,53.8965151 27.3087036,53.1544235 C30.1020583,51.4980128 32.6839718,49.9678078 38.2674363,51.7590763 C38.2983375,51.7690714 38.3697275,51.8036809 38.4760013,51.8609657 L38.47932,51.8632034 L38.47991,51.8632034 C38.5222425,51.8892352 38.565755,51.9138497 38.6109638,51.934511 C39.2087812,52.2646445 40.4948336,53.0224745 42.0480084,53.9365697 C45.9379518,56.2284835 51.4427251,59.4713398 53.3446636,60.0570171 C57.1471395,61.2263578 59.0526181,62.2506964 59.6879005,63.0849808 L59.730823,63.1422656 L59.731413,63.1428623 L59.8018443,63.2369944 C59.7226368,63.3966906 59.4511631,63.5799572 59.0471606,63.7691164 C57.3625633,64.5571552 54.2784861,64.832167 51.73389,64.3381602 L50.8062626,64.1589961 C47.299893,63.4812752 44.1932482,62.8809783 40.5950598,61.729017 C39.9823449,61.5335923 39.3272237,61.877674 39.1339987,62.4974387 C38.9407737,63.1172035 39.2809824,63.7797081 39.8937711,63.9751328 Z M57.7434082,50.1260122 L57.7737195,50.1254155 L57.8040307,50.1260122 L59.7109843,50.1260122 C60.4614642,50.1260122 61.1402592,49.8203442 61.6296641,49.3264866 C62.1179628,48.8315102 62.420264,48.1448386 62.420264,47.3860389 C62.420264,46.6276121 62.1179628,45.9411643 61.6296641,45.4461133 C61.1402592,44.9523303 60.4608742,44.6465131 59.7109843,44.6465131 L55.8370447,44.6465131 C54.4497335,44.6465131 53.1900837,44.0753061 52.27787,43.1533044 L52.2733712,43.1487545 C51.3617476,42.226156 50.7969701,40.9523153 50.7969701,39.5490617 C50.7969701,38.1460318 51.3617476,36.872564 52.2733712,35.9499656 L52.27787,35.9454157 C53.1900837,35.023414 54.4497335,34.452207 55.8370447,34.452207 L56.6082483,34.452207 L56.6082483,32.4076322 C56.6082483,31.756689 57.1301033,31.2288932 57.7737195,31.2288932 C58.4173357,31.2288932 58.9391906,31.756689 58.9391906,32.4076322 L58.9391906,34.452207 L63.5858089,34.452207 C64.2292039,34.452207 64.7510588,34.9800028 64.7510588,35.630946 C64.7510588,36.2819638 64.2292039,36.809685 63.5858089,36.809685 L57.7737195,36.809685 L55.8370447,36.809685 C55.0865647,36.809685 54.4077698,37.1153531 53.9183648,37.6091361 C53.4301399,38.1041871 53.1279124,38.7906349 53.1279124,39.5490617 C53.1279124,40.3080852 53.4301399,40.994533 53.9183648,41.4895094 C54.4077698,41.983367 55.0865647,42.2891842 55.8370447,42.2891842 L59.7109843,42.2891842 C61.0984429,42.2891842 62.358019,42.8603912 63.2702327,43.7823929 L63.2746577,43.7869428 C64.1863551,44.7095413 64.7510588,45.983009 64.7510588,47.3860389 C64.7510588,48.7890687 64.1863551,50.0631332 63.2746577,50.9857317 L63.2702327,50.990207 C62.358019,51.9122833 61.0988117,52.4834903 59.7109843,52.4834903 L58.9391906,52.4834903 L58.9391906,54.5280651 C58.9391906,55.1790082 58.4173357,55.7068041 57.7737195,55.7068041 C57.1301033,55.7068041 56.6082483,55.1790082 56.6082483,54.5280651 L56.6082483,52.4834903 L51.9624413,52.4834903 C51.3188251,52.4834903 50.7969701,51.9556945 50.7969701,51.3046767 C50.7969701,50.6538081 51.3188251,50.1260122 51.9624413,50.1260122 L57.7434082,50.1260122 Z" id="Fill-1" stroke="#E2E2E2"></path>
        </g>
    </g>
</svg>