<?xml version="1.0" encoding="UTF-8"?>
<svg width="36px" height="23px" viewBox="0 0 36 23" version="1.1" xmlns="http://www.w3.org/2000/svg" xmlns:xlink="http://www.w3.org/1999/xlink">
    <!-- Generator: Sketch 47.1 (45422) - http://www.bohemiancoding.com/sketch -->
    <title>Path 2</title>
    <desc>Created with Sketch.</desc>
    <defs></defs>
    <g id="Symbols" stroke="none" stroke-width="1" fill="none" fill-rule="evenodd">
        <path d="M9.71956895,21.4735512 C10.1956604,22.9044742 12.2484677,22.8170936 12.6012388,21.3508888 L15.7142857,8.41228755 L18.8273326,21.3508888 C19.1801037,22.8170936 21.2329111,22.9044742 21.7090025,21.4735512 L25.1190654,11.22439 L28.0799629,17.3049309 C28.6744856,18.5258511 30.4559068,18.3914134 30.8604623,17.0950961 L35.4318908,2.44686534 C35.6786877,1.65605387 35.2376768,0.814906078 34.4468653,0.568109164 C33.6560539,0.32131225 32.8149061,0.762323185 32.5681092,1.55313466 L29.1225847,12.5936304 L26.2057514,6.60358045 C25.617188,5.39489833 23.858272,5.51111606 23.4338547,6.78672935 L20.5176322,15.5516214 L17.1726674,1.64911118 C16.8040302,0.116962939 14.6245412,0.116962939 14.2559041,1.64911118 L10.9109392,15.5516214 L7.99471677,6.78672935 C7.5553526,5.4661924 5.71065545,5.40395934 5.18329177,6.69188257 C3.10166244,11.7756206 1.60615543,14.8468149 0.887092187,15.6425289 C0.331658395,16.257171 0.379656143,17.2057048 0.994298156,17.7611386 C1.60894017,18.3165724 2.55747402,18.2685747 3.11290781,17.6539326 C3.90345709,16.7791123 4.97391705,14.7680833 6.40452937,11.5099888 L9.71956895,21.4735512 Z" id="Path-2" fill="#5D5D5C" fill-rule="nonzero"></path>
    </g>
</svg>