<?xml version="1.0" encoding="UTF-8"?>
<svg width="100px" height="100px" viewBox="0 0 100 100" version="1.1" xmlns="http://www.w3.org/2000/svg" xmlns:xlink="http://www.w3.org/1999/xlink">
    <!-- Generator: Sketch 48.2 (47327) - http://www.bohemiancoding.com/sketch -->
    <title>icon_circle-check</title>
    <desc>Created with Sketch.</desc>
    <defs></defs>
    <g id="Search/Icons/Check/Bull" stroke="none" stroke-width="1" fill="none" fill-rule="evenodd">
        <path d="M50,0 C77.6209677,0 100,22.3790323 100,50 C100,77.6209677 77.6209677,100 50,100 C22.3790323,100 -3.55271368e-15,77.6209677 -3.55271368e-15,50 C-3.55271368e-15,22.3790323 22.3790323,0 50,0 Z M93.5483871,50 C93.5483871,25.8266129 73.9314516,6.4516129 50,6.4516129 C25.8266129,6.4516129 6.4516129,26.0685484 6.4516129,50 C6.4516129,74.1733871 26.0685484,93.5483871 50,93.5483871 C74.1733871,93.5483871 93.5483871,73.9314516 93.5483871,50 Z M44.4998096,78.4926482 L22.2371342,63.3152269 C21.0366958,62.497282 20.6874774,60.7932302 21.4732189,59.5435922 L22.9137449,57.2715231 C23.6994864,56.0218852 25.3364478,55.6583541 26.5368862,56.476299 L44.412505,68.6773098 L71.9571093,24.9172596 C72.7428508,23.6676217 74.3798122,23.3040906 75.5802506,24.1220355 L77.7628658,25.621601 C78.9633042,26.4395459 79.3125226,28.1435977 78.5267811,29.3932357 L48.1229509,77.7201447 C47.3153833,78.9697827 45.700248,79.3333138 44.4998096,78.4926482 Z" id="icon_circle-check" fill="#FFFFFF" fill-rule="nonzero"></path>
    </g>
</svg>