<?xml version="1.0" encoding="UTF-8"?>
<svg width="300px" height="300px" viewBox="0 0 300 300" version="1.1" xmlns="http://www.w3.org/2000/svg" xmlns:xlink="http://www.w3.org/1999/xlink">
    <defs></defs>
    <g id="icon_favorite" fill="#000000" stroke="none" stroke-width="1" fill-rule="evenodd">
        <path d="M300,118.506616 C300,113.213611 294.230769,111.096408 289.903846,110.390674 L199.399038,97.5110271 L158.834135,17.2337744 C157.211538,13.8815375 154.146635,10 150,10 C145.853365,10 142.788462,13.8815375 141.165865,17.2337744 L100.600962,97.5110271 L10.0961538,110.390674 C5.58894231,111.096408 0,113.213611 0,118.506616 C0,121.68242 2.34375,124.68179 4.50721154,126.975425 L70.1322115,189.432892 L54.6274038,277.649653 C54.4471154,278.884688 54.2668269,279.943289 54.2668269,281.178324 C54.2668269,285.765595 56.6105769,290 61.8389423,290 C64.3629808,290 66.7067308,289.117832 69.0504808,287.882798 L150,246.244486 L230.949519,287.882798 C233.112981,289.117832 235.637019,290 238.161058,290 C243.389423,290 245.552885,285.765595 245.552885,281.178324 C245.552885,279.943289 245.552885,278.884688 245.372596,277.649653 L229.867788,189.432892 L295.3125,126.975425 C297.65625,124.68179 300,121.68242 300,118.506616 Z"></path>
    </g>
</svg>