<?xml version="1.0" encoding="UTF-8"?>
<svg width="300px" height="300px" viewBox="0 0 300 300" version="1.1" xmlns="http://www.w3.org/2000/svg" xmlns:xlink="http://www.w3.org/1999/xlink">
    <defs></defs>
     <g id="icon_gauge" fill="#000000" stroke="none" stroke-width="1" fill-rule="evenodd">
        <path d="M64,183 C64,170.574219 54.4257812,161 43,161 C30.5742187,161 21,170.574219 21,183 C21,194.425781 30.5742187,204 43,204 C54.4257812,204 64,194.425781 64,183 Z M97,108 C97,95.5742188 87.4257813,86 76,86 C63.5742188,86 54,95.5742188 54,108 C54,119.425781 63.5742188,129 76,129 C87.4257813,129 97,119.425781 97,108 Z M168,187 L185,123 C186.037627,117.705498 182.713253,111.853608 177,110 C171.410382,108.844064 165.592728,112.355198 164,118 L147,182 C134.177396,182.912278 122.708306,192.108106 119,206 C114.563591,222.87233 124.869149,240.428001 142,245 C158.943981,249.456632 176.396943,239.090426 181,222 C184.37544,208.493399 178.724005,194.783256 168,187 Z M279,183 C279,170.574219 269.425781,161 258,161 C245.574219,161 236,170.574219 236,183 C236,194.425781 245.574219,204 258,204 C269.425781,204 279,194.425781 279,183 Z M172,75 C172,62.5742187 162.425781,53 151,53 C138.574219,53 129,62.5742187 129,75 C129,86.4257812 138.574219,96 151,96 C162.425781,96 172,86.4257812 172,75 Z M247,108 C247,95.5742188 237.425781,86 226,86 C213.574219,86 204,95.5742188 204,108 C204,119.425781 213.574219,129 226,129 C237.425781,129 247,119.425781 247,108 Z M300,182 C300,211.011364 291.796875,238.835227 276,263 C274.386161,266.15625 271.037946,268 267,268 L33,268 C28.9620536,268 25.6138393,266.15625 24,263 C8.203125,239.002841 0,211.011364 0,182 C0,99.3806818 67.2991071,32 150,32 C232.700893,32 300,99.3806818 300,182 Z" id="icon"></path>
    </g>
</svg>