<?xml version="1.0" encoding="UTF-8"?>
<svg width="24px" height="24px" viewBox="0 0 24 24" version="1.1" xmlns="http://www.w3.org/2000/svg" xmlns:xlink="http://www.w3.org/1999/xlink">
    <!-- Generator: Sketch 47.1 (45422) - http://www.bohemiancoding.com/sketch -->
    <title>Shape</title>
    <desc>Created with Sketch.</desc>
    <defs></defs>
    <g id="Phone" stroke="none" stroke-width="1" fill="none" fill-rule="evenodd">
        <g id="PSP--StockView__AMZN" transform="translate(-344.000000, -54.000000)" fill-rule="nonzero" fill="#FFFFFF">
            <path d="M365.428571,55.7142857 C365.9,55.7142857 366.285714,56.1 366.285714,56.5714286 L366.285714,75.4285714 C366.285714,75.9 365.9,76.2857143 365.428571,76.2857143 L346.571429,76.2857143 C346.1,76.2857143 345.714286,75.9 345.714286,75.4285714 L345.714286,56.5714286 C345.714286,56.1 346.1,55.7142857 346.571429,55.7142857 L365.428571,55.7142857 L365.428571,55.7142857 Z M365.428571,54 L346.571429,54 C345.151786,54 344,55.1517857 344,56.5714286 L344,75.4285714 C344,76.8482143 345.151786,78 346.571429,78 L365.428571,78 C366.848214,78 368,76.8482143 368,75.4285714 L368,56.5714286 C368,55.1517857 366.848214,54 365.428571,54 Z M362.214286,65.0357143 L356.964286,65.0357143 L356.964286,59.7857143 C356.964286,59.4321429 356.675,59.1428571 356.321429,59.1428571 L355.678571,59.1428571 C355.325,59.1428571 355.035714,59.4321429 355.035714,59.7857143 L355.035714,65.0357143 L349.785714,65.0357143 C349.432143,65.0357143 349.142857,65.325 349.142857,65.6785714 L349.142857,66.3214286 C349.142857,66.675 349.432143,66.9642857 349.785714,66.9642857 L355.035714,66.9642857 L355.035714,72.2142857 C355.035714,72.5678571 355.325,72.8571429 355.678571,72.8571429 L356.321429,72.8571429 C356.675,72.8571429 356.964286,72.5678571 356.964286,72.2142857 L356.964286,66.9642857 L362.214286,66.9642857 C362.567857,66.9642857 362.857143,66.675 362.857143,66.3214286 L362.857143,65.6785714 C362.857143,65.325 362.567857,65.0357143 362.214286,65.0357143 Z" id="Shape"></path>
        </g>
    </g>
</svg>