<?xml version="1.0" encoding="UTF-8"?>
<svg width="100px" height="100px" viewBox="0 0 100 100" version="1.1" xmlns="http://www.w3.org/2000/svg" xmlns:xlink="http://www.w3.org/1999/xlink">
    <!-- Generator: Sketch 48.2 (47327) - http://www.bohemiancoding.com/sketch -->
    <title>Combined Shape</title>
    <desc>Created with Sketch.</desc>
    <defs></defs>
    <g id="HeadStat/Icon/Exclaimation/Red-Copy-2" stroke="none" stroke-width="1" fill="none" fill-rule="evenodd">
        <path d="M24.9257222,64.3609654 L20.4504616,64.3609654 L20.4504616,37.2684607 L24.9257222,37.2684607 L24.9257222,32.7532391 L27.9091646,32.7532391 L27.9091646,37.2684607 L32.3844251,37.2684607 L32.3844251,64.3609654 L27.9091646,64.3609654 L27.9091646,68.8763829 L24.9257222,68.8763829 L24.9257222,64.3609654 Z M55.75495,68.8763829 L51.2796894,68.8763829 L51.2796894,32.7532391 L55.75495,32.7532391 L55.75495,28.2378217 L58.7383923,28.2378217 L58.7383923,32.7532391 L63.2136529,32.7532391 L63.2136529,68.8763829 L58.7383923,68.8763829 L58.7383923,73.3918003 L55.75495,73.3918003 L55.75495,68.8763829 Z M71.1699521,61.3507524 L66.6946915,61.3507524 L66.6946915,40.2788696 L71.1699521,40.2788696 L71.1699521,35.7634522 L74.1533945,35.7634522 L74.1533945,40.2788696 L78.628655,40.2788696 L78.628655,61.3507524 L74.1533945,61.3507524 L74.1533945,65.8661699 L71.1699521,65.8661699 L71.1699521,61.3507524 Z M40.3399478,58.3403435 L35.8646872,58.3403435 L35.8646872,43.2890826 L40.3399478,43.2890826 L40.3399478,38.7736652 L43.3233901,38.7736652 L43.3233901,43.2890826 L47.7986507,43.2890826 L47.7986507,58.3403435 L43.3233901,58.3403435 L43.3233901,62.8559569 L40.3399478,62.8559569 L40.3399478,58.3403435 Z M50,0 C77.6209677,0 100,22.3790323 100,50 C100,77.6209677 77.6209677,100 50,100 C22.3790323,100 0,77.6209677 0,50 C1.42108547e-14,22.3790323 22.3790323,-1.42108547e-14 50,0 Z M96,50 C96,24.4657407 75.2787037,4 50,4 C24.4657407,4 4,24.7212963 4,50 C4,75.5342593 24.7212963,96 50,96 C75.5342593,96 96,75.2787037 96,50 Z M23.433904,61.3507524 L29.4007887,61.3507524 L29.4007887,40.2788696 L23.433904,40.2788696 L23.433904,61.3507524 Z M38.8481296,55.3301305 L44.8150142,55.3301305 L44.8150142,46.2992956 L38.8481296,46.2992956 L38.8481296,55.3301305 Z M54.2631317,65.8661699 L60.2300164,65.8661699 L60.2300164,35.7634522 L54.2631317,35.7634522 L54.2631317,65.8661699 Z M69.678328,58.3403435 L75.6452127,58.3403435 L75.6452127,43.2890826 L69.678328,43.2890826 L69.678328,58.3403435 Z" id="Combined-Shape" fill="#E2E2E2" fill-rule="nonzero"></path>
    </g>
</svg>