<?xml version="1.0" encoding="UTF-8"?>
<svg width="22px" height="19px" viewBox="0 0 22 19" version="1.1" xmlns="http://www.w3.org/2000/svg" xmlns:xlink="http://www.w3.org/1999/xlink">
    <!-- Generator: Sketch 46.1 (44463) - http://www.bohemiancoding.com/sketch -->
    <title></title>
    <desc>Created with Sketch.</desc>
    <defs></defs>
    <g id="Page-1" stroke="none" stroke-width="1" fill="none" fill-rule="evenodd">
        <g id="CMT-Discovery" transform="translate(-796.000000, -144.000000)" fill="#FFFFFF">
            <path d="M803.857152,147.142861 L810.142874,147.142861 L810.142874,145.57143 L803.857152,145.57143 L803.857152,147.142861 Z M818.000026,155.000013 L818.000026,160.892877 C818.000026,161.973236 817.116097,162.857165 816.035738,162.857165 L797.964288,162.857165 C796.88393,162.857165 796,161.973236 796,160.892877 L796,155.000013 L804.25001,155.000013 L804.25001,156.964301 C804.25001,157.393989 804.606037,157.750016 805.035725,157.750016 L808.964301,157.750016 C809.393989,157.750016 809.750016,157.393989 809.750016,156.964301 L809.750016,155.000013 L818.000026,155.000013 Z M808.571444,155.000013 L808.571444,156.571444 L805.428583,156.571444 L805.428583,155.000013 L808.571444,155.000013 Z M818.000026,149.107149 L818.000026,153.82144 L796,153.82144 L796,149.107149 C796,148.026791 796.88393,147.142861 797.964288,147.142861 L802.285722,147.142861 L802.285722,145.178573 C802.285722,144.527902 802.813624,144 803.464295,144 L810.535732,144 C811.186402,144 811.714304,144.527902 811.714304,145.178573 L811.714304,147.142861 L816.035738,147.142861 C817.116097,147.142861 818.000026,148.026791 818.000026,149.107149 Z" id=""></path>
        </g>
    </g>
</svg>