<?xml version="1.0" encoding="UTF-8"?>
<svg width="317px" height="340px" viewBox="0 0 317 340" version="1.1" xmlns="http://www.w3.org/2000/svg" xmlns:xlink="http://www.w3.org/1999/xlink">
    <!-- Generator: Sketch 46 (44423) - http://www.bohemiancoding.com/sketch -->
    <title>Fill 1</title>
    <desc>Created with Sketch.</desc>
    <defs></defs>
    <g id="Iconsv2" stroke="none" stroke-width="1" fill="none" fill-rule="evenodd">
        <g id="Artboard-3" transform="translate(-1108.000000, -535.000000)" fill="#1199FF">
            <path d="M1369,726.144719 C1357.79351,728.797319 1347.37252,735.998386 1341.08007,746.421621 C1334.78762,757.033635 1333.60851,769.162343 1336.7539,780.153531 L1299.00589,801 C1292.9094,794.934839 1284.84829,790.576766 1276,788.869679 L1276,747.559141 C1276.39359,747.368748 1276.78551,747.368748 1277.1791,747.179968 L1277.37674,747.179968 C1277.57269,747.179968 1277.77033,747.179968 1277.96629,746.989574 L1278.55584,746.989574 L1278.94776,746.800794 C1279.14706,746.800794 1279.53898,746.610401 1279.73494,746.610401 L1279.93257,746.610401 C1282.68437,745.664888 1285.6338,744.527368 1288.19131,743.201067 L1288.38727,743.00906 C1288.5849,743.00906 1288.78086,742.820281 1288.97515,742.820281 C1291.92625,741.114807 1294.87568,739.220554 1297.43152,736.756733 L1298.02107,736.18878 L1298.41299,735.809607 L1298.80658,735.619213 C1301.16813,733.155393 1303.33038,730.314013 1305.29667,727.471019 L1305.49263,727.091846 L1305.69026,726.714286 C1307.26128,724.060072 1308.63801,721.028298 1309.81712,717.806131 L1309.81712,717.617351 C1309.81712,717.426958 1310.01475,717.238178 1310.01475,716.860618 L1310.01475,716.668611 L1310.20903,716.102271 C1310.20903,715.911878 1310.40834,715.723098 1310.40834,715.532704 L1310.40834,715.342311 C1311.19385,712.310537 1311.58744,709.08837 1311.7834,706.056597 L1311.7834,705.866203 L1311.7834,705.299863 C1311.7834,701.888916 1311.39149,698.476356 1310.40834,695.067022 L1310.40834,694.876629 C1310.40834,694.687849 1310.40834,694.497456 1310.20903,694.118282 L1310.20903,693.929502 L1310.20903,693.739109 L1310.01475,693.359935 C1310.01475,692.980762 1309.81712,692.793596 1309.81712,692.601589 L1309.81712,692.414422 C1309.62116,692.032022 1309.62116,691.844855 1309.4252,691.465682 L1346.58534,671 C1352.67848,677.441107 1360.54363,681.991188 1369,684.075835 L1369,726.144719 Z M1267.28456,661.614426 L1266.69572,661.614426 C1263.16102,661.614426 1259.62632,661.993121 1256.28901,662.7489 L1255.6985,662.940664 L1255.30538,662.940664 C1255.10966,663.127595 1254.71822,663.127595 1254.51915,663.127595 L1254.3251,663.319359 C1250.98612,664.075138 1247.84286,665.401376 1244.897,666.914544 L1244.70127,667.103086 C1244.50555,667.103086 1244.30816,667.293239 1244.11244,667.481781 C1241.16657,668.994949 1238.4181,671.076966 1235.86535,673.349135 C1235.47224,673.539289 1235.27484,673.726219 1235.07912,673.916372 L1234.88173,674.106525 L1234.49028,674.48522 C1234.29456,674.673762 1234.09717,674.863915 1233.90145,675.052457 L1233.70405,675.24261 C1233.50833,675.621305 1233.31093,675.808235 1232.91782,676 L1196,655.560141 C1198.75014,647.040311 1198.94586,638.14662 1196.39312,630.007095 L1234.09717,609 C1242.34425,617.137913 1253.73459,622.247877 1266.5,622.247877 C1279.06634,622.247877 1290.65408,617.137913 1298.70711,609 L1336.40949,630.007095 C1334.05246,638.14662 1334.05246,647.040311 1337,655.560141 L1299.88312,676 C1299.68739,675.808235 1299.49,675.621305 1299.29428,675.431152 L1299.09688,675.24261 C1299.09688,675.052457 1298.90116,674.863915 1298.70711,674.863915 L1298.31399,674.295067 L1298.11493,674.295067 C1295.36813,671.455661 1292.22487,669.185102 1288.88589,667.293239 C1288.6885,667.293239 1288.29873,667.103086 1288.10133,667.103086 L1288.10133,666.914544 C1284.95975,665.401376 1281.81649,664.075138 1278.47918,663.319359 L1278.47918,663.127595 C1278.28178,663.127595 1277.89034,663.127595 1277.69295,662.940664 L1277.10411,662.940664 L1276.71266,662.7489 C1273.5694,662.183274 1270.62354,661.804579 1267.48195,661.614426 L1267.28456,661.614426 Z M1257,788.869679 C1247.97461,790.576766 1240.12586,794.934839 1233.84819,801 L1196.1772,780.153531 C1199.51158,769.162343 1198.33494,757.033635 1191.86005,746.421621 C1185.58239,735.998386 1175.38035,728.797319 1164,726.144719 L1164,684.075835 C1172.63262,681.991188 1180.4797,677.441107 1186.56349,671 L1223.44893,691.465682 C1223.44893,691.844855 1223.44893,692.032022 1223.25338,692.414422 L1223.25338,692.601589 C1223.05616,692.793596 1223.05616,692.980762 1223.05616,693.359935 L1222.86061,693.739109 L1222.86061,693.929502 L1222.66506,694.118282 C1221.87785,697.530843 1221.48842,700.749783 1221.2912,703.97195 L1221.2912,704.351123 L1221.2912,704.730297 L1221.2912,704.92069 C1221.2912,708.522031 1221.68397,712.310537 1222.66506,716.102271 L1222.86061,716.479831 L1223.05616,716.860618 C1223.05616,717.047785 1223.05616,717.426958 1223.25338,717.806131 C1224.23448,720.649125 1225.41112,723.301725 1226.78499,725.955939 C1226.98221,726.335112 1227.17776,726.523892 1227.37331,726.714286 L1227.56886,727.282239 L1227.76608,727.471019 C1229.3355,729.936453 1231.10213,732.397046 1233.25987,734.6737 L1233.45542,734.6737 C1233.65264,734.860866 1233.84819,735.052873 1234.04541,735.24004 C1236.98702,738.271813 1240.32308,740.735634 1244.05023,742.820281 L1244.24745,742.820281 L1244.24745,743.00906 L1244.83577,743.201067 C1245.03132,743.389847 1245.23022,743.389847 1245.4241,743.578627 L1245.62132,743.578627 C1247.58183,744.716147 1249.73957,745.472881 1251.90065,746.231228 L1252.09453,746.231228 C1252.29175,746.421621 1252.68452,746.421621 1252.88007,746.610401 L1253.0773,746.610401 C1253.27285,746.610401 1253.66395,746.610401 1253.86117,746.800794 C1254.84226,746.989574 1255.82336,747.368748 1257,747.559141 L1257,788.869679 Z M1402.53258,730.671619 C1397.6117,728.008286 1392.49466,726.298571 1387.37762,725.346571 L1387.37762,684.653429 C1392.49466,683.703048 1397.6117,681.990095 1402.53258,679.328381 C1423.98658,667.349048 1431.46598,640.727048 1418.86787,620 C1406.46928,599.083524 1378.91573,592.047143 1357.46005,604.028095 C1352.53918,606.68981 1348.60415,610.112476 1345.2593,614.106667 L1308.64866,593.567429 C1310.41917,588.813905 1311.60119,583.679905 1311.60119,578.356476 C1311.60119,554.39619 1291.33088,535 1266.53034,535 C1241.53364,535 1221.45781,554.39619 1221.45781,578.356476 C1221.45781,583.679905 1222.44199,588.813905 1224.21417,593.567429 L1187.80138,614.106667 C1184.45485,610.112476 1180.32199,606.68981 1175.59895,604.028095 C1153.94878,592.047143 1126.39356,599.083524 1113.99329,620 C1101.5947,640.727048 1109.07242,667.349048 1130.52643,679.328381 C1135.24946,681.990095 1140.36817,683.703048 1145.48521,684.653429 L1145.48521,725.346571 C1140.36817,726.298571 1135.24946,728.008286 1130.52643,730.671619 C1109.07242,742.650952 1101.5947,769.272952 1113.99329,790 C1126.39356,810.727048 1153.94878,817.954476 1175.59895,805.973524 C1180.32199,803.31019 1184.45485,799.887524 1187.80138,795.894952 L1224.21417,816.241524 C1222.44199,820.995048 1221.45781,826.129048 1221.45781,831.645143 C1221.45781,855.60381 1241.53364,875 1266.53034,875 C1291.33088,875 1311.60119,855.60381 1311.60119,831.645143 C1311.60119,826.129048 1310.41917,820.995048 1308.64866,816.241524 L1345.2593,795.894952 C1348.60415,799.887524 1352.53918,803.31019 1357.46005,805.973524 C1378.91573,817.954476 1406.46928,810.727048 1418.86787,790 C1431.46598,769.272952 1423.98658,742.650952 1402.53258,730.671619 L1402.53258,730.671619 Z" id="Fill-1"></path>
        </g>
    </g>
</svg>