<?xml version="1.0" encoding="UTF-8"?>
<svg width="26px" height="38px" viewBox="0 0 26 38" version="1.1" xmlns="http://www.w3.org/2000/svg" xmlns:xlink="http://www.w3.org/1999/xlink">
    <!-- Generator: Sketch 45.2 (43514) - http://www.bohemiancoding.com/sketch -->
    <title></title>
    <desc>Created with Sketch.</desc>
    <defs>
        <linearGradient x1="100%" y1="-11.8227134%" x2="0%" y2="100%" id="linearGradient-1">
            <stop stop-color="#FAD961" offset="0%"></stop>
            <stop stop-color="#F76B1C" offset="100%"></stop>
        </linearGradient>
    </defs>
    <g id="Page-1" stroke="none" stroke-width="1" fill="none" fill-rule="evenodd">
        <g id="Getting-Started_Screen-3" transform="translate(-261.000000, -232.000000)" fill="url(#linearGradient-1)">
            <path d="M279.06405,242.995508 C279.06405,243.412749 278.695896,243.780902 278.278656,243.780902 C277.861416,243.780902 277.493263,243.412749 277.493263,242.995508 C277.493263,241.302004 274.867103,240.639328 273.566295,240.639328 C273.149055,240.639328 272.780902,240.271175 272.780902,239.853935 C272.780902,239.436694 273.149055,239.068541 273.566295,239.068541 C275.848845,239.068541 279.06405,240.271175 279.06405,242.995508 Z M282.991017,242.995508 C282.991017,238.086799 278.008677,235.141574 273.566295,235.141574 C269.123914,235.141574 264.141574,238.086799 264.141574,242.995508 C264.141574,244.566295 264.779706,246.210713 265.810535,247.413347 C266.276862,247.953305 266.81682,248.468719 267.307691,249.033221 C269.050283,251.119422 270.522896,253.573777 270.768331,256.347197 L276.36426,256.347197 C276.609695,253.573777 278.082308,251.119422 279.8249,249.033221 C280.31577,248.468719 280.855728,247.953305 281.322056,247.413347 C282.352885,246.210713 282.991017,244.566295 282.991017,242.995508 Z M286.132591,242.995508 C286.132591,245.523494 285.29811,247.707869 283.604606,249.573179 C281.911101,251.438488 279.677638,254.064648 279.48129,256.690807 C280.193053,257.108047 280.634837,257.893441 280.634837,258.703378 C280.634837,259.292423 280.413945,259.856924 280.021248,260.274165 C280.413945,260.691405 280.634837,261.255906 280.634837,261.844952 C280.634837,262.654889 280.217596,263.391195 279.530377,263.832979 C279.726725,264.176588 279.849443,264.593829 279.849443,264.986525 C279.849443,266.581856 278.597722,267.342706 277.174197,267.342706 C276.536064,268.766231 275.112539,269.698886 273.566295,269.698886 C272.020052,269.698886 270.596526,268.766231 269.958394,267.342706 C268.534869,267.342706 267.283148,266.581856 267.283148,264.986525 C267.283148,264.593829 267.405865,264.176588 267.602214,263.832979 C266.914995,263.391195 266.497754,262.654889 266.497754,261.844952 C266.497754,261.255906 266.718646,260.691405 267.111343,260.274165 C266.718646,259.856924 266.497754,259.292423 266.497754,258.703378 C266.497754,257.893441 266.939538,257.108047 267.651301,256.690807 C267.454953,254.064648 265.22149,251.438488 263.527985,249.573179 C261.834481,247.707869 261,245.523494 261,242.995508 C261,236.319664 267.356778,232 273.566295,232 C279.775812,232 286.132591,236.319664 286.132591,242.995508 Z" id="" transform="translate(273.566295, 250.849443) scale(-1, 1) translate(-273.566295, -250.849443) "></path>
        </g>
    </g>
</svg>