<?xml version="1.0" encoding="UTF-8"?>
<svg width="300px" height="300px" viewBox="0 0 300 300" version="1.1" xmlns="http://www.w3.org/2000/svg" xmlns:xlink="http://www.w3.org/1999/xlink">
    <defs></defs>
    <g id="icon_portfolio" fill="#000000" stroke="none" stroke-width="1" fill-rule="evenodd">
        <path d="M107.142857,64 L192.857143,64 L192.857143,42.5 L107.142857,42.5 L107.142857,64 Z M300,171.5 L300,252.125 C300,266.90625 287.946429,279 273.214286,279 L26.7857143,279 C12.0535714,279 0,266.90625 0,252.125 L0,171.5 L112.5,171.5 L112.5,198.375 C112.5,204.253906 117.354911,209.125 123.214286,209.125 L176.785714,209.125 C182.645089,209.125 187.5,204.253906 187.5,198.375 L187.5,171.5 L300,171.5 Z M171.428571,171.5 L171.428571,193 L128.571429,193 L128.571429,171.5 L171.428571,171.5 Z M300,90.875 L300,155.375 L0,155.375 L0,90.875 C0,76.09375 12.0535714,64 26.7857143,64 L85.7142857,64 L85.7142857,37.125 C85.7142857,28.2226562 92.9129464,21 101.785714,21 L198.214286,21 C207.087054,21 214.285714,28.2226562 214.285714,37.125 L214.285714,64 L273.214286,64 C287.946429,64 300,76.09375 300,90.875 Z"></path>
    </g>
</svg>