<?xml version="1.0" encoding="UTF-8"?>
<svg width="28px" height="29px" viewBox="0 0 28 29" version="1.1" xmlns="http://www.w3.org/2000/svg" xmlns:xlink="http://www.w3.org/1999/xlink">
    <!-- Generator: Sketch 47.1 (45422) - http://www.bohemiancoding.com/sketch -->
    <title>Path</title>
    <desc>Created with Sketch.</desc>
    <defs></defs>
    <g id="Phone" stroke="none" stroke-width="1" fill="none" fill-rule="evenodd">
        <g id="PSP--MyStocks__home-Copy-2" transform="translate(-226.000000, -452.000000)" fill="#FFFFFF">
            <path d="M226.381062,464.823691 L238.812881,452.381062 C239.320964,451.872979 240.142545,451.872979 240.650628,452.381062 L253.082446,464.823691 C253.590529,465.331774 253.590529,466.153355 253.082446,466.661438 L252.336537,467.407347 C251.828454,467.91543 250.985252,467.91543 250.487979,467.385726 L241.569501,458.14294 L241.569501,478.714896 C241.569501,479.428375 240.985746,480.01213 240.272268,480.01213 L239.19124,480.01213 C238.477762,480.01213 237.894007,479.428375 237.894007,478.714896 L237.894007,458.14294 L228.975529,467.396537 C228.467446,467.91543 227.635054,467.92624 227.126971,467.418157 L226.381062,466.672248 C225.872979,466.153355 225.872979,465.331774 226.381062,464.823691 Z" id="Path"></path>
        </g>
    </g>
</svg>