<?xml version="1.0" encoding="UTF-8"?>
<svg width="100px" height="100px" viewBox="0 0 100 100" version="1.1" xmlns="http://www.w3.org/2000/svg" xmlns:xlink="http://www.w3.org/1999/xlink">
    <!-- Generator: Sketch 48.2 (47327) - http://www.bohemiancoding.com/sketch -->
    <title>icon__H1-Experts</title>
    <desc>Created with Sketch.</desc>
    <defs></defs>
    <g id="HeadStat/Icon/Exclaimation/Red-Copy-4" stroke="none" stroke-width="1" fill="none" fill-rule="evenodd">
        <g id="icon__H1-Experts" fill="#E2E2E2">
            <path d="M50,100 C77.6209677,100 100,77.6209677 100,50 C100,22.3790323 77.6209677,0 50,0 C22.3790323,0 0,22.3790323 0,50 C0,77.6209677 22.3790323,100 50,100 Z M4,50 C4,24.7212963 24.4657407,4 50,4 C75.2787037,4 96,24.4657407 96,50 C96,75.2787037 75.5342593,96 50,96 C24.7212963,96 4,75.5342593 4,50 Z" id="Shape" fill-rule="nonzero" transform="translate(50.000000, 50.000000) rotate(-180.000000) translate(-50.000000, -50.000000) "></path>
            <path d="M83.20964,59.46484 C82.71464,59.96104 81.92204,60.43804 80.91824,60.84424 C78.66824,61.75504 75.48764,62.27704 72.19244,62.27704 C70.58324,62.27704 69.04184,62.14924 67.66124,61.90864 C67.40804,59.42344 66.97004,57.19084 66.77264,56.26024 C66.70844,54.22324 65.21024,52.14784 63.29624,51.45064 C63.44684,51.32944 63.60464,51.23764 63.76004,51.18664 L68.85104,49.52884 L70.54304,49.02664 L70.54304,46.57804 L70.24304,46.23844 C70.09364,46.06924 69.93524,45.86524 69.76364,45.62104 C69.26324,44.89984 68.84384,44.02384 68.55104,43.08844 L68.19584,41.96704 L67.06844,42.29224 C66.90584,42.29224 66.48044,41.90044 66.39284,41.13544 C66.32624,40.57684 66.49244,40.13224 66.68804,39.93784 C66.75944,39.86704 66.79964,39.85864 66.82244,39.85984 L67.97324,39.94744 L68.10584,38.80084 C68.13284,38.56564 68.17544,38.32504 68.24084,38.04304 C68.34704,37.58224 68.50124,37.17004 68.69744,36.81844 C68.98724,36.30184 69.36224,35.90284 69.84344,35.59984 C70.58924,35.13064 71.57204,34.89304 72.76484,34.89304 C73.86044,34.89304 74.78264,35.09644 75.50504,35.49784 C76.07564,35.81524 76.50824,36.24664 76.82684,36.81724 C77.02304,37.16944 77.17844,37.58344 77.28704,38.04664 C77.35244,38.32864 77.39444,38.56384 77.41844,38.78524 L77.48744,39.85324 L78.56624,39.85324 C78.59204,39.85624 78.64304,39.88624 78.70244,39.95104 C78.87344,40.13584 79.05284,40.55464 78.99584,41.13004 C78.92504,41.84644 78.54104,42.25024 78.33224,42.28804 L77.30864,42.03184 L76.96904,43.10884 C76.66124,44.08504 76.22264,44.98384 75.69944,45.71344 C75.53024,45.95164 75.34904,46.17424 75.16184,46.37584 L74.84024,46.72144 L74.84024,48.93604 L76.64024,49.44304 L81.61544,51.15004 C81.95924,51.26764 82.31324,51.57844 82.56104,51.97984 C82.75304,52.29304 82.85924,52.61584 82.85924,52.88944 L82.91444,53.28304 C83.56304,56.49004 83.56784,58.99444 83.20964,59.46484 Z M64.72664,69.30664 C62.40704,71.62624 56.37704,73.18384 49.72184,73.18384 C43.33484,73.18384 38.00804,71.69944 36.15104,69.40204 C35.46524,68.55244 35.35184,66.09064 35.52944,63.32104 C35.55704,62.88784 35.59184,62.44924 35.63264,62.00584 C35.67464,61.55164 35.72324,61.09504 35.77724,60.63964 C35.94524,59.22304 36.16124,57.82984 36.39584,56.62684 C36.41024,56.55124 36.41804,56.47384 36.41804,56.39704 C36.41804,55.63504 36.86984,54.80104 37.49384,54.25324 C37.75544,54.02404 38.04524,53.83924 38.34884,53.74084 L38.60624,53.65684 L39.75884,53.28124 L44.04224,51.88504 L46.88504,60.62464 L49.32044,68.11024 C49.48124,68.60464 49.94204,68.93944 50.46164,68.93944 C50.98124,68.93944 51.44204,68.60464 51.60284,68.11024 L54.26024,59.94064 L56.90924,51.79504 L60.10304,52.88944 L61.25204,53.28304 L62.40164,53.67724 L62.44124,53.69044 C63.47144,54.04324 64.37504,55.30804 64.37504,56.39704 C64.37504,56.48104 64.38404,56.56564 64.40204,56.64844 C64.72304,58.14724 64.98584,59.74324 65.17004,61.28464 C65.22224,61.72564 65.27084,62.16364 65.30984,62.59204 C65.34884,63.02644 65.37764,63.44824 65.40164,63.86164 C65.55464,66.50284 65.38364,68.65024 64.72664,69.30664 Z M34.01984,56.27224 C33.85304,57.13684 33.48824,59.17744 33.25784,61.50244 C31.30124,62.00044 28.97924,62.27704 26.59244,62.27704 C23.37404,62.27704 20.42504,61.76344 18.50084,60.86884 C17.66444,60.47944 17.04464,60.03904 16.65824,59.55964 C16.29524,59.06644 16.27964,56.48584 16.88384,53.20684 L16.92344,52.88944 C16.92344,52.59124 17.04764,52.23844 17.26664,51.91924 C17.50724,51.56464 17.84204,51.29044 18.16004,51.18664 L23.25104,49.52884 L24.94304,49.02664 L24.94304,46.57804 L24.64304,46.23844 C24.49364,46.06924 24.33524,45.86524 24.16364,45.62104 C23.66324,44.89984 23.24384,44.02384 22.95104,43.08844 L22.59584,41.96704 L21.46844,42.29224 C21.30584,42.29224 20.88044,41.90044 20.79284,41.13544 C20.72624,40.57684 20.89244,40.13224 21.08804,39.93784 C21.15944,39.86704 21.20084,39.85864 21.22244,39.85984 L22.37324,39.94744 L22.50584,38.80084 C22.53284,38.56564 22.57544,38.32504 22.64084,38.04304 C22.74704,37.58224 22.90124,37.17004 23.09684,36.81844 C23.38724,36.30184 23.76224,35.90284 24.24344,35.59984 C24.98924,35.13064 25.97204,34.89304 27.16484,34.89304 C28.26044,34.89304 29.18264,35.09644 29.90504,35.49784 C30.47564,35.81524 30.90824,36.24664 31.22684,36.81724 C31.42304,37.16944 31.57844,37.58344 31.68704,38.04664 C31.75244,38.32864 31.79444,38.56384 31.81844,38.78524 L31.88744,39.85324 L32.96624,39.85324 C32.99204,39.85624 33.04304,39.88624 33.10244,39.95104 C33.27344,40.13584 33.45284,40.55464 33.39584,41.13004 C33.32504,41.84644 32.94104,42.25024 32.73224,42.28804 L31.70864,42.03184 L31.36904,43.10884 C31.06124,44.08504 30.62264,44.98384 30.09944,45.71344 C29.93024,45.95164 29.74904,46.17424 29.56184,46.37584 L29.24024,46.72144 L29.24024,48.93604 L31.04024,49.44304 L36.01544,51.15004 C36.30404,51.24904 36.59564,51.48844 36.82964,51.79864 C35.24024,52.67044 34.07204,54.47824 34.01984,56.27224 Z M50.24084,53.71384 L50.54804,53.71384 L51.78224,59.79844 L50.46164,63.85984 L49.25624,60.15544 L50.24084,53.71384 Z M49.70384,51.11404 L51.08984,51.11404 L51.08984,50.68384 L49.70384,50.68384 L49.70384,51.11404 Z M85.27064,52.82704 C85.88024,55.84024 86.31584,59.75164 84.90824,61.16044 C84.17684,61.89304 83.13704,62.53564 81.81824,63.06904 C79.29344,64.09084 75.78524,64.67764 72.19304,64.67764 L72.19244,64.67764 C70.65344,64.67764 69.19004,64.56544 67.83344,64.36264 C67.92884,67.12324 67.64324,69.78424 66.42344,71.00404 C63.04304,74.38444 55.31324,75.58384 49.72184,75.58384 C42.42104,75.58384 36.64964,73.83664 34.28444,70.90984 C33.19844,69.56704 32.97164,66.80584 33.08024,64.00984 C31.10264,64.44124 28.86584,64.67764 26.59304,64.67764 L26.59244,64.67764 C22.98464,64.67764 19.75124,64.09744 17.48924,63.04504 C16.31624,62.49964 15.40724,61.83304 14.78864,61.06444 C13.58444,59.57344 13.97984,55.72984 14.52584,52.76044 C14.55404,52.01764 14.82044,51.24364 15.28364,50.56684 C15.82664,49.76764 16.58504,49.17604 17.41664,48.90484 L22.40324,47.28124 C22.33544,47.19064 22.26644,47.09524 22.19624,46.99444 C21.70184,46.28284 21.28604,45.49444 20.95244,44.63824 C19.65164,44.36344 18.59864,43.06864 18.40844,41.41264 C18.26384,40.18324 18.63164,38.99584 19.39364,38.23804 C19.65584,37.97644 19.95224,37.77544 20.27144,37.64284 C20.28104,37.59664 20.29184,37.55044 20.30264,37.50184 C20.45984,36.82204 20.69564,36.19804 21.00284,35.64724 C21.48764,34.78264 22.14704,34.08424 22.96484,33.56884 C24.10004,32.85424 25.51304,32.49304 27.16484,32.49304 C28.67204,32.49304 29.98664,32.79784 31.07084,33.39964 C32.03024,33.93304 32.78804,34.68964 33.32204,35.64724 C33.62804,36.19564 33.86444,36.81904 34.02344,37.50064 C34.04144,37.57504 34.05704,37.64764 34.07204,37.71844 C34.36304,37.86364 34.62944,38.06644 34.86584,38.32324 C35.55524,39.06784 35.89964,40.20664 35.78384,41.36704 C35.62424,42.99244 34.63964,44.27704 33.38504,44.61004 C33.02924,45.53164 32.58284,46.36924 32.05244,47.10844 C32.02484,47.14744 31.99724,47.18584 31.96904,47.22424 L36.79364,48.87964 C37.67084,49.17964 38.45564,49.83364 39.00404,50.72104 C39.05264,50.80024 39.08984,50.88064 39.13304,50.96044 L44.44004,49.23124 C44.74304,49.13284 45.07184,49.15864 45.35624,49.30204 C45.64004,49.44724 45.85424,49.69804 45.95324,50.00104 L47.60444,55.07644 L47.87144,53.32924 C47.53184,53.11744 47.30384,52.74364 47.30384,52.31404 L47.30384,49.48384 C47.30384,48.82144 47.84144,48.28384 48.50384,48.28384 L52.28984,48.28384 C52.95224,48.28384 53.48984,48.82144 53.48984,49.48384 L53.48984,52.31404 C53.48984,52.74484 53.26064,53.11984 52.91984,53.33104 L53.29064,55.16104 L55.00364,49.89304 C55.10324,49.58704 55.32164,49.33444 55.60904,49.19044 C55.89704,49.04764 56.23004,49.02544 56.53424,49.12864 L60.85784,50.61064 C60.86744,50.59684 60.87344,50.58064 60.88364,50.56684 C61.42664,49.76764 62.18504,49.17604 63.01664,48.90484 L68.00324,47.28124 C67.93544,47.19064 67.86644,47.09524 67.79624,46.99444 C67.30184,46.28284 66.88604,45.49444 66.55244,44.63824 C65.25164,44.36344 64.19864,43.06864 64.00844,41.41264 C63.86384,40.18324 64.23164,38.99584 64.99364,38.23804 C65.25584,37.97644 65.55224,37.77544 65.87144,37.64284 C65.88104,37.59664 65.89184,37.55044 65.90264,37.50184 C66.05984,36.82204 66.29564,36.19804 66.60284,35.64724 C67.08764,34.78264 67.74704,34.08424 68.56484,33.56884 C69.70004,32.85424 71.11304,32.49304 72.76484,32.49304 C74.27204,32.49304 75.58664,32.79784 76.67084,33.39964 C77.63024,33.93304 78.38804,34.68964 78.92204,35.64724 C79.22804,36.19564 79.46444,36.81904 79.62344,37.50064 C79.64144,37.57504 79.65704,37.64764 79.67204,37.71844 C79.96304,37.86364 80.22944,38.06644 80.46584,38.32324 C81.15524,39.06784 81.49964,40.20664 81.38384,41.36704 C81.22424,42.99244 80.23964,44.27704 78.98504,44.61004 C78.62924,45.53164 78.18284,46.36924 77.65244,47.10844 C77.62484,47.14744 77.59724,47.18584 77.56904,47.22424 L82.39364,48.87964 C83.27084,49.17964 84.05564,49.83364 84.60404,50.72104 C85.00664,51.37624 85.23044,52.07644 85.25684,52.75504 C85.26104,52.77724 85.26584,52.80124 85.27064,52.82704 Z M42.49076,40.45642 C40.82756,40.22902 39.44636,38.58862 39.19856,36.46282 C39.07016,35.35402 39.26936,34.26142 39.75956,33.38542 C40.20416,32.58922 40.86716,32.02342 41.62976,31.77262 C42.47336,27.39442 45.58916,24.99982 50.49296,24.99982 C55.42436,24.99982 58.54616,27.42502 59.36636,31.85482 C59.83976,32.05462 60.27176,32.38042 60.62576,32.81242 C61.37996,33.73162 61.73456,35.04082 61.59896,36.40342 C61.39376,38.49082 60.10556,40.11862 58.49936,40.43242 C56.88236,44.80642 53.80316,47.58622 50.49296,47.58622 C47.18576,47.58622 44.11196,44.81782 42.49076,40.45642 Z M41.85416,34.55602 C41.61176,34.98982 41.51276,35.58382 41.58236,36.18562 C41.71316,37.30342 42.37436,38.08342 42.88676,38.08342 L42.95576,38.07922 L44.08196,37.75702 L44.48216,38.86462 C45.66356,42.64522 48.07856,45.18622 50.49296,45.18622 C52.89716,45.18622 55.30676,42.65842 56.48876,38.89582 L56.80556,37.88722 L57.91436,38.08822 C58.44776,38.08762 59.09936,37.29862 59.21096,36.16822 C59.28176,35.45422 59.11316,34.75222 58.76996,34.33462 C58.66496,34.20562 58.49456,34.04782 58.28396,34.02742 L57.23216,34.00942 L57.10676,32.96662 C56.68376,29.27242 54.45836,27.39982 50.49296,27.39982 C46.52156,27.39982 44.29376,29.27542 43.87256,32.97442 L43.73996,34.14262 L42.56876,34.03342 C42.54536,34.03102 42.52136,34.02922 42.49796,34.02922 C42.17096,34.06642 41.95556,34.37482 41.85416,34.55602 Z" id="Combined-Shape" stroke="#E2E2E2" stroke-width="0.5"></path>
        </g>
    </g>
</svg>