<?xml version="1.0" encoding="UTF-8"?>
<svg width="38px" height="38px" viewBox="0 0 38 38" version="1.1" xmlns="http://www.w3.org/2000/svg" xmlns:xlink="http://www.w3.org/1999/xlink">
    <!-- Generator: Sketch 47.1 (45422) - http://www.bohemiancoding.com/sketch -->
    <title>Shape</title>
    <desc>Created with Sketch.</desc>
    <defs></defs>
    <g id="Symbols" stroke="none" stroke-width="1" fill="none" fill-rule="evenodd">
        <g id="HeadStat/Icon/MoneySign/Green" fill-rule="nonzero" fill="#00C04E">
            <g id="usd-circle">
                <path d="M19,0 C8.50403226,0 0,8.50403226 0,19 C0,29.4959677 8.50403226,38 19,38 C29.4959677,38 38,29.4959677 38,19 C38,8.50403226 29.4959677,0 19,0 Z M35.5483871,19 C35.5483871,28.0939516 28.1858871,35.5483871 19,35.5483871 C9.90604839,35.5483871 2.4516129,28.1858871 2.4516129,19 C2.4516129,9.90604839 9.8141129,2.4516129 19,2.4516129 C28.0939516,2.4516129 35.5483871,9.8141129 35.5483871,19 Z M23.3439516,19.4979839 C22.3479839,18.7165323 21.083871,18.2108871 19.8580645,17.7205645 C17.5366935,16.7935484 16.1270161,16.1270161 16.1270161,14.6100806 C16.1270161,13.9971774 16.4104839,13.4302419 16.9314516,13.008871 C17.5290323,12.533871 18.3641129,12.2810484 19.3524194,12.2810484 C21.3826613,12.2810484 22.8766129,13.6294355 22.8919355,13.6447581 C23.0145161,13.7596774 23.1907258,13.8133065 23.3592742,13.7903226 C23.5278226,13.7673387 23.6810484,13.6677419 23.7653226,13.5145161 L24.6080645,12.1048387 C24.7383065,11.8826613 24.7076613,11.5991935 24.5314516,11.4076613 C24.4701613,11.3387097 23.0375,9.88306452 20.4326613,9.56129032 L20.4326613,7.31653226 C20.4326613,7.00241935 20.1798387,6.74193548 19.8657258,6.74193548 L18.4407258,6.74193548 C18.1266129,6.74193548 17.8737903,7.00241935 17.8737903,7.31653226 L17.8737903,9.65322581 C16.5866935,9.8983871 15.4758065,10.45 14.6407258,11.2620968 C13.6983871,12.1737903 13.1850806,13.3842742 13.1850806,14.6637097 C13.1850806,16.203629 13.7903226,17.4294355 15.0237903,18.4177419 C16.0504032,19.2375 17.3528226,19.7584677 18.6092742,20.2717742 C20.8540323,21.1758065 22.2100806,21.8270161 22.2100806,23.1907258 C22.2100806,24.9451613 20.6395161,25.7495968 19.183871,25.7495968 C16.6939516,25.7495968 14.9241935,23.9721774 14.9012097,23.9415323 C14.7862903,23.8266129 14.6254032,23.7653226 14.4645161,23.7729839 C14.303629,23.7806452 14.1504032,23.8572581 14.0431452,23.9875 L13.0012097,25.2975806 C12.825,25.5120968 12.8326613,25.8262097 13.0165323,26.0407258 C13.0931452,26.125 14.778629,28.0096774 17.8737903,28.4387097 L17.8737903,30.6987903 C17.8737903,31.0129032 18.1266129,31.2733871 18.4407258,31.2733871 L19.8657258,31.2733871 C20.1798387,31.2733871 20.4326613,31.0129032 20.4326613,30.6987903 L20.4326613,28.4310484 C21.7580645,28.208871 22.8842742,27.6266129 23.7193548,26.7379032 C24.6233871,25.7802419 25.121371,24.4931452 25.121371,23.1217742 C25.1290323,21.6201613 24.5467742,20.4403226 23.3439516,19.4979839 L23.3439516,19.4979839 Z" id="Shape"></path>
            </g>
        </g>
    </g>
</svg>