<?xml version="1.0" encoding="UTF-8"?>
<svg width="300px" height="300px" viewBox="0 0 300 300" version="1.1" xmlns="http://www.w3.org/2000/svg" xmlns:xlink="http://www.w3.org/1999/xlink">
    <defs></defs>
    <g id="icon_listdrop" fill="#000000" stroke="none" stroke-width="1" fill-rule="evenodd">
        <path d="M2.76228097,165.829042 L140.754043,28.1876852 C145.612908,23.3411585 153.387092,23.3411585 158.245957,28.1876852 L296.237719,165.829042 C301.096584,170.675569 299.347393,174.55279 292.544982,174.55279 L6.45501827,174.55279 C-0.347392548,174.55279 -2.0965839,170.675569 2.76228097,165.829042 Z M286.541667,275.335407 L12.4583333,275.335407 C5.64518229,275.335407 9.9475983e-14,269.671345 9.9475983e-14,262.835407 L9.9475983e-14,212.835407 C9.9475983e-14,205.99947 5.64518229,200.335407 12.4583333,200.335407 L286.541667,200.335407 C293.354818,200.335407 299,205.99947 299,212.835407 L299,262.835407 C299,269.671345 293.354818,275.335407 286.541667,275.335407 Z" id="icon" transform="translate(149.500000, 150.000000) scale(1, -1) translate(-149.500000, -150.000000) "></path>
    </g>
</svg>