<?xml version="1.0" encoding="UTF-8"?>
<svg width="300px" height="300px" viewBox="0 0 300 300" version="1.1" xmlns="http://www.w3.org/2000/svg" xmlns:xlink="http://www.w3.org/1999/xlink">
    <defs></defs>
    <g id="icon_unwatch" fill="#000000" stroke="none" stroke-width="1" fill-rule="evenodd">
        <path d="M117.857143,175.875042 L3.55271368e-15,274.784091 L0,203.571429 L41.6852679,57.421875 C42.3549107,55.078125 44.53125,53.5714286 46.875,53.5714286 L117.857143,53.5714286 L117.857143,175.875042 Z M107.142857,237.086373 L107.142857,289.285714 C107.142857,295.145089 102.287946,300 96.4285714,300 L32.1768114,300 L107.142857,237.086373 Z M171.428571,130.916383 L171.428571,53.5714286 L128.571429,53.5714286 L128.571429,166.88331 L171.428571,130.916383 Z M182.142857,174.144251 L270.465185,100.021655 L300,203.571429 L300,289.285714 C300,295.145089 295.145089,300 289.285714,300 L203.571429,300 C197.712054,300 192.857143,295.145089 192.857143,289.285714 L192.857143,192.857143 C186.997768,192.857143 182.142857,188.002232 182.142857,182.142857 L182.142857,174.144251 Z M182.142857,121.924651 L182.142857,53.5714286 L253.125,53.5714286 C255.46875,53.5714286 257.645089,55.078125 258.314732,57.421875 L258.447563,57.8875829 L182.142857,121.924651 Z M123.214286,5.35714286 L123.214286,42.8571429 L64.2857143,42.8571429 L64.2857143,5.35714286 C64.2857143,2.34375 66.6294643,0 69.6428571,0 L117.857143,0 C120.870536,0 123.214286,2.34375 123.214286,5.35714286 Z M235.714286,5.35714286 L235.714286,42.8571429 L176.785714,42.8571429 L176.785714,5.35714286 C176.785714,2.34375 179.129464,0 182.142857,0 L230.357143,0 C233.370536,0 235.714286,2.34375 235.714286,5.35714286 Z"></path>
    </g>
</svg>