<?xml version="1.0" encoding="UTF-8"?>
<svg width="60px" height="60px" viewBox="0 0 60 60" version="1.1" xmlns="http://www.w3.org/2000/svg" xmlns:xlink="http://www.w3.org/1999/xlink">
    <!-- Generator: Sketch 47.1 (45422) - http://www.bohemiancoding.com/sketch -->
    <title>Path</title>
    <desc>Created with Sketch.</desc>
    <defs></defs>
    <g id="Symbols" stroke="none" stroke-width="1" fill="none" fill-rule="evenodd">
        <path d="M0.832513285,27.4674385 L27.9925212,0.816208394 C29.1025389,-0.272069465 30.8974611,-0.272069465 32.0074788,0.816208394 L59.1674867,27.4674385 C60.2775044,28.5557164 60.2775044,30.3154848 59.1674867,31.4037627 L57.5378862,33.0014472 C56.4278685,34.089725 54.5857115,34.089725 53.4993112,32.9551375 L34.0149577,13.1577424 L34.0149577,57.2214182 C34.0149577,58.7496382 32.7396182,60 31.1808699,60 L28.8191301,60 C27.2603818,60 25.9850423,58.7496382 25.9850423,57.2214182 L25.9850423,13.1577424 L6.50068884,32.9782923 C5.39067113,34.089725 3.57213147,34.1128799 2.46211376,33.024602 L0.832513285,31.4269175 C-0.277504428,30.3154848 -0.277504428,28.5557164 0.832513285,27.4674385 Z" id="Path" fill="#00C04E"></path>
    </g>
</svg>