<?xml version="1.0" encoding="UTF-8"?>
<svg width="38px" height="38px" viewBox="0 0 38 38" version="1.1" xmlns="http://www.w3.org/2000/svg" xmlns:xlink="http://www.w3.org/1999/xlink">
    <!-- Generator: Sketch 47.1 (45422) - http://www.bohemiancoding.com/sketch -->
    <title>Group 2</title>
    <desc>Created with Sketch.</desc>
    <defs></defs>
    <g id="Symbols" stroke="none" stroke-width="1" fill="none" fill-rule="evenodd">
        <g id="HeadStat/Icon/Plus/Red" fill-rule="nonzero" fill="#FD001F">
            <g id="Group-2">
                <path d="M38,19 C38,29.4959677 29.4959677,38 19,38 C8.50403226,38 0,29.4959677 0,19 C0,8.50403226 8.50403226,0 19,0 C29.4959677,0 38,8.50403226 38,19 Z M35.5483871,19 C35.5483871,9.8141129 28.0939516,2.4516129 19,2.4516129 C9.8141129,2.4516129 2.4516129,9.90604839 2.4516129,19 C2.4516129,28.1858871 9.90604839,35.5483871 19,35.5483871 C28.1858871,35.5483871 35.5483871,28.0939516 35.5483871,19 Z" id="Shape"></path>
                <path d="M28.7959613,14.4905857 L28.7959613,16.5251511 C28.7959613,17.0774358 29.2436766,17.5251511 29.7959613,17.5251511 C30.3482461,17.5251511 30.7959613,17.0774358 30.7959613,16.5251511 L30.7959613,12.0293015 C30.7959613,11.63183 30.5640684,11.2885201 30.2281932,11.1272825 C30.0035166,11.0012303 29.7417024,10.9692863 29.4987553,11.0293015 L25.0000037,11.0293015 C24.447719,11.0293015 24.0000037,11.4770167 24.0000037,12.0293015 C24.0000037,12.5815862 24.447719,13.0293015 25.0000037,13.0293015 L27.4233345,13.0293015 L20.9945215,19.9712072 L16.9122945,16.6590084 C16.5042437,16.327928 15.9095565,16.3691398 15.5510747,16.7533408 L8.26884809,24.5580283 C7.89207354,24.9618344 7.91398695,25.5946201 8.31779307,25.9713946 C8.72159919,26.3481692 9.35438485,26.3262558 9.7311594,25.9224496 L16.3767887,18.8000319 L20.4617364,22.1144383 C20.8709058,22.4464263 21.4674806,22.4039628 21.8255021,22.0173671 L28.7959613,14.4905857 Z" id="Combined-Shape" transform="translate(19.397981, 18.620121) scale(-1, 1) rotate(180.000000) translate(-19.397981, -18.620121) "></path>
            </g>
        </g>
    </g>
</svg>