<?xml version="1.0" encoding="UTF-8"?>
<svg width="300px" height="300px" viewBox="0 0 300 300" version="1.1" xmlns="http://www.w3.org/2000/svg" xmlns:xlink="http://www.w3.org/1999/xlink">
    <defs></defs>
    <g id="icon_about" fill="#000000" stroke="none" stroke-width="1" fill-rule="evenodd">
        <path d="M156,175 C156,153.487395 150.210938,130 126,130 C118.675781,133.823529 108.621094,140.378151 98,140 C86.3789063,140.378151 76.3242188,133.823529 69,130 C44.7890625,130 39,153.487395 39,175 C39,186.533613 47.6835938,195 59,195 L137,195 C147.316406,195 156,186.533613 156,175 Z M130,111 C130,92.6035242 115.396476,78 98,78 C79.6035242,78 65,92.6035242 65,111 C65,128.539648 79.6035242,143 98,143 C115.396476,143 130,128.539648 130,111 Z M261,187 L261,176 C261,172.437503 259.009375,170 256,170 L175,170 C171.990625,170 170,172.437503 170,176 L170,187 C170,189.848238 171.990625,192.285741 175,192 L256,192 C259.009375,192.285741 261,189.848238 261,187 Z M261,146 L261,136 C261,132.785718 258.725,130 256,130 L175,130 C172.275,130 170,132.785718 170,136 L170,146 C170,149.500023 172.275,152.285741 175,152 L256,152 C258.725,152.285741 261,149.500023 261,146 Z M261,108 L261,97 C261,93.4375029 259.009375,91 256,91 L175,91 C171.990625,91 170,93.4375029 170,97 L170,108 C170,110.848238 171.990625,113.285741 175,113 L256,113 C259.009375,113.285741 261,110.848238 261,108 Z M300,62 L300,238 C300,250.59375 289.453125,261 277,261 L225,261 L225,247 C225,244.523438 222.949219,242.5 220,243 L211,243 C208.300781,242.5 206.25,244.523438 206,247 L206,261 L94,261 L94,247 C93.75,244.523438 91.6992188,242.5 89,243 L80,243 C77.0507812,242.5 75,244.523438 75,247 L75,261 L23,261 C10.546875,261 0,250.59375 0,238 L0,62 C0,49.40625 10.546875,39 23,39 L277,39 C289.453125,39 300,49.40625 300,62 Z" id="icon"></path>
    </g>
</svg>