<?xml version="1.0" encoding="UTF-8"?>
<svg width="300px" height="300px" viewBox="0 0 300 300" version="1.1" xmlns="http://www.w3.org/2000/svg" xmlns:xlink="http://www.w3.org/1999/xlink">
    <defs></defs>
    <g id="icon_userlist" fill="#000000" stroke="none" stroke-width="1" fill-rule="evenodd">
        <path d="M254.966518,224.162946 C250.613839,192.857143 237.890625,165.066964 209.430804,161.216518 C194.698661,177.287946 173.4375,187.5 150,187.5 C126.5625,187.5 105.301339,177.287946 90.5691964,161.216518 C62.109375,165.066964 49.3861607,192.857143 45.0334821,224.162946 C68.3035714,256.975446 106.640625,278.571429 150,278.571429 C193.359375,278.571429 231.696429,256.975446 254.966518,224.162946 Z M214.285714,107.142857 C214.285714,71.6517857 185.491071,42.8571429 150,42.8571429 C114.508929,42.8571429 85.7142857,71.6517857 85.7142857,107.142857 C85.7142857,142.633929 114.508929,171.428571 150,171.428571 C185.491071,171.428571 214.285714,142.633929 214.285714,107.142857 Z M300,150 C300,232.533482 233.035714,300 150,300 C67.1316964,300 0,232.700893 0,150 C0,67.1316964 67.1316964,0 150,0 C232.868304,0 300,67.1316964 300,150 Z"></path>
    </g>
</svg>