<?xml version="1.0" encoding="UTF-8"?>
<svg width="21px" height="21px" viewBox="0 0 21 21" version="1.1" xmlns="http://www.w3.org/2000/svg" xmlns:xlink="http://www.w3.org/1999/xlink">
    <!-- Generator: Sketch 47.1 (45422) - http://www.bohemiancoding.com/sketch -->
    <title>Shape</title>
    <desc>Created with Sketch.</desc>
    <defs></defs>
    <g id="Phone" stroke="none" stroke-width="1" fill="none" fill-rule="evenodd">
        <g id="PSP--StockView__AMZN" transform="translate(-7.000000, -55.000000)" fill-rule="nonzero" fill="#FFFFFF">
            <g id="arrow-square-down" transform="translate(17.500000, 65.500000) rotate(-270.000000) translate(-17.500000, -65.500000) translate(7.000000, 55.000000)">
                <path d="M20.1956522,11.5086957 L11.1956522,20.5165217 C10.8278261,20.8843478 10.2330435,20.8843478 9.86521739,20.5165217 L0.865217391,11.5086957 C0.497391304,11.1408696 0.497391304,10.546087 0.865217391,10.1782609 L1.40521739,9.63826087 C1.77304348,9.27043478 2.38347826,9.27043478 2.74347826,9.65391304 L9.2,16.3530435 L9.2,1.45217391 C9.2,0.935652174 9.6226087,0.513043478 10.1391304,0.513043478 L10.9217391,0.513043478 C11.4382609,0.513043478 11.8608696,0.935652174 11.8608696,1.45217391 L11.8608696,16.3452174 L18.3173913,9.64608696 C18.6852174,9.27043478 19.2878261,9.2626087 19.6556522,9.63043478 L20.1956522,10.1704348 C20.5634783,10.546087 20.5634783,11.1408696 20.1956522,11.5086957 L20.1956522,11.5086957 Z" id="Shape"></path>
            </g>
        </g>
    </g>
</svg>