<?xml version="1.0" encoding="UTF-8"?>
<svg width="38px" height="38px" viewBox="0 0 38 38" version="1.1" xmlns="http://www.w3.org/2000/svg" xmlns:xlink="http://www.w3.org/1999/xlink">
    <!-- Generator: Sketch 47.1 (45422) - http://www.bohemiancoding.com/sketch -->
    <title>Group</title>
    <desc>Created with Sketch.</desc>
    <defs></defs>
    <g id="Symbols" stroke="none" stroke-width="1" fill="none" fill-rule="evenodd">
        <g id="HeadStat/Icon/Exclaimation/Green-Copy" fill="#00C04E">
            <g id="Group">
                <path d="M19,38 C29.4959677,38 38,29.4959677 38,19 C38,8.50403226 29.4959677,0 19,0 C8.50403226,0 0,8.50403226 0,19 C0,29.4959677 8.50403226,38 19,38 Z M2.4516129,19 C2.4516129,9.90604839 9.8141129,2.4516129 19,2.4516129 C28.0939516,2.4516129 35.5483871,9.8141129 35.5483871,19 C35.5483871,28.0939516 28.1858871,35.5483871 19,35.5483871 C9.90604839,35.5483871 2.4516129,28.1858871 2.4516129,19 Z" id="Shape" fill-rule="nonzero"></path>
                <path d="M18.2958631,8 L20.7138944,8 C21.4521428,8 22.0406018,8.64444444 21.9978048,9.41111111 L21.2809548,22.7444444 C21.2381578,23.4555556 20.6817966,24 19.9970444,24 L19.0020138,24 C18.3172616,24 17.7609004,23.4444444 17.7181034,22.7444444 L17.0012534,9.41111111 C16.9691557,8.64444444 17.5576146,8 18.2958631,8 Z" id="Path"></path>
                <path d="M22,28.5 C22,29.8839286 20.8839286,31 19.5,31 C18.1160714,31 17,29.8839286 17,28.5 C17,27.1160714 18.1160714,26 19.5,26 C20.8839286,26 22,27.1160714 22,28.5 Z" id="Path"></path>
            </g>
        </g>
    </g>
</svg>