<?xml version="1.0" encoding="UTF-8"?>
<svg width="28px" height="22px" viewBox="0 0 28 22" version="1.1" xmlns="http://www.w3.org/2000/svg" xmlns:xlink="http://www.w3.org/1999/xlink">
    <!-- Generator: Sketch 47.1 (45422) - http://www.bohemiancoding.com/sketch -->
    <title>Combined Shape</title>
    <desc>Created with Sketch.</desc>
    <defs></defs>
    <g id="Symbols" stroke="none" stroke-width="1" fill="none" fill-rule="evenodd">
        <g id="HealthCheck/Chart/Toggle/Icon/Comparison/On" fill="#1199FF">
            <g id="Group-2">
                <path d="M2,0 L26,0 C27.1045695,-2.16501571e-15 28,0.8954305 28,2 L28,3.5 L28,3.5 C28,4.6045695 27.1045695,5.5 26,5.5 L2,5.5 C0.8954305,5.5 1.3527075e-16,4.6045695 0,3.5 L0,2 L0,2 C-1.3527075e-16,0.8954305 0.8954305,2.02906125e-16 2,0 L2,0 Z M2,8.25 L10,8.25 C11.1045695,8.25 12,9.1454305 12,10.25 L12,11.75 L12,11.75 C12,12.8545695 11.1045695,13.75 10,13.75 L2,13.75 C0.8954305,13.75 1.3527075e-16,12.8545695 0,11.75 L0,10.25 C-1.3527075e-16,9.1454305 0.8954305,8.25 2,8.25 L2,8.25 Z M2,16.5 L19.3333333,16.5 C20.4379028,16.5 21.3333333,17.3954305 21.3333333,18.5 L21.3333333,20 L21.3333333,20 C21.3333333,21.1045695 20.4379028,22 19.3333333,22 L2,22 C0.8954305,22 1.3527075e-16,21.1045695 0,20 L0,18.5 C-1.3527075e-16,17.3954305 0.8954305,16.5 2,16.5 L2,16.5 Z" id="Combined-Shape"></path>
            </g>
        </g>
    </g>
</svg>