<?xml version="1.0" encoding="UTF-8"?>
<svg width="300px" height="300px" viewBox="0 0 300 300" version="1.1" xmlns="http://www.w3.org/2000/svg" xmlns:xlink="http://www.w3.org/1999/xlink">
    <defs></defs>
    <g id="icon_toggle--right" fill="#000000" stroke="none" stroke-width="1" fill-rule="evenodd">
        <path d="M95.1572482,294.487593 C92.7297176,296.829209 89.8550535,298 86.5331695,298 C83.2112856,298 80.3366215,296.829209 77.9090909,294.487593 L62.6412776,280.355804 C60.2137471,278.014187 59,275.241262 59,272.036945 C59,268.832628 60.2137471,266.059703 62.6412776,263.718087 L180.95086,149 L62.6412776,34.2819134 C60.2137471,31.9402971 59,29.167372 59,25.9630549 C59,22.7587378 60.2137471,19.9858126 62.6412776,17.6441963 L77.9090909,3.51240695 C80.3366215,1.17079061 83.2112856,0 86.5331695,0 C89.8550535,0 92.7297176,1.17079061 95.1572482,3.51240695 L237.358722,140.681141 C239.786253,143.022758 241,145.795683 241,149 C241,152.204317 239.786253,154.977242 237.358722,157.318859 L95.1572482,294.487593 Z" id=""></path>
    </g>
</svg>