<?xml version="1.0" encoding="UTF-8"?>
<svg width="21px" height="21px" viewBox="0 0 21 21" version="1.1" xmlns="http://www.w3.org/2000/svg" xmlns:xlink="http://www.w3.org/1999/xlink">
    <!-- Generator: Sketch 43.2 (39069) - http://www.bohemiancoding.com/sketch -->
    <title></title>
    <desc>Created with Sketch.</desc>
    <defs></defs>
    <g id="List-View" stroke="none" stroke-width="1" fill="none" fill-rule="evenodd">
        <g id="CMT-IDEAS_DividendChamps" transform="translate(-1138.000000, -15.000000)" fill="#FFFFFF">
            <g id="Header" transform="translate(0.000000, -8.000000)">
                <path d="M1150.00001,39.7143056 L1150.00001,37.142874 C1150.00001,36.9018023 1149.81251,36.7143021 1149.57144,36.7143021 L1147.00001,36.7143021 C1146.75894,36.7143021 1146.57144,36.9018023 1146.57144,37.142874 L1146.57144,39.7143056 C1146.57144,39.9553774 1146.75894,40.1428776 1147.00001,40.1428776 L1149.57144,40.1428776 C1149.81251,40.1428776 1150.00001,39.9553774 1150.00001,39.7143056 Z M1153.42859,30.7142949 C1153.42859,28.2633991 1150.85716,26.4285755 1148.55358,26.4285755 C1146.37055,26.4285755 1144.73662,27.3660766 1143.58483,29.2812575 C1143.46429,29.4687577 1143.51786,29.7098294 1143.69197,29.8437582 L1145.45983,31.1830455 C1145.52679,31.236617 1145.62054,31.2634027 1145.71429,31.2634027 C1145.83483,31.2634027 1145.96876,31.2098312 1146.04912,31.1026882 C1146.67858,30.2991158 1146.94644,30.0580441 1147.2009,29.8705439 C1147.42858,29.7098294 1147.87055,29.549115 1148.35269,29.549115 C1149.20983,29.549115 1150.00001,30.0982227 1150.00001,30.6875092 C1150.00001,31.3839386 1149.63841,31.7321533 1148.82144,32.1071537 C1147.87055,32.5357257 1146.57144,33.6473341 1146.57144,34.9464428 L1146.57144,35.4285862 C1146.57144,35.669658 1146.75894,35.8571582 1147.00001,35.8571582 L1149.57144,35.8571582 C1149.81251,35.8571582 1150.00001,35.669658 1150.00001,35.4285862 C1150.00001,35.1205502 1150.38841,34.4642994 1151.01787,34.1026918 C1152.03573,33.5267983 1153.42859,32.7500116 1153.42859,30.7142949 Z M1158.57145,33.2857265 C1158.57145,38.9643047 1153.9643,43.5714531 1148.28573,43.5714531 C1142.60715,43.5714531 1138,38.9643047 1138,33.2857265 C1138,27.6071483 1142.60715,23 1148.28573,23 C1153.9643,23 1158.57145,27.6071483 1158.57145,33.2857265 Z" id=""></path>
            </g>
        </g>
    </g>
</svg>