<?xml version="1.0" encoding="UTF-8"?>
<svg width="32px" height="30px" viewBox="0 0 32 30" version="1.1" xmlns="http://www.w3.org/2000/svg" xmlns:xlink="http://www.w3.org/1999/xlink">
    <!-- Generator: Sketch 47.1 (45422) - http://www.bohemiancoding.com/sketch -->
    <title>Group</title>
    <desc>Created with Sketch.</desc>
    <defs></defs>
    <g id="Symbols" stroke="none" stroke-width="1" fill="none" fill-rule="evenodd">
        <g id="Header/Home" transform="translate(-10.000000, -15.000000)" fill="#FFFFFF">
            <g id="Group" transform="translate(10.000000, 15.000000)">
                <path d="M32,1.5 L32,2.5 C32,3.325 31.1254032,4 30.0564516,4 L2.84677422,4 C1.77782261,4 0.903225836,3.325 0.903225836,2.5 L0.903225836,1.5 C0.903225836,0.675 1.77782261,0 2.84677422,0 L30.0564516,0 C31.1254032,0 32,0.675 32,1.5 Z M31.6129043,27.5 L31.6129043,28.5 C31.6129043,29.325 30.7237913,30 29.6370977,30 L1.97580652,30 C0.889112932,30 0,29.325 0,28.5 L0,27.5 C0,26.675 0.889112932,26 1.97580652,26 L29.6370977,26 C30.7237913,26 31.6129043,26.675 31.6129043,27.5 Z M31.6129043,14.5 L31.6129043,15.5 C31.6129043,16.325 30.7237913,17 29.6370977,17 L1.97580652,17 C0.889112932,17 0,16.325 0,15.5 L0,14.5 C0,13.675 0.889112932,13 1.97580652,13 L29.6370977,13 C30.7237913,13 31.6129043,13.675 31.6129043,14.5 Z" id="Combined-Shape"></path>
            </g>
        </g>
    </g>
</svg>