<?xml version="1.0" encoding="UTF-8"?>
<svg width="300px" height="259px" viewBox="0 0 300 259" version="1.1" xmlns="http://www.w3.org/2000/svg" xmlns:xlink="http://www.w3.org/1999/xlink">
    <defs></defs>
    <g id="icon_toggle--left-copy" stroke="none" stroke-width="1" fill="#1199ff" fill-rule="evenodd" transform="translate(0.000000, -18.000000)">
        <path d="M0,259.741071 L0,34.7410714 C0,30.0535714 1.33928571,26.0357143 4.6875,22.6875 C8.03571429,19.3392857 12.0535714,18 16.7410714,18 L32.8125,18 C37.5,18 41.5178571,19.3392857 44.8660714,22.6875 C48.2142857,26.0357143 49.5535714,30.0535714 49.5535714,34.7410714 L49.5535714,259.741071 C49.5535714,264.428571 48.2142857,268.446429 44.8660714,271.794643 C41.5178571,275.142857 37.5,276.482143 32.8125,276.482143 L16.7410714,276.482143 C12.0535714,276.482143 8.03571429,275.142857 4.6875,271.794643 C1.33928571,268.446429 0,264.428571 0,259.741071 Z M283.258929,103.044643 C287.946429,103.044643 291.964286,104.383929 295.3125,107.732143 C298.660714,111.080357 300,115.098214 300,119.785714 L300,173.357143 C300,178.044643 298.660714,182.0625 295.3125,185.410714 C291.964286,188.758929 287.946429,190.098214 283.258929,190.098214 L192.1875,190.098214 L192.1875,249.026786 C192.1875,255.053571 189.508929,259.071429 184.151786,261.080357 C178.794643,263.089286 174.107143,262.419643 170.089286,258.401786 L68.3035714,156.616071 C65.625,153.9375 64.2857143,150.589286 64.2857143,147.241071 C64.2857143,143.892857 65.625,140.544643 68.3035714,137.866071 L170.089286,36.0803571 C174.107143,32.0625 178.794643,31.3928571 184.821429,33.4017857 C190.178571,35.4107143 192.857143,39.4285714 192.857143,45.4553571 L192.857143,104.383929 L283.928571,104.383929 L283.258929,103.044643 Z"></path>
    </g>
</svg>