<?xml version="1.0" encoding="UTF-8"?>
<svg width="400px" height="400px" viewBox="0 0 400 400" version="1.1" xmlns="http://www.w3.org/2000/svg" xmlns:xlink="http://www.w3.org/1999/xlink">
    <defs></defs>
    <g id="list-img__Ideas" stroke="none" stroke-width="1" fill="#7C828F" fill-rule="evenodd">
        <g id="img_list-earningsbulls">
            <g transform="translate(56.000000, 56.000000)">
                <path d="M201,201.987559 C201,201.987559 198.474504,195.541437 194.613435,193.811611 C190.75145,192.082755 186,193.653561 186,193.653561 C186,193.653561 186.370992,200.570924 188.895573,201.357297 C191.421985,202.1427 201,201.987559 201,201.987559" id="Fill-1"></path>
                <path d="M250.69884,160.473784 C250.585417,159.983471 250.437876,159.491261 250.253448,159 C247.977618,167.690015 240.789572,172.194825 236,174.999187 L238.486077,180 C241.28107,178.813575 244.149834,176.674976 246.460705,173.971142 C248.146369,172.001355 249.505597,169.758434 250.282957,167.403604 C251.023432,165.164476 251.239211,162.803008 250.69884,160.473784" id="Fill-3"></path>
                <path d="M107,26 L107,32 C100.203587,31.5413164 97,30.6410785 97,29.2250595 C97,27.6234734 100.203587,26.5785884 107,26 L107,26 Z M128,39 C136.160828,39.4695955 140,40.4966527 140,42.1993026 C140,43.2048815 138.523395,44.0845188 135.606866,44.8108787 C133.612039,45.3244073 131.06419,45.720781 128,46 L128,39 Z M81.5519457,36.5047308 C86.9450196,37.3962154 95.2555516,38.0634272 106.880828,38.5334657 L106.880828,46.1391193 C98.5712246,45.9354047 92.4114245,45.3251957 88.110889,44.2720477 C87.4926812,43.885177 87.1640843,43.4497138 87.1278829,42.987151 L87.0916815,41.6732858 C87.0545519,41.4976054 86.6897537,41.3294008 85.9972867,41.2088541 L84.8676187,41.0060741 C84.2484827,40.9004789 83.4826848,40.8444107 82.6454124,40.8444107 L77.1418779,40.8444107 C76.3398786,40.8444107 75.5740807,40.9004789 74.9549447,41.0060741 L73.934809,41.1817545 C73.2432703,41.3004322 72.8422706,41.4705058 72.8422706,41.6452517 C72.7327383,43.83565 72.112674,45.6410466 70.9458765,47.0165868 C70.8734738,47.136199 70.9458765,47.263287 71.2011424,47.3754234 L71.7478758,47.6071721 C72.112674,47.7473426 72.6956087,47.8669548 73.4604784,47.923023 C84.3942164,48.8219834 95.6184934,49.3125803 106.880828,49.3976171 L106.880828,52.1711249 C106.880828,52.3262469 107.171367,52.4804345 107.718101,52.592571 L108.666762,52.79722 C109.285898,52.9299147 110.1603,53 111.108033,53 L118.068904,53 C118.979507,53 119.854838,52.9299147 120.473974,52.8037612 L121.457908,52.6075225 C122.004641,52.4879103 122.33231,52.3337227 122.33231,52.1711249 L122.33231,49.2079196 C133.666119,48.8070319 142.887255,47.8379862 149.738593,46.3362925 C157.209996,44.7131176 161,42.6488728 161,40.205233 C161,37.8036444 156.84427,35.9711482 148.645127,34.7563369 C142.631989,33.8994276 134.031846,33.2957598 122.33231,32.9229062 L122.33231,26.1965892 C128.747376,26.3582525 133.411782,26.8217498 136.291182,27.5861465 C136.473117,27.6992174 136.836987,28.0150683 136.836987,28.7383483 C136.836987,29.0046724 136.911246,29.4476113 137.128454,30.0793132 C137.201785,30.2335008 137.566583,30.3820815 138.149518,30.494218 L139.133452,30.6689639 C139.752588,30.7811003 140.554588,30.8455788 141.392788,30.8455788 L147.005855,30.8455788 C147.806926,30.8455788 148.607997,30.7885761 149.19186,30.6839154 L150.249125,30.5007593 C150.868261,30.3951641 151.268333,30.2335008 151.305462,30.0652961 L151.742663,28.5626679 C152.216994,26.9899544 152.872331,25.872328 153.638129,25.2481019 C153.820064,25.1079313 153.746733,24.9677608 153.419993,24.8341315 L152.763727,24.5603317 C152.43513,24.4267025 151.888397,24.3211073 151.19593,24.2584978 C143.214923,23.5212008 133.520386,23.0782619 122.33231,22.9380913 L122.33231,21.8073823 C122.33231,21.6242261 121.932238,21.4494802 121.20357,21.329868 L120.110104,21.1476463 C119.490039,21.0485925 118.761371,21 117.9603,21 L111.108033,21 C110.1603,21 109.285898,21.077561 108.666762,21.2102558 L107.718101,21.4064946 C107.171367,21.5270412 106.880828,21.6737531 106.880828,21.8279407 L106.880828,23.0633104 C100.138094,23.2819764 94.1973581,23.7034225 89.2043556,24.3136316 C76.4494109,25.8872795 70,28.2327999 70,31.2941245 C70,33.4714403 73.8624063,35.2263754 81.5519457,36.5047308 L81.5519457,36.5047308 Z" id="Fill-5" opacity="0.8"></path>
                <path d="M222.386565,193.811613 C218.52458,195.540474 216,201.987581 216,201.987581 C216,201.987581 225.578015,202.142722 228.103511,201.356348 C230.629924,200.570943 231,193.653563 231,193.653563 C231,193.653563 226.24855,192.082753 222.386565,193.811613" id="Fill-7"></path>
                <path d="M241.60903,192.821797 C238.397226,205.712144 232.875404,217.151666 225.917574,227.69266 L232.836517,235.209477 L234.099389,236.580474 L233.840148,238.432296 C233.30315,242.298379 232.166196,245.602882 230.487614,248.394073 C228.759035,251.265092 226.474941,253.571747 223.695513,255.364162 L222.712251,256 L221.564186,256 L193.914338,256 L192.768125,256 L191.783937,255.364162 C189.004509,253.571747 186.720415,251.265092 184.992762,248.394073 C183.313254,245.602882 182.177225,242.298379 181.640227,238.432296 L181.381913,236.580474 L182.642932,235.209477 L189.28134,227.998048 C182.169819,217.284403 176.535042,205.642527 173.305646,192.493203 C165.129387,194.180727 154.85328,192.667711 149,180.593279 C153.877424,178.44071 158.765959,177.94782 163.21934,178.253208 C163.125828,178.149246 163.034168,178.045284 162.941582,177.941322 C160.769518,175.462944 158.995572,172.581715 157.9475,169.489776 C156.860542,166.283666 156.553156,162.863134 157.367912,159.430534 C158.226183,155.821571 160.305662,152.257163 163.999839,149 L168.902262,151.54521 C167.750493,162.438932 176.548004,167.436529 181.446723,170.21751 C182.124452,170.603654 182.734593,170.950812 183.360473,171.337885 L185.680675,172.772002 L185.472357,173.179496 L227.527643,173.179496 L227.319325,172.772002 L229.637675,171.337885 C230.263556,170.950812 230.874623,170.603654 231.553277,170.21751 C236.45107,167.436529 245.250433,162.43986 244.097738,151.54521 L248.999235,149 C252.693412,152.257163 254.772891,155.821571 255.631162,159.430534 C256.445918,162.863134 256.138533,166.283666 255.0525,169.489776 C254.003502,172.581715 252.230482,175.462944 250.057492,177.941322 C249.964906,178.045284 249.873246,178.149246 249.778808,178.253208 C254.232189,177.94782 259.12165,178.44071 264,180.593279 C258.594836,191.741336 249.420501,193.886478 241.60903,192.821797 M256.628581,136.246804 C243.043631,125.48343 226.672882,119.531394 209.290378,119.033381 C165.206294,117.768411 128.300932,152.612584 127.034154,196.706619 C126.302464,222.188715 137.356638,245.897628 157.370999,261.753341 C170.955021,272.515787 187.325771,278.467823 204.709202,278.966763 C248.79514,280.228951 285.700502,245.384778 286.966354,201.293526 C287.692479,175.806792 276.636451,152.097879 256.628581,136.246804" id="Fill-9" opacity="0.8"></path>
                <path d="M293.963063,201.003811 C292.578772,249.23229 252.216138,287.34249 203.988762,285.963738 C184.981911,285.416879 167.078965,278.908425 152.213848,267.132859 C130.327931,249.794004 118.237895,223.863247 119.037275,195.995737 C120.424352,147.764473 160.782343,109.648702 209.011576,111.036739 C228.019355,111.58267 245.922301,118.090195 260.787418,129.867618 C282.667765,147.201831 294.758729,173.128874 293.963063,201.003811 M209.95077,96.0431057 C153.089056,94.4135567 105.671741,139.188019 104.043108,196.049233 C102.413545,252.910447 147.18654,300.327345 204.049184,301.956894 C260.911827,303.586443 308.327282,258.811981 309.956845,201.950767 C311.587339,145.088623 266.812483,97.6726547 209.95077,96.0431057" id="Fill-11"></path>
                <path d="M219.263293,242.26589 C217.508956,244.315539 212.250736,245 212.250736,245 C212.250736,245 211.022413,242.351798 214.003157,238.932293 C216.982943,235.514655 219.087955,236.027301 219.087955,236.027301 C219.087955,236.027301 221.01763,240.215307 219.263293,242.26589 L219.263293,242.26589 Z M204.749589,245 C204.749589,245 199.490492,244.315539 197.73714,242.26589 C195.98283,240.215307 197.910559,236.027301 197.910559,236.027301 C197.910559,236.027301 200.016497,235.514655 202.997196,238.932293 C205.976936,242.351798 204.749589,245 204.749589,245 L204.749589,245 Z M194.780148,234 L190,239.141617 C190.434137,241.108613 191.103896,242.809599 191.988868,244.266667 C192.8859,245.743984 194.023191,246.981986 195.376623,248 L220.624304,248 C221.977737,246.981986 223.1141,245.743984 224.010204,244.266667 C224.896104,242.809599 225.56679,241.108613 226,239.141617 L221.219852,234 L194.780148,234 Z" id="Fill-13"></path>
                <path d="M75,252 C71.9207207,251.635507 68.9243243,251.225115 66,250.776024 L66,237 C67.3954955,237.193496 68.7234234,237.416692 70.1540541,237.594888 C71.6774775,237.799184 73.2792793,237.99088 75,238.177176 L75,252 Z M53,252 C49.8354519,251.286672 46.8501651,250.507139 44,249.679119 L44,236 C46.884396,236.710531 49.8804924,237.375372 53,237.991724 L53,252 Z M30,245 C25.5432432,242.988155 22.6666667,241.042825 21,239.342597 L21,229 C21.454955,229.202278 21.918018,229.400911 22.381982,229.599544 C23.0864865,229.900228 23.7504505,230.219134 24.4756757,230.507973 C26.2531532,231.218679 28.1072072,231.88656 30,232.527107 L30,245 Z M98.2038034,254.034618 C95.055744,253.882033 91.9589255,253.689683 88.8965782,253.459418 L88.8965782,239.145991 C91.87135,239.36146 94.8582333,239.546412 97.9401453,239.696223 C96.149506,234.886549 94.6504744,229.942786 93.5073347,224.865856 C92.0996053,224.786327 90.6956024,224.71882 89.2785564,224.608773 C87.5102768,224.477457 85.78299,224.343367 83.961606,224.169512 C80.5228705,223.864342 77.1745054,223.496288 73.8857661,223.092168 C60.1513203,221.394309 48.3901179,218.988085 38.9533928,215.947476 C37.2661671,215.400019 35.6450888,214.810022 34.0556868,214.191358 C31.1545157,213.421958 28.3381251,212.621117 25.6829107,211.766639 C14.5589598,208.192444 6.44984186,204.154019 0.529179572,200 C0.263658132,200.976546 0.11832008,201.892983 0.0652157924,202.723417 C0.0232913544,203.028587 0,203.323585 0,203.581593 L0,232.84838 C0,233.238628 0.0428560921,233.621479 0.122046697,233.997856 C0.873891618,240.894711 7.10945302,250.380894 31.3538897,258.171067 C52.3086554,264.913488 82.3302796,268.830769 114,269 C107.461651,260.313735 102.115819,250.710108 98.2038034,240.421235 L98.2038034,254.034618 Z" id="Fill-15"></path>
                <path d="M21,172 C21.454955,172.203166 21.918018,172.401777 22.381982,172.599476 C23.0855856,172.900125 23.7504505,173.218996 24.4747748,173.507801 C26.2531532,174.219337 28.1072072,174.887143 30,175.527616 L30,188 C25.5432432,185.988384 22.6666667,184.042364 21,182.34233 L21,172 Z M44,180 C46.8834951,180.710531 49.8804924,181.375372 53,181.992657 L53,196 C49.8354519,195.287604 46.8492643,194.508072 44,193.679119 L44,180 Z M66,180 C67.3945946,180.207343 68.7234234,180.445404 70.1540541,180.635469 C71.6774775,180.853372 73.2792793,181.057835 75,181.256539 L75,196 C71.9207207,195.610271 68.9243243,195.173506 66,194.693545 L66,180 Z M31.3905744,201.853492 C47.2780069,207.018902 68.4046637,210.516149 91.4788905,212 C90.9677467,207.143336 90.7420226,202.20621 90.8436917,197.201722 C90.229946,197.162427 89.6068729,197.132488 89.0005891,197.086644 L89.0005891,182.604597 C89.9939617,182.677573 91.0153166,182.728095 92.0161512,182.792651 C92.7166421,177.862075 93.6969563,173.001668 95,168.243241 C93.1317133,168.131905 91.2652921,168.045831 89.3830142,167.898007 C87.6126657,167.765153 85.8833579,167.628556 84.0598429,167.4536 C80.6170839,167.144854 77.2648012,166.771553 73.972214,166.362698 C60.2207658,164.645885 48.4458027,162.210536 38.9989691,159.134305 C37.3097693,158.582305 35.6867943,157.984461 34.0955326,157.358549 C31.1900344,156.580136 28.3712813,155.769912 25.7120275,154.905424 C14.5759941,151.289356 6.45738832,147.202685 0.529798724,143 C0.263966618,143.988922 0.118458517,144.916095 0.0652920962,145.757193 C0.0233186058,146.065003 2.84217094e-14,146.362522 2.84217094e-14,146.623553 L2.84217094e-14,176.234142 C2.84217094e-14,176.628963 0.0429062347,177.016298 0.122189494,177.396149 C0.873981345,184.373803 7.11777123,193.97299 31.3905744,201.853492 L31.3905744,201.853492 Z" id="Fill-18"></path>
                <path d="M21,115 C21.454955,115.203166 21.918018,115.401777 22.381982,115.600387 C23.0855856,115.900125 23.7504505,116.218996 24.4747748,116.508712 C26.2531532,117.219337 28.1072072,117.887143 30,118.527616 L30,131 C25.5432432,128.988384 22.6666667,127.043275 21,125.343241 L21,115 Z M44,122 C46.8834951,122.71049 49.8804924,123.375291 53,123.992541 L53,138 C49.8354519,137.286713 46.8492643,136.507226 44,135.678322 L44,122 Z M66,123 C67.3945946,123.207356 68.7234234,123.445431 70.1540541,123.634547 C71.6774775,123.852463 73.2792793,124.056939 75,124.255655 L75,139 C71.9207207,138.611208 68.9243243,138.173457 66,137.693466 L66,123 Z M89,125 C91.9603604,125.22452 94.9279279,125.416434 98,125.570151 L98,140 C94.9558559,139.847214 91.9612613,139.652506 89,139.421465 L89,125 Z M31.3386693,144.423975 C48.9979824,150.165379 73.1077312,153.873758 99.2074585,155 C102.418243,147.044401 106.479214,139.445539 111.384786,132.349096 L111.384786,126.13142 C112.924994,126.150098 114.497794,126.178114 115.984923,126.179981 C119.069064,122.288564 122.398111,118.557772 126,115.036166 C122.7231,115.126751 119.43782,115.187452 116.153471,115.187452 C111.121256,115.187452 105.741702,115.072587 99.8220517,114.848459 C96.2816221,114.679429 92.7821653,114.475847 89.2352172,114.195687 C87.4677959,114.064012 85.7413476,113.927668 83.9208478,113.752101 C80.4837816,113.444859 77.1370419,113.072247 73.8498991,112.665082 C60.1211893,110.950505 48.3656963,108.519654 38.9344833,105.449104 C37.2480766,104.896256 35.6277853,104.301384 34.0391548,103.676628 C31.1384609,102.899652 28.3243687,102.089991 25.669512,101.228033 C14.2464581,97.5196536 5.9783163,93.3172595 0.022348846,89 C0.0176928364,89.097122 2.84217094e-14,89.2073181 2.84217094e-14,89.2969692 L2.84217094e-14,118.852874 C2.84217094e-14,119.246965 0.0428352881,119.632651 0.121987451,120.012735 C0.872536195,126.976568 7.10600182,136.558027 31.3386693,144.423975 L31.3386693,144.423975 Z" id="Fill-21"></path>
                <path d="M19.0195025,36.8636182 C19.1393032,33.8659928 25.6633385,27.2993254 49.3467472,21.7007376 C67.6725532,17.3772039 91.1451496,15 115.44335,15 C145.291392,15 173.327562,18.5218862 192.387032,24.6798706 C206.832778,29.3048312 211.980498,34.1877614 212,36.9949146 C212,37.2759997 211.941493,37.5117784 211.846766,37.7678988 C211.817977,37.8520394 211.804047,37.9195368 211.762256,38.0221699 C211.685175,38.2311346 211.593235,38.4548931 211.403782,38.7877572 C211.279338,39.0013449 211.113103,39.1982894 210.876287,39.5135856 C210.47788,40.0600374 209.999605,40.5519365 209.37367,41.0623279 L209.375527,41.0623279 C209.240867,41.172358 209.108065,41.2851619 208.981763,41.4062874 C208.654865,41.6605586 208.292676,41.9305483 207.860836,42.2356736 C207.466144,42.518608 207.038947,42.7913716 206.363791,43.213924 C206.322,43.2388888 206.263492,43.2777229 206.204985,43.3128586 C206.152979,43.3442957 206.100972,43.380356 206.048037,43.4117931 C206.037821,43.4182655 206.028534,43.4256625 206.01739,43.4321348 C205.738784,43.5994915 205.491752,43.7613004 205.185285,43.9342047 C204.889034,44.0978629 204.564922,44.2707672 204.216663,44.4510686 C204.081075,44.5241137 203.929699,44.5990081 203.790396,44.6729779 L203.268473,44.9355706 C202.520879,45.3192889 201.808575,45.6604745 201.091627,45.98964 C200.222375,46.378906 199.360552,46.768172 198.349211,47.1685334 C195.721023,48.2521907 192.787297,49.2618782 189.444948,50.2207115 C187.017356,50.9261983 184.429102,51.6353836 181.767481,52.2530313 L178.442777,53.0250909 L178.053657,53.1120054 C175.744938,53.5863366 173.363781,54.0606678 170.935261,54.5063358 C170.81546,54.5248282 170.696588,54.542396 170.576788,54.5636623 C166.871321,55.2164457 162.868675,55.8248471 158.507555,56.3990376 C157.272399,56.5793389 156.033529,56.7319016 154.627495,56.8668964 C151.886936,57.1637002 149.152877,57.4558808 146.451323,57.6870364 C146.312949,57.6990565 146.186647,57.7120012 146.047344,57.7240213 C143.52224,57.9246643 141.037071,58.1253073 138.565831,58.2917393 C131.023025,58.7632967 123.297267,59 115.60587,59 C110.587239,59 105.221278,58.8862715 99.3185353,58.6634375 C95.7867337,58.4970055 92.2967231,58.2954378 88.7602781,58.0189758 C86.9966991,57.8867548 85.2758397,57.7526846 83.4602541,57.5788556 C80.0315369,57.2746548 76.6947599,56.9066552 73.4155615,56.5016706 C59.7248388,54.8040641 48.0010779,52.3991216 38.5943942,49.358039 C34.948364,48.1726732 31.5540083,46.8273478 28.3175296,45.282304 C28.2441632,45.2462437 28.1707968,45.2074096 28.0955731,45.1722739 C27.3089741,44.8088974 26.5483784,44.4076113 25.6494081,43.8833505 C25.3466558,43.7196924 25.0466894,43.531994 24.5349822,43.2240948 C23.9554807,42.8699645 23.4289144,42.526005 22.935781,42.1321159 C22.7435425,41.9804779 22.6023819,41.8778448 22.3971418,41.7363776 L21.9021509,41.3184483 C21.6421182,41.0882174 21.3718699,40.8570618 21.2065634,40.7331624 C20.5666971,40.1423288 20.0884227,39.5755353 19.7234482,39.0263097 C19.6900154,38.9754555 19.6426523,38.922752 19.6110769,38.8718978 C19.286036,38.3504108 19.1086565,37.8538887 19.0390049,37.375859 C19.0278606,37.2944922 19.0046434,37.2122008 19,37.1336079 C19.0074295,37.0429949 19.0157877,36.9533066 19.0195025,36.8636182 L19.0195025,36.8636182 Z M210,68.3033887 C208.379279,69.9808961 205.542342,71.949511 201,74 L201,61.4805549 C203.291892,60.7173073 205.5,59.9258585 207.478378,59.096202 C207.490991,59.0907437 207.504505,59.0843757 207.516216,59.0789174 C208.395495,58.7277689 209.178378,58.362065 210,58 L210,68.3033887 Z M187,79.7281985 C185.202703,80.2460494 183.325225,80.761091 181.269369,81.2648952 C180.215315,81.5252253 179.088288,81.7546529 178,82 L178,67.9571579 C179.643243,67.6256584 181.284685,67.3044598 182.943243,66.9495493 L186.788288,66.0561864 C186.859459,66.038394 186.928829,66.0177923 187,66 L187,79.7281985 Z M165,83.7792692 C162.076869,84.22982 159.069963,84.6343225 156,85 L156,71.140372 C156.456711,71.0880034 156.952157,71.0410522 157.390852,70.9868777 C158.968171,70.8324806 160.541888,70.6374526 161.870584,70.4415217 C161.908418,70.4352013 161.95526,70.4315897 161.993094,70.4261723 C163.017316,70.2907362 163.995596,70.1408535 165,70 L165,83.7792692 Z M142,86.4182361 C139.037838,86.6513146 136.036036,86.8461682 133,87 L133,72.4820063 C135.175676,72.3813164 137.376577,72.3076636 139.515315,72.1678165 C139.562162,72.1650196 139.60991,72.1612903 139.657658,72.1575611 L139.678378,72.1575611 C139.690991,72.1566288 139.703604,72.1556964 139.715315,72.1547641 C140.482883,72.1109454 141.23964,72.0531419 142,72 L142,86.4182361 Z M120,86.9462881 C118.510811,86.9641921 117.028829,87 115.531532,87 C114.008108,87 112.513514,86.9525545 111,86.9337554 L111,73.0187992 C112.544144,73.0367031 114.128829,73.068035 115.613514,73.068035 C117.077477,73.068035 118.535135,73.0170088 120,73 L120,86.9462881 Z M97,87 C93.9558559,86.847205 90.9612613,86.6534161 88,86.4204969 L88,72 C90.9603604,72.2245342 93.9279279,72.415528 97,72.5692547 L97,87 Z M75,85 C71.9216216,84.6346073 68.9243243,84.2242155 66,83.7751245 L66,70 C67.3954955,70.1934961 68.7243243,70.4166917 70.154955,70.5948881 C71.6783784,70.7973841 73.2792793,70.9899802 75,71.1762765 L75,85 Z M53,82 C49.8351351,81.2866717 46.8495495,80.5062067 44,79.6791188 L44,66 C46.8837838,66.7105309 49.8801802,67.3744391 53,67.9917245 L53,82 Z M30,74 C25.5432432,71.9873584 22.6657658,70.0421388 21,68.3420079 L21,58 C21.4540541,58.2022664 21.9171171,58.4008883 22.381982,58.5995103 C23.0855856,58.9001765 23.7495495,59.2181539 24.4747748,59.5078868 C26.2531532,60.2185525 28.1063063,60.886396 30,61.5278173 L30,74 Z M31.1939956,91.1499401 C52.5072046,98.0465331 83.2479446,102 115.532905,102 C124.71388,102 133.778065,101.64379 142.586425,101.018341 C161.502662,88.504735 183.671403,81.7617285 206.786511,81.7617285 L206.791146,81.7617285 L206.793,81.7617285 C207.921041,81.7617285 209.048155,81.7774573 210.182684,81.80984 C213.178435,81.8958855 216.145452,82.1271906 219.096711,82.4343638 C227.521333,76.9135735 230.184325,71.4038859 230.772909,67.3921302 C230.920286,66.8851094 231,66.3568085 231,65.8146294 L231,36.5332535 C231,36.5175248 230.994439,36.5027212 230.994439,36.4879177 C230.994439,36.4647872 231,36.4453576 231,36.4222271 C230.951801,29.3174595 225.485854,19.1095026 199.761513,10.846359 C178.468696,3.95346686 147.740006,0 115.455045,0 C89.3191596,0 63.862694,2.61282247 43.7655818,7.36475454 C6.88596284,16.1053119 0.498673846,28.7317949 0.0648832142,35.674649 C0.0231725765,35.9799717 -2.84217094e-14,36.2741918 -2.84217094e-14,36.5332535 L-2.84217094e-14,65.8146294 C-2.84217094e-14,66.2050724 0.0417106377,66.5881136 0.120497398,66.9637531 C0.868508168,73.8631218 7.07227035,83.3558833 31.1939956,91.1499401 L31.1939956,91.1499401 Z" id="Fill-24"></path>
                <path d="M163.746809,159 C163.562385,159.491261 163.413924,159.983471 163.300503,160.473784 C162.761064,162.803008 162.97684,165.164476 163.716379,167.402655 C164.494647,169.758434 165.852928,172.001355 167.537639,173.971142 C169.849391,176.674976 172.718103,178.813575 175.513045,180 L178,174.999187 C173.210515,172.194825 166.022598,167.690015 163.746809,159" id="Fill-26"></path>
            </g>
        </g>
    </g>
</svg>