<?xml version="1.0" encoding="UTF-8"?>
<svg width="400px" height="400px" viewBox="0 0 400 400" version="1.1" xmlns="http://www.w3.org/2000/svg" xmlns:xlink="http://www.w3.org/1999/xlink">
    <defs></defs>
    <g id="list-img__Ideas" stroke="none" stroke-width="1" fill="#B5B8BF" fill-rule="evenodd">
        <g id="img_list-analystdarlings">
            <g transform="translate(32.000000, 28.000000)">
                <path d="M195.104,194 L195,194.977 C195.275,194.798 195.554,194.625 195.832,194.451 L195.104,194 Z" id="Fill-1"></path>
                <path d="M155.394993,305.833633 L148.349764,264.999317 L152.655793,262.183599 C156.555437,259.628936 158.15896,254.715628 156.516908,250.361982 L150.712851,234.999193 C149.250599,231.1301 145.543598,228.569024 141.399939,228.569024 L140.103728,228.569024 L138.808433,228.569024 C134.665692,228.569024 130.957773,231.1301 129.497356,234.999193 L123.691464,250.361982 C122.049412,254.715628 123.652935,259.628936 127.552579,262.183599 L131.650371,264.863752 L124.627158,305.513041 L89.5587991,240.577501 L84.5876931,194 L28.9441475,228.525057 C23.5382188,231.880286 19.6257318,237.176473 18.0093656,243.330932 L5.42101086e-20,312 L123.505242,312 L128.129591,312 L139.886316,312 L140.085381,312 L152.065021,312 L156.458198,312 L191,312 C182.076044,300.326771 175.54453,288.299059 171.468755,276.06342 L155.394993,305.833633 Z" id="Fill-3" opacity="0.8"></path>
                <path d="M74.2417985,83 L77.1551987,97.6946362 C77.1746029,110.775945 78.5079479,122.867672 81,133.735685 C80.6525726,133.888421 80.2644889,134 79.868089,134 C77.8482055,134 75.017042,130.481592 73.1024955,120.604989 C68.6460003,97.5400714 68.9601633,86.0821512 74.2417985,83 L74.2417985,83 Z M83.9775848,82.1240476 C86.4188664,38.8671004 99.6800477,35 113.735745,35 C120.927629,35 139.050296,40.348741 139.050296,40.348741 L139.21983,40.348741 C139.21983,40.348741 157.342497,35 164.534381,35 C178.590079,35 191.780697,38.8671004 194.221979,82.1240476 C194.400676,85.2787151 194.656351,88.5725726 194.948682,91.8188124 C194.981672,93.6832255 195,95.5796889 195,97.5265171 C195,109.099431 193.956224,119.858266 191.991469,129.624458 C191.87417,130.199532 191.756871,130.775522 191.632241,131.345102 C188.536652,145.74577 183.395665,157.910241 176.583169,167.228644 L173.866968,170.459316 C165.452611,180.464511 155.058836,186.357192 143.570883,187.707884 C143.493906,187.716126 143.417845,187.727114 143.340867,187.735356 C142.677396,187.80953 142.010259,187.861726 141.339456,187.90568 C141.00772,187.927658 140.675068,187.943225 140.3415,187.956961 C140.009764,187.970697 139.678028,187.977107 139.346293,187.984433 C139.042049,187.990843 138.738721,188 138.432645,188 C138.066086,188 137.704109,187.989927 137.3403,187.981686 C137.110284,187.976191 136.879352,187.971613 136.650253,187.963371 C136.277279,187.948719 135.906138,187.928574 135.534997,187.906596 C134.92651,187.866304 134.319855,187.823265 133.717782,187.759165 C133.651802,187.751839 133.585821,187.741766 133.518924,187.735356 C122.592722,186.510118 112.613159,181.169618 104.419653,172.105787 L101.661298,169.049102 C94.9138668,160.47793 89.6821562,149.254823 86.2942364,135.912731 L86.3473875,135.866029 L85.986327,134.378894 C83.7136624,125.112688 82.383054,114.946325 82,104.091339 C82.743198,97.6043536 83.5633733,89.4837175 83.9775848,82.1240476 L83.9775848,82.1240476 Z M173,187.21849 C173,192.848687 170.457116,198.104203 166.036535,201.658684 L150.597399,214.040399 C143.955564,219.356698 133.70636,219.313151 127.059956,213.94877 L111.854732,201.605158 C107.49994,198.115996 105,192.892234 105,187.26748 L105,180.381693 C113.136682,187.626739 122.77552,192.006788 133.566561,192.990213 C133.69174,193.002007 133.81692,193.010172 133.9421,193.020151 C134.440991,193.061883 134.942624,193.097265 135.446084,193.125389 C135.741216,193.140811 136.036347,193.157141 136.332393,193.168028 C136.68052,193.180729 137.031389,193.186172 137.382258,193.191616 C137.670993,193.197059 137.957902,193.211574 138.247551,193.211574 C138.478722,193.211574 138.707153,193.198873 138.938324,193.195244 C139.391529,193.188894 139.842907,193.179822 140.291544,193.163492 C140.552868,193.152605 140.813279,193.138997 141.074603,193.124481 C153.298357,192.464934 164.103103,187.506079 173,179 L173,187.21849 Z M196.021811,134.004945 C197.976227,125.520747 199.167274,116.325927 199.603485,106.595379 L204.173273,84 C209.085393,87.5374605 209.238067,99.0629727 204.806728,121.512914 C202.84188,131.453335 199.930644,135 197.857691,135 C197.18915,135 196.509229,134.697157 196,134.373143 L196.021811,134.004945 Z M79.7773445,139.708244 C80.624233,139.708244 81.4006998,139.549354 82.1113178,139.316989 C86.0741338,154.143381 92.2675771,166.457837 100.260887,175.59908 L100.260887,187.695866 C100.260887,194.926752 103.446321,201.646066 108.990423,206.13816 L124.197832,218.622528 C128.447822,222.096072 133.785231,224 139.236961,224 C144.627415,224 149.904462,222.133728 154.099578,218.732741 L169.558493,206.193267 C175.173016,201.639637 178.396862,194.881748 178.396862,187.64627 L178.396862,173.824652 C185.717051,164.828523 191.413885,153.050436 195.124281,139.039619 C196.015068,139.424446 197.056759,139.708244 198.2146,139.708244 C203.72029,139.708244 207.63189,133.805424 209.860688,122.14398 C214.24329,99.1627501 215.119445,82.9091005 205.327183,78.5446691 L207.823034,65.7783398 C209.396088,57.7318786 208.909539,49.5246902 206.364301,41.7298819 C203.031621,31.5599852 197.62379,18.4428114 190.954773,14.6138311 C153.564557,-6.10435995 122.051345,-3.59793458 87.62158,14.6138311 C81.2086409,18.7008934 75.8172723,31.5260029 72.4251457,41.5590518 C69.7591848,49.4319277 69.2186761,57.9008718 70.8136798,66.0584643 L73.2098436,78.3251617 C62.8578672,82.3424224 63.6736604,98.7613914 68.1367441,122.14398 C70.3655423,133.805424 74.2817154,139.708244 79.7773445,139.708244 L79.7773445,139.708244 Z" id="Fill-6"></path>
                <path d="M96,101.209543 C96,97.7933127 98.8645864,95 102.369212,95 L123.613366,95 C127.140915,95 130,97.7933127 130,101.209543 L130,103.790457 C130,107.216504 127.140915,110 123.613366,110 L102.369212,110 C98.8645864,110 96,107.216504 96,103.790457 L96,101.209543 Z M149,101.209543 C149,97.7933127 151.847702,95 155.363994,95 L176.61858,95 C180.134873,95 183,97.7933127 183,101.209543 L183,103.790457 C183,107.216504 180.134873,110 176.61858,110 L155.363994,110 C151.847702,110 149,107.216504 149,103.790457 L149,101.209543 Z M102.610732,115 L123.837694,115 C129.69325,115 134.465835,110.203683 134.465835,104.326376 L134.465835,101.663495 C134.465835,101.057625 134.403532,100.466488 134.305496,99.8873202 L144.700001,99.8873202 C144.601966,100.466488 144.540579,101.057625 144.540579,101.663495 L144.540579,104.326376 C144.540579,110.203683 149.305834,115 155.150395,115 L176.38377,115 C182.227415,115 187,110.203683 187,104.326376 L187,101.663495 C187,95.7843468 182.227415,91 176.38377,91 L155.150395,91 C151.53866,91 148.341972,92.8305007 146.425241,95.6149242 L132.577507,95.6149242 C130.658028,92.8305007 127.455843,91 123.837694,91 L102.610732,91 C96.7661713,91 92,95.7843468 92,101.663495 L92,104.326376 C92,110.203683 96.7661713,115 102.610732,115 L102.610732,115 Z" id="Fill-8" opacity="0.8"></path>
                <path d="M358.939385,246.342422 C357.64719,219.427864 335.419038,198 308.186497,198 C292.40371,198 278.318135,205.200482 269,216.48981 C259.682783,205.200482 245.592616,198 229.814421,198 C202.582799,198 180.353729,219.427864 179.061533,246.342422 L179,246.311195 C179,246.867763 179.00551,247.447292 179.020205,248.046107 C179.014694,248.304186 179,248.557672 179,248.817588 C179,252.144137 179.326034,255.393538 179.93861,258.543749 C181.874607,271.107856 187.532899,288.275129 203.053941,307.631017 L227.622189,275.415288 L232.149924,269.476727 L237.228703,275.699082 C241.014368,280.338985 244.775236,284.991745 248.556308,289.634403 C249.73003,287.476095 250.906506,285.319625 252.10778,283.176012 C254.927283,278.135674 257.778011,273.112786 260.771093,268.163373 C263.698049,263.17906 266.813278,258.293018 269.88075,253.383098 L279.349504,238.789263 L284.794726,230.395741 L290.441079,238.305251 L300.690477,252.665805 C303.029654,256.102565 305.423936,259.502589 307.763113,262.93935 L315.029532,254.902179 C317.715866,251.993515 320.385669,249.072911 323.074758,246.165165 L313.528858,243.844295 L338.793257,230.547282 L332.047573,256.834553 L327.01747,248.928718 C324.758194,252.138626 322.481469,255.334759 320.221274,258.541912 L310.680885,271.781983 L307.92016,275.613668 L304.050002,271.649729 C299.874934,267.370769 295.906506,262.954963 291.826034,258.61355 L286.693988,252.912862 L282.807298,260.152837 C279.990551,265.195011 277.220642,270.259228 274.260623,275.226091 C271.367648,280.228773 268.333238,285.157063 265.264848,290.066065 C262.200131,294.979659 259.038981,299.840903 255.902629,304.715005 L250.238826,313.519064 L244.29491,305.093398 C240.285154,299.406486 236.207437,293.764578 232.138904,288.11624 L209.374403,315.016103 C216.338667,322.663861 224.874321,330.589902 235.341381,338.658299 C241.905221,343.808848 249.213886,348.928171 257.367484,354.039228 C261.069574,356.360097 264.939732,358.67913 269,361 C273.060268,358.67913 276.932263,356.360097 280.628842,354.039228 C286.997061,350.047736 292.834442,346.053489 298.217213,342.039954 C299.730744,340.913961 301.220397,339.78613 302.660456,338.658299 C303.966427,337.650783 305.241173,336.646022 306.48653,335.643097 C334.237969,313.339052 347.454733,292.264784 353.667742,275.362937 C355.008613,271.712182 356.024368,268.257971 356.788481,265.027857 C357.325748,262.754746 357.745459,260.585417 358.062309,258.543749 C358.670293,255.393538 359,252.144137 359,248.817588 C359,248.557672 358.986224,248.304186 358.981632,248.046107 C358.995408,247.447292 359,246.867763 359,246.311195 L358.939385,246.342422 Z" id="Fill-10"></path>
            </g>
        </g>
    </g>
</svg>