<?xml version="1.0" encoding="UTF-8"?>
<svg width="400px" height="400px" viewBox="0 0 400 400" version="1.1" xmlns="http://www.w3.org/2000/svg" xmlns:xlink="http://www.w3.org/1999/xlink">
    <defs></defs>
    <g id="list-img__Ideas" stroke="none" stroke-width="1" fill="#FFFFFF" fill-rule="evenodd">
        <g id="img_list-ideasforyou">
            <g transform="translate(83.000000, 18.000000)">
                <path d="M116.98019,362 C137.559464,362 155.357128,354.556757 167,340 L67,340 C78.6360407,354.547297 96.4104789,362 116.98019,362" id="Fill-1" opacity="0.700634058"></path>
                <path d="M54.0013681,297.107083 C54.0013681,299.439487 54.1504868,301.731256 54.3748489,304 L182.656617,304 C182.883715,301.73532 182.997264,299.435423 182.997264,297.107083 C182.997264,296.745439 182.997264,292.828301 183,287 L54,287 C54.0013681,292.828301 54.0013681,296.745439 54.0013681,297.107083" id="Fill-3" opacity="0.7"></path>
                <path d="M77.0761351,314 L54,314 C55.390789,320.537202 57.6311239,324.825976 60.6538633,330.491737 L61.5828829,332 L172.517144,332 C175.955065,325.930639 178.492741,321.122352 180,314 L156.903311,314 L77.0761351,314 Z" id="Fill-5"></path>
                <path d="M210.850881,114.745111 C208.956593,145.004815 195.99106,166.410688 184.551368,185.295488 C178.601413,195.111811 172.984294,204.386732 169.377887,214.110087 C164.459312,227.362123 161.540492,240.735838 160.046155,252 L72.9540992,252 C71.4611317,240.745408 68.5423117,227.366225 63.623737,214.110087 C60.0159604,204.386732 54.3974716,195.111811 48.4488863,185.295488 C37.0091938,166.410688 24.0422914,145.004815 22.1493729,114.745111 C20.7591325,92.5804553 29.1101628,70.6919693 45.6601873,53.1087202 C63.9908153,33.6278309 90.4738678,22 116.499442,22 C142.520907,22 169.006699,33.6278309 187.340067,53.1087202 C203.890091,70.6919693 212.239752,92.5804553 210.850881,114.745111 M116.999251,0 C53.5179986,0 -3.76577772,53.3379474 0.193911356,116.565768 C3.45111921,168.57968 33.871849,197.600288 43.0864269,222.431084 C49.5253807,239.787311 52.2227988,258.006146 52.3064929,269.352869 C52.3064929,269.571944 52.3078649,271.419021 52.309237,274 L181.687893,274 C181.687893,271.419021 181.692009,269.574682 181.692009,269.355607 C181.775703,258.006146 184.473121,239.787311 190.912075,222.431084 C200.128025,197.600288 230.547382,168.57968 233.805962,116.565768 C237.767023,53.3379474 180.481875,0 116.999251,0" id="Fill-7"></path>
                <path d="M65.7342937,118.296768 C61.7032983,98.2665856 74.6736589,78.7633691 94.7054474,74.7337903 C114.73313,70.7042114 134.235208,83.6757871 138.266204,103.703232 C142.29583,123.734783 129.324101,143.236631 109.29505,147.26621 C89.265999,151.295789 69.7625515,138.324213 65.7342937,118.296768 M106.518387,160.856224 L107.552615,165.997249 C107.683946,166.651164 108.321446,167.076619 108.973995,166.94392 L116.435211,165.444569 C117.089127,165.31187 117.511847,164.67574 117.379149,164.020458 L116.347657,158.879432 C116.21359,158.22415 116.625366,157.536035 117.260131,157.323992 C119.476333,156.577052 121.613191,155.682365 123.659758,154.654981 C124.25485,154.355384 125.034625,154.549643 125.406728,155.103692 L128.327464,159.458105 C128.700935,160.009418 129.450614,160.158533 130.006032,159.785063 L136.326314,155.546931 C136.878997,155.174829 137.02948,154.422417 136.654641,153.869737 L133.733904,149.51806 C133.361801,148.962643 133.479452,148.16919 133.981517,147.728687 C135.725751,146.201975 137.360542,144.557613 138.864003,142.812017 C139.301772,142.305849 140.092491,142.186831 140.649278,142.554829 L145.024226,145.463243 C145.578277,145.833977 146.329323,145.682127 146.698691,145.12671 L150.912212,138.791401 C151.281579,138.234616 151.131096,137.483572 150.575677,137.114206 L146.203465,134.20716 C145.646678,133.836426 145.45105,133.060758 145.746544,132.461565 C146.7753,130.394484 147.661781,128.254898 148.395043,126.057855 C148.607087,125.421725 149.293837,125.008582 149.947753,125.138544 L155.091532,126.148144 C155.745449,126.276738 156.382949,125.851283 156.508808,125.194633 L157.9767,117.729338 C158.106663,117.074056 157.679838,116.436558 157.023186,116.3107 L151.879406,115.296996 C151.224122,115.16977 150.743945,114.525432 150.789089,113.859205 C150.945044,111.574609 150.949149,109.258548 150.776777,106.923335 C150.727528,106.258476 151.202233,105.61277 151.860254,105.48144 L156.998561,104.448583 C157.653846,104.314517 158.079302,103.678387 157.945236,103.024473 L156.444511,95.5660183 C156.314548,94.9121039 155.678416,94.4880172 155.021763,94.6193472 L149.879352,95.6549397 C149.225435,95.7849018 148.537318,95.3744952 148.325274,94.7411012 C147.582436,92.5221699 146.683642,90.388056 145.656254,88.3401275 C145.356657,87.74367 145.549548,86.9638976 146.104967,86.5917957 L150.458027,83.6710693 C151.012078,83.2975994 151.159825,82.5465554 150.786353,81.9925066 L146.549576,75.6763503 C146.174736,75.1223015 145.426426,74.9759231 144.871007,75.346657 L140.519315,78.2673834 C139.965265,78.6394853 139.170441,78.5245715 138.732673,78.0211395 C137.207323,76.2741758 135.561588,74.6421258 133.811882,73.1345659 C133.30708,72.6981669 133.186694,71.9060824 133.558797,71.3492975 L136.464485,66.975732 C136.833852,66.4216832 136.684737,65.6706393 136.130687,65.2999054 L129.791252,61.0877665 C129.235834,60.7184006 128.486155,60.868883 128.116788,61.4242998 L125.208364,65.7964973 C124.838997,66.3532821 124.061958,66.5489092 123.46413,66.2520485 C121.39841,65.2246642 119.257449,64.3381861 117.057663,63.6062945 C116.422898,63.3942511 116.011122,62.7061362 116.139717,62.0522218 L117.14932,56.9098281 C117.277915,56.2545457 116.851091,55.6197836 116.197174,55.4911895 L108.729118,54.0233022 C108.073833,53.8933402 107.437701,54.3201629 107.311843,54.9754453 L106.299503,60.1205751 C106.170909,60.7758575 105.526568,61.2546651 104.861707,61.2108884 C102.572999,61.0535659 100.259667,61.0535659 97.9258136,61.2245686 C97.2609527,61.2738174 96.6152443,60.7963778 96.4839137,60.1438315 L95.4496858,55.0014378 C95.3169872,54.3461553 94.680855,53.9220686 94.0255703,54.0547667 L86.5670904,55.5541185 C85.9131738,55.6868166 85.4904536,56.3229468 85.6231522,56.9782292 L86.6573802,62.1206229 C86.7887107,62.7745373 86.3783028,63.4626522 85.7421705,63.6746956 C83.5259677,64.4202674 81.3904785,65.3163217 79.342543,66.345074 C78.7474516,66.6433027 77.9663085,66.4517797 77.5955733,65.8949948 L74.6721009,61.5405817 C74.2999978,60.9865329 73.5489513,60.8387865 72.9935325,61.2108884 L66.6800907,65.4517558 C66.124672,65.8252257 65.9782932,66.5762697 66.3490284,67.1289505 L69.2711327,71.4806276 C69.6404999,72.0346764 69.5269537,72.826761 69.024888,73.267264 C67.2779183,74.7953443 65.6472308,76.4397064 64.1369297,78.1866701 C63.7005293,78.6914702 62.9070739,78.8118561 62.3516552,78.4411222 L57.9794429,75.534076 C57.4240242,75.1633421 56.6716096,75.3165605 56.3036105,75.8719774 L52.0887212,82.207286 C51.7179861,82.7640709 51.8725731,83.5137468 52.4266237,83.8817446 L56.8002041,86.7901588 C57.3569909,87.1608927 57.5512506,87.9392971 57.2530209,88.5371226 C56.2270011,90.6028354 55.3391519,92.7437894 54.6045218,94.9463044 C54.3965818,95.5783305 53.7070965,95.991473 53.0531798,95.862879 L47.9107686,94.853279 C47.256852,94.7219489 46.6207197,95.1501397 46.4907572,95.8040541 L45.0228649,103.269349 C44.8942704,103.924631 45.3210947,104.559393 45.9763793,104.689355 L51.1215266,105.701691 C51.7781792,105.828917 52.2583565,106.473256 52.2104756,107.136746 C52.0572566,109.424078 52.0558886,111.741507 52.2282599,114.075352 C52.2761408,114.740211 51.7973316,115.385917 51.144783,115.517247 L46.0051079,116.551472 C45.3484552,116.681434 44.925735,117.3203 45.0570656,117.974214 L46.5564225,125.432669 C46.687753,126.087951 47.3252533,126.512038 47.9778019,126.37934 L53.1215812,125.345115 C53.7754978,125.213785 54.4649831,125.624192 54.6783952,126.256218 C55.4226016,128.476517 56.3200269,130.609263 57.3474147,132.657192 C57.6442764,133.253649 57.4513847,134.033421 56.898702,134.404155 L52.542906,137.327618 C51.9888553,137.698352 51.8397404,138.450764 52.2104756,139.004812 L56.4540935,145.323705 C56.8261966,145.876386 57.5786111,146.0255 58.1299258,145.65203 L62.4829858,142.732672 C63.0384045,142.36057 63.8332278,142.476852 64.2709963,142.978916 C65.7990817,144.724511 67.4434495,146.355193 69.1876831,147.862753 C69.6952209,148.299152 69.8128712,149.091237 69.4448721,149.64939 L66.536448,154.020219 C66.1670808,154.577004 66.3189318,155.32668 66.8729825,155.697414 L73.2083127,159.910921 C73.7650994,160.281655 74.5147779,160.129804 74.885513,159.574387 L77.7939372,155.20219 C78.1619363,154.645405 78.9417113,154.447042 79.5381708,154.745271 C81.6052587,155.774023 83.744852,156.659133 85.9460064,157.393761 C86.5807707,157.604436 86.9939147,158.292551 86.8639521,158.946465 L85.8529806,164.088859 C85.7230181,164.742773 86.1498424,165.380272 86.806495,165.507498 L94.270447,166.976753 C94.9257317,167.106715 95.561864,166.678524 95.6890904,166.023242 L96.702798,160.878112 C96.8313925,160.22283 97.4729968,159.742654 98.1405937,159.789167 C100.426566,159.943753 102.741266,159.946489 105.076488,159.77275 C105.742716,159.726238 106.385689,160.202309 106.518387,160.856224" id="Fill-9"></path>
                <path d="M97,94 C90.3721639,94 85,99.3735185 85,106 C85,112.627836 90.3721639,118 97,118 C103.627836,118 109,112.627836 109,106 C109,99.3735185 103.627836,94 97,94" id="Fill-11"></path>
                <path d="M104.5,133 C90.9683264,133 80,122.032288 80,108.501372 C80,94.9704565 90.9683264,84 104.5,84 C118.030301,84 129,94.9704565 129,108.501372 C129,122.032288 118.030301,133 104.5,133 M137,108.500683 C137,90.5511379 122.448862,76 104.500683,76 C86.5525038,76 72,90.5511379 72,108.500683 C72,126.450228 86.5525038,141 104.500683,141 C122.448862,141 137,126.450228 137,108.500683" id="Fill-13" opacity="0.5"></path>
                <path d="M135.545194,209.992722 C123.950418,210.295092 114.308173,201.137812 114.007152,189.54379 C113.707499,177.949769 122.86127,168.309519 134.456046,168.007149 C146.050822,167.707516 155.694435,176.863428 155.99272,188.457449 C156.295109,200.050103 147.13997,209.691721 135.545194,209.992722 M167.179388,185.814609 L164.184964,185.894427 C163.80378,185.901308 163.455623,185.604054 163.397826,185.226983 C163.196913,183.903104 162.903801,182.616382 162.523993,181.362689 C162.413904,180.99525 162.59968,180.57827 162.947837,180.422762 L165.684928,179.204849 C166.033085,179.049342 166.191338,178.64337 166.035837,178.292446 L164.270283,174.323563 C164.114782,173.974015 163.706076,173.818507 163.360671,173.972639 L160.619451,175.189176 C160.275422,175.344683 159.837818,175.201561 159.64241,174.875408 C158.954353,173.742818 158.187857,172.663898 157.352556,171.642777 C157.110359,171.3469 157.119992,170.890011 157.384206,170.612024 L159.448378,168.43767 C159.711216,168.159683 159.700207,167.723436 159.422232,167.461963 L156.27093,164.468787 C155.991578,164.205938 155.556726,164.216947 155.293888,164.492182 L153.228341,166.667911 C152.965503,166.944522 152.508633,166.978927 152.203135,166.753234 C151.142151,165.972944 150.024746,165.262839 148.856425,164.635304 C148.522029,164.455025 148.356896,164.025659 148.491755,163.670606 L149.565124,160.875599 C149.702736,160.51917 149.526593,160.120079 149.170179,159.982462 L145.110642,158.424634 C144.754228,158.287017 144.355155,158.464543 144.220296,158.820972 L143.14555,161.617356 C143.009315,161.975161 142.599233,162.181587 142.229058,162.089383 C140.956152,161.778368 139.655724,161.549923 138.325022,161.416435 C137.94659,161.379278 137.628708,161.04762 137.620451,160.667796 L137.542013,157.671867 C137.53238,157.287915 137.214497,156.989285 136.833314,157.000295 L132.487544,157.111765 C132.106361,157.121398 131.804992,157.437918 131.818753,157.819118 L131.893063,160.815047 C131.904072,161.196247 131.605455,161.543043 131.229776,161.600842 C129.905954,161.801763 128.616535,162.096264 127.36427,162.476088 C126.9996,162.586182 126.575757,162.400398 126.424384,162.052227 L125.206523,159.312266 C125.051022,158.964094 124.642316,158.80721 124.294159,158.962718 L120.324069,160.7311 C119.975912,160.883856 119.820411,161.293955 119.971784,161.640751 L121.192397,164.377959 C121.345146,164.726131 121.203406,165.159626 120.880019,165.357795 C119.743349,166.047257 118.667227,166.81241 117.646151,167.647747 C117.347534,167.888577 116.889288,167.88032 116.616817,167.616095 L114.439804,165.549083 C114.163205,165.286234 113.724224,165.298619 113.462763,165.57523 L110.469714,168.728043 C110.206876,169.004653 110.219261,169.442277 110.494484,169.702373 L112.668745,171.769385 C112.94672,172.033611 112.981123,172.487748 112.75544,172.797387 C111.972431,173.859792 111.265108,174.977245 110.636224,176.142864 C110.455953,176.481402 110.027981,176.645167 109.671568,176.50755 L106.878055,175.435511 C106.523018,175.296517 106.119816,175.47542 105.984957,175.830472 L104.425819,179.887431 C104.286832,180.24386 104.465727,180.641574 104.823517,180.780567 L107.619781,181.855359 C107.977571,181.9916 108.183988,182.401699 108.09454,182.770514 C107.780786,184.042098 107.553728,185.345334 107.420244,186.676093 C107.381713,187.057293 107.051446,187.372437 106.668886,187.38207 L103.675837,187.459136 C103.294653,187.471521 102.991908,187.786665 103.000165,188.166489 L103.115759,192.51382 C103.122639,192.893644 103.440522,193.195026 103.821705,193.185392 L106.81613,193.105574 C107.195938,193.097317 107.546847,193.394571 107.604644,193.774395 C107.80418,195.095521 108.097293,196.384995 108.4771,197.637313 C108.585813,198.003375 108.400038,198.421731 108.054633,198.575863 L105.316165,199.795152 C104.966632,199.949284 104.811132,200.355255 104.965256,200.704803 L106.730811,204.677815 C106.887688,205.02461 107.29777,205.18287 107.641799,205.028739 L110.377514,203.812202 C110.728423,203.655318 111.163276,203.799816 111.36006,204.125969 C112.048117,205.257184 112.815989,206.338856 113.647162,207.3586 C113.89211,207.651725 113.879725,208.111367 113.615511,208.387978 L111.55134,210.560955 C111.288502,210.838942 111.302263,211.275189 111.577486,211.539414 L114.728788,214.532591 C115.008139,214.794064 115.444367,214.781678 115.705829,214.50782 L117.774129,212.330714 C118.034215,212.054103 118.492461,212.019699 118.799334,212.246767 C119.858942,213.027057 120.977724,213.737163 122.144669,214.364698 C122.481817,214.544976 122.64695,214.974342 122.510715,215.332147 L121.437346,218.124403 C121.298358,218.482208 121.474501,218.879922 121.832291,219.014787 L125.8877,220.575367 C126.245489,220.712985 126.644563,220.535458 126.780798,220.177653 L127.855543,217.382645 C127.991779,217.02484 128.400485,216.818414 128.770659,216.910618 C130.042189,217.221633 131.346746,217.450078 132.676072,217.580814 C133.05588,217.619347 133.37101,217.951005 133.382019,218.333581 L133.459081,221.328134 C133.468714,221.71071 133.78522,222.010716 134.166404,221.999706 L138.512173,221.88686 C138.893357,221.879979 139.194726,221.560707 139.185093,221.18226 L139.109407,218.183578 C139.099774,217.805131 139.395639,217.458335 139.772694,217.400536 C141.09514,217.198238 142.385935,216.902361 143.638199,216.52529 C144.000117,216.415196 144.423961,216.600979 144.575333,216.950527 L145.793195,219.687735 C145.951448,220.034531 146.357401,220.191415 146.704182,220.035907 L150.679777,218.270277 C151.027934,218.116146 151.183435,217.706046 151.02931,217.35925 L149.810072,214.622042 C149.655948,214.27387 149.80044,213.837623 150.125203,213.639454 C151.257745,212.951368 152.339371,212.186215 153.354943,211.350878 C153.652184,211.108672 154.11043,211.121057 154.385653,211.385283 L156.562666,213.450919 C156.836513,213.713768 157.275493,213.702758 157.538331,213.423395 L160.528628,210.270582 C160.792842,209.996724 160.783209,209.556349 160.505234,209.296252 L158.332349,207.230616 C158.051622,206.967767 158.021347,206.512253 158.244278,206.202615 C159.028663,205.141585 159.735986,204.024132 160.36487,202.857138 C160.545141,202.519975 160.971736,202.354834 161.32815,202.492452 L164.123038,203.564491 C164.479452,203.70486 164.881277,203.525958 165.016137,203.169529 L166.573898,199.11257 C166.712886,198.756141 166.533991,198.357051 166.177577,198.219434 L163.379937,197.146019 C163.023523,197.007025 162.818482,196.599678 162.909305,196.226735 C163.220307,194.956527 163.448742,193.653291 163.582225,192.322532 C163.61938,191.94546 163.948272,191.628941 164.333584,191.616555 L167.329385,191.542242 C167.707816,191.529856 168.013314,191.214712 167.999553,190.83076 L167.885335,186.488934 C167.879831,186.107734 167.560572,185.807728 167.179388,185.814609" id="Fill-15"></path>
                <path d="M138.201268,184.105466 C134.397072,183.440543 130.769523,185.988953 130.104658,189.796265 C129.442575,193.604969 131.990761,197.228663 135.797739,197.894978 C139.603327,198.55851 143.229485,196.008709 143.895741,192.201397 C144.556433,188.394084 142.008247,184.768999 138.201268,184.105466" id="Fill-17" opacity="0.5"></path>
            </g>
        </g>
    </g>
</svg>