<?xml version="1.0" encoding="UTF-8"?>
<svg width="400px" height="400px" viewBox="0 0 400 400" version="1.1" xmlns="http://www.w3.org/2000/svg" xmlns:xlink="http://www.w3.org/1999/xlink">
    <defs></defs>
    <g id="list-img__Themes" stroke="none" stroke-width="1" fill="#7A00A1" fill-rule="evenodd">
        <g id="img_list-socialmedia">
            <g id="Page-1" transform="translate(35.000000, 49.000000)">
                <path d="M56,141.572324 C56,141.572324 84.444693,138.610992 99.320435,115.654309 C98.9978808,115.579258 98.684251,115.453325 98.3922948,115.247253 C71.604995,96.5977299 80.2553129,73.8229495 80.2553129,73.8229495 C80.2553129,73.8229495 92.2994622,88.2607152 108.659209,85.2230602 C112.866438,65.413428 127.571341,50 147.778789,50 C164.755596,50 180.273896,60.8378647 185.786641,76.0706615 L207,73.071168 L191.00998,86.6286752 L207,100.188727 L187.033511,97.6573474 C174.540591,178.53046 56,141.572324 56,141.572324 M197.968764,189.684358 C236.868926,171.989574 263,139.28621 263,101.828471 C263,64.3720065 236.868926,31.6673674 197.968764,13.9802297 C178.469488,5.11372361 155.764204,0 131.497444,0 C58.8811692,0 0,45.6080942 0,101.828471 C0,133.852639 19.0980459,162.405643 48.9692501,181.056144 L36.2755536,237 L102.387811,201.146592 C111.737496,202.778956 121.490968,203.655668 131.497444,203.655668 C155.764204,203.655668 178.469488,198.543218 197.968764,189.684358" id="Fill-1"></path>
                <path d="M279.937565,234.621738 C279.602541,237.207576 278.814851,239.266056 276.947923,241.390774 C276.340532,242.082453 278.601305,242.727002 276.859691,248.069368 C276.077116,250.466682 275.338017,251.420767 273.142458,253.06271 C272.274208,253.708533 273.418661,256.788609 270.648958,259.970591 C268.862589,262.026523 265.156864,263.372942 258.438479,264.357598 C253.629221,265.06329 242.327911,265.664529 233.896045,263.431537 C231.72606,262.857048 226.496103,259.487816 218.791827,258.537553 L218.791827,261.058426 L195,261.058426 L195,219.628975 L218.791827,219.628975 L218.791827,223.5676 C219.507909,223.483529 220.166449,223.368886 220.621673,223.204564 C222.777591,222.43136 224.612552,222.395694 226.283836,217.106828 C228.311883,210.682995 229.169903,207.904812 234.665833,203.562388 C240.160484,199.221238 241.013389,191.797463 243.840635,188.17729 C246.670437,184.558391 245.719071,179.758669 245.864845,178.372762 C246.008062,176.989402 250.782795,174.89653 254.865741,182.256614 C258.94613,189.617971 254.35809,200.864455 252.422111,203.990389 C250.484853,207.117596 248.016928,213.551619 254.34786,213.001333 C260.681351,212.449772 268.530122,213.831858 272.841959,215.762956 C276.80087,217.53865 280.46184,219.611141 279.821202,224.162471 C279.395389,227.189047 277.935093,228.383882 277.872436,229.074288 C277.794434,229.902266 280.434987,230.778648 279.937565,234.621738 M331,218.102993 C331,183.714333 302.341203,154.511496 262.545739,144 C252.366956,162.878229 236.516026,178.462399 218.195235,189.896892 C210.455742,194.754709 202.270426,198.856074 193.806152,202.245484 C173.331397,210.488897 151.135765,214.591533 129.099355,214.752994 C129.042035,215.87178 129,216.982937 129,218.102993 C129,251.445336 155.926455,279.933676 193.806152,291.207979 C205.066375,294.557978 217.238626,296.383632 229.990447,296.383632 C237.676441,296.383632 245.180284,295.707276 252.366956,294.435929 L303.118209,322 L293.377607,279.020849 C316.309485,264.678785 331,242.721354 331,218.102993" id="Fill-4" opacity="0.8"></path>
            </g>
        </g>
    </g>
</svg>