<?xml version="1.0" encoding="UTF-8"?>
<svg width="400px" height="400px" viewBox="0 0 400 400" version="1.1" xmlns="http://www.w3.org/2000/svg" xmlns:xlink="http://www.w3.org/1999/xlink">
    <defs></defs>
    <g id="list-img__Themes" stroke="none" stroke-width="1" fill="#7A00A1" fill-rule="evenodd">
        <g id="img_list-bigdata">
            <g id="Page-1" transform="translate(2.000000, 0.000000)">
                <path d="M87.3779474,33.3165733 C87.315614,42.9349244 86.1886257,50.1455785 83.9994759,54.9037646 C81.7330327,59.8111881 78.2872411,62.2661435 73.6596079,62.2661435 C69.1042814,62.2661435 65.6036364,59.5823574 63.1626596,54.2247344 L66.1696239,49.5262433 C62.4894586,52.7423094 58.9040402,56.0628418 55.4632353,59.5301243 C55.6552222,59.8683958 55.8322492,60.2340274 56.0367028,60.5573751 C60.0036018,66.8925032 65.8828901,70.0588235 73.6596079,70.0588235 C81.4413123,70.0588235 87.3280807,66.8925032 91.3224064,60.5573751 C95.3167321,54.2247344 97.3039216,44.8476505 97.3039216,32.4435345 C97.3039216,30.6402491 97.2490682,28.9190443 97.166788,27.245098 C93.8456633,29.1851844 90.5744053,31.1974021 87.3779474,33.3165733" id="Fill-1"></path>
                <path d="M156.659314,59.9378932 L141.655284,59.9378932 L141.655284,7.78431373 C138.386125,8.74257431 135.156503,9.77492721 131.963946,10.8937211 L131.963946,59.9378932 L116.764706,59.9378932 L116.764706,68.1127451 L156.659314,68.1127451 L156.659314,59.9378932 Z" id="Fill-3" opacity="0.703974185"></path>
                <path d="M192.342724,60.8348752 L177.17542,60.8348752 L177.17542,69.0857843 L216.987745,69.0857843 L216.987745,60.8348752 L202.012806,60.8348752 L202.012806,0.109679759 C200.579927,0.0772743754 199.161846,0 197.721569,0 C192.983944,0 188.300576,0.226837683 183.646803,0.553384237 L174.17402,5.11257238 L174.17402,14.5799297 L192.342724,5.743231 L192.342724,60.8348752 Z" id="Fill-5"></path>
                <path d="M85.1187421,166.87296 C82.8800945,171.755271 79.4703481,174.200141 74.8968994,174.200141 C70.3900185,174.200141 66.9284972,171.524903 64.5172666,166.191765 L87.5077835,130.036411 C88.1512714,134.339087 88.4742481,139.15947 88.4742481,144.500039 C88.4742481,154.529707 87.3524588,161.983219 85.1187421,166.87296 M61.3762565,144.500039 C61.3762565,134.467894 62.4955804,127.009428 64.734228,122.127118 C66.9654793,117.239853 70.3579673,114.799937 74.8968994,114.799937 C79.0536835,114.799937 82.3574146,116.947559 84.8006964,121.250234 L62.2909463,157.311459 C61.677044,153.333281 61.3762565,149.057853 61.3762565,144.500039 M74.8968994,107.034314 C67.20463,107.034314 61.3910494,110.187627 57.468485,116.496732 C53.5311279,122.803359 51.5710784,132.141923 51.5710784,144.500039 C51.5710784,156.858155 53.5311279,166.191765 57.468485,172.498392 C61.3910494,178.809974 67.20463,181.958333 74.8968994,181.958333 C82.5916344,181.958333 88.4126114,178.809974 92.3622959,172.498392 C96.3095149,166.191765 98.2769608,156.858155 98.2769608,144.500039 C98.2769608,132.141923 96.3095149,122.803359 92.3622959,116.496732 C88.4126114,110.187627 82.5916344,107.034314 74.8968994,107.034314" id="Fill-7" opacity="0.7"></path>
                <path d="M25.9420388,165.994732 C23.7366373,170.846357 20.3738254,173.275862 15.8633294,173.275862 C11.4233479,173.275862 8.00461073,170.617437 5.6241387,165.317818 L28.3054901,129.389698 C28.9352575,133.665331 29.2537885,138.455419 29.2537885,143.762423 C29.2537885,153.729055 28.1450089,161.135722 25.9420388,165.994732 M20.7166718,107.034314 C19.4692947,109.441665 18.2559591,111.866247 17.1034119,114.330213 C20.6218419,114.726515 23.4691685,116.826179 25.633234,120.658741 L3.43575789,156.493324 C3.36038032,155.998562 3.33120191,155.457031 3.26555049,154.954884 C1.89659671,161.029877 0.804837834,167.210715 0,173.48509 C3.81021416,178.477021 9.09393807,180.985294 15.8633294,180.985294 C23.4570108,180.985294 29.2002947,177.856722 33.0858864,171.584808 C36.9787728,165.317818 38.9215686,156.042869 38.9215686,143.762423 C38.9215686,131.481977 36.9787728,122.202105 33.0858864,115.935114 C30.0780786,111.083489 25.9444704,108.132145 20.7166718,107.034314" id="Fill-9"></path>
                <polygon id="Fill-11" points="132.982026 171.836616 117.812974 171.836616 117.812974 180.012255 157.632353 180.012255 157.632353 171.836616 142.655689 171.836616 142.655689 108.007353 132.893232 108.007353 114.818627 116.620179 114.818627 126.006108 132.982026 117.252494"></polygon>
                <path d="M22.3191836,219.954019 L12.6585723,219.954019 L-0.000243954832,226.049746 C0.375446486,228.977868 0.809686087,231.886239 1.30735394,234.772389 L12.7634729,229.195132 L12.7634729,275.269846 C15.0444505,280.960673 17.5815808,286.513241 20.3480286,291.93002 L37.1296815,291.93002 L37.1296815,283.750536 L22.3191836,283.750536 L22.3191836,219.954019 Z" id="Fill-13" opacity="0.7"></path>
                <path d="M85.1187421,277.795474 C82.8800945,282.682416 79.4703481,285.122171 74.8968994,285.122171 C70.3900185,285.122171 66.9284972,282.45454 64.5172666,277.119278 L87.5077835,240.963838 C88.1512714,245.266229 88.4742481,250.083817 88.4742481,255.426509 C88.4742481,265.455514 87.3524588,272.91101 85.1187421,277.795474 M61.3762565,255.426509 C61.3762565,245.395028 62.4955804,237.939532 64.734228,233.052591 C66.9654793,228.170603 70.3579673,225.728371 74.8968994,225.728371 C79.0536835,225.728371 82.3574146,227.880805 84.8006964,232.183196 L62.2909463,268.23956 C61.677044,264.25669 61.3762565,259.981545 61.3762565,255.426509 M74.8968994,217.960784 C67.20463,217.960784 61.3910494,221.113889 57.468485,227.422577 C53.5311279,233.733741 51.5710784,243.066734 51.5710784,255.426509 C51.5710784,267.781331 53.5311279,277.119278 57.468485,283.420535 C61.3910494,289.731699 67.20463,292.884804 74.8968994,292.884804 C82.5916344,292.884804 88.4126114,289.731699 92.3622959,283.420535 C96.3095149,277.119278 98.2769608,267.781331 98.2769608,255.426509 C98.2769608,243.066734 96.3095149,233.733741 92.3622959,227.422577 C88.4126114,221.113889 82.5916344,217.960784 74.8968994,217.960784" id="Fill-16"></path>
                <polygon id="Fill-18" opacity="0.7" points="132.982026 283.729558 117.812974 283.729558 117.812974 291.911765 157.632353 291.911765 157.632353 283.729558 142.655689 283.729558 142.655689 219.906863 132.893232 219.906863 114.818627 228.526211 114.818627 237.911175 132.982026 229.153522"></polygon>
                <path d="M122.617478,379.617338 C122.006009,375.675409 121.70274,371.449113 121.70274,366.935997 C121.70274,357.007631 122.822123,349.628772 125.058423,344.799419 C127.292258,339.960261 130.682459,337.545584 135.229028,337.545584 C139.3811,337.545584 142.687471,339.673441 145.135813,343.931607 L122.617478,379.617338 Z M135.229028,329.860294 C127.528955,329.860294 121.717534,332.980988 117.797228,339.222375 C113.857197,345.466213 111.89951,354.70327 111.89951,366.935997 C111.89951,371.887922 112.237297,376.322592 112.880819,380.291486 C117.294245,382.360509 121.801364,384.257929 126.382451,386.005812 L147.840578,352.624442 C148.481634,356.882608 148.804628,361.655577 148.804628,366.935997 C148.804628,376.86191 147.677848,384.240769 145.448944,389.077477 C144.978015,390.087473 144.44791,390.967543 143.878357,391.766715 C146.893787,392.607562 149.933873,393.377317 153.003546,394.080882 C156.731535,387.849301 158.605392,378.823069 158.605392,366.935997 C158.605392,354.70327 156.640308,345.466213 152.687949,339.222375 C148.742988,332.980988 142.921703,329.860294 135.229028,329.860294 L135.229028,329.860294 Z" id="Fill-20"></path>
                <path d="M54.4901961,338.595808 C56.5703235,340.706891 58.6971678,342.76459 60.8682701,344.781038 L71.1213805,339.913415 L71.1213805,353.715527 C74.248948,356.2464 77.4797843,358.655946 80.7622549,360.997549 L80.7622549,330.833333 L71.0254881,330.833333 L54.4901961,338.595808 Z" id="Fill-22" opacity="0.7"></path>
                <path d="M244.252311,379.699656 C243.635911,375.751206 243.332642,371.517917 243.332642,366.997334 C243.332642,357.052544 244.452025,349.661477 246.688325,344.824135 C248.927091,339.97697 252.314827,337.558299 256.85893,337.558299 C261.011002,337.558299 264.317373,339.689676 266.765715,343.954886 L244.252311,379.699656 Z M256.85893,329.860294 C249.158857,329.860294 243.347435,332.986151 239.42713,339.237863 C235.494496,345.492032 233.529412,354.74437 233.529412,366.997334 C233.529412,379.252754 235.494496,388.500182 239.42713,394.75435 C239.491235,394.859937 239.5726,394.948335 239.639171,395.053922 C242.85185,394.383569 246.034941,393.637096 249.188445,392.814502 C248.175083,391.650593 247.26281,390.231312 246.471352,388.500182 L269.472945,352.662103 C270.111536,356.927313 270.43453,361.708179 270.43453,366.997334 C270.43453,375.508111 269.601156,382.135516 267.963997,386.911471 C271.659933,385.546211 275.289298,384.048353 278.874282,382.474375 C279.771761,377.993081 280.235294,372.846345 280.235294,366.997334 C280.235294,354.74437 278.27021,345.492032 274.317851,339.237863 C270.377821,332.986151 264.551605,329.860294 256.85893,329.860294 L256.85893,329.860294 Z" id="Fill-24"></path>
                <path d="M269.472377,17.6124789 C270.113467,21.8822784 270.436478,26.6627843 270.436478,31.9539966 C270.436478,41.8955828 269.309639,49.2836374 267.078152,54.1255263 C264.839268,58.9723258 261.426696,61.3932702 256.860161,61.3932702 C252.352805,61.3932702 248.883521,58.7439811 246.472035,53.4576795 L269.472377,17.6124789 Z M256.860161,69.0857843 C264.553243,69.0857843 270.3773,65.9601634 274.320005,59.7089214 C278.270106,53.4576795 280.235294,44.2011273 280.235294,31.9539966 C280.235294,26.1029716 279.774202,20.9541679 278.87421,16.4707556 C274.45562,14.5310537 269.958126,12.7386709 265.376797,11.1157051 L244.250411,44.6529059 C243.633979,40.7047531 243.330694,36.4742387 243.330694,31.9539966 C243.330694,22.009955 244.452601,14.6145345 246.68902,9.77510095 C247.362164,8.31664152 248.153664,7.1061693 249.036396,6.08721196 C245.93204,5.28186736 242.798096,4.55263765 239.637028,3.89215686 C239.570453,3.99773558 239.49155,4.08612706 239.424975,4.19170577 C235.4946,10.445403 233.529412,19.6994999 233.529412,31.9539966 C233.529412,44.2011273 235.4946,53.4576795 239.424975,59.7089214 C243.345488,65.9601634 249.159682,69.0857843 256.860161,69.0857843 L256.860161,69.0857843 Z" id="Fill-26" opacity="0.7"></path>
                <path d="M202.012806,330.833333 L192.246542,330.833333 L174.17402,339.510751 L174.17402,348.972272 L192.342724,340.147991 L192.342724,395.154752 L177.17542,395.154752 L177.17542,398.863689 C183.927953,399.56067 190.781602,399.919118 197.721569,399.919118 C204.222547,399.919118 210.647072,399.580584 216.987745,398.968236 L216.987745,395.154752 L202.012806,395.154752 L202.012806,330.833333 Z" id="Fill-28" opacity="0.7"></path>
                <polygon id="Fill-30" opacity="0.7" points="181.067404 171.836896 181.067404 180.012255 220.879902 180.012255 220.879902 171.836896 205.903359 171.836896 205.903359 108.007353 196.137657 108.007353 178.066176 116.624823 178.066176 126.005491 196.233835 117.249707 196.233835 171.836896"></polygon>
                <path d="M269.99727,165.893987 C267.758386,170.783243 264.345813,173.225395 259.776813,173.225395 C255.269456,173.225395 251.802638,170.552898 249.391153,165.22029 L272.391495,129.061091 C273.030119,133.368293 273.35313,138.188199 273.35313,143.528238 C273.35313,153.556911 272.226291,161.009684 269.99727,165.893987 M246.249811,143.528238 C246.249811,133.497088 247.369253,126.036885 249.605672,121.155059 C251.847021,116.270756 255.23247,113.826127 259.776813,113.826127 C263.929105,113.826127 267.23565,115.980967 269.684122,120.283216 L247.169529,156.338388 C246.553096,152.35565 246.249811,148.088077 246.249811,143.528238 M259.776813,106.061275 C252.076334,106.061275 246.264606,109.216752 242.344093,115.522754 C238.411252,121.828756 236.448529,131.166394 236.448529,143.528238 C236.448529,155.882652 238.411252,165.22029 242.344093,171.523815 C246.264606,177.832293 252.076334,180.985294 259.776813,180.985294 C267.472361,180.985294 273.296418,177.832293 277.239122,171.523815 C281.189224,165.22029 283.154412,155.882652 283.154412,143.528238 C283.154412,131.166394 281.189224,121.828756 277.239122,115.522754 C273.296418,109.216752 267.472361,106.061275 259.776813,106.061275" id="Fill-32"></path>
                <path d="M210.640801,277.795474 C208.402153,282.682416 204.992407,285.122171 200.418958,285.122171 C195.912077,285.122171 192.450556,282.45454 190.039325,277.119278 L213.029842,240.963838 C213.67333,245.266229 213.996307,250.083817 213.996307,255.426509 C213.996307,265.455514 212.874518,272.91101 210.640801,277.795474 M186.898315,255.426509 C186.898315,245.395028 188.017639,237.939532 190.256287,233.052591 C192.487538,228.170603 195.880026,225.728371 200.418958,225.728371 C204.575742,225.728371 207.879473,227.880805 210.322755,232.183196 L187.813005,268.23956 C187.199103,264.25669 186.898315,259.981545 186.898315,255.426509 M200.418958,217.960784 C192.726689,217.960784 186.913108,221.113889 182.990544,227.422577 C179.053187,233.733741 177.093137,243.066734 177.093137,255.426509 C177.093137,267.781331 179.053187,277.119278 182.990544,283.420535 C186.913108,289.731699 192.726689,292.884804 200.418958,292.884804 C208.113693,292.884804 213.93467,289.731699 217.884355,283.420535 C221.831574,277.119278 223.79902,267.781331 223.79902,255.426509 C223.79902,243.066734 221.831574,233.733741 217.884355,227.422577 C213.93467,221.113889 208.113693,217.960784 200.418958,217.960784" id="Fill-34"></path>
                <polygon id="Fill-36" opacity="0.7" points="268.177747 219.906863 258.415291 219.906863 240.340686 228.526507 240.340686 237.911793 258.504085 229.153839 258.504085 283.731747 243.335033 283.731747 243.335033 291.911765 283.154412 291.911765 283.154412 283.731747 268.177747 283.731747"></polygon>
                <path d="M338.617647,60.0564398 L323.612688,60.0564398 L323.612688,44.1774864 C320.461943,41.6778412 317.227178,39.2852889 313.923221,36.9754902 L313.923221,60.0564398 L298.723039,60.0564398 L298.723039,68.1127451 L338.617647,68.1127451 L338.617647,60.0564398 Z" id="Fill-38"></path>
                <path d="M295.803922,339.292882 L295.803922,348.514421 L314.220206,339.914123 L314.220206,361.970588 C317.562485,359.66763 320.837269,357.282164 324.022059,354.792348 L324.022059,330.833333 L314.122712,330.833333 L295.803922,339.292882 Z" id="Fill-40" opacity="0.7"></path>
                <polygon id="Fill-42" opacity="0.7" points="316.891744 171.836896 301.724439 171.836896 301.724439 180.012255 341.536765 180.012255 341.536765 171.836896 326.561826 171.836896 326.561826 108.007353 316.795561 108.007353 298.723039 116.624823 298.723039 126.005491 316.891744 117.249707"></polygon>
                <path d="M393.771908,155.246089 C393.228229,159.635244 392.347178,163.236665 391.102057,165.983887 C388.898217,170.84322 385.539059,173.270425 381.044001,173.270425 C376.607195,173.270425 373.192213,170.614285 370.818473,165.314313 L388.704046,136.92143 C387.796297,134.154514 386.840005,131.412216 385.815753,128.701919 L368.63405,156.48677 C368.027266,152.528407 367.728728,148.286953 367.728728,143.757483 C367.728728,133.785264 368.830648,126.370719 371.032061,121.518771 C373.019887,117.141924 375.932451,114.754106 379.767327,114.323314 C378.609583,111.861645 377.383879,109.439364 376.131476,107.034314 C370.949539,108.142065 366.854959,111.091143 363.884143,115.920937 C360.01286,122.190806 358.078431,131.468834 358.078431,143.757483 C358.078431,156.033823 360.01286,165.314313 363.884143,171.581721 C367.740864,177.85159 373.464053,180.985294 381.044001,180.985294 C387.861829,180.985294 393.174832,178.420236 397,173.33689 C396.194191,167.212259 395.114115,161.181172 393.771908,155.246089" id="Fill-44"></path>
                <path d="M331.297664,277.795474 C329.059016,282.682416 325.64927,285.122171 321.075821,285.122171 C316.56894,285.122171 313.107419,282.45454 310.696188,277.119278 L333.686705,240.963838 C334.330193,245.266229 334.65317,250.083817 334.65317,255.426509 C334.65317,265.455514 333.53138,272.91101 331.297664,277.795474 M307.555178,255.426509 C307.555178,245.395028 308.674502,237.939532 310.91315,233.052591 C313.144401,228.170603 316.536889,225.728371 321.075821,225.728371 C325.232605,225.728371 328.536336,227.880805 330.979618,232.183196 L308.469868,268.23956 C307.855966,264.25669 307.555178,259.981545 307.555178,255.426509 M321.075821,217.960784 C313.383552,217.960784 307.569971,221.113889 303.647407,227.422577 C299.710049,233.733741 297.75,243.066734 297.75,255.426509 C297.75,267.781331 299.710049,277.119278 303.647407,283.420535 C307.569971,289.731699 313.383552,292.884804 321.075821,292.884804 C328.770556,292.884804 334.591533,289.731699 338.541217,283.420535 C342.488437,277.119278 344.455882,267.781331 344.455882,255.426509 C344.455882,243.066734 342.488437,233.733741 338.541217,227.422577 C334.591533,221.113889 328.770556,217.960784 321.075821,217.960784" id="Fill-46"></path>
                <path d="M360.997549,228.526211 L360.997549,237.911175 L379.409596,229.153522 L379.409596,283.729558 L364.032886,283.729558 L364.032886,291.911765 L376.219241,291.911765 C381.374815,282.069901 385.747801,271.766198 389.215686,261.05746 L389.215686,219.906863 L379.319586,219.906863 L360.997549,228.526211 Z" id="Fill-48" opacity="0.7"></path>
            </g>
        </g>
    </g>
</svg>