<?xml version="1.0" encoding="UTF-8"?>
<svg width="400px" height="400px" viewBox="0 0 400 400" version="1.1" xmlns="http://www.w3.org/2000/svg" xmlns:xlink="http://www.w3.org/1999/xlink">
    <defs></defs>
    <g id="list-img__Themes" stroke="none" stroke-width="1"  fill="#FFFFFF" fill-rule="evenodd">
        <g id="img_list-mobile">
            <g id="Page-1" transform="translate(94.000000, 37.000000)">
                <path d="M175,136.643505 L183.28861,145 C222.903797,105.046255 222.903797,39.9776346 183.28861,0 L175,8.40307925 C209.996486,43.7461798 209.996486,101.300404 175,136.643505" id="Fill-1"></path>
                <path d="M151.374479,115 C174.875174,91.2870058 174.875174,52.7129942 151.374479,29 L143,37.4238668 C161.95963,56.4872776 161.95963,87.5127224 143,106.563016 L151.374479,115 Z" id="Fill-3"></path>
                <path d="M160,120.626676 L168.469625,129 C199.879417,97.856234 199.807478,47.1544781 168.469625,16 L160,24.3269046 C186.768524,50.9108691 186.768524,94.0891309 160,120.626676" id="Fill-5" opacity="0.748697917"></path>
                <path d="M38,136.643505 C2.98954097,101.300404 2.98954097,43.7461798 38,8.40307925 L29.6965404,0 C-9.89884678,39.9776346 -9.89884678,105.046255 29.6965404,145 L38,136.643505 Z" id="Fill-7"></path>
                <path d="M62.6410484,115 L71,106.563016 C52.0383533,87.5127224 52.0383533,56.4872776 71,37.4238668 L62.6410484,29 C39.1196505,52.7129942 39.1196505,91.2870058 62.6410484,115" id="Fill-9"></path>
                <path d="M45.526872,129 L54,120.626676 C27.2373885,94.0891309 27.2373885,50.9108691 54,24.3269046 L45.526872,16 C14.1577093,47.1544781 14.1577093,97.856234 45.526872,129" id="Fill-11" opacity="0.748697917"></path>
                <path d="M109.95794,109 L107.165827,109 L104.433579,109 L102.141938,109 L14,325 L41.2889558,325 L63.8737037,251.043627 L95.7375587,261.629257 L92.0905703,325 L122.290172,325 L118.66713,261.55774 L150.172991,250.70154 L172.687098,325 L200,325 L111.882008,109 L109.95794,109 Z M130,182.794935 L114.883553,188 L111,120 L130,182.794935 Z M104,120 L100.164431,188 L85,182.885236 L104,120 Z M70,230.052647 L79.5424133,199 L99,205.440505 L97.0487774,239 L70,230.052647 Z M116.907231,239 L115,205.595956 L133.79595,199 L143,229.864457 L116.907231,239 Z" id="Fill-13" opacity="0.803725091"></path>
                <path d="M106.463829,96 C121.162136,96 133,84.1069473 133,69.4887489 C133,54.869366 121.162136,43 106.463829,43 C91.8603969,43 80,54.869366 80,69.4887489 C80,84.1069473 91.8603969,96 106.463829,96" id="Fill-16"></path>
            </g>
        </g>
    </g>
</svg>