<?xml version="1.0" encoding="UTF-8"?>
<svg width="400px" height="400px" viewBox="0 0 400 400" version="1.1" xmlns="http://www.w3.org/2000/svg" xmlns:xlink="http://www.w3.org/1999/xlink">
    <defs></defs>
    <g id="list-img__Ideas" stroke="none" stroke-width="1" fill="#CF263E" fill-rule="evenodd">
        <g id="img_list-dogsofthedow">
            <g transform="translate(32.000000, 20.000000)">
                <path d="M308.350515,212 C308.348295,212.003719 308.346074,212.007437 308.344594,212.011899 C290.139404,247.74909 265.616165,276.08643 234.102884,296.233362 C217.038155,307.143495 197.928589,315.65667 176.609149,321.581757 C171.838603,322.907037 166.991829,324.143816 162,325.211031 C168.375776,333.533818 174.750812,341.855118 181.125848,350.177906 C183.633973,353.451689 186.142099,356.726217 188.650225,360 C257.400554,342.058893 304.972797,303.120058 335,246.788225 L308.350515,212 Z" id="Fill-4" opacity="0.8"></path>
                <path d="M101.120305,140.343367 L100.387039,134.417584 C98.1842404,125.936759 105.384196,121.466765 121.987656,121 C122.354289,137.77084 114.534281,143.005599 101.120305,140.343367 M146.640753,9 C146.545952,28.701488 157.029152,41.0575179 164.553686,52.1428208 C170.904602,61.498026 175.101557,69.9605903 169.096774,81.1547701 C167.571878,83.9982453 165.39587,87.0169676 162.415158,90.274324 C161.306209,91.4861382 160.123772,92.7195785 158.788478,94 C159.923147,93.2788774 160.4677,90.6956625 160.609534,87.2936341 C160.86748,81.1025688 159.761471,72.1679563 158.263032,66.3721289 C157.783884,64.5189855 157.268726,62.9656262 156.74328,61.9603797 C155.484414,59.5516661 154.409271,57.2458634 153.418639,54.9900247 C143.935624,33.3951238 145.999194,18.6788528 146.640753,9 M62.6641039,165.045615 L24,189 L77.8465768,145.284906 L85,128 C84.749185,149.526506 82.9712179,152.556009 62.6641039,165.045615 M297,209.920951 C284.606488,177.699035 264.351487,174.722192 260.357314,144.812711 C257.020428,129.757753 244.388037,117.78431 237.390815,104.175459 C234.522042,98.5974042 231.521961,93.2056802 228.337898,88.1331689 C226.688744,77.5746546 215.454017,70.7546397 213.190603,61.8716205 C209.128178,45.925094 199.893506,28.8108432 143.400132,1 C140.532102,18.9694437 142.524737,37.47561 146.343832,52.9010034 L147.582738,57.1851337 L147.72295,57.6713762 L149.536055,63.9398214 L149.616176,64.215235 L111.599565,98.7087574 L94.2088854,114.488254 C97.0680135,107.643741 101.289196,99.9187959 106.977778,91.847913 C113.833306,82.1223209 122.860999,71.897124 134.26932,62.0772528 C137.049069,59.6839005 139.971256,57.3180153 143.04033,54.9870208 C131.646104,48.9353433 114.511365,43.061831 87.5803672,37.4926842 C89.1568195,54.0590771 95.0234476,70.0004071 101.876749,82.9782562 C93.7570927,91.0031131 86.85557,101.047175 81.6306507,113.868388 L79.5400895,132.641802 L5.06106424,191.797098 C-11.3036234,210.521516 16.1333233,220.368112 29.1284833,226.975071 C32.9609316,242.042649 66.447004,245.172418 94.1428599,245.969707 C113.073641,246.517565 128.13859,233.097272 136.110617,232.178979 C156.954654,229.779688 157.516984,261.617065 157.936877,265.427572 C159.715115,281.627984 165.458595,297.369621 171.593776,311 C228.247391,294.634043 269.267793,260.02991 297,209.920951" id="Fill-1"></path>
            </g>
        </g>
    </g>
</svg>