<?xml version="1.0" encoding="UTF-8"?>
<svg width="400px" height="400px" viewBox="0 0 400 400" version="1.1" xmlns="http://www.w3.org/2000/svg" xmlns:xlink="http://www.w3.org/1999/xlink">
    <defs></defs>
    <g id="list-img__Themes" stroke="none" stroke-width="1" fill="#FFFFFF" fill-rule="evenodd">
        <g id="img_list-defense">
            <g id="Page-1" transform="translate(211.092189, 190.092189) rotate(-315.000000) translate(-211.092189, -190.092189) translate(85.092189, 0.592189)">
                <path d="M88.8369672,200.967725 C88.6291888,198.743002 88.4385821,195.095073 88.4145416,192.8635 L88.2788846,179.926198 C88.2565613,177.694625 87.5284781,177.550763 86.6613036,179.609359 L75.9770268,205.055803 C75.1098522,207.114399 73.0595426,210.041305 71.416204,211.563844 L3.02275117,274.863115 C1.38112972,276.387367 0.0365799265,279.456422 0.0365799265,281.689708 L0.0365799265,307.687623 C0.0365799265,309.920909 1.84476757,311.460574 4.05649188,311.102632 L90.016668,297.262767 C92.2283923,296.906538 94.0365799,294.787999 94.0365799,292.556425 L94.0365799,260.476917 C94.0365799,258.243631 93.8665794,254.595702 93.6605181,252.37098 L88.8369672,200.967725 Z" id="Fill-1" opacity="0.8"></path>
                <path d="M91.7779085,314.70931 L43.8707723,364.061814 C42.3141791,365.66845 42.1811517,368.409782 43.5788031,370.14931 L48.0740922,375.766572 C49.470016,377.5061 52.3275134,378.260861 54.4179438,377.436246 L87.2135142,364.49627 C89.3056722,363.671656 91.4306551,361.225072 91.9299398,359.059607 L93.6990313,351.442144 C94.1983159,349.276678 94.6112191,345.686879 94.6112191,343.46519 L94.6112191,315.830377 C94.6112191,313.608688 93.3345017,313.104378 91.7779085,314.70931" id="Fill-4"></path>
                <path d="M248.028114,274.863694 L179.634661,211.564724 C177.99304,210.042192 175.941013,207.1153 175.073839,205.056713 L164.389562,179.608677 C163.522387,177.551803 162.794304,177.693952 162.771981,179.925515 L162.636324,192.862756 C162.612283,195.096031 162.419959,198.743942 162.215615,200.968654 L157.392064,252.371665 C157.184286,254.596378 157.014285,258.244289 157.014285,260.477564 L157.014285,292.555208 C157.014285,294.788483 158.822473,296.9053 161.03248,297.26324 L246.994373,311.103039 C249.206098,311.459267 251.014285,309.921321 251.014285,307.688046 L251.014285,281.688542 C251.014285,279.45698 249.671453,276.386226 248.028114,274.863694" id="Fill-6" opacity="0.8"></path>
                <path d="M159.288707,314.002203 C157.732122,312.397271 156.455411,312.901581 156.455411,315.12327 L156.455411,342.758083 C156.455411,344.979772 156.868312,348.569572 157.367594,350.735037 L159.136676,358.3525 C159.637686,360.517965 161.760931,362.964549 163.853078,363.789164 L196.64848,376.729139 C198.7389,377.553754 201.596383,376.798993 202.9923,375.059465 L207.489293,369.442204 C208.88521,367.702676 208.752183,364.961343 207.195598,363.354708 L159.288707,314.002203 Z" id="Fill-9"></path>
                <path d="M150.792203,351.362482 L101.752093,351.362482 L100.182292,358.282867 C99.6902389,360.472056 99.6306478,364.062189 100.056299,366.266867 L101.609074,374.355852 C102.036428,376.560531 104.200438,378.362482 106.420634,378.362482 L122.236125,378.362482 L130.309874,378.362482 L146.123662,378.362482 C148.343858,378.362482 150.507868,376.560531 150.93352,374.355852 L152.486295,366.266867 C152.913648,364.062189 152.852355,360.472056 152.360302,358.282867 L150.792203,351.362482 Z" id="Fill-11" opacity="0.8"></path>
                <path d="M148.039191,103.586092 C146.896101,101.679683 144.280182,100.118961 142.227354,100.118961 C140.176217,100.118961 138.375343,98.2964077 138.226538,96.0682717 C138.226538,96.0682717 136.292077,67.1384407 136.292077,52.3885907 C136.292077,28.3753764 128.675984,-0.67766953 124.431669,-0.67766953 C120.183972,-0.67766953 112.567879,28.3753764 112.567879,52.3885907 C112.567879,67.1384407 110.398375,96.0734056 110.398375,96.0734056 C110.230969,98.2998304 108.477442,100.118961 106.495634,100.118961 C104.518899,100.118961 101.965547,101.679683 100.817383,103.586092 L97.5132435,109.10167 C96.3650802,111.008078 95.4299782,114.396488 95.4299782,116.626335 L95.4299782,189.444628 C95.4299782,191.674475 95.5990744,195.319582 95.8019899,197.542585 L100.771727,251.267702 C100.974643,253.490704 101.143739,257.137523 101.143739,259.36737 L101.143739,342.415922 C101.143739,342.978946 101.114993,343.629247 101.072719,344.32233 L147.788929,344.32233 C147.741582,343.629247 147.717908,342.978946 147.717908,342.415922 L147.717908,259.36737 C147.717908,257.137523 147.885313,253.490704 148.08992,251.267702 L153.057967,197.542585 C153.260882,195.319582 153.429978,191.674475 153.429978,189.444628 L153.429978,116.626335 C153.429978,114.396488 152.494876,111.008078 151.351786,109.10167 L148.039191,103.586092 Z" id="Fill-14"></path>
                <path d="M41.2766953,210.45043 C41.2766953,194.014755 36.1408104,174.127417 33.2791982,174.127417 C30.4109116,174.127417 25.2766953,194.014755 25.2766953,210.45043 L25.2766953,250.127417 L41.2766953,234.876002 L41.2766953,210.45043 Z" id="Fill-16"></path>
                <path d="M226.538672,210.452068 C226.538672,194.015652 221.404456,174.127417 218.541175,174.127417 C215.674557,174.127417 210.538672,194.015652 210.538672,210.452068 L210.538672,234.878742 L226.538672,250.127417 L226.538672,210.452068 Z" id="Fill-18"></path>
            </g>
        </g>
    </g>
</svg>