<?xml version="1.0" encoding="UTF-8"?>
<svg width="300px" height="300px" viewBox="0 0 300 300" version="1.1" xmlns="http://www.w3.org/2000/svg" xmlns:xlink="http://www.w3.org/1999/xlink">
    <!-- Generator: Sketch 46.2 (44496) - http://www.bohemiancoding.com/sketch -->
    <title>img_NO-LOGO--etf</title>
    <desc>Created with Sketch.</desc>
    <defs></defs>
    <g id="UI" stroke="none" stroke-width="1" fill="none" fill-rule="evenodd">
        <g id="img_NO-LOGO--etf" fill="#000000">
            <path d="M150.818182,19 L25.0786795,73.5683028 L276.559545,73.5683028 L150.818182,19 Z M25.0563443,100.325193 L276.581881,100.325193 L276.581881,83.3109761 L25.0563443,83.3109761 L25.0563443,100.325193 Z M221.19813,106.870701 L221.19813,219.014097 L254.572442,219.014097 L254.574304,106.870701 L221.19813,106.870701 Z M163.152774,219.014097 L196.528947,219.014097 L196.528947,106.870701 L163.152774,106.870701 L163.152774,219.014097 Z M105.109278,219.014097 L138.48359,219.014097 L138.48359,106.870701 L105.109278,106.870701 L105.109278,219.014097 Z M47.0657826,219.014097 L80.4400946,219.014097 L80.4400946,106.870701 L47.0657826,106.870701 L47.0657826,219.014097 Z M25.0563443,243.023628 L276.581881,243.023628 L276.581881,226.009411 L25.0563443,226.009411 L25.0563443,243.023628 Z M9.81818182,277.5 L291.818182,277.5 L291.818182,250.298904 L9.81818182,250.298904 L9.81818182,277.5 Z" id="Page-1"></path>
        </g>
    </g>
</svg>