<?xml version="1.0" encoding="UTF-8"?>
<svg width="400px" height="400px" viewBox="0 0 400 400" version="1.1" xmlns="http://www.w3.org/2000/svg" xmlns:xlink="http://www.w3.org/1999/xlink">
    <!-- Generator: Sketch 47 (45396) - http://www.bohemiancoding.com/sketch -->
    <title>img_list-sellrallies</title>
    <desc>Created with Sketch.</desc>
    <defs>
        <linearGradient x1="13.92863%" y1="15.7436536%" x2="100%" y2="100%" id="linearGradient-1">
            <stop stop-color="#EC2E2E" offset="0%"></stop>
            <stop stop-color="#8D135F" offset="100%"></stop>
        </linearGradient>
    </defs>
    <g id="list-img__Bear" stroke="none" stroke-width="1" fill="none" fill-rule="evenodd">
        <g id="img_list-sellrallies" fill="url(#linearGradient-1)">
            <g transform="translate(199.000000, 204.000000) scale(-1, 1) rotate(-180.000000) translate(-199.000000, -204.000000) translate(24.000000, 27.000000)">
                <path d="M29.9519738,232.372774 L16.49808,232.372774 L16.49808,185.081764 C16.49808,183.93263 15.5813834,183 14.4500538,183 L2.04802621,183 C0.917515744,183 2.99749375e-15,183.93263 2.99749375e-15,185.081764 L2.99749375e-15,264.918236 C2.99749375e-15,266.068203 0.917515744,267 2.04802621,267 L14.4500538,267 C15.5813834,267 16.49808,266.068203 16.49808,264.918236 L16.49808,248.090924 L29.9519738,248.090924 C31.0833035,248.090924 32,247.159126 32,246.00916 L32,234.454538 C32,233.304572 31.0833035,232.372774 29.9519738,232.372774" id="Fill-1"></path>
                <path d="M82.9519738,159.207449 L69.49808,159.207449 L69.49808,129.058931 C69.49808,127.921578 68.5813834,127 67.4500538,127 L55.0480262,127 C53.9175157,127 53,127.921578 53,129.058931 L53,205.941069 C53,207.078422 53.9175157,208 55.0480262,208 L67.4500538,208 C68.5813834,208 69.49808,207.078422 69.49808,205.941069 L69.49808,174.753203 L82.9519738,174.753203 C84.0833035,174.753203 85,173.831625 85,172.694272 L85,161.26638 C85,160.129026 84.0833035,159.207449 82.9519738,159.207449" id="Fill-4" opacity="0.698596014"></path>
                <path d="M135.951921,78.5983617 L122.497683,78.5983617 L122.497683,66.0663517 C122.497683,64.9257256 121.580963,64 120.449604,64 L108.048079,64 C106.917539,64 106,64.9257256 106,66.0663517 L106,184.933648 C106,186.075101 106.917539,187 108.048079,187 L120.449604,187 C121.580963,187 122.497683,186.075101 122.497683,184.933648 L122.497683,94.2001438 L135.951921,94.2001438 C137.08328,94.2001438 138,93.2752448 138,92.1337921 L138,80.6647134 C138,79.5232607 137.08328,78.5983617 135.951921,78.5983617" id="Fill-6"></path>
                <path d="M188.951921,25.9785973 L175.497683,25.9785973 L175.497683,3.06257409 C175.497683,1.92320816 174.580963,1 173.449604,1 L161.048079,1 C159.917539,1 159,1.92320816 159,3.06257409 L159,101.937426 C159,103.076792 159.917539,104 161.048079,104 L173.449604,104 C174.580963,104 175.497683,103.076792 175.497683,101.937426 L175.497683,41.5526817 L188.951921,41.5526817 C190.08328,41.5526817 191,40.6294736 191,39.4901077 L191,28.0411714 C191,26.9018055 190.08328,25.9785973 188.951921,25.9785973" id="Fill-8" opacity="0.698596014"></path>
                <path d="M228.677433,160.925814 L228.677433,110.667455 L241.929607,110.667455 C243.073292,110.667455 244,109.739049 244,108.593269 L244,97.0798764 C244,95.9349256 243.073292,95.0056902 241.929607,95.0056902 L228.677433,95.0056902 L228.677433,52.0741861 C228.677433,50.9284057 227.750725,50 226.607039,50 L214.070393,50 C212.926708,50 212,50.9284057 212,52.0741861 L212,160.925814 C212,162.071594 212.926708,163 214.070393,163 L226.607039,163 C227.750725,163 228.677433,162.071594 228.677433,160.925814" id="Fill-10"></path>
                <path d="M267.048026,241 L279.450054,241 C280.581383,241 281.49808,240.075101 281.49808,238.933648 L281.49808,157.584687 L294.951974,157.584687 C296.082484,157.584687 297,156.658961 297,155.518335 L297,144.04843 C297,142.906977 296.082484,141.982078 294.951974,141.982078 L281.49808,141.982078 L281.49808,120.066352 C281.49808,118.924899 280.581383,118 279.450054,118 L267.048026,118 C265.916697,118 265,118.924899 265,120.066352 L265,238.933648 C265,240.075101 265.916697,241 267.048026,241" id="Fill-12" opacity="0.698596014"></path>
                <path d="M347.951974,81.5980075 L334.49808,81.5980075 L334.49808,70.0729934 C334.49808,68.9278718 333.581383,68 332.450054,68 L320.048026,68 C318.917516,68 318,68.9278718 318,70.0729934 L318,134.927007 C318,136.072128 318.917516,137 320.048026,137 L332.450054,137 C333.581383,137 334.49808,136.072128 334.49808,134.927007 L334.49808,97.2507661 L347.951974,97.2507661 C349.083303,97.2507661 350,96.3228943 350,95.1777727 L350,83.6710009 C350,82.5258794 349.083303,81.5980075 347.951974,81.5980075" id="Fill-14"></path>
                <polygon id="Fill-17" opacity="0.698596014" points="246 316 301 316 273.5 277"></polygon>
                <path d="M273.000413,341.154058 C252.047069,341.154058 235,324.107815 235,303.154471 C235,282.2003 252.047069,265.154058 273.000413,265.154058 C293.953758,265.154058 311,282.2003 311,303.154471 C311,324.107815 293.953758,341.154058 273.000413,341.154058 M273,252 C244.877973,252 222,274.878613 222,303.000413 C222,331.121387 244.877973,354 273,354 C301.122027,354 324,331.121387 324,303.000413 C324,274.878613 301.122027,252 273,252" id="Fill-19"></path>
            </g>
        </g>
    </g>
</svg>