<?xml version="1.0" encoding="UTF-8"?>
<svg width="400px" height="400px" viewBox="0 0 400 400" version="1.1" xmlns="http://www.w3.org/2000/svg" xmlns:xlink="http://www.w3.org/1999/xlink">
    <defs></defs>
    <g id="list-img__Ideas" stroke="none" stroke-width="1" fill="#0A5FFF" fill-rule="evenodd">
        <g id="img_list-watching">
            <g transform="translate(2.000000, 98.000000)">
                <path d="M198,46 C188.052816,46 180,37.9401942 180,28 C180,18.0598058 188.052816,10 198,10 C207.940194,10 216,18.0598058 216,28 C216,37.9401942 207.940194,46 198,46 M315,31.2524639 C306.882898,23.2317316 296.870863,14.2811622 287.848718,8.84409947 C269.959983,-1.93065414 253.739921,1.65383241 244.717776,11.9317265 C235.943104,7.4670888 225.266428,5.96941225 213.380672,4.91181126 C208.855458,1.80998826 203.382778,-5.37851014e-15 197.492929,-5.37851014e-15 C191.59601,-5.37851014e-15 186.12333,1.81708625 181.598117,4.91181126 C169.726501,5.96941225 159.049825,7.4670888 150.289295,11.9317265 C141.26715,1.65383241 125.047087,-1.93065414 107.158352,8.84409947 C98.1291371,14.2811622 88.1241726,23.2317316 80,31.2524639 C129.4521,31.7919114 169.38004,72.1794924 169.38004,121.95062 C169.38004,127.785171 168.814388,133.477761 167.767932,139 C175.665844,131.021856 188.569774,113.660164 183.507191,88.7320125 C181.576905,79.2136036 179.017331,70.3411122 176.153719,62.1855181 C178.960765,60.9007813 182.524371,56.1309299 185.642526,54.1150998 C189.255626,55.7973242 193.257612,56.7555533 197.492929,56.7555533 C201.728246,56.7555533 205.737303,55.7902262 209.350403,54.1150998 C212.468558,56.1167339 216.039235,60.9007813 218.853352,62.1855181 C215.98974,70.3411122 213.423095,79.2136036 211.492809,88.7320125 C206.437297,113.660164 219.341226,131.021856 227.239138,139 C226.192683,133.477761 225.61996,127.785171 225.61996,121.95062 C225.61996,72.1794924 265.5479,31.7919114 315,31.2524639 M316.5,181 C283.641368,181 257,154.357045 257,121.496455 C257,88.6358654 283.641368,62 316.5,62 C349.358632,62 376,88.6358654 376,121.496455 C376,154.357045 349.358632,181 316.5,181 M316.5,42 C272.59205,42 237,77.5849728 237,121.492923 C237,165.40795 272.59205,201 316.5,201 C360.40795,201 396,165.40795 396,121.492923 C396,77.5849728 360.40795,42 316.5,42 M79.4964552,181 C46.6358654,181 20,154.357045 20,121.496455 C20,88.6358654 46.6358654,62 79.4964552,62 C112.364135,62 139,88.6358654 139,121.496455 C139,154.357045 112.364135,181 79.4964552,181 M79.4929226,42 C35.5920502,42 1.31904036e-14,77.5849728 1.31904036e-14,121.492923 C1.31904036e-14,165.40795 35.5920502,201 79.4929226,201 C123.400872,201 159,165.40795 159,121.492923 C159,77.5849728 123.400872,42 79.4929226,42" id="Fill-1"></path>
                <path d="M198.5,19 C193.265601,19 189,23.2583714 189,28.5 C189,33.7416286 193.265601,38 198.5,38 C203.741629,38 208,33.7416286 208,28.5 C208,23.2583714 203.741629,19 198.5,19" id="Path" opacity="0.6"></path>
                <path d="M337.952482,76.7474165 C331.000771,72.9845658 323.148434,71 315.225735,71 C288.629108,71 267,92.872903 267,119.760569 C267,120.023755 267.014072,120.286941 267.028145,120.543014 L267.049253,120.848879 C267.084434,122.513354 268.365012,123.871963 270.004434,123.992887 C270.081831,124 270.159229,124 270.22959,124 C271.777542,124 273.11441,122.869011 273.374747,121.311233 C275.745928,106.871561 285.01253,93.946987 298.156048,86.7271507 C309.744578,80.3680043 323.598747,78.9596027 335.806458,82.8220373 C336.144193,82.9358475 336.474892,82.9714132 336.819663,82.9714132 C338.571663,82.9714132 340,81.527446 340,79.7562743 C340,78.3834385 339.148627,77.2097705 337.952482,76.7474165" id="Path" opacity="0.7"></path>
                <path d="M100.952482,76.7474165 C94.0007711,72.9845658 86.1554699,71 78.2257349,71 C51.6291084,71 30,92.872903 30,119.760569 C30,120.023755 30.0140723,120.286941 30.0281446,120.543014 L30.049253,120.848879 C30.0844337,122.513354 31.365012,123.871963 33.0044337,123.992887 C33.0818313,124 33.1592289,124 33.2366265,124 C34.7775422,124 36.1144096,122.869011 36.3677108,121.311233 C38.7459277,106.871561 48.0125301,93.946987 61.1560482,86.7271507 C72.7445783,80.3680043 86.6057831,78.9596027 98.8064578,82.8220373 C99.1441928,82.9358475 99.4819277,82.9714132 99.8196627,82.9714132 C101.571663,82.9714132 103,81.527446 103,79.7562743 C103,78.3834385 102.148627,77.2097705 100.952482,76.7474165" id="Path" opacity="0.7"></path>
            </g>
        </g>
    </g>
</svg>