<?xml version="1.0" encoding="UTF-8"?>
<svg width="400px" height="400px" viewBox="0 0 400 400" version="1.1" xmlns="http://www.w3.org/2000/svg" xmlns:xlink="http://www.w3.org/1999/xlink">
    <defs></defs>
    <g id="list-img__Ideas" stroke="none" stroke-width="1"  fill="#FFFFFF" fill-rule="evenodd">
        <g id="img_list-smallcap">
            <g transform="translate(200.500000, 279.500000) scale(-1, 1) translate(-200.500000, -279.500000) translate(82.000000, 191.000000)">
                <path d="M82.7264151,-1.06878211e-14 L82.7264151,164.189354 L81.9811321,164.189354 L81.8358019,164.189354 L80.490566,164.189354 L12.7741509,164.189354 L12.7741509,164.318953 L1.70627401e-13,164.318953 L1.70627401e-13,176 L237,176 L237,164.318953 L225.717906,164.318953 L225.717906,76.9788657 L150.898198,48.8901303 L150.898198,27.5107534 L82.7264151,-1.06878211e-14 Z M90.0993868,32.7667522 L90.0993868,16 L106.099387,21.8826668 L106.099387,38 L90.0993868,32.7667522 Z M112.75317,41.2074878 L112.75317,25 L126.75317,30.3865437 L126.75317,46 L112.75317,41.2074878 Z M132.1625,46.8327546 L132.1625,32 L145.1625,36.6847608 L145.1625,51 L132.1625,46.8327546 Z M90.0993868,57.7183531 L90.0993868,41 L106.099387,45.9284505 L106.099387,62 L90.0993868,57.7183531 Z M112.75317,64.094746 L112.75317,48 L126.75317,52.496662 L126.75317,68 L112.75317,64.094746 Z M132.1625,69.4394554 L132.1625,54 L145.1625,58.0969918 L145.1625,73 L132.1625,69.4394554 Z M157.161292,77.5771693 L157.161292,64 L221.161292,85.1920971 L221.161292,96 L157.161292,77.5771693 Z M90.0993868,81.6660512 L90.0993868,65 L106.099387,68.9787289 L106.099387,85 L90.0993868,81.6660512 Z M112.75317,86.9725768 L112.75317,71 L126.75317,74.6128448 L126.75317,90 L112.75317,86.9725768 Z M132.1625,91.2530363 L132.1625,76 L145.1625,79.2784153 L145.1625,94 L132.1625,91.2530363 Z M90.0993868,105.608623 L90.0993868,89 L106.099387,92.033199 L106.099387,108 L90.0993868,105.608623 Z M157.161292,103.678063 L157.161292,90 L221.161292,106.109851 L221.161292,117 L157.161292,103.678063 Z M112.75317,109.838248 L112.75317,94 L126.75317,96.741535 L126.75317,112 L112.75317,109.838248 Z M132.1625,113.049875 L132.1625,98 L145.1625,100.475215 L145.1625,115 L132.1625,113.049875 Z M90.0993868,130.545277 L90.0993868,114 L106.099387,116.094831 L106.099387,132 L90.0993868,130.545277 Z M157.161292,129.828808 L157.161292,116 L221.161292,126.990584 L221.161292,138 L157.161292,129.828808 Z M112.75317,132.691572 L112.75317,117 L126.75317,118.882842 L126.75317,134 L112.75317,132.691572 Z M132.1625,133.826105 L132.1625,119 L145.1625,120.690497 L145.1625,135 L132.1625,133.826105 Z M90.0993868,154.475047 L90.0993868,138 L106.099387,139.163803 L106.099387,155 L90.0993868,154.475047 Z M112.75317,155.53121 L112.75317,140 L126.75317,141.03949 L126.75317,156 L112.75317,155.53121 Z M132.1625,156.553399 L132.1625,141 L145.1625,141.989287 L145.1625,157 L132.1625,156.553399 Z M157.161292,155.075813 L157.161292,141 L221.161292,146.793939 L221.161292,158 L157.161292,155.075813 Z" id="Fill-1"></path>
                <path d="M12,27.3662201 L12,162 L80,162 L80,-5.10702591e-15 L12,27.3662201 Z M58.0305525,21.8830125 L74.0305525,16 L74.0305525,32.7648767 L58.0305525,38 L58.0305525,21.8830125 Z M36.6935065,29.3889974 L50.6935065,24 L50.6935065,40.2057292 L36.6935065,45 L36.6935065,29.3889974 Z M18.1087387,36.6854938 L31.1087387,32 L31.1087387,46.8312886 L18.1087387,51 L18.1087387,36.6854938 Z M58.0305525,45.9301513 L74.0305525,41 L74.0305525,57.7165838 L58.0305525,62 L58.0305525,45.9301513 Z M36.6935065,52.4970771 L50.6935065,48 L50.6935065,64.093532 L36.6935065,68 L36.6935065,52.4970771 Z M18.1087387,58.0991165 L31.1087387,54 L31.1087387,69.4380723 L18.1087387,73 L18.1087387,58.0991165 Z M58.0305525,68.9812422 L74.0305525,65 L74.0305525,81.6649435 L58.0305525,85 L58.0305525,68.9812422 Z M36.6935065,74.6148058 L50.6935065,71 L50.6935065,86.9705697 L36.6935065,90 L36.6935065,74.6148058 Z M18.1087387,79.280402 L31.1087387,76 L31.1087387,91.2517588 L18.1087387,94 L18.1087387,79.280402 Z M58.0305525,92.0356728 L74.0305525,89 L74.0305525,105.606786 L58.0305525,108 L58.0305525,92.0356728 Z M36.6935065,96.7426804 L50.6935065,94 L50.6935065,109.836289 L36.6935065,112 L36.6935065,96.7426804 Z M18.1087387,99.4765946 L31.1087387,97 L31.1087387,112.047729 L18.1087387,114 L18.1087387,99.4765946 Z M58.0305525,116.096126 L74.0305525,114 L74.0305525,130.543196 L58.0305525,132 L58.0305525,116.096126 Z M36.6935065,118.884885 L50.6935065,117 L50.6935065,132.69095 L36.6935065,134 L36.6935065,118.884885 Z M18.1087387,120.691807 L31.1087387,119 L31.1087387,133.824014 L18.1087387,135 L18.1087387,120.691807 Z M58.0305525,139.165114 L74.0305525,138 L74.0305525,154.472195 L58.0305525,155 L58.0305525,139.165114 Z M36.6935065,141.040757 L50.6935065,140 L50.6935065,155.529112 L36.6935065,156 L36.6935065,141.040757 Z M18.1087387,141.98996 L31.1087387,141 L31.1087387,156.551136 L18.1087387,157 L18.1087387,141.98996 Z" id="Fill-2" opacity="0.800951087"></path>
            </g>
        </g>
    </g>
</svg>