<?xml version="1.0" encoding="UTF-8"?>
<svg width="400px" height="400px" viewBox="0 0 400 400" version="1.1" xmlns="http://www.w3.org/2000/svg" xmlns:xlink="http://www.w3.org/1999/xlink">
    <defs></defs>
    <g id="list-img__Ideas" stroke="none" stroke-width="1" fill="#0A5FFF" fill-rule="evenodd">
        <g id="img_list-holding">
            <g transform="translate(35.000000, 56.000000)">
                <path d="M91.2027331,34 L117.813805,34 C120.122325,34 122,30.751685 122,26.7595317 L122,14.2404683 C122,10.248315 120.122325,7 117.813805,7 C102.151696,7 93.2673909,14.6814582 88.5725501,21.1256211 C87.1714856,23.047646 86.6491102,26.1843853 87.2394794,29.1172332 C87.837694,32.0839524 89.3930521,34 91.2027331,34" id="Fill-1" opacity="0.65"></path>
                <path d="M212.186158,34 L238.796994,34 C240.607313,34 242.162657,32.0839524 242.760213,29.1172332 C243.351231,26.1843853 242.828206,23.047646 241.428462,21.1256211 C236.732355,14.6814582 227.848129,7 212.186158,7 C209.877658,7 208,10.248315 208,14.2404683 L208,26.7595317 C208,30.751685 209.877658,34 212.186158,34" id="Fill-3" opacity="0.65"></path>
                <path d="M131.84795,16.9476959 L131.84795,16.9476959 C154.178422,11.3041467 176.821578,11.3041467 199.15205,16.9476959 C199.291168,16.982786 199.428299,17 199.564105,17 C200.164964,17 200.723424,16.6577059 201.166615,16.0068837 C201.704539,15.2190114 202,14.0815621 202,12.8057387 L202,9.53772382 C202,6.99667014 200.798283,4.6257704 199.320317,4.25302073 C176.879213,-1.41767358 154.122112,-1.41767358 131.679683,4.25302073 C130.202379,4.6257704 129,6.99667014 129,9.53772382 L129,12.8057387 C129,14.0815621 129.295461,15.2183493 129.832722,16.0062216 C130.375946,16.8046871 131.091412,17.1370501 131.84795,16.9476959" id="Fill-5"></path>
                <path d="M309.76374,42 L20.23626,42 C9.10602,42 -3.63797669e-14,51.1113496 -3.63797669e-14,62.2466364 L3.96,130 L140.9892,130 L139.21116,113.655303 C139.21116,110.265786 141.9825,107.493025 145.37028,107.493025 L184.62972,107.493025 C188.0175,107.493025 190.78884,110.265786 190.78884,113.655303 L189.0108,130 L326.04,130 L330,62.2466364 C330,51.1113496 320.89332,42 309.76374,42" id="Fill-10"></path>
                <path d="M186.522894,155.623917 C186.522894,158.763047 183.750306,161.330944 180.36166,161.330944 L149.299297,161.330944 C145.910652,161.330944 143.137403,158.763047 143.137403,155.623917 L141.301777,140 L9,140 L9,242.248909 C9,252.561677 18.1107813,261 29.246034,261 L299.754626,261 C310.889879,261 320,252.561677 320,242.248909 L320,140 L188.35918,140 L186.522894,155.623917 Z" id="Fill-7" opacity="0.75"></path>
                <path d="M149.773182,138.208355 L150.374018,144.235908 L150.707019,147.568995 C150.707019,150.006148 152.533637,152 154.766895,152 L175.233756,152 C177.467014,152 179.292981,150.006148 179.292981,147.568995 L179.625982,144.235908 L180.226818,138.208355 L180.540921,135.059255 L181.622034,124.222058 L182,120.430338 C182,117.993186 180.173381,116 177.940123,116 L152.059877,116 C149.82727,116 148,117.993186 148,120.430338 L148.377966,124.222058 L149.459079,135.059255 L149.773182,138.208355 Z" id="Fill-13" opacity="0.9"></path>
            </g>
        </g>
    </g>
</svg>