<?xml version="1.0" encoding="UTF-8"?>
<svg width="400px" height="400px" viewBox="0 0 400 400" version="1.1" xmlns="http://www.w3.org/2000/svg" xmlns:xlink="http://www.w3.org/1999/xlink">
    <defs></defs>
    <g id="list-img__Ideas" stroke="none" stroke-width="1" fill="#FFFFFF" fill-rule="evenodd">
        <g id="img_list-underten">
            <g transform="translate(20.000000, 30.000000)">
                <path d="M207.964001,233.73747 C207.391041,233.492687 204.067868,232.152456 204.067868,232.152456 C202.930627,231.688931 202,232.319117 202,233.544768 L202,253.98675 C202,255.212401 202.998341,256.113411 204.218921,255.988415 C204.218921,255.988415 210.903464,255.304412 213.820356,253.21768 C217.928311,250.292437 219.345087,244.551322 216.541051,240.077522 C214.834323,237.369285 211.297592,235.136725 207.964001,233.73747" id="Fill-1"></path>
                <path d="M186.831507,188.049962 C186.831507,188.049962 181.323016,189.282367 178.446091,191.596927 C174.598096,194.691354 173.870658,200.905251 176.780412,205.23566 C179.147612,208.76295 184.455668,210.929049 184.455668,210.929049 C185.590887,211.394108 186.746841,211.866321 187.028486,211.980797 C187.310131,212.091695 189,211.739324 189,210.476511 L189,189.861901 C189,188.599088 188.023746,187.785236 186.831507,188.049962" id="Fill-3"></path>
                <path d="M242.501773,68 C260.998042,68 276,52.9988358 276,34.4964545 C276,16.0011642 260.998042,1 242.501773,1 C223.998412,1 209,16.0011642 209,34.4964545 C209,52.9988358 223.998412,68 242.501773,68" id="Fill-5" opacity="0.7"></path>
                <path d="M341.546651,150.661655 C340.570865,152.086477 339.241242,153.548562 337.780298,155 C337.537719,154.891763 337.278726,154.808368 337.045267,154.693033 C333.971996,153.158199 331.515203,150.97217 329.997718,147.923795 C329.286397,146.486552 329.000045,145.123833 329.000045,143.823216 C328.992749,141.624767 329.871869,139.566492 331.188725,138.148767 C332.521995,136.715073 334.117908,136 335.701052,136 C337.027028,136.017744 338.58099,136.432947 340.556273,138.109731 C341.973444,139.332275 342.810613,140.444808 343.308538,141.429585 C343.802815,142.417912 343.9925,143.292678 343.999796,144.257938 C344.014387,145.986179 343.246525,148.198823 341.546651,150.661655 M224.057702,260.538531 C219.115259,264.361171 204.457689,266.537977 204.457689,266.537977 C203.223404,266.719671 202.211927,267.889219 202.211927,269.13462 L202.211927,272.734993 C202.211927,273.97863 201.189841,275 199.94141,275 L191.285504,275 C190.037073,275 189.016755,273.97863 189.016755,272.734993 L189.016755,268.607177 C189.016755,267.361776 188.026498,266.095207 186.813433,265.790031 C186.813433,265.790031 166.407068,260.667305 161.593712,253.93579 C158.449646,249.550426 168.645756,241.926314 172.217754,246.923794 C172.408732,247.195454 172.635076,247.456529 172.870262,247.698201 C173.190328,248.049241 172.394585,247.334812 173.351244,248.172723 C173.726127,248.502596 174.106315,248.834232 174.509491,249.141172 C176.992207,251.02515 181.176042,253.276045 184.374925,254.230382 C185.748907,254.639635 186.802823,254.88307 186.802823,254.88307 C188.019424,255.161786 189.016755,254.373267 189.016755,253.127867 L189.016755,228.392722 C189.016755,227.149085 188.068937,225.744922 186.915995,225.2704 C186.915995,225.2704 175.772069,220.726274 173.872897,219.844262 C169.667842,217.916184 166.339872,214.596291 164.316919,210.981805 C159.837774,202.985485 162.090609,193.179275 169.826991,186.670027 C174.847239,182.443425 186.813433,179.428708 186.813433,179.428708 C188.026498,179.123532 189.016755,177.853435 189.016755,176.608034 L189.016755,172.265007 C189.016755,171.019606 190.037073,170 191.285504,170 L199.94141,170 C201.189841,170 202.211927,171.019606 202.211927,172.265007 L202.211927,176.354014 C202.211927,177.599415 203.226941,178.738975 204.468299,178.885389 C204.468299,178.885389 206.989917,179.183509 209.249825,179.730356 C216.041926,181.376191 224.8782,185.899148 228.572212,191.057154 C231.707436,195.442518 221.514863,203.05781 217.941097,198.06915 C217.746582,197.804546 217.523775,197.541707 217.293893,197.287687 C216.970292,196.936646 217.764266,197.66166 216.81468,196.820221 C216.430955,196.492112 216.048999,196.160476 215.63875,195.851772 C213.163108,193.971322 208.839575,191.235321 205.637155,190.280984 C204.554946,189.952875 204.424091,189.922887 204.424091,189.922887 C203.209258,189.647699 202.211927,190.439746 202.211927,191.685147 L202.211927,216.527897 C202.211927,217.773298 203.17566,219.129832 204.356895,219.542614 C204.356895,219.542614 228.252147,227.889975 231.719814,236.830049 C235.008882,245.336173 231.785242,254.553198 224.057702,260.538531 M69.5,211 C65.3584443,211 62,204.282902 62,196.000876 C62,187.717098 65.3584443,181 69.5,181 C73.6415557,181 77,187.717098 77,196.000876 C77,204.282902 73.6415557,211 69.5,211 M360.339693,157.609957 C358.964344,155.208181 355.900342,154.370475 353.491269,155.740141 C352.59738,156.268567 351.121137,156.728068 349.384692,156.980794 C349.499747,156.814667 349.630733,156.664445 349.742248,156.498318 C352.094679,152.990205 353.811652,148.983711 353.825813,144.540691 C353.829353,142.123009 353.275319,139.627566 352.12654,137.305319 C350.984841,134.97777 349.280258,132.839324 347.101294,130.916489 C343.699208,127.873179 339.647504,126.277298 335.732096,126.291436 C330.990062,126.294971 326.771971,128.520015 323.874356,131.763031 C320.960811,135.021953 319.196045,139.376608 319.188965,144.1077 C319.185425,146.88768 319.815572,149.787837 321.159059,152.553679 C323.130924,156.64147 326.120583,159.781982 329.492578,162.072417 C328.170331,162.980815 326.844544,163.816753 325.525837,164.599672 C309.359732,121.001874 270.465851,98.1381697 231.442755,91 C233.290714,95.6391917 234.335059,100.683098 234.335059,105.979729 C234.335059,109.57444 233.802266,113.036603 232.908378,116.355613 C240.864869,117.514969 244.861701,118.918214 245.282979,119.070203 C248.649664,120.305553 250.379028,124.029278 249.143515,127.390704 C247.911542,130.743293 244.201463,132.462886 240.845399,131.25758 L240.845399,131.261115 L240.813537,131.245209 L240.583427,131.174517 C240.340927,131.094988 239.926729,130.973043 239.340834,130.813985 C238.167273,130.501171 236.294533,130.055809 233.683671,129.60161 C228.461946,128.696746 220.285965,127.756537 208.840653,127.756537 C205.477509,127.756537 201.832922,127.836066 197.898043,128.025168 C169.835257,129.363023 154.375413,138.439933 154.047949,138.63257 L154.047949,138.629035 C150.982177,140.475875 147.003046,139.509156 145.142696,136.455242 C143.277036,133.396027 144.245268,129.408973 147.30927,127.546227 C147.594252,127.374798 150.879513,125.423686 156.86768,123.113811 C154.414355,117.905545 153.007144,112.114066 153.007144,105.979729 C153.007144,103.394153 153.272656,100.877502 153.738186,98.429776 C135.017861,105.774721 117.920697,115.791841 102.913992,126.323248 C84.4343979,104.228324 64.6237067,104.785027 64.6237067,104.785027 C68.7409036,117.603334 74.4193076,138.337429 76.6531436,146.581935 C59.0125656,161.32131 46.2326165,173.992931 39.5594298,177.7467 C24.2075601,186.392386 20.5629735,187.111681 20.5629735,187.111681 C1.66918172,185.234797 -4.83066278e-15,194.108466 -4.83066278e-15,207.644302 L9.74072854,236.824376 C14.9305915,249.784069 24.2075601,262.413274 37.7628026,262.413274 L51.712772,266.741419 C74.8087244,289.795993 107.28077,304.20488 118.103015,306.373371 L114.325672,330.184354 C114.325672,334.835917 117.616244,338.603824 121.675028,338.603824 L151.713219,338.603824 C155.770233,338.603824 164.001087,317.54101 164.001087,317.54101 C175.418077,320.054127 186.527075,321.489183 196.751034,321.414956 C214.671284,321.277106 222.169326,320.617899 237.363659,316.786368 L244.213853,331.582297 C244.213853,336.230325 247.500885,340 251.563209,340 L275.029107,340 C279.084352,340 282.376693,336.230325 282.376693,331.582297 C282.376693,331.582297 294.728284,290.220147 294.668101,289.77832 C317.323305,270.977664 332.167162,245.470062 333.252219,217.366281 C333.868206,201.361511 332.131761,187.094008 328.639401,174.34816 C332.448605,172.234456 336.457827,169.608232 340.242249,166.515437 C342.414133,166.962567 344.587786,167.202921 346.695947,167.206456 C350.981301,167.188783 355.024155,166.379354 358.468723,164.447683 C360.874256,163.074483 361.713272,160.015267 360.339693,157.609957" id="Fill-8"></path>
                <path d="M222.401439,118.684819 C222.844631,118.767786 223.277187,118.69188 223.702651,118.698941 C225.801609,114.352884 227,109.494904 227,104.354483 C227,85.9305222 211.998836,71 193.503546,71 C175.001164,71 160,85.9305222 160,104.354483 C160,111.710298 162.423374,118.48711 166.470604,124 C168.590835,123.279776 198.102106,114.160472 222.401439,118.684819" id="Fill-11" opacity="0.8"></path>
            </g>
        </g>
    </g>
</svg>