<?xml version="1.0" encoding="UTF-8"?>
<svg width="400px" height="400px" viewBox="0 0 400 400" version="1.1" xmlns="http://www.w3.org/2000/svg" xmlns:xlink="http://www.w3.org/1999/xlink">
    <defs></defs>
    <g id="list-img__Themes" stroke="none" stroke-width="1" fill="#7A00A1" fill-rule="evenodd">
        <g id="img_list-china">
            <g id="icon" transform="translate(7.000000, 80.000000)">
                <path d="M249,188 L279,188 L279,139 L249,139 L249,188 Z M151,129 L236,129 L236,100 L151,100 L151,129 Z M112,188 L137,188 L137,139 L112,139 L112,188 Z M142,82.0753184 L142,55 L193.5,55 L245,55 L245,82.0753184 L235.895227,82.0753184 L235.895227,91 L151.104773,91 L151.104773,82.0753184 L142,82.0753184 Z M313.542913,176.25376 L313.542913,138.744708 L329.096,138.744708 C329.096,138.744708 374.6192,137.140081 386,104.894725 C386,104.894725 322.647265,118.552074 312.0248,90.4790348 L322.647265,90.4790348 L322.647265,81.6384497 L254.741633,81.6384497 L254.741633,54.8182597 L257.018081,54.8182597 C297.704369,54.8182597 320.370816,14.2268255 320.370816,14.2268255 C242.886513,44.6700407 266.975921,0 266.975921,0 L242.86777,2.50425577 C209.712937,5.94706681 176.289947,5.94706681 143.135113,2.50425577 L119.025521,0 C119.025521,0 143.113487,44.6700407 65.6306253,14.2268255 C65.6306253,14.2268255 88.2970729,54.8182597 128.983361,54.8182597 L131.259809,54.8182597 L131.259809,81.6384497 L63.354177,81.6384497 L63.354177,90.4790348 L73.9751997,90.4790348 C63.354177,118.552074 0,104.894725 0,104.894725 C11.3808,137.140081 56.9039998,138.744708 56.9039998,138.744708 L77.5794561,138.744708 L77.5794561,176.25376 L85.5463044,176.25376 L85.5463044,138.744708 L104.135617,138.744708 L104.135617,187.634643 L52.1622401,187.634643 L43.0578885,239 L136.950209,239 L150.607457,239 L150.607457,138.744708 L235.393984,138.744708 L235.393984,239 L249.051233,239 L342.943553,239 L333.839202,187.634643 L286.988194,187.634643 L286.988194,138.744708 L305.576065,138.744708 L305.576065,176.25376 L313.542913,176.25376 Z" id="Fill-1"></path>
                <polygon id="Fill-3" opacity="0.7" points="179 121 206 121 206 108 179 108"></polygon>
                <path d="M198.195056,191 L185.804944,191 C184.80827,191 184,191.895618 184,193 C184,194.104382 184.80827,195 185.804944,195 L198.195056,195 C199.19173,195 200,194.104382 200,193 C200,191.895618 199.19173,191 198.195056,191" id="Fill-4" opacity="0.7"></path>
                <polygon id="Fill-5" opacity="0.7" points="198 208 200 208 200 197 198 197"></polygon>
                <polygon id="Fill-6" opacity="0.7" points="191 208 193 208 193 197 191 197"></polygon>
                <polygon id="Fill-7" opacity="0.7" points="186 208 188 208 188 197 186 197"></polygon>
                <path d="M190.936313,140 L190.936313,153.572028 L189.665498,154.529165 C187.090272,154.529165 185,156.530196 185,159 L200,159 C200,156.530196 197.911189,154.529165 195.333041,154.529165 L194.063687,153.572028 L194.063687,140 L190.936313,140 Z" id="Fill-8" opacity="0.7"></path>
                <path d="M184,175.499733 C184,180.282436 185.385269,184.889798 188.001416,188.85994 C190.66289,189.046687 193.33711,189.046687 195.998584,188.85994 C198.616147,184.889798 200,180.282436 200,175.499733 C200,170.715604 198.614731,166.109668 195.998584,162.139526 C193.33711,161.952779 190.66289,161.954205 188.001416,162.139526 C185.385269,166.109668 184,170.715604 184,175.499733" id="Fill-9" opacity="0.85"></path>
                <path d="M181.702184,175.99929 C181.702184,171.404126 182.839457,166.957972 185,163 C184.684091,163.039736 184.365435,163.073795 184.050899,163.119207 C178.084339,163.987719 173.358065,168.179848 172.244143,173.596692 C171.918619,175.184706 171.918619,176.815294 172.244143,178.403308 C173.358065,183.818733 178.084339,188.012281 184.050899,188.879373 C184.365435,188.924786 184.684091,188.958845 185,189 C182.839457,185.040609 181.702184,180.594454 181.702184,175.99929" id="Fill-10" opacity="0.85"></path>
                <path d="M200.949025,163.119214 C200.634515,163.073799 200.315884,163.039738 200,163 C202.161745,166.958188 203.297554,171.403166 203.297554,176 C203.297554,180.595415 202.161745,185.041812 200,189 C200.315884,188.960262 200.634515,188.926201 200.949025,188.879367 C206.915113,188.013646 211.641012,183.819869 212.754847,178.404148 C213.081718,176.814629 213.081718,175.183952 212.754847,173.595852 C211.641012,168.180131 206.915113,163.986354 200.949025,163.119214" id="Fill-11" opacity="0.85"></path>
            </g>
        </g>
    </g>
</svg>