<?xml version="1.0" encoding="UTF-8"?>
<svg width="400px" height="400px" viewBox="0 0 400 400" version="1.1" xmlns="http://www.w3.org/2000/svg" xmlns:xlink="http://www.w3.org/1999/xlink">
    <defs></defs>
    <g id="list-img__Ideas" stroke="none" stroke-width="1" fill="#FFFFFF" fill-rule="evenodd">
        <g id="img_list-insiderconfidence">
            <g transform="translate(63.000000, 36.000000)">
                <polygon id="Fill-1" opacity="0.700747283" points="172.396923 -2.43614807e-14 172.396923 23.0053936 169.087925 23.6490268 169.087925 13.5426666 161.493584 13.5426666 161.493584 25.1184763 129 31.4169728 129 46 193 33.5935798 193 19.0129498 177.137975 22.0872873 177.137975 -2.43614807e-14"></polygon>
                <path d="M179.481969,195.107489 C170.592714,213.049277 161.741786,231.01138 152.341118,248.69387 C151.097916,251.016803 149.049866,252.764977 146.728743,253.550042 C146.01013,253.793807 145.284329,253.937198 144.574099,253.9838 C142.995544,254.085368 141.482862,253.708967 140.23966,252.86535 C132.217533,247.423665 128.325041,244.586915 120.705338,238.846498 C117.736264,236.6096 117.137419,231.762987 119.275296,227.388369 C126.83751,211.670335 134.155395,195.856706 141.365488,179.976162 C143.615947,174.989743 148.048598,172.070543 151.747064,173.267857 C161.129767,176.302965 165.974422,177.844417 176.11646,180.924932 C178.381292,181.612014 180.066442,183.572884 180.711996,186.297312 C181.358749,189.021739 180.902429,192.240865 179.481969,195.107489 L179.481969,195.107489 Z M156,315 L156,266.215455 C162.578853,265.823373 169.266182,265.411092 175.977351,265 C175.977351,281.668251 175.977351,298.331749 176,315 L156,315 Z M147,316 L128,316 L128,268.126256 C134.215021,267.736352 140.539441,267.37904 147,267 L147,316 Z M119,315 L102,315 L102,269.062465 C107.596679,268.7139 113.245849,268.368928 119,268 L119,315 Z M93,315 L77,315 L77,270.954369 C82.2474636,270.653239 87.6231437,270.324841 93,270 L93,315 Z M69,315 L54,315 L54,271.920407 C58.9205355,271.629563 63.9479371,271.314782 69,271 L69,315 Z M47.8611012,230.917187 C43.9123426,229.671792 41.1085683,225.846992 41.1971968,220.878584 C41.2463018,218.16027 42.1661218,215.53536 43.6692131,213.345142 C37.9227333,213.317599 33.3380054,208.68928 33.3823196,202.263521 C33.4086686,198.398006 35.1500987,194.708523 37.844884,192.057269 C32.8074321,190.965153 29,186.512866 29,180.648732 C29,174.624133 33.1427832,169.003091 38.6114006,166.7039 C35.1165636,164.841795 32.7164082,161.141534 32.7427573,156.583867 C32.751141,154.871449 33.1966789,152.886002 33.8865439,151.226274 C35.1033891,148.303188 37.5718124,145.644748 40.318098,143.98502 C41.4115819,143.3252 42.5733338,142.82345 43.7434694,142.446239 C45.3783058,141.920538 47.0275143,141.588832 48.6503739,141.351728 C50.3319199,141.105044 51.9990936,140.900272 53.6459068,140.714661 C55.5095005,140.503901 57.3527336,140.311105 59.1744084,140.139863 C65.5017642,139.54351 71.5764089,139.215397 77.4630175,139.196237 C80.4560256,139.186657 85.3844884,140.005743 87.6049914,136.182141 C88.9595701,133.850618 87.9391448,131.496342 87.1606513,129.58993 C85.6791182,125.957927 83.8059431,122.680382 82.087269,119.293866 C79.2834946,113.772215 76.7168614,108.032621 75.8185997,101.648774 C75.0892111,96.4648167 75.1383161,90.6234349 77.0546078,85.4227131 C78.2954067,82.0529615 82.1148157,74.8703851 85.8024795,73.6692974 C85.8024795,73.6692974 89.1547923,72.3376827 91.0100023,73.4309958 C94.407827,75.4332078 93.3838086,81.0949653 94.0329524,84.938925 C94.7312012,89.0774686 96.2738161,92.9046633 98.3757486,96.3151298 C102.577218,103.12768 109.036319,108.102075 114.310912,113.666836 C129.322662,129.501315 121.453889,158.38011 140,172.874593 C131.273687,192.579377 122.401256,212.190756 113.095264,231.629696 C113.095264,231.629696 106.978701,228.24318 102.590393,228.79762 C85.0706956,231.014184 67.6156735,232.915806 50.2396983,231.527909 C49.4372512,231.464442 48.6204318,231.23093 47.8611012,230.917187 L47.8611012,230.917187 Z M46,316 L32,316 L32,273.874818 C36.6239174,273.569536 41.2699867,273.299248 46,273 L46,316 Z M259.668615,315.205356 L259.668615,202.290359 L259.668615,86.1101301 C251.386706,82.3649291 243.072552,78.5658661 234.708241,74.7392737 L234.708241,56.1090233 C222.846063,50.3457945 210.850132,44.5239161 198.71806,38.6457818 C198.71806,85.2471419 198.746721,131.847305 198.746721,178.419939 L198.746721,315.205356 L192.881911,315.205356 C192.881911,269.338912 192.869969,223.447333 192.854444,177.582086 C192.84489,130.753309 192.854444,83.8910177 192.854444,37 L15.3313849,71.6380223 L15.3313849,193.679628 C15.3313849,234.187406 15.3564635,274.696381 15.3564635,315.205356 L2.90696558e-14,315.205356 L2.90696558e-14,329 L275,329 L275,315.205356 L259.668615,315.205356 Z" id="Fill-2"></path>
                <path d="M139.137083,232.579638 C136.472846,231.141025 133.14729,232.47907 131.684803,235.501014 C130.223502,238.524185 131.175185,242.042836 133.832311,243.429938 C136.490623,244.81704 139.851734,243.593055 141.318961,240.623847 C142.787373,237.65464 141.800136,234.019476 139.137083,232.579638" id="Fill-5" opacity="0.7"></path>
                <polygon id="Fill-7" opacity="0.7" points="225 31.479443 199 19 199 33.5217507 225 46"></polygon>
            </g>
        </g>
    </g>
</svg>