<?xml version="1.0" encoding="UTF-8"?>
<svg width="400px" height="400px" viewBox="0 0 400 400" version="1.1" xmlns="http://www.w3.org/2000/svg" xmlns:xlink="http://www.w3.org/1999/xlink">
    <defs></defs>
    <g id="list-img__Themes" stroke="none" stroke-width="1" fill="#FFFFFF" fill-rule="evenodd">
        <g id="img_list-disrupters">
            <g id="Page-1" transform="translate(17.000000, 71.000000)">
                <polygon id="Fill-1" opacity="0.7" points="259 0 259 25.6669151 289.227566 25.6669151 328.560178 89 361 89 287.746599 0"></polygon>
                <path d="M321,120 L335,120 L335,113 L321,113 L321,120 Z M321,131 L335,131 L335,124 L321,124 L321,131 Z M321,143 L335,143 L335,136 L321,136 L321,143 Z M321,154 L335,154 L335,147 L321,147 L321,154 Z M321,166 L335,166 L335,159 L321,159 L321,166 Z M321,177 L335,177 L335,170 L321,170 L321,177 Z M321,189 L335,189 L335,182 L321,182 L321,189 Z M321,201 L335,201 L335,194 L321,194 L321,201 Z M300,166 L314,166 L314,159 L300,159 L300,166 Z M300,177 L314,177 L314,170 L300,170 L300,177 Z M300,189 L314,189 L314,182 L300,182 L300,189 Z M300,201 L314,201 L314,194 L300,194 L300,201 Z M280,154 L294,154 L294,147 L280,147 L280,154 Z M280,166 L280,159 L294,159 L294,166 L280,166 Z M280,177 L294,177 L294,170 L280,170 L280,177 Z M280,189 L294,189 L294,182 L280,182 L280,189 Z M280,201 L294,201 L294,194 L280,194 L280,201 Z M259,189 L273,189 L273,182 L259,182 L259,189 Z M259,201 L273,201 L273,194 L259,194 L259,201 Z M31,146 C22.1642353,146 15,139.059647 15,130.5 C15,121.940353 22.1642353,115 31,115 C39.8376471,115 47,121.940353 47,130.5 C47,139.059647 39.8376471,146 31,146 L31,146 Z M213.870432,103 L197.298559,121.718156 L197.298559,142.607327 L168.70285,142.607327 L168.70285,121.718156 L152.130977,103 L0,103 L9.04676042,172.768567 C9.04676042,172.768567 16.5718729,217 54.2312498,217 C91.8906267,217 168.70285,188.084953 168.70285,188.084953 L168.70285,153.350129 L197.298559,153.350129 L197.298559,188.084953 C197.298559,188.084953 274.1136,217 311.76875,217 C349.428127,217 356.957466,172.768567 356.957466,172.768567 L366,103 L213.870432,103 Z" id="Fill-2"></path>
                <polygon id="Fill-4" opacity="0.7" points="71.7558304 25.6655036 102 25.6655036 102 0 73.2789995 0 0 89 32.4504312 89"></polygon>
                <path d="M38.5062038,132.423331 C36.4251489,133.839153 32.9444057,132.558488 30.7316971,129.560667 C28.5189884,126.567277 28.4127414,122.991162 30.4937962,121.57534 C32.5748511,120.161733 36.0555943,121.442399 38.2683029,124.438004 C40.4810116,127.43361 40.5872586,131.007509 38.5062038,132.423331 M31,118 C24.3716364,118 19,123.373818 19,130 C19,136.628364 24.3716364,142 31,142 C37.6261818,142 43,136.628364 43,130 C43,123.373818 37.6261818,118 31,118" id="Fill-5" opacity="0.7"></path>
            </g>
        </g>
    </g>
</svg>