<?xml version="1.0" encoding="UTF-8"?>
<svg width="400px" height="400px" viewBox="0 0 400 400" version="1.1" xmlns="http://www.w3.org/2000/svg" xmlns:xlink="http://www.w3.org/1999/xlink">
    <defs></defs>
    <g id="list-img__Themes" stroke="none" stroke-width="1" fill="#7A00A1" fill-rule="evenodd">
        <g id="img_list-cloud">
            <g id="Page-1" transform="translate(28.000000, 56.000000)">
                <path d="M161.121332,0 C205.036039,0 242.623564,27.0518424 258.19172,65.4108373 C259.52808,65.3426482 260.874921,65.3111763 262.227002,65.3111763 C307.390726,65.3111763 344,101.954953 344,147.15384 C344,192.35972 307.390726,229 262.227002,229 L199.919441,228.879358 C199.919441,213.349726 199.910706,193.819666 199.910706,178.293532 L224.90151,178.293532 L171.999127,112.973613 L119.096743,178.293532 L144.099775,178.293532 C144.099775,193.784698 144.089294,213.328745 144.089294,228.826905 L77.3149708,228.889848 L77.4023146,229 L68.0722516,229 C30.4742463,229 0,198.491494 0,160.85985 C0,127.011827 24.6623909,98.933651 56.9900723,93.6341335 C62.5678463,41.0008857 107.059023,0 161.121332,0" id="Fill-1"></path>
                <polygon id="Fill-4" opacity="0.7" points="152.07287 240.204465 117 240.181788 172.00175 307 227 240.270753 191.934131 240.248076 191.934131 198 152.07287 198 152.07287 236.607474"></polygon>
            </g>
        </g>
    </g>
</svg>