<?xml version="1.0" encoding="UTF-8"?>
<svg width="400px" height="400px" viewBox="0 0 400 400" version="1.1" xmlns="http://www.w3.org/2000/svg" xmlns:xlink="http://www.w3.org/1999/xlink">
    <defs></defs>
    <g id="list-img__Ideas" stroke="none" stroke-width="1" fill="#7C828F" fill-rule="evenodd">
        <g id="img_list-moneymakers">
            <g transform="translate(46.000000, 41.000000)">
                <polygon id="Fill-1" points="0 257.142257 184 324 184 272.300239 0 214"></polygon>
                <polygon id="Fill-3" points="134.555778 1 96 7.65885963 267.520367 26 300 17.0060976"></polygon>
                <path d="M259,72 L106,49.3541809 L106,25 L259,41.1512372 L259,72 Z M96,14 L96,57.5158119 L268,83 L268,32.1746922 L96,14 Z" id="Fill-4" opacity="0.79908288"></path>
                <polygon id="Fill-5" points="123 247.18725 155.449984 229 161 230.621348 128.695749 249"></polygon>
                <polygon id="Fill-6" points="74 231.372351 106.996168 215 112 216.462887 79.1115486 233"></polygon>
                <polygon id="Fill-7" points="32 217.466521 66.3413073 202 71 203.385277 36.7365229 219"></polygon>
                <path d="M223.134646,115.624108 C218.397033,123.272447 209.075995,129.434241 203.275759,126.048716 C195.699899,121.624686 201.917525,105.53281 215.219965,101.607263 C223.112058,99.2790343 230.117322,103.581411 223.134646,115.624108 M203.496302,154.641778 C200.344196,163.435851 193.662514,169.208946 188.286776,167.784275 C178.85987,165.286139 179.84521,144.906191 192.526187,138.306667 C200.251054,134.286632 208.441628,139.490256 203.496302,154.641778 M192.73344,200.017532 C191.480653,208.938282 186.984593,214.662956 181.799749,213.938351 C171.822369,212.546269 167.593837,191.12284 178.155185,182.178038 C185.06099,176.331093 194.731911,182.249195 192.73344,200.017532 M162.912445,161.785348 C153.926796,159.334588 155.044754,138.971917 167.217316,132.31927 C174.598769,128.285176 182.336602,133.447027 177.490815,148.572595 C174.35565,157.517364 168.08825,163.196824 162.912445,161.785348 M166.740983,192.352372 C165.539093,201.021501 161.264267,206.61124 156.346175,205.946531 C146.810714,204.657971 142.795783,183.883552 152.902814,175.131708 C159.474874,169.440319 168.662813,175.133701 166.740983,192.352372 M137.810499,154.802093 C128.859486,152.473412 130.153143,132.776944 142.365718,126.288103 C149.738754,122.370997 157.376817,127.330917 152.420504,141.94745 C149.216823,150.608652 142.936389,156.135361 137.810499,154.802093 M141.738312,184.734704 C140.587894,193.125318 136.535218,198.560574 131.886066,197.953917 C122.799446,196.766249 119.00099,176.699206 128.645508,168.172464 C135.028695,162.530057 143.611821,167.81932 141.738312,184.734704 M114.438512,148.818084 C105.949521,146.612412 107.343431,127.622107 119.00688,121.316911 C126.184309,117.435565 133.27939,122.042173 128.3756,136.356133 C125.261397,144.715573 119.269995,150.073345 114.438512,148.818084 M117.745233,178.667265 C116.644654,187.066901 112.806359,192.533075 108.411889,191.958698 C99.4954315,190.793792 96.0426337,169.098684 106.206807,161.475315 C112.053022,157.091272 119.473594,162.378773 117.745233,178.667265 M140.792786,86.2987158 C147.235267,84.849318 152.60732,88.5894139 145.93283,99.3816717 C141.306592,106.434818 132.683426,112.194034 127.703697,109.181097 C120.722518,104.957868 128.033289,89.1699602 140.792786,86.2987158 M165.251506,91.3050837 C172.012601,89.8089246 177.749531,93.7293413 170.938183,104.980537 C166.209336,112.328318 157.243121,118.302953 151.935355,115.127616 C144.535037,110.698145 151.917264,94.2553972 165.251506,91.3050837 M190.688338,96.3098811 C197.769018,94.7712153 203.886725,98.8750003 196.956763,110.584886 C192.136843,118.227501 182.83283,124.413607 177.186494,121.071548 C169.349193,116.432222 176.77278,99.3344701 190.688338,96.3098811 M267,89.4955538 L95.7279132,64 C63.9241551,82.5383994 34,128.223813 34,177.977827 C34,183.377603 34.3577823,188.51715 35.0334826,193.381453 L214.499681,246 C213.904706,240.286946 213.589778,234.214574 213.589778,227.803903 C213.589778,168.720637 239.702904,112.845209 267,89.4955538 M0,207.129292 L183.314414,266 L214,245.899819 L34.575462,193 L0,207.129292 Z M14,207.339181 L34.646815,199 L203,248.067227 L183.026538,261 L14,207.339181 Z" id="Fill-8"></path>
                <path d="M279.073848,222.741389 C277.35946,222.303148 275.765874,221.349799 274.419933,220.065024 C272.651183,218.377946 270.570361,217.31279 268.498598,216.788698 L253.31876,212.952341 L253.31876,200.029719 L253.31876,167.426179 L246.204501,165.90082 C245.339757,167.720669 244.149853,169.178145 242.832099,169.843992 C240.169411,171.188663 238,168.7998 238,164.501244 C238,160.202687 240.169411,155.655562 242.832099,154.351819 C245.480693,153.054067 247.61789,155.458902 247.61789,159.716529 C247.61789,160.097869 247.58165,160.480207 247.548429,160.862545 L253.31876,162.073448 L257.346516,162.918984 L257.346516,201.004032 L268.496585,203.700363 C270.55828,204.199498 272.63709,204.182528 274.393759,203.364944 C276.156468,202.545363 278.345006,202.505432 280.677501,203.519676 C284.228087,205.065 287.1354,208.914334 287.824981,213.035198 C288.94039,219.683684 284.571367,224.144959 279.073848,222.741389 L279.073848,222.741389 Z M273.832382,31.9107532 L273.832382,89.2154586 C246.325102,112.552669 220.012873,168.394923 220.012873,227.444167 C220.012873,233.852147 220.32921,246.408026 220.928744,252.118791 L190,272.100965 L190,324 L300,231.187324 L300,23 L273.832382,31.9107532 Z" id="Fill-10" opacity="0.8"></path>
            </g>
        </g>
    </g>
</svg>