<?xml version="1.0" encoding="UTF-8"?>
<svg width="300px" height="300px" viewBox="0 0 300 300" version="1.1" xmlns="http://www.w3.org/2000/svg" xmlns:xlink="http://www.w3.org/1999/xlink">
    <!-- Generator: Sketch 46.2 (44496) - http://www.bohemiancoding.com/sketch -->
    <title>img_NO-LOGO--stock</title>
    <desc>Created with Sketch.</desc>
    <defs></defs>
    <g id="UI" stroke="none" stroke-width="1" fill="none" fill-rule="evenodd">
        <g id="img_NO-LOGO--stock" fill="#000000">
            <path d="M173,133 L173,25 L121,49.5493724 L121,118.166945 L173,133 Z M227,84 L227,90.6870629 C229.44,91.4659091 231.84,92.2447552 234.224,93 L234.224,86.4230769 C231.84,85.6206294 229.44,84.8103147 227,84 L227,84 Z M215,80 L215,86.6323777 C217.56,87.4291737 220.112,88.2107926 222.616,89 L222.616,82.4814503 C220.112,81.6618887 217.56,80.8423272 215,80 L215,80 Z M202,75 L202,82.322449 C204.695825,83.2204082 207.351889,84.1183673 210,85 L210,77.7918367 C207.351889,76.8693878 204.695825,75.9387755 202,75 L202,75 Z M238,88 L238,94.7297297 C240.304,95.5 242.592,96.2540541 244.872,97 L244.872,90.3756757 C242.592,89.5891892 240.304,88.8027027 238,88 L238,88 Z M227,96 L227,102.830357 C229.44,103.561607 231.84,104.284821 234.224,105 L234.224,98.2821429 C231.84,97.5348214 229.44,96.7714286 227,96 L227,96 Z M215,92 L215,98.7849741 C217.56,99.5310881 220.112,100.26943 222.616,101 L222.616,94.3238342 C220.112,93.5621762 217.56,92.7772021 215,92 L215,92 Z M202,88 L202,94.7387312 C204.695825,95.5050083 207.351889,96.2562604 210,97 L210,90.3739566 C207.351889,89.5926544 204.695825,88.7963272 202,88 L202,88 Z M238,99 L238,105.868203 C240.304,106.589862 242.592,107.294931 244.872,108 L244.872,101.239631 C242.592,100.501382 240.304,99.7548387 238,99 L238,99 Z M227,108 L227,114.979927 C229.44,115.661496 231.84,116.334854 234.224,117 L234.224,110.126825 C231.84,109.428832 229.44,108.714416 227,108 L227,108 Z M215,104 L215,110.94263 C217.56,111.633716 220.112,112.324801 222.616,113 L222.616,106.176523 C220.112,105.453663 217.56,104.738747 215,104 L215,104 Z M202,101 L202,107.894108 C204.695825,108.601196 207.351889,109.308284 210,110 L210,103.213493 C207.351889,102.483348 204.695825,101.745517 202,101 L202,101 Z M238,111 L238,117.237288 C240.304,117.824859 242.592,118.419962 244.872,119 L244.872,112.853107 C242.592,112.242938 240.304,111.617702 238,111 L238,111 Z M227,120 L227,126.346369 C229.44,126.897579 231.84,127.44879 234.224,128 L234.224,121.750466 C231.84,121.16946 229.44,120.595903 227,120 L227,120 Z M215,117 L215,124.107401 C217.56,124.749097 220.112,125.382671 222.616,126 L222.616,119.006318 C220.112,118.348375 217.56,117.674188 215,117 L215,117 Z M202,113 L202,120.068063 C204.695825,120.727749 207.351889,121.363874 210,122 L210,115.049738 C207.351889,114.382199 204.695825,113.691099 202,113 L202,113 Z M238,123 L238,129.384615 C240.312,129.930769 242.592,130.469231 244.872,131 L244.872,124.715385 C242.592,124.153846 240.312,123.584615 238,123 L238,123 Z M227,132 L227,138.494747 C229.44,139.006686 231.848,139.503343 234.224,140 L234.224,133.604585 C231.84,133.069723 229.44,132.542502 227,132 L227,132 Z M215,129 L215,135.466667 C217.56,135.985185 220.112,136.496296 222.616,137 L222.616,130.644444 C220.112,130.103704 217.56,129.548148 215,129 L215,129 Z M202,126 L202,133.243509 C204.695825,133.831692 207.351889,134.419875 210,135 L210,127.893465 C207.351889,127.264996 204.695825,126.636526 202,126 L202,126 Z M238,134 L238,140.526108 C240.312,141.02266 242.592,141.51133 244.872,142 L244.872,135.576355 C242.592,135.048276 240.312,134.528079 238,134 L238,134 Z M227,144 L227,150.65362 C229.44,151.107632 231.848,151.561644 234.224,152 L234.224,145.448141 C231.848,144.978474 229.44,144.485323 227,144 L227,144 Z M215,141 L215,147.619905 C217.56,148.090047 220.112,148.552607 222.616,149 L222.616,142.493839 C220.112,141.993365 217.56,141.508057 215,141 L215,141 Z M202,139 L202,146.421488 C204.695825,146.950413 207.351889,147.487603 210,148 L210,140.710744 C207.351889,140.14876 204.695825,139.586777 202,139 L202,139 Z M238,146 L238,152.624 C240.312,153.064 242.592,153.496 244.872,153.928 L244.872,147.4 C242.592,146.936 240.312,146.464 238,146 L238,146 Z M227,156 L227,162.808 C229.44,163.192 231.848,163.592 234.224,163.976 L234.224,157.288 C231.848,156.856 229.44,156.432 227,156 L227,156 Z M215,154 L215,160.793774 C217.56,161.198444 220.112,161.595331 222.616,162 L222.616,155.315175 C220.112,154.879377 217.56,154.435798 215,154 L215,154 Z M202,151 L202,157.764595 C204.695825,158.178908 207.351889,158.59322 210,159 L210,152.348399 C207.351889,151.911488 204.695825,151.45951 202,151 L202,151 Z M238,158 L238,164.624 C240.312,165 242.592,165.376 244.872,165.752 L244.872,159.216 C242.592,158.816 240.312,158.416 238,158 L238,158 Z M227,168 L227,174.824 C229.44,175.152 231.848,175.48 234.224,175.8 L234.224,169.088 C231.848,168.728 229.44,168.368 227,168 L227,168 Z M215,166 L215,172.965174 C217.56,173.315423 220.112,173.657711 222.616,174 L222.616,167.138308 C220.112,166.764179 217.56,166.39005 215,166 L215,166 Z M202,164 L202,170.942085 C204.695825,171.297297 207.351889,171.65251 210,172 L210,165.166023 C207.351889,164.779923 204.695825,164.3861 202,164 L202,164 Z M238,170 L238,176.64 C240.312,176.96 242.592,177.272 244.872,177.576 L244.872,171.04 C242.592,170.696 240.312,170.352 238,170 L238,170 Z M227,180 L227,186.8 C229.44,187.064 231.848,187.32 234.224,187.592 L234.224,180.896 C231.848,180.6 229.44,180.304 227,180 L227,180 Z M215,178 L215,184.992 C217.56,185.264 220.112,185.544 222.616,185.824 L222.616,178.944 C220.112,178.632 217.56,178.32 215,178 L215,178 Z M202,177 L202,184.134062 C204.695825,184.42006 207.351889,184.714002 210,185 L210,177.993049 C207.351889,177.667329 204.695825,177.341609 202,177 L202,177 Z M238,181 L238,187.624 C240.312,187.872 242.592,188.128 244.872,188.368 L244.872,181.848 C242.592,181.568 240.312,181.28 238,181 L238,181 Z M227,192 L227,198.792 C229.44,199 231.848,199.184 234.224,199.376 L234.224,192.696 C231.848,192.456 229.44,192.224 227,192 L227,192 Z M215,191 L215,197.984 C217.56,198.2 220.112,198.4 222.616,198.608 L222.616,191.736 C220.112,191.496 217.56,191.248 215,191 L215,191 Z M202,190 L202,197.176 C204.695825,197.408 207.351889,197.616 210,197.832 L210,190.776 C207.351889,190.52 204.695825,190.264 202,190 L202,190 Z M238,193 L238,199.624 C240.312,199.816 242.592,200 244.872,200.192 L244.872,193.664 C242.592,193.448 240.312,193.232 238,193 L238,193 Z M227,204 L227,210.8 C229.44,210.936 231.848,211.064 234.224,211.192 L234.224,204.504 C231.848,204.336 229.44,204.168 227,204 L227,204 Z M215,203 L215,209.992 C217.56,210.136 220.112,210.272 222.616,210.408 L222.616,203.536 C220.112,203.36 217.56,203.184 215,203 L215,203 Z M202,202 L202,209.192 C204.695825,209.328 207.351889,209.48 210,209.616 L210,202.56 C207.351889,202.376 204.695825,202.192 202,202 L202,202 Z M238,205 L238,211.64 C240.312,211.76 242.592,211.888 244.872,212.008 L244.872,205.48 C242.592,205.32 240.312,205.168 238,205 L238,205 Z M227,216 L227,222.824 C229.44,222.88 231.848,222.944 234.224,223.016 L234.224,216.304 C231.848,216.2 229.44,216.104 227,216 L227,216 Z M215,215 L215,222 C217.56,222.064 220.112,222.136 222.616,222.208 L222.616,215.32 C220.112,215.208 217.56,215.104 215,215 L215,215 Z M202,215 L202,222.2 C204.695825,222.272 207.351889,222.344 210,222.416 L210,215.336 C207.351889,215.232 204.695825,215.112 202,215 L202,215 Z M238,216 L238,222.64 C240.312,222.696 242.592,222.76 244.872,222.824 L244.872,216.288 C242.592,216.192 240.312,216.088 238,216 L238,216 Z M227,228 L227,234.784 L234.224,234.784 L234.224,228.112 C231.848,228.072 229.44,228.04 227,228 L227,228 Z M215,228 L215,234.968 L222.616,234.968 L222.616,228.112 C220.112,228.08 217.56,228.04 215,228 L215,228 Z M202,228 L202,235.168 L210,235.168 L210,228.128 C207.351889,228.088 204.695825,228.048 202,228 L202,228 Z M238,228 L238,234.608 L244.872,234.608 L244.872,228.096 C242.592,228.064 240.312,228.04 238,228 L238,228 Z M189,227 L189,234.368 L197,234.368 L197,227.128 C194.363465,227.088 191.689266,227.048 189,227 L189,227 Z M189,214 L189,221.408 C191.689266,221.488 194.370998,221.56 197,221.632 L197,214.36 C194.370998,214.24 191.689266,214.12 189,214 L189,214 Z M189,201 L189,208.392 C191.689266,208.536 194.370998,208.696 197,208.848 L197,201.592 C194.370998,201.4 191.689266,201.2 189,201 L189,201 Z M189,188 L189,195.310891 C191.689266,195.540594 194.370998,195.770297 197,196 L197,188.807921 C194.370998,188.546535 191.689266,188.269307 189,188 L189,188 Z M189,175 L189,182.106833 C191.689266,182.407122 194.370998,182.707411 197,183 L197,176.016362 C194.370998,175.677575 191.696798,175.338787 189,175 L189,175 Z M189,162 L189,168.922357 C191.696798,169.281572 194.370998,169.648269 197,170 L197,163.197381 C194.370998,162.800748 191.696798,162.404116 189,162 L189,162 Z M189,149 L189,156.57938 C191.696798,157.055657 194.370998,157.540146 197,158 L197,150.552007 C194.370998,150.042883 191.696798,149.517336 189,149 L189,149 Z M189,136 L189,143.377442 C191.696798,143.920959 194.370998,144.456483 197,145 L197,137.742451 C194.370998,137.166963 191.696798,136.583481 189,136 L189,136 Z M189,123 L189,130.2 C191.696798,130.807792 194.370998,131.407792 197,132 L197,124.932468 C194.370998,124.293506 191.696798,123.654545 189,123 L189,123 Z M189,110 L189,117.026981 C191.696798,117.687184 194.370998,118.347386 197,119 L197,112.094435 C194.370998,111.403879 191.696798,110.713322 189,110 L189,110 Z M189,97 L189,104.615512 C191.696798,105.415842 194.370998,106.216172 197,107 L197,99.5082508 C194.370998,98.6831683 191.696798,97.8415842 189,97 L189,97 Z M189,84 L189,91.4396135 C191.696798,92.3011272 194.370998,93.1465378 197,94 L197,86.689211 C194.370998,85.8035427 191.696798,84.9098229 189,84 L189,84 Z M227,72 L227,78.5468484 C229.44,79.3747871 231.84,80.1873935 234.224,81 L234.224,74.5528109 C231.84,73.7018739 229.44,72.8586031 227,72 L227,72 Z M215,67 L215,74.23229 C217.56,75.1713344 220.112,76.0939044 222.616,77 L222.616,69.8995058 C220.112,68.9439868 217.56,67.9719934 215,67 L215,67 Z M202,63 L202,70.1758154 C204.695825,71.1225139 207.351889,72.061257 210,73 L210,65.9514718 C207.351889,64.9729515 204.695825,63.9944312 202,63 L202,63 Z M238,76 L238,82.5888594 C240.304,83.3925729 242.592,84.1962865 244.872,85 L244.872,78.5066313 C242.592,77.6790451 240.304,76.8355438 238,76 L238,76 Z M189,58 L189,65.1054657 C191.696798,66.0831409 194.363465,67.0454196 197,68 L197,61.0177059 C194.363465,60.0169361 191.696798,59.0161663 189,58 L189,58 Z M131,144 L131,150.335217 C133.568,150.892655 136.104,151.442561 138.6,152 L138.6,145.792844 C136.104,145.205273 133.568,144.610169 131,144 L131,144 Z M118,141 L118,148.079566 C120.705882,148.730561 123.364706,149.373418 126,150 L126,143.075045 C123.364706,142.399638 120.705882,141.699819 118,141 L118,141 Z M154,150 L154,156.288 C156.248,156.816 158.48,157.32 160.688,157.84 L160.688,151.664 C158.48,151.112 156.248,150.56 154,150 L154,150 Z M143,159 L143,165.504 C145.408,165.984 147.768,166.448 150.12,166.92 L150.12,160.544 C147.768,160.04 145.408,159.52 143,159 L143,159 Z M131,156 L131,162.522838 C133.568,163.028183 136.104,163.510204 138.6,164 L138.6,157.601555 C136.104,157.065112 133.568,156.528669 131,156 L131,156 Z M118,154 L118,160.501398 C120.705882,161.015843 123.364706,161.507922 126,162 L126,155.662628 C123.364706,155.11836 120.705882,154.55918 118,154 L118,154 Z M154,161 L154,167.288 C156.248,167.728 158.48,168.184 160.688,168.608 L160.688,162.448 C158.48,161.968 156.248,161.488 154,161 L154,161 Z M143,170 L143,176.512 C145.408,176.912 147.768,177.312 150.12,177.688 L150.12,171.304 C147.768,170.872 145.408,170.432 143,170 L143,170 Z M131,168 L131,174.744 C133.568,175.168 136.104,175.584 138.6,176 L138.6,169.4 C136.104,168.944 133.568,168.472 131,168 L131,168 Z M118,166 L118,172.710173 C120.705882,173.147793 123.364706,173.577735 126,174 L126,167.451056 C123.364706,166.96737 120.705882,166.491363 118,166 L118,166 Z M154,172 L154,178.304 C156.248,178.672 158.48,179.048 160.688,179.416 L160.688,173.232 C158.48,172.824 156.248,172.416 154,172 L154,172 Z M143,182 L143,188.512 C145.416,188.824 147.768,189.136 150.12,189.448 L150.12,183.08 C147.768,182.728 145.416,182.368 143,182 L143,182 Z M131,180 L131,186.736 C133.568,187.064 136.104,187.408 138.6,187.736 L138.6,181.144 C136.104,180.768 133.568,180.392 131,180 L131,180 Z M118,178 L118,184.927507 C120.705882,185.285005 123.364706,185.642502 126,186 L126,179.223436 C123.364706,178.826216 120.705882,178.421053 118,178 L118,178 Z M154,184 L154,190.296 C156.248,190.584 158.48,190.888 160.688,191.184 L160.688,185.008 C158.48,184.68 156.248,184.344 154,184 L154,184 Z M143,193 L143,199.496 C145.416,199.736 147.768,199.976 150.12,200.208 L150.12,193.832 C147.768,193.552 145.416,193.272 143,193 L143,193 Z M131,192 L131,198.72 C133.568,198.976 136.104,199.24 138.6,199.48 L138.6,192.896 C136.104,192.608 133.568,192.312 131,192 L131,192 Z M118,191 L118,197.96 C120.705882,198.232 123.364706,198.512 126,198.784 L126,191.952 C123.364706,191.648 120.705882,191.32 118,191 L118,191 Z M154,195 L154,201.296 C156.248,201.52 158.48,201.744 160.688,201.952 L160.688,195.792 C158.48,195.528 156.248,195.264 154,195 L154,195 Z M143,205 L143,211.496 C145.416,211.656 147.768,211.816 150.12,211.976 L150.12,205.6 C147.768,205.4 145.416,205.2 143,205 L143,205 Z M131,204 L131,210.728 C133.568,210.896 136.104,211.064 138.6,211.224 L138.6,204.64 C136.104,204.432 133.568,204.208 131,204 L131,204 Z M118,203 L118,209.968 C120.705882,210.16 123.364706,210.328 126,210.512 L126,203.696 C123.364706,203.472 120.705882,203.24 118,203 L118,203 Z M154,206 C154,208.096 154.008,210.2 154.008,212.296 C156.248,212.448 158.48,212.584 160.688,212.744 L160.688,206.568 C158.48,206.384 156.248,206.192 154,206 L154,206 Z M143,216 L143,222.504 C145.416,222.592 147.768,222.664 150.12,222.752 L150.12,216.36 C147.768,216.24 145.416,216.112 143,216 L143,216 Z M131,216 L131,222.736 C133.568,222.824 136.104,222.912 138.6,223 L138.6,216.392 C136.104,216.264 133.568,216.128 131,216 L131,216 Z M118,215 L118,221.976 C120.705882,222.072 123.364706,222.16 126,222.248 L126,215.416 C123.364706,215.28 120.705882,215.144 118,215 L118,215 Z M154,217 L154,223.304 C156.24,223.384 158.472,223.456 160.68,223.52 L160.68,217.336 C158.472,217.224 156.24,217.112 154,217 L154,217 Z M143,228 L143,234.464 L150.12,234.464 L150.12,228.128 C147.768,228.088 145.416,228.04 143,228 L143,228 Z M131,228 L131,234.688 L138.6,234.688 L138.6,228.136 C136.104,228.096 133.568,228.048 131,228 L131,228 Z M118,227 L118,233.928 L126,233.928 L126,227.152 C123.367287,227.104 120.711068,227.056 118,227 L118,227 Z M154,228 L154,234.256 L160.68,234.256 L160.68,228.128 C158.472,228.088 156.24,228.04 154,228 L154,228 Z M105,227 L105,234.184 L114,234.184 L114,227.16 C111.038497,227.104 108.027498,227.064 105,227 L105,227 Z M105,214 L105,221.24 C108.027498,221.336 111.038497,221.432 114,221.528 L114,214.448 C111.038497,214.304 108.027498,214.144 105,214 L105,214 Z M105,202 L105,209.216 C108.027498,209.424 111.038497,209.608 114,209.8 L114,202.744 C111.038497,202.488 108.027498,202.248 105,202 L105,202 Z M105,189 L105,196.130435 C108.027498,196.422925 111.038497,196.715415 114,197 L114,190.011858 C111.038497,189.671937 108.027498,189.339921 105,189 L105,189 Z M105,176 L105,182.89313 C108.027498,183.267176 111.038497,183.641221 114,184 L114,177.259542 C111.038497,176.839695 108.035747,176.427481 105,176 L105,176 Z M105,163 L105,170.491713 C108.035747,171.005525 111.038497,171.519337 114,172 L114,164.657459 C111.038497,164.118785 108.035747,163.571823 105,163 L105,163 Z M105,151 L105,158.25625 C108.035747,158.842857 111.038497,159.429464 114,160 L114,152.920536 C111.038497,152.277679 108.035747,151.642857 105,151 L105,151 Z M105,138 L105,145.025907 C108.035747,145.702073 111.038497,146.354922 114,147 L114,140.137306 C111.038497,139.445596 108.035747,138.73057 105,138 L105,138 Z M143,147 L143,153.373281 C145.408,153.931238 147.768,154.473477 150.12,155 L150.12,148.752456 C147.768,148.163065 145.408,147.589391 143,147 L143,147 Z M189,71 L189,78.2720126 C191.696798,79.1996855 194.370998,80.1037736 197,81 L197,73.8537736 C194.370998,72.918239 191.696798,71.9591195 189,71 L189,71 Z M10,252.971217 L37.8039664,252.971217 L37.8039664,145.260441 L89.7802014,120.701977 L89.7802014,252.971217 L97.6059245,252.971217 L97.6059245,120.701977 L168.076483,141.544925 L168.076483,252.971217 L180.916292,252.971217 L180.916292,25 L251.379041,56.9816582 L251.379041,252.971217 L290,252.971217 L290,278 L10,278 L10,252.971217 Z" id="Fill-1"></path>
        </g>
    </g>
</svg>