<?xml version="1.0" encoding="UTF-8"?>
<svg width="400px" height="400px" viewBox="0 0 400 400" version="1.1" xmlns="http://www.w3.org/2000/svg" xmlns:xlink="http://www.w3.org/1999/xlink">
    <defs></defs>
    <g id="list-img__Themes" stroke="none" stroke-width="1"  fill="#FFFFFF" fill-rule="evenodd">
        <g id="img_list-luxury">
            <g id="Page-1" transform="translate(70.000000, 0.000000)">
                <path d="M213,200.002366 C213,252.449453 170.524027,295 118.000786,295 C65.5530418,295 23,252.449453 23,200.002366 C23,147.55528 65.5530418,105 118.000786,105 C170.524027,105 213,147.55528 213,200.002366 M123,306.526966 C123,300.491011 113,300.491011 113,306.526966 C113,312.491011 123,312.491011 123,306.526966 M123,92.4741702 C123,98.5086099 113,98.5086099 113,92.4741702 C113,86.5086099 123,86.5086099 123,92.4741702 M154.281545,305.707574 C187.326585,294.484491 213.463851,268.35144 224.688,235.314545 C227.04353,228.409124 215.349219,226.835338 213.463851,232.25055 C203.337272,261.288325 180.340189,284.360536 151.218412,294.407221 C145.881516,296.290088 147.372199,307.983098 154.281545,305.707574 M11.2925476,235.314545 C22.5151074,268.35144 48.6450122,294.484491 81.7624893,305.707574 C88.5865728,307.983098 90.1585801,296.290088 84.7430151,294.407221 C55.7064689,284.360536 32.6372622,261.288325 22.5921358,232.25055 C20.7120151,226.835338 9.01628104,228.409124 11.2925476,235.314545 M81.7624893,93.3102696 C48.6450122,104.531067 22.5151074,130.655643 11.2925476,163.688964 C9.01628104,170.594555 20.7120151,172.161714 22.5921358,166.749181 C32.6372622,137.638488 55.7064689,114.649807 84.7430151,104.531067 C90.1585801,102.725838 88.5865728,90.9548009 81.7624893,93.3102696 M224.688,163.688964 C213.463851,130.655643 187.326585,104.531067 154.281545,93.3102696 C147.372199,90.9548009 145.881516,102.725838 151.218412,104.531067 C180.340189,114.649807 203.337272,137.638488 213.463851,166.749181 C215.349219,172.161714 227.04353,170.594555 224.688,163.688964 M227.741234,194.631698 C225.116023,190.149131 225.348069,189.442606 222.258766,194.631698 C219.325707,199.667472 219.169463,199.036815 222.258766,204.309678 C224.88243,208.869693 224.650384,209.5778 227.741234,204.309678 C230.674293,199.351353 230.830537,199.983591 227.741234,194.631698 M13.7416223,194.6513 C10.9606444,189.744792 11.036433,189.821158 8.26009523,194.6513 C5.32289998,199.640539 5.17132276,199.007338 8.26009523,204.309995 C10.8848558,208.82672 10.6528499,209.617425 13.7416223,204.309995 C16.6741774,199.323939 16.8303948,199.953957 13.7416223,194.6513 M214.363432,268.289684 C200.849569,287.845816 185.766668,306.619136 185.215853,325.626036 C184.825561,336.856885 180.426906,343.378226 172.802047,346.986112 C167.462284,349.50027 166.207999,347.147094 166.207999,342.041446 L166.207999,316.355378 C166.207999,308.50357 164.79319,308.580904 157.956784,311.016149 C132.11095,320.206316 103.278122,320.128981 77.5109763,310.858323 C70.4416536,308.265254 69.813724,309.447365 69.813724,316.669451 L69.813724,340.782 C69.813724,346.362703 69.4187106,350.052658 62.8230892,346.754109 C55.4358674,343.141488 51.1143268,336.699059 50.8011489,325.626036 C50.1732193,306.619136 35.0903189,287.845816 21.6582911,268.289684 C-5.75972758,228.625029 -7.48928804,176.002918 18.4336601,135.629628 C29.3555433,118.666565 50.1732193,93.4555517 50.8011489,73.425943 C51.1143268,62.4318326 55.4358674,55.9120695 62.7412538,52.2978702 C68.1628514,49.6290443 69.813724,51.043159 69.813724,57.2472715 L69.813724,83.2442548 C69.813724,91.3343797 71.8564624,90.4710753 78.3749696,88.1131653 C103.906052,79.1613143 132.347014,79.1613143 157.87967,88.2725689 C165.812986,91.0976417 166.126164,90.0749338 166.126164,81.8317184 C166.126164,73.6642592 166.207999,65.4920652 166.207999,57.4035186 C166.207999,50.4907705 168.403392,49.4696408 174.454493,52.9275931 C181.054836,56.6964612 184.902675,63.0599773 185.215853,73.425943 C185.766668,92.3570876 206.035103,118.27358 216.642234,134.297583 C243.50629,174.823963 242.096202,228.15471 214.363432,268.289684 M260,192.553725 L260,210.363384 C260,213.16392 257.997888,215.494054 255.106484,216.042596 C252.293879,216.506748 249.487706,217.049039 246.6751,217.519441 C241.056322,218.525884 240.577101,218.37273 241.218742,212.852923 C242.022803,205.306166 242.180399,197.684395 241.619164,190.140763 C241.218742,184.852251 241.29754,184.463114 246.916319,185.397668 C249.645302,185.939959 252.377501,186.410362 255.106484,186.876076 C257.997888,187.416805 260,189.751626 260,192.553725" id="Fill-1" opacity="0.9"></path>
                <path d="M208,199.002361 C208,248.124864 167.974606,288 118.5,288 C69.1011515,288 29,248.124864 29,199.002361 C29,149.879859 69.1011515,110 118.5,110 C167.974606,110 208,149.879859 208,199.002361 Z M180,144.457527 C180,138 179.206155,138 173.503175,138 C167.793845,138 167,138 167,144.457527 C167,150.281963 167.08256,151 173.503175,151 C179.283952,151 180,150.921465 180,144.457527 Z M70,253.458333 C70,247.080128 69.2793756,247 63.5383481,247 C57.7941249,247 57,247 57,253.458333 C57,259.282051 57,260 63.4568584,260 C69.2793756,260 70,260 70,253.458333 Z M69.9999782,144.54087 C69.9999782,138.796573 70.0782721,138 63.5383371,138 C57,138 57,138.718037 57,144.54087 C57,150.360498 57.1565877,151 63.5383371,151 C69.279355,151 69.9999782,150.921465 69.9999782,144.54087 Z M180,253.138944 C180,247.477527 179.523693,247 173.503175,247 C167.716048,247 167,247.080122 167,253.457829 C167,260.236147 167.954201,259.998986 173.819126,259.998986 C179.761847,259.998986 180,259.359612 180,253.138944 Z M102.990398,203.565056 C101.347104,196.964923 102.365351,192.462919 95.0120415,196.576497 C80.623429,204.653898 66.1564898,212.7235 51.6911171,220.877339 C42.3859066,226.076639 42.6992134,227.163922 53.1761911,224.836482 C68.6598107,221.342203 84.0635371,217.847923 99.5487233,214.433201 C107.52238,212.648622 104.945432,211.403785 102.990398,203.565056 Z M129.844333,212.740825 C130.480075,208.828694 131.19389,204.998296 131.910891,201.164753 C132.151485,199.523827 131.910891,198.038507 131.115816,196.628631 C119.344245,175.351606 107.494601,154.156314 95.7198435,132.95945 C90.391726,123.417246 90.074652,126.230711 92.3037299,135.071906 C98.1879219,158.145462 104.073707,181.299177 109.959493,204.449749 C110.437494,206.247851 111.469976,207.657727 113.063312,208.597644 C116.72002,210.864134 120.381507,213.213927 124.038215,215.480417 C128.250997,218.139848 128.969592,217.35868 129.844333,212.740825 Z M134.401389,191.270317 C139.307954,200.466775 139.150332,197.562289 146.475846,189.816453 C151.771003,184.334884 151.305941,182.798359 143.669865,183.043101 C132.920368,183.284601 129.023519,181.106236 134.401389,191.270317" id="Combined-Shape"></path>
                <path d="M161,69.2755832 L161,4.72488108 C161,2.12595921 158.874211,0 156.274972,0 L80.6476977,0 C78.1257891,0 76,2.12595921 76,4.72488108 L76,69.2755832 C76,71.874505 78.1257891,74.0004642 80.6476977,74.0004642 L156.274972,74.0004642 C158.874211,74.0004642 161,71.874505 161,69.2755832" id="Path" opacity="0.6"></path>
                <path d="M161,329.723602 L161,394.281608 C161,396.879114 158.874211,399.000464 156.274972,399.000464 L80.6476977,399.000464 C78.1257891,399.000464 76,396.879114 76,394.281608 L76,329.723602 C76,327.127677 78.1257891,325 80.6476977,325 L156.274972,325 C158.874211,325 161,327.127677 161,329.723602" id="Path" opacity="0.6"></path>
            </g>
        </g>
    </g>
</svg>