<?xml version="1.0" encoding="UTF-8"?>
<svg width="400px" height="400px" viewBox="0 0 400 400" version="1.1" xmlns="http://www.w3.org/2000/svg" xmlns:xlink="http://www.w3.org/1999/xlink">
    <defs></defs>
    <g id="list-img__Themes" stroke="none" stroke-width="1" fill="#FFFFFF" fill-rule="evenodd">
        <g id="img_list-sincity">
            <g id="Page-1" transform="translate(56.000000, 10.000000)">
                <path d="M148,347 C120.937657,347 99,351.70184 99,357.49863 C99,363.29953 120.937657,368 148,368 C175.062343,368 197,363.29953 197,357.49863 C197,351.70184 175.062343,347 148,347 M245.162324,169.548569 L233.333962,334.018318 C232.704163,340.489997 232.708298,349.444945 227.592734,355.197854 C215.211748,369.123482 184.139387,379 147.761283,379 C115.547842,379 87.4963091,371.256336 72.8979358,359.813978 C62.5730975,351.721276 63.0788657,336.574707 62.1886034,324.508773 L57,209.100167 C62.9672384,241.719301 67.6335361,266.036035 74.5365147,298.721391 C76.6450308,308.705517 79.8036706,324.163874 89.3071524,329.529117 C102.683138,337.079639 123.886817,341.956506 147.758526,341.956506 C170.210778,341.956506 190.30094,337.642513 203.73894,330.84801 C216.793824,324.248029 219.624473,318.678606 220.817921,304.086634 L226.6818,237.975081 L232.235604,173.062397 C215.247579,182.100121 184.377801,188.142745 149.114592,188.142745 C132.841809,188.142745 117.507522,186.854204 104.037825,184.580632 C111.95923,182.326374 120.323011,179.863798 128.962415,177.243948 C134.372894,177.570912 139.962529,177.743361 145.685841,177.743361 C193.210141,177.743361 231.735348,165.949207 231.735348,151.400002 C231.735348,147.628191 227.596869,144.09091 221.043931,140.905426 C222.7776,139.927294 224.461657,138.958818 226.096101,138 C236.765469,142.45885 243.76905,147.870999 245.643286,153.772905 C246.085661,155.162157 246.034671,157.346055 245.921665,159.754827 C245.752157,163.363847 245.316673,167.411577 245.162324,169.548569" id="Fill-1"></path>
                <path d="M130,199.492005 C133.566301,199.254911 137.241963,199.089082 141,199 L140.964493,220 C140.784119,219.953403 140.605165,219.905436 140.429051,219.857469 C136.44377,218.783006 133.028018,217.582458 130.068173,216.351759 L130,199.492005 Z M95,230 L94.5829326,223.491942 C88.6262124,220.990946 85.0776754,218.152383 85.0776754,215.36712 C85.0776754,212.730824 88.2562556,210.49086 93.6476485,208.867263 L93.4633629,206 C83.7973755,209.207562 78,213.299357 78,217.753317 C78,222.440977 84.4125846,226.724105 95,230 L95,230 Z M140.991337,236 L141,231.519415 C137.380496,231.421079 133.685917,231.252143 130,231 L130.020213,235.557489 C133.579079,235.769289 137.243339,235.919314 140.991337,236 L140.991337,236 Z M206.174165,208 C212.41235,210.846426 216,214.179065 216,217.740918 C216,221.522262 211.960428,225.043829 205,228 L206.174165,208 Z M147.038387,199 C146.375497,199 145.71675,199.002784 145.059384,199.008351 L145.024858,221.470424 C157.481666,224.326374 174.821764,226.560195 176.709619,227.963118 C179.763056,230.230341 164.127138,232.323591 145.008286,232.070285 L145,236.990257 C145.6767,236.995825 146.356162,237 147.038387,237 C164.382627,237 180.229841,235.235212 192.34968,232.323591 L194,204.084203 C181.685437,200.931802 165.180857,199 147.038387,199 L147.038387,199 Z M216,228.034546 L211.725066,276.517449 C211.097818,283.628349 211.372153,292.543919 207.749281,298.641937 C200.959842,310.068293 176.58679,318 145.924718,318 C119.459003,318 98.6771158,311.99871 88.5763606,302.915939 C85.1685447,299.855184 84.1511628,295.481691 83.1448094,286.951651 C80.9253177,268.140793 79.52883,247.456173 78,228 C81.5291297,231.038645 87.608607,233.763615 95.5422561,235.978689 L99.4918485,298.713792 C107.108427,302.117241 124.235735,305.787382 130.600575,306.467243 L130.346919,241.381646 C133.742328,241.602739 137.230101,241.760268 140.790937,241.843178 L140.687545,307.513289 C142.117118,307.648708 143.539799,307.745436 144.956965,307.804855 L145.060357,241.908124 C145.713798,241.913651 146.36586,241.916415 147.022057,241.916415 C164.014265,241.916415 179.637557,240.298291 191.993647,237.588522 L188.188804,302.377025 C192.926936,300.546099 197.67334,298.448481 200.98052,296.536027 L204.653021,234.024781 C209.580017,232.239456 213.449652,230.21922 216,228.034546 L216,228.034546 Z" id="Fill-3" opacity="0.751358696"></path>
                <path d="M145,165.276606 L145,165.276606 C127.935088,162.808975 118.154836,153.477119 108.568455,144.328051 C97.8985888,134.144571 87.476219,124.200654 66.8996013,125.050893 C53.3835202,130.041546 42.4180323,134.501838 35,138.098043 C47.5219685,138.142355 59.0539493,147.936719 61.8534143,161.708095 C64.1853852,173.173857 59.803315,184.14803 51.556168,190 C71.157923,186.545039 106.676479,176.997162 145,165.276606 M200,144.391251 L200,144.391251 C185.015246,141.230706 175.89265,132.642478 166.941293,124.212072 C156.252693,114.145812 145.812665,104.315599 125.315134,105.03746 C106.808942,110.83568 89.6878487,116.507644 75,121.706143 C91.7413304,123.270633 101.300308,132.269196 111.056763,141.455773 C121.619696,151.40401 132.427058,161.58143 153.452114,162 C154.895213,161.5581 156.339693,161.113456 157.786935,160.666066 C173.886121,155.694007 187.871063,150.074193 200,144.391251 M239,123.490232 L239,123.490232 C224.389236,121.272864 215.969098,113.22252 207.714929,105.329863 C201.769106,99.6448046 195.913183,94.0476599 187.726784,91 C171.294515,93.1462001 152.880305,96.710176 134,102.550129 C150.119695,104.442357 159.506599,113.412301 169.081601,122.569236 C178.486485,131.560112 188.083617,140.733791 204.84644,143 C218.643958,136.152533 229.886944,129.321812 239,123.490232 M24.6725743,158.056431 L24.6725743,158.056431 C25.0249544,157.74444 26.6874027,158.778004 26.9685701,159.879585 C27.1220457,160.476952 26.678808,160.991516 26.3878182,161.59184 C26.1447127,162.096054 25.9310746,162.961053 25.5258989,162.998019 C25.0384602,163.043857 24.3079161,162.285319 24.1028727,161.637678 C23.943258,161.134943 24.005876,160.179747 24.050077,159.653354 C24.0991892,159.06338 24.2796766,158.40391 24.6725743,158.056431 M36.9521268,178.232036 L36.9521268,178.232036 C37.312533,179.025126 35.5701077,180.463824 34.0051132,179.852829 C33.1540001,179.521748 32.5343787,178.408111 31.7650501,177.437441 C31.1204775,176.623283 29.9741087,175.517171 30.000446,174.898651 C30.0323281,174.156728 31.2147376,173.806083 32.1434766,174.108571 C32.864289,174.341832 34.1659098,175.314007 34.8784051,175.863301 C35.6796157,176.478811 36.5529076,177.347146 36.9521268,178.232036 M50.2198485,174.959997 L50.2198485,174.959997 C49.3828523,175.162678 46.5968132,174.607751 46.0440798,173.00727 C45.7440246,172.137838 47.048212,171.315932 47.7667654,170.696706 C48.3681919,170.17952 47.7443928,167.827022 48.6814074,168.010134 C49.8039825,168.232384 51.4174374,169.64556 51.8346195,170.610042 C52.1583633,171.359263 51.9320058,172.571156 51.7859263,173.232316 C51.6214223,173.975946 51.150283,174.733553 50.2198485,174.959997 M42.2391644,142.661754 L42.2391644,142.661754 C41.1744613,142.30785 38.7534309,142.721666 33.6706428,142.062625 C30.3912471,141.639054 26.7211852,143.464308 24.6935723,144.52602 C26.4914625,144.651419 28.3264934,145.044336 29.9510598,145.604452 C31.4669549,146.126948 26.629021,148.186279 26.6358989,149.317657 C26.6414013,150.334783 25.9549841,152.201836 22.2243965,152.076437 C21.290374,152.04439 20.7126281,151.739252 20.268314,151.311502 C19.3783102,152.041604 18.0412412,152.927757 17.7097251,153.487873 C17.3465706,154.103721 17.2571575,155.317306 17.1017164,155.967988 C16.8829983,156.887581 17.6684576,158.318523 17.530899,159.307783 C17.3933405,160.288682 16.1484357,161.191555 16.097539,162.225401 C16.0741541,162.685197 16.1759474,163.203514 16.306628,163.739943 C16.5638625,163.402759 16.8252237,163.135241 17.0783314,162.981975 C17.8183964,162.534719 18.3094804,163.517011 18.9408741,164.12032 C19.47185,164.628883 20.4306331,165.014833 20.3756097,165.973439 C20.308206,167.124324 19.2393761,168.966297 18.4291563,169.545919 C17.9009315,169.92351 17.0329371,169.975063 16.4125481,169.962523 C16.3135059,171.056282 15.8196708,172.123567 16.0700273,173.161593 C16.3093792,174.160605 18.8996065,174.559095 19.2228691,175.534421 C19.6891925,176.947251 19.2613855,179.151488 19.906535,180.472358 C20.4320087,181.548003 21.7553219,182.050993 23.029114,182.524723 C23.1006444,182.354737 23.1735504,182.198685 23.2354518,182.064926 C23.5614655,181.368265 24.1901081,180.613084 25.1461399,180.274506 C26.0058808,179.969368 29.1188306,181.52571 29.2990323,182.893953 C29.3966989,183.639381 28.2687188,184.168844 27.4309873,184.832065 C26.9412789,185.220802 26.4130541,185.824111 25.8435617,186.139002 C25.5271771,186.959669 25.0869897,187.643791 26.1255567,188.256853 C29.270145,190.109973 30.5893314,190.291105 33.5344598,189.697549 C33.6266241,189.208493 34.0324218,188.640017 34.5537686,188.315373 C35.1769088,187.926636 36.6707946,187.557405 37.498897,187.36234 C38.4287928,187.144981 39.576031,187.029336 40.4261428,187.268987 C40.9584944,187.418073 41.0396539,188.507651 40.5595746,189.420278 C41.2267335,189.364545 41.8938924,189.273979 42.522535,189.137433 C42.3340798,188.908928 42.1965212,188.606577 42.1153617,188.411512 C41.9846811,188.099408 41.9764276,187.700917 42.2955634,187.376273 C42.5830607,187.082282 44.7165937,186.93459 45.3644945,187.367913 C45.5350671,187.482166 45.5474473,187.639611 45.5006774,187.820743 C46.1472026,187.477986 47.1252438,187.072529 48.0620175,186.637812 C47.9134543,186.589046 47.7827736,186.534706 47.675478,186.4734 C47.1197415,186.162689 46.733202,185.323908 46.5392444,184.857145 C46.3205263,184.331862 46.3067705,183.663067 46.8432488,183.112705 C47.2641779,182.683561 50.0332314,182.441123 51.467967,182.8633 C51.5986476,182.46481 51.7307038,182.088613 51.8751403,181.786261 C52.3263323,180.852735 53.0471391,181.177379 53.3869087,180.107307 C53.690913,179.148701 53.6248849,176.806525 53.8325983,175.754566 C54.2892927,173.443044 58.0611479,171.791956 57.9992466,169.159969 C57.9772372,168.240376 57.2234164,166.649201 56.653924,165.254485 C56.5603842,165.917707 56.5314969,166.699361 56.1367039,167.295703 C55.4365309,168.350448 53.9261381,168.966297 53.5506033,167.469868 C53.392411,166.840086 54.0733258,165.47045 54.4213489,164.922874 C52.8875711,164.648389 51.4184459,164.672076 51.2148593,162.646184 C51.0704228,161.219422 52.9027026,160.893384 54.0664479,159.399742 C54.9316911,158.28787 54.9495737,155.994461 55.9386196,155.409265 C55.1999302,153.89751 50.9493713,152.394114 50.0896304,151.141517 C49.2312651,149.890313 49.0483122,148.215539 48.3591439,147.124567 C47.7194967,146.113014 45.5680811,145.704771 44.6656971,145.031796 C44.4180917,144.847877 44.2158806,144.640272 44.0343034,144.424307 C43.600994,145.208748 42.9076989,146.101868 42.1236152,146.635511 C41.2611232,147.220706 40.4027578,147.099487 39.446726,147.20538 C38.6461353,147.294552 37.3104418,147.669356 37.1715077,147.254146 C37.0050619,146.75673 37.9886054,145.428893 38.9143744,144.751738 C39.6310544,144.225062 41.0726679,143.62036 41.8650052,143.301289 C42.1745119,143.17589 42.5005256,143.061637 42.8182859,142.975251 C42.6504644,142.842886 42.4620092,142.7356 42.2391644,142.661754 M38.604295,153.626983 L38.604295,153.626983 C39.4442286,153.38219 39.9926981,153.218067 41.8491667,153.041427 C45.45442,152.699273 44.3761463,154.569992 45.1873642,155.220919 C45.9253572,155.816212 47.9426336,157.421275 46.4824413,158.040212 C45.7028107,158.368457 44.6202296,158.204335 43.4156069,158.152873 C42.6517699,158.119492 41.2748531,157.814891 40.5971631,158.222416 C39.2503978,159.034684 40.6431082,160.994419 39.0120576,160.999983 C37.05652,161.005546 36.3328849,159.66753 36.0227556,158.545098 C35.7815439,157.675804 37.5245855,156.695241 38.1032064,155.816212 C38.7550523,154.828694 36.7908999,154.154122 38.604295,153.626983 M244.408735,120.233166 C244.022968,120.485983 243.63169,120.742992 243.236279,121 C227.273788,119.742894 218.588518,111.399903 210.089243,103.234303 C205.108714,98.4503175 200.187428,93.7236001 194,90.3824926 C212.168252,88.302681 227.508004,87.9437075 237.75012,88.0065628 C240.855545,88.0261178 245.928382,87.9004072 248.675595,88.9256468 C257.57717,92.2499929 261.162049,105.273608 254.715605,112.606724 C252.876323,114.69771 246.884533,118.612896 244.408735,120.233166" id="Fill-5"></path>
                <path d="M27.3845548,135 C30.3935737,120.437607 49.3611886,112.468283 50.2414719,102.862068 C51.0885371,93.5923327 40.2067953,84.3474197 34.4240534,78.561075 C11.6944729,55.8211265 74.1669091,29.7370679 41.1479788,0 C63.6450317,29.2916462 7.24184467,50.436075 0.739374242,70.551759 C-6.05513988,91.5582863 36.168011,92.7980203 37.9797892,103.089605 C39.5244373,111.860137 25.7153383,117.503064 27.3845548,135" id="Fill-7" opacity="0.70091712"></path>
            </g>
        </g>
    </g>
</svg>