<?xml version="1.0" encoding="UTF-8"?>
<svg width="400px" height="400px" viewBox="0 0 400 400" version="1.1" xmlns="http://www.w3.org/2000/svg" xmlns:xlink="http://www.w3.org/1999/xlink">
    <defs></defs>
    <g id="list-img__Ideas" stroke="none" stroke-width="1" fill="#ffffff" fill-rule="evenodd">
        <g id="img_list-sellrallies">
            <g transform="translate(200.500000, 193.000000) scale(-1, 1) rotate(-180.000000) translate(-200.500000, -193.000000) translate(24.000000, 20.000000)">
                <path d="M29.9519738,231.372774 L16.49808,231.372774 L16.49808,184.081764 C16.49808,182.93263 15.5813834,182 14.4500538,182 L2.04802621,182 C0.917515744,182 2.99749375e-15,182.93263 2.99749375e-15,184.081764 L2.99749375e-15,263.918236 C2.99749375e-15,265.068203 0.917515744,266 2.04802621,266 L14.4500538,266 C15.5813834,266 16.49808,265.068203 16.49808,263.918236 L16.49808,247.090924 L29.9519738,247.090924 C31.0833035,247.090924 32,246.159126 32,245.00916 L32,233.454538 C32,232.304572 31.0833035,231.372774 29.9519738,231.372774" id="Fill-1"></path>
                <path d="M82.9519738,158.207449 L69.49808,158.207449 L69.49808,128.058931 C69.49808,126.921578 68.5813834,126 67.4500538,126 L55.0480262,126 C53.9175157,126 53,126.921578 53,128.058931 L53,204.941069 C53,206.078422 53.9175157,207 55.0480262,207 L67.4500538,207 C68.5813834,207 69.49808,206.078422 69.49808,204.941069 L69.49808,173.753203 L82.9519738,173.753203 C84.0833035,173.753203 85,172.831625 85,171.694272 L85,160.26638 C85,159.129026 84.0833035,158.207449 82.9519738,158.207449" id="Fill-4" opacity="0.7"></path>
                <path d="M135.951921,77.5983617 L122.497683,77.5983617 L122.497683,65.0663517 C122.497683,63.9257256 121.580963,63 120.449604,63 L108.048079,63 C106.917539,63 106,63.9257256 106,65.0663517 L106,183.933648 C106,185.075101 106.917539,186 108.048079,186 L120.449604,186 C121.580963,186 122.497683,185.075101 122.497683,183.933648 L122.497683,93.2001438 L135.951921,93.2001438 C137.08328,93.2001438 138,92.2752448 138,91.1337921 L138,79.6647134 C138,78.5232607 137.08328,77.5983617 135.951921,77.5983617" id="Fill-6"></path>
                <path d="M188.951921,24.9785973 L175.497683,24.9785973 L175.497683,2.06257409 C175.497683,0.923208164 174.580963,-3.90798505e-14 173.449604,-3.90798505e-14 L161.048079,-3.90798505e-14 C159.917539,-3.90798505e-14 159,0.923208164 159,2.06257409 L159,100.937426 C159,102.076792 159.917539,103 161.048079,103 L173.449604,103 C174.580963,103 175.497683,102.076792 175.497683,100.937426 L175.497683,40.5526817 L188.951921,40.5526817 C190.08328,40.5526817 191,39.6294736 191,38.4901077 L191,27.0411714 C191,25.9018055 190.08328,24.9785973 188.951921,24.9785973" id="Fill-8" opacity="0.7"></path>
                <path d="M228.677433,159.925814 L228.677433,109.667455 L241.929607,109.667455 C243.073292,109.667455 244,108.739049 244,107.593269 L244,96.0798764 C244,94.9349256 243.073292,94.0056902 241.929607,94.0056902 L228.677433,94.0056902 L228.677433,51.0741861 C228.677433,49.9284057 227.750725,49 226.607039,49 L214.070393,49 C212.926708,49 212,49.9284057 212,51.0741861 L212,159.925814 C212,161.071594 212.926708,162 214.070393,162 L226.607039,162 C227.750725,162 228.677433,161.071594 228.677433,159.925814" id="Fill-10"></path>
                <path d="M267.048026,240 L279.450054,240 C280.581383,240 281.49808,239.075101 281.49808,237.933648 L281.49808,156.584687 L294.951974,156.584687 C296.082484,156.584687 297,155.658961 297,154.518335 L297,143.04843 C297,141.906977 296.082484,140.982078 294.951974,140.982078 L281.49808,140.982078 L281.49808,119.066352 C281.49808,117.924899 280.581383,117 279.450054,117 L267.048026,117 C265.916697,117 265,117.924899 265,119.066352 L265,237.933648 C265,239.075101 265.916697,240 267.048026,240" id="Fill-12" opacity="0.7"></path>
                <path d="M347.951974,80.5980075 L334.49808,80.5980075 L334.49808,69.0729934 C334.49808,67.9278718 333.581383,67 332.450054,67 L320.048026,67 C318.917516,67 318,67.9278718 318,69.0729934 L318,133.927007 C318,135.072128 318.917516,136 320.048026,136 L332.450054,136 C333.581383,136 334.49808,135.072128 334.49808,133.927007 L334.49808,96.2507661 L347.951974,96.2507661 C349.083303,96.2507661 350,95.3228943 350,94.1777727 L350,82.6710009 C350,81.5258794 349.083303,80.5980075 347.951974,80.5980075" id="Fill-14"></path>
                <polygon id="Fill-17" opacity="0.7" points="246 315 301 315 273.5 276"></polygon>
                <path d="M273.000413,340.154058 C252.047069,340.154058 235,323.107815 235,302.154471 C235,281.2003 252.047069,264.154058 273.000413,264.154058 C293.953758,264.154058 311,281.2003 311,302.154471 C311,323.107815 293.953758,340.154058 273.000413,340.154058 M273,251 C244.877973,251 222,273.878613 222,302.000413 C222,330.121387 244.877973,353 273,353 C301.122027,353 324,330.121387 324,302.000413 C324,273.878613 301.122027,251 273,251" id="Fill-19"></path>
            </g>
        </g>
    </g>
</svg>