<?xml version="1.0" encoding="UTF-8"?>
<svg width="400px" height="400px" viewBox="0 0 400 400" version="1.1" xmlns="http://www.w3.org/2000/svg" xmlns:xlink="http://www.w3.org/1999/xlink">
    <defs></defs>
    <g id="list-img__Ideas" stroke="none" stroke-width="1" fill="#2FB71A" fill-rule="evenodd">
        <g id="img_list-bestofthedow">
            <g transform="translate(65.000000, 22.000000)">
                <path d="M89.4252147,145.335675 C87.0420245,147.778558 84.1782204,149 80.834387,149 L77,149 L77,124 L80.834387,124 C84.1782204,124 87.0420245,125.221442 89.4252147,127.664325 C91.8078202,130.107209 93,133.052334 93,136.4997 C93,139.947666 91.8078202,142.892791 89.4252147,145.335675 M81.2246091,115 L68,115 L68,158 L81.2246091,158 C87.2203573,158 92.3490262,155.898757 96.6094157,151.694494 C100.869805,147.490823 103,142.431024 103,136.514506 C103,130.579041 100.869805,125.509177 96.6094157,121.305506 C92.3490262,117.101835 87.2203573,115 81.2246091,115" id="Fill-1"></path>
                <path d="M137.335243,145.345466 C134.89187,147.781822 131.951725,149 128.514806,149 C125.059153,149 122.108734,147.781822 119.665361,145.345466 C117.221989,142.90911 116,139.961014 116,136.5 C116,133.058985 117.221989,130.110301 119.665361,127.654534 C122.108734,125.218178 125.059153,124 128.514806,124 C131.951725,124 134.89187,125.218178 137.335243,127.654534 C139.778616,130.110301 141,133.058985 141,136.5 C141,139.961014 139.778616,142.90911 137.335243,145.345466 M128.014461,115 C121.934047,115 116.75506,117.157043 112.476897,121.469942 C108.158363,125.763248 106,130.945376 106,137.014547 C106,143.064717 108.158363,148.236752 112.476897,152.530058 C116.75506,156.843551 121.934047,159 128.014461,159 C134.075594,159 139.24494,156.843551 143.523705,152.530058 C147.841034,148.236752 150,143.064717 150,137.014547 C150,130.945376 147.841034,125.763248 143.523705,121.469942 C139.24494,117.157043 134.075594,115 128.014461,115" id="Fill-3"></path>
                <polygon id="Fill-5" points="196.142506 115 185.871357 142.995263 183.414038 136.339254 191.258487 115 181.400993 115 178.5 122.91119 175.599007 115 165.771531 115 173.586563 136.339254 171.129244 142.995263 160.828076 115 151 115 166.777754 158 175.480734 158 178.5 149.76791 181.519867 158 190.222246 158 206 115"></polygon>
                <path d="M104.016392,266.132056 L98.8858303,261.006428 C91.8449024,253.972272 82.1502564,250.098501 71.5879682,250.098501 L70.9503827,250.098501 C69.9476943,250.098501 68.9503839,250.059101 67.9566588,250 C60.0546618,288.641595 52.5691569,327.172153 37,365.833449 C55.6578912,356.541533 72.9754786,347.170816 89.068089,337.878303 C101.658461,350.263744 115.105121,362.613366 128.719096,375 C132.478281,341.854157 130.912701,308.692792 128.851752,275.543964 C119.910018,274.456872 111.51325,271.036205 104.38747,265.580451 L104.016392,266.132056 Z" id="Fill-7" opacity="0.7"></path>
                <path d="M198.401378,250.305794 C187.831402,250.305794 178.126954,254.175608 171.075917,261.202313 L163.714438,268.538984 L163.385454,267.294349 C157.824418,271.101574 151.591057,273.729733 145,275.067358 C152.587581,308.380424 161.893658,341.683953 154.681718,375 C169.581729,362.63114 182.205765,350.253934 193.485151,337.886862 C207.532794,347.165594 220.822575,356.441941 232.963303,365.71948 C233.946069,327.046376 214.952293,288.635551 204.502546,250 C202.698515,250.197306 200.877136,250.305794 199.039608,250.305794 L198.401378,250.305794 Z" id="Fill-9" opacity="0.7"></path>
                <path d="M134.999701,225 C85.2944875,225 45,184.705379 45,135 C45,85.294024 85.2944875,45 134.999701,45 C184.704915,45 225,85.294024 225,135 C225,184.705379 184.704915,225 134.999701,225 M256.926876,103.543058 L256.671767,103.094789 C248.332427,94.7547147 243.841785,83.4430678 243.841785,71.6473853 L243.841785,71.0119397 C243.841785,46.4501194 223.543888,26.5367089 198.985425,26.5367089 L198.349439,26.5367089 C186.555392,26.5367089 175.244742,21.852533 166.905403,13.5124585 L166.841029,13.3175329 L166.455981,13.1017437 C157.77272,4.41831404 146.392333,8.90166575e-15 135.011945,8.90166575e-15 C123.631557,8.90166575e-15 112.251169,4.36108817 103.568504,13.0445178 L103.183456,13.1744683 L103.118486,13.5172274 C94.7791468,21.8573018 83.4684968,26.5367089 71.6750459,26.5367089 L71.0390603,26.5367089 C46.4800007,26.5367089 26.1827006,46.4501194 26.1827006,71.0119397 L26.1827006,71.6473853 C26.1827006,83.4430678 21.6914617,94.7547147 13.3527183,103.094789 L13.2347004,103.243815 L13.0487327,103.543058 C4.36547224,112.226488 0.0125170558,123.607879 1.13686404e-13,134.989866 C0.0125170558,146.371257 4.36547224,157.753244 13.0487327,166.436674 L13.2347004,166.735918 L13.3527183,166.884943 C21.6914617,175.225018 26.1827006,186.536665 26.1827006,198.331751 L26.1827006,198.968389 C26.1827006,223.529613 46.4800007,244.215573 71.0390603,244.215573 L71.6750459,244.215573 C83.4684968,244.215573 94.7791468,248.513474 103.118486,256.853549 L103.18286,256.758768 L103.568504,257.002574 C112.251169,265.686004 123.631557,270 135.011945,270 C146.392333,270 157.77272,265.628778 166.455981,256.945348 L166.841625,256.615704 L166.905403,256.858317 C175.244742,248.518243 186.555392,244.215573 198.349439,244.215573 L198.985425,244.215573 C223.543888,244.215573 243.841785,223.529613 243.841785,198.968389 L243.841785,198.331751 C243.841785,186.536665 248.332427,175.225018 256.671767,166.884943 L257.024033,166.436674 C274.389957,149.069219 274.292801,120.910514 256.926876,103.543058" id="Fill-11"></path>
            </g>
        </g>
    </g>
</svg>