<?xml version="1.0" encoding="UTF-8"?>
<svg width="400px" height="400px" viewBox="0 0 400 400" version="1.1" xmlns="http://www.w3.org/2000/svg" xmlns:xlink="http://www.w3.org/1999/xlink">
    <defs></defs>
    <g id="list-img__Ideas" stroke="none" stroke-width="1" fill="#2FB71A" fill-rule="evenodd">
        <g id="img_list-buyingstrength">
            <g transform="translate(35.000000, 28.000000)">
                <path d="M338,147.685194 L337.925774,147.723131 C336.353775,115.028393 309.309037,89 276.176006,89 C256.974471,89 239.83624,97.7467116 228.5,111.459657 C217.16376,97.7467116 200.021111,89 180.823994,89 C147.692731,89 120.646225,115.028393 119.07511,147.723131 L119,147.685194 C119,148.361886 119.006185,149.065929 119.022975,149.793792 C119.017673,150.105229 119,150.414902 119,150.729868 C119,154.771495 119.395871,158.717838 120.141665,162.545075 C122.49657,177.806384 129.381023,198.66033 148.265331,222.173404 L178.15628,183.038178 L183.666669,175.825714 L189.845092,183.383141 C194.449749,189.019891 199.027014,194.671639 203.626369,200.310154 C205.055218,197.689846 206.486717,195.071303 207.946493,192.466875 C211.378558,186.343118 214.845968,180.2423 218.488339,174.229708 C222.049415,168.174767 225.839355,162.239814 229.572741,156.274864 L241.091895,138.548524 L247.715673,128.35138 L254.587755,137.96094 L267.057707,155.404957 C269.903033,159.578922 272.815517,163.709657 275.661727,167.884504 L284.503446,158.121431 C287.771153,154.587103 291.020304,151.039541 294.290662,147.506978 L282.676958,144.689044 L313.416203,128.535772 L305.208055,160.468239 L299.087953,150.864854 C296.339827,154.763555 293.568726,158.645492 290.81795,162.543311 L279.212199,178.62512 L275.852593,183.279917 L271.14455,178.463667 C266.065377,173.266282 261.237159,167.903032 256.271092,162.62889 L250.02728,155.705807 L245.298913,164.499278 C241.87215,170.623035 238.500174,176.775906 234.900217,182.809673 C231.381556,188.885788 227.687933,194.87103 223.955431,200.836862 C220.227346,206.805342 216.37997,212.708534 212.563521,218.629371 L205.672883,229.32411 L198.441159,219.090792 C193.563457,212.181825 188.602692,205.327559 183.651647,198.467116 L155.955665,231.144209 C164.428022,240.43351 174.814346,250.060715 187.547624,259.860844 C195.533978,266.118704 204.426948,272.336862 214.34671,278.545316 C218.850632,281.365014 223.560443,284.182948 228.5,287 C233.440441,284.182948 238.150251,281.365014 242.648871,278.545316 C250.395759,273.696423 257.498471,268.844883 264.048023,263.971286 C265.890416,262.602021 267.701882,261.231874 269.452376,259.860844 C271.042048,258.637151 272.592839,257.416987 274.108284,256.200353 C307.871351,229.106192 323.953631,203.506577 331.511419,182.974655 C333.143505,178.540423 334.37972,174.345284 335.309311,170.420998 C335.963206,167.660411 336.473951,165.024222 336.858335,162.545075 C337.598827,158.717838 338,154.771495 338,150.729868 C338,150.414902 337.982327,150.105229 337.977909,149.793792 C337.993815,149.065929 338,148.361886 338,147.685194" id="Fill-1"></path>
                <path d="M279.585106,260 C279.206067,260.306984 278.843815,260.615733 278.462126,260.920953 C276.919464,262.16124 275.33616,263.407701 273.713096,264.655928 C272.585698,265.540713 271.369947,266.445787 270.174517,267.347332 C271.07131,267.998351 271.735733,268.596441 272.090032,269.12396 C275.973192,274.940782 276.265644,282.191961 272.872849,288.522188 C266.763167,299.919419 250.838234,306.456948 229.180008,306.456948 L174.508293,306.456948 C174.290059,302.257086 171.45036,298.917309 167.942704,298.917309 L167.288001,298.917309 L167.288001,293.021095 L172.125385,293.021095 C175.239865,293.021095 177.76414,290.498178 177.76414,287.38864 C177.76414,284.279983 175.239865,281.761477 172.125385,281.761477 L152.787335,281.761477 C149.678157,281.761477 147.152998,284.279983 147.152998,287.38864 C147.152998,290.498178 149.678157,293.021095 152.787335,293.021095 L157.892432,293.021095 L157.892432,298.917309 L148.237986,298.917309 C140.321464,283.612204 119.31529,272.646339 94.5673226,272.646339 C69.814054,272.646339 48.8078803,283.612204 40.8904746,298.917309 L31.6088824,298.917309 C27.960744,298.917309 25,302.519963 25,306.960649 L25,320.899321 C25,325.343535 27.960744,328.942661 31.6088824,328.942661 L42.7803675,328.942661 C51.8331228,342.543474 71.5864361,352 94.5673226,352 C117.544675,352 137.295338,342.543474 146.347209,328.942661 L167.942704,328.942661 C171.590843,328.942661 174.551587,325.343535 174.551587,320.899321 L174.551587,318.187627 L229.180008,318.187627 C255.309832,318.187627 275.00925,309.392705 283.22971,294.057607 C288.702359,283.849499 288.191673,272.093238 281.86464,262.618187 C281.261182,261.714877 280.480132,260.850382 279.585106,260" id="Fill-3" opacity="0.8"></path>
                <path d="M20.7164069,85.6316406 C5.75477351,64.7965594 10.5358163,35.6772782 31.3635268,20.7160624 C52.2053745,5.75573017 81.3290027,10.5339889 96.2862182,31.3664194 C111.24255,52.1988499 106.466809,81.3234324 85.6337968,96.2855318 C64.7981341,111.24498 35.6753895,106.464071 20.7164069,85.6316406 M92.6200644,106.014958 C118.860264,87.1704811 124.857822,50.6228929 106.014669,24.3785435 C87.1688642,-1.85873305 50.6283182,-7.85819927 24.3810456,10.9845098 C-1.85827034,29.8263347 -7.85848049,66.3765752 10.9837884,92.6173882 C29.8269413,118.860853 66.3798644,124.857667 92.6200644,106.014958" id="Fill-5"></path>
                <path d="M66.9717294,52.3458872 C68.0322341,53.7707217 68.6150178,55.3732272 68.8395108,57 L92,35 L63,49.1521431 C64.5274501,49.8784274 65.9121226,50.9219193 66.9717294,52.3458872" id="Fill-7"></path>
                <path d="M62.8695255,64.593698 C66.2419996,62.1741047 67.0053665,57.4879255 64.5925044,54.1269471 C62.1727262,50.7616463 57.4922406,49.9922865 54.1249536,52.408422 C50.7619893,54.825422 49.9934352,59.5090078 52.4062973,62.8708507 C54.8260755,66.2378804 59.5065612,67.0072401 62.8695255,64.593698" id="Fill-9" opacity="0.8"></path>
                <path d="M114.440748,171.241172 C104.501102,168.777404 95.0839883,164.870084 87.1989853,158.855721 C75.8257024,150.180384 68.7054241,137.816845 65.912671,122 C63.5280077,122.268201 61.1282627,122.447002 58.7019032,122.447002 C57.1263221,122.447002 55.5613867,122.369872 54,122.25593 C57.0420427,141.829342 65.7379022,157.219345 80.0121706,168.09726 C91.0518845,176.511408 104.349399,181.376714 118,184 C116.861785,180.657129 115.833576,177.301111 115.039575,173.974893 C114.817787,173.053719 114.63326,172.148322 114.440748,171.241172" id="Fill-11" opacity="0.8"></path>
            </g>
        </g>
    </g>
</svg>