<?xml version="1.0" encoding="UTF-8"?>
<svg width="400px" height="400px" viewBox="0 0 400 400" version="1.1" xmlns="http://www.w3.org/2000/svg" xmlns:xlink="http://www.w3.org/1999/xlink">
    <defs></defs>
    <g id="list-img__Ideas" stroke="none" stroke-width="1" fill="#FFFFFF" fill-rule="evenodd">
        <g id="img_list-dontfighttheshorts">
            <g transform="translate(22.000000, 75.000000)">
                <path d="M258.543078,18.9790778 C259.805294,18.3147862 261.159322,18 262.492519,18 C265.547761,18 268.499619,19.6518562 270.021067,22.5427975 C272.206029,26.6967414 270.610513,31.8343923 266.458161,34.0209222 C265.195945,34.6844422 263.841146,35 262.507949,35 C259.453479,35 256.501621,33.3489153 254.979401,30.4572025 C252.793668,26.3032586 254.389183,21.1648362 258.543078,18.9790778 L258.543078,18.9790778 Z M269.732347,105.429963 C272.430707,108.93803 276.378061,111 280.282535,111 C281.493327,111 282.700221,110.801958 283.862675,110.388787 L319.781026,97.6208824 C322.987716,96.4815566 325.417876,93.8347793 326.454807,90.3523411 C327.491738,86.8699029 327.035645,82.8865341 325.205033,79.4087557 L287.494272,7.84247572 C285.648067,4.33596177 282.580155,1.68607792 279.081878,0.571604489 C277.995829,0.226001231 276.901204,0.0396084632 275.825291,0.00543645574 C275.710683,0.00155327307 275.597634,3.49805905e-14 275.483805,3.49805905e-14 C273.216591,3.49805905e-14 271.046053,0.689653242 269.234153,2.02935126 L238.547235,24.7218942 C234.893028,27.4238127 233.350106,32.2498321 234.251378,37.0882777 L269.732347,105.429963 Z" id="Fill-7" opacity="0.7"></path>
                <path d="M265,112.502864 L225.51433,36 C225.51433,36 216.22404,41.0256107 209.157334,41.0256107 C208.935286,41.0256107 208.714791,41.020165 208.498178,41.0100515 C196.671421,40.4514774 183.07294,39.2946534 168.195745,39.2946534 C154.588724,39.2946534 139.91339,40.2632115 124.555608,43.5407499 C123.264471,43.8013659 122.009047,44.2440242 120.8103,44.8298268 C114.600729,47.3154036 110.211793,53.3920359 110.211793,60.500241 C110.211793,64.3892545 111.530881,67.9670848 113.736606,70.8198579 C105.034821,71.8327596 98.2786704,79.2381447 98.2786704,88.2297869 C98.2786704,93.6404869 100.731288,98.4684961 104.575198,101.685354 C97.274021,104.082243 92,110.960951 92,119.07739 C92,127.415547 97.5659438,134.443622 105.176124,136.652246 C100.249926,139.845765 96.9875329,145.394163 96.9875329,151.711185 C96.9875329,154.084735 97.5674966,156.763246 98.4782027,158.944641 C100.081449,162.790089 103.353159,166.052068 107.075952,167.867823 C108.557305,168.590546 110.143471,169.078326 111.759916,169.390287 C114.013001,169.825166 116.311117,169.985425 118.603022,170.015766 C119.366214,170.026657 120.127077,170.032103 120.889492,170.032103 C122.503608,170.032103 124.118501,170.009542 125.732616,169.977646 C128.422033,169.924745 131.110674,169.847727 133.799314,169.745036 C143.132305,169.387175 152.452097,168.687013 161.727635,167.590092 C164.057583,167.314694 167.17712,166.669767 170.137497,166.669767 C173.166197,166.669767 176.028749,167.345035 177.7042,169.779266 C179.725921,172.715281 177.911496,176.155413 176.524862,178.951395 C173.882805,184.278075 170.657679,189.246117 167.703513,194.393867 C162.886786,202.78337 158.535893,211.578966 156.766499,221.174304 C155.33173,228.96789 155.066204,237.746372 157.726118,245.319018 C159.450482,250.225601 164.9745,260.68525 170.785007,261.653809 C170.785007,261.653809 172.246951,262 174.079232,262 C175.734497,262 177.691777,261.716823 179.14751,260.643241 C184.769354,256.498279 183.436291,247.84816 184.724323,241.796423 C186.111733,235.281022 188.868696,229.178717 192.545681,223.644322 C199.891112,212.592646 210.43372,204.087228 220.025248,195.105699 C243.910127,172.740176 236.213768,131.568288 265,112.502864" id="Fill-9"></path>
                <path d="M327.023192,201.167529 L322.123979,225.86919 L261.895945,136.300479 C260.50751,134.232448 258.189042,133.017053 255.738268,133 C252.953615,137.852278 250.863958,143.244042 249,148.907876 L252.0874,148.471481 L309.702778,234.155268 L284.902405,229.261134 L296.876878,247.071164 L332.04226,254 L339,218.976785 L327.023192,201.167529 Z" id="Fill-4" opacity="0.8"></path>
                <path d="M104,67.3654429 C103.464396,65.361784 103.189968,63.277729 103.189968,61.1491829 C103.189968,59.6778557 103.336538,58.2377503 103.591476,56.8296472 L93.4703614,41.8260122 C92.1223868,39.8254755 89.8965525,38.5984589 87.4882855,38.5258682 C85.064426,38.4563997 82.7832382,39.5460404 81.3183196,41.4614977 L55.0924561,75.7360069 L13.6638714,15.2586039 C12.0009276,12.829548 9.15918818,11.6868302 6.43127426,12.0739805 C5.32420431,12.2316506 4.23740465,12.6398756 3.25273609,13.3150469 C-0.15657159,15.6574623 -1.02585539,20.3243406 1.31380442,23.7400053 L48.5825729,92.7440813 C49.9383438,94.7251044 52.1626189,95.9357296 54.5607507,95.9973926 C56.9674584,96.0606168 59.2431888,94.970976 60.70265,93.0625436 L86.8817359,58.8512586 L96.7229641,73.4396437 C98.7219271,70.979366 101.186327,68.9046775 104,67.3654429" id="Fill-1" opacity="0.8"></path>
            </g>
        </g>
    </g>
</svg>