<?xml version="1.0" encoding="UTF-8"?>
<svg width="400px" height="400px" viewBox="0 0 400 400" version="1.1" xmlns="http://www.w3.org/2000/svg" xmlns:xlink="http://www.w3.org/1999/xlink">
    <defs></defs>
    <g id="list-img__Themes" stroke="none" stroke-width="1" fill="#7A00A1" fill-rule="evenodd">
        <g id="img_list-ecofriendly">
            <g id="Page-1" transform="translate(51.000000, 51.000000)">
                <path d="M91,50.6164416 C105.255656,21.6390429 125.375042,3.47529022 147,0 L147,62 C126.912617,61.206823 107.698028,57.2967543 91,50.6164416 Z M82.7438692,33.0503704 C80.5403155,36.7451852 78.389262,40.7540741 76.321334,45 C70.6352612,41.8622222 65.5048164,38.3911111 61,34.6311111 C72.3721457,24.8088889 85.2653414,16.802963 99,11 C93.1447596,17.3362963 87.7007714,24.7081481 82.7438692,33.0503704 Z M239,58.6459366 C241.109392,57.525911 243.093069,56.4073438 244.986113,55.2654427 C250.194543,52.1226626 255.00536,48.6780006 259.335242,45 C270.988793,57.247363 280.284444,71.2476826 287,86.683035 C279.97454,98.4447619 268.300524,109.181257 253.00268,118 C250.864052,96.6961803 246.168717,76.7734338 239,58.6459366 Z M236.758805,233.907297 C248.285043,229.754863 258.952821,224.744766 268.48526,218.992433 C273.693163,215.856922 278.537758,212.515396 283,209 C267.368967,239.151169 241.380727,262.994788 210,276 C215.88471,269.750894 221.359234,262.474638 226.348859,254.241364 C230.104995,248.056547 233.595974,241.224464 236.758805,233.907297 Z M262.916585,129.505861 C275.085862,122.023207 285.040976,113.45992 292.580902,104 C296.185019,116.828867 298,130.107511 298,143.583297 C298,152.501441 297.181535,161.466314 295.57476,170.228204 C286.980881,188.006078 268.828197,203.719067 244,215 C250.714282,192.995974 254.239424,168.477286 254.239424,143.583297 C254.239424,140.76927 254.181987,137.84572 254.067115,134.536646 C257.165794,132.902554 260.135241,131.221731 262.916585,129.505861 Z M232.683041,45 C230.619488,40.76 228.465518,36.7585185 226.269256,33.0503704 C221.302145,24.7081481 215.858157,17.3362963 210,11 C223.74195,16.802963 236.626396,24.8088889 248,34.6311111 C243.501017,38.3925926 238.363281,41.8622222 232.683041,45 Z M162,0 C183.627305,3.47529022 203.743259,21.6390429 218,50.6164416 C201.305315,57.2982232 182.09268,61.2082919 162,62 L162,0 Z M223.942592,65 C230.892433,83.0498911 235.377791,103.680827 237,125.039042 C215.031313,134.63594 189.226732,140.129006 162,141 L162,77.5669863 C184.18904,76.7613172 205.450275,72.4382855 223.942592,65 Z M66.7893,70 C57.9397682,66.3107188 48.3634418,62.8925811 38,59.8148148 C41.8134641,54.6328026 45.9947392,49.6873197 50.530584,45 C54.856041,48.6085151 59.7008471,52.0093458 64.9752564,55.1390331 C66.8952296,56.2740856 68.8858226,57.3817353 71,58.483616 C69.4860901,62.2478943 68.0825234,66.0857275 66.7893,70 Z M168.20976,248.223014 C184.785142,247.351271 200.798252,244.933222 216,241 C201.887837,267.853542 182.610342,284.652388 162,288 L162,265.846161 C164.469046,260.282127 166.550619,254.378588 168.20976,248.223014 Z M237.994178,141 C238,141.70223 238,142.397205 238,143.105238 C238,170.923103 233.273654,197.864632 224.31441,221.147023 C207.969432,226.360062 189.930131,229.713063 171.438137,231 C173.056769,219.819461 173.275109,208.106447 171.892285,196.333946 C170.796215,187.003289 168.163028,173.868405 162,159.168013 L162,156.013783 C189.24163,155.189679 215.3377,150.036127 237.994178,141 Z M148,132 C134.157122,112.514972 113.074781,92.6890208 81,76.6860635 C82.254428,72.6911518 83.619281,68.7836563 85.0930866,65 C103.865336,72.4638702 125.470356,76.8026181 148,77.6126731 L148,132 Z" id="Combined-Shape" opacity="0.7"></path>
                <path d="M14.8566348,69 C21.8345435,103.254063 -16.6954578,160.395782 8.87369728,221.478712 C29.4679968,270.68542 65.852182,298.734048 98.0394246,296.916825 C88.018332,226.72733 66.4727643,157.144063 28.794971,95.1729729 C23.4297022,86.9180491 29.8176207,82.5050028 35.2965172,90.9352214 C76.3350694,151.241011 105.148442,220.590552 119.366477,292.129816 C174.452623,264.373347 194.097111,111.574722 14.8566348,69" id="Fill-19"></path>
            </g>
        </g>
    </g>
</svg>