<?xml version="1.0" encoding="UTF-8"?>
<svg width="400px" height="400px" viewBox="0 0 400 400" version="1.1" xmlns="http://www.w3.org/2000/svg" xmlns:xlink="http://www.w3.org/1999/xlink">
    <defs></defs>
    <g id="list-img__Themes" stroke="none" stroke-width="1" fill="#FFFFFF" fill-rule="evenodd">
        <g id="img_list-internet">
            <g id="Page-1" transform="translate(41.000000, 48.000000)">
                <path d="M12.0417389,220 C7.50830195,220 3.49438896,220 0,220 L51.3997607,161.700662 C55.2575525,157.880265 60.4674321,155.736207 65.8964574,155.736207 L70.0078518,155.736207 L38.9236151,21.9298789 C37.7300289,16.7891066 39.4859513,12.0194744 42.897182,11.1406038 C46.3056561,10.2617331 50.1455304,13.5909558 51.5803147,18.6682617 L90.2795209,155.736207 L222.740021,155.736207 L261.439227,18.6682617 C262.874011,13.5909558 266.712507,10.2617331 270.12236,11.1406038 C273.532212,12.0194744 275.288135,16.7891066 274.094548,21.9298789 L243.01169,155.736207 L251.103543,155.736207 C256.532568,155.736207 261.741069,157.880265 265.600239,161.700662 L318,220 C313.809257,220 309.462011,220 304.958261,220 L12.0417389,220 Z" id="Fill-1"></path>
                <path d="M195,257 L285,257 L285,251 L195,251 L195,257 Z M158.49931,261 C154.35757,261 151,257.64243 151,253.50069 C151,249.358951 154.35757,246 158.49931,246 C162.64243,246 166,249.358951 166,253.50069 C166,257.64243 162.64243,261 158.49931,261 L158.49931,261 Z M120.49931,261 C116.35757,261 113,257.64243 113,253.50069 C113,249.358951 116.35757,246 120.49931,246 C124.64243,246 128,249.358951 128,253.50069 C128,257.64243 124.64243,261 120.49931,261 L120.49931,261 Z M81.5,261 C77.3578792,261 74,257.64243 74,253.50069 C74,249.358951 77.3578792,246 81.5,246 C85.6435015,246 89,249.358951 89,253.50069 C89,257.64243 85.6435015,261 81.5,261 L81.5,261 Z M43.5006903,261 C39.3575702,261 36,257.64243 36,253.50069 C36,249.358951 39.3575702,246 43.5006903,246 C47.6424298,246 51,249.358951 51,253.50069 C51,257.64243 47.6424298,261 43.5006903,261 L43.5006903,261 Z M13.297986,226 C8.64870206,226 4.21604007,226 -1.20808745e-13,226 C-6.84494995e-13,230.634818 -9.66338121e-13,235.111216 -9.66338121e-13,239.429195 L-9.66338121e-13,267.569411 C-9.66338121e-13,274.98699 5.95302363,281 13.297986,281 L304.703395,281 C312.048357,281 318,274.98699 318,267.569411 L318,239.429195 C318,235.327223 318,230.850824 318,226 C313.811424,226 309.379223,226 304.703395,226 L13.297986,226 Z" id="Fill-3" opacity="0.7"></path>
                <path d="M195.750404,79.7015616 C198.339816,77.6901233 198.75706,74.0230754 196.672223,71.51482 C187.447097,60.3847722 173.719609,54 159.006537,54 C144.28099,54 130.539641,60.3901432 121.322831,71.5336185 C119.243539,74.0445594 119.660784,77.7102646 122.25574,79.7203601 C123.360538,80.5810623 124.692671,81 126.006784,81 C127.768637,81 129.519401,80.2547742 130.704598,78.8180326 C137.634186,70.4486771 147.944703,65.6483489 159.006537,65.6483489 C170.055896,65.6483489 180.366414,70.4446489 187.30016,78.8059479 C189.373907,81.320917 193.160992,81.722399 195.750404,79.7015616" id="Fill-5" opacity="0.7"></path>
                <path d="M208.322294,61.7670543 C209.509955,63.2373293 211.250659,64 213.007955,64 C214.318668,64 215.648738,63.5732348 216.756207,62.6852878 C219.337537,60.6244249 219.753703,56.8661377 217.681172,54.2917799 C203.192816,36.3111981 181.617208,26 158.490314,26 C135.375862,26 113.812698,36.3029381 99.3243418,54.2711299 C97.2448984,56.8441111 97.6610636,60.6010216 100.243777,62.6646379 C102.825107,64.7296308 106.595481,64.3125023 108.670776,61.7464044 C120.87368,46.6182661 139.030097,37.9411658 158.490314,37.9411658 C177.957443,37.9411658 196.122156,46.6251494 208.322294,61.7670543" id="Fill-6"></path>
                <path d="M85.0086865,48 C86.7707347,48 88.5147603,47.2296724 89.7070195,45.7513638 C106.911597,24.3138115 132.538237,12.0190504 160.003175,12.0190504 C187.461181,12.0190504 213.086435,24.3138115 230.292398,45.7485929 C232.377466,48.336672 236.159423,48.7564728 238.74912,46.6727089 C241.338818,44.5958724 241.756109,40.8135084 239.676587,38.2254294 C220.170673,13.9324001 191.130844,0 160.003175,0 C128.868574,0 99.8301316,13.935171 80.3228307,38.2282003 C78.2446952,40.8190504 78.6605996,44.6014143 81.2502974,46.6754799 C82.3607621,47.5677298 83.6930424,48 85.0086865,48" id="Fill-7" opacity="0.7"></path>
                <path d="M149,96 C149,102.075395 153.925685,107 160.000696,107 C166.074315,107 171,102.075395 171,96 C171,89.9246047 166.074315,85 160.000696,85 C153.925685,85 149,89.9246047 149,96" id="Fill-8"></path>
            </g>
        </g>
    </g>
</svg>