<?xml version="1.0" encoding="UTF-8"?>
<svg width="400px" height="400px" viewBox="0 0 400 400" version="1.1" xmlns="http://www.w3.org/2000/svg" xmlns:xlink="http://www.w3.org/1999/xlink">
    <defs></defs>
    <g id="list-img__Ideas" stroke="none" stroke-width="1" fill="#FFFFFF" fill-rule="evenodd">
        <g id="img_list-PGRdowngrade">
            <g transform="translate(31.000000, 49.000000)">
                <path d="M0,176 L66.7812523,176 C66.7812523,117.208265 112.546133,69.5476112 168.99934,69.5476112 C225.452547,69.5476112 271.61466,117.208265 271.61466,176 L338,176 C338,78.79717 262.335784,0 168.99934,0 C75.664216,0 0,78.79717 0,176 Z" id="Combined-Shape"></path>
                <path d="M246.449445,229.458333 C247.459281,227.291667 247.055346,224.944444 245.43961,223.138889 L173.741308,153.805556 C172.529506,152.722222 170.711802,152 168.894099,152 C167.076395,152 165.460659,152.722222 164.248857,153.805556 L93.56039,223.138889 C91.9446536,224.944444 91.5407195,227.291667 92.5505547,229.458333 C93.56039,231.625 95.7820275,232.888889 98.4075991,232.888889 L132.741997,232.888889 L132.741997,302.222222 C132.741997,305.472222 135.569536,308 139.204943,308 L199.795057,308 C203.430464,308 206.258003,305.472222 206.258003,302.222222 L206.258003,232.888889 L240.592401,232.888889 C243.217973,232.888889 245.43961,231.444444 246.449445,229.458333 Z" id="" opacity="0.8" transform="translate(169.341928, 230.039462) rotate(-180.000000) translate(-169.341928, -230.039462) "></path>
            </g>
        </g>
    </g>
</svg>