<?xml version="1.0" encoding="UTF-8"?>
<svg width="400px" height="400px" viewBox="0 0 400 400" version="1.1" xmlns="http://www.w3.org/2000/svg" xmlns:xlink="http://www.w3.org/1999/xlink">
    <defs></defs>
    <g id="list-img__Ideas" stroke="none" stroke-width="1" fill="#7C828F" fill-rule="evenodd">
        <g id="img_list-earningschamps">
            <g transform="translate(12.000000, 53.000000)">
                <path d="M319,107.438021 C317.915802,108.482093 316.036466,109.714924 313,111 L313,103.174096 C314.536021,102.712311 316,102.215977 317.319004,101.685093 L317.337682,101.685093 C317.93359,101.461785 318.458346,101.240162 319,101 L319,107.438021 Z M291,116.265208 C289.060372,116.543368 287.047584,116.788566 285,117 L285,108.684949 C285.307807,108.652791 285.634349,108.61983 285.924312,108.587673 C286.975316,108.506476 288.027212,108.375435 288.914944,108.261277 L289.005948,108.261277 C289.676877,108.179276 290.329071,108.080393 291,108 L291,116.265208 Z M237,117 C234.939529,116.788962 232.951979,116.544223 231,116.266583 L231,108 C231.939973,108.113944 232.807915,108.24474 233.764784,108.342636 C234.777679,108.472628 235.843041,108.587375 237,108.700517 L237,117 Z M223,118 C220.884969,117.56063 218.898014,117.069365 217,116.54091 L217,108 C218.93359,108.43937 220.921435,108.861443 223,109.248054 L223,118 Z M210,114 C207.026762,112.747362 205.105263,111.530176 204,110.466616 L204,104 C204.28992,104.137588 204.616414,104.257449 204.924175,104.377311 C205.396075,104.566388 205.830508,104.772347 206.32025,104.943699 C207.498662,105.389381 208.730598,105.8013 210,106.212374 L210,114 Z M310.308333,94.6949476 C308.92,95.2371306 307.43,95.7626311 305.735833,96.2539323 C304.28,96.6776692 302.705833,97.1022402 301.096667,97.4909438 L299.081667,97.9488799 L298.845,97.9997617 C297.455833,98.2883699 296.016667,98.5761439 294.544167,98.8472355 C294.475833,98.863918 294.390833,98.8806006 294.323333,98.8981173 C292.088333,99.2876549 289.666667,99.66051 287.025,100 C286.280833,100.118446 285.535,100.202693 284.671667,100.287774 C283.029167,100.474619 281.37,100.643947 279.7275,100.795758 C279.6425,100.795758 279.575,100.813275 279.49,100.813275 C277.965833,100.931721 276.46,101.051001 274.97,101.15193 C270.3975,101.440539 265.724167,101.59235 261.0675,101.59235 C258.036667,101.59235 254.785833,101.524786 251.229167,101.389657 C249.079167,101.287893 246.98,101.15193 244.829167,100.982602 C243.7625,100.915038 242.729167,100.829957 241.629167,100.728194 C239.5625,100.542183 237.531667,100.321973 235.55,100.067564 C227.27,99.0332459 220.175,97.5760248 214.485,95.7284318 C213.47,95.389776 212.504167,95.0336034 211.539167,94.6607483 C209.795833,94.1869638 208.085,93.6948284 206.494167,93.1860105 C199.788333,91.0172784 194.895,88.5591039 191.321667,86.0341992 C191.169167,86.6272641 191.0675,87.1861296 191.05,87.678265 C191.016667,87.8642755 191,88.050286 191,88.2037655 L191,105.999881 C191,106.236773 191.034167,106.4745 191.084167,106.694709 C191.525,110.897879 195.283333,116.660867 209.914167,121.40622 C222.833333,125.592707 241.46,128 261.016667,128 C276.865833,128 292.291667,126.405982 304.466667,123.524905 C325.683333,118.50846 330.238333,111.287417 330.865,106.965801 C330.949167,106.661344 331,106.338537 331,105.999881 L331,88.1362011 C331,87.4747378 330.898333,86.7457102 330.711667,86 C326.275833,89.1521687 319.756667,92.1858913 310.308333,94.6949476 L310.308333,94.6949476 Z M313,69.1749389 C314.536021,68.7131541 316,68.2159771 317.319004,67.6850931 L317.337682,67.6850931 C317.93359,67.4626275 318.458346,67.2401618 319,67 L319,73.4388641 C317.915802,74.4829359 316.036466,75.7157664 313,77 L313,69.1749389 Z M291,82.2652733 C289.060372,82.5426045 287.047584,82.7877814 285,83 L285,74.6856913 C285.307807,74.653537 285.634349,74.6205788 285.924312,74.5876206 C286.975316,74.5064309 288.027212,74.3762058 288.914944,74.261254 L289.005948,74.261254 C289.676877,74.1800643 290.329071,74.0819936 291,74 L291,82.2652733 Z M237,83 C234.939529,82.7881787 232.951979,82.5434608 231,82.2666488 L231,74 C231.939973,74.1147366 232.807915,74.2447178 233.764784,74.342605 C234.777679,74.4733886 235.843041,74.5873228 237,74.701257 L237,83 Z M223,84 C220.884969,83.5606296 218.898014,83.0685003 217,82.5409099 L217,74 C218.93359,74.4393704 220.921435,74.8605778 223,75.229891 L223,84 Z M210,79 C207.026762,77.7473622 205.105263,76.5293323 204,75.4657719 L204,69 C204.28992,69.1367435 204.616414,69.2574491 204.924175,69.3773107 C205.396075,69.5663881 205.830508,69.7715033 206.32025,69.9428547 C207.498662,70.3893813 208.730598,70.8012999 210,71.2123744 L210,79 Z M305.735833,64.4706716 C304.28,64.8942344 302.705833,65.3344728 301.096667,65.7071747 L299.081667,66.1640889 L298.845,66.2324592 C297.455833,66.5201151 296.016667,66.8077709 294.544167,67.0795848 C294.475833,67.0795848 294.390833,67.0962605 294.323333,67.11377 C292.088333,67.5023138 289.666667,67.8758494 287.025,68.2310418 C286.280833,68.3335974 285.535,68.4178096 284.671667,68.5028557 C283.029167,68.6887898 281.37,68.8580481 279.7275,69.0106308 C279.6425,69.0106308 279.575,69.0281402 279.49,69.0281402 C277.965833,69.1465377 276.46,69.2649352 274.97,69.3666569 C270.3975,69.6543128 265.724167,69.8068954 261.0675,69.8068954 C258.036667,69.8068954 254.785833,69.7393588 251.229167,69.6034519 C249.079167,69.5017301 246.98,69.3833326 244.829167,69.2140743 C243.7625,69.129862 242.729167,69.0448159 241.629167,68.9430942 C239.5625,68.7563263 237.531667,68.5370409 235.55,68.2819027 C227.27,67.2488431 220.175,65.7922208 214.485,63.9453871 C213.47,63.6068704 212.504167,63.2508442 211.539167,62.8781423 C209.795833,62.4028849 208.085,61.929295 206.494167,61.4040105 C199.601667,59.1669654 194.606667,56.6430983 191.016667,54.0508609 C191.016667,54.1017218 191,54.1692583 191,54.220953 L191,72.0097553 C191,72.2465502 191.034167,72.4833451 191.084167,72.7042982 C191.525,76.9057406 195.283333,82.6655272 209.914167,87.4089298 C222.833333,91.5945304 241.46,94 261.016667,94 C276.865833,94 292.291667,92.4074707 304.466667,89.5267437 C325.683333,84.5123609 330.238333,77.295952 330.865,72.9752783 C330.949167,72.6526035 331,72.348272 331,72.0097553 L331,54.220953 L331,54.1867678 L331,54.1525826 L331,54 C326.564167,57.2525952 319.96,60.3534414 310.308333,62.9281694 C308.92,63.453454 307.43,63.9787385 305.735833,64.4706716 L305.735833,64.4706716 Z M319,142.438021 C317.915802,143.482093 316.036466,144.714924 313,146 L313,138.174096 C314.536021,137.712311 316,137.215977 317.319004,136.685093 L317.337682,136.685093 C317.93359,136.461785 318.458346,136.240162 319,136 L319,142.438021 Z M291,151.265208 C289.060372,151.543368 287.047584,151.788566 285,152 L285,143.685753 C285.307807,143.652791 285.634349,143.620634 285.924312,143.587673 C286.975316,143.506476 288.027212,143.375435 288.914944,143.261277 L289.005948,143.261277 C289.676877,143.18008 290.329071,143.081197 291,143 L291,151.265208 Z M237,151 C234.939529,150.772537 232.951979,150.528255 231,150.251135 L231,142 C231.939973,142.114532 232.807915,142.244282 233.764784,142.358815 C234.777679,142.471745 235.843041,142.586277 237,142.700009 L237,151 Z M223,152 C220.884969,151.559803 218.898014,151.068581 217,150.541036 L217,142 C218.93359,142.440197 220.921435,142.861368 223,143.248811 L223,152 Z M210,148 C207.026762,146.747256 205.105263,145.529968 204,144.466318 L204,138 C204.28992,138.136755 204.616414,138.257471 204.924175,138.376498 C205.396075,138.565592 205.830508,138.771568 206.32025,138.942934 C207.498662,139.388654 208.730598,139.800608 210,140.212561 L210,148 Z M310.308333,128.694948 C308.92,129.237131 307.43,129.762631 305.735833,130.253932 C304.28,130.678503 302.705833,131.10224 301.096667,131.490944 L299.081667,131.94888 L298.845,132.000596 C297.455833,132.28837 296.016667,132.593661 294.544167,132.864752 C294.475833,132.864752 294.390833,132.880601 294.323333,132.898117 C292.088333,133.288489 289.666667,133.661344 287.025,134 C286.280833,134.118446 285.535,134.202693 284.671667,134.287774 C283.029167,134.474619 281.37,134.643947 279.7275,134.796592 C279.6425,134.796592 279.575,134.813275 279.49,134.813275 C277.965833,134.931721 276.46,135.051001 274.97,135.152765 C270.3975,135.440539 265.724167,135.593184 261.0675,135.593184 C258.036667,135.593184 254.785833,135.524786 251.229167,135.389657 C249.079167,135.287893 246.98,135.152765 244.829167,134.999285 C243.7625,134.915038 242.729167,134.829957 241.629167,134.728194 C239.5625,134.543017 237.531667,134.321973 235.55,134.067564 C227.27,133.03408 220.175,131.576025 214.485,129.728432 C213.47,129.389776 212.504167,129.033603 211.539167,128.661582 C209.795833,128.186964 208.085,127.695663 206.494167,127.18601 C199.788333,125.017278 194.895,122.559104 191.321667,120.034199 C191.169167,120.627264 191.0675,121.186964 191.05,121.678265 C191.016667,121.864276 191,122.05112 191,122.203765 L191,139.999881 C191,140.237607 191.034167,140.4745 191.084167,140.695543 C191.525,144.898713 195.283333,150.660867 209.914167,155.40622 C222.833333,159.592707 241.46,162 261.016667,162 C276.865833,162 292.291667,160.405982 304.466667,157.524905 C325.683333,152.50846 330.238333,145.287417 330.865,140.965801 C330.949167,140.661344 331,140.339371 331,139.999881 L331,122.136201 C331,121.474738 330.898333,120.746544 330.711667,120 C326.275833,123.152169 319.756667,126.186725 310.308333,128.694948 L310.308333,128.694948 Z M319.915654,22.9704214 C319.882249,23.0209139 319.882249,23.055417 319.864712,23.1235818 C319.81377,23.260753 319.746126,23.3979242 319.644242,23.6032602 C319.559061,23.7219175 319.458012,23.8422578 319.321889,24.0475938 C319.084717,24.3724286 318.795769,24.6795911 318.404936,24.9875951 C318.321425,25.0557599 318.252946,25.1239247 318.167765,25.2097619 C317.9807,25.3637639 317.761065,25.5177659 317.489654,25.706271 C317.251647,25.8771039 316.996938,26.0479367 316.589403,26.3046067 C316.555999,26.3214375 316.521759,26.3559407 316.48752,26.3727715 C316.454115,26.3896023 316.419876,26.4072747 316.385636,26.4417778 L316.369769,26.4417778 C316.200241,26.5436043 316.064118,26.6462723 315.877053,26.7489403 C315.690823,26.8516083 315.487056,26.9542763 315.283288,27.0737751 C315.198107,27.1082783 315.113761,27.1587707 315.028579,27.2109463 L314.707061,27.3641067 C314.248585,27.6047874 313.824348,27.8092819 313.383409,28.0146179 C312.857289,28.2536155 312.331168,28.4934547 311.719866,28.7324523 C310.124803,29.3989527 308.360212,30.0149607 306.323374,30.6132963 C304.864434,31.0416407 303.286907,31.4859743 301.674306,31.8613016 L299.655006,32.3233076 L299.417834,32.3914724 C298.025703,32.6826456 296.583465,32.9729772 295.107822,33.2473195 C295.039343,33.2473195 294.954162,33.2633088 294.886518,33.2809812 C292.646748,33.6739808 290.219913,34.0509911 287.572608,34.4094876 C286.826853,34.5121556 286.079428,34.5979928 285.214253,34.6838299 C283.568247,34.870652 281.90554,35.0414849 280.259534,35.1963284 C280.174353,35.1963284 280.106709,35.2140007 280.021527,35.2140007 C278.494108,35.332658 276.985061,35.4529984 275.491881,35.5556664 C270.909622,35.845998 266.226315,36 261.55971,36 C258.522409,36 255.264638,35.9309936 251.70038,35.794664 C249.545792,35.691996 247.442145,35.5716557 245.286722,35.4008228 C244.217779,35.3158272 243.18224,35.22999 242.079892,35.1281636 C240.008815,34.9396584 237.973648,34.7174916 235.987752,34.4608216 C227.690081,33.4181524 220.579939,31.9471388 214.877795,30.0831255 C212.672265,29.3484603 210.61956,28.5271163 208.650367,27.5871151 C208.616962,27.5526119 208.56602,27.5357811 208.515078,27.5181087 C208.0399,27.2959419 207.581423,27.0401135 207.038601,26.7144371 C206.852371,26.6285999 206.665306,26.5099427 206.359655,26.3214375 C206.003897,26.0984291 205.698246,25.8939347 205.392595,25.6540955 C205.274009,25.552269 205.189663,25.4832627 205.070242,25.3974255 L204.764591,25.1415971 C204.611766,25.0052674 204.442238,24.8680962 204.340354,24.7822591 C203.950357,24.4229211 203.662244,24.0812555 203.440939,23.7395898 C203.425072,23.7059282 203.390832,23.671425 203.373295,23.6537526 C203.18623,23.3289178 203.068479,23.0209139 203.03424,22.7305822 C203.016702,22.6792482 203.016702,22.6279142 203,22.5765802 C203.016702,22.5252462 203.016702,22.4739122 203.016702,22.4225782 C203.085181,20.5762374 207.038601,16.540207 221.41171,13.1210261 C232.509511,10.4533412 246.746497,9 261.474529,9 C279.563051,9 296.549225,11.1543448 308.105502,14.9337053 C316.86165,17.7713814 319.984133,20.7807318 320,22.490743 C320,22.6615759 319.966596,22.8155779 319.915654,22.9704214 L319.915654,22.9704214 Z M319,41.4322499 C317.915802,42.4951456 316.036466,43.7142254 313,45 L313,37.1781342 C314.536021,36.6969185 316,36.1996623 317.319004,35.6855213 C317.319004,35.6686366 317.337682,35.6686366 317.337682,35.6686366 C317.93359,35.4457577 318.458346,35.2220346 319,35 L319,41.4322499 Z M291,50.2644695 C289.060372,50.5426045 287.047584,50.7869775 285,51 L285,42.6856913 C285.307807,42.6527331 285.634349,42.6205788 285.924312,42.5876206 C286.975316,42.505627 288.027212,42.3914791 288.914944,42.261254 L289.005948,42.261254 C289.676877,42.1792605 290.329071,42.0811897 291,42 L291,50.2644695 Z M237,51 C234.939529,50.7725169 232.951979,50.5290139 231,50.251869 L231,42 C231.939973,42.1145425 232.807915,42.244304 233.764784,42.3580456 C234.777679,42.4725881 235.843041,42.5863297 237,42.7000712 L237,51 Z M223,50 C220.884969,49.5424667 218.898014,49.0685003 217,48.5409099 L217,40 C218.93359,40.4393704 220.921435,40.8432797 223,41.229891 L223,50 Z M210,45 C207.026762,43.7312173 205.105263,42.5299679 204,41.4663177 L204,35 C204.28992,35.136755 204.616414,35.2574709 204.924175,35.3773426 C205.396075,35.5655918 205.830508,35.7715685 206.32025,35.9429343 C207.498662,36.3894986 208.730598,36.801452 210,37.2125612 L210,45 Z M312.069167,6.59388118 C299.166667,2.40732967 280.54,0 260.9825,0 C245.134167,0 229.708333,1.59320848 217.534167,4.47433 C195.181667,9.79614681 191.304167,17.4744107 191.05,21.695162 C191.016667,21.8644925 191,22.05134 191,22.2031536 L191,40.0003767 C191,40.2372726 191.034167,40.4750027 191.084167,40.6943817 C191.525,44.8984501 195.283333,50.6615273 209.914167,55.406953 C222.833333,59.5935045 241.46,62 261.016667,62 C276.865833,62 292.291667,60.4067915 304.466667,57.52567 C325.683333,52.5083145 330.238333,45.2879938 330.865,40.9663115 C330.949167,40.661016 331,40.3398719 331,40.0003767 L331,22.1355882 C330.9825,17.8305887 327.664167,11.6104025 312.069167,6.59388118 L312.069167,6.59388118 Z" id="Fill-1"></path>
                <path d="M280.541315,21.1793094 C285.497125,21.8978902 288,22.9852272 288,24.4067496 C288,25.8611966 285.716865,27.0827016 281.201368,28.0523329 C277.057099,28.9396526 271.493674,29.5248884 264.643437,29.7586536 L264.643437,31.5151843 C264.643437,31.6156046 264.440343,31.6987393 264.102409,31.7826972 L263.510609,31.8995798 C263.138548,31.9662522 262.614168,32 262.055661,32 L257.843972,32 C257.269651,32 256.745271,31.9662522 256.37321,31.8831174 L255.798057,31.7654118 C255.47677,31.6987393 255.290324,31.6156046 255.290324,31.5151843 L255.290324,29.8755361 C248.491692,29.8261491 241.710539,29.5248884 235.096689,28.9890396 C234.623914,28.9561149 234.285148,28.8886193 234.065408,28.8054846 L233.727474,28.6713166 C233.574321,28.6046441 233.52438,28.5215093 233.574321,28.4540138 C234.285148,27.6350128 234.657208,26.5641381 234.724628,25.2594983 C234.724628,25.1590781 234.961848,25.0586579 235.384682,24.9919854 L235.993129,24.8923883 C236.366022,24.8248928 236.838797,24.7919681 237.312404,24.7919681 L240.644299,24.7919681 C241.152032,24.7919681 241.608992,24.8248928 241.996867,24.8923883 L242.673568,25.0084478 C243.097234,25.0751202 243.316142,25.1755404 243.333621,25.2759607 L243.350268,26.062037 C243.383562,26.330373 243.570008,26.5978859 243.942068,26.831651 C246.546491,27.4506347 250.267926,27.8185678 255.290324,27.9354503 L255.290324,23.4206559 C248.271119,23.1358576 243.248721,22.750639 239.984246,22.2156132 C235.333076,21.4459992 233,20.4088723 233,19.121518 C233,17.2983148 236.906217,15.9105402 244.601289,14.9738336 C247.629377,14.6059004 251.21514,14.3548499 255.290324,14.2371442 L255.290324,13.5021011 C255.290324,13.4016809 255.47677,13.317723 255.798057,13.2510506 L256.37321,13.1333449 C256.745271,13.0502101 257.269651,13 257.843972,13 L261.988241,13 C262.478495,13 262.917976,13.0329247 263.290036,13.1004202 L263.950089,13.2008404 C264.390402,13.268336 264.643437,13.3843954 264.643437,13.4848157 L264.643437,14.1548326 C271.392127,14.2371442 277.261025,14.5046571 282.081162,14.9400858 C282.503163,14.9738336 282.82445,15.040506 283.027543,15.1236408 L283.43373,15.2915566 C283.619344,15.358229 283.670949,15.4421869 283.551923,15.5261448 C283.094964,15.8932548 282.707089,16.5624486 282.419096,17.4991552 L282.148582,18.3856518 C282.131103,18.4852489 281.877236,18.5856691 281.505176,18.6539878 L280.862602,18.7535849 C280.523835,18.8210804 280.034414,18.8540051 279.54416,18.8540051 L276.160659,18.8540051 C275.653758,18.8540051 275.163504,18.8210804 274.791443,18.7535849 L274.199643,18.6367023 C273.84423,18.5700299 273.623657,18.4852489 273.573716,18.4029372 C273.45469,18.0177187 273.404749,17.7666681 273.404749,17.5995754 C273.404749,17.1649699 273.184176,16.9805918 273.065983,16.9139193 C271.323875,16.4620283 268.516359,16.1945154 264.643437,16.0940952 L264.643437,20.0919724 C271.713414,20.3084521 276.905612,20.660746 280.541315,21.1793094 Z M272.434555,27.3254413 C274.139151,26.9025961 275,26.3966771 275,25.8226376 C275,24.8431983 272.766027,24.2699896 268,24 L268,28 C269.786853,27.8488058 271.27644,27.6286604 272.434555,27.3254413 Z M255,19 L255,16 C250.929769,16.2874971 249,16.8038615 249,17.6084295 C249,18.3112785 250.929769,18.7704262 255,19 Z" id="Combined-Shape" opacity="0.8"></path>
                <path d="M367.265826,155.248258 C360.697332,154.287599 348.743338,160.454248 348.743338,160.454248 L315.96497,174.672331 C310.189024,177.752749 304.564595,180.692017 304.156666,180.801617 C297.213543,182.68308 292.759621,187.840082 292.759621,187.840082 C292.453257,196.571533 290.863998,203.450581 282.921032,210.342083 C279.335417,213.453223 273.978223,215.692546 268.530285,217.223622 C256.463903,220.614573 245.245015,222.45203 222.882164,221.21239 C212.320125,220.627028 202.439078,217.418743 172.097464,213.815234 C165.066095,212.979951 160.598852,212.966666 161.340618,211.698796 C163.453525,208.086984 224.993406,216.598405 232.324479,216.456423 C256.074289,215.995606 274.92312,210.502331 279.934823,204.873717 C285.098042,199.073231 286.445874,191.985778 283.967495,187.532871 C281.074527,182.333523 273.934932,179.416674 251.146669,177.614089 C239.711329,176.709891 229.377397,175.301699 219.120057,174.943009 C215.273034,174.8085 210.732531,173.657702 205.596784,171.706494 C172.509555,156.037875 129.832658,138.937815 96.2567467,162.888692 C93.6576543,164.78427 91.1984233,166.858364 88.8990341,169.115123 C86.5988124,171.371052 84.4600973,173.808817 82.5078642,176.426758 C79.7422701,179.113614 76.269876,182.231396 72.0149236,185.893025 C69.4957521,188.060942 65.7070046,190.829168 61,194.015865 L107.172602,265 C110.295342,262.794719 113.453048,260.636766 116.648217,258.532782 L124.287317,253.498664 C130.884117,249.152866 138.675566,246.965021 146.576075,247.241512 L203.30239,249.225932 L217.205287,248.193037 C227.024728,247.464032 236.72179,245.562642 246.088346,242.532872 L256.475558,239.171811 L285.858123,229.778611 C285.965516,229.744568 286.07291,229.709696 286.180304,229.675653 C303.101877,224.238009 318.940357,215.890988 333.078853,205.140244 L343.036491,197.568725 C346.572155,194.282392 356.765393,186.685133 363.180705,181.976493 C367.738691,178.631208 371.41172,174.204871 373.742744,169.061153 C374.452042,167.495205 374.95571,166.045498 374.991507,165.03004 C375.120546,161.376713 373.835153,156.209747 367.265826,155.248258" id="Fill-4"></path>
                <path d="M74.8323611,275.005938 C80.0757974,275.190488 84.1777588,279.589792 83.9940634,284.832388 C83.8095136,290.076693 79.4093675,294.176957 74.1667856,293.994115 C68.9233494,293.809565 64.8222424,289.409407 65.0059378,284.166811 C65.1904876,278.92336 69.5889249,274.822242 74.8323611,275.005938 L74.8323611,275.005938 Z M0,215.849991 L63.8951686,317 L107,282.843408 L45.9376756,189 L0,215.849991 Z" id="Fill-7" opacity="0.75"></path>
            </g>
        </g>
    </g>
</svg>