<?xml version="1.0" encoding="UTF-8"?>
<svg width="400px" height="400px" viewBox="0 0 400 400" version="1.1" xmlns="http://www.w3.org/2000/svg" xmlns:xlink="http://www.w3.org/1999/xlink">
    <defs></defs>
    <g id="list-img__Themes" stroke="none" stroke-width="1" fill="#FFFFFF" fill-rule="evenodd">
        <g id="img_list-videogames">
            <g id="icon" transform="translate(7.000000, 103.000000)">
                <path d="M352.3722,103.622558 C347.875933,99.1413367 347.875933,91.8562533 352.3722,87.3640147 C356.838179,82.8786618 364.145645,82.8786618 368.635028,87.3640147 C373.121657,91.8562533 373.121657,99.1413367 368.635028,103.622558 C364.145645,108.125814 356.838179,108.125814 352.3722,103.622558 L352.3722,103.622558 Z M344.644622,79.6389566 C340.118474,84.1203478 332.851585,84.1203478 328.366735,79.6389566 C323.877755,75.1451746 323.877755,67.8565464 328.366735,63.3641411 C332.851585,58.8786196 340.118474,58.8786196 344.644622,63.3641411 C349.118459,67.8565464 349.118459,75.1451746 344.644622,79.6389566 L344.644622,79.6389566 Z M344.644622,127.632233 C340.118474,132.122589 332.851585,132.122589 328.366735,127.632233 C323.877755,123.141876 323.877755,115.870857 328.366735,111.370865 C332.851585,106.876378 340.118474,106.876378 344.644622,111.370865 C349.118459,115.870857 349.118459,123.141876 344.644622,127.632233 L344.644622,127.632233 Z M320.620016,103.622558 C316.139532,108.125814 308.850141,108.125814 304.353134,103.622558 C299.882289,99.1413367 299.882289,91.8562533 304.353134,87.3640147 C308.850141,82.8786618 316.139532,82.8786618 320.620016,87.3640147 C325.126661,91.8562533 325.126661,99.1413367 320.620016,103.622558 L320.620016,103.622558 Z M99,158 L289,158 L289,32 L99,32 L99,158 Z M281.5,182 C277.370191,182 274,178.635188 274,174.511165 C274,170.366208 277.370191,167 281.5,167 C285.664653,167 289,170.366208 289,174.511165 C289,178.635188 285.664653,182 281.5,182 L281.5,182 Z M253.463741,182 C249.342785,182 246,178.635188 246,174.511165 C246,170.366208 249.342785,167 253.463741,167 C257.626534,167 261,170.366208 261,174.511165 C261,178.635188 257.626534,182 253.463741,182 L253.463741,182 Z M99,179 L155,179 L155,170 L99,170 L99,179 Z M83,102.253598 C83,104.918437 80.8494421,107.095271 78.1890005,107.095271 L62.126293,107.095271 L62.126293,123.154215 C62.126293,125.814942 59.9359861,128 57.2659499,128 L44.7751697,128 C42.1133575,128 39.9189386,125.814942 39.9189386,123.154215 L39.9189386,107.095271 L23.8713083,107.095271 C21.2163493,107.095271 19,104.918437 19,102.253598 L19,89.7450308 C19,87.0747087 21.2163493,84.9102125 23.8713083,84.9102125 L39.9189386,84.9102125 L39.9189386,68.8403016 C39.9189386,66.1850583 42.1133575,64 44.7751697,64 L57.2659499,64 C59.9359861,64 62.126293,66.1850583 62.126293,68.8403016 L62.126293,84.9102125 L78.1890005,84.9102125 C80.8494421,84.9102125 83,87.0747087 83,89.7450308 L83,102.253598 Z M319.651775,11.7640732 C317.079111,4.9107786 310.499683,0 302.749006,0 L84.237375,0 C76.5302789,0 69.9018222,4.9107786 67.3577587,11.7640732 C29.9376896,13.4436821 -1.03713696e-14,50.2765649 -1.03713696e-14,95.5020433 C-1.03713696e-14,140.724797 29.9376896,177.552231 67.3577587,179.235927 C69.9018222,186.081048 76.5302789,191 84.237375,191 L302.749006,191 C310.499683,191 317.079111,186.081048 319.651775,179.235927 C357.078653,177.552231 387,140.724797 387,95.5020433 C387,50.2765649 357.078653,13.4436821 319.651775,11.7640732 L319.651775,11.7640732 Z" id="Fill-1"></path>
                <path d="M121.402706,112.587714 C122.352838,113.517424 123.581058,114 124.824273,114 C126.04704,114 127.265718,113.517424 128.206308,112.587714 L182.586048,58.1915311 C184.471317,56.3225697 184.471317,53.2880634 182.586048,51.4027435 C180.745763,49.5324188 177.667716,49.5324188 175.827431,51.4027435 L121.402706,105.798926 C119.532431,107.678794 119.532431,110.717389 121.402706,112.587714" id="Fill-4" opacity="0.7"></path>
                <path d="M177.893818,78.3941236 L147.390094,108.902736 C145.536635,110.739953 145.536635,113.767308 147.390094,115.595069 C148.301964,116.551503 149.534001,117 150.736318,117 C151.973758,117 153.196339,116.551503 154.102805,115.595069 L184.591668,85.1121243 C186.469444,83.2586964 186.469444,80.2475515 184.591668,78.3941236 C182.767929,76.5352921 179.75133,76.5352921 177.893818,78.3941236" id="Fill-6" opacity="0.7"></path>
                <path d="M118.763014,91 C119.974706,91 121.1918,90.5516883 122.118467,89.6105039 L152.636341,59.1158589 C154.454553,57.2577961 154.454553,54.2613998 152.636341,52.4046874 C150.768148,50.5317709 147.761208,50.5317709 145.888962,52.4046874 L115.385948,82.8952814 C113.538017,84.7479428 113.538017,87.7591928 115.385948,89.6105039 C116.318018,90.5516883 117.54592,91 118.763014,91" id="Fill-8" opacity="0.7"></path>
            </g>
        </g>
    </g>
</svg>