<?xml version="1.0" encoding="UTF-8"?>
<svg width="400px" height="400px" viewBox="0 0 400 400" version="1.1" xmlns="http://www.w3.org/2000/svg" xmlns:xlink="http://www.w3.org/1999/xlink">
    <defs></defs>
    <g id="list-img__Themes" stroke="none" stroke-width="1" fill="#FFFFFF" fill-rule="evenodd">
        <g id="img_list-epayment">
            <g id="Page-1" transform="translate(44.000000, 27.000000)">
                <path d="M117.67514,167.007315 C109.755421,166.461163 104.925103,169.856377 101.953593,174.838185 C97.4801793,182.335207 93.0374495,212.123956 88.7158409,224.197629 C87.3786616,227.933175 86.4549097,230.926473 82.861644,231.107983 C74.7658952,231.524485 58.0866825,231.082053 53.3742559,223.802196 C47.1760744,214.217806 47.9496359,203.011169 41.0618704,191.678123 C40.5176319,190.392966 40.5224768,189.689613 41.7369198,188.939263 C44.6535211,187.14847 50.8258634,179.956126 54.1655818,174.41034 L54.0864492,134 C43.5020612,142.057759 32.9176731,151.711835 22.3316701,160.998029 C15.9768384,165.756191 14.639659,170.571074 12.8357589,174.492992 C8.96633661,188.23429 5.7380498,202.050137 1.89285175,215.655303 C0.0711871631,222.103779 -0.766972343,226.030558 0.894812112,233.559992 C4.30720332,249.040224 16.6906467,277.120832 22.4834755,293.346551 C28.4345695,308.783026 31.2881877,316.972055 31.1864458,333.970814 L30.8392313,355.930313 L105.563008,356 L105.871464,334.272251 C106.328495,327.771915 107.239328,322.04948 108.889807,316.440489 C113.967213,299.164603 120.567517,281.12216 126.105184,263.78307 C129.104147,256.005679 129.107377,243.961178 129.743668,234.781945 L131.292406,200.867079 C131.875403,187.94906 135.575256,168.238991 117.67514,167.007315" id="Fill-1" opacity="0.8"></path>
                <path d="M141.585184,161 L141.585184,147.859545 C152.924627,145.751823 162.697597,139.840157 167.115604,128.590333 C170.186737,120.776695 169.482393,112.527256 165.160359,105.37299 C158.546362,94.5703074 146.611562,92.4577253 134.828041,90.3807848 C128.853321,89.3325941 122.935534,88.2827833 119.565096,86.1313193 C114.925863,83.1633358 115.212155,76.4400106 119.220244,73.015165 C122.569536,70.1686873 128.046498,68.8272625 132.532825,68.7365381 C141.280999,68.5631897 149.482616,72.1435628 149.684322,81.8494522 L167.149764,81.5092358 C166.832565,65.903021 156.615517,55.1651418 141.585184,52.1534161 L141.585184,39 L124.043289,39 L124.043289,52.2441405 C113.476509,54.3988447 103.612447,60.6053648 99.9459565,71.1634154 C97.9663119,76.8563708 98.0134851,83.3156231 100.900806,90.178275 C106.332221,103.080579 118.992512,105.317907 131.808961,107.581157 C138.697864,108.791355 145.666473,110.025855 148.994618,113.010039 C151.57938,115.30569 152.052738,119.070752 150.808343,122.244486 C147.945423,129.559139 138.891436,131.42385 131.906561,131.278043 C123.309666,131.094974 114.275199,127.488679 114.478532,117.667764 L97.0082095,117.324308 C96.6470912,133.967373 108.238666,144.992006 124.043289,147.909767 L124.043289,161 L141.585184,161 Z" id="Fill-4" opacity="0.7"></path>
                <path d="M73.8588711,223 L73.8588711,23.6189106 C73.8588711,21.9769716 75.2001393,20.6257419 76.8231864,20.6257419 L195.178424,20.6257419 C196.811132,20.6257419 198.144349,21.9737235 198.144349,23.6189106 L198.144349,57.0683422 L210,57.0683422 L210,6.03668368 C210,2.71870016 207.307803,0 204.013404,0 L67.9882066,0 C64.6921972,0 62,2.71870016 62,6.03668368 L62,220.697063 C64.495757,221.755959 68.458375,222.442943 69.8898124,222.624839 C71.1924366,222.793743 72.5224335,222.92042 73.8588711,223" id="Fill-6"></path>
                <polygon id="Fill-9" opacity="0.7" points="261 36 261 51.4323408 315.773704 100.502438 261 149.569285 261 165 333 100.502438"></polygon>
                <path d="M303,100.406325 L231.18585,36 L231.18585,65.5640643 L210.60105,65.5640643 L198.665531,65.5640643 L178.250961,65.5640643 L178.250961,135.246962 L198.665531,135.246962 L198.665531,227.954609 C198.665531,229.59877 197.321528,230.944288 195.679219,230.944288 L136.922482,230.944288 L136,245 L204.574926,245 C207.86603,245 210.60105,242.260272 210.60105,238.960588 L210.60105,135.246962 L231.18585,135.246962 L231.18585,164.809403 L303,100.406325 Z" id="Fill-12"></path>
            </g>
        </g>
    </g>
</svg>