<?xml version="1.0" encoding="UTF-8"?>
<svg width="400px" height="400px" viewBox="0 0 400 400" version="1.1" xmlns="http://www.w3.org/2000/svg" xmlns:xlink="http://www.w3.org/1999/xlink">
    <defs></defs>
    <g id="list-img__Ideas" stroke="none" stroke-width="1" fill="#FFFFFF" fill-rule="evenodd">
        <g id="img_list-growthstock">
            <g transform="translate(71.000000, 2.000000)" id="Fill-1">
                <path d="M156,222.857721 L133,226 L133,212.478719 L156,209 L156,222.857721 Z M156,248.537875 C148.354813,249.353502 140.686428,250.17421 133,251 L133,237.7899 C140.686428,236.856122 148.354813,235.926155 156,235 L156,248.537875 Z M156,274.076777 C148.354813,274.713448 140.686428,275.354082 133,276 L133,262.265335 C140.686428,261.507141 148.354813,260.751589 156,260 L156,274.076777 Z M156,299.743766 C148.356102,300.157782 140.686428,300.575666 133,301 L133,287.588994 C140.686428,287.05503 148.354813,286.526225 156,286 L156,299.743766 Z M156,351.940129 C148.356102,352.149888 140.686428,351.723856 133,351.940129 L133,312.979742 C140.686428,312.648819 148.356102,312.321804 156,312 L156,351.940129 Z M125,226.231435 L104,229 L104,216.064648 L125,213 L125,226.231435 Z M125,251.695692 L104,254 L104,240.609778 L125,238 L125,251.695692 Z M125,276.311677 L104,278 L104,264.983908 L125,263 L125,276.311677 Z M125,301.821926 L104,303 L104,289.48767 L125,288 L125,301.821926 Z M125,352 L104,352 L104,313.896915 L125,313 L125,352 Z M97,231.156753 L76,234 L76,221.148209 L97,218 L97,231.156753 Z M97,254.77863 L76,257 L76,244.514059 L97,242 L97,254.77863 Z M97,279.262446 L76,281 L76,268.042621 L97,266 L97,279.262446 Z M97,302.863891 L76,304 L76,291.429464 L97,290 L97,302.863891 Z M97,351 L76,351 L76,314.879909 L97,314 L97,351 Z M68,234.264676 L47,237 L47,225.027581 L68,222 L68,234.264676 Z M68,257.720505 L47,260 L47,247.581676 L68,245 L68,257.720505 Z M68,281.335183 L47,283 L47,270.959057 L68,269 L68,281.335183 Z M68,304.83488 L47,306 L47,293.469987 L68,292 L68,304.83488 Z M68,352 L47,352 L47,316.88241 L68,316 L68,352 Z M39,238.343805 L20,241 L20,228.941822 L39,226 L39,238.343805 Z M39,260.938291 L20,263 L20,251.336944 L39,249 L39,260.938291 Z M39,284.392705 L20,286 L20,273.893036 L39,272 L39,284.392705 Z M39,305.963065 C32.6534767,306.31169 26.3184414,306.656483 20,307 L20,295.31277 C26.3184414,294.878585 32.6534767,294.441847 39,294 L39,305.963065 Z M39,351.947083 C32.6534767,352.127981 26.3184414,351.772693 20,351.947083 L20,329.724002 L20,317.815992 C26.3184414,317.546597 32.6534767,317.2746 39,317 L39,351.947083 Z M241.23038,351.6051 L241.23038,221.503388 L182.262314,212.195899 L182.262314,351.866825 L172.839467,351.866825 L172.839467,207.094228 C175.948561,206.645 179.095619,206.19447 182.262314,205.740033 L249.040425,216.279319 L249.040425,199.054996 L222.755159,194.510629 L222.755159,186.031282 L222.103231,185.919301 C221.578285,176.148261 222.211886,174.455517 209.822636,174.455517 C207.585397,174.455517 205.53274,174.713334 203.481392,175.234179 C198.073532,167.498338 188.746248,162.369323 178.115109,162.369323 C172.610376,162.369323 167.389715,163.762582 162.913928,166.283468 C157.037413,162.633652 150.228823,160.284644 142.955506,159.416136 C143.235652,154.028001 143.514488,148.638564 143.70038,143.336368 C143.980525,134.729415 144.260671,132.556192 151.533988,126.299549 C154.611665,123.690119 157.876541,121.257776 161.234363,118.996009 C165.896041,115.868339 170.840483,112.999788 176.061143,110.305721 C186.787846,105.263947 198.352368,102.133673 209.54249,102.306854 C192.943199,108.218437 177.461872,115.258951 164.778076,124.559929 C177.834963,136.815397 203.668592,140.639696 220.267884,113.695115 C224.464834,106.915024 228.940621,100.828958 235.095973,96.4851157 C225.211017,93.3548411 215.606206,86.4002668 202.828155,84.5760094 C170.840483,80.0537782 154.984756,91.7910059 156.664321,109.523152 C156.851522,110.912504 157.131667,112.215918 157.596395,113.607874 C152.748826,116.736847 148.180094,120.127543 144.073471,123.865904 C144.073471,103.697508 137.918119,74.8401262 139.038702,59.8020474 C139.132956,57.7173678 139.411793,55.8045669 139.691939,53.8045246 C140.343867,49.4593805 141.368886,45.1129343 142.583724,40.7664881 C145.475509,31.8131736 150.137187,23.6437298 156.664321,17.4717241 C150.88206,30.1620969 146.592165,42.6779869 145.288309,55.1079376 C160.582435,54.8488175 177.742018,42.6779869 170.001355,17.9925684 C168.041643,11.8205628 166.737787,5.91158349 167.482661,0 C159.836252,3.64851475 149.857041,5.04177341 141.46445,11.1265377 C120.29119,26.2505558 118.707188,41.8094789 131.016584,50.9372764 C131.951275,51.7172408 133.06924,52.3266287 134.09426,52.8500773 C133.628223,55.4569033 133.349386,58.0650314 133.162186,60.6718575 C132.604513,68.4936377 133.535277,74.6669454 134.189823,82.4027863 C135.026333,92.8339967 135.309097,103.176664 135.212225,113.433391 C131.202475,109.783574 126.726688,106.39418 121.972064,103.351146 C122.438101,102.047733 122.716938,100.655777 122.811192,99.2651225 C124.490758,81.6189155 108.635031,69.7983528 76.6473588,74.4052211 C63.9622537,76.2320827 54.2631882,83.0981135 44.4737954,86.2257839 C50.533584,90.6607736 55.1049346,96.6582965 59.2076301,103.438388 C75.9024853,130.384271 101.733496,126.644608 114.791693,114.303201 C102.013642,105.002223 86.62657,98.050253 69.9317149,92.0514281 C81.1231457,91.8769452 92.6863587,95.0072198 103.507316,100.134933 C108.727977,102.741759 113.673728,105.610309 118.335406,108.739281 C122.06501,111.26147 125.608723,113.954236 129.05949,116.997269 C134.09426,121.518198 134.936006,127.515721 134.564224,133.600485 C134.09426,142.206136 133.442332,150.810485 132.604513,159.327592 C121.134245,160.459126 110.874888,165.502202 103.507316,172.976319 C98.0968375,170.280949 91.940176,168.801751 85.3187867,168.801751 C74.2216106,168.801751 64.2423994,173.149499 57.1549733,180.102771 C54.2631882,179.061083 51.0951847,178.450393 47.8316174,178.450393 C36.6467321,178.450393 27.1021395,187.526106 23.8712995,197.247666 L23.3031534,197.345324 L23.3751535,198.972963 C23.352899,199.0576 23.3240989,199.138331 23.3031534,199.222968 L23.3856263,199.209947 L23.7744267,208.108573 C67.8424035,201.155301 111.909071,194.200726 155.977048,187.246152 L169.941136,189.451928 C116.280131,197.522411 62.8325069,206.345515 9.29193771,214.81835 L9.29193771,230.6403 L13.5019788,230.034818 L13.5019788,351.866825 L3.19385902e-14,351.866825 L3.19385902e-14,369 L259,369 L259,351.6051 L241.23038,351.6051 Z"></path>
            </g>
        </g>
    </g>
</svg>