<?xml version="1.0" encoding="UTF-8"?>
<svg width="400px" height="400px" viewBox="0 0 400 400" version="1.1" xmlns="http://www.w3.org/2000/svg" xmlns:xlink="http://www.w3.org/1999/xlink">
    <!-- Generator: Sketch 47 (45396) - http://www.bohemiancoding.com/sketch -->
    <title>img_list-earningsbears</title>
    <desc>Created with Sketch.</desc>
    <defs>
        <linearGradient x1="13.92863%" y1="15.7436536%" x2="100%" y2="100%" id="linearGradient-1">
            <stop stop-color="#EC2E2E" offset="0%"></stop>
            <stop stop-color="#8D135F" offset="100%"></stop>
        </linearGradient>
    </defs>
    <g id="list-img__Bear" stroke="none" stroke-width="1" fill="none" fill-rule="evenodd">
        <g id="img_list-earningsbears" fill="url(#linearGradient-1)">
            <g transform="translate(36.000000, 56.000000)">
                <path d="M94,234 L112,234 L112,229 L94,229 L94,234 Z M96.2266567,209 L110.825415,209 C113.836096,216.013736 110.937258,220.173175 103.52649,222 C97.3159941,220.500396 92.690402,217.770442 96.2266567,209 L96.2266567,209 Z M114.719808,206.009961 C110.899624,202.816537 102.5,203.002009 102.5,203.002009 C102.5,203.002009 94.0994566,202.816537 90.2801921,206.009961 C82.4835613,212.529944 76.4214556,225.497375 78.3664769,229.383105 C81.265625,235.173137 102.5,240 102.5,240 C102.5,240 123.734375,235.173137 126.633523,229.383105 C128.578544,225.497375 122.516439,212.529944 114.719808,206.009961 L114.719808,206.009961 Z" id="Fill-4"></path>
                <path d="M66.9902441,172 L82,162.481035 C75.6611882,151.991196 59.3658922,157.318611 66.9902441,172" id="Fill-6"></path>
                <path d="M122.089054,188.9921 C117.19759,191.105983 114,198.984485 114,198.984485 C114,198.984485 126.132196,199.175885 129.33071,198.214172 C132.530146,197.254345 133,188.799758 133,188.799758 C133,188.799758 126.980518,186.878218 122.089054,188.9921" id="Fill-7"></path>
                <path d="M94,198.984463 C94,198.984463 90.8024098,191.10692 85.9109459,188.992098 C81.018559,186.87822 75,188.799756 75,188.799756 C75,188.799756 75.4698538,197.254326 78.6692902,198.215094 C81.8678035,199.175862 94,198.984463 94,198.984463" id="Fill-8"></path>
                <path d="M150.33503,231.350994 C135.650166,244.422371 119.658048,250.196485 103.136189,253 C86.6143289,250.196485 70.6231361,244.422371 55.9373468,231.350994 C55.7820297,212.86552 56.1888126,194.575746 58.8606371,177.077087 C43.8817791,147.661874 76.4327364,136.991532 89.3138886,157.911273 L116.711645,157.873426 C129.547497,137.10323 161.799838,147.578793 147.349798,176.659837 C150.078018,194.284964 150.493121,212.71782 150.33503,231.350994 M100.708179,119.033382 C83.3265117,119.531397 66.9556757,125.483466 53.3706546,136.246898 C33.3626793,152.098061 22.3075195,175.807105 23.033649,201.293051 C24.2985796,245.384546 61.2041363,280.229838 105.291234,278.966716 C122.672902,278.4687 139.044666,272.516632 152.628759,261.754126 C172.643226,245.898327 183.698386,222.189283 182.965765,196.707046 C181.698979,152.612769 144.792496,117.768405 100.708179,119.033382" id="Fill-9" opacity="0.796761775"></path>
                <path d="M125,162.449797 L140.008827,172 C141.972733,168.193316 143.393817,162.584725 139.724037,159.281388 C136.357205,156.251735 129.333016,155.293844 125,162.449797" id="Fill-10"></path>
                <path d="M176,29.2250595 C176,27.6225218 179.204484,26.57954 186,26 L186,32 C179.204484,31.542268 176,30.6410785 176,29.2250595 L176,29.2250595 Z M207,39 C215.161129,39.469661 219,40.4968615 219,42.1997489 C219,43.2044916 217.523511,44.0842516 214.60627,44.8107128 C212.612539,45.3252894 210.06489,45.7207421 207,46 L207,39 Z M149,31.2941245 C149,33.4723747 152.863295,35.2263754 160.552756,36.5056652 C165.946703,37.3971499 174.255294,38.0643616 185.88138,38.5344002 L185.88138,46.1391193 C177.571861,45.9354047 171.413052,45.3251957 167.112561,44.2711132 C166.493431,43.885177 166.164837,43.4497138 166.128636,42.9862166 L166.092435,41.6732858 C166.056234,41.4976054 165.69144,41.3294008 164.99898,41.2097886 L163.869324,41.0060741 C163.250194,40.9014134 162.483475,40.8444107 161.646212,40.8444107 L156.142733,40.8444107 C155.34167,40.8444107 154.57588,40.9014134 153.956751,41.0060741 L152.935697,41.1817545 C152.243237,41.3004322 151.842242,41.4695713 151.842242,41.6461862 C151.733639,43.83565 151.113581,45.6410466 149.947723,47.0175213 C149.874393,47.1371335 149.947723,47.2623525 150.202058,47.3754234 L150.748786,47.6071721 C151.113581,47.7473426 151.696509,47.8669548 152.4623,47.923023 C163.394998,48.8219834 174.620089,49.3135148 185.88138,49.3976171 L185.88138,52.1711249 C185.88138,52.3262469 186.171916,52.4804345 186.719572,52.592571 L187.666367,52.7962855 C188.286425,52.9299147 189.161747,53 190.108542,53 L197.069342,53 C197.980864,53 198.855257,52.9308492 199.474387,52.8037612 L200.458311,52.6075225 C201.005039,52.4879103 201.333633,52.3337227 201.333633,52.1711249 L201.333633,49.2079196 C212.667326,48.8089008 221.887439,47.8398552 228.738708,46.3362925 C236.210035,44.7140521 240,42.6498073 240,40.2061675 C240,37.8045789 235.846169,35.9711482 227.646181,34.7572713 C221.632176,33.9003621 213.032121,33.2957598 201.333633,32.9247751 L201.333633,26.1965892 C207.747705,26.3582525 212.412063,26.8217498 215.291434,27.5870809 C215.473367,27.7001519 215.838161,28.0160028 215.838161,28.7383483 C215.838161,29.0056068 215.911492,29.4476113 216.129626,30.0802476 C216.202028,30.2344352 216.566822,30.3820815 217.149751,30.494218 L218.133675,30.6698984 C218.752805,30.7820348 219.555724,30.8455788 220.392988,30.8455788 L226.005998,30.8455788 C226.807061,30.8455788 227.609052,30.7885761 228.19198,30.6839154 L229.249235,30.5016937 C229.868365,30.3960986 230.26936,30.2344352 230.306489,30.0662306 L230.742758,28.5636024 C231.217084,26.9899544 231.873342,25.8741969 232.638204,25.2490363 C232.821066,25.1079313 232.747736,24.9677608 232.42007,24.8341315 L231.763811,24.5603317 C231.436146,24.427637 230.889418,24.3220418 230.196958,24.2584978 C222.215105,23.5212008 212.521594,23.0782619 201.333633,22.9380913 L201.333633,21.8073823 C201.333633,21.6251606 200.932637,21.4494802 200.203976,21.329868 L199.110521,21.1476463 C198.490463,21.0495269 197.761802,21 196.960739,21 L190.108542,21 C189.161747,21 188.286425,21.077561 187.667296,21.2102558 L186.719572,21.4064946 C186.172845,21.5261068 185.88138,21.6746875 185.88138,21.8288751 L185.88138,23.0642448 C179.138714,23.2819764 173.198968,23.7034225 168.206016,24.3145661 C155.451202,25.8872795 149,28.2327999 149,31.2941245 L149,31.2941245 Z" id="Fill-11" opacity="0.804404438"></path>
                <path d="M288,125.343241 C286.333333,127.043275 283.456757,128.988384 279,131 L279,118.528528 C280.893694,117.887143 282.746847,117.219337 284.525225,116.509623 C285.24955,116.218996 285.914414,115.901036 286.618018,115.601298 C287.081982,115.402688 287.545045,115.203166 288,115 L288,125.343241 Z M266,135.678322 C263.150736,136.506294 260.165449,137.285781 257,138 L257,123.991608 C260.119508,123.374359 263.116505,122.709557 266,122 L266,135.678322 Z M243,137.692506 C240.075676,138.172497 237.08018,138.611208 234,139 L234,124.254695 C235.720721,124.055979 237.322523,123.852463 238.846847,123.634547 C240.276577,123.445431 241.605405,123.207356 243,123 L243,137.692506 Z M221,139.421429 C218.038739,139.652484 215.044144,139.847205 212,140 L212,125.569255 C215.072072,125.415528 218.03964,125.224534 221,125 L221,139.421429 Z M284.330488,101.228033 C281.676563,102.090925 278.861539,102.899652 275.960845,103.676628 C274.372215,104.301384 272.751923,104.89719 271.065517,105.450038 C261.634304,108.520587 249.878811,110.950505 236.150101,112.665082 C232.862958,113.073181 229.516218,113.444859 226.079152,113.752101 C224.258652,113.928602 222.532204,114.064012 220.764783,114.196621 C217.217835,114.476781 213.718378,114.679429 210.177948,114.848459 C204.259229,115.072587 198.878744,115.187452 193.84746,115.187452 C190.56218,115.187452 187.2769,115.127685 184,115.036166 C187.60282,118.558706 190.931867,122.289498 194.016008,126.180915 C195.502206,126.179047 197.075006,126.151031 198.616145,126.13142 L198.616145,132.349096 C203.520786,139.446473 207.581757,147.045335 210.792542,155 C236.892269,153.873758 261.002018,150.165379 278.661331,144.424909 C302.893998,136.558027 309.128395,126.976568 309.878013,120.012735 C309.958096,119.632651 310,119.246965 310,118.852874 L310,89.297903 C310,89.2073181 309.982307,89.0980559 309.977651,89 C304.022615,93.3172595 295.753542,97.5196536 284.330488,101.228033 L284.330488,101.228033 Z" id="Fill-12"></path>
                <path d="M288,238.342919 C286.333333,240.04305 283.456757,241.988269 279,244 L279,231.527817 C280.893694,230.886396 282.746847,230.219464 284.525225,229.508798 C285.24955,229.219065 285.914414,228.901088 286.618018,228.600421 C287.081982,228.401799 287.545045,228.203177 288,228 L288,238.342919 Z M266,248.679119 C263.150736,249.506207 260.165449,250.286672 257,251 L257,236.990792 C260.119508,236.374439 263.116505,235.709598 266,235 L266,248.679119 Z M243,249.775124 C240.075676,250.224216 237.08018,250.635507 234,251 L234,237.176276 C235.720721,236.98998 237.322523,236.799184 238.846847,236.594888 C240.276577,236.416692 241.605405,236.193496 243,236 L243,249.775124 Z M309.47082,199 C303.550158,203.154019 295.44104,207.192444 284.318021,210.766639 C281.662807,211.621117 278.846416,212.421958 275.944313,213.190433 C274.354911,213.810022 272.733833,214.400019 271.046607,214.947476 C261.610814,217.988085 249.849611,220.393385 236.114234,222.091243 C232.825495,222.496288 229.47713,222.864342 226.038394,223.168588 C224.21701,223.343367 222.489723,223.476533 220.721444,223.608773 C219.304398,223.71882 217.901326,223.785402 216.492665,223.865856 C215.349526,228.942786 213.851426,233.886549 212.059855,238.695298 C215.142698,238.545487 218.12865,238.36146 221.103422,238.145991 L221.103422,252.459418 C218.041075,252.689683 214.944256,252.882033 211.796197,253.033693 L211.796197,239.421235 C207.885112,249.710108 202.538349,259.31281 196,268 C227.66972,267.830769 257.692276,263.913488 278.64611,257.171067 C302.890547,249.380894 309.127972,239.893787 309.877953,232.996931 C309.958076,232.621479 310,232.238628 310,231.84838 L310,202.581593 C310,202.322661 309.976709,202.028587 309.934784,201.723417 C309.88168,200.892983 309.736342,199.976546 309.47082,199 L309.47082,199 Z" id="Fill-13"></path>
                <path d="M156.786152,267.132811 C141.921034,278.909306 124.018088,285.416831 105.011237,285.96369 C56.7838596,287.343371 16.4212259,249.23317 15.0369344,201.003763 C14.2412686,173.128826 26.3331612,147.201783 48.2135079,129.86757 C63.0776972,118.091075 80.9815714,111.58355 99.9884224,111.036691 C148.218585,109.649583 188.575648,147.765354 189.962725,195.996618 C190.762105,223.863199 178.672069,249.793956 156.786152,267.132811 M205.956943,196.048754 C204.327394,139.187284 156.910495,94.4135504 100.049281,96.0431068 C43.1880667,97.6726631 -1.58732578,145.087915 0.0431533041,201.950315 C1.67270228,258.812716 49.088671,303.58645 105.949885,301.956893 C162.811099,300.328267 207.585562,252.910225 205.956943,196.048754" id="Fill-14"></path>
                <path d="M288,182.34233 C286.333333,184.042364 283.456757,185.988384 279,188 L279,175.528528 C280.893694,174.887143 282.746847,174.219337 284.525225,173.508712 C285.24955,173.218996 285.914414,172.901036 286.618018,172.600387 C287.081982,172.402688 287.545045,172.203166 288,172 L288,182.34233 Z M266,192.679119 C263.150736,193.507139 260.165449,194.286672 257,195 L257,180.991724 C260.119508,180.374439 263.116505,179.709598 266,179 L266,192.679119 Z M243,193.774298 C240.075676,194.224262 237.08018,194.634629 234,195 L234,181.177106 C235.720721,180.990821 237.322523,180.799136 238.846847,180.595752 C240.276577,180.417567 241.605405,180.194384 243,180 L243,193.774298 Z M309.470201,143 C303.542612,147.141776 295.424006,151.168298 284.287973,154.731959 C281.629651,155.583919 278.809966,156.3824 275.904467,157.149532 C274.313206,157.766373 272.690231,158.355553 271.001031,158.900475 C261.554197,161.932122 249.779234,164.331254 236.027786,166.023186 C232.735199,166.427037 229.382916,166.794007 225.940157,167.098278 C224.116642,167.27162 222.387334,167.405315 220.616986,167.536244 C218.734708,167.681925 216.868287,167.766753 215,167.876475 C216.303044,172.565939 217.283358,177.355905 217.984782,182.215946 C218.984683,182.152325 220.006038,182.102536 220.999411,182.030617 L220.999411,196.301858 C220.393127,196.347037 219.770054,196.376542 219.157241,196.415268 C219.25891,201.348149 219.032253,206.2128 218.521109,211 C241.595336,209.537654 262.721993,206.090169 278.609426,200.99962 C302.882229,193.233329 309.126951,183.773261 309.877811,176.896732 C309.958027,176.522386 310,176.140664 310,175.751566 L310,146.571037 C310,146.312868 309.976681,146.019661 309.934708,145.716312 C309.881541,144.888325 309.736033,143.973668 309.470201,143 L309.470201,143 Z" id="Fill-15"></path>
                <path d="M290.960066,37.3753888 C290.891343,37.854333 290.713035,38.3508448 290.388923,38.8713962 C290.358276,38.9222493 290.310913,38.9749517 290.276552,39.0258048 C289.910649,39.5750189 289.432374,40.1418005 288.792508,40.7326217 C288.627201,40.8574431 288.356953,41.0885938 288.097849,41.3188199 L287.602858,41.7358158 C287.396689,41.87728 287.256458,41.9799109 287.064219,42.1324704 C286.571086,42.5254266 286.043591,42.8693788 285.464089,43.2235017 C284.952382,43.5313945 284.653344,43.7190888 284.350592,43.8827435 C283.450693,44.4069934 282.691026,44.808271 281.903498,45.1725645 C281.830132,45.2076994 281.755837,45.2465327 281.68247,45.2825923 C278.445063,46.8276036 275.050707,48.1729007 271.404677,49.357317 C261.997993,52.3983357 250.274233,54.8041523 236.58351,56.5017231 C233.30524,56.9057746 229.967534,57.2737665 226.539746,57.5788854 C224.72416,57.7517862 223.002372,57.8867782 221.239722,58.0180718 C217.702348,58.294528 214.212338,58.4970161 210.681465,58.66252 C204.778722,58.8862739 199.412761,59 194.395058,59 C186.701804,59 178.976975,58.7623771 171.434169,58.2908296 C168.962929,58.1244011 166.476831,57.9246869 163.951727,57.7231235 C163.813353,57.7111036 163.686123,57.6981592 163.548677,57.687064 C160.847123,57.4559133 158.113064,57.1628142 155.372505,56.8660166 C153.965542,56.7319492 152.726672,56.5793898 151.491517,56.3981676 C147.131325,55.8239892 143.12775,55.2156006 139.423212,54.562831 C139.303412,54.5415651 139.183611,54.5239976 139.06381,54.5055056 C136.636219,54.059847 134.255062,53.5855258 131.945414,53.1121291 L131.556294,53.0252164 L128.23159,52.2522485 C125.569969,51.6346138 122.981715,50.9254434 120.555052,50.220896 C117.212703,49.2611583 114.279906,48.2524166 111.651718,47.1678574 C110.639448,46.7675044 109.776696,46.3782466 108.908373,45.9889888 C108.191425,45.6598302 107.478193,45.3186518 106.731527,44.9358662 L106.209604,44.673279 C106.070301,44.5983861 105.917996,44.5234933 105.783337,44.4504497 C105.435078,44.2701521 105.110966,44.098176 104.814715,43.9345213 C104.507319,43.760696 104.262145,43.5988905 103.981681,43.432462 C103.971466,43.4250651 103.962179,43.4176683 103.951963,43.4111961 C103.898099,43.3797596 103.847021,43.3437001 103.795015,43.3122636 C103.736508,43.2771287 103.678,43.2382954 103.636209,43.2133311 C102.960124,42.7907876 102.532928,42.5180298 102.139164,42.2351013 C101.707324,41.930907 101.344207,41.6609229 101.019166,41.4057325 C100.891935,41.2855342 100.758204,41.171808 100.624473,41.0617803 L100.62633,41.0617803 C100.000395,40.5523241 99.5221201,40.0595108 99.1237128,39.5139951 C98.8868973,39.1987056 98.7197334,39.0008405 98.5952892,38.7872573 C98.4058368,38.4544003 98.3148253,38.231571 98.2368155,38.0216861 C98.1959532,37.9190552 98.1820229,37.8524838 98.1532336,37.7674204 C98.0585074,37.5113054 98,37.2764562 98,36.9944524 C98.0185738,34.1882828 103.167222,29.3045306 117.612968,24.6805917 C136.672438,18.5218122 164.708608,15 194.555721,15 C218.853922,15 242.327447,17.3771539 260.652324,21.7005968 C284.335733,27.2999916 290.860697,33.8655964 290.979569,36.8631588 C290.983284,36.9528453 290.991642,37.0434563 291,37.1331428 C290.995357,37.2117341 290.972139,37.2940237 290.960066,37.3753888 L290.960066,37.3753888 Z M289,68.3420079 C287.333333,70.0430499 284.456757,71.9873584 280,74 L280,61.5278173 C281.893694,60.8873071 283.746847,60.2185525 285.524324,59.5078868 C286.24955,59.219065 286.913514,58.9001765 287.618018,58.5995103 C288.081982,58.4008883 288.545045,58.2022664 289,58 L289,68.3420079 Z M266,79.6791188 C263.149835,80.5071391 260.165449,81.2876042 257,82 L257,67.9917245 C260.119508,67.3753715 263.115604,66.7105309 266,66 L266,79.6791188 Z M244,83.7760245 C241.075676,84.2251155 238.08018,84.6355073 235,85 L235,71.1771765 C236.720721,70.9908802 238.322523,70.798284 239.846847,70.5948881 C241.276577,70.4166917 242.604505,70.1934961 244,70 L244,83.7760245 Z M221,86.4196013 C218.038739,86.6525061 215.044144,86.8462828 212,87 L212,72.5692193 C215.072072,72.4155021 218.03964,72.2245202 221,72 L221,86.4196013 Z M199,86.9337511 C197.485737,86.9534467 195.992193,87 194.46712,87 C192.969973,87 191.48904,86.9641898 190,86.9462847 L190,73 C191.463817,73.0161146 192.923131,73.0671441 194.386948,73.0671441 C195.869683,73.0671441 197.45511,73.0367055 199,73.0179051 L199,86.9337511 Z M176,87 C172.963367,86.8461778 169.962766,86.6513362 167,86.4182722 L167,72 C167.761185,72.0531386 168.517866,72.1109385 169.284456,72.1547545 C169.297067,72.156619 169.309679,72.1575513 169.321389,72.1584835 L169.343009,72.1584835 C169.390752,72.1622126 169.437594,72.1659416 169.485337,72.1678061 C171.623861,72.3076445 173.823641,72.3812927 176,72.4819764 L176,87 Z M154,85 C150.930037,84.6343225 147.923131,84.2307229 145,83.7801722 L145,70 C146.003503,70.1408535 146.982684,70.2907362 148.006906,70.4270752 C148.04474,70.4315897 148.090682,70.4352013 148.128516,70.4415217 C149.458112,70.6374526 151.030928,70.8324806 152.609148,70.9877807 C153.046942,71.0410522 153.543289,71.0880034 154,71.1412749 L154,85 Z M132,82 C130.911821,81.7537165 129.784906,81.5242889 128.730958,81.2639588 C126.675308,80.7601545 124.797117,80.2460494 123,79.7272621 L123,66 C123.072065,66.0168559 123.141427,66.038394 123.212591,66.0552499 L127.056351,66.9486129 C128.714743,67.3035234 130.35602,67.624722 132,67.9571579 L132,82 Z M109,74 C104.458559,71.9503042 101.620721,69.9806675 100,68.3039745 L100,58 C100.821622,58.3611759 101.604505,58.7269006 102.483784,59.078069 C102.496396,59.0835276 102.509009,59.0908057 102.522523,59.0962643 C104.5,59.925968 106.708108,60.716552 109,61.4807528 L109,74 Z M309.935117,35.6737237 C309.501328,28.7308697 303.113138,16.1053119 266.234594,7.36475454 C246.137562,2.61282247 220.681199,0 194.544491,0 C162.25966,0 131.53202,3.95254163 110.238362,10.8454338 C84.5150511,19.1085773 79.0491257,29.3165342 79,36.4222271 C79,36.4444324 79.0064883,36.4647872 79.0064883,36.4869925 C79.0064883,36.5027212 79,36.5165995 79,36.5323283 L79,65.8137041 C79,66.3558833 79.0797133,66.8851094 79.2270903,67.391205 C79.8156714,71.4029607 82.4786532,76.9126483 90.9050951,82.4334386 C93.8554157,82.1262654 96.8224205,81.8949603 99.8181592,81.8089148 C100.952684,81.7765321 102.079794,81.7617285 103.206903,81.7617285 L103.208757,81.7617285 L103.214318,81.7617285 C126.329334,81.7617285 148.497986,88.504735 167.414147,101.017416 C176.222472,101.642865 185.285694,102 194.466632,102 C226.752389,102 257.492079,98.0456079 278.80613,91.1490149 C302.926831,83.3549581 309.131495,73.8631218 309.878576,66.9637531 C309.95829,66.5871884 310,66.2041472 310,65.8137041 L310,36.5323283 C310,36.2741918 309.976828,35.9790465 309.935117,35.6737237 L309.935117,35.6737237 Z" id="Fill-1"></path>
            </g>
        </g>
    </g>
</svg>