<?xml version="1.0" encoding="UTF-8"?>
<svg width="400px" height="400px" viewBox="0 0 400 400" version="1.1" xmlns="http://www.w3.org/2000/svg" xmlns:xlink="http://www.w3.org/1999/xlink">
    <defs></defs>
    <g id="list-img__Ideas" stroke="none" stroke-width="1" fill="#FFFFFF" fill-rule="evenodd">
        <g id="img_list-classicbulls">
            <g transform="translate(20.000000, 38.000000)">
                <path d="M215,310.532196 C203.670411,328.488665 156.32898,328.489872 145,310.532196 C149.243346,311.139816 154.131229,310.740971 158.838349,310 C158.751315,310.021722 179.873101,317.594949 201.251728,310.021722 C201.176867,310.003017 209.405502,311.334713 215,310.532196" id="Fill-1"></path>
                <path d="M214.831884,276.677011 C214.02277,277.613946 213.231274,278.482519 212.642999,279.028811 C210.759262,280.776333 207.368032,282.719788 206.238041,284.4667 C204.246716,287.547906 215.254687,297.587462 220.427728,284.281144 C223.462218,276.470702 222.366203,267.961983 214.831884,276.677011 M146.167641,276.677011 C146.976754,277.613946 147.768249,278.482519 148.357152,279.028811 C150.240257,280.776333 153.631482,282.719788 154.7621,284.4667 C156.752793,287.547906 145.744839,297.587462 140.572435,284.281144 C137.537949,276.470702 138.633334,267.961983 146.167641,276.677011 M231.835936,285.510135 C229.790391,303.501721 218.207985,307.403095 199.249818,303.761361 C188.469526,301.69473 171.531088,301.69473 160.750797,303.761361 C141.797546,307.401861 130.210224,303.506655 128.164064,285.510135 C126.443053,270.369031 138.540533,264.200593 151.372515,263.1312 C161.238212,262.309111 170.258769,265.609183 180.000307,265.860805 C189.741231,265.609183 198.761788,262.309111 208.627485,263.1312 C221.459467,264.200593 233.556947,270.369031 231.835936,285.510135" id="Fill-3" opacity="0.7"></path>
                <path d="M246,165 C235.856995,167.517154 232.519974,167.209207 225.585104,173.708723 C219.829155,179.102712 210.873013,194.187773 201,180.798881 C204.661988,195.956001 212.328035,194.081839 218.528065,190.486258 C226.255196,192.809405 233.875429,194.960718 239.760876,186.813689 C244.61156,179.765413 242.633659,170.523942 246,165 M114,165 C124.143005,167.517154 127.480026,167.209207 134.414286,173.708723 C140.170845,179.102712 149.126987,194.187773 159,180.798881 C155.338012,195.956001 147.671965,194.081839 141.471935,190.486258 C133.744194,192.809405 126.12396,194.960718 120.239124,186.813689 C115.389051,179.765413 117.36573,170.523942 114,165 M23,150.880611 C48.8373935,146.183035 94.9172888,152.871514 97.5355759,166.883895 C90.5337064,158.419181 53.2821223,153.952834 28.9140757,155.655468 C19.4388361,156.317262 28.4750449,166.744053 30.4812569,168.177431 C59.4780827,188.075428 69.0853985,175.054206 96.5975908,174.326171 C103.159206,220.60027 123.202371,246.092548 129.477822,265 C133.481685,259.937486 141.886864,256.610113 147.925067,255.351538 L154.271447,214.193313 L155.310935,255.242363 C162.258384,255.056521 172.54259,257.754607 180,258.516989 C187.45741,257.754607 197.741616,255.056521 204.689065,255.242363 L205.727942,214.193313 L212.074322,255.351538 C218.113136,256.610113 226.517703,259.937486 230.522178,265 C236.797629,246.092548 256.840794,220.60027 263.402409,174.326171 C290.91399,175.054206 300.522529,188.075428 329.518132,168.177431 C331.524344,166.744053 340.561164,156.317262 331.086536,155.655468 C306.717878,153.952834 269.466294,158.419181 262.464424,166.883895 C265.082711,152.871514 311.162606,146.183035 337,150.880611 C303.131032,135.639095 267.146401,148.475702 253.639782,153.381201 C239.428145,140.875798 239.002567,110.028443 241.569491,99.2643144 C242.219476,96.5386285 242.256164,94.6470859 237.054444,93.3529371 C225.607234,90.5027431 212.713913,92.9064251 199.335701,93.7761422 C192.655462,94.2091607 186.324368,94.43119 180,94.4410034 C173.675632,94.43119 167.344538,94.2091607 160.664299,93.7761422 C147.286087,92.9064251 134.393377,90.5027431 122.945556,93.3529371 C117.744447,94.6470859 117.779912,96.5386285 118.430509,99.2643144 C120.997433,110.028443 120.571243,140.875798 106.360218,153.381201 C92.8542107,148.475702 56.8683562,135.639095 23,150.880611" id="Fill-5"></path>
                <path d="M107.505673,95.4829407 C40.1661751,91.7491211 21.1776241,64.9601561 31.8027747,8.59635984e-14 C-4.12475011,31.2598995 -12.122504,87.5120846 20.8260409,116.856218 C37.7258819,131.908751 77.5159305,140.654586 102.102298,144 C110.269423,132.415632 114.416271,109.827062 107.505673,95.4829407" id="Fill-7" opacity="0.75"></path>
                <path d="M251.494508,95.4829407 C318.833535,91.7491211 337.822125,64.9601561 327.196341,8.59635984e-14 C363.124552,31.2598995 371.122934,87.5120846 338.173709,116.856218 C321.273833,131.908751 281.483702,140.654586 256.897283,144 C248.730141,132.415632 244.583896,109.827062 251.494508,95.4829407" id="Fill-9" opacity="0.75"></path>
            </g>
        </g>
    </g>
</svg>