<?xml version="1.0" encoding="UTF-8"?>
<svg width="400px" height="400px" viewBox="0 0 400 400" version="1.1" xmlns="http://www.w3.org/2000/svg" xmlns:xlink="http://www.w3.org/1999/xlink">
    <defs></defs>
    <g id="list-img__Ideas" stroke="none" stroke-width="1" fill="#FFFFFF" fill-rule="evenodd">
        <g id="img_list-bestvalue">
            <g transform="translate(64.000000, 41.000000)">
                <path d="M161,308 L137,308 L137,258.552832 C145.020269,258.36515 153.02407,258.178745 161,258 L161,308 Z M130,308 L108,308 L108,259.518209 L130,259 L130,308 Z M100,307 L78,307 L78,259.525239 L100,259 L100,307 Z M71,308 L49,308 L49,260.522965 L71,260 L71,308 Z M41,308 L21,308 L21,261.461159 C27.650636,261.31211 34.3189901,261.157966 41,261 L41,308 Z M137.830266,90.1315076 L161.464965,110.396755 C162.886447,111.68909 163.361979,113.819663 162.71771,115.966772 L152.110282,153.112518 C151.413602,155.683197 150.155744,158.10887 148.468373,160.159308 L88.6037728,242.151389 C86.4983939,245.496707 82.6046575,245.959709 79.8422266,243.199504 L68.467812,232.256627 L46.2571518,212.586668 L33.3615467,202.036834 C30.0519985,199.420363 28.9922784,194.607176 31.0580296,191.272034 L89.9421648,109.535622 C91.6065262,107.492816 93.7617592,105.86722 96.1931074,104.819106 L131.916797,89.5387631 C134.014506,88.6483744 136.278396,88.8722436 137.830266,90.1315076 L137.830266,90.1315076 Z M249.612847,307.629795 L249.612847,74.4771594 L188.593679,59.7991956 L188.593679,308.04204 L178.84572,308.04204 L178.84572,57 L13.9712254,92.9314926 L13.9712254,307.629795 L-7.52339272e-14,307.629795 L-7.52339272e-14,324 L268,324 L268,307.629795 L249.612847,307.629795 Z" id="Fill-1"></path>
                <path d="M142.904778,116.977726 C145.653398,113.647254 145.714285,108.934053 142.989275,106.464061 C140.238169,104.00314 135.744946,104.719775 133.002539,108.048951 C130.286226,111.371648 130.349598,116.053747 133.093248,118.515964 C135.812046,120.987251 140.182253,120.303014 142.904778,116.977726" id="Fill-4" opacity="0.8"></path>
                <path d="M179.176426,51.2618283 L179.176426,51.2276073 C182.39197,50.5216402 185.647056,49.8131382 188.922549,49.098299 L258,65.654938 L258,38.5987815 L230.810089,31.4592617 L230.810089,18.1409457 L161.732638,-2.71050543e-20 L24.9807903,35.9143322 L24.9807903,52.8195187 C70.5647395,41.8966744 116.148689,30.9738301 161.732638,20.0509859 L176.177717,23.5123792 C120.670349,36.1906353 65.3823682,50.051418 10,63.3621293 L10,88 L179.176426,51.2618283 Z" id="Fill-6" opacity="0.8"></path>
            </g>
        </g>
    </g>
</svg>