<?xml version="1.0" encoding="UTF-8"?>
<svg width="400px" height="400px" viewBox="0 0 400 400" version="1.1" xmlns="http://www.w3.org/2000/svg" xmlns:xlink="http://www.w3.org/1999/xlink">
    <defs></defs>
    <g id="list-img__Ideas" stroke="none" stroke-width="1"  fill="#FFFFFF" fill-rule="evenodd">
        <g id="img_list-relativestrength">
            <g transform="translate(28.000000, 49.000000)">
                <path d="M50.4618195,69.2313388 L79.2529907,98.7090065 C80.7164286,100.208305 82.7237844,101.052177 84.8215169,101.052177 L121.138822,101.052177 L158.451927,139.252061 C159.915365,140.750533 161.922721,141.595232 164.021283,141.595232 L174.859844,141.595232 L190,126.094764 L167.301374,126.094764 L129.988268,87.895707 C128.52483,86.3972348 126.517474,85.5517096 124.418083,85.5517096 L88.1049243,85.5517096 L50.7901602,47.3460405 C48.7363723,45.2433856 45.6627382,44.4730734 42.8693545,45.3665364 C40.0660211,46.2533873 38.0039418,48.639537 37.542109,51.536473 L3,268 L26.1845043,221.372967 L50.4618195,69.2313388 Z" id="Fill-1" opacity="0.8"></path>
                <polygon id="Fill-3" opacity="0.8" points="327.307026 221.869486 327.135686 248.120993 227.383203 147 214.365459 147 210 151.48356 316.087945 259.025249 289.839731 258.840642 305.531877 274.74751 342.748369 275 343 237.779666"></polygon>
                <path d="M256.982335,134.164573 L306.405445,31.8175459 L315.17171,56.8714261 L325,36.5204194 L312.558896,1 L276.969452,13.4178017 L267.143647,33.7679817 L292.242071,25.0038364 L244.961237,122.912568 L208.02645,122.912568 C205.904056,122.912568 203.873617,123.767486 202.394071,125.284675 L164.654896,163.968455 L127.923071,163.968455 C124.915104,163.968455 122.1714,165.681597 120.853395,168.381946 L85.5928313,240.68201 L53.3385774,209.085613 C51.8573752,207.633741 49.8816106,206.839181 47.8379161,206.839181 C47.4005142,206.838354 46.9614554,206.874733 46.5215681,206.949146 C44.037158,207.365856 41.903995,208.947536 40.7856376,211.20141 L1.81958288,289.665314 C-0.10896221,293.548823 1.48241886,298.257484 5.37181714,300.182289 C6.49514495,300.737076 7.68474579,301 8.85777837,301 C11.7514244,301 14.5365484,299.39765 15.9075716,296.63529 L50.0605478,227.866515 L82.3719622,259.521615 C83.8539928,260.974314 85.8272722,261.768875 87.8742803,261.768875 C88.3207948,261.768875 88.7689661,261.731668 89.2179659,261.654775 C91.7106601,261.22649 93.8429948,259.625793 94.9497543,257.354557 L132.840529,179.662062 L167.973518,179.662062 C170.095911,179.662062 172.12718,178.807145 173.605897,177.289955 L211.345072,138.606176 L249.899406,138.606176 C252.91897,138.606176 255.671786,136.880631 256.982335,134.164573" id="Fill-5"></path>
            </g>
        </g>
    </g>
</svg>