<?xml version="1.0" encoding="UTF-8"?>
<svg width="400px" height="400px" viewBox="0 0 400 400" version="1.1" xmlns="http://www.w3.org/2000/svg" xmlns:xlink="http://www.w3.org/1999/xlink">
    <defs></defs>
    <g id="list-img__Ideas" stroke="none" stroke-width="1" fill="#2FB71A" fill-rule="evenodd">
        <g id="img_list-bestofthenasdaq">
            <g transform="translate(65.000000, 22.000000)">
                <path d="M104.394118,265.585152 L104.022442,266.137948 L98.8858989,261.006973 C91.8449632,253.972253 82.1503064,250.0985 71.5886041,250.0985 L70.9504203,250.0985 C69.9477308,250.0985 68.9510169,250.0591 67.9566931,250 C60.0552849,288.642008 52.5691742,327.171785 37,365.832896 C55.6585095,356.541621 72.9755184,347.170949 89.0693418,337.877883 C101.658532,350.263862 115.105208,362.613425 128.7186,375 C132.478387,341.853718 130.912805,308.692512 128.851854,275.544439 C119.913098,274.457352 111.518113,271.037896 104.394118,265.585152" id="Fill-1" opacity="0.8"></path>
                <path d="M199.039319,250.305794 L198.400494,250.305794 C187.831173,250.305794 178.126777,254.175608 171.075778,261.202313 L163.709553,268.543753 L163.38057,267.29733 C157.82076,271.103362 151.589227,273.730329 145,275.067358 C152.588139,308.380424 161.89297,341.683953 154.681666,375 C169.581598,362.63114 182.204968,350.253934 193.485491,337.886862 C207.531861,347.165594 220.822768,356.441941 232.963431,365.71948 C233.944398,327.046376 214.952518,288.635551 204.502229,250 C202.697608,250.197306 200.875641,250.305794 199.039319,250.305794" id="Fill-4" opacity="0.8"></path>
                <path d="M135.000597,225 C85.2952184,225 45,184.705379 45,135 C45,85.294024 85.2952184,45 135.000597,45 C184.705976,45 225,85.294024 225,135 C225,184.705379 184.705976,225 135.000597,225 M256.926876,103.543058 L256.671767,103.094789 C248.332427,94.7547147 243.841785,83.4430678 243.841785,71.6473853 L243.841785,71.0119397 C243.841785,46.4501194 223.543888,26.5367089 198.985425,26.5367089 L198.348843,26.5367089 C186.555988,26.5367089 175.244742,21.852533 166.905999,13.5124585 L166.841029,13.3175329 L166.455385,13.1017437 C157.773317,4.41831404 146.392333,-8.58516004e-15 135.012541,-8.58516004e-15 C123.631557,-8.58516004e-15 112.251169,4.36108817 103.568504,13.0445178 L103.183456,13.1744683 L103.119082,13.5172274 C94.7791468,21.8573018 83.4684968,26.5367089 71.6750459,26.5367089 L71.0390603,26.5367089 C46.4805967,26.5367089 26.1827006,46.4501194 26.1827006,71.0119397 L26.1827006,71.6473853 C26.1827006,83.4430678 21.6920578,94.7547147 13.3527183,103.094789 L13.2347004,103.243815 L13.0493287,103.543058 C4.36606829,112.226488 0.0125170558,123.607879 1.13686892e-13,134.989866 C0.0125170558,146.371257 4.36606829,157.753244 13.0493287,166.436674 L13.2347004,166.735918 L13.3527183,166.884943 C21.6920578,175.225018 26.1827006,186.536665 26.1827006,198.331751 L26.1827006,198.968389 C26.1827006,223.529613 46.4805967,244.215573 71.0390603,244.215573 L71.6750459,244.215573 C83.4684968,244.215573 94.7791468,248.513474 103.119082,256.853549 L103.18286,256.758768 L103.568504,257.002574 C112.251169,265.686004 123.631557,270 135.012541,270 C146.392333,270 157.773317,265.628778 166.455385,256.945348 L166.841625,256.615704 L166.905999,256.858317 C175.244742,248.518243 186.555988,244.215573 198.348843,244.215573 L198.985425,244.215573 C223.543888,244.215573 243.841785,223.529613 243.841785,198.968389 L243.841785,198.331751 C243.841785,186.536665 248.332427,175.225018 256.671767,166.884943 L257.024033,166.436674 C274.389957,149.069219 274.292801,120.910514 256.926876,103.543058" id="Fill-6"></path>
                <polygon id="Fill-9" points="72.6389855 133.335317 64.000446 118.040464 59 118.040464 59 148 65.3627984 148 65.3627984 132.623624 74.0405851 148 79 148 79 118 72.6389855 118"></polygon>
                <path d="M91,137 L93.9794373,129 L97,137 L91,137 Z M91.76148,118 L81,148 L87.5506228,148 L89.3381942,142.419727 L98.6816344,142.419727 L100.448175,148 L107,148 L96.23852,118 L91.76148,118 Z" id="Fill-11"></path>
                <path d="M116.999392,124.620961 C117.914234,124.620961 118.70438,124.888889 119.369221,125.425348 C120.020681,125.975687 120.347324,126.635249 120.347324,127.40524 L127,127.40524 C127,124.8207 126.029805,122.606673 124.089416,120.763762 C122.121046,118.921455 119.757908,118 116.999392,118 C114.240876,118 111.877737,118.921455 109.910584,120.763762 C107.968978,122.606673 107,124.8207 107,127.40524 C107,130.334346 108.086983,132.603286 110.263382,134.212061 C111.483577,135.105758 113.423358,135.916783 116.08455,136.645741 C117.982968,137.168321 119.189173,137.60823 119.701946,137.965468 C120.131995,138.29555 120.347324,138.845889 120.347324,139.61588 C120.347324,140.385872 120.020681,141.046037 119.369221,141.595772 C118.70438,142.132232 117.914234,142.40016 116.999392,142.40016 C116.08455,142.40016 115.294404,142.132232 114.629562,141.595772 C113.978102,141.046037 113.652676,140.385872 113.652676,139.61588 L107,139.61588 C107,142.187145 107.968978,144.393931 109.910584,146.236238 C111.877737,148.079148 114.240876,149 116.999392,149 C119.757908,149 122.121046,148.079148 124.089416,146.236238 C126.029805,144.393931 127,142.187145 127,139.61588 C127,136.645741 125.905109,134.349646 123.715328,132.726991 C122.481144,131.833294 120.526764,131.021665 117.85219,130.292708 C115.981144,129.770731 114.79562,129.33746 114.296837,128.993498 C113.866788,128.663416 113.652676,128.134198 113.652676,127.40524 C113.652676,126.635249 113.978102,125.975687 114.629562,125.425348 C115.294404,124.888889 116.08455,124.620961 116.999392,124.620961" id="Fill-13"></path>
                <path d="M144.542282,138.508438 C142.903416,140.169871 140.934574,141 138.635175,141 L136,141 L136,124 L138.635175,124 C140.934574,124 142.903416,124.830717 144.542282,126.49215 C146.181147,128.152995 147,130.156004 147,132.5 C147,134.844584 146.181147,136.847593 144.542282,138.508438 M139.067814,118 L130,118 L130,148 L139.067814,148 C143.179997,148 146.696246,146.533577 149.617747,143.600731 C152.539249,140.667885 154,137.137982 154,133.009832 C154,128.869168 152.539249,125.332115 149.617747,122.399269 C146.696246,119.466423 143.179997,118 139.067814,118" id="Fill-15"></path>
                <path d="M165,137 L167.979437,129 L171,137 L165,137 Z M165.76148,118 L155,148 L161.550623,148 L163.338194,142.419727 L172.681634,142.419727 L174.448175,148 L181,148 L170.23852,118 L165.76148,118 Z" id="Fill-17"></path>
                <path d="M206,133.946058 C206,135.67624 205.5608,137.28132 204.681807,138.761905 C203.815871,140.187225 202.659114,141.266388 201.212722,142 C201.076808,141.847569 200.894599,141.633194 200.665503,141.356268 C198.97399,139.322438 197.608316,138.12546 196.567294,137.765334 C194.173655,136.893866 192.110603,137.260672 190.379918,138.865752 C189.460566,137.3712 189,135.730897 189,133.946058 C189,131.482871 189.825577,129.372522 191.47495,127.615011 C193.152812,125.871468 195.160074,125 197.50089,125 C199.839926,125 201.847781,125.871468 203.52505,127.615011 C205.174423,129.372522 206,131.482871 206,133.946058 M197.422004,143 C195.407794,143 193.60046,142.290653 192,140.871959 C192.914638,139.958612 194.049943,139.762486 195.407794,140.285012 C195.950057,140.529096 196.814544,141.426696 198,142.975663 C197.785602,142.992126 197.593146,143 197.422004,143 M186.412275,122.558398 C183.470957,125.58345 182,129.234272 182,133.510259 C182,137.77297 183.470957,141.417153 186.412275,144.441602 C189.339913,147.480534 192.877228,149 197.024815,149 C199.273778,149 201.416272,148.497937 203.448726,147.494413 C203.583747,147.549326 203.638469,147.577085 203.611703,147.577085 C204.411123,147.86553 205.209948,148.009752 206.010558,148.009752 C208.165542,148.009752 210.455548,146.965195 212.882358,144.874873 L214,143.905746 L212.109705,141.616289 L210.971245,142.585416 C209.642447,143.713248 208.422499,144.448844 207.311995,144.792202 C210.483503,141.712236 212.069258,137.951588 212.069258,133.510259 C212.069258,129.234272 210.591163,125.58345 207.636759,122.558398 C204.709716,119.519466 201.171806,118 197.024815,118 C192.877228,118 189.339913,119.519466 186.412275,122.558398" id="Fill-19"></path>
            </g>
        </g>
    </g>
</svg>