<?xml version="1.0" encoding="UTF-8"?>
<svg width="400px" height="400px" viewBox="0 0 400 400" version="1.1" xmlns="http://www.w3.org/2000/svg" xmlns:xlink="http://www.w3.org/1999/xlink">
    <!-- Generator: Sketch 47 (45396) - http://www.bohemiancoding.com/sketch -->
    <title>img_list-largecap</title>
    <desc>Created with Sketch.</desc>
    <defs>
        <linearGradient x1="13.92863%" y1="15.7436536%" x2="100%" y2="100%" id="linearGradient-1">
            <stop stop-color="#EC2E2E" offset="0%"></stop>
            <stop stop-color="#8D135F" offset="100%"></stop>
        </linearGradient>
    </defs>
    <g id="list-img__Bear" stroke="none" stroke-width="1" fill="none" fill-rule="evenodd">
        <g id="img_list-largecap" fill="url(#linearGradient-1)">
            <g transform="translate(199.500000, 195.000000) scale(-1, 1) translate(-199.500000, -195.000000) translate(39.000000, 27.000000)">
                <path d="M89.1375274,37.179255 L89.1375274,200.807983 L17,218.152222 L17,322 L159,322 L159,-1.4058199e-14 L89.1375274,37.179255 Z M136.124357,23.2085396 L152.124357,15 L152.124357,32.2486077 L136.124357,40 L136.124357,23.2085396 Z M115.276041,34.6798127 L130.276041,27 L130.276041,43.7470169 L115.276041,51 L115.276041,34.6798127 Z M95.3083481,44.8647801 L109.308348,38 L109.308348,53.5177634 L95.3083481,60 L95.3083481,44.8647801 Z M136.124357,47.4421738 L152.124357,40 L152.124357,57.00785 L136.124357,64 L136.124357,47.4421738 Z M115.276041,57.9466693 L130.276041,51 L130.276041,67.4747364 L115.276041,74 L115.276041,57.9466693 Z M95.3083481,67.4746616 L109.308348,61 L109.308348,76.9177421 L95.3083481,83 L95.3083481,67.4746616 Z M136.124357,71.6890784 L152.124357,65 L152.124357,81.7542553 L136.124357,88 L136.124357,71.6890784 Z M115.276041,81.2266712 L130.276041,75 L130.276041,91.1873843 L115.276041,97 L115.276041,81.2266712 Z M95.3083481,89.7875144 L109.308348,84 L109.308348,99.5954552 L95.3083481,105 L95.3083481,89.7875144 Z M136.124357,96.2203737 L152.124357,90 L152.124357,107.236472 L136.124357,113 L136.124357,96.2203737 Z M115.276041,103.785679 L130.276041,98 L130.276041,114.639157 L115.276041,120 L115.276041,103.785679 Z M95.3083481,112.37429 L109.308348,107 L109.308348,123.02065 L95.3083481,128 L95.3083481,112.37429 Z M136.124357,119.474307 L152.124357,114 L152.124357,130.974843 L136.124357,136 L136.124357,119.474307 Z M115.276041,127.07776 L130.276041,122 L130.276041,138.338662 L115.276041,143 L115.276041,127.07776 Z M95.3083481,133.702627 L109.308348,129 L109.308348,144.683257 L95.3083481,149 L95.3083481,133.702627 Z M136.124357,143.744544 L152.124357,139 L152.124357,155.69801 L136.124357,160 L136.124357,143.744544 Z M115.276041,150.606487 L130.276041,146 L130.276041,162.823044 L115.276041,167 L115.276041,150.606487 Z M95.3083481,156.262206 L109.308348,152 L109.308348,168.133988 L95.3083481,172 L95.3083481,156.262206 Z M136.124357,168.233366 L152.124357,164 L152.124357,181.222333 L136.124357,185 L136.124357,168.233366 Z M115.276041,173.910769 L130.276041,170 L130.276041,186.51 L115.276041,190 L115.276041,173.910769 Z M95.3083481,178.606987 L109.308348,175 L109.308348,190.782092 L95.3083481,194 L95.3083481,178.606987 Z M25.2522108,228.826983 L146.252211,203 L146.252211,219.546081 L25.2522108,242 L25.2522108,228.826983 Z M25.2522108,253.690779 L146.252211,234 L146.252211,250.71736 L25.2522108,267 L25.2522108,253.690779 Z M25.2522108,277.988657 L146.252211,265 L146.252211,281.343959 L25.2522108,291 L25.2522108,277.988657 Z M25.2522108,302.817363 L146.252211,296 L146.252211,312.561051 L25.2522108,316 L25.2522108,302.817363 Z" id="Fill-1" opacity="0.801290761"></path>
                <path d="M161.151079,0 L161.151079,321.570923 L161.151079,323.999617 L160.076739,323.999617 L158.848921,323.999617 L16.4504556,323.999617 L10.7441727,323.999617 L-2.27373675e-13,323.999617 L-2.27373675e-13,336 L320,336 L320,323.999617 L308.191463,323.999617 L308.191463,217.886944 L231.163549,200.536394 L231.163549,37.1994261 L161.151079,0 Z M168.122782,33.2478342 L168.122782,16 L184.122782,24.2085396 L184.122782,41 L168.122782,33.2478342 Z M191.275396,43.7477972 L191.275396,27 L206.275396,34.6798127 L206.275396,51 L191.275396,43.7477972 Z M211.306763,53.5172343 L211.306763,38 L225.306763,44.8652961 L225.306763,60 L211.306763,53.5172343 Z M168.122782,57.00785 L168.122782,40 L184.122782,47.4421738 L184.122782,64 L168.122782,57.00785 Z M191.275396,67.4745186 L191.275396,51 L206.275396,57.9461336 L206.275396,74 L191.275396,67.4745186 Z M211.306763,76.9171854 L211.306763,61 L225.306763,67.4744352 L225.306763,83 L211.306763,76.9171854 Z M168.122782,81.7550067 L168.122782,65 L184.122782,71.6890784 L184.122782,88 L168.122782,81.7550067 Z M191.275396,91.1866301 L191.275396,75 L206.275396,81.2266712 L206.275396,97 L191.275396,91.1866301 Z M211.306763,99.5962091 L211.306763,84 L225.306763,89.7875144 L225.306763,105 L211.306763,99.5962091 Z M168.122782,107.236472 L168.122782,90 L184.122782,96.2203737 L184.122782,113 L168.122782,107.236472 Z M191.275396,114.639157 L191.275396,98 L206.275396,103.785679 L206.275396,120 L191.275396,114.639157 Z M211.306763,122.02065 L211.306763,106 L225.306763,111.37429 L225.306763,127 L211.306763,122.02065 Z M168.122782,130.974843 L168.122782,114 L184.122782,119.475068 L184.122782,136 L168.122782,130.974843 Z M191.275396,138.339424 L191.275396,122 L206.275396,127.07776 L206.275396,143 L191.275396,138.339424 Z M211.306763,144.684015 L211.306763,129 L225.306763,133.702627 L225.306763,149 L211.306763,144.684015 Z M168.122782,155.697415 L168.122782,139 L184.122782,143.745124 L184.122782,160 L168.122782,155.697415 Z M191.275396,162.82226 L191.275396,146 L206.275396,150.606487 L206.275396,167 L191.275396,162.82226 Z M211.306763,168.134768 L211.306763,152 L225.306763,156.262206 L225.306763,172 L211.306763,168.134768 Z M168.122782,181.222333 L168.122782,164 L184.122782,168.233366 L184.122782,185 L168.122782,181.222333 Z M191.275396,186.509866 L191.275396,170 L206.275396,173.91015 L206.275396,190 L191.275396,186.509866 Z M211.306763,190.782855 L211.306763,175 L225.306763,178.606987 L225.306763,194 L211.306763,190.782855 Z M168.122782,204.934761 L168.122782,188 L184.122782,191.514088 L184.122782,208 L168.122782,204.934761 Z M191.275396,209.177815 L191.275396,193 L206.275396,196.234508 L206.275396,212 L191.275396,209.177815 Z M211.306763,213.40825 L211.306763,198 L225.306763,200.971575 L225.306763,216 L211.306763,213.40825 Z M168.122782,229.628542 L168.122782,213 L184.122782,215.811445 L184.122782,232 L168.122782,229.628542 Z M232.092854,230.057811 L232.092854,215 L296.092854,228.736639 L296.092854,242 L232.092854,230.057811 Z M191.275396,233.704092 L191.275396,217 L206.275396,219.722402 L206.275396,236 L191.275396,233.704092 Z M211.306763,236.892792 L211.306763,221 L225.306763,223.498229 L225.306763,239 L211.306763,236.892792 Z M168.122782,255.204402 L168.122782,238 L184.122782,240.250091 L184.122782,257 L168.122782,255.204402 Z M191.275396,257.356916 L191.275396,241 L206.275396,243.061476 L206.275396,259 L191.275396,257.356916 Z M232.092854,257.657032 L232.092854,243 L296.092854,253.088996 L296.092854,266 L232.092854,257.657032 Z M211.306763,259.497312 L211.306763,244 L225.306763,245.883978 L225.306763,261 L211.306763,259.497312 Z M168.122782,279.886785 L168.122782,263 L184.122782,264.56153 L184.122782,281 L168.122782,279.886785 Z M191.275396,280.984886 L191.275396,265 L206.275396,266.42399 L206.275396,282 L191.275396,280.984886 Z M211.306763,283.018218 L211.306763,267 L225.306763,268.376662 L225.306763,284 L211.306763,283.018218 Z M232.092854,285.867189 L232.092854,271 L296.092854,277.904635 L296.092854,291 L232.092854,285.867189 Z M168.122782,304.516868 L168.122782,287 L184.122782,287.94741 L184.122782,305 L168.122782,304.516868 Z M191.275396,305.560205 L191.275396,289 L206.275396,289.862615 L206.275396,306 L191.275396,305.560205 Z M211.306763,305.599585 L211.306763,290 L225.306763,290.78424 L225.306763,306 L211.306763,305.599585 Z M232.092854,314.16061 L232.092854,299 L296.092854,302.647736 L296.092854,316 L232.092854,314.16061 Z" id="Fill-2"></path>
            </g>
        </g>
    </g>
</svg>