<?xml version="1.0" encoding="UTF-8"?>
<svg width="533px" height="100px" viewBox="0 0 533 100" version="1.1" xmlns="http://www.w3.org/2000/svg" xmlns:xlink="http://www.w3.org/1999/xlink">
    <!-- Generator: Sketch 48.2 (47327) - http://www.bohemiancoding.com/sketch -->
    <title>Group 4</title>
    <desc>Created with Sketch.</desc>
    <defs>
        <linearGradient x1="50%" y1="0%" x2="50%" y2="100%" id="linearGradient-1">
            <stop stop-color="#FFFFFF" offset="0%"></stop>
            <stop stop-color="#000000" offset="100%"></stop>
        </linearGradient>
        <linearGradient x1="100%" y1="99.9999642%" x2="0%" y2="99.9999642%" id="linearGradient-2">
            <stop stop-color="#24A300" offset="0%"></stop>
            <stop stop-color="#61C600" offset="15.784275%"></stop>
            <stop stop-color="#FFBE00" offset="49.7297588%"></stop>
            <stop stop-color="#EF5A00" offset="80.5537501%"></stop>
            <stop stop-color="#E00000" offset="100%"></stop>
        </linearGradient>
        <path d="M15.846358,0 C7.14672774,0 0.0944885032,7.16365639 0.0944885032,16 L6.31902833,16 C6.31902833,10.6554446 10.5843162,6.32245492 15.846358,6.32245492 C21.1081773,6.32245492 25.4106126,10.6554446 25.4106126,16 L31.5982274,16 C31.5982274,7.16365639 24.5455433,0 15.846358,0 Z" id="path-3"></path>
    </defs>
    <g id="Artboard-Copy-2" stroke="none" stroke-width="1" fill="none" fill-rule="evenodd" transform="translate(-1008.000000, -742.000000)">
        <g id="Group-4" transform="translate(1008.000000, 742.000000)">
            <g id="Chaikin-Logo-H3_rev" transform="translate(119.000000, 6.000000)">
                <g id="Group-5" transform="translate(36.319018, 1.454545)" fill="#FFFFFE">
                    <path d="M13.2310184,2.41963636 L11.1693088,4.86448485 C10.2487427,3.74230303 8.88774806,3.0409697 7.64684826,3.0409697 C5.42509284,3.0409697 3.74376442,4.80436364 3.74376442,7.10909091 C3.74376442,9.45357576 5.42509284,11.2373333 7.64684826,11.2373333 C8.82770061,11.2373333 10.1886953,10.5961212 11.1693088,9.59393939 L13.2511149,11.798303 C11.7499288,13.3413333 9.52817342,14.3633939 7.4664638,14.3633939 C3.24353047,14.3633939 0.100966871,11.2574545 0.100966871,7.14909091 C0.100966871,3.10109091 3.32343231,0.0552727273 7.58655869,0.0552727273 C9.66836483,0.0552727273 11.8298307,0.976969697 13.2310184,2.41963636" id="Fill-13"></path>
                    <polyline id="Fill-14" points="24.2381022 14.2031515 24.2381022 8.75248485 18.4338389 8.75248485 18.4338389 14.2031515 14.8711853 14.2031515 14.8711853 0.175272727 18.4338389 0.175272727 18.4338389 5.94666667 24.2381022 5.94666667 24.2381022 0.175272727 27.800998 0.175272727 27.800998 14.2031515 24.2381022 14.2031515"></polyline>
                    <path d="M36.8669513,3.72242424 L34.8253382,8.91272727 L38.8683714,8.91272727 L36.8669513,3.72242424 Z M33.7846773,11.6179394 L32.7638708,14.2031515 L29.1009767,14.2031515 L35.145672,0.175272727 L38.8083239,0.175272727 L44.7128278,14.2031515 L40.9099845,14.2031515 L39.9092744,11.6179394 L33.7846773,11.6179394 Z" id="Fill-15"></path>
                    <polygon id="Fill-16" points="46.0128065 14.2031515 49.5754601 14.2031515 49.5754601 0.175272727 46.0128065 0.175272727"></polygon>
                    <polyline id="Fill-17" points="57.8012335 8.69212121 55.9400049 10.7563636 55.9400049 14.2031515 52.3771092 14.2031515 52.3771092 0.175272727 55.9400049 0.175272727 55.9400049 6.24751515 61.3038397 0.175272727 65.4270168 0.175272727 60.2229857 5.98666667 65.767447 14.2031515 61.5040785 14.2031515 57.8012335 8.69212121"></polyline>
                    <polygon id="Fill-18" points="67.3274699 14.2031515 70.8901235 14.2031515 70.8901235 0.175272727 67.3274699 0.175272727"></polygon>
                    <polyline id="Fill-19" points="83.4792638 14.2031515 77.0345751 5.56581818 77.0345751 14.2031515 73.6920147 14.2031515 73.6920147 0.175272727 76.8343362 0.175272727 83.2991215 8.83248485 83.2991215 0.175272727 86.6215853 0.175272727 86.6215853 14.2031515 83.4792638 14.2031515"></polyline>
                    <path d="M96.7325579,1.39248485 L93.1108254,9.41381818 L100.393757,9.41381818 L96.7325579,1.39248485 Z M92.7585309,10.2356364 L90.9963321,14.1292121 L90.0958626,14.1292121 L96.3018143,0.453090909 L97.1829137,0.453090909 L103.447702,14.1292121 L102.546991,14.1292121 L100.765664,10.2356364 L92.7585309,10.2356364 Z" id="Fill-20"></path>
                    <polyline id="Fill-21" points="115.229592 14.1292121 106.106497 1.70521212 106.106497 14.1292121 105.284234 14.1292121 105.284234 0.453090909 106.24354 0.453090909 115.386248 12.8768485 115.386248 0.453090909 116.188898 0.453090909 116.188898 14.1292121 115.229592 14.1292121"></polyline>
                    <path d="M125.063571,1.39248485 L121.441839,9.41381818 L128.724771,9.41381818 L125.063571,1.39248485 Z M121.089302,10.2356364 L119.327346,14.1292121 L118.426634,14.1292121 L124.632828,0.453090909 L125.513927,0.453090909 L131.778716,14.1292121 L130.878246,14.1292121 L129.096677,10.2356364 L121.089302,10.2356364 Z" id="Fill-22"></path>
                    <polyline id="Fill-23" points="141.195269 13.3270303 141.195269 14.1292121 134.284486 14.1292121 134.284486 0.453090909 135.106748 0.453090909 135.106748 13.3270303 141.195269 13.3270303"></polyline>
                    <polyline id="Fill-24" points="147.597101 14.1292121 146.794451 14.1292121 146.794451 9.15951515 141.3127 0.453090909 142.1938 0.453090909 147.18597 8.14230303 152.119545 0.453090909 153.000402 0.453090909 147.597101 9.12048485 147.597101 14.1292121"></polyline>
                    <polyline id="Fill-25" points="159.617243 1.25527273 159.617243 14.1292121 158.795223 14.1292121 158.795223 1.25527273 154.17496 1.25527273 154.17496 0.453090909 164.237749 0.453090909 164.237749 1.25527273 159.617243 1.25527273"></polyline>
                    <polygon id="Fill-26" points="167.076201 14.1292121 167.898706 14.1292121 167.898706 0.453090909 167.076201 0.453090909"></polygon>
                    <path d="M183.032115,2.27272727 L182.542534,2.89890909 C181.407202,1.84242424 179.860496,1.21624242 178.235583,1.21624242 C174.770264,1.21624242 171.970552,3.91612121 171.970552,7.26181818 C171.970552,10.6269091 174.770264,13.3466667 178.235583,13.3466667 C179.860496,13.3466667 181.387589,12.7204848 182.542534,11.6833939 L183.051727,12.2509091 C181.779108,13.4249697 180.036522,14.1486061 178.215971,14.1486061 C174.319908,14.1486061 171.14829,11.0768485 171.14829,7.28145455 C171.14829,3.48581818 174.319908,0.43369697 178.215971,0.43369697 C180.056376,0.43369697 181.759496,1.13793939 183.032115,2.27272727" id="Fill-27"></path>
                    <path d="M193.916924,1.52945455 L193.544049,2.27272727 C192.527117,1.60751515 191.137309,1.27490909 189.962994,1.27490909 C187.788695,1.27490909 186.379517,2.1750303 186.379517,3.60315152 C186.379517,7.77066667 194.425391,5.61842424 194.38665,10.6661818 C194.38665,12.7793939 192.488376,14.1486061 189.628859,14.1486061 C187.808065,14.1486061 185.948532,13.3466667 184.754847,12.1728485 L185.185832,11.4487273 C186.302037,12.6031515 188.042928,13.3076364 189.648229,13.3076364 C191.99928,13.3076364 193.505309,12.2899394 193.505309,10.6855758 C193.544049,6.4009697 185.498176,8.592 185.498176,3.66181818 C185.498176,1.68581818 187.299599,0.414060606 190.001734,0.414060606 C191.391542,0.414060606 192.899992,0.864 193.916924,1.52945455" id="Fill-28"></path>
                    <polyline id="Fill-29" points="196.71591 0.46230303 196.71591 2.46036364 196.318822 2.46036364 196.318822 0.46230303 195.577914 0.46230303 195.577914 0.10569697 197.461661 0.10569697 197.461661 0.46230303 196.71591 0.46230303"></polyline>
                    <polyline id="Fill-30" points="199.921669 2.46036364 199.919247 0.701090909 199.175918 2.21478788 198.916843 2.21478788 198.173513 0.701090909 198.173513 2.46036364 197.800638 2.46036364 197.800638 0.10569697 198.272785 0.10569697 199.047591 1.66981818 199.819975 0.10569697 200.28728 0.10569697 200.28728 2.46036364 199.921669 2.46036364"></polyline>
                </g>
                <g id="Fill-1">
                    <use fill="url(#linearGradient-1)" xlink:href="#path-3"></use>
                    <use fill="url(#linearGradient-2)" xlink:href="#path-3"></use>
                </g>
            </g>
            <path d="M129.389277,91 L121.86014,91 C120.62004,91 120,90.3794774 120,89.1384137 L120,35.8615863 C120,34.6205226 120.62004,34 121.86014,34 L143.473193,34 C148.079277,34 151.651891,35.2558195 154.191142,37.7674961 C156.730393,40.2791727 158,43.8397903 158,48.4494557 L158,56.9595645 C158,61.5692299 156.730393,65.1298475 154.191142,67.6415241 C151.651891,70.1532007 148.079277,71.4090202 143.473193,71.4090202 L132.312354,71.4090202 C131.603726,71.4090202 131.249417,71.7340558 131.249417,72.3841369 L131.249417,89.1384137 C131.249417,90.3794774 130.629377,91 129.389277,91 Z M131.942857,62 L141.028571,62 C142.857152,62 144.142853,61.597019 144.885714,60.7910448 C145.628575,59.9850706 146,58.6567257 146,56.8059701 L146,49.2835821 C146,47.3731248 145.628575,46.0149294 144.885714,45.2089552 C144.142853,44.402981 142.857152,44 141.028571,44 L131.942857,44 C131.314283,44 131,44.3283549 131,44.9850746 L131,61.0149254 C131,61.6716451 131.314283,62 131.942857,62 Z M187.429594,91 L179.570406,91 C174.919627,91 171.328573,89.7647182 168.797136,87.2941176 C166.265699,84.8235171 165,81.2647291 165,76.6176471 L165,60.3823529 C165,55.7352709 166.265699,52.1764829 168.797136,49.7058824 C171.328573,47.2352818 174.919627,46 179.570406,46 L187.429594,46 C192.021503,46 195.597839,47.2499875 198.158711,49.75 C200.719583,52.2500125 202,55.7940947 202,60.3823529 L202,76.6176471 C202,81.2059053 200.719583,84.7499875 198.158711,87.25 C195.597839,89.7500125 192.021503,91 187.429594,91 Z M181.178571,82 L185.732143,82 C187.636914,82 188.991067,81.6141591 189.794643,80.8424658 C190.598218,80.0707724 191,78.7351693 191,76.8356164 L191,61.1643836 C191,59.2648307 190.598218,57.9292276 189.794643,57.1575342 C188.991067,56.3858409 187.636914,56 185.732143,56 L181.178571,56 C179.2738,56 177.934528,56.3858409 177.160714,57.1575342 C176.386901,57.9292276 176,59.2648307 176,61.1643836 L176,76.8356164 C176,78.7351693 176.386901,80.0707724 177.160714,80.8424658 C177.934528,81.6141591 179.2738,82 181.178571,82 Z M227.781644,91 L217.856422,91 C216.753614,91 216.057114,90.3823591 215.766902,89.1470588 L207.060567,47.8529412 C206.828397,46.6176409 207.263709,46 208.366517,46 L216.724599,46 C218.001534,46 218.698034,46.6176409 218.814119,47.8529412 L222.73197,78.0294118 L223.428477,78.0294118 L229.609975,47.8529412 C229.784102,46.6176409 230.451581,46 231.612432,46 L239.274007,46 C240.4929,46 241.218421,46.6176409 241.450591,47.8529412 L247.457962,78.0294118 L248.154469,78.0294118 L252.159383,47.8529412 C252.333511,46.6176409 253.03001,46 254.248903,46 L262.606985,46 C263.767836,46 264.203148,46.6176409 263.912936,47.8529412 L255.2066,89.1470588 C254.97443,90.3823591 254.27793,91 253.11708,91 L243.191858,91 C242.031007,91 241.334507,90.3823591 241.102337,89.1470588 L235.791473,59.3235294 L235.094966,59.3235294 L229.871165,89.1470588 C229.697037,90.3823591 229.000537,91 227.781644,91 Z M304.97555,91 L285.523227,91 C280.887507,91 277.308081,89.7647182 274.784841,87.2941176 C272.261601,84.8235171 271,81.2647291 271,76.6176471 L271,60.3823529 C271,55.7352709 272.261601,52.1764829 274.784841,49.7058824 C277.308081,47.2352818 280.887507,46 285.523227,46 L292.476773,46 C297.112493,46 300.691919,47.2352818 303.215159,49.7058824 C305.738399,52.1764829 307,55.7352709 307,60.3823529 L307,71.5882353 C307,72.8235356 306.383869,73.4411765 305.151589,73.4411765 L283.05868,73.4411765 C282.35452,73.4411765 282.002445,73.7647026 282.002445,74.4117647 L282.002445,76.3529412 C282.002445,78.1764797 282.398529,79.4852901 283.190709,80.2794118 C283.982889,81.0735334 285.317839,81.4705882 287.195599,81.4705882 L304.97555,81.4705882 C306.20783,81.4705882 306.823961,82.1176406 306.823961,83.4117647 L306.823961,89.2352941 C306.823961,89.8823562 306.691933,90.338234 306.427873,90.6029412 C306.163813,90.8676484 305.67971,91 304.97555,91 Z M282.974684,66 L295.025316,66 C295.675109,66 296,65.6866128 296,65.0598291 L296,60.957265 C296,59.133894 295.616038,57.8518556 294.848101,57.1111111 C294.080165,56.3703667 292.751064,56 290.860759,56 L287.139241,56 C285.248936,56 283.919835,56.3703667 283.151899,57.1111111 C282.383962,57.8518556 282,59.133894 282,60.957265 L282,65.0598291 C282,65.6866128 282.324891,66 282.974684,66 Z M324.298246,91 L316.842105,91 C315.614029,91 315,90.3823591 315,89.1470588 L315,47.8529412 C315,46.6176409 315.614029,46 316.842105,46 L324.298246,46 C325.526322,46 326.140351,46.6176409 326.140351,47.8529412 L326.140351,50.8529412 L326.491228,50.8529412 C327.134506,49.2646979 328.274846,48.0588276 329.912281,47.2352941 C331.549716,46.4117606 333.274845,46 335.087719,46 L338.245614,46 C339.415211,46 340,46.6176409 340,47.8529412 L340,53.9411765 C340,54.6470624 339.868422,55.1323516 339.605263,55.3970588 C339.342104,55.661766 338.888892,55.7647062 338.245614,55.7058824 L332.192982,55.7058824 C328.157875,55.7058824 326.140351,57.9999771 326.140351,62.5882353 L326.140351,89.1470588 C326.140351,90.3823591 325.526322,91 324.298246,91 Z M355.389277,91 L347.86014,91 C346.62004,91 346,90.3794774 346,89.1384137 L346,35.8615863 C346,34.6205226 346.62004,34 347.86014,34 L369.473193,34 C374.079277,34 377.651891,35.2558195 380.191142,37.7674961 C382.730393,40.2791727 384,43.8397903 384,48.4494557 L384,56.9595645 C384,61.5692299 382.730393,65.1298475 380.191142,67.6415241 C377.651891,70.1532007 374.079277,71.4090202 369.473193,71.4090202 L358.312354,71.4090202 C357.603726,71.4090202 357.249417,71.7340558 357.249417,72.3841369 L357.249417,89.1384137 C357.249417,90.3794774 356.629377,91 355.389277,91 Z M357.942857,62 L367.028571,62 C368.857152,62 370.142853,61.597019 370.885714,60.7910448 C371.628575,59.9850706 372,58.6567257 372,56.8059701 L372,49.2835821 C372,47.3731248 371.628575,46.0149294 370.885714,45.2089552 C370.142853,44.402981 368.857152,44 367.028571,44 L357.942857,44 C357.314283,44 357,44.3283549 357,44.9850746 L357,61.0149254 C357,61.6716451 357.314283,62 357.942857,62 Z M408.729665,91 L405.808612,91 C401.26473,91 397.827364,89.7647182 395.496411,87.2941176 C393.165459,84.8235171 392,81.2647291 392,76.6176471 L392,47.8529412 C392,46.6176409 392.619611,46 393.858852,46 L401.382775,46 C402.622016,46 403.241627,46.6176409 403.241627,47.8529412 L403.241627,76.0882353 C403.241627,77.9705976 403.639948,79.3088196 404.436603,80.1029412 C405.233258,80.8970628 406.546243,81.2941176 408.375598,81.2941176 L411.650718,81.2941176 C415.722508,81.2941176 417.758373,79.0588459 417.758373,74.5882353 L417.758373,47.8529412 C417.758373,46.6176409 418.377984,46 419.617225,46 L427.052632,46 C428.350884,46 429,46.6176409 429,47.8529412 L429,89.1470588 C429,90.3823591 428.350884,91 427.052632,91 L419.617225,91 C418.377984,91 417.758373,90.3823591 417.758373,89.1470588 L417.758373,86.2352941 L417.404306,86.2352941 C416.75518,87.8235374 415.604474,89.0147019 413.952153,89.8088235 C412.299832,90.6029451 410.55902,91 408.729665,91 Z M447.181102,91 L439.818898,91 C438.606293,91 438,90.382652 438,89.1479374 L438,30.8520626 C438,29.617348 438.606293,29 439.818898,29 L447.181102,29 C448.393707,29 449,29.617348 449,30.8520626 L449,89.1479374 C449,90.382652 448.393707,91 447.181102,91 Z M476.421622,91 L459.989189,91 C458.83603,91 458.259459,90.3823591 458.259459,89.1470588 L458.259459,83.5 C458.259459,82.8529379 458.374774,82.3970601 458.605405,82.1323529 C458.836037,81.8676457 459.297294,81.7352941 459.989189,81.7352941 L474.432432,81.7352941 C477.257672,81.7352941 478.67027,80.85295 478.67027,79.0882353 L478.67027,78.6470588 C478.67027,77.2352871 477.4883,75.8823594 475.124324,74.5882353 L466.562162,69.7352941 C463.621607,68.2058747 461.459466,66.5588324 460.075676,64.7941176 C458.691885,63.0294029 458,60.7647197 458,58 C458,53.8823324 459.066656,50.8529509 461.2,48.9117647 C463.333344,46.9705785 466.677455,46 471.232432,46 L485.675676,46 C486.828835,46 487.405405,46.6176409 487.405405,47.8529412 L487.405405,53.5882353 C487.405405,54.2352974 487.290091,54.6911751 487.059459,54.9558824 C486.828828,55.2205896 486.367571,55.3529412 485.675676,55.3529412 L473.654054,55.3529412 C470.828815,55.3529412 469.416216,56.0882279 469.416216,57.5588235 L469.416216,58 C469.416216,59.2941241 470.655843,60.6176403 473.135135,61.9705882 L481.87027,67.2647059 C484.868483,68.9117729 486.972967,70.6029325 488.183784,72.3382353 C489.394601,74.0735381 490,76.3529271 490,79.1764706 C490,87.0588629 485.473919,91 476.421622,91 Z M530.97555,91 L511.523227,91 C506.887507,91 503.308081,89.7647182 500.784841,87.2941176 C498.261601,84.8235171 497,81.2647291 497,76.6176471 L497,60.3823529 C497,55.7352709 498.261601,52.1764829 500.784841,49.7058824 C503.308081,47.2352818 506.887507,46 511.523227,46 L518.476773,46 C523.112493,46 526.691919,47.2352818 529.215159,49.7058824 C531.738399,52.1764829 533,55.7352709 533,60.3823529 L533,71.5882353 C533,72.8235356 532.383869,73.4411765 531.151589,73.4411765 L509.05868,73.4411765 C508.35452,73.4411765 508.002445,73.7647026 508.002445,74.4117647 L508.002445,76.3529412 C508.002445,78.1764797 508.398529,79.4852901 509.190709,80.2794118 C509.982889,81.0735334 511.317839,81.4705882 513.195599,81.4705882 L530.97555,81.4705882 C532.20783,81.4705882 532.823961,82.1176406 532.823961,83.4117647 L532.823961,89.2352941 C532.823961,89.8823562 532.691933,90.338234 532.427873,90.6029412 C532.163813,90.8676484 531.67971,91 530.97555,91 Z M508.974684,66 L521.025316,66 C521.675109,66 522,65.6866128 522,65.0598291 L522,60.957265 C522,59.133894 521.616038,57.8518556 520.848101,57.1111111 C520.080165,56.3703667 518.751064,56 516.860759,56 L513.139241,56 C511.248936,56 509.919835,56.3703667 509.151899,57.1111111 C508.383962,57.8518556 508,59.133894 508,60.957265 L508,65.0598291 C508,65.6866128 508.324891,66 508.974684,66 Z" id="PowerPulse" fill="#FFFFFF"></path>
            <path d="M50,93 C73.7482442,93 93,73.7482442 93,50 C93,26.2517558 73.7482442,7 50,7 C26.2517558,7 7,26.2517558 7,50 C7,73.7482442 26.2517558,93 50,93 Z M50,100 C22.3857625,100 0,77.6142375 0,50 C0,22.3857625 22.3857625,0 50,0 C77.6142375,0 100,22.3857625 100,50 C100,77.6142375 77.6142375,100 50,100 Z M58.6694544,86.666668 L58.6694544,88 C56.8094812,87.8724435 55.5017545,86.6479896 55.2746775,85.0490208 L48.2896819,35.7091114 L43.1895549,61.0093216 C42.9221235,62.332933 41.9038658,63.3777848 40.5883613,63.6763262 C39.2706427,63.9761155 37.9024547,63.4717046 37.090011,62.3899473 L29.0571683,51.6755449 L24.2697814,60.4560938 C23.6695253,61.5582821 22.5155576,62.2447161 21.2620516,62.2447161 L7.42708333,62.2447161 C5.53318521,62.2447161 4,60.7069932 4,58.8115295 C4,56.9159654 5.53315243,55.3783429 7.42708333,55.3783429 L19.2285979,55.3783429 L25.5926249,43.7053368 C26.1505408,42.6806717 27.1902833,42.0107691 28.3460765,41.9267812 C29.5036228,41.8364628 30.6393392,42.35423 31.3407423,43.2884498 L37.983307,52.1480839 L45.5217628,14.7528023 C45.8531081,13.113501 47.3106764,11.9502762 48.9803646,12.0016359 C50.6495848,12.0499038 52.039855,13.2962632 52.2735938,14.9511492 L59.8406724,68.4098635 L66.6714524,45.160592 C67.0358775,43.917367 68.0680048,42.9860725 69.3388018,42.7527656 C70.6107448,42.5161934 71.9094008,43.0226717 72.6908378,44.0561978 L81.2518359,55.3783429 L92.5729167,55.3783429 C94.4668476,55.3783429 96,56.9159654 96,58.8115295 C96,60.7069932 94.4668148,62.2447161 92.5729167,62.2447161 L79.548994,62.2447161 C78.4749726,62.2447161 77.4634358,61.7407768 76.8170938,60.8835835 L71.3301974,53.626703 L61.9559831,85.535894 C61.5265754,86.9982704 60.1863804,88 58.6694544,88 L58.6694544,86.666668 Z" id="Combined-Shape" fill="#1199FF" fill-rule="nonzero"></path>
        </g>
    </g>
</svg>