<?xml version="1.0" encoding="UTF-8"?>
<svg width="979px" height="180px" viewBox="0 0 979 180" version="1.1" xmlns="http://www.w3.org/2000/svg" xmlns:xlink="http://www.w3.org/1999/xlink">
    <!-- Generator: Sketch 49.1 (51147) - http://www.bohemiancoding.com/sketch -->
    <title>Group 4</title>
    <desc>Created with Sketch.</desc>
    <defs>
        <linearGradient x1="50%" y1="0%" x2="50%" y2="100%" id="linearGradient-1">
            <stop stop-color="#FFFFFF" offset="0%"></stop>
            <stop stop-color="#000000" offset="100%"></stop>
        </linearGradient>
        <linearGradient x1="100%" y1="99.9999642%" x2="0%" y2="99.9999642%" id="linearGradient-2">
            <stop stop-color="#24A300" offset="0%"></stop>
            <stop stop-color="#61C600" offset="15.784275%"></stop>
            <stop stop-color="#FFBE00" offset="49.7297588%"></stop>
            <stop stop-color="#EF5A00" offset="80.5537501%"></stop>
            <stop stop-color="#E00000" offset="100%"></stop>
        </linearGradient>
        <path d="M28.4818216,0 C12.845338,0 0.169831118,12.8743504 0.169831118,28.7548139 L11.3576532,28.7548139 C11.3576532,19.1497079 19.023968,11.3625634 28.4818216,11.3625634 C37.9392755,11.3625634 45.6723582,19.1497079 45.6723582,28.7548139 L56.7938121,28.7548139 C56.7938121,12.8743504 44.1175056,0 28.4818216,0 Z" id="path-3"></path>
    </defs>
    <g id="LOGOS" stroke="none" stroke-width="1" fill="none" fill-rule="evenodd">
        <g id="Artboard-Copy-4" transform="translate(-122.000000, -400.000000)">
            <g id="Group-4" transform="translate(122.000000, 400.000000)">
                <g id="Chaikin-Logo-H3_rev" transform="translate(210.887430, 15.783055)">
                    <g id="Group-5" transform="translate(65.278836, 2.614074)" fill="#FFFFFF">
                        <path d="M23.78108,4.34851208 L20.0754181,8.74233477 C18.4208172,6.72557669 15.9746016,5.46515735 13.7442413,5.46515735 C9.75091734,5.46515735 6.72894242,8.63428638 6.72894242,12.7762866 C6.72894242,16.9897382 9.75091734,20.1954643 13.7442413,20.1954643 C15.8666739,20.1954643 18.3128895,19.0430933 20.0754181,17.2419963 L23.8172009,21.2036255 C21.119009,23.9767223 17.1256851,25.8135449 13.4200231,25.8135449 C5.82983525,25.8135449 0.181475164,20.2316256 0.181475164,12.8481736 C0.181475164,5.57320574 5.97344869,0.0993348115 13.6358785,0.0993348115 C17.3776614,0.0993348115 21.2626225,1.75578636 23.78108,4.34851208" id="Fill-13"></path>
                        <polyline id="Fill-14" points="43.5649192 25.5255611 43.5649192 15.7297545 33.1324908 15.7297545 33.1324908 25.5255611 26.7290722 25.5255611 26.7290722 0.314995916 33.1324908 0.314995916 33.1324908 10.6872058 43.5649192 10.6872058 43.5649192 0.314995916 49.9687731 0.314995916 49.9687731 25.5255611 43.5649192 25.5255611"></polyline>
                        <path d="M66.2636761,6.68985101 L62.5941352,16.0177384 L69.8609752,16.0177384 L66.2636761,6.68985101 Z M60.7236789,20.8794803 L58.8889084,25.5255611 L52.3053202,25.5255611 L63.1698945,0.314995916 L69.7530475,0.314995916 L80.3656455,25.5255611 L73.5305162,25.5255611 L71.7318666,20.8794803 L60.7236789,20.8794803 Z" id="Fill-15"></path>
                        <polygon id="Fill-16" points="82.7021926 25.5255611 89.1056113 25.5255611 89.1056113 0.314995916 82.7021926 0.314995916"></polygon>
                        <polyline id="Fill-17" points="103.890397 15.6212705 100.545074 19.3310771 100.545074 25.5255611 94.1412207 25.5255611 94.1412207 0.314995916 100.545074 0.314995916 100.545074 11.2278835 110.185888 0.314995916 117.596777 0.314995916 108.24319 10.7590929 118.208657 25.5255611 110.545792 25.5255611 103.890397 15.6212705"></polyline>
                        <polygon id="Fill-18" points="121.012601 25.5255611 127.416019 25.5255611 127.416019 0.314995916 121.012601 0.314995916"></polygon>
                        <polyline id="Fill-19" points="150.043405 25.5255611 138.459893 10.0027541 138.459893 25.5255611 132.452064 25.5255611 132.452064 0.314995916 138.099989 0.314995916 149.719622 15.8735286 149.719622 0.314995916 155.69133 0.314995916 155.69133 25.5255611 150.043405 25.5255611"></polyline>
                        <path d="M173.864522,2.50254016 L167.354917,16.9182868 L180.445064,16.9182868 L173.864522,2.50254016 Z M166.721712,18.3952387 L163.554383,25.392679 L161.935903,25.392679 L173.090315,0.814284047 L174.67398,0.814284047 L185.934144,25.392679 L184.315229,25.392679 L181.11352,18.3952387 L166.721712,18.3952387 Z" id="Fill-20"></path>
                        <polyline id="Fill-21" points="207.110598 25.392679 190.71299 3.06456607 190.71299 25.392679 189.235077 25.392679 189.235077 0.814284047 190.959309 0.814284047 207.392168 23.1419613 207.392168 0.814284047 208.83483 0.814284047 208.83483 25.392679 207.110598 25.392679"></polyline>
                        <path d="M224.785931,2.50254016 L218.276326,16.9182868 L231.366473,16.9182868 L224.785931,2.50254016 Z M217.642686,18.3952387 L214.475792,25.392679 L212.856877,25.392679 L224.011724,0.814284047 L225.595389,0.814284047 L236.855553,25.392679 L235.237073,25.392679 L232.034928,18.3952387 L217.642686,18.3952387 Z" id="Fill-22"></path>
                        <polyline id="Fill-23" points="253.780614 23.9510172 253.780614 25.392679 241.359357 25.392679 241.359357 0.814284047 242.83727 0.814284047 242.83727 23.9510172 253.780614 23.9510172"></polyline>
                        <polyline id="Fill-24" points="265.287097 25.392679 263.844435 25.392679 263.844435 16.4612596 253.991683 0.814284047 255.575347 0.814284047 264.548141 14.6331505 273.415618 0.814284047 274.998847 0.814284047 265.287097 16.3911153 265.287097 25.392679"></polyline>
                        <polyline id="Fill-25" points="286.891781 2.25594585 286.891781 25.392679 285.414303 25.392679 285.414303 2.25594585 277.109965 2.25594585 277.109965 0.814284047 295.196554 0.814284047 295.196554 2.25594585 286.891781 2.25594585"></polyline>
                        <polygon id="Fill-26" points="300.298313 25.392679 301.776661 25.392679 301.776661 0.814284047 300.298313 0.814284047"></polygon>
                        <path d="M328.977046,4.08449061 L328.097088,5.20984946 C326.056471,3.31116038 323.276463,2.18580153 320.355888,2.18580153 C314.127417,2.18580153 309.095289,7.03795853 309.095289,13.0507644 C309.095289,19.0984246 314.127417,23.9863072 320.355888,23.9863072 C323.276463,23.9863072 326.021221,22.8609484 328.097088,20.9971136 L329.012297,22.0170382 C326.724927,24.1270315 323.592848,25.4275334 320.320638,25.4275334 C313.317959,25.4275334 307.617376,19.9070448 307.617376,13.0860544 C307.617376,6.26462831 313.317959,0.779429727 320.320638,0.779429727 C323.628534,0.779429727 326.689676,2.04507722 328.977046,4.08449061" id="Fill-27"></path>
                        <path d="M348.541114,2.7486988 L347.870917,4.08449061 C346.04311,2.88898744 343.545107,2.29123585 341.434424,2.29123585 C337.526398,2.29123585 334.993579,3.90891197 334.993579,6.47549695 C334.993579,13.9652546 349.455017,10.0972965 349.385386,19.1690046 C349.385386,22.9668184 345.973479,25.4275334 340.833859,25.4275334 C337.561213,25.4275334 334.218937,23.9863072 332.073439,21.8767495 L332.848081,20.5753764 C334.854318,22.6500797 337.98335,23.9161629 340.868674,23.9161629 C345.094391,23.9161629 347.801287,22.0871825 347.801287,19.2038589 C347.870917,11.5036683 333.409479,15.441335 333.409479,6.58093126 C333.409479,3.02971175 336.64731,0.744139728 341.504055,0.744139728 C344.002058,0.744139728 346.713306,1.55275995 348.541114,2.7486988" id="Fill-28"></path>
                        <polyline id="Fill-29" points="353.571936 0.830839849 353.571936 4.42170615 352.858221 4.42170615 352.858221 0.830839849 351.526532 0.830839849 351.526532 0.189956043 354.912328 0.189956043 354.912328 0.830839849 353.571936 0.830839849"></polyline>
                        <polyline id="Fill-30" points="359.333881 4.42170615 359.329529 1.25998366 357.993489 3.98036333 357.527833 3.98036333 356.191793 1.25998366 356.191793 4.42170615 355.521597 4.42170615 355.521597 0.189956043 356.370222 0.189956043 357.762837 3.00095694 359.1511 0.189956043 359.991021 0.189956043 359.991021 4.42170615 359.333881 4.42170615"></polyline>
                    </g>
                    <g id="Fill-1">
                        <use fill="url(#linearGradient-1)" xlink:href="#path-3"></use>
                        <use fill="url(#linearGradient-2)" xlink:href="#path-3"></use>
                        <use fill="#FFFFFF" xlink:href="#path-3"></use>
                    </g>
                </g>
                <path d="M960.592338,86.8099347 L960.592338,96.9509831 L958.640969,96.9509831 L958.640969,86.8099347 L955,86.8099347 L955,85 L964.257105,85 L964.257105,86.8099347 L960.592338,86.8099347 Z M976.346074,96.9509831 L976.334176,88.0218897 L972.681308,95.7045766 L971.408158,95.7045766 L967.755291,88.0218897 L967.755291,96.9509831 L965.922908,96.9509831 L965.922908,85 L968.243133,85 L972.050682,92.9386125 L975.846333,85 L978.142762,85 L978.142762,96.9509831 L976.346074,96.9509831 Z" id="Combined-Shape" fill="#313540"></path>
                <path d="M227.56084,165.543004 L214.028169,165.543004 C211.799247,165.543004 210.684803,164.427816 210.684803,162.197406 L210.684803,66.4495775 C210.684803,64.2191676 211.799247,63.1039795 214.028169,63.1039795 L252.874896,63.1039795 C261.153748,63.1039795 267.575069,65.3609079 272.139051,69.8748326 C276.703034,74.3887572 278.984991,80.7878132 278.984991,89.0721925 L278.984991,104.366355 C278.984991,112.650734 276.703034,119.04979 272.139051,123.563715 C267.575069,128.077639 261.153748,130.334568 252.874896,130.334568 L232.814701,130.334568 C231.541031,130.334568 230.904206,130.918714 230.904206,132.087024 L230.904206,162.197406 C230.904206,164.427816 229.789762,165.543004 227.56084,165.543004 Z M232.150576,113.424904 L248.480997,113.424904 C251.767639,113.424904 254.078525,112.700676 255.413723,111.252199 C256.748921,109.803721 257.41651,107.416452 257.41651,104.090319 L257.41651,90.5712643 C257.41651,87.1378366 256.748921,84.6969206 255.413723,83.2484433 C254.078525,81.7999659 251.767639,81.0757381 248.480997,81.0757381 L232.150576,81.0757381 C231.020793,81.0757381 230.45591,81.6658497 230.45591,82.8460905 L230.45591,111.654551 C230.45591,112.834792 231.020793,113.424904 232.150576,113.424904 Z M330.880959,165.543004 L316.755063,165.543004 C308.395877,165.543004 301.941412,163.322985 297.391475,158.882882 C292.841538,154.442778 290.566604,148.04701 290.566604,139.695386 L290.566604,110.517707 C290.566604,102.166084 292.841538,95.7703159 297.391475,91.3302122 C301.941412,86.8901084 308.395877,84.6700899 316.755063,84.6700899 L330.880959,84.6700899 C339.134333,84.6700899 345.562345,86.9165372 350.165188,91.4094994 C354.768031,95.9024615 357.069418,102.2718 357.069418,110.517707 L357.069418,139.695386 C357.069418,147.941293 354.768031,154.310632 350.165188,158.803594 C345.562345,163.296556 339.134333,165.543004 330.880959,165.543004 Z M319.645537,149.368421 L327.830005,149.368421 C331.253591,149.368421 333.68751,148.674997 335.131835,147.288128 C336.57616,145.90126 337.298311,143.500946 337.298311,140.087116 L337.298311,111.923154 C337.298311,108.509323 336.57616,106.10901 335.131835,104.722141 C333.68751,103.335272 331.253591,102.641849 327.830005,102.641849 L319.645537,102.641849 C316.221952,102.641849 313.81478,103.335272 312.423948,104.722141 C311.033116,106.10901 310.337711,108.509323 310.337711,111.923154 L310.337711,140.087116 C310.337711,143.500946 311.033116,145.90126 312.423948,147.288128 C313.81478,148.674997 316.221952,149.368421 319.645537,149.368421 Z M402.408659,165.543004 L384.569329,165.543004 C382.587172,165.543004 381.335301,164.432995 380.813681,162.212943 L365.165146,88.000151 C364.74785,85.7800991 365.530269,84.6700899 367.512426,84.6700899 L382.53502,84.6700899 C384.83015,84.6700899 386.08202,85.7800991 386.290668,88.000151 L393.332509,142.232576 L394.584392,142.232576 L405.694852,88.000151 C406.007824,85.7800991 407.207533,84.6700899 409.294015,84.6700899 L423.064725,84.6700899 C425.255531,84.6700899 426.559563,85.7800991 426.976859,88.000151 L437.774348,142.232576 L439.026231,142.232576 L446.224557,88.000151 C446.537529,85.7800991 447.7894,84.6700899 449.980205,84.6700899 L465.002799,84.6700899 C467.089281,84.6700899 467.8717,85.7800991 467.350079,88.000151 L451.701544,162.212943 C451.284248,164.432995 450.032378,165.543004 447.945896,165.543004 L430.106566,165.543004 C428.020084,165.543004 426.768214,164.432995 426.350918,162.212943 L416.805311,108.614815 L415.553429,108.614815 L406.164308,162.212943 C405.851335,164.432995 404.599465,165.543004 402.408659,165.543004 Z M536.154929,165.543004 L501.191842,165.543004 C492.859722,165.543004 486.426157,163.322985 481.890953,158.882882 C477.355748,154.442778 475.08818,148.04701 475.08818,139.695386 L475.08818,110.517707 C475.08818,102.166084 477.355748,95.7703159 481.890953,91.3302122 C486.426157,86.8901084 492.859722,84.6700899 501.191842,84.6700899 L513.689959,84.6700899 C522.022079,84.6700899 528.455644,86.8901084 532.990848,91.3302122 C537.526053,95.7703159 539.793621,102.166084 539.793621,110.517707 L539.793621,130.656649 C539.793621,132.876701 538.686204,133.98671 536.471337,133.98671 L496.76213,133.98671 C495.496491,133.98671 494.863682,134.568143 494.863682,135.731028 L494.863682,139.219663 C494.863682,142.496883 495.575593,144.849045 496.999436,146.276221 C498.423279,147.703398 500.822683,148.416975 504.197718,148.416975 L536.154929,148.416975 C538.369796,148.416975 539.477213,149.579842 539.477213,151.905611 L539.477213,162.371517 C539.477213,163.534401 539.239909,164.353694 538.765295,164.829419 C538.290681,165.305145 537.420567,165.543004 536.154929,165.543004 Z M496.611157,120.613607 L518.270644,120.613607 C519.438563,120.613607 520.022514,120.050395 520.022514,118.923955 L520.022514,111.550925 C520.022514,108.274007 519.33239,105.969959 517.952122,104.638711 C516.571854,103.307463 514.182964,102.641849 510.78538,102.641849 L504.096421,102.641849 C500.698838,102.641849 498.309947,103.307463 496.929679,104.638711 C495.549411,105.969959 494.859287,108.274007 494.859287,111.550925 L494.859287,118.923955 C494.859287,120.050395 495.443238,120.613607 496.611157,120.613607 Z M571.885027,165.543004 L558.483559,165.543004 C556.276247,165.543004 555.172608,164.432995 555.172608,162.212943 L555.172608,88.000151 C555.172608,85.7800991 556.276247,84.6700899 558.483559,84.6700899 L571.885027,84.6700899 C574.092338,84.6700899 575.195978,85.7800991 575.195978,88.000151 L575.195978,93.3916786 L575.826635,93.3916786 C576.982846,90.5373262 579.032462,88.3701652 581.975544,86.8901306 C584.918626,85.4100961 588.019327,84.6700899 591.277739,84.6700899 L596.953655,84.6700899 C599.055857,84.6700899 600.106942,85.7800991 600.106942,88.000151 L600.106942,98.9417806 C600.106942,100.210382 599.870448,101.082532 599.397452,101.558257 C598.924457,102.033983 598.109866,102.218984 596.953655,102.113267 L586.074816,102.113267 C578.822221,102.113267 575.195978,106.236159 575.195978,114.482066 L575.195978,162.212943 C575.195978,164.432995 574.092338,165.543004 571.885027,165.543004 Z M633.767219,165.543004 L620.234548,165.543004 C618.005626,165.543004 616.891182,164.427816 616.891182,162.197406 L616.891182,66.4495775 C616.891182,64.2191676 618.005626,63.1039795 620.234548,63.1039795 L659.081275,63.1039795 C667.360127,63.1039795 673.781448,65.3609079 678.34543,69.8748326 C682.909413,74.3887572 685.19137,80.7878132 685.19137,89.0721925 L685.19137,104.366355 C685.19137,112.650734 682.909413,119.04979 678.34543,123.563715 C673.781448,128.077639 667.360127,130.334568 659.081275,130.334568 L639.02108,130.334568 C637.74741,130.334568 637.110585,130.918714 637.110585,132.087024 L637.110585,162.197406 C637.110585,164.427816 635.996141,165.543004 633.767219,165.543004 Z M638.356955,113.424904 L654.687376,113.424904 C657.974018,113.424904 660.284904,112.700676 661.620102,111.252199 C662.9553,109.803721 663.622889,107.416452 663.622889,104.090319 L663.622889,90.5712643 C663.622889,87.1378366 662.9553,84.6969206 661.620102,83.2484433 C660.284904,81.7999659 657.974018,81.0757381 654.687376,81.0757381 L638.356955,81.0757381 C637.227172,81.0757381 636.662289,81.6658497 636.662289,82.8460905 L636.662289,111.654551 C636.662289,112.834792 637.227172,113.424904 638.356955,113.424904 Z M727.639811,165.543004 L722.389589,165.543004 C714.222535,165.543004 708.044306,163.322985 703.854713,158.882882 C699.665121,154.442778 697.570356,148.04701 697.570356,139.695386 L697.570356,88.000151 C697.570356,85.7800991 698.684029,84.6700899 700.911407,84.6700899 L714.434707,84.6700899 C716.662085,84.6700899 717.775757,85.7800991 717.775757,88.000151 L717.775757,138.74394 C717.775757,142.126876 718.491689,144.531897 719.923575,145.959073 C721.355461,147.386249 723.715386,148.099826 727.00342,148.099826 L732.890033,148.099826 C740.208561,148.099826 743.86777,144.08265 743.86777,136.048176 L743.86777,88.000151 C743.86777,85.7800991 744.981443,84.6700899 747.208821,84.6700899 L760.573023,84.6700899 C762.906466,84.6700899 764.073171,85.7800991 764.073171,88.000151 L764.073171,162.212943 C764.073171,164.432995 762.906466,165.543004 760.573023,165.543004 L747.208821,165.543004 C744.981443,165.543004 743.86777,164.432995 743.86777,162.212943 L743.86777,156.979989 L743.23138,156.979989 C742.064658,159.834342 739.996409,161.975074 737.026572,163.40225 C734.056734,164.829426 730.927845,165.543004 727.639811,165.543004 Z M796.7514,165.543004 L783.518769,165.543004 C781.339266,165.543004 780.249531,164.433521 780.249531,162.214522 L780.249531,57.4465823 C780.249531,55.2275831 781.339266,54.1181001 783.518769,54.1181001 L796.7514,54.1181001 C798.930903,54.1181001 800.020638,55.2275831 800.020638,57.4465823 L800.020638,162.214522 C800.020638,164.433521 798.930903,165.543004 796.7514,165.543004 Z M847.30753,165.543004 L817.772314,165.543004 C815.699657,165.543004 814.663344,164.432995 814.663344,162.212943 L814.663344,152.064185 C814.663344,150.901301 814.870606,150.082008 815.285138,149.606283 C815.699669,149.130557 816.52872,148.892698 817.772314,148.892698 L843.732214,148.892698 C848.810224,148.892698 851.349191,147.30697 851.349191,144.135468 L851.349191,143.342596 C851.349191,140.805394 849.22475,138.373945 844.975802,136.048176 L829.5864,127.326588 C824.301125,124.577952 820.414951,121.617927 817.927762,118.446425 C815.440574,115.274922 814.196998,111.204888 814.196998,106.2362 C814.196998,98.8360273 816.114177,93.3916961 819.948593,89.9030431 C823.783009,86.4143902 829.793624,84.6700899 837.98062,84.6700899 L863.94052,84.6700899 C866.013177,84.6700899 867.04949,85.7800991 867.04949,88.000151 L867.04949,98.3074832 C867.04949,99.4703675 866.842228,100.28966 866.427696,100.765385 C866.013165,101.241111 865.184115,101.47897 863.94052,101.47897 L842.333178,101.47897 C837.255168,101.47897 834.716201,102.80041 834.716201,105.443329 L834.716201,106.2362 C834.716201,108.561969 836.944274,110.94056 841.400487,113.372046 L857.100786,122.886506 C862.489694,125.846575 866.272237,128.885886 868.448527,132.004531 C870.624817,135.123175 871.712946,139.219638 871.712946,144.294042 C871.712946,158.460087 863.577888,165.543004 847.30753,165.543004 Z M944.361308,165.543004 L909.398221,165.543004 C901.066101,165.543004 894.632536,163.322985 890.097332,158.882882 C885.562127,154.442778 883.294559,148.04701 883.294559,139.695386 L883.294559,110.517707 C883.294559,102.166084 885.562127,95.7703159 890.097332,91.3302122 C894.632536,86.8901084 901.066101,84.6700899 909.398221,84.6700899 L921.896338,84.6700899 C930.228458,84.6700899 936.662023,86.8901084 941.197227,91.3302122 C945.732432,95.7703159 948,102.166084 948,110.517707 L948,130.656649 C948,132.876701 946.892583,133.98671 944.677716,133.98671 L904.968509,133.98671 C903.70287,133.98671 903.070061,134.568143 903.070061,135.731028 L903.070061,139.219663 C903.070061,142.496883 903.781972,144.849045 905.205815,146.276221 C906.629658,147.703398 909.029062,148.416975 912.404097,148.416975 L944.361308,148.416975 C946.576175,148.416975 947.683592,149.579842 947.683592,151.905611 L947.683592,162.371517 C947.683592,163.534401 947.446288,164.353694 946.971674,164.829419 C946.49706,165.305145 945.626946,165.543004 944.361308,165.543004 Z M904.817536,120.613607 L926.477023,120.613607 C927.644942,120.613607 928.228893,120.050395 928.228893,118.923955 L928.228893,111.550925 C928.228893,108.274007 927.538769,105.969959 926.158501,104.638711 C924.778233,103.307463 922.389343,102.641849 918.991759,102.641849 L912.3028,102.641849 C908.905217,102.641849 906.516326,103.307463 905.136058,104.638711 C903.75579,105.969959 903.065666,108.274007 903.065666,111.550925 L903.065666,118.923955 C903.065666,120.050395 903.649617,120.613607 904.817536,120.613607 Z" id="PowerPulse" fill="#FFFFFF"></path>
                <path d="M90,167.4 C132.74684,167.4 167.4,132.74684 167.4,90 C167.4,47.2531604 132.74684,12.6 90,12.6 C47.2531604,12.6 12.6,47.2531604 12.6,90 C12.6,132.74684 47.2531604,167.4 90,167.4 Z M90,180 C40.2943725,180 0,139.705627 0,90 C0,40.2943725 40.2943725,0 90,0 C139.705627,0 180,40.2943725 180,90 C180,139.705627 139.705627,180 90,180 Z M105.605018,156.000002 L105.605018,158.4 C102.257066,158.170398 99.903158,155.966381 99.4944195,153.088237 L86.9214275,64.2764005 L77.7411989,109.816779 C77.2598223,112.199279 75.4269585,114.080013 73.0590504,114.617387 C70.6871569,115.157008 68.2244185,114.249068 66.7620198,112.301905 L52.302903,93.0159809 L43.6856066,108.820969 C42.6051455,110.804908 40.5280036,112.040489 38.2716929,112.040489 L13.36875,112.040489 C9.95973338,112.040489 7.2,109.272588 7.2,105.860753 C7.2,102.448738 9.95967437,99.6810171 13.36875,99.6810171 L34.6114762,99.6810171 L46.0667247,78.6696063 C47.0709735,76.825209 48.94251,75.6193843 51.0229377,75.4682061 C53.1065211,75.3056331 55.1508105,76.237614 56.4133362,77.9192097 L68.3699526,93.8665511 L81.939173,26.5550442 C82.5355946,23.6043019 85.1592175,21.5104972 88.1646562,21.6029446 C91.1692526,21.6898268 93.671739,23.9332738 94.0924689,26.9120686 L107.71321,123.137754 L120.008614,81.2890656 C120.664579,79.0512606 122.522409,77.3749305 124.809843,76.9549782 C127.099341,76.5291482 129.436921,77.4408091 130.843508,79.301156 L146.253305,99.6810171 L166.63125,99.6810171 C170.040326,99.6810171 172.8,102.448738 172.8,105.860753 C172.8,109.272588 170.040267,112.040489 166.63125,112.040489 L143.188189,112.040489 C141.254951,112.040489 139.434184,111.133398 138.270769,109.59045 L128.394355,96.5280654 L111.52077,153.964609 C110.747836,156.596887 108.335485,158.4 105.605018,158.4 L105.605018,156.000002 Z" id="Combined-Shape" fill="#FFFFFF" fill-rule="nonzero"></path>
            </g>
        </g>
    </g>
</svg>