<?xml version="1.0" encoding="UTF-8"?>
<svg width="976px" height="180px" viewBox="0 0 976 180" version="1.1" xmlns="http://www.w3.org/2000/svg" xmlns:xlink="http://www.w3.org/1999/xlink">
    <!-- Generator: Sketch 49 (51002) - http://www.bohemiancoding.com/sketch -->
    <title>Group 4</title>
    <desc>Created with Sketch.</desc>
    <defs>
        <linearGradient x1="50%" y1="0%" x2="50%" y2="100%" id="linearGradient-1">
            <stop stop-color="#FFFFFF" offset="0%"></stop>
            <stop stop-color="#000000" offset="100%"></stop>
        </linearGradient>
        <linearGradient x1="100%" y1="99.9999642%" x2="0%" y2="99.9999642%" id="linearGradient-2">
            <stop stop-color="#24A300" offset="0%"></stop>
            <stop stop-color="#61C600" offset="15.784275%"></stop>
            <stop stop-color="#FFBE00" offset="49.7297588%"></stop>
            <stop stop-color="#EF5A00" offset="80.5537501%"></stop>
            <stop stop-color="#E00000" offset="100%"></stop>
        </linearGradient>
        <path d="M28.9920117,0 C13.0754344,0 0.172873275,13.1042495 0.172873275,29.2682927 L11.5611009,29.2682927 C11.5611009,19.491667 19.3647411,11.5654663 28.9920117,11.5654663 C38.6188754,11.5654663 46.4904795,19.491667 46.4904795,29.2682927 L57.8111502,29.2682927 C57.8111502,13.1042495 44.9077751,0 28.9920117,0 Z" id="path-3"></path>
    </defs>
    <g id="LOGOS" stroke="none" stroke-width="1" fill="none" fill-rule="evenodd">
        <g id="Artboard-Copy-5" transform="translate(-104.000000, -405.000000)">
            <g id="Group-4" transform="translate(104.000000, 405.000000)">
                <g id="Chaikin-Logo-H3_rev" transform="translate(210.887430, 5.783055)">
                    <g id="Group-5" transform="translate(66.448165, 2.660754)" fill="#313540">
                        <path d="M24.2070665,4.42616408 L20.4350257,8.89844789 C18.7507862,6.84567627 16.2607519,5.56274945 13.9904396,5.56274945 C9.92558389,5.56274945 6.84947684,8.78847007 6.84947684,13.0044346 C6.84947684,17.2931264 9.92558389,20.5560976 13.9904396,20.5560976 C16.150891,20.5560976 18.6409252,19.3831486 20.4350257,17.5498891 L24.2438345,21.5822616 C21.4973103,24.404878 17.4324546,26.2745011 13.6604138,26.2745011 C5.93426412,26.2745011 0.184725899,20.5929047 0.184725899,13.0776053 C0.184725899,5.67272727 6.08045008,0.101108647 13.8801357,0.101108647 C17.6889445,0.101108647 21.6434963,1.78713969 24.2070665,4.42616408" id="Fill-13"></path>
                        <polyline id="Fill-14" points="44.3452904 25.9813747 44.3452904 16.010643 33.7259876 16.010643 33.7259876 25.9813747 27.2078656 25.9813747 27.2078656 0.320620843 33.7259876 0.320620843 33.7259876 10.8780488 44.3452904 10.8780488 44.3452904 0.320620843 50.8638553 0.320620843 50.8638553 25.9813747 44.3452904 25.9813747"></polyline>
                        <path d="M67.4506463,6.80931264 L63.7153734,16.3037694 L71.1123832,16.3037694 L67.4506463,6.80931264 Z M61.811412,21.2523282 L59.9437756,25.9813747 L53.2422567,25.9813747 L64.3014462,0.320620843 L71.0025222,0.320620843 L81.8052219,25.9813747 L74.847656,25.9813747 L73.0167876,21.2523282 L61.811412,21.2523282 Z" id="Fill-15"></path>
                        <polygon id="Fill-16" points="84.1836232 25.9813747 90.7017452 25.9813747 90.7017452 0.320620843 84.1836232 0.320620843"></polygon>
                        <polyline id="Fill-17" points="105.751369 15.9002217 102.346122 19.6762749 102.346122 25.9813747 95.8275566 25.9813747 95.8275566 0.320620843 102.346122 0.320620843 102.346122 11.4283814 112.15963 0.320620843 119.703268 0.320620843 110.182132 10.9512195 120.326109 25.9813747 112.52598 25.9813747 105.751369 15.9002217"></polyline>
                        <polygon id="Fill-18" points="123.180279 25.9813747 129.698401 25.9813747 129.698401 0.320620843 123.180279 0.320620843"></polygon>
                        <polyline id="Fill-19" points="152.731107 25.9813747 140.940102 10.1813747 140.940102 25.9813747 134.824656 25.9813747 134.824656 0.320620843 140.573751 0.320620843 152.401524 16.1569845 152.401524 0.320620843 158.480202 0.320620843 158.480202 25.9813747 152.731107 25.9813747"></polyline>
                        <path d="M176.978929,2.54722838 L170.352718,17.2203991 L183.677347,17.2203991 L176.978929,2.54722838 Z M169.70817,18.7237251 L166.484105,25.8461197 L164.836634,25.8461197 L176.190853,0.828824834 L177.802886,0.828824834 L189.264751,25.8461197 L187.616837,25.8461197 L184.357776,18.7237251 L169.70817,18.7237251 Z" id="Fill-20"></path>
                        <polyline id="Fill-21" points="210.820536 25.8461197 194.1292 3.11929047 194.1292 25.8461197 192.624813 25.8461197 192.624813 0.828824834 194.379931 0.828824834 211.107149 23.5552106 211.107149 0.828824834 212.575653 0.828824834 212.575653 25.8461197 210.820536 25.8461197"></polyline>
                        <path d="M228.812484,2.54722838 L222.186273,17.2203991 L235.510902,17.2203991 L228.812484,2.54722838 Z M221.541283,18.7237251 L218.317661,25.8461197 L216.669746,25.8461197 L228.024409,0.828824834 L229.636441,0.828824834 L241.098307,25.8461197 L239.450835,25.8461197 L236.191331,18.7237251 L221.541283,18.7237251 Z" id="Fill-22"></path>
                        <polyline id="Fill-23" points="258.326544 24.378714 258.326544 25.8461197 245.682787 25.8461197 245.682787 0.828824834 247.187174 0.828824834 247.187174 24.378714 258.326544 24.378714"></polyline>
                        <polyline id="Fill-24" points="270.039141 25.8461197 268.570636 25.8461197 268.570636 16.7552106 258.541393 0.828824834 260.153426 0.828824834 269.286947 14.8944568 278.313266 0.828824834 279.924856 0.828824834 270.039141 16.6838137 270.039141 25.8461197"></polyline>
                        <polyline id="Fill-25" points="292.030825 2.2962306 292.030825 25.8461197 290.526882 25.8461197 290.526882 2.2962306 282.073789 2.2962306 282.073789 0.828824834 300.484361 0.828824834 300.484361 2.2962306 292.030825 2.2962306"></polyline>
                        <polygon id="Fill-26" points="305.677506 25.8461197 307.182336 25.8461197 307.182336 0.828824834 305.677506 0.828824834"></polygon>
                        <path d="M334.869957,4.15742794 L333.974236,5.30288248 C331.897066,3.37028825 329.06726,2.2248337 326.09437,2.2248337 C319.754329,2.2248337 314.632061,7.16363636 314.632061,13.2838137 C314.632061,19.4394678 319.754329,24.4146341 326.09437,24.4146341 C329.06726,24.4146341 331.861184,23.2691796 333.974236,21.3720621 L334.905839,22.4101996 C332.577495,24.5578714 329.389313,25.8815965 326.058488,25.8815965 C318.930371,25.8815965 313.127675,20.2625277 313.127675,13.3197339 C313.127675,6.37649667 318.930371,0.793348115 326.058488,0.793348115 C329.425638,0.793348115 332.541613,2.08159645 334.869957,4.15742794" id="Fill-27"></path>
                        <path d="M354.784472,2.79778271 L354.102271,4.15742794 C352.241722,2.9405765 349.698973,2.33215078 347.550482,2.33215078 C343.572452,2.33215078 340.994263,3.97871397 340.994263,6.59113082 C340.994263,14.2146341 355.714747,10.2776053 355.643868,19.5113082 C355.643868,23.3769401 352.170844,25.8815965 346.939159,25.8815965 C343.607891,25.8815965 340.205745,24.4146341 338.021815,22.2674058 L338.810333,20.9427938 C340.852507,23.0545455 344.037589,24.3432373 346.974598,24.3432373 C351.276009,24.3432373 354.031393,22.4815965 354.031393,19.5467849 C354.102271,11.7090909 339.381788,15.7170732 339.381788,6.69844789 C339.381788,3.08381375 342.677617,0.757427938 347.62136,0.757427938 C350.16411,0.757427938 352.923924,1.5804878 354.784472,2.79778271" id="Fill-28"></path>
                        <polyline id="Fill-29" points="359.905411 0.845676275 359.905411 4.50066519 359.178911 4.50066519 359.178911 0.845676275 357.823368 0.845676275 357.823368 0.193348115 361.269813 0.193348115 361.269813 0.845676275 359.905411 0.845676275"></polyline>
                        <polyline id="Fill-30" points="365.770569 4.50066519 365.766139 1.28248337 364.406167 4.05144124 363.93217 4.05144124 362.572197 1.28248337 362.572197 4.50066519 361.889996 4.50066519 361.889996 0.193348115 362.753822 0.193348115 364.171383 3.05454545 365.584514 0.193348115 366.43948 0.193348115 366.43948 4.50066519 365.770569 4.50066519"></polyline>
                    </g>
                    <g id="Fill-1">
                        <use fill="url(#linearGradient-1)" xlink:href="#path-3"></use>
                        <use fill="url(#linearGradient-2)" xlink:href="#path-3"></use>
                    </g>
                </g>
                <path d="M957.592338,81.8099347 L957.592338,91.9509831 L955.640969,91.9509831 L955.640969,81.8099347 L952,81.8099347 L952,80 L961.257105,80 L961.257105,81.8099347 L957.592338,81.8099347 Z M973.346074,91.9509831 L973.334176,83.0218897 L969.681308,90.7045766 L968.408158,90.7045766 L964.755291,83.0218897 L964.755291,91.9509831 L962.922908,91.9509831 L962.922908,80 L965.243133,80 L969.050682,87.9386125 L972.846333,80 L975.142762,80 L975.142762,91.9509831 L973.346074,91.9509831 Z" id="Combined-Shape" fill="#313540"></path>
                <path d="M227.56084,160.543004 L214.028169,160.543004 C211.799247,160.543004 210.684803,159.427816 210.684803,157.197406 L210.684803,61.4495775 C210.684803,59.2191676 211.799247,58.1039795 214.028169,58.1039795 L252.874896,58.1039795 C261.153748,58.1039795 267.575069,60.3609079 272.139051,64.8748326 C276.703034,69.3887572 278.984991,75.7878132 278.984991,84.0721925 L278.984991,99.3663548 C278.984991,107.650734 276.703034,114.04979 272.139051,118.563715 C267.575069,123.077639 261.153748,125.334568 252.874896,125.334568 L232.814701,125.334568 C231.541031,125.334568 230.904206,125.918714 230.904206,127.087024 L230.904206,157.197406 C230.904206,159.427816 229.789762,160.543004 227.56084,160.543004 Z M232.150576,108.424904 L248.480997,108.424904 C251.767639,108.424904 254.078525,107.700676 255.413723,106.252199 C256.748921,104.803721 257.41651,102.416452 257.41651,99.0903186 L257.41651,85.5712643 C257.41651,82.1378366 256.748921,79.6969206 255.413723,78.2484433 C254.078525,76.7999659 251.767639,76.0757381 248.480997,76.0757381 L232.150576,76.0757381 C231.020793,76.0757381 230.45591,76.6658497 230.45591,77.8460905 L230.45591,106.654551 C230.45591,107.834792 231.020793,108.424904 232.150576,108.424904 Z M330.880959,160.543004 L316.755063,160.543004 C308.395877,160.543004 301.941412,158.322985 297.391475,153.882882 C292.841538,149.442778 290.566604,143.04701 290.566604,134.695386 L290.566604,105.517707 C290.566604,97.1660837 292.841538,90.7703159 297.391475,86.3302122 C301.941412,81.8901084 308.395877,79.6700899 316.755063,79.6700899 L330.880959,79.6700899 C339.134333,79.6700899 345.562345,81.9165372 350.165188,86.4094994 C354.768031,90.9024615 357.069418,97.2718005 357.069418,105.517707 L357.069418,134.695386 C357.069418,142.941293 354.768031,149.310632 350.165188,153.803594 C345.562345,158.296556 339.134333,160.543004 330.880959,160.543004 Z M319.645537,144.368421 L327.830005,144.368421 C331.253591,144.368421 333.68751,143.674997 335.131835,142.288128 C336.57616,140.90126 337.298311,138.500946 337.298311,135.087116 L337.298311,106.923154 C337.298311,103.509323 336.57616,101.10901 335.131835,99.7221411 C333.68751,98.3352725 331.253591,97.6418485 327.830005,97.6418485 L319.645537,97.6418485 C316.221952,97.6418485 313.81478,98.3352725 312.423948,99.7221411 C311.033116,101.10901 310.337711,103.509323 310.337711,106.923154 L310.337711,135.087116 C310.337711,138.500946 311.033116,140.90126 312.423948,142.288128 C313.81478,143.674997 316.221952,144.368421 319.645537,144.368421 Z M402.408659,160.543004 L384.569329,160.543004 C382.587172,160.543004 381.335301,159.432995 380.813681,157.212943 L365.165146,83.000151 C364.74785,80.7800991 365.530269,79.6700899 367.512426,79.6700899 L382.53502,79.6700899 C384.83015,79.6700899 386.08202,80.7800991 386.290668,83.000151 L393.332509,137.232576 L394.584392,137.232576 L405.694852,83.000151 C406.007824,80.7800991 407.207533,79.6700899 409.294015,79.6700899 L423.064725,79.6700899 C425.255531,79.6700899 426.559563,80.7800991 426.976859,83.000151 L437.774348,137.232576 L439.026231,137.232576 L446.224557,83.000151 C446.537529,80.7800991 447.7894,79.6700899 449.980205,79.6700899 L465.002799,79.6700899 C467.089281,79.6700899 467.8717,80.7800991 467.350079,83.000151 L451.701544,157.212943 C451.284248,159.432995 450.032378,160.543004 447.945896,160.543004 L430.106566,160.543004 C428.020084,160.543004 426.768214,159.432995 426.350918,157.212943 L416.805311,103.614815 L415.553429,103.614815 L406.164308,157.212943 C405.851335,159.432995 404.599465,160.543004 402.408659,160.543004 Z M536.154929,160.543004 L501.191842,160.543004 C492.859722,160.543004 486.426157,158.322985 481.890953,153.882882 C477.355748,149.442778 475.08818,143.04701 475.08818,134.695386 L475.08818,105.517707 C475.08818,97.1660837 477.355748,90.7703159 481.890953,86.3302122 C486.426157,81.8901084 492.859722,79.6700899 501.191842,79.6700899 L513.689959,79.6700899 C522.022079,79.6700899 528.455644,81.8901084 532.990848,86.3302122 C537.526053,90.7703159 539.793621,97.1660837 539.793621,105.517707 L539.793621,125.656649 C539.793621,127.876701 538.686204,128.98671 536.471337,128.98671 L496.76213,128.98671 C495.496491,128.98671 494.863682,129.568143 494.863682,130.731028 L494.863682,134.219663 C494.863682,137.496883 495.575593,139.849045 496.999436,141.276221 C498.423279,142.703398 500.822683,143.416975 504.197718,143.416975 L536.154929,143.416975 C538.369796,143.416975 539.477213,144.579842 539.477213,146.905611 L539.477213,157.371517 C539.477213,158.534401 539.239909,159.353694 538.765295,159.829419 C538.290681,160.305145 537.420567,160.543004 536.154929,160.543004 Z M496.611157,115.613607 L518.270644,115.613607 C519.438563,115.613607 520.022514,115.050395 520.022514,113.923955 L520.022514,106.550925 C520.022514,103.274007 519.33239,100.969959 517.952122,99.6387106 C516.571854,98.3074626 514.182964,97.6418485 510.78538,97.6418485 L504.096421,97.6418485 C500.698838,97.6418485 498.309947,98.3074626 496.929679,99.6387106 C495.549411,100.969959 494.859287,103.274007 494.859287,106.550925 L494.859287,113.923955 C494.859287,115.050395 495.443238,115.613607 496.611157,115.613607 Z M571.885027,160.543004 L558.483559,160.543004 C556.276247,160.543004 555.172608,159.432995 555.172608,157.212943 L555.172608,83.000151 C555.172608,80.7800991 556.276247,79.6700899 558.483559,79.6700899 L571.885027,79.6700899 C574.092338,79.6700899 575.195978,80.7800991 575.195978,83.000151 L575.195978,88.3916786 L575.826635,88.3916786 C576.982846,85.5373262 579.032462,83.3701652 581.975544,81.8901306 C584.918626,80.4100961 588.019327,79.6700899 591.277739,79.6700899 L596.953655,79.6700899 C599.055857,79.6700899 600.106942,80.7800991 600.106942,83.000151 L600.106942,93.9417806 C600.106942,95.2103816 599.870448,96.0825318 599.397452,96.5582572 C598.924457,97.0339826 598.109866,97.2189841 596.953655,97.1132674 L586.074816,97.1132674 C578.822221,97.1132674 575.195978,101.236159 575.195978,109.482066 L575.195978,157.212943 C575.195978,159.432995 574.092338,160.543004 571.885027,160.543004 Z M633.767219,160.543004 L620.234548,160.543004 C618.005626,160.543004 616.891182,159.427816 616.891182,157.197406 L616.891182,61.4495775 C616.891182,59.2191676 618.005626,58.1039795 620.234548,58.1039795 L659.081275,58.1039795 C667.360127,58.1039795 673.781448,60.3609079 678.34543,64.8748326 C682.909413,69.3887572 685.19137,75.7878132 685.19137,84.0721925 L685.19137,99.3663548 C685.19137,107.650734 682.909413,114.04979 678.34543,118.563715 C673.781448,123.077639 667.360127,125.334568 659.081275,125.334568 L639.02108,125.334568 C637.74741,125.334568 637.110585,125.918714 637.110585,127.087024 L637.110585,157.197406 C637.110585,159.427816 635.996141,160.543004 633.767219,160.543004 Z M638.356955,108.424904 L654.687376,108.424904 C657.974018,108.424904 660.284904,107.700676 661.620102,106.252199 C662.9553,104.803721 663.622889,102.416452 663.622889,99.0903186 L663.622889,85.5712643 C663.622889,82.1378366 662.9553,79.6969206 661.620102,78.2484433 C660.284904,76.7999659 657.974018,76.0757381 654.687376,76.0757381 L638.356955,76.0757381 C637.227172,76.0757381 636.662289,76.6658497 636.662289,77.8460905 L636.662289,106.654551 C636.662289,107.834792 637.227172,108.424904 638.356955,108.424904 Z M727.639811,160.543004 L722.389589,160.543004 C714.222535,160.543004 708.044306,158.322985 703.854713,153.882882 C699.665121,149.442778 697.570356,143.04701 697.570356,134.695386 L697.570356,83.000151 C697.570356,80.7800991 698.684029,79.6700899 700.911407,79.6700899 L714.434707,79.6700899 C716.662085,79.6700899 717.775757,80.7800991 717.775757,83.000151 L717.775757,133.74394 C717.775757,137.126876 718.491689,139.531897 719.923575,140.959073 C721.355461,142.386249 723.715386,143.099826 727.00342,143.099826 L732.890033,143.099826 C740.208561,143.099826 743.86777,139.08265 743.86777,131.048176 L743.86777,83.000151 C743.86777,80.7800991 744.981443,79.6700899 747.208821,79.6700899 L760.573023,79.6700899 C762.906466,79.6700899 764.073171,80.7800991 764.073171,83.000151 L764.073171,157.212943 C764.073171,159.432995 762.906466,160.543004 760.573023,160.543004 L747.208821,160.543004 C744.981443,160.543004 743.86777,159.432995 743.86777,157.212943 L743.86777,151.979989 L743.23138,151.979989 C742.064658,154.834342 739.996409,156.975074 737.026572,158.40225 C734.056734,159.829426 730.927845,160.543004 727.639811,160.543004 Z M796.7514,160.543004 L783.518769,160.543004 C781.339266,160.543004 780.249531,159.433521 780.249531,157.214522 L780.249531,52.4465823 C780.249531,50.2275831 781.339266,49.1181001 783.518769,49.1181001 L796.7514,49.1181001 C798.930903,49.1181001 800.020638,50.2275831 800.020638,52.4465823 L800.020638,157.214522 C800.020638,159.433521 798.930903,160.543004 796.7514,160.543004 Z M847.30753,160.543004 L817.772314,160.543004 C815.699657,160.543004 814.663344,159.432995 814.663344,157.212943 L814.663344,147.064185 C814.663344,145.901301 814.870606,145.082008 815.285138,144.606283 C815.699669,144.130557 816.52872,143.892698 817.772314,143.892698 L843.732214,143.892698 C848.810224,143.892698 851.349191,142.30697 851.349191,139.135468 L851.349191,138.342596 C851.349191,135.805394 849.22475,133.373945 844.975802,131.048176 L829.5864,122.326588 C824.301125,119.577952 820.414951,116.617927 817.927762,113.446425 C815.440574,110.274922 814.196998,106.204888 814.196998,101.2362 C814.196998,93.8360273 816.114177,88.3916961 819.948593,84.9030431 C823.783009,81.4143902 829.793624,79.6700899 837.98062,79.6700899 L863.94052,79.6700899 C866.013177,79.6700899 867.04949,80.7800991 867.04949,83.000151 L867.04949,93.3074832 C867.04949,94.4703675 866.842228,95.2896601 866.427696,95.7653855 C866.013165,96.2411109 865.184115,96.47897 863.94052,96.47897 L842.333178,96.47897 C837.255168,96.47897 834.716201,97.8004097 834.716201,100.443329 L834.716201,101.2362 C834.716201,103.561969 836.944274,105.94056 841.400487,108.372046 L857.100786,117.886506 C862.489694,120.846575 866.272237,123.885886 868.448527,127.004531 C870.624817,130.123175 871.712946,134.219638 871.712946,139.294042 C871.712946,153.460087 863.577888,160.543004 847.30753,160.543004 Z M944.361308,160.543004 L909.398221,160.543004 C901.066101,160.543004 894.632536,158.322985 890.097332,153.882882 C885.562127,149.442778 883.294559,143.04701 883.294559,134.695386 L883.294559,105.517707 C883.294559,97.1660837 885.562127,90.7703159 890.097332,86.3302122 C894.632536,81.8901084 901.066101,79.6700899 909.398221,79.6700899 L921.896338,79.6700899 C930.228458,79.6700899 936.662023,81.8901084 941.197227,86.3302122 C945.732432,90.7703159 948,97.1660837 948,105.517707 L948,125.656649 C948,127.876701 946.892583,128.98671 944.677716,128.98671 L904.968509,128.98671 C903.70287,128.98671 903.070061,129.568143 903.070061,130.731028 L903.070061,134.219663 C903.070061,137.496883 903.781972,139.849045 905.205815,141.276221 C906.629658,142.703398 909.029062,143.416975 912.404097,143.416975 L944.361308,143.416975 C946.576175,143.416975 947.683592,144.579842 947.683592,146.905611 L947.683592,157.371517 C947.683592,158.534401 947.446288,159.353694 946.971674,159.829419 C946.49706,160.305145 945.626946,160.543004 944.361308,160.543004 Z M904.817536,115.613607 L926.477023,115.613607 C927.644942,115.613607 928.228893,115.050395 928.228893,113.923955 L928.228893,106.550925 C928.228893,103.274007 927.538769,100.969959 926.158501,99.6387106 C924.778233,98.3074626 922.389343,97.6418485 918.991759,97.6418485 L912.3028,97.6418485 C908.905217,97.6418485 906.516326,98.3074626 905.136058,99.6387106 C903.75579,100.969959 903.065666,103.274007 903.065666,106.550925 L903.065666,113.923955 C903.065666,115.050395 903.649617,115.613607 904.817536,115.613607 Z" id="PowerPulse" fill="#313540"></path>
                <path d="M90,167.4 C132.74684,167.4 167.4,132.74684 167.4,90 C167.4,47.2531604 132.74684,12.6 90,12.6 C47.2531604,12.6 12.6,47.2531604 12.6,90 C12.6,132.74684 47.2531604,167.4 90,167.4 Z M90,180 C40.2943725,180 0,139.705627 0,90 C0,40.2943725 40.2943725,0 90,0 C139.705627,0 180,40.2943725 180,90 C180,139.705627 139.705627,180 90,180 Z M105.605018,156.000002 L105.605018,158.4 C102.257066,158.170398 99.903158,155.966381 99.4944195,153.088237 L86.9214275,64.2764005 L77.7411989,109.816779 C77.2598223,112.199279 75.4269585,114.080013 73.0590504,114.617387 C70.6871569,115.157008 68.2244185,114.249068 66.7620198,112.301905 L52.302903,93.0159809 L43.6856066,108.820969 C42.6051455,110.804908 40.5280036,112.040489 38.2716929,112.040489 L13.36875,112.040489 C9.95973338,112.040489 7.2,109.272588 7.2,105.860753 C7.2,102.448738 9.95967437,99.6810171 13.36875,99.6810171 L34.6114762,99.6810171 L46.0667247,78.6696063 C47.0709735,76.825209 48.94251,75.6193843 51.0229377,75.4682061 C53.1065211,75.3056331 55.1508105,76.237614 56.4133362,77.9192097 L68.3699526,93.8665511 L81.939173,26.5550442 C82.5355946,23.6043019 85.1592175,21.5104972 88.1646562,21.6029446 C91.1692526,21.6898268 93.671739,23.9332738 94.0924689,26.9120686 L107.71321,123.137754 L120.008614,81.2890656 C120.664579,79.0512606 122.522409,77.3749305 124.809843,76.9549782 C127.099341,76.5291482 129.436921,77.4408091 130.843508,79.301156 L146.253305,99.6810171 L166.63125,99.6810171 C170.040326,99.6810171 172.8,102.448738 172.8,105.860753 C172.8,109.272588 170.040267,112.040489 166.63125,112.040489 L143.188189,112.040489 C141.254951,112.040489 139.434184,111.133398 138.270769,109.59045 L128.394355,96.5280654 L111.52077,153.964609 C110.747836,156.596887 108.335485,158.4 105.605018,158.4 L105.605018,156.000002 Z" id="Combined-Shape" fill="#1199FF" fill-rule="nonzero"></path>
            </g>
        </g>
    </g>
</svg>