<?xml version="1.0" encoding="UTF-8"?>
<svg width="200px" height="200px" viewBox="0 0 200 200" version="1.1" xmlns="http://www.w3.org/2000/svg" xmlns:xlink="http://www.w3.org/1999/xlink">
    <!-- Generator: Sketch 49 (51002) - http://www.bohemiancoding.com/sketch -->
    <title>Combined Shape</title>
    <desc>Created with Sketch.</desc>
    <defs></defs>
    <g id="LOGOS" stroke="none" stroke-width="1" fill="none" fill-rule="evenodd">
        <g id="Artboard-Copy-4" transform="translate(-231.000000, -818.000000)" fill="#1199FF" fill-rule="nonzero">
            <g id="Group-4" transform="translate(100.000000, 818.000000)">
                <path d="M231,186 C278.496488,186 317,147.496488 317,100 C317,52.5035115 278.496488,14 231,14 C183.503512,14 145,52.5035115 145,100 C145,147.496488 183.503512,186 231,186 Z M231,200 C175.771525,200 131,155.228475 131,100 C131,44.771525 175.771525,0 231,0 C286.228475,0 331,44.771525 331,100 C331,155.228475 286.228475,200 231,200 Z M248.338909,173.333336 L248.338909,176 C244.618962,175.744887 242.003509,173.295979 241.549355,170.098042 L227.579364,71.4182228 L217.37911,122.018643 C216.844247,124.665866 214.807732,126.75557 212.176723,127.352652 C209.541285,127.952231 206.804909,126.943409 205.180022,124.779895 L189.114337,103.35109 L179.539563,120.912188 C178.339051,123.116564 176.031115,124.489432 173.524103,124.489432 L145.854167,124.489432 C142.06637,124.489432 139,121.413986 139,117.623059 C139,113.831931 142.066305,110.756686 145.854167,110.756686 L169.457196,110.756686 L182.18525,87.4106737 C183.301082,85.3613433 185.380567,84.0215381 187.692153,83.8535623 C190.007246,83.6729256 192.278678,84.70846 193.681485,86.5768997 L206.966614,104.296168 L222.043526,29.5056046 C222.706216,26.2270021 225.621353,23.9005524 228.960729,24.0032718 C232.29917,24.0998075 235.07971,26.5925265 235.547188,29.9022984 L250.681345,136.819727 L264.342905,90.321184 C265.071755,87.834734 267.13601,85.972145 269.677604,85.5055313 C272.22149,85.0323869 274.818802,86.0453434 276.381676,88.1123956 L293.503672,110.756686 L316.145833,110.756686 C319.933695,110.756686 323,113.831931 323,117.623059 C323,121.413986 319.93363,124.489432 316.145833,124.489432 L290.097988,124.489432 C287.949945,124.489432 285.926872,123.481554 284.634188,121.767167 L273.660395,107.253406 L254.911966,171.071788 C254.053151,173.996541 251.372761,176 248.338909,176 L248.338909,173.333336 Z" id="Combined-Shape"></path>
            </g>
        </g>
    </g>
</svg>