<?xml version="1.0" encoding="UTF-8"?>
<svg width="918px" height="210px" viewBox="0 0 918 210" version="1.1" xmlns="http://www.w3.org/2000/svg" xmlns:xlink="http://www.w3.org/1999/xlink">
    <!-- Generator: Sketch 48.2 (47327) - http://www.bohemiancoding.com/sketch -->
    <title>Group 4</title>
    <desc>Created with Sketch.</desc>
    <defs>
        <linearGradient x1="100%" y1="0%" x2="0%" y2="100%" id="linearGradient-1">
            <stop stop-color="#FD001F" offset="0%"></stop>
            <stop stop-color="#EA003D" offset="48.7548828%"></stop>
            <stop stop-color="#B70056" offset="100%"></stop>
        </linearGradient>
        <path d="M105,210 C47.0101013,210 0,162.989899 0,105 C0,47.0101013 47.0101013,0 105,0 C162.989899,0 210,47.0101013 210,105 C210,162.989899 162.989899,210 105,210 Z M39.4210404,39.4210404 C56.2034613,22.6379219 79.3889849,12.2586035 104.999302,12.2586035 C130.610318,12.2586035 153.797236,22.6379219 170.579657,39.4210404 C187.362078,56.2027638 197.741396,79.3896824 197.741396,105.000698 C197.741396,130.611015 187.362078,153.796539 170.579657,170.57896 C153.797236,187.362078 130.610318,197.742094 104.999302,197.742094 C93.7214988,197.742094 82.9117725,195.728873 72.9133338,192.042154 C58.2062184,186.617061 59.5818496,177.979604 73.1616729,170.788932 C87.150279,163.381311 110.876428,159.339523 116.663566,151.548233 C116.850518,151.298499 116.932833,151.334075 116.879119,151.636826 C116.208743,155.459573 117.024914,157.732295 119.572482,160.100585 C119.799894,160.316137 120.045442,160.235915 120.128455,159.93177 C123.988872,146.121745 151.378023,155.735816 156.060191,144.321984 C161.320655,143.947382 162.447947,140.188115 162.824641,136.437218 C166.583212,136.063314 175.890347,123.607295 177.768934,114.964955 C180.067466,113.15473 182.040925,110.903634 183.310524,108.822748 C184.271094,107.251096 183.870682,105.220436 182.38553,104.130813 C180.176289,102.508936 176.609554,100.166456 172.922834,98.247409 C163.249469,93.2101714 152.159314,93.224123 143.899249,85.4767805 C141.058697,82.8106232 140.991729,80.1716715 138.155361,74.8749336 C137.073412,72.8547369 136.126096,71.2928514 135.397821,70.3085636 C133.142539,67.2524581 125.628189,59.0384334 111.350086,56.0262756 C106.519333,49.6713061 98.9980069,42.3899482 91.6134069,39.6275246 C83.0715187,36.4326003 71.485384,41.5891244 74.515679,51.2150545 C74.7033285,51.8031159 74.5421871,51.9105434 74.0001661,51.5987244 C68.578561,48.5335504 48.6653933,47.3748671 49.5882939,39.0708544 C44.8028833,41.8053747 46.7400678,48.0794247 49.6036407,50.8146426 C50.0535809,51.2415626 50.0159115,51.3217845 49.4215719,51.1348326 C43.0979936,49.174628 36.9641576,48.4233324 31.1819027,48.85095 C33.7155195,45.5241828 36.4688746,42.3725086 39.4210404,39.4210404 Z M122.726715,89.6130744 C116.663095,87.9316903 114.544104,81.3047666 110.809002,78.0269602 C112.765035,78.0451848 115.430638,78.9974293 118.213449,79.9546303 C122.584495,81.4577486 127.247282,82.9701913 129.916276,80.8874325 C130.513189,80.1510079 132.959934,83.7179893 132.072517,86.6858557 C131.285556,89.3178836 128.926947,90.2673741 126.133526,90.1698257 C125.041451,90.1316896 123.883806,89.9332475 122.726715,89.6130744 Z M73.2083573,139.637527 C69.978753,134.510782 71.3192377,127.688801 73.4617696,124.752767 C73.6504266,124.492657 73.8355144,124.580769 73.8604987,124.921143 C74.6008501,133.287484 83.6064185,147.106461 98.4267023,143.289917 C98.6005727,143.250086 98.6974506,143.288107 98.7,143.381046 C98.6979605,143.446828 98.6637982,143.522869 98.5924145,143.613394 C93.1402266,150.4915 82.5162868,154.165617 71.8510465,154.175877 C66.4401592,154.173463 61.085359,153.250106 56.3674039,151.347869 C45.1050895,146.810141 32.9632256,134.964011 32.9,116.236757 L32.9,115.950094 C32.9096878,112.869219 33.2457012,109.60488 33.9646375,106.157076 C35.0756744,114.993544 39.1491364,126.63026 47.4153732,130.930811 C47.6784733,131.070823 47.7427187,130.959176 47.5642593,130.688203 C40.1321924,119.373155 41.4482026,87.4738778 63.5353509,82.6223296 C51.6484289,90.6283799 44.75174,131.271186 73.2083573,139.637527 Z" id="path-2"></path>
    </defs>
    <g id="MTB--Dark" stroke="none" stroke-width="1" fill="none" fill-rule="evenodd" transform="translate(-157.000000, -94.000000)">
        <g id="Group-4" transform="translate(157.000000, 94.000000)">
            <g id="logo__MTB" transform="translate(240.000000, 15.000000)" fill="#FFFFFF">
                <path d="M80.5901716,78.6648287 L64.1367815,78.6648287 L64.0319829,28.1104543 L46.4258075,70.8872326 L34.2691627,70.8872326 L16.6629874,28.1104543 L16.6629874,78.6648287 L-5.68434189e-14,78.6648287 L-5.68434189e-14,0.777759606 L20.4357392,0.777759606 L40.3474851,47.1100104 L60.259231,0.777759606 L80.5901716,0.777759606 L80.5901716,78.6648287 Z M144.098161,64.3318303 L112.02977,64.3318303 L106.685039,78.6648287 L87.5068833,78.6648287 L119.156079,0.888868121 L138.334235,0.888868121 L169.24984,78.6648287 L149.338094,78.6648287 L144.098161,64.3318303 Z M138.648631,49.3321807 L128.168764,20.5550753 L117.479301,49.3321807 L138.648631,49.3321807 Z M206.244899,0 C216.829564,0 227.623826,3.44436397 235.16933,8.66646418 L228.147819,24.1105478 C220.392718,19.3328816 210.646443,15.9996262 204.672919,15.9996262 C199.852181,15.9996262 196.603422,17.8884709 196.603422,21.6661604 C196.603422,35.1102908 235.378927,27.4438032 235.378927,55.5542576 C235.378927,71.1094497 222.383893,79.3314798 206.035302,79.3314798 C193.773858,79.3314798 181.198019,74.4427051 172.49973,66.8873261 L179.730837,51.6654595 C187.276341,58.665296 198.594597,63.3318536 206.244899,63.3318536 C212.113624,63.3318536 215.781577,60.9985748 215.781577,56.5542342 C215.781577,42.7767783 177.006072,50.9988084 177.006072,23.4438967 C177.006072,9.11089824 188.638724,0 206.244899,0 Z M303.918383,16.7773858 L281.805866,16.7773858 L281.805866,78.6648287 L263.151704,78.6648287 L263.151704,16.7773858 L241.248783,16.7773858 L241.248783,0.777759606 L303.918383,0.777759606 L303.918383,16.7773858 Z M371.61945,16.4440602 L332.843945,16.4440602 L332.843945,31.8881438 L367.846699,31.8881438 L367.846699,47.443336 L332.843945,47.443336 L332.843945,63.1096366 L372.772236,63.1096366 L372.772236,78.6648287 L314.189783,78.6648287 L314.189783,0.888868121 L371.61945,0.888868121 L371.61945,16.4440602 Z M426.742416,78.6648287 L415.843355,56.7764512 L401.171542,56.7764512 L401.171542,78.6648287 L382.51738,78.6648287 L382.51738,0.888868121 L415.319362,0.888868121 C434.707114,0.888868121 445.815773,10.6664175 445.815773,27.9993458 C445.815773,39.8879569 441.099833,48.4433126 432.506342,52.9987617 L447.911746,78.6648287 L426.742416,78.6648287 Z M401.171542,41.2212591 L415.319362,41.2212591 C423.388859,41.2212591 428.104799,36.888027 428.104799,28.6659969 C428.104799,20.5550753 423.388859,16.4440602 415.319362,16.4440602 L401.171542,16.4440602 L401.171542,41.2212591 Z M479.352476,78.6648287 L460.698314,78.6648287 L460.698314,0.888868121 L479.352476,0.888868121 L479.352476,78.6648287 Z M561.724224,78.6648287 L545.270834,78.6648287 L511.525665,30.7770587 L511.525665,78.6648287 L494.024288,78.6648287 L494.024288,0.888868121 L510.477678,0.888868121 L544.327646,48.8877467 L544.327646,0.888868121 L561.724224,0.888868121 L561.724224,78.6648287 Z M625.127415,39.1101973 L641.266409,39.1101973 L641.266409,69.442822 C633.40651,75.3315733 621.040267,79.5536968 610.769999,79.5536968 C588.447883,79.5536968 571.575299,62.4429855 571.575299,39.7768484 C571.575299,17.2218198 588.867078,0.22221703 612.027582,0.22221703 C622.926643,0.22221703 634.454496,4.66655764 642,11.7775026 L631.520134,25.2216329 C626.175402,19.9995327 618.734697,16.7773858 611.922784,16.7773858 C599.870938,16.7773858 590.648655,26.7771521 590.648655,39.7768484 C590.648655,52.9987617 599.975736,62.9985281 612.132381,62.9985281 C615.905133,62.9985281 620.725871,61.5541174 625.127415,59.2208386 L625.127415,39.1101973 Z M59.974239,108.8 L34.3986324,108.8 L34.3986324,180 L25.4639227,180 L25.4639227,108.8 L0,108.8 L0,100 L59.974239,100 L59.974239,108.8 Z M139.939891,180 L130.871621,180 L130.871621,144.8 L83.0364979,144.8 L83.0364979,180 L73.9682281,180 L73.9682281,100 L83.0364979,100 L83.0364979,136.114286 L130.871621,136.114286 L130.871621,100 L139.939891,100 L139.939891,180 Z M210.417815,108.8 L165.109408,108.8 L165.109408,135.085714 L205.600212,135.085714 L205.600212,143.885714 L165.109408,143.885714 L165.109408,171.314286 L211.908978,171.314286 L211.908978,180 L155.933021,180 L155.933021,100 L210.417815,100 L210.417815,108.8 Z M263.886651,100 L297.006483,100 C312.83664,100 322.379643,107.428571 322.379643,120 C322.379643,129.371429 317.102924,136.114286 307.896733,138.057143 C319.236065,139.771429 325.860032,147.314286 325.860032,158.285714 C325.860032,171.885714 315.306594,180 297.567836,180 L263.886651,180 L263.886651,100 Z M273.882358,108 L273.882358,134 L297.316736,134 C307.756697,134 313.865184,129.262222 313.865184,120.826667 C313.865184,112.622222 307.756697,108 297.316736,108 L273.882358,108 Z M273.882358,144 L273.882358,172 L297.616409,172 C310.439545,172 317.863467,166.878049 317.863467,157.772358 C317.863467,149.121951 310.439545,144 297.616409,144 L273.882358,144 Z M394.338814,108.8 L349.030407,108.8 L349.030407,135.085714 L389.521212,135.085714 L389.521212,143.885714 L349.030407,143.885714 L349.030407,171.314286 L395.829977,171.314286 L395.829977,180 L339.854021,180 L339.854021,100 L394.338814,100 L394.338814,108.8 Z M465.208627,159.771429 L422.184854,159.771429 L413.399895,180 L403.826542,180 L439.191633,100 L448.539731,100 L483.792194,180 L473.993586,180 L465.208627,159.771429 Z M461.80164,150 L443.694768,110 L425.817097,150 L461.80164,150 Z M543.489685,180 L527.121488,154.514286 C525.428226,154.628571 523.622081,154.742857 521.815935,154.742857 L500.819489,154.742857 L500.819489,180 L491.788759,180 L491.788759,100 L521.815935,100 C541.570655,100 552.971951,109.828571 552.971951,126.857143 C552.971951,140.114286 546.65044,149.028571 535.249145,152.8 L553.76214,180 L543.489685,180 Z M500.784895,146 L500.784895,108 L522.032911,108 C536.540965,108 544.766004,114.313846 544.766004,126.707692 C544.766004,139.452308 536.540965,146 522.032911,146 L500.784895,146 Z M655.047986,2.27169772 L655.047986,15 L652.588689,15 L652.588689,2.27169772 L648,2.27169772 L648,0 L659.666667,0 L659.666667,2.27169772 L655.047986,2.27169772 Z M675.549497,15 L675.533268,3.79285494 L670.55112,13.4356018 L668.814671,13.4356018 L663.832522,3.79285494 L663.832522,15 L661.333333,15 L661.333333,0 L664.49789,0 L669.691009,9.96396582 L674.8679,0 L678,0 L678,15 L675.549497,15 Z" id="Mastering-The-Bear"></path>
            </g>
            <mask id="mask-3" fill="white">
                <use xlink:href="#path-2"></use>
            </mask>
            <use id="Clip-2" fill="url(#linearGradient-1)" xlink:href="#path-2"></use>
        </g>
    </g>
</svg>