<?xml version="1.0" encoding="UTF-8"?>
<svg width="59px" height="53px" viewBox="0 0 59 53" version="1.1" xmlns="http://www.w3.org/2000/svg" xmlns:xlink="http://www.w3.org/1999/xlink">
    <!-- Generator: Sketch 40.3 (33839) - http://www.bohemiancoding.com/sketch -->
    <title>logo_none</title>
    <desc>Created with Sketch.</desc>
    <defs></defs>
    <g id="Page-1" stroke="none" stroke-width="1" fill="none" fill-rule="evenodd">
        <g id="Discovery-1024x768_v14.3" transform="translate(-565.000000, -522.000000)" fill="#DADADA">
            <g id="STOCKS-LIKE" transform="translate(61.000000, 463.000000)">
                <g id="Group-6" transform="translate(0.000000, 38.000000)">
                    <g transform="translate(-114.000000, 6.000000)" id="Group-3">
                        <g transform="translate(563.000000, 0.000000)">
                            <g id="logo_none" transform="translate(55.000000, 15.000000)">
                                <path d="M34.221475,22.5978348 L34.221475,0.00032790404 L23.3163083,5.1369447 L23.3163083,19.4942231 L34.221475,22.5978348 Z M45.5511139,12.2901713 L45.5511139,13.6837635 C46.050975,13.846076 46.5426417,14.0083885 47.0310306,14.1657824 L47.0310306,12.7951436 C46.5426417,12.6279125 46.050975,12.4590419 45.5511139,12.2901713 L45.5511139,12.2901713 Z M43.041975,11.4310628 L43.041975,12.8640034 C43.5664194,13.036153 44.089225,13.2050236 44.6021972,13.3755337 L44.6021972,11.9671859 C44.089225,11.7901177 43.5664194,11.6130495 43.041975,11.4310628 L43.041975,11.4310628 Z M40.3918917,10.5293266 L40.3918917,11.9999763 C40.947475,12.1803235 41.4948639,12.3606707 42.0406139,12.5377389 L42.0406139,11.0900426 C41.4948639,10.9047768 40.947475,10.7178715 40.3918917,10.5293266 L40.3918917,10.5293266 Z M47.9324194,13.1033734 L47.9324194,14.4641751 C48.4044194,14.6199295 48.8731417,14.7724049 49.340225,14.9232408 L49.340225,13.5837528 C48.8731417,13.4247193 48.4044194,13.2656859 47.9324194,13.1033734 L47.9324194,13.1033734 Z M45.5511139,14.8051953 L45.5511139,16.1987875 C46.050975,16.3479838 46.5426417,16.4955407 47.0310306,16.641458 L47.0310306,15.2708191 C46.5426417,15.1183437 46.050975,14.9625893 45.5511139,14.8051953 L45.5511139,14.8051953 Z M43.041975,14.0165861 L43.041975,15.4478872 C43.5664194,15.6052812 44.089225,15.7610356 44.6021972,15.9151505 L44.6021972,14.5068027 C44.089225,14.3461297 43.5664194,14.1805381 43.041975,14.0165861 L43.041975,14.0165861 Z M40.3918917,13.1837098 L40.3918917,14.6543595 C40.947475,14.8215905 41.4948639,14.9855426 42.0406139,15.1478551 L42.0406139,13.7017982 C41.4948639,13.5312881 40.947475,13.357499 40.3918917,13.1837098 L40.3918917,13.1837098 Z M47.9324194,15.5528165 L47.9324194,16.9103393 C48.4044194,17.0529775 48.8731417,17.1923367 49.340225,17.331696 L49.340225,15.995487 C48.8731417,15.8495697 48.4044194,15.7020129 47.9324194,15.5528165 L47.9324194,15.5528165 Z M45.5511139,17.3202193 L45.5511139,18.7138115 C46.050975,18.8498917 46.5426417,18.9843323 47.0310306,19.1171335 L47.0310306,17.7448551 C46.5426417,17.6054958 46.050975,17.4628576 45.5511139,17.3202193 L45.5511139,17.3202193 Z M43.041975,16.5988304 L43.041975,18.0317711 C43.5664194,18.1744093 44.089225,18.3170476 44.6021972,18.4564068 L44.6021972,17.048059 C44.089225,16.8988626 43.5664194,16.7513058 43.041975,16.5988304 L43.041975,16.5988304 Z M40.3918917,15.8397326 L40.3918917,17.3103822 C40.947475,17.4612181 41.4948639,17.6120539 42.0406139,17.7596107 L42.0406139,16.3119144 C41.4948639,16.15616 40.947475,15.998766 40.3918917,15.8397326 L40.3918917,15.8397326 Z M47.9324194,18.0038992 L47.9324194,19.361422 C48.4044194,19.4893045 48.8731417,19.6188266 49.340225,19.7450697 L49.340225,18.4072212 C48.8731417,18.2744201 48.4044194,18.1383399 47.9324194,18.0038992 L47.9324194,18.0038992 Z M45.5511139,19.8319643 L45.5511139,21.2288355 C46.050975,21.35016 46.5426417,21.4714845 47.0310306,21.592809 L47.0310306,20.2172515 C46.5426417,20.0893689 46.050975,19.9631259 45.5511139,19.8319643 L45.5511139,19.8319643 Z M43.041975,19.1794352 L43.041975,20.6140154 C43.5664194,20.7435375 44.089225,20.8714201 44.6021972,20.9960236 L44.6021972,19.5843967 C44.089225,19.4515956 43.5664194,19.3155154 43.041975,19.1794352 L43.041975,19.1794352 Z M40.3918917,18.4908367 L40.3918917,19.9664049 C40.947475,20.1041246 41.4948639,20.2369258 42.0406139,20.3697269 L42.0406139,18.9187515 C41.4948639,18.7793923 40.947475,18.6351145 40.3918917,18.4908367 L40.3918917,18.4908367 Z M47.9324194,20.4500634 L47.9324194,21.8108652 C48.4060583,21.9272711 48.8731417,22.0420375 49.340225,22.1551644 L49.340225,20.8156764 C48.8731417,20.6959914 48.4060583,20.5746669 47.9324194,20.4500634 L47.9324194,20.4500634 Z M45.5511139,22.3469883 L45.5511139,23.7405804 C46.050975,23.8504283 46.5442806,23.9569971 47.0310306,24.0635659 L47.0310306,22.6912875 C46.5426417,22.5765211 46.050975,22.4633942 45.5511139,22.3469883 L45.5511139,22.3469883 Z M43.041975,21.7633191 L43.041975,23.1946202 C43.5664194,23.3093866 44.089225,23.4225135 44.6021972,23.5340009 L44.6021972,22.1272926 C44.089225,22.0076076 43.5664194,21.8846436 43.041975,21.7633191 L43.041975,21.7633191 Z M40.3918917,21.1452199 L40.3918917,22.6191486 C40.947475,22.7388336 41.4948639,22.8585186 42.0406139,22.976564 L42.0406139,21.5305072 C41.4948639,21.4026246 40.947475,21.274742 40.3918917,21.1452199 L40.3918917,21.1452199 Z M47.9324194,22.9011461 L47.9324194,24.2586688 C48.4060583,24.3619586 48.8731417,24.4636088 49.340225,24.5652591 L49.340225,23.2290501 C48.8731417,23.1192023 48.4060583,23.0109939 47.9324194,22.9011461 L47.9324194,22.9011461 Z M45.5511139,24.8620122 L45.5511139,26.2556044 C46.050975,26.3506966 46.5442806,26.4457888 47.0310306,26.5376019 L47.0310306,25.1653235 C46.5442806,25.0669523 46.050975,24.9636625 45.5511139,24.8620122 L45.5511139,24.8620122 Z M43.041975,24.3455634 L43.041975,25.7768645 C43.5664194,25.8785148 44.089225,25.9785255 44.6021972,26.0752572 L44.6021972,24.6685489 C44.089225,24.5603405 43.5664194,24.4554112 43.041975,24.3455634 L43.041975,24.3455634 Z M40.3918917,23.8012427 L40.3918917,25.2735318 C40.947475,25.3784611 41.4948639,25.4850299 42.0406139,25.5866802 L42.0406139,24.1406234 C41.4948639,24.029136 40.947475,23.9176486 40.3918917,23.8012427 L40.3918917,23.8012427 Z M47.9324194,25.3522288 L47.9324194,26.7097515 C48.4060583,26.7999251 48.8731417,26.8884592 49.340225,26.9769933 L49.340225,25.6391448 C48.8731417,25.5440527 48.4060583,25.447321 47.9324194,25.3522288 L47.9324194,25.3522288 Z M45.5511139,27.3770362 L45.5511139,28.7722679 C46.050975,28.8509649 46.5442806,28.9329409 47.0310306,29.0116379 L47.0310306,27.640999 C46.5442806,27.5524649 46.050975,27.4655703 45.5511139,27.3770362 L45.5511139,27.3770362 Z M43.041975,26.9310867 L43.041975,28.3623879 C43.5664194,28.4476429 44.089225,28.5312585 44.6021972,28.6165135 L44.6021972,27.2081657 C44.089225,27.1163525 43.5664194,27.0228999 43.041975,26.9310867 L43.041975,26.9310867 Z M40.3918917,26.4572654 L40.3918917,27.9295545 C40.947475,28.0197282 41.4948639,28.1099018 42.0406139,28.1984359 L42.0406139,26.7507395 C41.4948639,26.6556473 40.947475,26.5572761 40.3918917,26.4572654 L40.3918917,26.4572654 Z M47.9324194,27.801672 L47.9324194,29.1591947 C48.4060583,29.2362521 48.8731417,29.3133096 49.340225,29.390367 L49.340225,28.050879 C48.8731417,27.968903 48.4060583,27.886927 47.9324194,27.801672 L47.9324194,27.801672 Z M45.5511139,29.8887812 L45.5511139,31.2872919 C46.050975,31.3545122 46.5442806,31.4217326 47.0310306,31.4873134 L47.0310306,30.1117559 C46.5442806,30.0379775 46.050975,29.9641991 45.5511139,29.8887812 L45.5511139,29.8887812 Z M43.041975,29.510052 L43.041975,30.9446322 C43.5664194,31.0167711 44.089225,31.0872705 44.6021972,31.1577698 L44.6021972,29.7445034 C44.089225,29.667446 43.5664194,29.5903885 43.041975,29.510052 L43.041975,29.510052 Z M40.3918917,29.1100091 L40.3918917,30.5839378 C40.947475,30.6593557 41.4948639,30.7347736 42.0406139,30.808552 L42.0406139,29.3575766 C41.4948639,29.2756006 40.947475,29.1919851 40.3918917,29.1100091 L40.3918917,29.1100091 Z M47.9324194,30.2478361 L47.9324194,31.6086379 C48.4060583,31.6742187 48.8731417,31.73816 49.340225,31.8004617 L49.340225,30.4609737 C48.8731417,30.3904744 48.4060583,30.319975 47.9324194,30.2478361 L47.9324194,30.2478361 Z M45.5511139,32.4038052 L45.5511139,33.7973973 C46.050975,33.8515015 46.5442806,33.9039662 47.0310306,33.9597098 L47.0310306,32.5874314 C46.5442806,32.5267692 46.050975,32.4661069 45.5511139,32.4038052 L45.5511139,32.4038052 Z M43.041975,32.0922963 L43.041975,33.525237 C43.5664194,33.5809807 44.089225,33.6383639 44.6021972,33.6957471 L44.6021972,32.2857597 C44.089225,32.2218184 43.5664194,32.1578771 43.041975,32.0922963 L43.041975,32.0922963 Z M40.3918917,31.7643923 L40.3918917,33.2366814 C40.947475,33.2957042 41.4948639,33.3563664 42.0406139,33.4153891 L42.0406139,31.9693323 C41.4948639,31.902112 40.947475,31.8348917 40.3918917,31.7643923 L40.3918917,31.7643923 Z M47.9324194,32.6989188 L47.9324194,34.0564415 C48.4060583,34.1072667 48.8731417,34.1597313 49.340225,34.2089169 L49.340225,32.872708 C48.8731417,32.8153247 48.4060583,32.756302 47.9324194,32.6989188 L47.9324194,32.6989188 Z M45.5511139,34.9204687 L45.5511139,36.3124213 C46.050975,36.3550489 46.5442806,36.3927578 47.0310306,36.4321063 L47.0310306,35.0631069 C46.5442806,35.0139213 46.050975,34.9663753 45.5511139,34.9204687 L45.5511139,34.9204687 Z M43.041975,34.6761802 L43.041975,36.1074813 C43.5664194,36.1517484 44.089225,36.1927364 44.6021972,36.2353639 L44.6021972,34.827016 C44.089225,34.7778304 43.5664194,34.7270053 43.041975,34.6761802 L43.041975,34.6761802 Z M40.3918917,34.420415 L40.3918917,35.8910646 C40.947475,35.9386107 41.4948639,35.9812383 42.0406139,36.0255053 L42.0406139,34.5794485 C41.4948639,34.5269838 40.947475,34.4745192 40.3918917,34.420415 L40.3918917,34.420415 Z M47.9324194,35.148362 L47.9324194,36.5058847 C48.4060583,36.5452332 48.8731417,36.5829422 49.340225,36.6222907 L49.340225,35.2844422 C48.8731417,35.2401751 48.4060583,35.1959081 47.9324194,35.148362 L47.9324194,35.148362 Z M45.5511139,37.4338532 L45.5511139,38.8274453 C46.050975,38.8553172 46.5442806,38.8815495 47.0310306,38.9077818 L47.0310306,37.5371429 C46.5442806,37.502713 46.050975,37.4682831 45.5511139,37.4338532 L45.5511139,37.4338532 Z M43.041975,37.2584245 L43.041975,38.6913652 C43.5664194,38.7208765 44.089225,38.7487484 44.6021972,38.7766202 L44.6021972,37.3682723 C44.089225,37.3322029 43.5664194,37.2961335 43.041975,37.2584245 L43.041975,37.2584245 Z M40.3918917,37.0747982 L40.3918917,38.5487269 C40.947475,38.5765987 41.4948639,38.6077496 42.0406139,38.6356215 L42.0406139,37.1895646 C41.4948639,37.1518557 40.947475,37.1141467 40.3918917,37.0747982 L40.3918917,37.0747982 Z M47.9324194,37.5978052 L47.9324194,38.9586069 C48.4060583,38.9831997 48.8731417,39.0094321 49.340225,39.0340249 L49.340225,37.6961764 C48.8731417,37.663386 48.4060583,37.6322351 47.9324194,37.5978052 L47.9324194,37.5978052 Z M45.5511139,39.9455981 L45.5511139,41.3441088 C46.050975,41.3555855 46.5442806,41.3687016 47.0310306,41.3834573 L47.0310306,40.0078999 C46.5442806,39.9865861 46.050975,39.9669119 45.5511139,39.9455981 L45.5511139,39.9455981 Z M43.041975,39.8406688 L43.041975,41.275249 C43.5664194,41.2883652 44.089225,41.3031208 44.6021972,41.3178765 L44.6021972,39.9062496 C44.089225,39.8832963 43.5664194,39.8619826 43.041975,39.8406688 L43.041975,39.8406688 Z M40.3918917,39.7275419 L40.3918917,41.2031101 C40.947475,41.2178658 41.4948639,41.2326215 42.0406139,41.2473771 L42.0406139,39.7964018 C41.4948639,39.775088 40.947475,39.7504952 40.3918917,39.7275419 L40.3918917,39.7275419 Z M47.9324194,40.0472484 L47.9324194,41.4080501 C48.4060583,41.4195268 48.8731417,41.4326429 49.340225,41.4457591 L49.340225,40.1062711 C48.8731417,40.0865968 48.4060583,40.0652831 47.9324194,40.0472484 L47.9324194,40.0472484 Z M45.5511139,42.4606221 L45.5511139,43.8509352 L47.0310306,43.8509352 L47.0310306,42.4835754 C46.5442806,42.4753778 46.050975,42.4688197 45.5511139,42.4606221 L45.5511139,42.4606221 Z M43.041975,42.4229131 L43.041975,43.8509352 L44.6021972,43.8509352 L44.6021972,42.4458664 C44.089225,42.4393083 43.5664194,42.4311107 43.041975,42.4229131 L43.041975,42.4229131 Z M40.3918917,42.3819251 L40.3918917,43.8509352 L42.0406139,43.8509352 L42.0406139,42.4081574 C41.4948639,42.3999598 40.947475,42.3917622 40.3918917,42.3819251 L40.3918917,42.3819251 Z M47.9324194,42.4966915 L47.9324194,43.8509352 L49.340225,43.8509352 L49.340225,42.5163658 C48.8731417,42.5098077 48.4060583,42.5048891 47.9324194,42.4966915 L47.9324194,42.4966915 Z M37.5910306,42.3409371 L37.5910306,43.8509352 L39.3315306,43.8509352 L39.3315306,42.3671694 C38.7579194,42.3589718 38.1761139,42.3507742 37.5910306,42.3409371 L37.5910306,42.3409371 Z M37.5910306,39.6094965 L37.5910306,41.1276922 C38.1761139,41.1440874 38.7595583,41.1588431 39.3315306,41.1735987 L39.3315306,39.6832749 C38.7595583,39.6586821 38.1761139,39.6340893 37.5910306,39.6094965 L37.5910306,39.6094965 Z M37.5910306,36.8813348 L37.5910306,38.3962515 C38.1761139,38.4257629 38.7595583,38.4585533 39.3315306,38.4897042 L39.3315306,37.0026593 C38.7595583,36.9633109 38.1761139,36.9223229 37.5910306,36.8813348 L37.5910306,36.8813348 Z M37.5910306,34.1498942 L37.5910306,35.6631713 C38.1761139,35.7107174 38.7595583,35.7582635 39.3315306,35.8058096 L39.3315306,34.3171253 C38.7595583,34.2630211 38.1761139,34.2056379 37.5910306,34.1498942 L37.5910306,34.1498942 Z M37.5910306,31.4184535 L37.5910306,32.9317307 C38.1761139,32.995672 38.7595583,33.0596133 39.3315306,33.121915 L39.3315306,31.6348702 C38.7595583,31.5627313 38.1777528,31.4905924 37.5910306,31.4184535 L37.5910306,31.4184535 Z M37.5910306,28.6870129 L37.5910306,30.2035691 C38.1777528,30.282266 38.7595583,30.3626025 39.3315306,30.43966 L39.3315306,28.9493361 C38.7595583,28.8624415 38.1777528,28.775547 37.5910306,28.6870129 L37.5910306,28.6870129 Z M37.5910306,25.9588513 L37.5910306,27.4721284 C38.1777528,27.5672206 38.7595583,27.6639523 39.3315306,27.7557654 L39.3315306,26.2687206 C38.7595583,26.1670703 38.1777528,26.062141 37.5910306,25.9588513 L37.5910306,25.9588513 Z M37.5910306,23.2274106 L37.5910306,24.7406878 C38.1777528,24.8521751 38.7595583,24.962023 39.3315306,25.0735104 L39.3315306,23.584826 C38.7595583,23.4667806 38.1777528,23.3470956 37.5910306,23.2274106 L37.5910306,23.2274106 Z M37.5910306,20.4943304 L37.5910306,22.0092471 C38.1777528,22.1371297 38.7595583,22.2633727 39.3315306,22.3879763 L39.3315306,20.9009314 C38.7595583,20.7664908 38.1777528,20.6320501 37.5910306,20.4943304 L37.5910306,20.4943304 Z M37.5910306,17.7628898 L37.5910306,19.2810855 C38.1777528,19.4237237 38.7595583,19.566362 39.3315306,19.7073607 L39.3315306,18.2153973 C38.7595583,18.066201 38.1777528,17.9170047 37.5910306,17.7628898 L37.5910306,17.7628898 Z M37.5910306,15.0363677 L37.5910306,16.5496448 C38.1777528,16.7086783 38.7595583,16.8677117 39.3315306,17.0234662 L39.3315306,15.5347818 C38.7595583,15.3708298 38.1777528,15.2035987 37.5910306,15.0363677 L37.5910306,15.0363677 Z M37.5910306,12.3032875 L37.5910306,13.8182042 C38.1777528,13.9936328 38.7595583,14.1657824 39.3315306,14.3395716 L39.3315306,12.8508872 C38.7595583,12.67054 38.1777528,12.4885533 37.5910306,12.3032875 L37.5910306,12.3032875 Z M45.5511139,9.77186831 L45.5511139,11.1720186 C46.050975,11.3490867 46.5426417,11.5228759 47.0310306,11.696665 L47.0310306,10.3178285 C46.5426417,10.1358418 46.050975,9.95549457 45.5511139,9.77186831 L45.5511139,9.77186831 Z M43.041975,8.84553939 L43.041975,10.2850381 C43.5664194,10.4719434 44.089225,10.6555697 44.6021972,10.8359169 L44.6021972,9.42265051 C44.089225,9.23246616 43.5664194,9.03900278 43.041975,8.84553939 L43.041975,8.84553939 Z M40.3918917,7.87002487 L40.3918917,9.3488721 C40.947475,9.543975 41.4948639,9.73743838 42.0406139,9.93090177 L42.0406139,8.47828687 C41.4948639,8.27662588 40.947475,8.0749649 40.3918917,7.87002487 L40.3918917,7.87002487 Z M47.9324194,10.6572092 L47.9324194,12.0147319 C48.4044194,12.1803235 48.8731417,12.345915 49.340225,12.5115066 L49.340225,11.1736581 C48.8731417,11.003148 48.4044194,10.8293588 47.9324194,10.6572092 L47.9324194,10.6572092 Z M37.5910306,6.84368523 L37.5910306,8.35696237 C38.1777528,8.56518144 38.7579194,8.77012146 39.3315306,8.97342197 L39.3315306,7.48637715 C38.7579194,7.27323952 38.1777528,7.06010189 37.5910306,6.84368523 L37.5910306,6.84368523 Z M25.4239194,24.9866158 L25.4239194,26.3654523 C25.9500028,26.4867768 26.4695306,26.6064617 26.9808639,26.7277862 L26.9808639,25.3768216 C26.4695306,25.248939 25.9500028,25.1194169 25.4239194,24.9866158 L25.4239194,24.9866158 Z M22.7476139,24.3176915 L22.7476139,25.7440741 C23.3130306,25.8752357 23.8686139,26.0047578 24.4192806,26.1310009 L24.4192806,24.7357692 C23.8686139,24.599689 23.3130306,24.4586903 22.7476139,24.3176915 L22.7476139,24.3176915 Z M30.2570028,26.1982212 L30.2570028,27.4868841 C30.7175306,27.5950924 31.1747806,27.6983822 31.6271139,27.804951 L31.6271139,26.5392414 C31.1747806,26.4261145 30.7175306,26.3129876 30.2570028,26.1982212 L30.2570028,26.1982212 Z M27.9199472,28.0164491 L27.9199472,29.349379 C28.4132528,29.4477503 28.896725,29.5428424 29.3785583,29.6395741 L29.3785583,28.3328765 C28.896725,28.2295867 28.4132528,28.1230179 27.9199472,28.0164491 L27.9199472,28.0164491 Z M25.4239194,27.4754074 L25.4239194,28.8509649 C25.9500028,28.9575337 26.4695306,29.059184 26.9808639,29.1624737 L26.9808639,27.8131486 C26.4695306,27.7000217 25.9500028,27.5868948 25.4239194,27.4754074 L25.4239194,27.4754074 Z M22.7476139,26.8917383 L22.7476139,28.3213999 C23.3130306,28.4345268 23.8686139,28.5427351 24.4192806,28.6509434 L24.4192806,27.2573513 C23.8686139,27.1376663 23.3130306,27.0147023 22.7476139,26.8917383 L22.7476139,26.8917383 Z M30.2570028,28.5247004 L30.2570028,29.8133633 C30.7175306,29.9035369 31.1747806,29.9969895 31.6271139,30.0838841 L31.6271139,28.8214535 C31.1747806,28.7230823 30.7175306,28.6247111 30.2570028,28.5247004 L30.2570028,28.5247004 Z M27.9199472,30.4183462 L27.9199472,31.7529157 C28.4132528,31.8348917 28.896725,31.9168677 29.3785583,31.9939251 L29.3785583,30.685588 C28.896725,30.5970539 28.4132528,30.5068803 27.9199472,30.4183462 L27.9199472,30.4183462 Z M25.4239194,29.957641 L25.4239194,31.3397566 C25.9500028,31.4266511 26.4695306,31.5119062 26.9808639,31.5971612 L26.9808639,30.2445571 C26.4695306,30.1511044 25.9500028,30.0543727 25.4239194,29.957641 L25.4239194,29.957641 Z M22.7476139,29.4641455 L22.7476139,30.8970861 C23.3130306,30.9905388 23.8686139,31.0823519 24.4192806,31.1725255 L24.4192806,29.7740148 C23.8686139,29.670725 23.3130306,29.5690747 22.7476139,29.4641455 L22.7476139,29.4641455 Z M30.2570028,30.8479005 L30.2570028,32.1398424 C30.7175306,32.2152604 31.1747806,32.2923178 31.6271139,32.3677357 L31.6271139,31.1003866 C31.1747806,31.0167711 30.7175306,30.9331556 30.2570028,30.8479005 L30.2570028,30.8479005 Z M27.9199472,32.8202433 L27.9199472,34.1548128 C28.4148917,34.218754 28.896725,34.2826953 29.3785583,34.3466366 L29.3785583,33.0415785 C28.896725,32.9694396 28.4148917,32.8956612 27.9199472,32.8202433 L27.9199472,32.8202433 Z M25.4239194,32.4447932 L25.4239194,33.8252692 C25.9500028,33.8924895 26.4695306,33.9629889 26.9808639,34.0302092 L26.9808639,32.6792446 C26.4695306,32.6021871 25.9500028,32.5251297 25.4239194,32.4447932 L25.4239194,32.4447932 Z M22.7476139,32.0398317 L22.7476139,33.4694933 C23.3130306,33.5432717 23.8686139,33.6170501 24.4192806,33.6908285 L24.4192806,32.2923178 C23.8686139,32.2103418 23.3130306,32.1267263 22.7476139,32.0398317 L22.7476139,32.0398317 Z M30.2570028,33.1743797 L30.2570028,34.4646821 C30.7175306,34.5237048 31.1747806,34.5860066 31.6271139,34.6466688 L31.6271139,33.3809592 C31.1747806,33.3137389 30.7175306,33.244879 30.2570028,33.1743797 L30.2570028,33.1743797 Z M27.9199472,35.227059 L27.9199472,36.5583494 C28.4148917,36.607535 28.896725,36.6567206 29.3785583,36.7042667 L29.3785583,35.3975691 C28.896725,35.3401859 28.4148917,35.2828027 27.9199472,35.227059 L27.9199472,35.227059 Z M25.4239194,34.9319453 L25.4239194,36.3091423 C25.9500028,36.3616069 26.4695306,36.4157111 26.9808639,36.4648967 L26.9808639,35.1155716 C26.4695306,35.0565489 25.9500028,34.9958866 25.4239194,34.9319453 L25.4239194,34.9319453 Z M22.7476139,34.6171574 L22.7476139,36.04354 C23.3130306,36.0992837 23.8686139,36.1566669 24.4192806,36.2124106 L24.4192806,34.8122604 C23.8686139,34.7499586 23.3130306,34.6827383 22.7476139,34.6171574 L22.7476139,34.6171574 Z M30.2570028,35.5008588 L30.2570028,36.7911612 C30.7175306,36.8370678 31.1747806,36.8829744 31.6271139,36.9256019 L31.6271139,35.6631713 C31.1747806,35.6090672 30.7175306,35.554963 30.2570028,35.5008588 L30.2570028,35.5008588 Z M27.9199472,37.6305956 L27.9199472,38.961886 C28.4148917,38.9946764 28.896725,39.0274668 29.3785583,39.0602572 L29.3785583,37.7535596 C28.896725,37.7125716 28.4148917,37.6715836 27.9199472,37.6305956 L27.9199472,37.6305956 Z M25.4239194,37.4190975 L25.4239194,38.797934 C25.9500028,38.8323639 26.4695306,38.8667938 26.9808639,38.8995842 L26.9808639,37.5502591 C26.4695306,37.5076316 25.9500028,37.461725 25.4239194,37.4190975 L25.4239194,37.4190975 Z M22.7476139,37.1912042 L22.7476139,38.6192263 C23.3130306,38.6585747 23.8686139,38.6930047 24.4192806,38.7307136 L24.4192806,37.3338424 C23.8686139,37.2879359 23.3130306,37.2403898 22.7476139,37.1912042 L22.7476139,37.1912042 Z M30.2570028,37.827338 C30.2570028,38.2568923 30.2586417,38.6880861 30.2586417,39.1176404 C30.7175306,39.1487913 31.1747806,39.1766631 31.6271139,39.2094535 L31.6271139,37.9437439 C31.1747806,37.906035 30.7175306,37.8666865 30.2570028,37.827338 L30.2570028,37.827338 Z M27.9199472,40.0324927 L27.9199472,41.3654226 C28.4148917,41.3834573 28.896725,41.398213 29.3785583,41.4162477 L29.3785583,40.1062711 C28.896725,40.0816783 28.4148917,40.055446 27.9199472,40.0324927 L27.9199472,40.0324927 Z M25.4239194,39.9029706 L25.4239194,41.2834466 C25.9500028,41.3014813 26.4695306,41.319516 26.9808639,41.3375508 L26.9808639,39.9833071 C26.4695306,39.9570747 25.9500028,39.9292029 25.4239194,39.9029706 L25.4239194,39.9029706 Z M22.7476139,39.7652509 L22.7476139,41.1949125 C23.3130306,41.2145867 23.8686139,41.2326215 24.4192806,41.2506562 L24.4192806,39.8505059 C23.8686139,39.8226341 23.3130306,39.7947622 22.7476139,39.7652509 L22.7476139,39.7652509 Z M30.2586417,40.1521777 L30.2586417,41.4441196 C30.7175306,41.4605148 31.1747806,41.4752705 31.6271139,41.4883866 L31.6271139,40.2210375 C31.1747806,40.1980842 30.7175306,40.1751309 30.2586417,40.1521777 L30.2586417,40.1521777 Z M27.9199472,42.4360293 L27.9199472,43.7607616 L29.3785583,43.7607616 L29.3785583,42.4622616 C28.896725,42.454064 28.4148917,42.4442269 27.9199472,42.4360293 L27.9199472,42.4360293 Z M25.4239194,42.3901227 L25.4239194,43.7607616 L26.9808639,43.7607616 L26.9808639,42.4179946 C26.4695306,42.409797 25.9500028,42.3999598 25.4239194,42.3901227 L25.4239194,42.3901227 Z M22.745975,42.3409371 L22.745975,43.7607616 L24.4192806,43.7607616 L24.4192806,42.372088 C23.8686139,42.3622509 23.3130306,42.3524138 22.745975,42.3409371 L22.745975,42.3409371 Z M30.2586417,42.4786568 L30.2586417,43.7607616 L31.6271139,43.7607616 L31.6271139,42.5048891 C31.1747806,42.4966915 30.7175306,42.4868544 30.2586417,42.4786568 L30.2586417,42.4786568 Z M19.8779194,42.2884725 L19.8779194,43.7607616 L21.6659472,43.7607616 L21.6659472,42.3212629 C21.0775861,42.3097862 20.4793917,42.3015886 19.8779194,42.2884725 L19.8779194,42.2884725 Z M19.8779194,39.6176941 L19.8779194,41.1014598 C20.4793917,41.1211341 21.0775861,41.1408083 21.6659472,41.1604826 L21.6659472,39.7095072 C21.0775861,39.6799958 20.4793917,39.6472054 19.8779194,39.6176941 L19.8779194,39.6176941 Z M19.8779194,36.9501947 L19.8779194,38.4290419 C20.4793917,38.4716694 21.0775861,38.5093784 21.6659472,38.5487269 L21.6659472,37.1026701 C21.0775861,37.0502054 20.4793917,37.0010198 19.8779194,36.9501947 L19.8779194,36.9501947 Z M19.8779194,34.2794163 L19.8779194,35.7582635 C20.4793917,35.8189258 21.0775861,35.879588 21.6659472,35.9386107 L21.6659472,34.4892749 C21.0775861,34.4187755 20.4793917,34.3499157 19.8779194,34.2794163 L19.8779194,34.2794163 Z M19.8779194,31.6069984 L19.8779194,33.0874851 C20.4793917,33.1678216 21.0775861,33.2481581 21.6659472,33.3252155 L21.6659472,31.8775192 C21.0775861,31.7873456 20.4810306,31.6988115 19.8779194,31.6069984 L19.8779194,31.6069984 Z M19.8779194,28.9362199 L19.8779194,30.4183462 C20.4810306,30.5199965 21.0775861,30.6216467 21.6659472,30.7167389 L21.6659472,29.264124 C21.0775861,29.1575552 20.4810306,29.0493468 19.8779194,28.9362199 L19.8779194,28.9362199 Z M19.8779194,26.2687206 L19.8779194,27.7492073 C20.4810306,27.8688923 21.0775861,27.9885773 21.6659472,28.1049832 L21.6659472,26.6605659 C21.0775861,26.5294043 20.4810306,26.3998822 19.8779194,26.2687206 L19.8779194,26.2687206 Z M19.8779194,23.5946631 L19.8779194,25.0767894 C20.4810306,25.2194277 21.0775861,25.3571473 21.6659472,25.4932275 L21.6659472,24.0455312 C21.0775861,23.8996139 20.4810306,23.748778 19.8779194,23.5946631 L19.8779194,23.5946631 Z M27.9199472,25.6129125 L27.9199472,26.9425634 C28.4132528,27.0589693 28.896725,27.1720962 29.3785583,27.2819441 L29.3785583,25.9785255 C28.896725,25.8555615 28.4132528,25.7358765 27.9199472,25.6129125 L27.9199472,25.6129125 Z M37.5910306,9.57184684 L37.5910306,11.088403 C38.1777528,11.2818664 38.7595583,11.4704112 39.3315306,11.6573165 L39.3315306,10.1669927 C38.7595583,9.97188977 38.1777528,9.77186831 37.5910306,9.57184684 L37.5910306,9.57184684 Z M-0.000163888889,47.6824939 L5.83428056,47.6824939 L5.83428056,25.1538468 L16.7410861,20.0172301 L16.7410861,47.6824939 L18.3832528,47.6824939 L18.3832528,20.0172301 L33.1709472,24.3767143 L33.1709472,47.6824939 L35.8652806,47.6824939 L35.8652806,0.00032790404 L50.6513361,6.68957033 L50.6513361,47.6824939 L58.7556417,47.6824939 L58.7556417,52.9174819 L-0.000163888889,52.9174819 L-0.000163888889,47.6824939 Z" id="Fill-1"></path>
                            </g>
                        </g>
                    </g>
                </g>
            </g>
        </g>
    </g>
</svg>