<?xml version="1.0" encoding="UTF-8"?>
<svg width="486px" height="100px" viewBox="0 0 486 100" version="1.1" xmlns="http://www.w3.org/2000/svg" xmlns:xlink="http://www.w3.org/1999/xlink">
    <!-- Generator: Sketch 48.2 (47327) - http://www.bohemiancoding.com/sketch -->
    <title>Group 4</title>
    <desc>Created with Sketch.</desc>
    <defs>
        <linearGradient x1="50%" y1="0%" x2="50%" y2="100%" id="linearGradient-1">
            <stop stop-color="#FFFFFF" offset="0%"></stop>
            <stop stop-color="#000000" offset="100%"></stop>
        </linearGradient>
        <linearGradient x1="100%" y1="99.9999642%" x2="0%" y2="99.9999642%" id="linearGradient-2">
            <stop stop-color="#24A300" offset="0%"></stop>
            <stop stop-color="#61C600" offset="15.784275%"></stop>
            <stop stop-color="#FFBE00" offset="49.7297588%"></stop>
            <stop stop-color="#EF5A00" offset="80.5537501%"></stop>
            <stop stop-color="#E00000" offset="100%"></stop>
        </linearGradient>
        <path d="M21.6854284,0 C9.70874152,0 0,9.85002754 0,22 L8.56925668,22 C8.56925668,14.6512364 14.4412324,8.69337551 21.6854284,8.69337551 C28.9293181,8.69337551 34.8524344,14.6512364 34.8524344,22 L43.3708568,22 C43.3708568,9.85002754 33.6615028,0 21.6854284,0 Z" id="path-3"></path>
    </defs>
    <g id="Artboard" stroke="none" stroke-width="1" fill="none" fill-rule="evenodd" transform="translate(-26.000000, -40.000000)">
        <g id="Group-4" transform="translate(26.000000, 40.000000)">
            <g id="Group-2" transform="translate(119.000000, 2.000000)">
                <path d="M8.26822529,55 L1.63804463,55 C0.546009418,55 0,54.4523526 0,53.3570413 L0,6.3371266 C0,5.24181529 0.546009418,4.69416785 1.63804463,4.69416785 L20.6705632,4.69416785 C24.726694,4.69416785 27.8727483,5.80250196 30.1088204,8.01920341 C32.3448925,10.2359049 33.4629118,13.378358 33.4629118,17.4466572 L33.4629118,24.9573257 C33.4629118,29.0256249 32.3448925,32.1680781 30.1088204,34.3847795 C27.8727483,36.601481 24.726694,37.7098151 20.6705632,37.7098151 L10.8422954,37.7098151 C10.2182753,37.7098151 9.90626993,37.996678 9.90626993,38.5704125 L9.90626993,53.3570413 C9.90626993,54.4523526 9.36026051,55 8.26822529,55 Z M10.7642933,29.0256046 L19.0325186,29.0256046 C20.6965723,29.0256046 21.8665924,28.6735455 22.5426142,27.9694168 C23.218636,27.2652881 23.5566419,26.1047971 23.5566419,24.487909 L23.5566419,17.916074 C23.5566419,16.2470282 23.218636,15.0604587 22.5426142,14.35633 C21.8665924,13.6522013 20.6965723,13.3001422 19.0325186,13.3001422 L10.7642933,13.3001422 C10.1922749,13.3001422 9.90626993,13.5870052 9.90626993,14.1607397 L9.90626993,28.1650071 C9.90626993,28.7387416 10.1922749,29.0256046 10.7642933,29.0256046 Z M59.5936238,55 L52.6514346,55 C48.5433022,55 45.3712475,53.9047051 43.1351753,51.7140825 C40.8991032,49.5234599 39.781084,46.3679675 39.781084,42.2475107 L39.781084,27.8520626 C39.781084,23.7316058 40.8991032,20.5761134 43.1351753,18.3854908 C45.3712475,16.1948681 48.5433022,15.0995733 52.6514346,15.0995733 L59.5936238,15.0995733 C63.6497546,15.0995733 66.8088091,16.2079074 69.070882,18.4246088 C71.332955,20.6413103 72.4639745,23.7837634 72.4639745,27.8520626 L72.4639745,42.2475107 C72.4639745,46.3158098 71.332955,49.458263 69.070882,51.6749644 C66.8088091,53.8916659 63.6497546,55 59.5936238,55 Z M54.133475,46.4722617 L58.1115834,46.4722617 C59.7756371,46.4722617 60.9586575,46.1332419 61.6606801,45.455192 C62.3627028,44.7771422 62.7137088,43.6036119 62.7137088,41.9345661 L62.7137088,28.1650071 C62.7137088,26.4959613 62.3627028,25.3224311 61.6606801,24.6443812 C60.9586575,23.9663314 59.7756371,23.6273115 58.1115834,23.6273115 L54.133475,23.6273115 C52.4694214,23.6273115 51.2994012,23.9663314 50.6233794,24.6443812 C49.9473576,25.3224311 49.6093518,26.4959613 49.6093518,28.1650071 L49.6093518,41.9345661 C49.6093518,43.6036119 49.9473576,44.7771422 50.6233794,45.455192 C51.2994012,46.1332419 52.4694214,46.4722617 54.133475,46.4722617 Z M96.1766206,55 L87.2843783,55 C86.2963465,55 85.6723357,54.4523526 85.4123273,53.3570413 L77.6121148,16.742532 C77.4041081,15.6472207 77.7941148,15.0995733 78.7821467,15.0995733 L86.2703507,15.0995733 C87.4143876,15.0995733 88.0383983,15.6472207 88.1424017,16.742532 L91.6524973,43.4992888 L92.2765143,43.4992888 L97.8146652,16.742532 C97.9706703,15.6472207 98.5686806,15.0995733 99.6087141,15.0995733 L106.472901,15.0995733 C107.564936,15.0995733 108.214948,15.6472207 108.422954,16.742532 L113.805101,43.4992888 L114.429118,43.4992888 L118.017216,16.742532 C118.173221,15.6472207 118.797232,15.0995733 119.889267,15.0995733 L127.377471,15.0995733 C128.417504,15.0995733 128.807511,15.6472207 128.547503,16.742532 L120.74729,53.3570413 C120.539283,54.4523526 119.915273,55 118.875239,55 L109.982997,55 C108.942963,55 108.318953,54.4523526 108.110946,53.3570413 L103.352816,26.913229 L102.728799,26.913229 L98.0486716,53.3570413 C97.8926666,54.4523526 97.2686558,55 96.1766206,55 Z M163.882465,55 L146.643996,55 C142.535863,55 139.363809,53.9047051 137.127736,51.7140825 C134.891664,49.5234599 133.773645,46.3679675 133.773645,42.2475107 L133.773645,27.8520626 C133.773645,23.7316058 134.891664,20.5761134 137.127736,18.3854908 C139.363809,16.1948681 142.535863,15.0995733 146.643996,15.0995733 L152.806164,15.0995733 C156.914296,15.0995733 160.086351,16.1948681 162.322423,18.3854908 C164.558495,20.5761134 165.676514,23.7316058 165.676514,27.8520626 L165.676514,37.7880512 C165.676514,38.8833625 165.130505,39.43101 164.03847,39.43101 L144.459936,39.43101 C143.835916,39.43101 143.523911,39.7178729 143.523911,40.2916074 L143.523911,42.0128023 C143.523911,43.6296904 143.874917,44.7901814 144.576939,45.4943101 C145.278962,46.1984388 146.461982,46.5504979 148.126036,46.5504979 L163.882465,46.5504979 C164.974501,46.5504979 165.52051,47.1242238 165.52051,48.2716927 L165.52051,53.4352774 C165.52051,54.0090119 165.403508,54.4132278 165.169501,54.6479374 C164.935493,54.882647 164.506486,55 163.882465,55 Z M144.459936,32.7809388 L155.068225,32.7809388 C155.640244,32.7809388 155.926249,32.4940759 155.926249,31.9203414 L155.926249,28.1650071 C155.926249,26.4959613 155.588243,25.3224311 154.912221,24.6443812 C154.236199,23.9663314 153.066179,23.6273115 151.402125,23.6273115 L148.126036,23.6273115 C146.461982,23.6273115 145.291962,23.9663314 144.61594,24.6443812 C143.939919,25.3224311 143.601913,26.4959613 143.601913,28.1650071 L143.601913,31.9203414 C143.601913,32.4940759 143.887918,32.7809388 144.459936,32.7809388 Z M181.354942,55 L174.724761,55 C173.632726,55 173.086716,54.4523526 173.086716,53.3570413 L173.086716,16.742532 C173.086716,15.6472207 173.632726,15.0995733 174.724761,15.0995733 L181.354942,15.0995733 C182.446977,15.0995733 182.992986,15.6472207 182.992986,16.742532 L182.992986,19.4025605 L183.304995,19.4025605 C183.877013,17.9943031 184.891031,16.9250866 186.347078,16.1948791 C187.803125,15.4646716 189.337151,15.0995733 190.949203,15.0995733 L193.757279,15.0995733 C194.797313,15.0995733 195.317322,15.6472207 195.317322,16.742532 L195.317322,22.140825 C195.317322,22.7667172 195.20032,23.1970116 194.966312,23.4317212 C194.732305,23.6664308 194.329298,23.7577053 193.757279,23.7055477 L188.375133,23.7055477 C184.787017,23.7055477 182.992986,25.7396667 182.992986,29.8079659 L182.992986,53.3570413 C182.992986,54.4523526 182.446977,55 181.354942,55 Z M209.357705,55 L202.727524,55 C201.635489,55 201.089479,54.4523526 201.089479,53.3570413 L201.089479,6.3371266 C201.089479,5.24181529 201.635489,4.69416785 202.727524,4.69416785 L221.760043,4.69416785 C225.816173,4.69416785 228.962228,5.80250196 231.1983,8.01920341 C233.434372,10.2359049 234.552391,13.378358 234.552391,17.4466572 L234.552391,24.9573257 C234.552391,29.0256249 233.434372,32.1680781 231.1983,34.3847795 C228.962228,36.601481 225.816173,37.7098151 221.760043,37.7098151 L211.931775,37.7098151 C211.307755,37.7098151 210.995749,37.996678 210.995749,38.5704125 L210.995749,53.3570413 C210.995749,54.4523526 210.44974,55 209.357705,55 Z M211.853773,29.0256046 L220.121998,29.0256046 C221.786052,29.0256046 222.956072,28.6735455 223.632094,27.9694168 C224.308115,27.2652881 224.646121,26.1047971 224.646121,24.487909 L224.646121,17.916074 C224.646121,16.2470282 224.308115,15.0604587 223.632094,14.35633 C222.956072,13.6522013 221.786052,13.3001422 220.121998,13.3001422 L211.853773,13.3001422 C211.281754,13.3001422 210.995749,13.5870052 210.995749,14.1607397 L210.995749,28.1650071 C210.995749,28.7387416 211.281754,29.0256046 211.853773,29.0256046 Z M256.002976,55 L253.428905,55 C249.424776,55 246.395724,53.9047051 244.341658,51.7140825 C242.287592,49.5234599 241.260574,46.3679675 241.260574,42.2475107 L241.260574,16.742532 C241.260574,15.6472207 241.806583,15.0995733 242.898618,15.0995733 L249.528799,15.0995733 C250.620834,15.0995733 251.166844,15.6472207 251.166844,16.742532 L251.166844,41.7780939 C251.166844,43.4471397 251.51785,44.6337091 252.219872,45.3378378 C252.921895,46.0419665 254.078915,46.3940256 255.690967,46.3940256 L258.577046,46.3940256 C262.165161,46.3940256 263.959192,44.4120634 263.959192,40.4480797 L263.959192,16.742532 C263.959192,15.6472207 264.505202,15.0995733 265.597237,15.0995733 L272.149416,15.0995733 C273.293452,15.0995733 273.865462,15.6472207 273.865462,16.742532 L273.865462,53.3570413 C273.865462,54.4523526 273.293452,55 272.149416,55 L265.597237,55 C264.505202,55 263.959192,54.4523526 263.959192,53.3570413 L263.959192,50.7752489 L263.647184,50.7752489 C263.075165,52.1835063 262.061148,53.2396835 260.605101,53.9438122 C259.149054,54.6479409 257.615028,55 256.002976,55 Z M291.103932,55 L284.473751,55 C283.381716,55 282.835707,54.4523526 282.835707,53.3570413 L282.835707,1.64295875 C282.835707,0.54764744 283.381716,0 284.473751,0 L291.103932,0 C292.195967,0 292.741977,0.54764744 292.741977,1.64295875 L292.741977,53.3570413 C292.741977,54.4523526 292.195967,55 291.103932,55 Z M316.766631,55 L301.946227,55 C300.906194,55 300.386185,54.4523526 300.386185,53.3570413 L300.386185,48.3499289 C300.386185,47.7761944 300.490187,47.3719784 300.698193,47.1372688 C300.9062,46.9025593 301.322207,46.7852063 301.946227,46.7852063 L314.972582,46.7852063 C317.520665,46.7852063 318.794687,46.0028528 318.794687,44.4381223 L318.794687,44.0469417 C318.794687,42.7951573 317.728668,41.5955486 315.596599,40.4480797 L307.874389,36.1450925 C305.222303,34.7889927 303.27227,33.3285996 302.02423,31.7638691 C300.776189,30.1991387 300.152179,28.1910981 300.152179,25.7396871 C300.152179,22.0886494 301.114195,19.4025691 303.038257,17.6813656 C304.962319,15.9601621 307.978371,15.0995733 312.086504,15.0995733 L325.112859,15.0995733 C326.152892,15.0995733 326.672901,15.6472207 326.672901,16.742532 L326.672901,21.8278805 C326.672901,22.401615 326.568899,22.805831 326.360893,23.0405405 C326.152886,23.2752501 325.736879,23.3926031 325.112859,23.3926031 L314.270563,23.3926031 C311.722481,23.3926031 310.448459,24.0445644 310.448459,25.3485064 L310.448459,25.7396871 C310.448459,26.887156 311.566478,28.0606863 313.80255,29.2603129 L321.680765,33.9544808 C324.384852,35.4148959 326.282885,36.9144067 327.37492,38.4530583 C328.466956,39.9917099 329.012965,42.0127898 329.012965,44.5163585 C329.012965,51.5054878 324.930895,55 316.766631,55 Z M365.205951,55 L347.967481,55 C343.859349,55 340.687294,53.9047051 338.451222,51.7140825 C336.21515,49.5234599 335.097131,46.3679675 335.097131,42.2475107 L335.097131,27.8520626 C335.097131,23.7316058 336.21515,20.5761134 338.451222,18.3854908 C340.687294,16.1948681 343.859349,15.0995733 347.967481,15.0995733 L354.129649,15.0995733 C358.237782,15.0995733 361.409836,16.1948681 363.645909,18.3854908 C365.881981,20.5761134 367,23.7316058 367,27.8520626 L367,37.7880512 C367,38.8833625 366.453991,39.43101 365.361955,39.43101 L345.783422,39.43101 C345.159402,39.43101 344.847396,39.7178729 344.847396,40.2916074 L344.847396,42.0128023 C344.847396,43.6296904 345.198402,44.7901814 345.900425,45.4943101 C346.602448,46.1984388 347.785468,46.5504979 349.449522,46.5504979 L365.205951,46.5504979 C366.297986,46.5504979 366.843996,47.1242238 366.843996,48.2716927 L366.843996,53.4352774 C366.843996,54.0090119 366.726994,54.4132278 366.492986,54.6479374 C366.258979,54.882647 365.829971,55 365.205951,55 Z M345.783422,32.7809388 L356.391711,32.7809388 C356.963729,32.7809388 357.249734,32.4940759 357.249734,31.9203414 L357.249734,28.1650071 C357.249734,26.4959613 356.911728,25.3224311 356.235707,24.6443812 C355.559685,23.9663314 354.389665,23.6273115 352.725611,23.6273115 L349.449522,23.6273115 C347.785468,23.6273115 346.615448,23.9663314 345.939426,24.6443812 C345.263404,25.3224311 344.925399,26.4959613 344.925399,28.1650071 L344.925399,31.9203414 C344.925399,32.4940759 345.211403,32.7809388 345.783422,32.7809388 Z" id="PowerPulse" fill="#FFFFFF"></path>
                <g id="Group" transform="translate(101.000000, 73.000000)">
                    <path d="M2.10982114,17.6 L1.23396748,17.6 C1.05230803,17.6 0.961479675,17.5076009 0.961479675,17.3228 L0.961479675,5.1458 C0.961479675,4.96099908 1.05230803,4.8686 1.23396748,4.8686 L5.7884065,4.8686 C6.68372805,4.8686 7.38440397,5.12929739 7.89045528,5.6507 C8.3965066,6.17210261 8.64952846,6.88819545 8.64952846,7.799 L8.64952846,9.9968 C8.64952846,10.9208046 8.3965066,11.6401974 7.89045528,12.155 C7.38440397,12.6698026 6.68372805,12.9272 5.7884065,12.9272 L2.57694309,12.9272 C2.44718634,12.9272 2.38230894,12.9865994 2.38230894,13.1054 L2.38230894,17.3228 C2.38230894,17.5076009 2.29148058,17.6 2.10982114,17.6 Z M2.57694309,11.6402 L5.59377236,11.6402 C6.68372903,11.6402 7.22869919,11.0726057 7.22869919,9.9374 L7.22869919,7.8584 C7.22869919,6.70999426 6.68372903,6.1358 5.59377236,6.1358 L2.57694309,6.1358 C2.44718634,6.1358 2.38230894,6.19519941 2.38230894,6.314 L2.38230894,11.462 C2.38230894,11.5808006 2.44718634,11.6402 2.57694309,11.6402 Z M15.3644065,17.6 L13.6905528,17.6 C12.7952313,17.6 12.0913115,17.3426026 11.5787724,16.8278 C11.0662332,16.3129974 10.8099675,15.5936046 10.8099675,14.6696 L10.8099675,10.4324 C10.8099675,9.50839538 11.0662332,8.78900257 11.5787724,8.2742 C12.0913115,7.75939743 12.7952313,7.502 13.6905528,7.502 L15.3644065,7.502 C16.2597281,7.502 16.9636478,7.75939743 17.476187,8.2742 C17.9887261,8.78900257 18.2449919,9.50839538 18.2449919,10.4324 L18.2449919,14.6696 C18.2449919,15.5936046 17.9887261,16.3129974 17.476187,16.8278 C16.9636478,17.3426026 16.2597281,17.6 15.3644065,17.6 Z M13.8462602,16.3328 L15.2086992,16.3328 C16.2986559,16.3328 16.843626,15.7652057 16.843626,14.63 L16.843626,10.472 C16.843626,9.33679432 16.2986559,8.7692 15.2086992,8.7692 L13.8462602,8.7692 C12.7563035,8.7692 12.2113333,9.33679432 12.2113333,10.472 L12.2113333,14.63 C12.2113333,15.7652057 12.7563035,16.3328 13.8462602,16.3328 Z M23.8115285,17.6 L22.6242602,17.6 C22.4426007,17.6 22.3323091,17.5076009 22.2933821,17.3228 L19.802065,7.7792 C19.763138,7.59439908 19.8280154,7.502 19.9966992,7.502 L20.9893333,7.502 C21.1580171,7.502 21.2618209,7.59439908 21.300748,7.7792 L23.1886992,15.8576 L23.3054797,15.8576 L25.3102114,7.7792 C25.3491384,7.59439908 25.4529422,7.502 25.621626,7.502 L26.5169431,7.502 C26.6986025,7.502 26.8153819,7.59439908 26.8672846,7.7792 L28.813626,15.8576 L28.9304065,15.8576 L30.8378211,7.7792 C30.8767482,7.59439908 30.980552,7.502 31.1492358,7.502 L32.1418699,7.502 C32.3105537,7.502 32.3754311,7.59439908 32.3365041,7.7792 L29.845187,17.3228 C29.80626,17.5076009 29.6959684,17.6 29.5143089,17.6 L28.3075772,17.6 C28.1388935,17.6 28.0350896,17.5076009 27.9961626,17.3228 L26.1082114,9.4424 L26.0108943,9.4424 L24.1424065,17.3228 C24.1034795,17.5076009 23.9931879,17.6 23.8115285,17.6 Z M40.9004065,17.6 L36.7741626,17.6 C35.8788411,17.6 35.1749213,17.3426026 34.6623821,16.8278 C34.149843,16.3129974 33.8935772,15.5936046 33.8935772,14.6696 L33.8935772,10.4324 C33.8935772,9.50839538 34.149843,8.78900257 34.6623821,8.2742 C35.1749213,7.75939743 35.8788411,7.502 36.7741626,7.502 L38.4090894,7.502 C39.304411,7.502 40.0050869,7.75939743 40.5111382,8.2742 C41.0171895,8.78900257 41.2702114,9.50839538 41.2702114,10.4324 L41.2702114,12.947 C41.2702114,13.145001 41.179383,13.244 40.9977236,13.244 L35.4895772,13.244 C35.3598205,13.244 35.2949431,13.3033994 35.2949431,13.4222 L35.2949431,14.63 C35.2949431,15.7784057 35.8399132,16.3526 36.9298699,16.3526 L40.9004065,16.3526 C41.0820659,16.3526 41.1728943,16.4449991 41.1728943,16.6298 L41.1728943,17.3426 C41.1728943,17.5142009 41.0820659,17.6 40.9004065,17.6 Z M35.4895772,12.1946 L39.6936748,12.1946 C39.8234315,12.1946 39.8883089,12.1286007 39.8883089,11.9966 L39.8883089,10.472 C39.8883089,9.33679432 39.3433388,8.7692 38.2533821,8.7692 L36.9298699,8.7692 C35.8399132,8.7692 35.2949431,9.33679432 35.2949431,10.472 L35.2949431,11.9966 C35.2949431,12.1286007 35.3598205,12.1946 35.4895772,12.1946 Z M44.8125528,17.6 L43.9366992,17.6 C43.7550397,17.6 43.6642114,17.5076009 43.6642114,17.3228 L43.6642114,7.7792 C43.6642114,7.59439908 43.7550397,7.502 43.9366992,7.502 L44.8125528,7.502 C44.9942123,7.502 45.0850407,7.59439908 45.0850407,7.7792 L45.0850407,8.5712 L45.1628943,8.5712 C45.2926511,8.28079855 45.5391852,8.03000106 45.9025041,7.8188 C46.265823,7.60759894 46.6940138,7.502 47.1870894,7.502 L47.9461626,7.502 C48.1148464,7.502 48.199187,7.59439908 48.199187,7.7792 L48.199187,8.5118 C48.199187,8.60420046 48.1797238,8.67349977 48.1407967,8.7197 C48.1018697,8.76590023 48.0369923,8.78240007 47.9461626,8.7692 L46.8951382,8.7692 C46.3112329,8.7692 45.8635788,8.94739822 45.5521626,9.3038 C45.2407464,9.66020178 45.0850407,10.1485969 45.0850407,10.769 L45.0850407,17.3228 C45.0850407,17.5076009 44.9942123,17.6 44.8125528,17.6 Z M56.7630894,17.6 L52.6368455,17.6 C51.741524,17.6 51.0376042,17.3426026 50.525065,16.8278 C50.0125259,16.3129974 49.7562602,15.5936046 49.7562602,14.6696 L49.7562602,10.4324 C49.7562602,9.50839538 50.0125259,8.78900257 50.525065,8.2742 C51.0376042,7.75939743 51.741524,7.502 52.6368455,7.502 L54.2717724,7.502 C55.1670939,7.502 55.8677698,7.75939743 56.3738211,8.2742 C56.8798724,8.78900257 57.1328943,9.50839538 57.1328943,10.4324 L57.1328943,12.947 C57.1328943,13.145001 57.0420659,13.244 56.8604065,13.244 L51.3522602,13.244 C51.2225034,13.244 51.157626,13.3033994 51.157626,13.4222 L51.157626,14.63 C51.157626,15.7784057 51.7025962,16.3526 52.7925528,16.3526 L56.7630894,16.3526 C56.9447489,16.3526 57.0355772,16.4449991 57.0355772,16.6298 L57.0355772,17.3426 C57.0355772,17.5142009 56.9447489,17.6 56.7630894,17.6 Z M51.3522602,12.1946 L55.5563577,12.1946 C55.6861145,12.1946 55.7509919,12.1286007 55.7509919,11.9966 L55.7509919,10.472 C55.7509919,9.33679432 55.2060217,8.7692 54.116065,8.7692 L52.7925528,8.7692 C51.7025962,8.7692 51.157626,9.33679432 51.157626,10.472 L51.157626,11.9966 C51.157626,12.1286007 51.2225034,12.1946 51.3522602,12.1946 Z M63.2833333,17.6 L62.1349919,17.6 C61.252646,17.6 60.5649456,17.3426026 60.0718699,16.8278 C59.5787943,16.3129974 59.3322602,15.5936046 59.3322602,14.6696 L59.3322602,10.4324 C59.3322602,9.50839538 59.5787943,8.78900257 60.0718699,8.2742 C60.5649456,7.75939743 61.252646,7.502 62.1349919,7.502 L63.2833333,7.502 C64.295436,7.502 64.9636732,7.8517965 65.288065,8.5514 L65.3659187,8.5514 L65.3659187,3.9578 C65.3659187,3.77299908 65.4502593,3.6806 65.6189431,3.6806 L66.5142602,3.6806 C66.6829439,3.6806 66.7672846,3.77299908 66.7672846,3.9578 L66.7672846,17.3228 C66.7672846,17.5076009 66.6829439,17.6 66.5142602,17.6 L65.6189431,17.6 C65.4502593,17.6 65.3659187,17.5076009 65.3659187,17.3228 L65.3659187,16.5506 L65.288065,16.5506 C64.9636732,17.2502035 64.295436,17.6 63.2833333,17.6 Z M65.3659187,14.5112 L65.3659187,10.5908 C65.3659187,10.0099971 65.2102129,9.56120158 64.8987967,9.2444 C64.5873806,8.92759842 64.1397265,8.7692 63.5558211,8.7692 L62.3685528,8.7692 C61.2915719,8.7692 60.7530894,9.34339426 60.7530894,10.4918 L60.7530894,14.6102 C60.7530894,15.7586057 61.2915719,16.3328 62.3685528,16.3328 L63.5558211,16.3328 C64.1397265,16.3328 64.5873806,16.1744016 64.8987967,15.8576 C65.2102129,15.5407984 65.3659187,15.0920029 65.3659187,14.5112 Z M76.0124065,16.3328 L78.7762114,16.3328 C79.8791437,16.3328 80.4306016,15.7586057 80.4306016,14.6102 L80.4306016,10.373 C80.4306016,9.22459426 79.8791437,8.6504 78.7762114,8.6504 L77.6278699,8.6504 C77.0439646,8.6504 76.5963105,8.80879842 76.2848943,9.1256 C75.9734781,9.44240158 75.8177724,9.88459716 75.8177724,10.4522 L75.8177724,16.1546 C75.8177724,16.2734006 75.8826498,16.3328 76.0124065,16.3328 Z M74.3969431,17.3228 L74.3969431,3.9578 C74.3969431,3.77299908 74.4877714,3.6806 74.6694309,3.6806 L75.5452846,3.6806 C75.726944,3.6806 75.8177724,3.77299908 75.8177724,3.9578 L75.8177724,8.4326 L75.895626,8.4326 C76.2200179,7.7329965 76.8817674,7.3832 77.8808943,7.3832 L78.9708455,7.3832 C79.8531914,7.3832 80.5506235,7.64059743 81.0631626,8.1554 C81.5757017,8.67020257 81.8319675,9.38299545 81.8319675,10.2938 L81.8319675,14.6696 C81.8319675,15.5936046 81.5757017,16.3129974 81.0631626,16.8278 C80.5506235,17.3426026 79.8531914,17.6 78.9708455,17.6 L74.6694309,17.6 C74.4877714,17.6 74.3969431,17.5076009 74.3969431,17.3228 Z M85.1212846,20.7086 L84.2648943,20.7086 C84.0832349,20.7086 83.9924065,20.6162009 83.9924065,20.4314 L83.9924065,19.6988 C83.9924065,19.5139991 84.0832349,19.4216 84.2648943,19.4216 L84.7514797,19.4216 C85.5819229,19.4216 86.1658195,19.1840024 86.503187,18.7088 C86.7756762,18.3259981 87.0222103,17.7782036 87.2427967,17.0654 L86.6783577,17.0654 C86.5226496,17.0654 86.412358,16.9730009 86.3474797,16.7882 L83.4863577,7.7792 C83.434455,7.59439908 83.4993324,7.502 83.6809919,7.502 L84.6152358,7.502 C84.7839195,7.502 84.8942111,7.59439908 84.9461138,7.7792 L87.4568943,15.9368 L87.534748,15.9368 L90.0455285,7.7792 C90.0844555,7.59439908 90.1882593,7.502 90.3569431,7.502 L91.2522602,7.502 C91.4728466,7.502 91.5506995,7.60099901 91.4858211,7.799 L88.5857724,17.204 C88.2613805,18.3260056 87.849409,19.190597 87.3498455,19.7978 C86.8502821,20.405003 86.1074358,20.7086 85.1212846,20.7086 Z" id="Powered-by" fill="#FFFFFF" opacity="0.660269475"></path>
                    <g id="Arc-logo" transform="translate(107.130081, 0.000000)">
                        <g id="Fill-1">
                            <use fill="url(#linearGradient-1)" xlink:href="#path-3"></use>
                            <use fill="url(#linearGradient-2)" xlink:href="#path-3"></use>
                        </g>
                        <g id="Group-16" transform="translate(48.575360, 1.833333)" fill="#FFFFFF">
                            <path d="M16.5952167,3.38051299 L14.0108981,6.71558826 C12.8568484,5.18479367 11.1506639,4.22808839 9.59473047,4.22808839 C6.80947004,4.22808839 4.70170538,6.6335755 4.70170538,9.77750814 C4.70170538,12.975675 6.80947004,15.40861 9.59473047,15.40861 C11.075083,15.40861 12.7815711,14.5342481 14.0108981,13.1671484 L16.6204103,16.1741726 C14.7384776,18.2790565 11.9535207,19.6732734 9.36889855,19.6732734 C4.07459683,19.6732734 0.13528668,15.4360578 0.13528668,9.83207308 C0.13528668,4.31010115 4.17506776,0.15489829 9.51945316,0.15489829 C12.1289654,0.15489829 14.8389485,1.41220679 16.5952167,3.38051299" id="Fill-15"></path>
                            <polygon id="Fill-18" points="30.3943366 19.4544845 30.3943366 12.019102 23.1179348 12.019102 23.1179348 19.4544845 18.65138 19.4544845 18.65138 0.318725389 23.1179348 0.318725389 23.1179348 8.1916195 30.3943366 8.1916195 30.3943366 0.318725389 34.860588 0.318725389 34.860588 19.4544845"></polygon>
                            <path d="M46.2261564,5.1575112 L43.6667279,12.2377255 L48.7351977,12.2377255 L46.2261564,5.1575112 Z M42.3621236,15.927969 L41.0824093,19.4545176 L36.4904935,19.4545176 L44.0683081,0.318758459 L48.6599204,0.318758459 L56.0619868,19.4545176 L51.2946262,19.4545176 L50.039802,15.927969 L42.3621236,15.927969 Z" id="Fill-20"></path>
                            <polygon id="Fill-22" points="57.6915584 19.4545837 62.1578097 19.4545837 62.1578097 0.318824598 57.6915584 0.318824598"></polygon>
                            <polygon id="Fill-24" points="72.4699815 11.936957 70.1366884 14.7528386 70.1366884 19.4543522 65.6701336 19.4543522 65.6701336 0.318923807 70.1366884 0.318923807 70.1366884 8.60188171 76.8609555 0.318923807 82.0298962 0.318923807 75.5059639 8.24638285 82.4563664 19.4543522 77.1116775 19.4543522"></polygon>
                            <polygon id="Fill-25" points="84.4122713 19.4545837 88.8785226 19.4545837 88.8785226 0.318824598 84.4122713 0.318824598"></polygon>
                            <polygon id="Fill-26" points="104.660835 19.4544845 96.5812732 7.67242582 96.5812732 19.4544845 92.3909375 19.4544845 92.3909375 0.318725389 96.3302477 0.318725389 104.435003 12.1282319 104.435003 0.318725389 108.600146 0.318725389 108.600146 19.4544845"></polygon>
                        </g>
                    </g>
                </g>
            </g>
            <path d="M50,93 C73.7482442,93 93,73.7482442 93,50 C93,26.2517558 73.7482442,7 50,7 C26.2517558,7 7,26.2517558 7,50 C7,73.7482442 26.2517558,93 50,93 Z M50,100 C22.3857625,100 0,77.6142375 0,50 C0,22.3857625 22.3857625,0 50,0 C77.6142375,0 100,22.3857625 100,50 C100,77.6142375 77.6142375,100 50,100 Z M58.6694544,86.666668 L58.6694544,88 C56.8094812,87.8724435 55.5017545,86.6479896 55.2746775,85.0490208 L48.2896819,35.7091114 L43.1895549,61.0093216 C42.9221235,62.332933 41.9038658,63.3777848 40.5883613,63.6763262 C39.2706427,63.9761155 37.9024547,63.4717046 37.090011,62.3899473 L29.0571683,51.6755449 L24.2697814,60.4560938 C23.6695253,61.5582821 22.5155576,62.2447161 21.2620516,62.2447161 L7.42708333,62.2447161 C5.53318521,62.2447161 4,60.7069932 4,58.8115295 C4,56.9159654 5.53315243,55.3783429 7.42708333,55.3783429 L19.2285979,55.3783429 L25.5926249,43.7053368 C26.1505408,42.6806717 27.1902833,42.0107691 28.3460765,41.9267812 C29.5036228,41.8364628 30.6393392,42.35423 31.3407423,43.2884498 L37.983307,52.1480839 L45.5217628,14.7528023 C45.8531081,13.113501 47.3106764,11.9502762 48.9803646,12.0016359 C50.6495848,12.0499038 52.039855,13.2962632 52.2735938,14.9511492 L59.8406724,68.4098635 L66.6714524,45.160592 C67.0358775,43.917367 68.0680048,42.9860725 69.3388018,42.7527656 C70.6107448,42.5161934 71.9094008,43.0226717 72.6908378,44.0561978 L81.2518359,55.3783429 L92.5729167,55.3783429 C94.4668476,55.3783429 96,56.9159654 96,58.8115295 C96,60.7069932 94.4668148,62.2447161 92.5729167,62.2447161 L79.548994,62.2447161 C78.4749726,62.2447161 77.4634358,61.7407768 76.8170938,60.8835835 L71.3301974,53.626703 L61.9559831,85.535894 C61.5265754,86.9982704 60.1863804,88 58.6694544,88 L58.6694544,86.666668 Z" id="Combined-Shape" fill="#1199FF" fill-rule="nonzero"></path>
        </g>
    </g>
</svg>