<?xml version="1.0" encoding="UTF-8"?>
<svg width="183px" height="25px" viewBox="0 0 183 25" version="1.1" xmlns="http://www.w3.org/2000/svg" xmlns:xlink="http://www.w3.org/1999/xlink">
    <!-- Generator: Sketch 46.2 (44496) - http://www.bohemiancoding.com/sketch -->
    <title>logo-chaikin-W</title>
    <desc>Created with Sketch.</desc>
    <defs>
        <linearGradient x1="50%" y1="0%" x2="50%" y2="100%" id="linearGradient-1">
            <stop stop-color="#FFFFFF" offset="0%"></stop>
            <stop stop-color="#000000" offset="100%"></stop>
        </linearGradient>
        <linearGradient x1="100%" y1="99.9999642%" x2="0%" y2="99.9999642%" id="linearGradient-2">
            <stop stop-color="#24A300" offset="0%"></stop>
            <stop stop-color="#61C600" offset="15.784275%"></stop>
            <stop stop-color="#FFBE00" offset="49.7297588%"></stop>
            <stop stop-color="#EF5A00" offset="80.5537501%"></stop>
            <stop stop-color="#E00000" offset="100%"></stop>
        </linearGradient>
        <linearGradient x1="50%" y1="-26.3277395%" x2="50%" y2="154.299402%" id="linearGradient-3">
            <stop stop-color="#FFFFFF" stop-opacity="0.5" offset="0%"></stop>
            <stop stop-color="#000000" stop-opacity="0.5" offset="100%"></stop>
        </linearGradient>
    </defs>
    <g id="Page-1" stroke="none" stroke-width="1" fill="none" fill-rule="evenodd">
        <g id="logo-chaikin-W" fill-rule="nonzero">
            <g id="Fill-1">
                <g id="path-3-link" fill="url(#linearGradient-1)">
                    <path d="M25.0543722,3.43292309e-05 C11.2170449,3.43292309e-05 0,10.884117 0,24.3095926 L9.90053516,24.3095926 C9.90053516,16.1893563 16.6847528,9.60603972 25.0543722,9.60603972 C33.4236378,9.60603972 40.2669409,16.1893563 40.2669409,24.3095926 L50.1087443,24.3095926 C50.1087443,10.884117 38.8909919,3.43292309e-05 25.0543722,3.43292309e-05 Z" id="path-3"></path>
                </g>
                <g id="path-3-link" fill="url(#linearGradient-2)">
                    <path d="M25.0543722,3.43292309e-05 C11.2170449,3.43292309e-05 0,10.884117 0,24.3095926 L9.90053516,24.3095926 C9.90053516,16.1893563 16.6847528,9.60603972 25.0543722,9.60603972 C33.4236378,9.60603972 40.2669409,16.1893563 40.2669409,24.3095926 L50.1087443,24.3095926 C50.1087443,10.884117 38.8909919,3.43292309e-05 25.0543722,3.43292309e-05 Z" id="path-3"></path>
                </g>
            </g>
            <g id="Fill-3" transform="translate(5.000000, 4.000000)">
                <g id="path-5-link" fill="url(#linearGradient-2)">
                    <path d="M0.16166628,20.3095926 L4.90053516,20.3095926 C4.90053516,13.7084248 11.6522027,5.69220609 20.0543722,5.69220609 L20.0543722,5.69220609 C28.4558341,5.69220609 35.2669409,13.7084248 35.2669409,20.3095926 L35.2669409,20.3095926 L39.9467243,20.3095926 C39.9467243,9.3953002 31.040736,0.9691905 20.0543722,0.9691905 L20.0543722,0.9691905 C9.0680084,0.9691905 0.16166628,9.3953002 0.16166628,20.3095926" id="path-5"></path>
                </g>
                <g id="path-5-link" style="mix-blend-mode: multiply;" fill="url(#linearGradient-3)">
                    <path d="M0.16166628,20.3095926 L4.90053516,20.3095926 C4.90053516,13.7084248 11.6522027,5.69220609 20.0543722,5.69220609 L20.0543722,5.69220609 C28.4558341,5.69220609 35.2669409,13.7084248 35.2669409,20.3095926 L35.2669409,20.3095926 L39.9467243,20.3095926 C39.9467243,9.3953002 31.040736,0.9691905 20.0543722,0.9691905 L20.0543722,0.9691905 C9.0680084,0.9691905 0.16166628,9.3953002 0.16166628,20.3095926" id="path-5"></path>
                </g>
            </g>
            <polyline id="Fill-5" fill="#9B0013" points="-3.53805352e-05 24.3096269 5.76026955 19.5066242 9.90049978 24.3096269"></polyline>
            <polyline id="Fill-8" fill="#417900" points="50.1084967 24.3096269 44.3481918 19.5066242 40.267047 24.3096269"></polyline>
            <g id="Group-16" transform="translate(55.901246, 4.119508)" fill="#FFFFFF">
                <path d="M19.3434939,3.5092713 L16.3311951,6.97137423 C14.9860271,5.38227414 12.9972873,4.38912949 11.183681,4.38912949 C7.93716312,4.38912949 5.48033876,6.88623774 5.48033876,10.1499177 C5.48033876,13.4698976 7.93716312,15.9954992 11.183681,15.9954992 C12.9091897,15.9954992 14.8982834,15.0878343 16.3311951,13.6686639 L19.3728597,16.7902209 C17.1792665,18.9752764 13.9331024,20.4225968 10.9204498,20.4225968 C4.7493769,20.4225968 0.157691045,16.0239924 0.157691045,10.206561 C0.157691045,4.47426598 4.86648647,0.160798117 11.0959373,0.160798117 C14.1376019,0.160798117 17.2963761,1.46599548 19.3434939,3.5092713" id="Fill-15"></path>
                <polygon id="Fill-18" points="35.4278389 20.1954746 35.4278389 12.4768903 26.9464171 12.4768903 26.9464171 20.1954746 21.7401713 20.1954746 21.7401713 0.330865127 26.9464171 0.330865127 26.9464171 8.50362512 35.4278389 8.50362512 35.4278389 0.330865127 40.6337309 0.330865127 40.6337309 20.1954746"></polygon>
                <path d="M53.8815123,5.35395252 L50.8982256,12.7038409 L56.8060674,12.7038409 L53.8815123,5.35395252 Z M49.3775702,16.5346397 L47.8859268,20.1955089 L42.5335595,20.1955089 L51.3663101,0.330899457 L56.7183236,0.330899457 L65.346221,20.1955089 L59.7893541,20.1955089 L58.3267228,16.5346397 L49.3775702,16.5346397 Z" id="Fill-20"></path>
                <polygon id="Fill-22" points="67.2456604 20.1955776 72.4515523 20.1955776 72.4515523 0.330968115 67.2456604 0.330968115"></polygon>
                <polygon id="Fill-24" points="84.4714877 12.3916165 81.7517859 15.3147505 81.7517859 20.1953373 76.5455402 20.1953373 76.5455402 0.331071103 81.7517859 0.331071103 81.7517859 8.92951356 89.5896359 0.331071103 95.6145872 0.331071103 88.0102488 8.56047433 96.1116837 20.1953373 89.8818791 20.1953373"></polygon>
                <polygon id="Fill-25" points="98.3914993 20.1955776 103.597391 20.1955776 103.597391 0.330968115 98.3914993 0.330968115"></polygon>
                <polygon id="Fill-26" points="121.993359 20.1954746 112.575768 7.9646562 112.575768 20.1954746 107.691485 20.1954746 107.691485 0.330865127 112.283171 0.330865127 121.730128 12.5901768 121.730128 0.330865127 126.585045 0.330865127 126.585045 20.1954746"></polygon>
            </g>
        </g>
    </g>
</svg>