<?xml version="1.0" encoding="UTF-8"?>
<svg width="914px" height="119px" viewBox="0 0 914 119" version="1.1" xmlns="http://www.w3.org/2000/svg" xmlns:xlink="http://www.w3.org/1999/xlink">
    <!-- Generator: Sketch 48.2 (47327) - http://www.bohemiancoding.com/sketch -->
    <title>Group</title>
    <desc>Created with Sketch.</desc>
    <defs>
        <linearGradient x1="100%" y1="99.9999642%" x2="0%" y2="99.9999642%" id="linearGradient-1">
            <stop stop-color="#24A300" offset="0%"></stop>
            <stop stop-color="#61C600" offset="15.784275%"></stop>
            <stop stop-color="#FFBE00" offset="49.7297588%"></stop>
            <stop stop-color="#EF5A00" offset="80.5537501%"></stop>
            <stop stop-color="#E00000" offset="100%"></stop>
        </linearGradient>
    </defs>
    <g id="MTB--Dark" stroke="none" stroke-width="1" fill="none" fill-rule="evenodd" transform="translate(-158.000000, -345.000000)">
        <g id="Group" transform="translate(156.000000, 345.000000)">
            <g id="Chaikin-Logo-H3_rev-Copy" transform="translate(2.836494, 55.196203)">
                <g id="Group-5" transform="translate(140.075552, 5.781239)" fill="#FFFFFF">
                    <path d="M51.0295235,9.61709155 L43.0779014,19.3343913 C39.5274531,14.8741651 34.2783552,12.0866443 29.4924405,12.0866443 C20.9235521,12.0866443 14.4389879,19.0954334 14.4389879,28.255807 C14.4389879,37.5742012 20.9235521,44.6639277 29.4924405,44.6639277 C34.0467636,44.6639277 39.2958615,42.1153647 43.0779014,38.1320908 L51.107032,46.8935589 C45.3172425,53.0264903 36.7483541,57.0887744 28.796732,57.0887744 C12.5096806,57.0887744 0.389410034,44.7439015 0.389410034,28.4147911 C0.389410034,12.3256022 12.8178468,0.219687093 29.2599151,0.219687093 C37.2890457,0.219687093 45.6254088,3.88306572 51.0295235,9.61709155" id="Fill-13"></path>
                    <polyline id="Fill-14" points="93.4817541 56.4518746 93.4817541 34.7876439 71.0958133 34.7876439 71.0958133 56.4518746 57.3553355 56.4518746 57.3553355 0.696639334 71.0958133 0.696639334 71.0958133 23.6356333 93.4817541 23.6356333 93.4817541 0.696639334 107.223166 0.696639334 107.223166 56.4518746 93.4817541 56.4518746"></polyline>
                    <path d="M142.188825,14.7951549 L134.314711,35.4245437 L149.907922,35.4245437 L142.188825,14.7951549 Z M130.30108,46.1766853 L126.364023,56.4518746 L112.236937,56.4518746 L135.550178,0.696639334 L149.67633,0.696639334 L172.44888,56.4518746 L157.782035,56.4518746 L153.922487,46.1766853 L130.30108,46.1766853 Z" id="Fill-15"></path>
                    <polygon id="Fill-16" points="177.462651 56.4518746 191.203128 56.4518746 191.203128 0.696639334 177.462651 0.696639334"></polygon>
                    <polyline id="Fill-17" points="222.928373 34.5477224 215.749968 42.7522645 215.749968 56.4518746 202.008556 56.4518746 202.008556 0.696639334 215.749968 0.696639334 215.749968 24.8313863 236.437259 0.696639334 252.33957 0.696639334 232.268611 23.7946174 253.652545 56.4518746 237.209543 56.4518746 222.928373 34.5477224"></polyline>
                    <polygon id="Fill-18" points="259.669257 56.4518746 273.409734 56.4518746 273.409734 0.696639334 259.669257 0.696639334"></polygon>
                    <polyline id="Fill-19" points="321.963656 56.4518746 297.107716 22.1219121 297.107716 56.4518746 284.216096 56.4518746 284.216096 0.696639334 296.335433 0.696639334 321.268881 35.105612 321.268881 0.696639334 334.082993 0.696639334 334.082993 56.4518746 321.963656 56.4518746"></polyline>
                    <path d="M373.079093,5.53457308 L359.110759,37.4161807 L387.199642,37.4161807 L373.079093,5.53457308 Z M357.752026,40.6825809 L350.95556,56.1579949 L347.48262,56.1579949 L371.417797,1.80085604 L374.816029,1.80085604 L398.978128,56.1579949 L395.504255,56.1579949 L388.634016,40.6825809 L357.752026,40.6825809 Z" id="Fill-20"></path>
                    <polyline id="Fill-21" points="444.418637 56.1579949 409.232592 6.77753952 409.232592 56.1579949 406.061282 56.1579949 406.061282 1.80085604 409.761144 1.80085604 445.02283 51.1803479 445.02283 1.80085604 448.1185 1.80085604 448.1185 56.1579949 444.418637 56.1579949"></polyline>
                    <path d="M482.346428,5.53457308 L468.378094,37.4161807 L496.466977,37.4161807 L482.346428,5.53457308 Z M467.018427,40.6825809 L460.222895,56.1579949 L456.749021,56.1579949 L480.685132,1.80085604 L484.083364,1.80085604 L508.245463,56.1579949 L504.772523,56.1579949 L497.901351,40.6825809 L467.018427,40.6825809 Z" id="Fill-22"></path>
                    <polyline id="Fill-23" points="544.563319 52.9696414 544.563319 56.1579949 517.909742 56.1579949 517.909742 1.80085604 521.081053 1.80085604 521.081053 52.9696414 544.563319 52.9696414"></polyline>
                    <polyline id="Fill-24" points="569.253969 56.1579949 566.158299 56.1579949 566.158299 36.4054273 545.016229 1.80085604 548.414462 1.80085604 567.668314 32.362414 586.696177 1.80085604 590.093476 1.80085604 569.253969 36.2502974 569.253969 56.1579949"></polyline>
                    <polyline id="Fill-25" points="615.613374 4.9892095 615.613374 56.1579949 612.442997 56.1579949 612.442997 4.9892095 594.623519 4.9892095 594.623519 1.80085604 633.433785 1.80085604 633.433785 4.9892095 615.613374 4.9892095"></polyline>
                    <polygon id="Fill-26" points="644.381157 56.1579949 647.543573 56.1579949 647.543573 1.80085604 644.381157 1.80085604"></polygon>
                    <path d="M705.920082,9.03318639 L704.031864,11.5220099 C699.653102,7.3229031 693.687751,4.83407958 687.420771,4.83407958 C674.055696,4.83407958 663.257738,15.5650232 663.257738,28.8628371 C663.257738,42.2377342 674.055696,53.0476882 687.420771,53.0476882 C693.687751,53.0476882 699.577461,50.5588646 704.031864,46.436841 L705.995723,48.6924879 C701.087476,53.3589115 694.366651,56.2350781 687.34513,56.2350781 C672.318759,56.2350781 660.086428,44.0260643 660.086428,28.9408839 C660.086428,13.85474 672.318759,1.72377285 687.34513,1.72377285 C694.443225,1.72377285 701.011835,4.5228562 705.920082,9.03318639" id="Fill-27"></path>
                    <path d="M747.900725,6.07897311 L746.462616,9.03318639 C742.540501,6.38923295 737.180276,5.06725624 732.651167,5.06725624 C724.26531,5.06725624 718.830379,8.64487981 718.830379,14.3210933 C718.830379,30.8853074 749.861783,22.3310003 749.712369,42.3938277 C749.712369,50.7930048 742.391087,56.2350781 731.362471,56.2350781 C724.340017,56.2350781 717.168149,53.0476882 712.564332,48.3822281 L714.226562,45.5041344 C718.531551,50.0925113 725.245839,52.8925582 731.437178,52.8925582 C740.504736,52.8925582 746.313202,48.8476178 746.313202,42.4709109 C746.462616,25.441307 715.431212,34.1497805 715.431212,14.5542699 C715.431212,6.70045633 722.378959,1.64572612 732.80058,1.64572612 C738.160805,1.64572612 743.97861,3.43405614 747.900725,6.07897311" id="Fill-28"></path>
                    <polyline id="Fill-29" points="758.695881 1.83747055 758.695881 9.77896625 757.164388 9.77896625 757.164388 1.83747055 754.306847 1.83747055 754.306847 0.420103388 761.572099 0.420103388 761.572099 1.83747055 758.695881 1.83747055"></polyline>
                    <polyline id="Fill-30" points="771.059883 9.77896625 771.050545 2.78655734 768.183665 8.80290035 767.184459 8.80290035 764.31758 2.78655734 764.31758 9.77896625 762.879471 9.77896625 762.879471 0.420103388 764.700453 0.420103388 767.688731 6.6368627 770.667671 0.420103388 772.469977 0.420103388 772.469977 9.77896625 771.059883 9.77896625"></polyline>
                </g>
                <path d="M61.1163912,0 C27.5635707,0 0.3644242,28.4726831 0.3644242,63.5936322 L24.3712914,63.5936322 C24.3712914,42.3511516 40.8216962,25.129242 61.1163912,25.129242 C81.4102283,25.129242 98.0039039,42.3511516 98.0039039,63.5936322 L121.868358,63.5936322 C121.868358,28.4726831 94.6674959,0 61.1163912,0 Z" id="Fill-1" fill="url(#linearGradient-1)"></path>
            </g>
            <path d="M21.7137746,10.4022787 C21.7137746,13.3651316 20.74226,15.6357555 18.7992016,17.2142187 C16.8561432,18.7926818 14.0905649,19.5819015 10.5023837,19.5819015 L7.54894967,19.5819015 L7.54894967,30.1976598 L2.90506329,30.1976598 L2.90506329,1.82428022 L11.0852983,1.82428022 C14.6346183,1.82428022 17.29333,2.5488098 19.0615132,3.99789069 C20.8296963,5.44697159 21.7137746,7.58174624 21.7137746,10.4022787 Z M7.54894967,15.681047 L10.0166215,15.681047 C12.4001065,15.681047 14.1488328,15.2670301 15.262853,14.4389839 C16.3768731,13.6109376 16.9338748,12.3171348 16.9338748,10.5575366 C16.9338748,8.92732058 16.435164,7.71114593 15.4377274,6.90897615 C14.4402907,6.10680637 12.8858673,5.70572749 10.7744105,5.70572749 L7.54894967,5.70572749 L7.54894967,15.681047 Z M45.9630223,19.4266436 C45.9630223,22.9329018 45.0627521,25.6692948 43.2621846,27.6359046 C41.4616172,29.6025144 38.9551094,30.5858045 35.7425862,30.5858045 C33.7347592,30.5858045 31.9601258,30.1329735 30.4186328,29.227298 C28.8771398,28.3216224 27.6918919,27.0213506 26.8628537,25.3264435 C26.0338154,23.6315364 25.6193025,21.6649561 25.6193025,19.4266436 C25.6193025,15.9462618 26.513096,13.2292759 28.3007097,11.2756043 C30.0883234,9.32193277 32.6077847,8.34511164 35.8591691,8.34511164 C38.9680626,8.34511164 41.429233,9.34457432 43.2427541,11.3435297 C45.0562753,13.342485 45.9630223,16.0368294 45.9630223,19.4266436 Z M30.3214803,19.4266436 C30.3214803,24.3819827 32.1544046,26.8596151 35.8203081,26.8596151 C39.4473505,26.8596151 41.2608445,24.3819827 41.2608445,19.4266436 C41.2608445,14.5230574 39.434397,12.071301 35.7814472,12.071301 C33.8642962,12.071301 32.4750303,12.7052644 31.6136077,13.9732102 C30.7521852,15.241156 30.3214803,17.0589489 30.3214803,19.4266436 Z M68.0360555,30.1976598 L65.2574958,20.1835258 C64.920699,19.1225916 64.3118832,16.6578972 63.4310301,12.7893688 L63.2561557,12.7893688 C62.5048398,16.2826888 61.9089774,18.7603212 61.4685509,20.2223403 L58.6122693,30.1976598 L53.5603427,30.1976598 L47.5368918,8.73325637 L52.2002086,8.73325637 L54.9399073,19.3102002 C55.561686,21.9237211 56.0021059,24.162 56.2611804,26.025104 L56.3777633,26.025104 C56.5073005,25.0806138 56.7048418,23.9970539 56.9703932,22.7743919 C57.2359445,21.5517299 57.4658696,20.6363644 57.6601754,20.0282679 L60.9244972,8.73325637 L65.9375629,8.73325637 L69.1047322,20.0282679 C69.2990381,20.6622408 69.5419167,21.6325929 69.8333755,22.9393534 C70.1248343,24.2461138 70.2964685,25.2617491 70.3482834,25.9862895 L70.5037273,25.9862895 C70.6980331,24.3948882 71.1514066,22.1695473 71.8638614,19.3102002 L74.642421,8.73325637 L79.2280159,8.73325637 L73.165704,30.1976598 L68.0360555,30.1976598 Z M92.3047336,30.5858045 C88.9626732,30.5858045 86.3492988,29.6122179 84.4645321,27.6650155 C82.5797655,25.717813 81.6373963,23.0364067 81.6373963,19.620716 C81.6373963,16.1144577 82.5117595,13.3586577 84.260512,11.3532333 C86.0092646,9.34780883 88.4121441,8.34511164 91.4692227,8.34511164 C94.306088,8.34511164 96.5470484,9.20549052 98.1921712,10.9262741 C99.8372939,12.6470576 100.659843,15.0147168 100.659843,18.0293226 L100.659843,20.4940416 L86.3395741,20.4940416 C86.4043427,22.5770954 86.9678212,24.1781764 88.0300265,25.2973326 C89.0922318,26.4164888 90.5883643,26.9760586 92.518469,26.9760586 C93.7879338,26.9760586 94.9699433,26.8563818 96.0645328,26.6170247 C97.1591224,26.3776676 98.3346551,25.9798232 99.5911662,25.4234797 L99.5911662,29.1302618 C98.4771461,29.6607289 97.3501891,30.0359317 96.2102615,30.2558815 C95.0703339,30.4758313 93.7685043,30.5858045 92.3047336,30.5858045 Z M91.4692227,11.7995997 C90.0184057,11.7995997 88.8558266,12.2588997 87.9814503,13.1775135 C87.107074,14.0961273 86.5856945,15.4352132 86.4172961,17.1948114 L96.1714005,17.1948114 C96.1454931,15.422275 95.7180266,14.0799546 94.8889884,13.1678099 C94.0599501,12.2556652 92.9200396,11.7995997 91.4692227,11.7995997 Z M116.748286,8.34511164 C117.668,8.34511164 118.425782,8.40980178 119.021653,8.53918401 L118.574752,12.7893688 C117.927066,12.6341101 117.253482,12.5564819 116.553981,12.5564819 C114.727506,12.5564819 113.247566,13.1516312 112.114115,14.3419477 C110.980664,15.5322641 110.413947,17.0783585 110.413947,18.9802772 L110.413947,30.1976598 L105.847783,30.1976598 L105.847783,8.73325637 L109.422993,8.73325637 L110.025338,12.5176675 L110.258504,12.5176675 C110.970958,11.2367835 111.900374,10.2211482 113.046778,9.47073135 C114.193183,8.72031446 115.427006,8.34511164 116.748286,8.34511164 Z M131.593178,30.5858045 C128.251118,30.5858045 125.637743,29.6122179 123.752977,27.6650155 C121.86821,25.717813 120.925841,23.0364067 120.925841,19.620716 C120.925841,16.1144577 121.800204,13.3586577 123.548957,11.3532333 C125.297709,9.34780883 127.700589,8.34511164 130.757667,8.34511164 C133.594533,8.34511164 135.835493,9.20549052 137.480616,10.9262741 C139.125738,12.6470576 139.948288,15.0147168 139.948288,18.0293226 L139.948288,20.4940416 L125.628019,20.4940416 C125.692787,22.5770954 126.256266,24.1781764 127.318471,25.2973326 C128.380676,26.4164888 129.876809,26.9760586 131.806914,26.9760586 C133.076378,26.9760586 134.258388,26.8563818 135.352977,26.6170247 C136.447567,26.3776676 137.6231,25.9798232 138.879611,25.4234797 L138.879611,29.1302618 C137.765591,29.6607289 136.638634,30.0359317 135.498706,30.2558815 C134.358778,30.4758313 133.056949,30.5858045 131.593178,30.5858045 Z M130.757667,11.7995997 C129.30685,11.7995997 128.144271,12.2588997 127.269895,13.1775135 C126.395519,14.0961273 125.874139,15.4352132 125.705741,17.1948114 L135.459845,17.1948114 C135.433938,15.422275 135.006471,14.0799546 134.177433,13.1678099 C133.348395,12.2556652 132.208484,11.7995997 130.757667,11.7995997 Z M152.383799,30.5858045 C149.702379,30.5858045 147.610384,29.6154524 146.107752,27.6747191 C144.60512,25.7339857 143.853815,23.0105308 143.853815,19.5042726 C143.853815,15.9850761 144.614835,13.2454486 146.136898,11.285308 C147.65896,9.32516728 149.767147,8.34511164 152.461521,8.34511164 C155.285433,8.34511164 157.435718,9.38662291 158.912443,11.4696767 L159.145609,11.4696767 C158.925395,9.93002825 158.81529,8.7138536 158.81529,7.82111626 L158.81529,0 L163.400885,0 L163.400885,30.1976598 L159.825676,30.1976598 L159.029026,27.3836105 L158.81529,27.3836105 C157.35152,29.5184172 155.207711,30.5858045 152.383799,30.5858045 Z M153.60792,26.8984296 C155.48621,26.8984296 156.852807,26.371205 157.707753,25.3167399 C158.562698,24.2622747 159.003118,22.5512205 159.029026,20.1835258 L159.029026,19.543087 C159.029026,16.8389986 158.588606,14.9177014 157.707753,13.7791378 C156.826899,12.6405743 155.447349,12.071301 153.569059,12.071301 C151.962797,12.071301 150.725735,12.7214369 149.857836,14.0217283 C148.989936,15.3220196 148.555993,17.1753922 148.555993,19.5819015 C148.555993,21.9625344 148.976983,23.7770929 149.818975,25.0256313 C150.660967,26.2741698 151.923936,26.8984296 153.60792,26.8984296 Z M191.244773,8.34511164 C193.926194,8.34511164 196.01495,9.31546376 197.511105,11.2561971 C199.00726,13.1969304 199.755326,15.9203854 199.755326,19.4266436 C199.755326,22.9458401 198.997545,25.6854675 197.481959,27.6456082 C195.966374,29.6057489 193.861425,30.5858045 191.167051,30.5858045 C188.446769,30.5858045 186.335344,29.6089834 184.832712,27.6553118 L184.521825,27.6553118 L183.686314,30.1976598 L180.266548,30.1976598 L180.266548,0 L184.832712,0 L184.832712,7.18067746 C184.832712,7.71114457 184.806805,8.50036429 184.75499,9.5483603 C184.703176,10.5963563 184.664315,11.2626648 184.638407,11.5473056 L184.832712,11.5473056 C186.283529,9.41249897 188.420861,8.34511164 191.244773,8.34511164 Z M190.059513,12.071301 C188.220085,12.071301 186.895586,12.6114637 186.085979,13.6918053 C185.276371,14.7721468 184.85862,16.5802363 184.832712,19.1161278 L184.832712,19.4266436 C184.832712,22.0401645 185.247225,23.9323511 186.076264,25.1032603 C186.905302,26.2741694 188.258945,26.8596151 190.137235,26.8596151 C191.756451,26.8596151 192.983797,26.2191827 193.819313,24.9382987 C194.654828,23.6574147 195.072579,21.8072767 195.072579,19.3878291 C195.072579,14.5101193 193.401574,12.071301 190.059513,12.071301 Z M200.998877,8.73325637 L205.973082,8.73325637 L210.344942,20.9015936 C211.005582,22.6353154 211.446001,24.2655069 211.666215,25.7922171 L211.821659,25.7922171 C211.938242,25.0806149 212.151975,24.2170015 212.462865,23.2013511 C212.773754,22.1857006 214.418852,17.3630506 217.398208,8.73325637 L222.333552,8.73325637 L213.142932,33.0505235 C211.471902,37.5142102 208.686893,39.7460201 204.787822,39.7460201 C203.777432,39.7460201 202.792964,39.6360469 201.834388,39.4160971 L201.834388,35.8063511 C202.520936,35.9616098 203.304624,36.039238 204.185477,36.039238 C206.38761,36.039238 207.935557,34.7648422 208.829364,32.2160124 L209.626014,30.1976598 L200.998877,8.73325637 Z" id="Powered-by" fill="#FFFFFF" opacity="0.504698822"></path>
        </g>
    </g>
</svg>