<?xml version="1.0" encoding="UTF-8"?>
<svg width="488px" height="100px" viewBox="0 0 488 100" version="1.1" xmlns="http://www.w3.org/2000/svg" xmlns:xlink="http://www.w3.org/1999/xlink">
    <!-- Generator: Sketch 48.2 (47327) - http://www.bohemiancoding.com/sketch -->
    <title>Group 4</title>
    <desc>Created with Sketch.</desc>
    <defs>
        <linearGradient x1="50%" y1="0%" x2="50%" y2="100%" id="linearGradient-1">
            <stop stop-color="#FFFFFF" offset="0%"></stop>
            <stop stop-color="#000000" offset="100%"></stop>
        </linearGradient>
        <linearGradient x1="100%" y1="99.9999642%" x2="0%" y2="99.9999642%" id="linearGradient-2">
            <stop stop-color="#24A300" offset="0%"></stop>
            <stop stop-color="#61C600" offset="15.784275%"></stop>
            <stop stop-color="#FFBE00" offset="49.7297588%"></stop>
            <stop stop-color="#EF5A00" offset="80.5537501%"></stop>
            <stop stop-color="#E00000" offset="100%"></stop>
        </linearGradient>
        <path d="M19.8322815,0 C8.94438438,0 0.118255728,8.95457049 0.118255728,20 L7.90848908,20 C7.90848908,13.3193058 13.2466488,7.90306865 19.8322815,7.90306865 C26.4176359,7.90306865 31.802287,13.3193058 31.802287,20 L39.5463074,20 C39.5463074,8.95457049 30.7196219,0 19.8322815,0 Z" id="path-3"></path>
    </defs>
    <g id="Artboard" stroke="none" stroke-width="1" fill="none" fill-rule="evenodd" transform="translate(-691.000000, -40.000000)">
        <g id="Group-4" transform="translate(691.000000, 40.000000)">
            <g id="Chaikin-Logo-H3_rev" transform="translate(191.000000, 73.000000)">
                <g id="Group-5" transform="translate(45.454545, 1.818182)" fill="#FFFFFE">
                    <path d="M16.5590909,3.02454545 L13.9787879,6.08060606 C12.8266667,4.67787879 11.1233333,3.80121212 9.57030303,3.80121212 C6.78969697,3.80121212 4.68545455,6.00545455 4.68545455,8.88636364 C4.68545455,11.8169697 6.78969697,14.0466667 9.57030303,14.0466667 C11.0481818,14.0466667 12.7515152,13.2451515 13.9787879,11.9924242 L16.5842424,14.7478788 C14.7054545,16.6766667 11.9248485,17.9542424 9.34454545,17.9542424 C4.05939394,17.9542424 0.126363636,14.0718182 0.126363636,8.93636364 C0.126363636,3.87636364 4.15939394,0.0690909091 9.49484848,0.0690909091 C12.100303,0.0690909091 14.8054545,1.22121212 16.5590909,3.02454545" id="Fill-13"></path>
                    <polyline id="Fill-14" points="30.3348485 17.7539394 30.3348485 10.9406061 23.0706061 10.9406061 23.0706061 17.7539394 18.6118182 17.7539394 18.6118182 0.219090909 23.0706061 0.219090909 23.0706061 7.43333333 30.3348485 7.43333333 30.3348485 0.219090909 34.7939394 0.219090909 34.7939394 17.7539394 30.3348485 17.7539394"></polyline>
                    <path d="M46.140303,4.6530303 L43.5851515,11.1409091 L48.6451515,11.1409091 L46.140303,4.6530303 Z M42.2827273,14.5224242 L41.0051515,17.7539394 L36.4209091,17.7539394 L43.9860606,0.219090909 L48.57,0.219090909 L55.959697,17.7539394 L51.200303,17.7539394 L49.9478788,14.5224242 L42.2827273,14.5224242 Z" id="Fill-15"></path>
                    <polygon id="Fill-16" points="57.5866667 17.7539394 62.0454545 17.7539394 62.0454545 0.219090909 57.5866667 0.219090909"></polygon>
                    <polyline id="Fill-17" points="72.340303 10.8651515 70.0109091 13.4454545 70.0109091 17.7539394 65.5518182 17.7539394 65.5518182 0.219090909 70.0109091 0.219090909 70.0109091 7.80939394 76.7239394 0.219090909 81.8842424 0.219090909 75.3712121 7.48333333 82.310303 17.7539394 76.9745455 17.7539394 72.340303 10.8651515"></polyline>
                    <polygon id="Fill-18" points="84.2627273 17.7539394 88.7215152 17.7539394 88.7215152 0.219090909 84.2627273 0.219090909"></polygon>
                    <polyline id="Fill-19" points="104.477273 17.7539394 96.4115152 6.95727273 96.4115152 17.7539394 92.2281818 17.7539394 92.2281818 0.219090909 96.1609091 0.219090909 104.251818 11.0406061 104.251818 0.219090909 108.41 0.219090909 108.41 17.7539394 104.477273 17.7539394"></polyline>
                    <path d="M121.064242,1.74060606 L116.531515,11.7672727 L125.646364,11.7672727 L121.064242,1.74060606 Z M116.090606,12.7945455 L113.885152,17.6615152 L112.758182,17.6615152 L120.525152,0.566363636 L121.627879,0.566363636 L129.468485,17.6615152 L128.341212,17.6615152 L126.111818,12.7945455 L116.090606,12.7945455 Z" id="Fill-20"></path>
                    <polyline id="Fill-21" points="144.213939 17.6615152 132.796061 2.13151515 132.796061 17.6615152 131.76697 17.6615152 131.76697 0.566363636 132.967576 0.566363636 144.41 16.0960606 144.41 0.566363636 145.414545 0.566363636 145.414545 17.6615152 144.213939 17.6615152"></polyline>
                    <path d="M156.521515,1.74060606 L151.988788,11.7672727 L161.103636,11.7672727 L156.521515,1.74060606 Z M151.547576,12.7945455 L149.342424,17.6615152 L148.215152,17.6615152 L155.982424,0.566363636 L157.085152,0.566363636 L164.925758,17.6615152 L163.798788,17.6615152 L161.569091,12.7945455 L151.547576,12.7945455 Z" id="Fill-22"></path>
                    <polyline id="Fill-23" points="176.710909 16.6587879 176.710909 17.6615152 168.061818 17.6615152 168.061818 0.566363636 169.090909 0.566363636 169.090909 16.6587879 176.710909 16.6587879"></polyline>
                    <polyline id="Fill-24" points="184.72303 17.6615152 183.718485 17.6615152 183.718485 11.4493939 176.857879 0.566363636 177.960606 0.566363636 184.208485 10.1778788 190.38303 0.566363636 191.485455 0.566363636 184.72303 11.4006061 184.72303 17.6615152"></polyline>
                    <polyline id="Fill-25" points="199.766667 1.56909091 199.766667 17.6615152 198.737879 17.6615152 198.737879 1.56909091 192.955455 1.56909091 192.955455 0.566363636 205.549394 0.566363636 205.549394 1.56909091 199.766667 1.56909091"></polyline>
                    <polygon id="Fill-26" points="209.101818 17.6615152 210.131212 17.6615152 210.131212 0.566363636 209.101818 0.566363636"></polygon>
                    <path d="M229.071212,2.84090909 L228.458485,3.62363636 C227.037576,2.3030303 225.101818,1.52030303 223.068182,1.52030303 C218.731212,1.52030303 215.227273,4.89515152 215.227273,9.07727273 C215.227273,13.2836364 218.731212,16.6833333 223.068182,16.6833333 C225.101818,16.6833333 227.01303,15.9006061 228.458485,14.6042424 L229.095758,15.3136364 C227.50303,16.7812121 225.322121,17.6857576 223.043636,17.6857576 C218.167576,17.6857576 214.198182,13.8460606 214.198182,9.10181818 C214.198182,4.35727273 218.167576,0.542121212 223.043636,0.542121212 C225.34697,0.542121212 227.478485,1.42242424 229.071212,2.84090909" id="Fill-27"></path>
                    <path d="M242.693939,1.91181818 L242.227273,2.84090909 C240.954545,2.00939394 239.215152,1.59363636 237.745455,1.59363636 C235.024242,1.59363636 233.260606,2.71878788 233.260606,4.50393939 C233.260606,9.71333333 243.330303,7.0230303 243.281818,13.3327273 C243.281818,15.9742424 240.906061,17.6857576 237.327273,17.6857576 C235.048485,17.6857576 232.721212,16.6833333 231.227273,15.2160606 L231.766667,14.3109091 C233.163636,15.7539394 235.342424,16.6345455 237.351515,16.6345455 C240.293939,16.6345455 242.178788,15.3624242 242.178788,13.3569697 C242.227273,8.00121212 232.157576,10.74 232.157576,4.57727273 C232.157576,2.10727273 234.412121,0.517575758 237.793939,0.517575758 C239.533333,0.517575758 241.421212,1.08 242.693939,1.91181818" id="Fill-28"></path>
                    <polyline id="Fill-29" points="246.19697 0.577878788 246.19697 3.07545455 245.7 3.07545455 245.7 0.577878788 244.772727 0.577878788 244.772727 0.132121212 247.130303 0.132121212 247.130303 0.577878788 246.19697 0.577878788"></polyline>
                    <polyline id="Fill-30" points="250.209091 3.07545455 250.206061 0.876363636 249.275758 2.76848485 248.951515 2.76848485 248.021212 0.876363636 248.021212 3.07545455 247.554545 3.07545455 247.554545 0.132121212 248.145455 0.132121212 249.115152 2.08727273 250.081818 0.132121212 250.666667 0.132121212 250.666667 3.07545455 250.209091 3.07545455"></polyline>
                </g>
                <g id="Fill-1">
                    <use fill="url(#linearGradient-1)" xlink:href="#path-3"></use>
                    <use fill="url(#linearGradient-2)" xlink:href="#path-3"></use>
                </g>
            </g>
            <path d="M160.62,89.34 L163.42,89.34 C164.420005,89.34 164.92,88.8600048 164.92,87.9 L164.92,86.66 C164.92,85.6999952 164.393339,85.22 163.34,85.22 L160.62,85.22 C160.473333,85.22 160.4,85.286666 160.4,85.42 L160.4,89.14 C160.4,89.273334 160.473333,89.34 160.62,89.34 Z M160.62,83.62 L163.22,83.62 C164.233338,83.62 164.74,83.1333382 164.74,82.16 L164.74,81.24 C164.74,80.2799952 164.246672,79.8 163.26,79.8 L160.62,79.8 C160.473333,79.8 160.4,79.866666 160.4,80 L160.4,83.42 C160.4,83.553334 160.473333,83.62 160.62,83.62 Z M158.46,90.66 L158.46,78.48 C158.46,78.2533322 158.573332,78.14 158.8,78.14 L163.54,78.14 C164.526672,78.14 165.293331,78.406664 165.84,78.94 C166.386669,79.473336 166.66,80.2266618 166.66,81.2 L166.66,82.18 C166.66,83.3400058 166.113339,84.086665 165.02,84.42 C165.540003,84.486667 165.969998,84.7133314 166.31,85.1 C166.650002,85.4866686 166.82,86.0066634 166.82,86.66 L166.82,87.94 C166.82,88.9133382 166.546669,89.666664 166,90.2 C165.453331,90.733336 164.693338,91 163.72,91 L158.8,91 C158.573332,91 158.46,90.8866678 158.46,90.66 Z M170.5,94.24 L169.44,94.24 C169.213332,94.24 169.1,94.1266678 169.1,93.9 L169.1,92.88 C169.1,92.6399988 169.213332,92.52 169.44,92.52 L169.9,92.52 C170.713337,92.52 171.276665,92.3600016 171.59,92.04 C171.903335,91.7199984 172.166666,91.193337 172.38,90.46 L171.58,90.46 C171.379999,90.46 171.24,90.3466678 171.16,90.12 L168.5,81.14 C168.446666,80.9133322 168.533332,80.8 168.76,80.8 L170.1,80.8 C170.313334,80.8 170.446666,80.9133322 170.5,81.14 L172.68,88.98 L172.76,88.98 L174.94,81.14 C174.98,80.9133322 175.113332,80.8 175.34,80.8 L176.62,80.8 C176.873335,80.8 176.98,80.9199988 176.94,81.16 L174.2,90.78 C173.893332,91.9000056 173.460003,92.7566637 172.9,93.35 C172.339997,93.9433363 171.540005,94.24 170.5,94.24 Z" id="By" fill="#FFFFFF" opacity="0.653645833"></path>
            <path d="M127.268225,57 L120.638045,57 C119.546009,57 119,56.4523526 119,55.3570413 L119,8.3371266 C119,7.24181529 119.546009,6.69416785 120.638045,6.69416785 L139.670563,6.69416785 C143.726694,6.69416785 146.872748,7.80250196 149.10882,10.0192034 C151.344893,12.2359049 152.462912,15.378358 152.462912,19.4466572 L152.462912,26.9573257 C152.462912,31.0256249 151.344893,34.1680781 149.10882,36.3847795 C146.872748,38.601481 143.726694,39.7098151 139.670563,39.7098151 L129.842295,39.7098151 C129.218275,39.7098151 128.90627,39.996678 128.90627,40.5704125 L128.90627,55.3570413 C128.90627,56.4523526 128.360261,57 127.268225,57 Z M129.764293,31.0256046 L138.032519,31.0256046 C139.696572,31.0256046 140.866592,30.6735455 141.542614,29.9694168 C142.218636,29.2652881 142.556642,28.1047971 142.556642,26.487909 L142.556642,19.916074 C142.556642,18.2470282 142.218636,17.0604587 141.542614,16.35633 C140.866592,15.6522013 139.696572,15.3001422 138.032519,15.3001422 L129.764293,15.3001422 C129.192275,15.3001422 128.90627,15.5870052 128.90627,16.1607397 L128.90627,30.1650071 C128.90627,30.7387416 129.192275,31.0256046 129.764293,31.0256046 Z M178.593624,57 L171.651435,57 C167.543302,57 164.371247,55.9047051 162.135175,53.7140825 C159.899103,51.5234599 158.781084,48.3679675 158.781084,44.2475107 L158.781084,29.8520626 C158.781084,25.7316058 159.899103,22.5761134 162.135175,20.3854908 C164.371247,18.1948681 167.543302,17.0995733 171.651435,17.0995733 L178.593624,17.0995733 C182.649755,17.0995733 185.808809,18.2079074 188.070882,20.4246088 C190.332955,22.6413103 191.463974,25.7837634 191.463974,29.8520626 L191.463974,44.2475107 C191.463974,48.3158098 190.332955,51.458263 188.070882,53.6749644 C185.808809,55.8916659 182.649755,57 178.593624,57 Z M173.133475,48.4722617 L177.111583,48.4722617 C178.775637,48.4722617 179.958657,48.1332419 180.66068,47.455192 C181.362703,46.7771422 181.713709,45.6036119 181.713709,43.9345661 L181.713709,30.1650071 C181.713709,28.4959613 181.362703,27.3224311 180.66068,26.6443812 C179.958657,25.9663314 178.775637,25.6273115 177.111583,25.6273115 L173.133475,25.6273115 C171.469421,25.6273115 170.299401,25.9663314 169.623379,26.6443812 C168.947358,27.3224311 168.609352,28.4959613 168.609352,30.1650071 L168.609352,43.9345661 C168.609352,45.6036119 168.947358,46.7771422 169.623379,47.455192 C170.299401,48.1332419 171.469421,48.4722617 173.133475,48.4722617 Z M215.176621,57 L206.284378,57 C205.296346,57 204.672336,56.4523526 204.412327,55.3570413 L196.612115,18.742532 C196.404108,17.6472207 196.794115,17.0995733 197.782147,17.0995733 L205.270351,17.0995733 C206.414388,17.0995733 207.038398,17.6472207 207.142402,18.742532 L210.652497,45.4992888 L211.276514,45.4992888 L216.814665,18.742532 C216.97067,17.6472207 217.568681,17.0995733 218.608714,17.0995733 L225.472901,17.0995733 C226.564936,17.0995733 227.214948,17.6472207 227.422954,18.742532 L232.805101,45.4992888 L233.429118,45.4992888 L237.017216,18.742532 C237.173221,17.6472207 237.797232,17.0995733 238.889267,17.0995733 L246.377471,17.0995733 C247.417504,17.0995733 247.807511,17.6472207 247.547503,18.742532 L239.74729,55.3570413 C239.539283,56.4523526 238.915273,57 237.875239,57 L228.982997,57 C227.942963,57 227.318953,56.4523526 227.110946,55.3570413 L222.352816,28.913229 L221.728799,28.913229 L217.048672,55.3570413 C216.892667,56.4523526 216.268656,57 215.176621,57 Z M282.882465,57 L265.643996,57 C261.535863,57 258.363809,55.9047051 256.127736,53.7140825 C253.891664,51.5234599 252.773645,48.3679675 252.773645,44.2475107 L252.773645,29.8520626 C252.773645,25.7316058 253.891664,22.5761134 256.127736,20.3854908 C258.363809,18.1948681 261.535863,17.0995733 265.643996,17.0995733 L271.806164,17.0995733 C275.914296,17.0995733 279.086351,18.1948681 281.322423,20.3854908 C283.558495,22.5761134 284.676514,25.7316058 284.676514,29.8520626 L284.676514,39.7880512 C284.676514,40.8833625 284.130505,41.43101 283.03847,41.43101 L263.459936,41.43101 C262.835916,41.43101 262.523911,41.7178729 262.523911,42.2916074 L262.523911,44.0128023 C262.523911,45.6296904 262.874917,46.7901814 263.576939,47.4943101 C264.278962,48.1984388 265.461982,48.5504979 267.126036,48.5504979 L282.882465,48.5504979 C283.974501,48.5504979 284.52051,49.1242238 284.52051,50.2716927 L284.52051,55.4352774 C284.52051,56.0090119 284.403508,56.4132278 284.169501,56.6479374 C283.935493,56.882647 283.506486,57 282.882465,57 Z M263.459936,34.7809388 L274.068225,34.7809388 C274.640244,34.7809388 274.926249,34.4940759 274.926249,33.9203414 L274.926249,30.1650071 C274.926249,28.4959613 274.588243,27.3224311 273.912221,26.6443812 C273.236199,25.9663314 272.066179,25.6273115 270.402125,25.6273115 L267.126036,25.6273115 C265.461982,25.6273115 264.291962,25.9663314 263.61594,26.6443812 C262.939919,27.3224311 262.601913,28.4959613 262.601913,30.1650071 L262.601913,33.9203414 C262.601913,34.4940759 262.887918,34.7809388 263.459936,34.7809388 Z M300.354942,57 L293.724761,57 C292.632726,57 292.086716,56.4523526 292.086716,55.3570413 L292.086716,18.742532 C292.086716,17.6472207 292.632726,17.0995733 293.724761,17.0995733 L300.354942,17.0995733 C301.446977,17.0995733 301.992986,17.6472207 301.992986,18.742532 L301.992986,21.4025605 L302.304995,21.4025605 C302.877013,19.9943031 303.891031,18.9250866 305.347078,18.1948791 C306.803125,17.4646716 308.337151,17.0995733 309.949203,17.0995733 L312.757279,17.0995733 C313.797313,17.0995733 314.317322,17.6472207 314.317322,18.742532 L314.317322,24.140825 C314.317322,24.7667172 314.20032,25.1970116 313.966312,25.4317212 C313.732305,25.6664308 313.329298,25.7577053 312.757279,25.7055477 L307.375133,25.7055477 C303.787017,25.7055477 301.992986,27.7396667 301.992986,31.8079659 L301.992986,55.3570413 C301.992986,56.4523526 301.446977,57 300.354942,57 Z M328.357705,57 L321.727524,57 C320.635489,57 320.089479,56.4523526 320.089479,55.3570413 L320.089479,8.3371266 C320.089479,7.24181529 320.635489,6.69416785 321.727524,6.69416785 L340.760043,6.69416785 C344.816173,6.69416785 347.962228,7.80250196 350.1983,10.0192034 C352.434372,12.2359049 353.552391,15.378358 353.552391,19.4466572 L353.552391,26.9573257 C353.552391,31.0256249 352.434372,34.1680781 350.1983,36.3847795 C347.962228,38.601481 344.816173,39.7098151 340.760043,39.7098151 L330.931775,39.7098151 C330.307755,39.7098151 329.995749,39.996678 329.995749,40.5704125 L329.995749,55.3570413 C329.995749,56.4523526 329.44974,57 328.357705,57 Z M330.853773,31.0256046 L339.121998,31.0256046 C340.786052,31.0256046 341.956072,30.6735455 342.632094,29.9694168 C343.308115,29.2652881 343.646121,28.1047971 343.646121,26.487909 L343.646121,19.916074 C343.646121,18.2470282 343.308115,17.0604587 342.632094,16.35633 C341.956072,15.6522013 340.786052,15.3001422 339.121998,15.3001422 L330.853773,15.3001422 C330.281754,15.3001422 329.995749,15.5870052 329.995749,16.1607397 L329.995749,30.1650071 C329.995749,30.7387416 330.281754,31.0256046 330.853773,31.0256046 Z M375.002976,57 L372.428905,57 C368.424776,57 365.395724,55.9047051 363.341658,53.7140825 C361.287592,51.5234599 360.260574,48.3679675 360.260574,44.2475107 L360.260574,18.742532 C360.260574,17.6472207 360.806583,17.0995733 361.898618,17.0995733 L368.528799,17.0995733 C369.620834,17.0995733 370.166844,17.6472207 370.166844,18.742532 L370.166844,43.7780939 C370.166844,45.4471397 370.51785,46.6337091 371.219872,47.3378378 C371.921895,48.0419665 373.078915,48.3940256 374.690967,48.3940256 L377.577046,48.3940256 C381.165161,48.3940256 382.959192,46.4120634 382.959192,42.4480797 L382.959192,18.742532 C382.959192,17.6472207 383.505202,17.0995733 384.597237,17.0995733 L391.149416,17.0995733 C392.293452,17.0995733 392.865462,17.6472207 392.865462,18.742532 L392.865462,55.3570413 C392.865462,56.4523526 392.293452,57 391.149416,57 L384.597237,57 C383.505202,57 382.959192,56.4523526 382.959192,55.3570413 L382.959192,52.7752489 L382.647184,52.7752489 C382.075165,54.1835063 381.061148,55.2396835 379.605101,55.9438122 C378.149054,56.6479409 376.615028,57 375.002976,57 Z M410.103932,57 L403.473751,57 C402.381716,57 401.835707,56.4523526 401.835707,55.3570413 L401.835707,3.64295875 C401.835707,2.54764744 402.381716,2 403.473751,2 L410.103932,2 C411.195967,2 411.741977,2.54764744 411.741977,3.64295875 L411.741977,55.3570413 C411.741977,56.4523526 411.195967,57 410.103932,57 Z M435.766631,57 L420.946227,57 C419.906194,57 419.386185,56.4523526 419.386185,55.3570413 L419.386185,50.3499289 C419.386185,49.7761944 419.490187,49.3719784 419.698193,49.1372688 C419.9062,48.9025593 420.322207,48.7852063 420.946227,48.7852063 L433.972582,48.7852063 C436.520665,48.7852063 437.794687,48.0028528 437.794687,46.4381223 L437.794687,46.0469417 C437.794687,44.7951573 436.728668,43.5955486 434.596599,42.4480797 L426.874389,38.1450925 C424.222303,36.7889927 422.27227,35.3285996 421.02423,33.7638691 C419.776189,32.1991387 419.152179,30.1910981 419.152179,27.7396871 C419.152179,24.0886494 420.114195,21.4025691 422.038257,19.6813656 C423.962319,17.9601621 426.978371,17.0995733 431.086504,17.0995733 L444.112859,17.0995733 C445.152892,17.0995733 445.672901,17.6472207 445.672901,18.742532 L445.672901,23.8278805 C445.672901,24.401615 445.568899,24.805831 445.360893,25.0405405 C445.152886,25.2752501 444.736879,25.3926031 444.112859,25.3926031 L433.270563,25.3926031 C430.722481,25.3926031 429.448459,26.0445644 429.448459,27.3485064 L429.448459,27.7396871 C429.448459,28.887156 430.566478,30.0606863 432.80255,31.2603129 L440.680765,35.9544808 C443.384852,37.4148959 445.282885,38.9144067 446.37492,40.4530583 C447.466956,41.9917099 448.012965,44.0127898 448.012965,46.5163585 C448.012965,53.5054878 443.930895,57 435.766631,57 Z M484.205951,57 L466.967481,57 C462.859349,57 459.687294,55.9047051 457.451222,53.7140825 C455.21515,51.5234599 454.097131,48.3679675 454.097131,44.2475107 L454.097131,29.8520626 C454.097131,25.7316058 455.21515,22.5761134 457.451222,20.3854908 C459.687294,18.1948681 462.859349,17.0995733 466.967481,17.0995733 L473.129649,17.0995733 C477.237782,17.0995733 480.409836,18.1948681 482.645909,20.3854908 C484.881981,22.5761134 486,25.7316058 486,29.8520626 L486,39.7880512 C486,40.8833625 485.453991,41.43101 484.361955,41.43101 L464.783422,41.43101 C464.159402,41.43101 463.847396,41.7178729 463.847396,42.2916074 L463.847396,44.0128023 C463.847396,45.6296904 464.198402,46.7901814 464.900425,47.4943101 C465.602448,48.1984388 466.785468,48.5504979 468.449522,48.5504979 L484.205951,48.5504979 C485.297986,48.5504979 485.843996,49.1242238 485.843996,50.2716927 L485.843996,55.4352774 C485.843996,56.0090119 485.726994,56.4132278 485.492986,56.6479374 C485.258979,56.882647 484.829971,57 484.205951,57 Z M464.783422,34.7809388 L475.391711,34.7809388 C475.963729,34.7809388 476.249734,34.4940759 476.249734,33.9203414 L476.249734,30.1650071 C476.249734,28.4959613 475.911728,27.3224311 475.235707,26.6443812 C474.559685,25.9663314 473.389665,25.6273115 471.725611,25.6273115 L468.449522,25.6273115 C466.785468,25.6273115 465.615448,25.9663314 464.939426,26.6443812 C464.263404,27.3224311 463.925399,28.4959613 463.925399,30.1650071 L463.925399,33.9203414 C463.925399,34.4940759 464.211403,34.7809388 464.783422,34.7809388 Z" id="PowerPulse" fill="#FFFFFF"></path>
            <path d="M50,93 C73.7482442,93 93,73.7482442 93,50 C93,26.2517558 73.7482442,7 50,7 C26.2517558,7 7,26.2517558 7,50 C7,73.7482442 26.2517558,93 50,93 Z M50,100 C22.3857625,100 0,77.6142375 0,50 C0,22.3857625 22.3857625,0 50,0 C77.6142375,0 100,22.3857625 100,50 C100,77.6142375 77.6142375,100 50,100 Z M58.6694544,86.666668 L58.6694544,88 C56.8094812,87.8724435 55.5017545,86.6479896 55.2746775,85.0490208 L48.2896819,35.7091114 L43.1895549,61.0093216 C42.9221235,62.332933 41.9038658,63.3777848 40.5883613,63.6763262 C39.2706427,63.9761155 37.9024547,63.4717046 37.090011,62.3899473 L29.0571683,51.6755449 L24.2697814,60.4560938 C23.6695253,61.5582821 22.5155576,62.2447161 21.2620516,62.2447161 L7.42708333,62.2447161 C5.53318521,62.2447161 4,60.7069932 4,58.8115295 C4,56.9159654 5.53315243,55.3783429 7.42708333,55.3783429 L19.2285979,55.3783429 L25.5926249,43.7053368 C26.1505408,42.6806717 27.1902833,42.0107691 28.3460765,41.9267812 C29.5036228,41.8364628 30.6393392,42.35423 31.3407423,43.2884498 L37.983307,52.1480839 L45.5217628,14.7528023 C45.8531081,13.113501 47.3106764,11.9502762 48.9803646,12.0016359 C50.6495848,12.0499038 52.039855,13.2962632 52.2735938,14.9511492 L59.8406724,68.4098635 L66.6714524,45.160592 C67.0358775,43.917367 68.0680048,42.9860725 69.3388018,42.7527656 C70.6107448,42.5161934 71.9094008,43.0226717 72.6908378,44.0561978 L81.2518359,55.3783429 L92.5729167,55.3783429 C94.4668476,55.3783429 96,56.9159654 96,58.8115295 C96,60.7069932 94.4668148,62.2447161 92.5729167,62.2447161 L79.548994,62.2447161 C78.4749726,62.2447161 77.4634358,61.7407768 76.8170938,60.8835835 L71.3301974,53.626703 L61.9559831,85.535894 C61.5265754,86.9982704 60.1863804,88 58.6694544,88 L58.6694544,86.666668 Z" id="Combined-Shape" fill="#1199FF" fill-rule="nonzero"></path>
        </g>
    </g>
</svg>