<?xml version="1.0" encoding="UTF-8"?>
<svg width="60px" height="55px" viewBox="0 0 60 55" version="1.1" xmlns="http://www.w3.org/2000/svg" xmlns:xlink="http://www.w3.org/1999/xlink">
    <!-- Generator: Sketch 40.3 (33839) - http://www.bohemiancoding.com/sketch -->
    <title>Page 1</title>
    <desc>Created with Sketch.</desc>
    <defs></defs>
    <g id="Page-1" stroke="none" stroke-width="1" fill="none" fill-rule="evenodd">
        <g id="Discovery-1024x768_v14.3" transform="translate(-752.000000, -521.000000)" fill="#CBE9FF">
            <g id="STOCKS-LIKE" transform="translate(61.000000, 463.000000)">
                <g id="Group-6" transform="translate(0.000000, 38.000000)">
                    <g transform="translate(-114.000000, 6.000000)" id="Group-3">
                        <g transform="translate(749.000000, 0.000000)">
                            <path d="M86,14 L59.2469144,25.6102772 L112.753482,25.6102772 L86,14 Z M59.2421622,31.3032325 L112.758234,31.3032325 L112.758234,27.6831864 L59.2421622,27.6831864 L59.2421622,31.3032325 Z M100.974457,32.6958939 L100.974457,56.5561909 L108.075375,56.5561909 L108.075771,32.6958939 L100.974457,32.6958939 Z M88.6243812,56.5561909 L95.7256947,56.5561909 L95.7256947,32.6958939 L88.6243812,32.6958939 L88.6243812,56.5561909 Z M76.2747013,56.5561909 L83.3756188,56.5561909 L83.3756188,32.6958939 L76.2747013,32.6958939 L76.2747013,56.5561909 Z M63.9250215,56.5561909 L71.0259389,56.5561909 L71.0259389,32.6958939 L63.9250215,32.6958939 L63.9250215,56.5561909 Z M59.2421622,61.6646017 L112.758234,61.6646017 L112.758234,58.0445556 L59.2421622,58.0445556 L59.2421622,61.6646017 Z M56,69 L116,69 L116,63.2125328 L56,63.2125328 L56,69 Z" id="Page-1"></path>
                        </g>
                    </g>
                </g>
            </g>
        </g>
    </g>
</svg>