<?xml version="1.0" encoding="UTF-8"?>
<svg width="226px" height="48px" viewBox="0 0 226 48" version="1.1" xmlns="http://www.w3.org/2000/svg" xmlns:xlink="http://www.w3.org/1999/xlink">
    <!-- Generator: Sketch 48.1 (47250) - http://www.bohemiancoding.com/sketch -->
    <title>Group 2</title>
    <desc>Created with Sketch.</desc>
    <defs>
        <linearGradient x1="50%" y1="0%" x2="50%" y2="100%" id="linearGradient-1">
            <stop stop-color="#FFFFFF" offset="0%"></stop>
            <stop stop-color="#000000" offset="100%"></stop>
        </linearGradient>
        <linearGradient x1="100%" y1="99.9999642%" x2="0%" y2="99.9999642%" id="linearGradient-2">
            <stop stop-color="#24A300" offset="0%"></stop>
            <stop stop-color="#61C600" offset="15.784275%"></stop>
            <stop stop-color="#FFBE00" offset="49.7297588%"></stop>
            <stop stop-color="#EF5A00" offset="80.5537501%"></stop>
            <stop stop-color="#E00000" offset="100%"></stop>
        </linearGradient>
        <path d="M10.0274725,0 C4.48938048,0 0,4.47728524 0,10 L3.96247583,10 C3.96247583,6.65965289 6.67771273,3.95153432 10.0274725,3.95153432 C13.3770907,3.95153432 16.1159753,6.65965289 16.1159753,10 L20.0549451,10 C20.0549451,4.47728524 15.5652814,0 10.0274725,0 Z" id="path-3"></path>
        <linearGradient x1="50%" y1="-26.3277395%" x2="50%" y2="154.299402%" id="linearGradient-4">
            <stop stop-color="#FFFFFF" stop-opacity="0.5" offset="0%"></stop>
            <stop stop-color="#000000" stop-opacity="0.5" offset="100%"></stop>
        </linearGradient>
        <path d="M1.6043956,10 L3.51541969,10 C3.51541969,7.15570899 6.23813677,3.70170518 9.62644497,3.70170518 L9.62644497,3.70170518 C13.0144678,3.70170518 15.7611547,7.15570899 15.7611547,10 L15.7611547,10 L17.6483516,10 C17.6483516,5.29728307 14.0568705,1.66666667 9.62644497,1.66666667 L9.62644497,1.66666667 C5.19601941,1.66666667 1.6043956,5.29728307 1.6043956,10" id="path-5"></path>
    </defs>
    <g id="Artboard" stroke="none" stroke-width="1" fill="none" fill-rule="evenodd" transform="translate(-40.000000, -46.000000)">
        <g id="Group-2" transform="translate(40.000000, 46.000000)">
            <path d="M60.156,26 L57.096,26 C56.5919975,26 56.34,25.7480025 56.34,25.244 L56.34,3.608 C56.34,3.10399748 56.5919975,2.852 57.096,2.852 L65.88,2.852 C67.7520094,2.852 69.2039948,3.3619949 70.236,4.382 C71.2680052,5.4020051 71.784,6.84799064 71.784,8.72 L71.784,12.176 C71.784,14.0480094 71.2680052,15.4939949 70.236,16.514 C69.2039948,17.5340051 67.7520094,18.044 65.88,18.044 L61.344,18.044 C61.0559986,18.044 60.912,18.1759987 60.912,18.44 L60.912,25.244 C60.912,25.7480025 60.6600025,26 60.156,26 Z M61.308,14.048 L65.124,14.048 C65.8920038,14.048 66.4319984,13.8860016 66.744,13.562 C67.0560016,13.2379984 67.212,12.7040037 67.212,11.96 L67.212,8.936 C67.212,8.16799616 67.0560016,7.62200162 66.744,7.298 C66.4319984,6.97399838 65.8920038,6.812 65.124,6.812 L61.308,6.812 C61.0439987,6.812 60.912,6.94399868 60.912,7.208 L60.912,13.652 C60.912,13.9160013 61.0439987,14.048 61.308,14.048 Z M83.844,26 L80.64,26 C78.7439905,26 77.2800052,25.496005 76.248,24.488 C75.2159948,23.479995 74.7,22.0280095 74.7,20.132 L74.7,13.508 C74.7,11.6119905 75.2159948,10.160005 76.248,9.152 C77.2800052,8.14399496 78.7439905,7.64 80.64,7.64 L83.844,7.64 C85.7160094,7.64 87.1739948,8.1499949 88.218,9.17 C89.2620052,10.1900051 89.784,11.6359906 89.784,13.508 L89.784,20.132 C89.784,22.0040094 89.2620052,23.4499949 88.218,24.47 C87.1739948,25.4900051 85.7160094,26 83.844,26 Z M81.324,22.076 L83.16,22.076 C83.9280038,22.076 84.4739984,21.9200016 84.798,21.608 C85.1220016,21.2959984 85.284,20.7560038 85.284,19.988 L85.284,13.652 C85.284,12.8839962 85.1220016,12.3440016 84.798,12.032 C84.4739984,11.7199984 83.9280038,11.564 83.16,11.564 L81.324,11.564 C80.5559962,11.564 80.0160016,11.7199984 79.704,12.032 C79.3919984,12.3440016 79.236,12.8839962 79.236,13.652 L79.236,19.988 C79.236,20.7560038 79.3919984,21.2959984 79.704,21.608 C80.0160016,21.9200016 80.5559962,22.076 81.324,22.076 Z M100.728,26 L96.624,26 C96.1679977,26 95.8800006,25.7480025 95.76,25.244 L92.16,8.396 C92.0639995,7.89199748 92.2439977,7.64 92.7,7.64 L96.156,7.64 C96.6840026,7.64 96.9719998,7.89199748 97.02,8.396 L98.64,20.708 L98.928,20.708 L101.484,8.396 C101.556,7.89199748 101.831998,7.64 102.312,7.64 L105.48,7.64 C105.984003,7.64 106.284,7.89199748 106.38,8.396 L108.864,20.708 L109.152,20.708 L110.808,8.396 C110.88,7.89199748 111.167997,7.64 111.672,7.64 L115.128,7.64 C115.608002,7.64 115.788001,7.89199748 115.668,8.396 L112.068,25.244 C111.972,25.7480025 111.684002,26 111.204,26 L107.1,26 C106.619998,26 106.332,25.7480025 106.236,25.244 L104.04,13.076 L103.752,13.076 L101.592,25.244 C101.52,25.7480025 101.232003,26 100.728,26 Z M131.976,26 L124.02,26 C122.123991,26 120.660005,25.496005 119.628,24.488 C118.595995,23.479995 118.08,22.0280095 118.08,20.132 L118.08,13.508 C118.08,11.6119905 118.595995,10.160005 119.628,9.152 C120.660005,8.14399496 122.123991,7.64 124.02,7.64 L126.864,7.64 C128.760009,7.64 130.223995,8.14399496 131.256,9.152 C132.288005,10.160005 132.804,11.6119905 132.804,13.508 L132.804,18.08 C132.804,18.5840025 132.552003,18.836 132.048,18.836 L123.012,18.836 C122.723999,18.836 122.58,18.9679987 122.58,19.232 L122.58,20.024 C122.58,20.7680037 122.741998,21.3019984 123.066,21.626 C123.390002,21.9500016 123.935996,22.112 124.704,22.112 L131.976,22.112 C132.480003,22.112 132.732,22.3759974 132.732,22.904 L132.732,25.28 C132.732,25.5440013 132.678001,25.7299995 132.57,25.838 C132.461999,25.9460005 132.264001,26 131.976,26 Z M123.012,15.776 L127.908,15.776 C128.172001,15.776 128.304,15.6440013 128.304,15.38 L128.304,13.652 C128.304,12.8839962 128.148002,12.3440016 127.836,12.032 C127.523998,11.7199984 126.984004,11.564 126.216,11.564 L124.704,11.564 C123.935996,11.564 123.396002,11.7199984 123.084,12.032 C122.771998,12.3440016 122.616,12.8839962 122.616,13.652 L122.616,15.38 C122.616,15.6440013 122.747999,15.776 123.012,15.776 Z M140.04,26 L136.98,26 C136.475997,26 136.224,25.7480025 136.224,25.244 L136.224,8.396 C136.224,7.89199748 136.475997,7.64 136.98,7.64 L140.04,7.64 C140.544003,7.64 140.796,7.89199748 140.796,8.396 L140.796,9.62 L140.94,9.62 C141.204001,8.97199676 141.671997,8.48000168 142.344,8.144 C143.016003,7.80799832 143.723996,7.64 144.468,7.64 L145.764,7.64 C146.244002,7.64 146.484,7.89199748 146.484,8.396 L146.484,10.88 C146.484,11.1680014 146.430001,11.3659995 146.322,11.474 C146.213999,11.5820005 146.028001,11.6240001 145.764,11.6 L143.28,11.6 C141.623992,11.6 140.796,12.5359906 140.796,14.408 L140.796,25.244 C140.796,25.7480025 140.544003,26 140.04,26 Z M152.964,26 L149.904,26 C149.399997,26 149.148,25.7480025 149.148,25.244 L149.148,3.608 C149.148,3.10399748 149.399997,2.852 149.904,2.852 L158.688,2.852 C160.560009,2.852 162.011995,3.3619949 163.044,4.382 C164.076005,5.4020051 164.592,6.84799064 164.592,8.72 L164.592,12.176 C164.592,14.0480094 164.076005,15.4939949 163.044,16.514 C162.011995,17.5340051 160.560009,18.044 158.688,18.044 L154.152,18.044 C153.863999,18.044 153.72,18.1759987 153.72,18.44 L153.72,25.244 C153.72,25.7480025 153.468003,26 152.964,26 Z M154.116,14.048 L157.932,14.048 C158.700004,14.048 159.239998,13.8860016 159.552,13.562 C159.864002,13.2379984 160.02,12.7040037 160.02,11.96 L160.02,8.936 C160.02,8.16799616 159.864002,7.62200162 159.552,7.298 C159.239998,6.97399838 158.700004,6.812 157.932,6.812 L154.116,6.812 C153.851999,6.812 153.72,6.94399868 153.72,7.208 L153.72,13.652 C153.72,13.9160013 153.851999,14.048 154.116,14.048 Z M174.492,26 L173.304,26 C171.455991,26 170.058005,25.496005 169.11,24.488 C168.161995,23.479995 167.688,22.0280095 167.688,20.132 L167.688,8.396 C167.688,7.89199748 167.939997,7.64 168.444,7.64 L171.504,7.64 C172.008003,7.64 172.26,7.89199748 172.26,8.396 L172.26,19.916 C172.26,20.6840038 172.421998,21.2299984 172.746,21.554 C173.070002,21.8780016 173.603996,22.04 174.348,22.04 L175.68,22.04 C177.336008,22.04 178.164,21.1280091 178.164,19.304 L178.164,8.396 C178.164,7.89199748 178.415997,7.64 178.92,7.64 L181.944,7.64 C182.472003,7.64 182.736,7.89199748 182.736,8.396 L182.736,25.244 C182.736,25.7480025 182.472003,26 181.944,26 L178.92,26 C178.415997,26 178.164,25.7480025 178.164,25.244 L178.164,24.056 L178.02,24.056 C177.755999,24.7040032 177.288003,25.1899984 176.616,25.514 C175.943997,25.8380016 175.236004,26 174.492,26 Z M190.692,26 L187.632,26 C187.127997,26 186.876,25.7480025 186.876,25.244 L186.876,1.448 C186.876,0.94399748 187.127997,0.692 187.632,0.692 L190.692,0.692 C191.196003,0.692 191.448,0.94399748 191.448,1.448 L191.448,25.244 C191.448,25.7480025 191.196003,26 190.692,26 Z M202.536,26 L195.696,26 C195.215998,26 194.976,25.7480025 194.976,25.244 L194.976,22.94 C194.976,22.6759987 195.024,22.4900005 195.12,22.382 C195.216,22.2739995 195.407999,22.22 195.696,22.22 L201.708,22.22 C202.884006,22.22 203.472,21.8600036 203.472,21.14 L203.472,20.96 C203.472,20.3839971 202.980005,19.8320026 201.996,19.304 L198.432,17.324 C197.207994,16.6999969 196.308003,16.0280036 195.732,15.308 C195.155997,14.5879964 194.868,13.6640056 194.868,12.536 C194.868,10.8559916 195.311996,9.62000396 196.2,8.828 C197.088004,8.03599604 198.479991,7.64 200.376,7.64 L206.388,7.64 C206.868002,7.64 207.108,7.89199748 207.108,8.396 L207.108,10.736 C207.108,11.0000013 207.06,11.1859995 206.964,11.294 C206.868,11.4020005 206.676001,11.456 206.388,11.456 L201.384,11.456 C200.207994,11.456 199.62,11.755997 199.62,12.356 L199.62,12.536 C199.62,13.0640026 200.135995,13.6039972 201.168,14.156 L204.804,16.316 C206.052006,16.9880034 206.927997,17.6779965 207.432,18.386 C207.936003,19.0940035 208.188,20.0239942 208.188,21.176 C208.188,24.3920161 206.304019,26 202.536,26 Z M224.892,26 L216.936,26 C215.039991,26 213.576005,25.496005 212.544,24.488 C211.511995,23.479995 210.996,22.0280095 210.996,20.132 L210.996,13.508 C210.996,11.6119905 211.511995,10.160005 212.544,9.152 C213.576005,8.14399496 215.039991,7.64 216.936,7.64 L219.78,7.64 C221.676009,7.64 223.139995,8.14399496 224.172,9.152 C225.204005,10.160005 225.72,11.6119905 225.72,13.508 L225.72,18.08 C225.72,18.5840025 225.468003,18.836 224.964,18.836 L215.928,18.836 C215.639999,18.836 215.496,18.9679987 215.496,19.232 L215.496,20.024 C215.496,20.7680037 215.657998,21.3019984 215.982,21.626 C216.306002,21.9500016 216.851996,22.112 217.62,22.112 L224.892,22.112 C225.396003,22.112 225.648,22.3759974 225.648,22.904 L225.648,25.28 C225.648,25.5440013 225.594001,25.7299995 225.486,25.838 C225.377999,25.9460005 225.180001,26 224.892,26 Z M215.928,15.776 L220.824,15.776 C221.088001,15.776 221.22,15.6440013 221.22,15.38 L221.22,13.652 C221.22,12.8839962 221.064002,12.3440016 220.752,12.032 C220.439998,11.7199984 219.900004,11.564 219.132,11.564 L217.62,11.564 C216.851996,11.564 216.312002,11.7199984 216,12.032 C215.687998,12.3440016 215.532,12.8839962 215.532,13.652 L215.532,15.38 C215.532,15.6440013 215.663999,15.776 215.928,15.776 Z" id="PowerPulse" fill="#FFFFFF"></path>
            <path d="M2.76214079,29.1537238 C5.06799504,38.4628338 13.4781131,45.3636364 23.5,45.3636364 C33.5218869,45.3636364 41.932005,38.4628338 44.2378592,29.1537238 L37.1942648,29.1537238 C36.8920715,29.1537238 36.6070552,28.9987457 36.424365,28.7336268 L33.1554504,24.0028907 L28.4851341,41.3984057 C28.3634838,41.8519623 27.9841165,42.1590909 27.5589232,42.1590909 C27.0345939,42.1197741 26.6656555,41.7418215 26.6014869,41.247871 L22.8750494,12.4445691 L19.8122593,29.069839 C19.736803,29.4785584 19.4495782,29.8013059 19.0784927,29.8934041 C18.706855,29.9859062 18.3217211,29.829851 18.0928983,29.4964664 L13.8117035,23.2479953 L11.1440468,28.6018079 C10.9746688,28.9421269 10.6492865,29.1537238 10.2964209,29.1537238 L2.76214079,29.1537238 Z M2.35001708,27.033042 L9.72332101,27.033042 L12.8352497,20.7873312 C12.9926651,20.4709794 13.2857791,20.2645663 13.6133699,20.2385122 C13.9366665,20.2109097 14.2575092,20.3706677 14.4551679,20.6587438 L18.344542,26.3351021 L22.0947207,5.97891332 C22.1881516,5.47311389 22.5978241,5.11340586 23.0699475,5.12929415 C23.5401078,5.14417258 23.9321739,5.52865555 23.9981828,6.04004281 L27.8885385,36.113936 L31.8420811,21.3896048 C31.944898,21.0057951 32.2358036,20.7184596 32.5950493,20.646289 C32.9526386,20.5735126 33.3184483,20.7299718 33.5385599,21.0486127 L37.6739338,27.033042 L44.6499829,27.033042 C44.7907945,26.0422891 44.8636364,25.0296511 44.8636364,24 C44.8636364,12.2011894 35.2988106,2.63636364 23.5,2.63636364 C11.7011894,2.63636364 2.13636364,12.2011894 2.13636364,24 C2.13636364,25.0296511 2.20920546,26.0422891 2.35001708,27.033042 Z M23.5,47.5 C10.5213084,47.5 0,36.9786916 0,24 C0,11.0213084 10.5213084,0.5 23.5,0.5 C36.4786916,0.5 47,11.0213084 47,24 C47,36.9786916 36.4786916,47.5 23.5,47.5 Z" id="Combined-Shape" fill="#1199FF" fill-rule="nonzero"></path>
            <g id="Group" transform="translate(81.000000, 36.000000)">
                <path d="M1.438,8 L1.033,8 C0.94899958,8 0.907,7.95800042 0.907,7.874 L0.907,2.339 C0.907,2.25499958 0.94899958,2.213 1.033,2.213 L3.139,2.213 C3.55300207,2.213 3.87699883,2.33149881 4.111,2.5685 C4.34500117,2.80550118 4.462,3.13099793 4.462,3.545 L4.462,4.544 C4.462,4.9640021 4.34500117,5.29099883 4.111,5.525 C3.87699883,5.75900117 3.55300207,5.876 3.139,5.876 L1.654,5.876 C1.5939997,5.876 1.564,5.90299973 1.564,5.957 L1.564,7.874 C1.564,7.95800042 1.52200042,8 1.438,8 Z M1.654,5.291 L3.049,5.291 C3.55300252,5.291 3.805,5.03300258 3.805,4.517 L3.805,3.572 C3.805,3.04999739 3.55300252,2.789 3.049,2.789 L1.654,2.789 C1.5939997,2.789 1.564,2.81599973 1.564,2.87 L1.564,5.21 C1.564,5.26400027 1.5939997,5.291 1.654,5.291 Z M7.567,8 L6.793,8 C6.37899793,8 6.05350118,7.88300117 5.8165,7.649 C5.57949881,7.41499883 5.461,7.0880021 5.461,6.668 L5.461,4.742 C5.461,4.3219979 5.57949881,3.99500117 5.8165,3.761 C6.05350118,3.52699883 6.37899793,3.41 6.793,3.41 L7.567,3.41 C7.98100207,3.41 8.30649881,3.52699883 8.5435,3.761 C8.78050118,3.99500117 8.899,4.3219979 8.899,4.742 L8.899,6.668 C8.899,7.0880021 8.78050118,7.41499883 8.5435,7.649 C8.30649881,7.88300117 7.98100207,8 7.567,8 Z M6.865,7.424 L7.495,7.424 C7.99900252,7.424 8.251,7.16600258 8.251,6.65 L8.251,4.76 C8.251,4.24399742 7.99900252,3.986 7.495,3.986 L6.865,3.986 C6.36099748,3.986 6.109,4.24399742 6.109,4.76 L6.109,6.65 C6.109,7.16600258 6.36099748,7.424 6.865,7.424 Z M11.473,8 L10.924,8 C10.8399996,8 10.7890001,7.95800042 10.771,7.874 L9.619,3.536 C9.60099991,3.45199958 9.63099961,3.41 9.709,3.41 L10.168,3.41 C10.2460004,3.41 10.2939999,3.45199958 10.312,3.536 L11.185,7.208 L11.239,7.208 L12.166,3.536 C12.1840001,3.45199958 12.2319996,3.41 12.31,3.41 L12.724,3.41 C12.8080004,3.41 12.8619999,3.45199958 12.886,3.536 L13.786,7.208 L13.84,7.208 L14.722,3.536 C14.7400001,3.45199958 14.7879996,3.41 14.866,3.41 L15.325,3.41 C15.4030004,3.41 15.4330001,3.45199958 15.415,3.536 L14.263,7.874 C14.2449999,7.95800042 14.1940004,8 14.11,8 L13.552,8 C13.4739996,8 13.4260001,7.95800042 13.408,7.874 L12.535,4.292 L12.49,4.292 L11.626,7.874 C11.6079999,7.95800042 11.5570004,8 11.473,8 Z M19.375,8 L17.467,8 C17.0529979,8 16.7275012,7.88300117 16.4905,7.649 C16.2534988,7.41499883 16.135,7.0880021 16.135,6.668 L16.135,4.742 C16.135,4.3219979 16.2534988,3.99500117 16.4905,3.761 C16.7275012,3.52699883 17.0529979,3.41 17.467,3.41 L18.223,3.41 C18.6370021,3.41 18.9609988,3.52699883 19.195,3.761 C19.4290012,3.99500117 19.546,4.3219979 19.546,4.742 L19.546,5.885 C19.546,5.97500045 19.5040004,6.02 19.42,6.02 L16.873,6.02 C16.8129997,6.02 16.783,6.04699973 16.783,6.101 L16.783,6.65 C16.783,7.17200261 17.0349975,7.433 17.539,7.433 L19.375,7.433 C19.4590004,7.433 19.501,7.47499958 19.501,7.559 L19.501,7.883 C19.501,7.96100039 19.4590004,8 19.375,8 Z M16.873,5.543 L18.817,5.543 C18.8770003,5.543 18.907,5.5130003 18.907,5.453 L18.907,4.76 C18.907,4.24399742 18.6550025,3.986 18.151,3.986 L17.539,3.986 C17.0349975,3.986 16.783,4.24399742 16.783,4.76 L16.783,5.453 C16.783,5.5130003 16.8129997,5.543 16.873,5.543 Z M21.184,8 L20.779,8 C20.6949996,8 20.653,7.95800042 20.653,7.874 L20.653,3.536 C20.653,3.45199958 20.6949996,3.41 20.779,3.41 L21.184,3.41 C21.2680004,3.41 21.31,3.45199958 21.31,3.536 L21.31,3.896 L21.346,3.896 C21.4060003,3.76399934 21.5199992,3.65000048 21.688,3.554 C21.8560008,3.45799952 22.0539989,3.41 22.282,3.41 L22.633,3.41 C22.7110004,3.41 22.75,3.45199958 22.75,3.536 L22.75,3.869 C22.75,3.91100021 22.7410001,3.94249989 22.723,3.9635 C22.7049999,3.9845001 22.6750002,3.99200003 22.633,3.986 L22.147,3.986 C21.8769986,3.986 21.6700007,4.06699919 21.526,4.229 C21.3819993,4.39100081 21.31,4.61299859 21.31,4.895 L21.31,7.874 C21.31,7.95800042 21.2680004,8 21.184,8 Z M26.71,8 L24.802,8 C24.3879979,8 24.0625012,7.88300117 23.8255,7.649 C23.5884988,7.41499883 23.47,7.0880021 23.47,6.668 L23.47,4.742 C23.47,4.3219979 23.5884988,3.99500117 23.8255,3.761 C24.0625012,3.52699883 24.3879979,3.41 24.802,3.41 L25.558,3.41 C25.9720021,3.41 26.2959988,3.52699883 26.53,3.761 C26.7640012,3.99500117 26.881,4.3219979 26.881,4.742 L26.881,5.885 C26.881,5.97500045 26.8390004,6.02 26.755,6.02 L24.208,6.02 C24.1479997,6.02 24.118,6.04699973 24.118,6.101 L24.118,6.65 C24.118,7.17200261 24.3699975,7.433 24.874,7.433 L26.71,7.433 C26.7940004,7.433 26.836,7.47499958 26.836,7.559 L26.836,7.883 C26.836,7.96100039 26.7940004,8 26.71,8 Z M24.208,5.543 L26.152,5.543 C26.2120003,5.543 26.242,5.5130003 26.242,5.453 L26.242,4.76 C26.242,4.24399742 25.9900025,3.986 25.486,3.986 L24.874,3.986 C24.3699975,3.986 24.118,4.24399742 24.118,4.76 L24.118,5.453 C24.118,5.5130003 24.1479997,5.543 24.208,5.543 Z M29.725,8 L29.194,8 C28.785998,8 28.4680011,7.88300117 28.24,7.649 C28.0119989,7.41499883 27.898,7.0880021 27.898,6.668 L27.898,4.742 C27.898,4.3219979 28.0119989,3.99500117 28.24,3.761 C28.4680011,3.52699883 28.785998,3.41 29.194,3.41 L29.725,3.41 C30.1930023,3.41 30.5019992,3.56899841 30.652,3.887 L30.688,3.887 L30.688,1.799 C30.688,1.71499958 30.7269996,1.673 30.805,1.673 L31.219,1.673 C31.2970004,1.673 31.336,1.71499958 31.336,1.799 L31.336,7.874 C31.336,7.95800042 31.2970004,8 31.219,8 L30.805,8 C30.7269996,8 30.688,7.95800042 30.688,7.874 L30.688,7.523 L30.652,7.523 C30.5019992,7.84100159 30.1930023,8 29.725,8 Z M30.688,6.596 L30.688,4.814 C30.688,4.54999868 30.6160007,4.34600072 30.472,4.202 C30.3279993,4.05799928 30.1210013,3.986 29.851,3.986 L29.302,3.986 C28.8039975,3.986 28.555,4.24699739 28.555,4.769 L28.555,6.641 C28.555,7.16300261 28.8039975,7.424 29.302,7.424 L29.851,7.424 C30.1210013,7.424 30.3279993,7.35200072 30.472,7.208 C30.6160007,7.06399928 30.688,6.86000132 30.688,6.596 Z M35.611,7.424 L36.889,7.424 C37.3990025,7.424 37.654,7.16300261 37.654,6.641 L37.654,4.715 C37.654,4.19299739 37.3990025,3.932 36.889,3.932 L36.358,3.932 C36.0879986,3.932 35.8810007,4.00399928 35.737,4.148 C35.5929993,4.29200072 35.521,4.49299871 35.521,4.751 L35.521,7.343 C35.521,7.39700027 35.5509997,7.424 35.611,7.424 Z M34.864,7.874 L34.864,1.799 C34.864,1.71499958 34.9059996,1.673 34.99,1.673 L35.395,1.673 C35.4790004,1.673 35.521,1.71499958 35.521,1.799 L35.521,3.833 L35.557,3.833 C35.7070007,3.51499841 36.0129977,3.356 36.475,3.356 L36.979,3.356 C37.387002,3.356 37.7094988,3.47299883 37.9465,3.707 C38.1835012,3.94100117 38.302,4.26499793 38.302,4.679 L38.302,6.668 C38.302,7.0880021 38.1835012,7.41499883 37.9465,7.649 C37.7094988,7.88300117 37.387002,8 36.979,8 L34.99,8 C34.9059996,8 34.864,7.95800042 34.864,7.874 Z M39.823,9.413 L39.427,9.413 C39.3429996,9.413 39.301,9.37100042 39.301,9.287 L39.301,8.954 C39.301,8.86999958 39.3429996,8.828 39.427,8.828 L39.652,8.828 C40.0360019,8.828 40.3059992,8.72000108 40.462,8.504 C40.5880006,8.32999913 40.7019995,8.08100162 40.804,7.757 L40.543,7.757 C40.4709996,7.757 40.4200002,7.71500042 40.39,7.631 L39.067,3.536 C39.0429999,3.45199958 39.0729996,3.41 39.157,3.41 L39.589,3.41 C39.6670004,3.41 39.7179999,3.45199958 39.742,3.536 L40.903,7.244 L40.939,7.244 L42.1,3.536 C42.1180001,3.45199958 42.1659996,3.41 42.244,3.41 L42.658,3.41 C42.7600005,3.41 42.7960002,3.45499955 42.766,3.545 L41.425,7.82 C41.2749993,8.33000255 41.0845012,8.72299862 40.8535,8.999 C40.6224988,9.27500138 40.2790023,9.413 39.823,9.413 Z" id="Powered-by" fill="#FFFFFF" opacity="0.660269475"></path>
                <g id="Arc-logo" transform="translate(50.000000, 0.000000)">
                    <g id="Fill-1">
                        <use fill="url(#linearGradient-1)" xlink:href="#path-3"></use>
                        <use fill="url(#linearGradient-2)" xlink:href="#path-3"></use>
                    </g>
                    <g id="Fill-3">
                        <use fill="url(#linearGradient-2)" xlink:href="#path-5"></use>
                        <use fill="url(#linearGradient-4)" style="mix-blend-mode: multiply;" xlink:href="#path-5"></use>
                    </g>
                    <polyline id="Fill-5" fill="#9A0013" points="0 10 2.33366373 8.33333333 4.01098901 10"></polyline>
                    <polyline id="Fill-8" fill="#417900" points="20.0549451 10 17.7072706 8.33333333 16.043956 10"></polyline>
                    <g id="Group-16" transform="translate(22.461538, 0.833333)" fill="#FFFFFF">
                        <path d="M7.67372801,1.53659681 L6.47872356,3.05254012 C5.94508403,2.3567244 5.15613405,1.92185836 4.43666108,1.92185836 C3.1487399,1.92185836 2.17409685,3.01526159 2.17409685,4.44432188 C2.17409685,5.8980341 3.1487399,7.00391361 4.43666108,7.00391361 C5.12118501,7.00391361 5.91027535,6.60647642 6.47872356,5.98506743 L7.68537769,7.35189663 C6.81516068,8.30866204 5.52737986,8.94239699 4.33223504,8.94239699 C1.88411808,8.94239699 0.0625573746,7.0163899 0.0625573746,4.46912413 C0.0625573746,1.95913689 1.93057644,0.0704083138 4.4018524,0.0704083138 C5.60850654,0.0704083138 6.86161904,0.641912176 7.67372801,1.53659681" id="Fill-15"></path>
                        <polygon id="Fill-18" points="14.0545241 8.84294751 14.0545241 5.46322819 10.6898721 5.46322819 10.6898721 8.84294751 8.62451028 8.84294751 8.62451028 0.144875177 10.6898721 0.144875177 10.6898721 3.72346341 14.0545241 3.72346341 14.0545241 0.144875177 16.1197456 0.144875177 16.1197456 8.84294751"></polygon>
                        <path d="M21.3752528,2.34432327 L20.1917576,5.56260252 L22.5354486,5.56260252 L21.3752528,2.34432327 Z M19.5885008,7.2399859 L18.9967532,8.84296254 L16.8734237,8.84296254 L20.3774507,0.144890209 L22.5006399,0.144890209 L25.9233999,8.84296254 L23.7189437,8.84296254 L23.1387054,7.2399859 L19.5885008,7.2399859 Z" id="Fill-20"></path>
                        <polygon id="Fill-22" points="26.6769236 8.8429926 28.7421451 8.8429926 28.7421451 0.144920272 26.6769236 0.144920272"></polygon>
                        <polygon id="Fill-24" points="33.5105553 5.42588954 32.4316266 6.70583572 32.4316266 8.84288738 30.3662648 8.84288738 30.3662648 0.144965367 32.4316266 0.144965367 32.4316266 3.90994623 35.5409681 0.144965367 37.9311174 0.144965367 34.9144119 3.74835584 38.1283198 8.84288738 35.6569035 8.84288738"></polygon>
                        <polygon id="Fill-25" points="39.032742 8.8429926 41.0979634 8.8429926 41.0979634 0.144920272 39.032742 0.144920272"></polygon>
                        <polygon id="Fill-26" points="48.3957998 8.84294751 44.6597617 3.48746628 44.6597617 8.84294751 42.7221253 8.84294751 42.7221253 0.144875177 44.543686 0.144875177 48.2913738 5.51283268 48.2913738 0.144875177 50.2173605 0.144875177 50.2173605 8.84294751"></polygon>
                    </g>
                </g>
            </g>
        </g>
    </g>
</svg>