<?xml version="1.0" encoding="UTF-8"?>
<svg width="232px" height="53px" viewBox="0 0 232 53" version="1.1" xmlns="http://www.w3.org/2000/svg" xmlns:xlink="http://www.w3.org/1999/xlink">
    <!-- Generator: Sketch 47.1 (45422) - http://www.bohemiancoding.com/sketch -->
    <title>Group 2</title>
    <desc>Created with Sketch.</desc>
    <defs>
        <linearGradient x1="50%" y1="0%" x2="50%" y2="100%" id="linearGradient-1">
            <stop stop-color="#FFFFFF" offset="0%"></stop>
            <stop stop-color="#000000" offset="100%"></stop>
        </linearGradient>
        <linearGradient x1="100%" y1="99.9999642%" x2="0%" y2="99.9999642%" id="linearGradient-2">
            <stop stop-color="#24A300" offset="0%"></stop>
            <stop stop-color="#61C600" offset="15.784275%"></stop>
            <stop stop-color="#FFBE00" offset="49.7297588%"></stop>
            <stop stop-color="#EF5A00" offset="80.5537501%"></stop>
            <stop stop-color="#E00000" offset="100%"></stop>
        </linearGradient>
        <path d="M12.5,0 C5.596351,0 0,5.37274229 0,12 L4.93952467,12 C4.93952467,7.99158347 8.32427204,4.74184119 12.5,4.74184119 C16.6755514,4.74184119 20.0897774,7.99158347 20.0897774,12 L25,12 C25,5.37274229 19.403296,0 12.5,0 Z" id="path-3"></path>
        <linearGradient x1="50%" y1="-26.3277395%" x2="50%" y2="154.299402%" id="linearGradient-4">
            <stop stop-color="#FFFFFF" stop-opacity="0.5" offset="0%"></stop>
            <stop stop-color="#000000" stop-opacity="0.5" offset="100%"></stop>
        </linearGradient>
        <path d="M2,12 L4.3822355,12 C4.3822355,8.58685079 7.77630748,4.44204622 12.0000889,4.44204622 L12.0000889,4.44204622 C16.2235147,4.44204622 19.6474669,8.58685079 19.6474669,12 L19.6474669,12 L22,12 C22,6.35673968 17.5229482,2 12.0000889,2 L12.0000889,2 C6.47722968,2 2,6.35673968 2,12" id="path-5"></path>
    </defs>
    <g id="Phone" stroke="none" stroke-width="1" fill="none" fill-rule="evenodd">
        <g id="PSP--Navigation" transform="translate(-20.000000, -53.000000)">
            <g id="Group-2" transform="translate(20.000000, 47.000000)">
                <text id="PowerPulse" font-family="Rajdhani-SemiBold, Rajdhani" font-size="36" font-weight="500" fill="#FFFFFF">
                    <tspan x="61.5" y="33">PowerPulse</tspan>
                </text>
                <path d="M34.2833067,59 C34.2509217,59 34.2175112,58.9985546 34.1847843,58.9960494 C33.5529765,58.9437275 33.039088,58.4027789 32.9497086,57.6958072 L27.7592118,16.4707867 L23.4930992,40.2658744 C23.3879972,40.8508581 22.9879264,41.3127939 22.4710471,41.4446103 C21.9533987,41.5770049 21.4169517,41.3536493 21.098228,40.8764891 L15.1350184,31.933301 L11.419281,39.5960001 C11.1833571,40.083085 10.7301371,40.3859353 10.2386361,40.3859353 L1.34581728,40.3859353 C0.602328001,40.3859353 0,39.7067143 0,38.8683115 C0,38.0299087 0.602328001,37.3506878 1.34581728,37.3506878 L9.44037418,37.3506878 L13.7749312,28.4114503 C13.9941926,27.9586685 14.4024666,27.6632377 14.8587627,27.6259475 C15.3090775,27.5864412 15.7559742,27.8150965 16.03129,28.2274083 L21.4487386,36.3517541 L26.6723041,7.21675073 C26.8024425,6.49282012 27.373069,5.97798433 28.0306823,6.0007246 C28.6855613,6.02201951 29.2316641,6.5723147 29.3236069,7.30424295 L34.7424227,50.3478102 L40.2492506,29.2734606 C40.3924627,28.724129 40.7976605,28.3128771 41.2980482,28.2095823 C41.7961287,28.1054203 42.3056594,28.3293541 42.6122494,28.7854121 L48.3723474,37.3506878 L56.0757201,37.3506878 C56.8192094,37.3506878 57.4215374,38.0299087 57.4215374,38.8683115 C57.4215374,39.7067143 56.8192094,40.3859353 56.0757201,40.3859353 L47.7042239,40.3859353 C47.2833035,40.3859353 46.8863088,40.1641213 46.6318425,39.7846672 L42.0786222,33.0137527 L35.5734114,57.9112615 C35.4039666,58.5604191 34.8755518,59 34.2833067,59" id="Fill-1" fill="#1199FF"></path>
                <text id="Powered-by" opacity="0.660269475" font-family="Rajdhani-Medium, Rajdhani" font-size="12" font-weight="400" fill="#FFFFFF">
                    <tspan x="63.464" y="54">Powered by</tspan>
                </text>
                <g id="Arc-logo" transform="translate(127.000000, 42.000000)">
                    <g id="Fill-1">
                        <use fill="url(#linearGradient-1)" xlink:href="#path-3"></use>
                        <use fill="url(#linearGradient-2)" xlink:href="#path-3"></use>
                    </g>
                    <g id="Fill-3">
                        <use fill="url(#linearGradient-2)" xlink:href="#path-5"></use>
                        <use fill="url(#linearGradient-4)" style="mix-blend-mode: multiply;" xlink:href="#path-5"></use>
                    </g>
                    <polyline id="Fill-5" fill="#9A0013" points="0 12 2.90908766 10 5 12"></polyline>
                    <polyline id="Fill-8" fill="#417900" points="25 12 22.0734469 10 20 12"></polyline>
                    <g id="Group-16" transform="translate(28.000000, 1.000000)" fill="#FFFFFF">
                        <path d="M9.56588013,1.84391618 L8.07621703,3.66304814 C7.41099516,2.82806928 6.42750957,2.30623003 5.53063231,2.30623003 C3.92514152,2.30623003 2.71017552,3.61831391 2.71017552,5.33318626 C2.71017552,7.07764092 3.92514152,8.40469634 5.53063231,8.40469634 C6.38394296,8.40469634 7.36760351,7.9277717 8.07621703,7.18208092 L9.58040233,8.82227596 C8.49561126,9.97039445 6.89029544,10.7308764 5.40045738,10.7308764 C2.34869515,10.7308764 0.0779824807,8.41966787 0.0779824807,5.36294895 C0.0779824807,2.35096426 2.40660899,0.0844899766 5.48724067,0.0844899766 C6.99142596,0.0844899766 8.55352511,0.770294611 9.56588013,1.84391618" id="Fill-15"></path>
                        <polygon id="Fill-18" points="17.5200232 10.611537 17.5200232 6.55587383 13.325731 6.55587383 13.325731 10.611537 10.7511019 10.611537 10.7511019 0.173850212 13.325731 0.173850212 13.325731 4.46815609 17.5200232 4.46815609 17.5200232 0.173850212 20.0944773 0.173850212 20.0944773 10.611537"></polygon>
                        <path d="M26.6458631,2.81318793 L25.1705472,6.67512302 L28.0921345,6.67512302 L26.6458631,2.81318793 Z M24.418542,8.68798308 L23.6808841,10.611555 L21.0339939,10.611555 L25.4020276,0.17386825 L28.0487429,0.17386825 L32.3154711,10.611555 L29.5674504,10.611555 L28.8441397,8.68798308 L24.418542,8.68798308 Z" id="Fill-20"></path>
                        <polygon id="Fill-22" points="33.2547952 10.6115911 35.8292493 10.6115911 35.8292493 0.173904326 33.2547952 0.173904326"></polygon>
                        <polygon id="Fill-24" points="41.773432 6.51106744 40.428466 8.04700286 40.428466 10.6114649 37.8538369 10.6114649 37.8538369 0.17395844 40.428466 0.17395844 40.428466 4.69193548 44.3044945 0.17395844 47.2839957 0.17395844 43.523445 4.49802701 47.5298233 10.6114649 44.4490167 10.6114649"></polygon>
                        <polygon id="Fill-25" points="48.6572537 10.6115911 51.2317079 10.6115911 51.2317079 0.173904326 48.6572537 0.173904326"></polygon>
                        <polygon id="Fill-26" points="60.3290107 10.611537 55.6717577 4.18495954 55.6717577 10.611537 53.2563479 10.611537 53.2563479 0.173850212 55.5270606 0.173850212 60.1988358 6.61539922 60.1988358 0.173850212 62.5997234 0.173850212 62.5997234 10.611537"></polygon>
                    </g>
                </g>
            </g>
        </g>
    </g>
</svg>