<?xml version="1.0" encoding="UTF-8"?>
<svg width="234px" height="53px" viewBox="0 0 234 53" version="1.1" xmlns="http://www.w3.org/2000/svg" xmlns:xlink="http://www.w3.org/1999/xlink">
    <!-- Generator: Sketch 48.2 (47327) - http://www.bohemiancoding.com/sketch -->
    <title>logo_powerpulse</title>
    <desc>Created with Sketch.</desc>
    <defs>
        <linearGradient x1="50%" y1="0%" x2="50%" y2="100%" id="linearGradient-1">
            <stop stop-color="#FFFFFF" offset="0%"></stop>
            <stop stop-color="#000000" offset="100%"></stop>
        </linearGradient>
        <linearGradient x1="100%" y1="99.9999642%" x2="0%" y2="99.9999642%" id="linearGradient-2">
            <stop stop-color="#24A300" offset="0%"></stop>
            <stop stop-color="#61C600" offset="15.784275%"></stop>
            <stop stop-color="#FFBE00" offset="49.7297588%"></stop>
            <stop stop-color="#EF5A00" offset="80.5537501%"></stop>
            <stop stop-color="#E00000" offset="100%"></stop>
        </linearGradient>
        <linearGradient x1="50%" y1="-26.3277395%" x2="50%" y2="154.299402%" id="linearGradient-3">
            <stop stop-color="#FFFFFF" stop-opacity="0.5" offset="0%"></stop>
            <stop stop-color="#000000" stop-opacity="0.5" offset="100%"></stop>
        </linearGradient>
    </defs>
    <g id="Page-1" stroke="none" stroke-width="1" fill="none" fill-rule="evenodd">
        <g id="logo_powerpulse">
            <g id="PowerPulse" transform="translate(63.000000, 1.000000)" fill="#FFFFFF">
                <path d="M4.656,26 L1.596,26 C1.09199748,26 0.84,25.7480025 0.84,25.244 L0.84,3.608 C0.84,3.10399748 1.09199748,2.852 1.596,2.852 L10.38,2.852 C12.2520094,2.852 13.7039948,3.3619949 14.736,4.382 C15.7680052,5.4020051 16.284,6.84799064 16.284,8.72 L16.284,12.176 C16.284,14.0480094 15.7680052,15.4939949 14.736,16.514 C13.7039948,17.5340051 12.2520094,18.044 10.38,18.044 L5.844,18.044 C5.55599856,18.044 5.412,18.1759987 5.412,18.44 L5.412,25.244 C5.412,25.7480025 5.16000252,26 4.656,26 Z M5.808,14.048 L9.624,14.048 C10.3920038,14.048 10.9319984,13.8860016 11.244,13.562 C11.5560016,13.2379984 11.712,12.7040037 11.712,11.96 L11.712,8.936 C11.712,8.16799616 11.5560016,7.62200162 11.244,7.298 C10.9319984,6.97399838 10.3920038,6.812 9.624,6.812 L5.808,6.812 C5.54399868,6.812 5.412,6.94399868 5.412,7.208 L5.412,13.652 C5.412,13.9160013 5.54399868,14.048 5.808,14.048 Z M28.344,26 L25.14,26 C23.2439905,26 21.7800052,25.496005 20.748,24.488 C19.7159948,23.479995 19.2,22.0280095 19.2,20.132 L19.2,13.508 C19.2,11.6119905 19.7159948,10.160005 20.748,9.152 C21.7800052,8.14399496 23.2439905,7.64 25.14,7.64 L28.344,7.64 C30.2160094,7.64 31.6739948,8.1499949 32.718,9.17 C33.7620052,10.1900051 34.284,11.6359906 34.284,13.508 L34.284,20.132 C34.284,22.0040094 33.7620052,23.4499949 32.718,24.47 C31.6739948,25.4900051 30.2160094,26 28.344,26 Z M25.824,22.076 L27.66,22.076 C28.4280038,22.076 28.9739984,21.9200016 29.298,21.608 C29.6220016,21.2959984 29.784,20.7560038 29.784,19.988 L29.784,13.652 C29.784,12.8839962 29.6220016,12.3440016 29.298,12.032 C28.9739984,11.7199984 28.4280038,11.564 27.66,11.564 L25.824,11.564 C25.0559962,11.564 24.5160016,11.7199984 24.204,12.032 C23.8919984,12.3440016 23.736,12.8839962 23.736,13.652 L23.736,19.988 C23.736,20.7560038 23.8919984,21.2959984 24.204,21.608 C24.5160016,21.9200016 25.0559962,22.076 25.824,22.076 Z M45.228,26 L41.124,26 C40.6679977,26 40.3800006,25.7480025 40.26,25.244 L36.66,8.396 C36.5639995,7.89199748 36.7439977,7.64 37.2,7.64 L40.656,7.64 C41.1840026,7.64 41.4719998,7.89199748 41.52,8.396 L43.14,20.708 L43.428,20.708 L45.984,8.396 C46.0560004,7.89199748 46.3319976,7.64 46.812,7.64 L49.98,7.64 C50.4840025,7.64 50.7839995,7.89199748 50.88,8.396 L53.364,20.708 L53.652,20.708 L55.308,8.396 C55.3800004,7.89199748 55.6679975,7.64 56.172,7.64 L59.628,7.64 C60.1080024,7.64 60.2880006,7.89199748 60.168,8.396 L56.568,25.244 C56.4719995,25.7480025 56.1840024,26 55.704,26 L51.6,26 C51.1199976,26 50.8320005,25.7480025 50.736,25.244 L48.54,13.076 L48.252,13.076 L46.092,25.244 C46.0199996,25.7480025 45.7320025,26 45.228,26 Z M76.476,26 L68.52,26 C66.6239905,26 65.1600052,25.496005 64.128,24.488 C63.0959948,23.479995 62.58,22.0280095 62.58,20.132 L62.58,13.508 C62.58,11.6119905 63.0959948,10.160005 64.128,9.152 C65.1600052,8.14399496 66.6239905,7.64 68.52,7.64 L71.364,7.64 C73.2600095,7.64 74.7239948,8.14399496 75.756,9.152 C76.7880052,10.160005 77.304,11.6119905 77.304,13.508 L77.304,18.08 C77.304,18.5840025 77.0520025,18.836 76.548,18.836 L67.512,18.836 C67.2239986,18.836 67.08,18.9679987 67.08,19.232 L67.08,20.024 C67.08,20.7680037 67.2419984,21.3019984 67.566,21.626 C67.8900016,21.9500016 68.4359962,22.112 69.204,22.112 L76.476,22.112 C76.9800025,22.112 77.232,22.3759974 77.232,22.904 L77.232,25.28 C77.232,25.5440013 77.1780005,25.7299995 77.07,25.838 C76.9619995,25.9460005 76.7640014,26 76.476,26 Z M67.512,15.776 L72.408,15.776 C72.6720013,15.776 72.804,15.6440013 72.804,15.38 L72.804,13.652 C72.804,12.8839962 72.6480016,12.3440016 72.336,12.032 C72.0239984,11.7199984 71.4840038,11.564 70.716,11.564 L69.204,11.564 C68.4359962,11.564 67.8960016,11.7199984 67.584,12.032 C67.2719984,12.3440016 67.116,12.8839962 67.116,13.652 L67.116,15.38 C67.116,15.6440013 67.2479987,15.776 67.512,15.776 Z M84.54,26 L81.48,26 C80.9759975,26 80.724,25.7480025 80.724,25.244 L80.724,8.396 C80.724,7.89199748 80.9759975,7.64 81.48,7.64 L84.54,7.64 C85.0440025,7.64 85.296,7.89199748 85.296,8.396 L85.296,9.62 L85.44,9.62 C85.7040013,8.97199676 86.1719966,8.48000168 86.844,8.144 C87.5160034,7.80799832 88.2239963,7.64 88.968,7.64 L90.264,7.64 C90.7440024,7.64 90.984,7.89199748 90.984,8.396 L90.984,10.88 C90.984,11.1680014 90.9300005,11.3659995 90.822,11.474 C90.7139995,11.5820005 90.5280013,11.6240001 90.264,11.6 L87.78,11.6 C86.1239917,11.6 85.296,12.5359906 85.296,14.408 L85.296,25.244 C85.296,25.7480025 85.0440025,26 84.54,26 Z M97.464,26 L94.404,26 C93.8999975,26 93.648,25.7480025 93.648,25.244 L93.648,3.608 C93.648,3.10399748 93.8999975,2.852 94.404,2.852 L103.188,2.852 C105.060009,2.852 106.511995,3.3619949 107.544,4.382 C108.576005,5.4020051 109.092,6.84799064 109.092,8.72 L109.092,12.176 C109.092,14.0480094 108.576005,15.4939949 107.544,16.514 C106.511995,17.5340051 105.060009,18.044 103.188,18.044 L98.652,18.044 C98.3639986,18.044 98.22,18.1759987 98.22,18.44 L98.22,25.244 C98.22,25.7480025 97.9680025,26 97.464,26 Z M98.616,14.048 L102.432,14.048 C103.200004,14.048 103.739998,13.8860016 104.052,13.562 C104.364002,13.2379984 104.52,12.7040037 104.52,11.96 L104.52,8.936 C104.52,8.16799616 104.364002,7.62200162 104.052,7.298 C103.739998,6.97399838 103.200004,6.812 102.432,6.812 L98.616,6.812 C98.3519987,6.812 98.22,6.94399868 98.22,7.208 L98.22,13.652 C98.22,13.9160013 98.3519987,14.048 98.616,14.048 Z M118.992,26 L117.804,26 C115.955991,26 114.558005,25.496005 113.61,24.488 C112.661995,23.479995 112.188,22.0280095 112.188,20.132 L112.188,8.396 C112.188,7.89199748 112.439997,7.64 112.944,7.64 L116.004,7.64 C116.508003,7.64 116.76,7.89199748 116.76,8.396 L116.76,19.916 C116.76,20.6840038 116.921998,21.2299984 117.246,21.554 C117.570002,21.8780016 118.103996,22.04 118.848,22.04 L120.18,22.04 C121.836008,22.04 122.664,21.1280091 122.664,19.304 L122.664,8.396 C122.664,7.89199748 122.915997,7.64 123.42,7.64 L126.444,7.64 C126.972003,7.64 127.236,7.89199748 127.236,8.396 L127.236,25.244 C127.236,25.7480025 126.972003,26 126.444,26 L123.42,26 C122.915997,26 122.664,25.7480025 122.664,25.244 L122.664,24.056 L122.52,24.056 C122.255999,24.7040032 121.788003,25.1899984 121.116,25.514 C120.443997,25.8380016 119.736004,26 118.992,26 Z M135.192,26 L132.132,26 C131.627997,26 131.376,25.7480025 131.376,25.244 L131.376,1.448 C131.376,0.94399748 131.627997,0.692 132.132,0.692 L135.192,0.692 C135.696003,0.692 135.948,0.94399748 135.948,1.448 L135.948,25.244 C135.948,25.7480025 135.696003,26 135.192,26 Z M147.036,26 L140.196,26 C139.715998,26 139.476,25.7480025 139.476,25.244 L139.476,22.94 C139.476,22.6759987 139.524,22.4900005 139.62,22.382 C139.716,22.2739995 139.907999,22.22 140.196,22.22 L146.208,22.22 C147.384006,22.22 147.972,21.8600036 147.972,21.14 L147.972,20.96 C147.972,20.3839971 147.480005,19.8320026 146.496,19.304 L142.932,17.324 C141.707994,16.6999969 140.808003,16.0280036 140.232,15.308 C139.655997,14.5879964 139.368,13.6640056 139.368,12.536 C139.368,10.8559916 139.811996,9.62000396 140.7,8.828 C141.588004,8.03599604 142.979991,7.64 144.876,7.64 L150.888,7.64 C151.368002,7.64 151.608,7.89199748 151.608,8.396 L151.608,10.736 C151.608,11.0000013 151.56,11.1859995 151.464,11.294 C151.368,11.4020005 151.176001,11.456 150.888,11.456 L145.884,11.456 C144.707994,11.456 144.12,11.755997 144.12,12.356 L144.12,12.536 C144.12,13.0640026 144.635995,13.6039972 145.668,14.156 L149.304,16.316 C150.552006,16.9880034 151.427997,17.6779965 151.932,18.386 C152.436003,19.0940035 152.688,20.0239942 152.688,21.176 C152.688,24.3920161 150.804019,26 147.036,26 Z M169.392,26 L161.436,26 C159.539991,26 158.076005,25.496005 157.044,24.488 C156.011995,23.479995 155.496,22.0280095 155.496,20.132 L155.496,13.508 C155.496,11.6119905 156.011995,10.160005 157.044,9.152 C158.076005,8.14399496 159.539991,7.64 161.436,7.64 L164.28,7.64 C166.176009,7.64 167.639995,8.14399496 168.672,9.152 C169.704005,10.160005 170.22,11.6119905 170.22,13.508 L170.22,18.08 C170.22,18.5840025 169.968003,18.836 169.464,18.836 L160.428,18.836 C160.139999,18.836 159.996,18.9679987 159.996,19.232 L159.996,20.024 C159.996,20.7680037 160.157998,21.3019984 160.482,21.626 C160.806002,21.9500016 161.351996,22.112 162.12,22.112 L169.392,22.112 C169.896003,22.112 170.148,22.3759974 170.148,22.904 L170.148,25.28 C170.148,25.5440013 170.094001,25.7299995 169.986,25.838 C169.877999,25.9460005 169.680001,26 169.392,26 Z M160.428,15.776 L165.324,15.776 C165.588001,15.776 165.72,15.6440013 165.72,15.38 L165.72,13.652 C165.72,12.8839962 165.564002,12.3440016 165.252,12.032 C164.939998,11.7199984 164.400004,11.564 163.632,11.564 L162.12,11.564 C161.351996,11.564 160.812002,11.7199984 160.5,12.032 C160.187998,12.3440016 160.032,12.8839962 160.032,13.652 L160.032,15.38 C160.032,15.6440013 160.163999,15.776 160.428,15.776 Z"></path>
            </g>
            <path d="M34.2833067,53 C34.2509217,53 34.2175112,52.9985546 34.1847843,52.9960494 C33.5529765,52.9437275 33.039088,52.4027789 32.9497086,51.6958072 L27.7592118,10.4707867 L23.4930992,34.2658744 C23.3879972,34.8508581 22.9879264,35.3127939 22.4710471,35.4446103 C21.9533987,35.5770049 21.4169517,35.3536493 21.098228,34.8764891 L15.1350184,25.933301 L11.419281,33.5960001 C11.1833571,34.083085 10.7301371,34.3859353 10.2386361,34.3859353 L1.34581728,34.3859353 C0.602328001,34.3859353 0,33.7067143 0,32.8683115 C0,32.0299087 0.602328001,31.3506878 1.34581728,31.3506878 L9.44037418,31.3506878 L13.7749312,22.4114503 C13.9941926,21.9586685 14.4024666,21.6632377 14.8587627,21.6259475 C15.3090775,21.5864412 15.7559742,21.8150965 16.03129,22.2274083 L21.4487386,30.3517541 L26.6723041,1.21675073 C26.8024425,0.49282012 27.373069,-0.02201567 28.0306823,0.0007246 C28.6855613,0.02201951 29.2316641,0.5723147 29.3236069,1.30424295 L34.7424227,44.3478102 L40.2492506,23.2734606 C40.3924627,22.724129 40.7976605,22.3128771 41.2980482,22.2095823 C41.7961287,22.1054203 42.3056594,22.3293541 42.6122494,22.7854121 L48.3723474,31.3506878 L56.0757201,31.3506878 C56.8192094,31.3506878 57.4215374,32.0299087 57.4215374,32.8683115 C57.4215374,33.7067143 56.8192094,34.3859353 56.0757201,34.3859353 L47.7042239,34.3859353 C47.2833035,34.3859353 46.8863088,34.1641213 46.6318425,33.7846672 L42.0786222,27.0137527 L35.5734114,51.9112615 C35.4039666,52.5604191 34.8755518,53 34.2833067,53" id="Fill-1" fill="#1199FF" fill-rule="nonzero"></path>
            <g id="Powered-by" opacity="0.660269475" transform="translate(63.000000, 39.000000)" fill="#FFFFFF" font-family="Rajdhani-Regular, Rajdhani" font-size="12" font-weight="normal">
                <text>
                    <tspan x="0.464" y="9">Powered by</tspan>
                </text>
            </g>
            <g id="Arc-logo" transform="translate(127.000000, 36.000000)" fill-rule="nonzero">
                <g id="Fill-1">
                    <g id="path-3-link" fill="url(#linearGradient-1)">
                        <path d="M12.5,0 C5.596351,0 0,5.37274229 0,12 L4.93952467,12 C4.93952467,7.99158347 8.32427204,4.74184119 12.5,4.74184119 C16.6755514,4.74184119 20.0897774,7.99158347 20.0897774,12 L25,12 C25,5.37274229 19.403296,0 12.5,0 Z" id="path-3"></path>
                    </g>
                    <g id="path-3-link" fill="url(#linearGradient-2)">
                        <path d="M12.5,0 C5.596351,0 0,5.37274229 0,12 L4.93952467,12 C4.93952467,7.99158347 8.32427204,4.74184119 12.5,4.74184119 C16.6755514,4.74184119 20.0897774,7.99158347 20.0897774,12 L25,12 C25,5.37274229 19.403296,0 12.5,0 Z" id="path-3"></path>
                    </g>
                </g>
                <g id="Fill-3" transform="translate(2.000000, 2.000000)">
                    <g id="path-5-link" fill="url(#linearGradient-2)">
                        <path d="M0,10 L2.3822355,10 C2.3822355,6.58685079 5.77630748,2.44204622 10.0000889,2.44204622 C14.2235147,2.44204622 17.6474669,6.58685079 17.6474669,10 L20,10 C20,4.35673968 15.5229482,0 10.0000889,0 C4.47722968,0 0,4.35673968 0,10" id="path-5"></path>
                    </g>
                    <g id="path-5-link" style="mix-blend-mode: multiply;" fill="url(#linearGradient-3)">
                        <path d="M0,10 L2.3822355,10 C2.3822355,6.58685079 5.77630748,2.44204622 10.0000889,2.44204622 C14.2235147,2.44204622 17.6474669,6.58685079 17.6474669,10 L20,10 C20,4.35673968 15.5229482,0 10.0000889,0 C4.47722968,0 0,4.35673968 0,10" id="path-5"></path>
                    </g>
                </g>
                <polyline id="Fill-5" fill="#9A0013" points="0 12 2.90908766 10 5 12"></polyline>
                <polyline id="Fill-8" fill="#417900" points="25 12 22.0734469 10 20 12"></polyline>
                <g id="Group-16" transform="translate(28.000000, 1.000000)" fill="#FFFFFF">
                    <path d="M9.56588013,1.84391618 L8.07621703,3.66304814 C7.41099516,2.82806928 6.42750957,2.30623003 5.53063231,2.30623003 C3.92514152,2.30623003 2.71017552,3.61831391 2.71017552,5.33318626 C2.71017552,7.07764092 3.92514152,8.40469634 5.53063231,8.40469634 C6.38394296,8.40469634 7.36760351,7.9277717 8.07621703,7.18208092 L9.58040233,8.82227596 C8.49561126,9.97039445 6.89029544,10.7308764 5.40045738,10.7308764 C2.34869515,10.7308764 0.0779824807,8.41966787 0.0779824807,5.36294895 C0.0779824807,2.35096426 2.40660899,0.0844899766 5.48724067,0.0844899766 C6.99142596,0.0844899766 8.55352511,0.770294611 9.56588013,1.84391618" id="Fill-15"></path>
                    <polygon id="Fill-18" points="17.5200232 10.611537 17.5200232 6.55587383 13.325731 6.55587383 13.325731 10.611537 10.7511019 10.611537 10.7511019 0.173850212 13.325731 0.173850212 13.325731 4.46815609 17.5200232 4.46815609 17.5200232 0.173850212 20.0944773 0.173850212 20.0944773 10.611537"></polygon>
                    <path d="M26.6458631,2.81318793 L25.1705472,6.67512302 L28.0921345,6.67512302 L26.6458631,2.81318793 Z M24.418542,8.68798308 L23.6808841,10.611555 L21.0339939,10.611555 L25.4020276,0.17386825 L28.0487429,0.17386825 L32.3154711,10.611555 L29.5674504,10.611555 L28.8441397,8.68798308 L24.418542,8.68798308 Z" id="Fill-20"></path>
                    <polygon id="Fill-22" points="33.2547952 10.6115911 35.8292493 10.6115911 35.8292493 0.173904326 33.2547952 0.173904326"></polygon>
                    <polygon id="Fill-24" points="41.773432 6.51106744 40.428466 8.04700286 40.428466 10.6114649 37.8538369 10.6114649 37.8538369 0.17395844 40.428466 0.17395844 40.428466 4.69193548 44.3044945 0.17395844 47.2839957 0.17395844 43.523445 4.49802701 47.5298233 10.6114649 44.4490167 10.6114649"></polygon>
                    <polygon id="Fill-25" points="48.6572537 10.6115911 51.2317079 10.6115911 51.2317079 0.173904326 48.6572537 0.173904326"></polygon>
                    <polygon id="Fill-26" points="60.3290107 10.611537 55.6717577 4.18495954 55.6717577 10.611537 53.2563479 10.611537 53.2563479 0.173850212 55.5270606 0.173850212 60.1988358 6.61539922 60.1988358 0.173850212 62.5997234 0.173850212 62.5997234 10.611537"></polygon>
                </g>
            </g>
        </g>
    </g>
</svg>