<?xml version="1.0" encoding="UTF-8"?>
<svg width="39px" height="20px" viewBox="0 0 39 20" version="1.1" xmlns="http://www.w3.org/2000/svg" xmlns:xlink="http://www.w3.org/1999/xlink">
    <!-- Generator: Sketch 40.3 (33839) - http://www.bohemiancoding.com/sketch -->
    <title>Group 13</title>
    <desc>Created with Sketch.</desc>
    <defs></defs>
    <g id="Page-1" stroke="none" stroke-width="1" fill="none" fill-rule="evenodd">
        <g id="Discovery-1024x768_v14.3" transform="translate(-378.000000, -365.000000)">
            <g id="STOCKS-LIKE" transform="translate(62.000000, 238.000000)">
                <g id="Group-6" transform="translate(0.000000, 44.000000)">
                    <g id="Group-3" transform="translate(187.000000, 0.000000)">
                        <g id="Page-1" transform="translate(129.000000, 83.000000)">
                            <g id="Group-13">
                                <path d="M27.07887,1.89975758 C24.72417,0.874 22.12977,0.303090909 19.40247,0.303090909 C8.68677,0.303090909 -3.00000002e-05,9.07763636 -3.00000002e-05,19.9015758 L7.66707,19.9015758 C7.66707,13.3549091 12.92127,8.04763636 19.40247,8.04763636 C20.51997,8.04763636 21.59967,8.20884848 22.62357,8.50339394 C22.90467,5.62218182 24.64167,3.16793939 27.07887,1.89975758" id="Fill-1" fill="#FFA42C"></path>
                                <path d="M30.92907,17.6792121 C31.06437,18.3995152 31.13817,19.1416364 31.13817,19.9016364 L38.80527,19.9016364 C38.80527,17.7667879 38.46267,15.7137576 37.83807,13.7901212 C36.38307,16.1058788 33.83337,17.6522424 30.92907,17.6792121" id="Fill-4" fill="#FFA42C"></path>
                                <path d="M31.66224,10.1463636 L31.66224,14.0321212 L30.04254,14.0321212 L30.04254,10.1463636 L26.19564,10.1463636 L26.19564,8.51030303 L30.04254,8.51030303 L30.04254,4.62454545 L31.66224,4.62454545 L31.66224,8.51030303 L35.50914,8.51030303 L35.50914,10.1463636 L31.66224,10.1463636 Z M30.85254,2.79363636 C27.28524,2.79363636 24.38304,5.72515152 24.38304,9.32818182 C24.38304,12.9315152 27.28524,15.8630303 30.85254,15.8630303 C34.41954,15.8630303 37.32174,12.9315152 37.32174,9.32818182 C37.32174,5.72515152 34.41954,2.79363636 30.85254,2.79363636 L30.85254,2.79363636 Z" id="Fill-6" fill="#00D906"></path>
                            </g>
                        </g>
                    </g>
                </g>
            </g>
        </g>
    </g>
</svg>