<?xml version="1.0" encoding="UTF-8"?>
<svg width="200px" height="100px" viewBox="0 0 200 100" version="1.1" xmlns="http://www.w3.org/2000/svg" xmlns:xlink="http://www.w3.org/1999/xlink">
    <!-- Generator: Sketch 47.1 (45422) - http://www.bohemiancoding.com/sketch -->
    <title>IP_arc-Neutral--plus</title>
    <desc>Created with Sketch.</desc>
    <defs></defs>
    <g id="IP" stroke="none" stroke-width="1" fill="none" fill-rule="evenodd">
        <g id="IP_arc-Neutral--plus">
            <path d="M158.593789,86.8887217 C159.515021,91.1025184 160,95.4891871 160,100 L200,100 C200,87.2819192 197.625806,75.1183624 193.296455,63.92837 C186.679189,76.7545442 173.723355,85.7962946 158.593789,86.8887217 Z M113.111287,41.406096 C108.897731,40.4849388 104.51132,40 100.000773,40 C66.5955424,40 40,66.5960572 40,100 L0,100 C0,44.7715501 44.7712039,0 100.000773,0 C112.718627,0 124.881972,2.3741644 136.071784,6.70346568 C123.245561,13.3206904 114.203756,26.276518 113.111287,41.406096 Z" id="Neutral" fill="#F5A623"></path>
            <path d="M159.818799,48.8187994 L159.818799,69.3336966 L151.181201,69.3336966 L151.181201,48.8187994 L130.666303,48.8187994 L130.666303,40.1812006 L151.181201,40.1812006 L151.181201,19.6663034 L159.818799,19.6663034 L159.818799,40.1812006 L180.333697,40.1812006 L180.333697,48.8187994 L159.818799,48.8187994 Z M155.5008,10 C136.476964,10 121,25.4769645 121,44.4992001 C121,63.5230355 136.476964,79 155.5008,79 C174.523036,79 190,63.5230355 190,44.4992001 C190,25.4769645 174.523036,10 155.5008,10 L155.5008,10 Z" id="Plus" fill="#24A300"></path>
        </g>
    </g>
</svg>