<?xml version="1.0" encoding="UTF-8"?>
<svg width="16px" height="27px" viewBox="0 0 16 27" version="1.1" xmlns="http://www.w3.org/2000/svg" xmlns:xlink="http://www.w3.org/1999/xlink">
    <!-- Generator: Sketch 40.3 (33839) - http://www.bohemiancoding.com/sketch -->
    <title></title>
    <desc>Created with Sketch.</desc>
    <defs></defs>
    <g id="Page-1" stroke="none" stroke-width="1" fill="none" fill-rule="evenodd">
        <g id="Discovery-1024x768_v14.3" transform="translate(-954.000000, -805.000000)" fill="#484848">
            <path d="M957.178659,831.418678 C956.96525,831.624409 956.712532,831.727273 956.420498,831.727273 C956.128465,831.727273 955.875747,831.624409 955.662338,831.418678 L954.320112,830.177081 C954.106703,829.97135 954,829.727725 954,829.446199 C954,829.164673 954.106703,828.921048 954.320112,828.715317 L964.720955,818.636364 L954.320112,808.55741 C954.106703,808.35168 954,808.108055 954,807.826528 C954,807.545002 954.106703,807.301377 954.320112,807.095646 L955.662338,805.854049 C955.875747,805.648318 956.128465,805.545455 956.420498,805.545455 C956.712532,805.545455 956.96525,805.648318 957.178659,805.854049 L969.679888,817.905482 C969.893297,818.111212 970,818.354837 970,818.636364 C970,818.91789 969.893297,819.161515 969.679888,819.367246 L957.178659,831.418678 Z" id=""></path>
        </g>
    </g>
</svg>