<?xml version="1.0" encoding="UTF-8"?>
<svg width="100px" height="100px" viewBox="0 0 100 100" version="1.1" xmlns="http://www.w3.org/2000/svg" xmlns:xlink="http://www.w3.org/1999/xlink">
    <defs></defs>
    <g id="ux-icon" stroke="none" stroke-width="1" fill="#DDD" fill-rule="evenodd">
        <g id="ux__expand--dots">
            <path d="M50,63 C42.8202983,63 37,57.1797017 37,50 C37,42.8202983 42.8202983,37 50,37 C57.1797017,37 63,42.8202983 63,50 C63,57.1797017 57.1797017,63 50,63 Z M87,63 C79.8202983,63 74,57.1797017 74,50 C74,42.8202983 79.8202983,37 87,37 C94.1797017,37 100,42.8202983 100,50 C100,57.1797017 94.1797017,63 87,63 Z M13,63 C5.82029825,63 0,57.1797017 0,50 C0,42.8202983 5.82029825,37 13,37 C20.1797017,37 26,42.8202983 26,50 C26,57.1797017 20.1797017,63 13,63 Z" id=""></path>
        </g>
    </g>
</svg>