<?xml version="1.0" encoding="UTF-8"?>
<svg width="32px" height="32px" viewBox="0 0 32 32" version="1.1" xmlns="http://www.w3.org/2000/svg" xmlns:xlink="http://www.w3.org/1999/xlink">
    <!-- Generator: Sketch 48.1 (47250) - http://www.bohemiancoding.com/sketch -->
    <title>Combined Shape</title>
    <desc>Created with Sketch.</desc>
    <defs></defs>
    <g id="Icon/Collapse" stroke="none" stroke-width="1" fill="none" fill-rule="evenodd" transform="translate(-71.000000, -15.000000)">
        <path d="M87,47 C78.163444,47 71,39.836556 71,31 C71,22.163444 78.163444,15 87,15 C95.836556,15 103,22.163444 103,31 C103,39.836556 95.836556,47 87,47 Z M78.9754659,26 C78.1074262,26 77.6693501,27.2752912 78.2940142,28.0110362 L86.3172971,37.6541999 C86.6985856,38.1152667 87.3070246,38.1152667 87.6883131,37.6541999 L95.711596,28.0110362 C96.3281476,27.2752912 95.8900715,26 95.0220318,26 L78.9754659,26 Z" id="Combined-Shape" fill="#CCCCCC" transform="translate(87.000000, 31.000000) rotate(-180.000000) translate(-87.000000, -31.000000) "></path>
    </g>
</svg>