<?xml version="1.0" encoding="UTF-8"?>
<svg width="100px" height="100px" viewBox="0 0 100 100" version="1.1" xmlns="http://www.w3.org/2000/svg" xmlns:xlink="http://www.w3.org/1999/xlink">
    <!-- Generator: Sketch 48.2 (47327) - http://www.bohemiancoding.com/sketch -->
    <title>Artboard</title>
    <desc>Created with Sketch.</desc>
    <defs></defs>
    <g id="icons" stroke="none" stroke-width="1" fill="none" fill-rule="evenodd">
        <g id="Artboard" fill="#FFFFFF" fill-rule="nonzero">
            <g id="cog" transform="translate(0.000000, 1.000000)">
                <path d="M37.2818359,97.8382813 C36.3996094,97.8382813 35.5080078,97.6447266 34.6708984,97.2416016 L22.3240234,91.2966797 C19.7169922,90.0416016 18.3679687,87.1015625 19.1166016,84.3056641 C19.8361328,81.61875 20.7980469,78.4833984 21.9244141,75.1496094 C20.8183079,73.9338417 19.7918872,72.6478964 18.8515625,71.2998047 C15.3400391,71.6585938 12.0671875,71.8994141 9.29355469,72.0017578 C6.40820312,72.1023438 3.84453125,70.1392578 3.20078125,67.3191406 L0.1515625,53.9595703 C-0.492382812,51.1384766 0.965429687,48.2507813 3.61796875,47.0931641 C6.16796875,45.9804688 9.21738281,44.7785156 12.5222656,43.5820313 C12.7820405,41.9574843 13.1474641,40.351604 13.6162109,38.7746094 C11.1445312,36.2507813 8.91679687,33.84375 7.11289062,31.7455078 C5.22949219,29.5546875 5.17167969,26.3234375 6.975,24.0621094 L15.51875,13.3484375 C17.3232422,11.0859375 20.4900391,10.4259766 23.0484375,11.7775391 C25.5007812,13.0736328 28.340625,14.7080078 31.3425781,16.5496094 C32.7754022,15.7398791 34.2593966,15.0242397 35.7851562,14.4072266 C36.2166016,10.9066406 36.7099609,7.66464844 37.2267578,4.94082031 C37.7652344,2.10253906 40.2552734,0.042578125 43.1476562,0.042578125 L56.8509766,0.042578125 C59.7445312,0.042578125 62.2355469,2.10644531 62.7738281,4.95 C63.290625,7.68105469 63.7835937,10.9195313 64.2146484,14.4074219 C65.7407732,15.0243303 67.2250425,15.740107 68.6580078,16.5501953 C71.6697266,14.7013672 74.5125,13.0652344 76.9599609,11.7732422 C79.5144531,10.4253906 82.6777344,11.0873047 84.48125,13.3486328 L93.0248047,24.0625 C94.8289063,26.3246094 94.7685547,29.5589844 92.8806641,31.7527344 C91.0732422,33.8535156 88.8482422,36.2578125 86.3839844,38.7755859 C86.8527755,40.3529658 87.2181993,41.9592389 87.4779297,43.5841797 C90.7955078,44.784375 93.8480469,45.9873047 96.3908203,47.0982422 L96.3910156,47.0982422 C99.0380859,48.2550781 100.491992,51.1410156 99.8482422,53.9609375 L96.7984375,67.3203125 C96.1541016,70.1417969 93.5845703,72.1117188 90.6955078,72.0023438 C87.9164063,71.8986328 84.6466797,71.6582031 81.146875,71.3015625 C80.2068861,72.6491459 79.1807894,73.9345721 78.075,75.1498047 C79.2060547,78.4939453 80.1693359,81.6320312 80.8863281,84.3140625 C81.6322266,87.1052734 80.2822266,90.0414062 77.6761719,91.2960937 L65.3296875,97.2410156 C62.7220703,98.4964844 59.5824219,97.7171875 57.8640625,95.3886719 C56.2126953,93.1513672 54.3619141,90.4447266 52.4580078,87.4851562 C50.8125,87.5921875 49.1875,87.5921875 47.5408203,87.4851562 C45.6322266,90.4541016 43.7796875,93.1638672 42.1302734,95.396875 C40.9654297,96.9740234 39.1453125,97.8380859 37.2818359,97.8382812 Z M25.2015625,85.7455078 L37.2164062,91.5304688 C40.2314453,87.43125 42.8994141,83.1443359 44.3316406,80.8705078 C49.5396484,81.4767578 50.5482422,81.4667969 55.6666016,80.8707031 C57.0205078,83.0185547 59.7291016,87.3728516 62.7847656,91.5300781 L74.7994141,85.7451172 C73.4724609,80.821875 71.7777344,76.0441406 70.9015625,73.5302734 C74.6179688,69.8517578 75.2113281,69.1089844 77.9755859,64.6695313 C80.5240234,64.9529297 85.5941406,65.5474609 90.7466797,65.7501953 L93.7144531,52.7498047 C89.0203125,50.7105469 84.2037109,49.0494141 81.7345703,48.1820313 C81.1830078,42.990625 80.9751953,42.0607422 79.2185547,37.1236328 C81.0291016,35.3074219 84.6650391,31.703125 88.0238281,27.815625 L79.7101563,17.3896484 C75.2917969,19.7335937 71.1164063,22.3755859 68.6724609,23.9072266 C64.2789063,21.1087891 63.4207031,20.6882812 58.4556641,18.9798828 C58.1677734,16.4595703 57.6173828,11.3681641 56.6673828,6.29277344 L43.3320312,6.29277344 C42.4472656,11.0085937 41.9367187,15.5496094 41.5460937,18.9792969 C36.6271484,20.6720703 35.7673828,21.0798828 31.3294922,23.9056641 C29.1703125,22.5535156 24.8341797,19.8023437 20.2902344,17.3896484 L11.9761719,27.8152344 C15.2761719,31.6375 18.8380859,35.1724609 20.7824219,37.1212891 C19.0357422,42.0296875 18.8208984,42.9568359 18.2658203,48.1785156 C15.8505859,49.0277344 11.0189453,50.6939453 6.28554688,52.7482422 L9.25273438,65.7486328 C14.2609375,65.5537109 19.1591797,64.9855469 22.0224609,64.6662109 C24.7855469,69.1050781 25.3802734,69.8498047 29.096875,73.5289063 C28.2638672,75.9228516 26.5462891,80.7621094 25.2015625,85.7455078 Z M93.8865234,52.8248047 L93.8882812,52.8255859 L93.8865234,52.8248047 Z M50,67.4777344 C40.1472656,67.4777344 32.1316406,59.4619141 32.1316406,49.609375 C32.1316406,39.7568359 40.1474609,31.7410156 50,31.7410156 C59.8525391,31.7410156 67.8683594,39.7568359 67.8683594,49.609375 C67.8683594,59.4619141 59.8525391,67.4777344 50,67.4777344 Z M50,37.9910156 C43.5935547,37.9910156 38.3816406,43.203125 38.3816406,49.609375 C38.3816406,56.015625 43.59375,61.2277344 50,61.2277344 C56.40625,61.2277344 61.6183594,56.015625 61.6183594,49.609375 C61.6183594,43.203125 56.4064453,37.9910156 50,37.9910156 Z" id="Shape"></path>
            </g>
        </g>
    </g>
</svg>