<?xml version="1.0" encoding="UTF-8"?>
<svg width="100px" height="100px" viewBox="0 0 100 100" version="1.1" xmlns="http://www.w3.org/2000/svg" xmlns:xlink="http://www.w3.org/1999/xlink">
    <!-- Generator: Sketch 48.2 (47327) - http://www.bohemiancoding.com/sketch -->
    <title>ux__arrow--next</title>
    <desc>Created with Sketch.</desc>
    <defs></defs>
    <g id="HeadStat/Icon/Exclaimation/Green-Copy-2" stroke="none" stroke-width="1" fill="none" fill-rule="evenodd">
        <path d="M7.28665285,54.8367515 C9.69002745,76.2984022 27.8966289,92.9824561 50,92.9824561 C73.738555,92.9824561 92.9824561,73.738555 92.9824561,50 C92.9824561,26.261445 73.738555,7.01754386 50,7.01754386 C27.8252006,7.01754386 9.57239674,23.8096031 7.26384841,45.3714615 L59.1208307,45.3714615 L35.2905711,22.4042136 C33.9542949,21.0957765 33.9264558,18.9521667 35.2348929,17.6437295 L37.15579,15.7228324 C38.4920663,14.4143953 40.607837,14.4143953 41.9162741,15.7228324 L73.9590648,47.737784 C75.2675019,49.0462212 75.2675019,51.1619919 73.9590648,52.470429 L41.9162741,84.4853806 C40.607837,85.7938177 38.4920663,85.7938177 37.1836291,84.4853806 L35.262732,82.5644835 C33.9542949,81.2560463 33.9542949,79.0845974 35.3184102,77.8039994 L59.1486698,54.8367515 L7.28665285,54.8367515 Z M50,100 C22.3857625,100 0,77.6142375 0,50 C0,22.3857625 22.3857625,0 50,0 C77.6142375,0 100,22.3857625 100,50 C100,77.6142375 77.6142375,100 50,100 Z" id="ux__arrow--next" fill="#1199FF" fill-rule="nonzero"></path>
    </g>
</svg>