<?xml version="1.0" encoding="UTF-8"?>
<svg width="100px" height="100px" viewBox="0 0 100 100" version="1.1" xmlns="http://www.w3.org/2000/svg" xmlns:xlink="http://www.w3.org/1999/xlink">
    <!-- Generator: Sketch 48.2 (47327) - http://www.bohemiancoding.com/sketch -->
    <title>ux__collapse--circle copy</title>
    <desc>Created with Sketch.</desc>
    <defs></defs>
    <g id="icons" stroke="none" stroke-width="1" fill="none" fill-rule="evenodd">
        <g id="ux__collapse--circle-copy"></g>
        <g id="minus-circle" fill="#FFFFFF" fill-rule="nonzero">
            <path d="M26.6129032,53.6290323 C25.2822581,53.6290323 24.1935484,52.5403226 24.1935484,51.2096774 L24.1935484,48.7903226 C24.1935484,47.4596774 25.2822581,46.3709677 26.6129032,46.3709677 L73.3870968,46.3709677 C74.7177419,46.3709677 75.8064516,47.4596774 75.8064516,48.7903226 L75.8064516,51.2096774 C75.8064516,52.5403226 74.7177419,53.6290323 73.3870968,53.6290323 L26.6129032,53.6290323 Z M100,50 C100,77.6209677 77.6209677,100 50,100 C22.3790323,100 0,77.6209677 0,50 C0,22.3790323 22.3790323,0 50,0 C77.6209677,0 100,22.3790323 100,50 Z M93.5483871,50 C93.5483871,25.8266129 73.9314516,6.4516129 50,6.4516129 C25.8266129,6.4516129 6.4516129,26.0685484 6.4516129,50 C6.4516129,74.1733871 26.0685484,93.5483871 50,93.5483871 C74.1733871,93.5483871 93.5483871,73.9314516 93.5483871,50 Z" id="Shape"></path>
        </g>
    </g>
</svg>