<?xml version="1.0" encoding="UTF-8"?>
<svg width="100px" height="100px" viewBox="0 0 100 100" version="1.1" xmlns="http://www.w3.org/2000/svg" xmlns:xlink="http://www.w3.org/1999/xlink">
    <!-- Generator: Sketch 48.2 (47327) - http://www.bohemiancoding.com/sketch -->
    <title>ux__arrow--next</title>
    <desc>Created with Sketch.</desc>
    <defs></defs>
    <g id="HeadStat/Icon/Exclaimation/Green-Copy-3" stroke="none" stroke-width="1" fill="none" fill-rule="evenodd">
        <path d="M50,100 C22.3857625,100 0,77.6142375 0,50 C0,22.3857625 22.3857625,0 50,0 C77.6142375,0 100,22.3857625 100,50 C100,77.6142375 77.6142375,100 50,100 Z M50,92.9824561 C73.738555,92.9824561 92.9824561,73.738555 92.9824561,50 C92.9824561,26.261445 73.738555,7.01754386 50,7.01754386 C26.261445,7.01754386 7.01754386,26.261445 7.01754386,50 C7.01754386,73.738555 26.261445,92.9824561 50,92.9824561 Z M37,33 L37,67 L70,49.9945704 L37,33 Z M32.0583981,77 C31.5038086,77 30.9532969,76.850376 30.4680311,76.5592158 C29.5545895,76.0052027 29,75.026581 29,73.9670815 L29,26.0348371 C29,24.9753376 29.5545895,23.9967158 30.4639532,23.4427027 C31.3773948,22.8927335 32.5069631,22.8522946 33.4611834,23.3375615 L80.3403093,47.2976179 C81.3597753,47.8192799 82,48.85856 82,49.9948934 C82,51.1312269 81.3597753,52.170507 80.3403093,52.692169 L33.4611834,76.664357 C33.020774,76.8908149 32.5395861,77 32.0583981,77 Z" id="ux__arrow--next" fill="#00C04E" fill-rule="nonzero"></path>
    </g>
</svg>