<?xml version="1.0" encoding="UTF-8"?>
<svg width="100px" height="100px" viewBox="0 0 100 100" version="1.1" xmlns="http://www.w3.org/2000/svg" xmlns:xlink="http://www.w3.org/1999/xlink">
    <defs></defs>
    <g id="ux-icon" stroke="none" stroke-width="1" fill="#DDD" fill-rule="evenodd">
        <g id="ux__collapse--circle">
            <path d="M50,84 C31.2223185,84 16,68.7776815 16,50 C16,31.2223185 31.2223185,16 50,16 C68.7776815,16 84,31.2223185 84,50 C84,68.7776815 68.7776815,84 50,84 Z M50,77 C64.9116882,77 77,64.9116882 77,50 C77,35.0883118 64.9116882,23 50,23 C35.0883118,23 23,35.0883118 23,50 C23,64.9116882 35.0883118,77 50,77 Z M50,63 C42.8202983,63 37,57.1797017 37,50 C37,42.8202983 42.8202983,37 50,37 C57.1797017,37 63,42.8202983 63,50 C63,57.1797017 57.1797017,63 50,63 Z" id=""></path>
        </g>
    </g>
</svg>