<?xml version="1.0" encoding="UTF-8"?>
<svg width="99px" height="99px" viewBox="0 0 99 99" version="1.1" xmlns="http://www.w3.org/2000/svg" xmlns:xlink="http://www.w3.org/1999/xlink">
    <!-- Generator: Sketch 48.2 (47327) - http://www.bohemiancoding.com/sketch -->
    <title>Group</title>
    <desc>Created with Sketch.</desc>
    <defs></defs>
    <g id="HeadStat/Icon/Exclaimation/Red-Copy" stroke="none" stroke-width="1" fill="none" fill-rule="evenodd">
        <g id="Group" fill="#FD001F">
            <path d="M49.4,98.8 C76.6895161,98.8 98.8,76.6895161 98.8,49.4 C98.8,22.1104839 76.6895161,0 49.4,0 C22.1104839,0 0,22.1104839 0,49.4 C0,76.6895161 22.1104839,98.8 49.4,98.8 Z M6.37419355,49.4 C6.37419355,25.7557258 25.5166935,6.37419355 49.4,6.37419355 C73.0442742,6.37419355 92.4258065,25.5166935 92.4258065,49.4 C92.4258065,73.0442742 73.2833065,92.4258065 49.4,92.4258065 C25.7557258,92.4258065 6.37419355,73.2833065 6.37419355,49.4 Z" id="Shape" fill-rule="nonzero" transform="translate(49.400000, 49.400000) rotate(-180.000000) translate(-49.400000, -49.400000) "></path>
            <path d="M39.0709165,49.6034235 C39.9272102,50.0771622 41.1553851,50.7933035 42.5735224,51.6205968 C46.760822,54.063663 52.6866277,57.5204421 54.4781088,58.0664378 C58.2633022,59.2192942 60.6317395,60.3697096 61.9425456,61.4424975 C64.1260579,60.1290972 69.1867137,57.4615299 72.9385946,56.3255985 C73.471107,56.1640782 73.9855007,56.0316071 74.472432,55.9339626 C76.0299131,54.1007679 77.2497192,52.0202884 78.0891129,49.7953764 C78.9698628,47.4633809 79.4319315,44.9650642 79.4319315,42.4193085 C79.4319315,36.6624311 77.1016817,31.4490268 73.3359071,27.6775881 C69.5701324,23.9059867 64.3643641,21.5718756 58.6157647,21.5718756 C52.8671652,21.5718756 47.6620469,23.9054171 43.8956223,27.6775881 C40.1298476,31.4490268 37.7988666,36.6618615 37.7988666,42.4193085 C37.7988666,43.7327088 37.9196041,45.0288586 38.1568541,46.2892868 C38.3684291,47.4117107 38.673604,48.5203829 39.0709165,49.6034235 Z M38.9168665,64.7910539 C42.9979724,66.0849253 46.5030158,66.7555805 50.4574529,67.5124884 L51.4795778,67.7078588 C54.7607775,68.3384798 58.8164522,67.9496104 61.0915332,66.8963514 C62.0469519,66.4536962 62.7696705,65.8620517 63.1361893,65.1313451 C63.3908267,64.6241632 63.4800392,64.0950925 63.3745767,63.5525144 C65.3286391,62.375491 70.0977699,59.8717224 73.681057,58.7868103 C74.7551819,58.4618168 75.6775318,58.2760481 76.299988,58.319093 C76.4279568,58.3277183 76.4867005,58.172789 76.494663,58.2389431 C76.533988,58.5687375 76.3198943,59.178609 75.7790131,60.1400822 L75.7832381,60.1426046 C74.125007,63.0860177 68.9476762,67.2883128 63.3854642,70.7140085 C58.042546,74.0043037 52.443284,76.5215797 49.4081905,76.4364662 C47.8239782,76.3927703 39.3436727,73.2657042 33.0882358,70.9586894 C29.5380986,69.650334 26.6815114,68.5965054 25.980974,68.4567924 C23.1117117,67.8840258 21.5903869,68.3881971 19.4167871,69.108651 C18.9460246,69.2642313 18.4385372,69.4323426 17.916181,69.5890621 C17.2381498,69.791349 16.8517248,70.5074089 17.0537123,71.1865266 C17.2556998,71.865563 17.970781,72.2526422 18.6488121,72.0502739 C19.2461621,71.8711775 19.7496683,71.7039613 20.2184808,71.5492761 C22.0149181,70.9540513 23.272993,70.5372719 25.4800678,70.9776487 C26.000474,71.0814774 28.7667925,72.1019441 32.2050484,73.3689633 C38.6200603,75.7348903 47.3164907,78.940723 49.337828,78.9972754 C52.8975527,79.0976052 59.0264021,76.4152285 64.7293391,72.9031175 C70.5998948,69.2877473 76.1324505,64.7310839 78.0101379,61.3951399 L78.0114379,61.392536 L78.0157441,61.3951399 C78.841894,59.9268102 79.143819,58.7934827 79.0419315,57.9377098 C78.9242003,56.9481638 78.4312566,56.3305621 77.6523942,56.0115086 C78.8273503,54.3618043 79.7777315,52.574828 80.4859876,50.6992393 C81.479025,48.0695093 82,45.2658907 82,42.4193085 C82,35.9542641 79.3821252,30.0981147 75.1505444,25.8600979 C70.9189635,21.6221625 65.0714828,19 58.6157647,19 C52.1599653,19 46.3125658,21.6215929 42.080985,25.8600979 C37.8494041,30.0981147 35.2308794,35.9529622 35.2308794,42.4193085 C35.2308794,43.8668073 35.3693293,45.3215481 35.6398106,46.7618049 C35.7495793,47.3444173 35.881123,47.9225543 36.033873,48.494263 C30.0696361,47.0723145 27.0259301,48.8575007 23.7574054,50.7767853 C22.497218,51.5167681 21.1973807,52.2801856 19.6537933,52.8330164 L19.5652308,52.8681684 C19.4263746,52.9138986 19.2286933,52.970207 18.9872996,53.0357915 C18.7027621,53.1124425 18.3650872,53.1962541 17.9913372,53.2837273 C17.3016873,53.4445967 16.8729311,54.1351876 17.033806,54.8258599 C17.1945185,55.5165322 17.8840872,55.9459241 18.5737372,55.7849733 C18.9642246,55.6932688 19.3269246,55.6032731 19.6495683,55.5165322 C19.917612,55.4436243 20.1711933,55.3677871 20.4077932,55.2864166 C20.4441932,55.2772218 20.4805932,55.2655858 20.5163432,55.2529734 C22.2496493,54.6321983 23.6720929,53.7961983 25.0519616,52.9866438 C28.1293863,51.1796504 30.9738672,49.5103357 37.1251417,51.4644469 C37.1591854,51.4753506 37.2378354,51.5131065 37.3549167,51.575599 L37.3585729,51.5780401 L37.3592229,51.5780401 C37.4058604,51.6064383 37.4537979,51.6332906 37.5036041,51.6558302 C38.1622166,52.0159758 39.5790539,52.8426995 41.2901788,53.8398943 C45.5757096,56.3401639 51.6402903,59.8778252 53.7356464,60.5167459 C57.9248147,61.7923904 60.0240708,62.9098507 60.7239582,63.8199791 L60.7712457,63.8824716 L60.7718957,63.8831225 L60.8494895,63.985812 C60.762227,64.1600261 60.4631458,64.3599533 60.0180583,64.5663088 C58.162146,65.4259875 54.7644338,65.7260003 51.9610653,65.1870839 L50.9391029,64.9916321 C47.0761533,64.2523002 43.6535786,63.5974309 39.6894727,62.3407458 C39.0144478,62.1275552 38.2927041,62.5029171 38.0798291,63.1790241 C37.8669541,63.8551311 38.2417603,64.5778634 38.9168665,64.7910539 Z M58.5817209,49.6829225 L58.6151147,49.6822715 L58.6485084,49.6829225 L60.7493895,49.6829225 C61.5761894,49.6829225 62.3240143,49.3494664 62.8631893,48.8107127 C63.4011455,48.2707384 63.7341892,47.5216421 63.7341892,46.6938606 C63.7341892,45.8664859 63.4011455,45.1176338 62.8631893,44.5775781 C62.3240143,44.0389058 61.5755394,43.705287 60.7493895,43.705287 L56.4814899,43.705287 C54.9530963,43.705287 53.5653464,43.0821521 52.5603652,42.0763321 L52.555409,42.0713685 C51.5510778,41.0648975 50.9288654,39.6752531 50.9288654,38.1444309 C50.9288654,36.6138529 51.5510778,35.2246153 52.555409,34.2181443 L52.5603652,34.2131807 C53.5653464,33.2073607 54.9530963,32.5842258 56.4814899,32.5842258 L57.331121,32.5842258 L57.331121,30.3537806 C57.331121,29.6436608 57.906046,29.0678835 58.6151147,29.0678835 C59.3241834,29.0678835 59.8991083,29.6436608 59.8991083,30.3537806 L59.8991083,32.5842258 L65.0182641,32.5842258 C65.727089,32.5842258 66.302014,33.1600031 66.302014,33.8701229 C66.302014,34.5803242 65.727089,35.15602 65.0182641,35.15602 L58.6151147,35.15602 L56.4814899,35.15602 C55.65469,35.15602 54.906865,35.4894761 54.3676901,36.0281484 C53.8298151,36.5682041 53.4968527,37.3170563 53.4968527,38.1444309 C53.4968527,38.9724566 53.8298151,39.7213087 54.3676901,40.261283 C54.906865,40.8000367 55.65469,41.1336555 56.4814899,41.1336555 L60.7493895,41.1336555 C62.2779456,41.1336555 63.6656142,41.7567904 64.6705954,42.7626104 L64.6754704,42.767574 C65.6798828,43.774045 66.302014,45.1632826 66.302014,46.6938606 C66.302014,48.2244386 65.6798828,49.6143272 64.6754704,50.6207982 L64.6705954,50.6256804 C63.6656142,51.6315818 62.2783518,52.2547167 60.7493895,52.2547167 L59.8991083,52.2547167 L59.8991083,54.4851619 C59.8991083,55.1952817 59.3241834,55.771059 58.6151147,55.771059 C57.906046,55.771059 57.331121,55.1952817 57.331121,54.4851619 L57.331121,52.2547167 L52.212859,52.2547167 C51.5037903,52.2547167 50.9288654,51.6789394 50.9288654,50.9687382 C50.9288654,50.2586997 51.5037903,49.6829225 52.212859,49.6829225 L58.5817209,49.6829225 Z" id="Fill-1" stroke="#FD001F" stroke-width="2.01999998"></path>
        </g>
    </g>
</svg>